# Original Project Broom pickup; OBJ Y up; CC-BY-SA-4.0
o Wrapped_ration
v 0.000000 0.120000 -0.000000
v 2.678784 0.348361 -0.000000
v 2.474874 0.348361 -0.732233
v 1.894186 0.348361 -1.352990
v 1.025126 0.348361 -1.767767
v 0.000000 0.348361 -1.913417
v -1.025126 0.348361 -1.767767
v -1.894186 0.348361 -1.352990
v -2.474874 0.348361 -0.732233
v -2.678784 0.348361 -0.000000
v -2.474874 0.348361 0.732233
v -1.894186 0.348361 1.352990
v -1.025126 0.348361 1.767767
v -0.000000 0.348361 1.913417
v 1.025126 0.348361 1.767767
v 1.894186 0.348361 1.352990
v 2.474874 0.348361 0.732233
v 2.678784 0.348361 0.000000
v 4.949747 0.998680 -0.000000
v 4.572970 0.998680 -1.352990
v 3.500000 0.998680 -2.500000
v 1.894186 0.998680 -3.266407
v 0.000000 0.998680 -3.535534
v -1.894186 0.998680 -3.266407
v -3.500000 0.998680 -2.500000
v -4.572970 0.998680 -1.352990
v -4.949747 0.998680 -0.000000
v -4.572970 0.998680 1.352990
v -3.500000 0.998680 2.500000
v -1.894186 0.998680 3.266407
v -0.000000 0.998680 3.535534
v 1.894186 0.998680 3.266407
v 3.500000 0.998680 2.500000
v 4.572970 0.998680 1.352990
v 4.949747 0.998680 0.000000
v 6.467157 1.971950 -0.000000
v 5.974874 1.971950 -1.767767
v 4.572970 1.971950 -3.266407
v 2.474874 1.971950 -4.267767
v 0.000000 1.971950 -4.619398
v -2.474874 1.971950 -4.267767
v -4.572970 1.971950 -3.266407
v -5.974874 1.971950 -1.767767
v -6.467157 1.971950 -0.000000
v -5.974874 1.971950 1.767767
v -4.572970 1.971950 3.266407
v -2.474874 1.971950 4.267767
v -0.000000 1.971950 4.619398
v 2.474874 1.971950 4.267767
v 4.572970 1.971950 3.266407
v 5.974874 1.971950 1.767767
v 6.467157 1.971950 0.000000
v 7.000000 3.120000 -0.000000
v 6.467157 3.120000 -1.913417
v 4.949747 3.120000 -3.535534
v 2.678784 3.120000 -4.619398
v 0.000000 3.120000 -5.000000
v -2.678784 3.120000 -4.619398
v -4.949747 3.120000 -3.535534
v -6.467157 3.120000 -1.913417
v -7.000000 3.120000 -0.000000
v -6.467157 3.120000 1.913417
v -4.949747 3.120000 3.535534
v -2.678784 3.120000 4.619398
v -0.000000 3.120000 5.000000
v 2.678784 3.120000 4.619398
v 4.949747 3.120000 3.535534
v 6.467157 3.120000 1.913417
v 7.000000 3.120000 0.000000
v 6.467157 4.268050 -0.000000
v 5.974874 4.268050 -1.767767
v 4.572970 4.268050 -3.266407
v 2.474874 4.268050 -4.267767
v 0.000000 4.268050 -4.619398
v -2.474874 4.268050 -4.267767
v -4.572970 4.268050 -3.266407
v -5.974874 4.268050 -1.767767
v -6.467157 4.268050 -0.000000
v -5.974874 4.268050 1.767767
v -4.572970 4.268050 3.266407
v -2.474874 4.268050 4.267767
v -0.000000 4.268050 4.619398
v 2.474874 4.268050 4.267767
v 4.572970 4.268050 3.266407
v 5.974874 4.268050 1.767767
v 6.467157 4.268050 0.000000
v 4.949747 5.241320 -0.000000
v 4.572970 5.241320 -1.352990
v 3.500000 5.241320 -2.500000
v 1.894186 5.241320 -3.266407
v 0.000000 5.241320 -3.535534
v -1.894186 5.241320 -3.266407
v -3.500000 5.241320 -2.500000
v -4.572970 5.241320 -1.352990
v -4.949747 5.241320 -0.000000
v -4.572970 5.241320 1.352990
v -3.500000 5.241320 2.500000
v -1.894186 5.241320 3.266407
v -0.000000 5.241320 3.535534
v 1.894186 5.241320 3.266407
v 3.500000 5.241320 2.500000
v 4.572970 5.241320 1.352990
v 4.949747 5.241320 0.000000
v 2.678784 5.891639 -0.000000
v 2.474874 5.891639 -0.732233
v 1.894186 5.891639 -1.352990
v 1.025126 5.891639 -1.767767
v 0.000000 5.891639 -1.913417
v -1.025126 5.891639 -1.767767
v -1.894186 5.891639 -1.352990
v -2.474874 5.891639 -0.732233
v -2.678784 5.891639 -0.000000
v -2.474874 5.891639 0.732233
v -1.894186 5.891639 1.352990
v -1.025126 5.891639 1.767767
v -0.000000 5.891639 1.913417
v 1.025126 5.891639 1.767767
v 1.894186 5.891639 1.352990
v 2.474874 5.891639 0.732233
v 2.678784 5.891639 0.000000
v 0.000000 6.120000 -0.000000
vt 0.1250000 0.4912500
vt 0.0087500 0.4621875
vt 0.0232813 0.4621875
vt 0.0378125 0.4621875
vt 0.0523438 0.4621875
vt 0.0668750 0.4621875
vt 0.0814063 0.4621875
vt 0.0959375 0.4621875
vt 0.1104688 0.4621875
vt 0.1250000 0.4621875
vt 0.1395313 0.4621875
vt 0.1540625 0.4621875
vt 0.1685938 0.4621875
vt 0.1831250 0.4621875
vt 0.1976563 0.4621875
vt 0.2121875 0.4621875
vt 0.2267188 0.4621875
vt 0.2412500 0.4621875
vt 0.0087500 0.4331250
vt 0.0232813 0.4331250
vt 0.0378125 0.4331250
vt 0.0523438 0.4331250
vt 0.0668750 0.4331250
vt 0.0814063 0.4331250
vt 0.0959375 0.4331250
vt 0.1104688 0.4331250
vt 0.1250000 0.4331250
vt 0.1395313 0.4331250
vt 0.1540625 0.4331250
vt 0.1685938 0.4331250
vt 0.1831250 0.4331250
vt 0.1976563 0.4331250
vt 0.2121875 0.4331250
vt 0.2267188 0.4331250
vt 0.2412500 0.4331250
vt 0.0087500 0.4040625
vt 0.0232813 0.4040625
vt 0.0378125 0.4040625
vt 0.0523438 0.4040625
vt 0.0668750 0.4040625
vt 0.0814063 0.4040625
vt 0.0959375 0.4040625
vt 0.1104688 0.4040625
vt 0.1250000 0.4040625
vt 0.1395313 0.4040625
vt 0.1540625 0.4040625
vt 0.1685938 0.4040625
vt 0.1831250 0.4040625
vt 0.1976563 0.4040625
vt 0.2121875 0.4040625
vt 0.2267188 0.4040625
vt 0.2412500 0.4040625
vt 0.0087500 0.3750000
vt 0.0232813 0.3750000
vt 0.0378125 0.3750000
vt 0.0523438 0.3750000
vt 0.0668750 0.3750000
vt 0.0814063 0.3750000
vt 0.0959375 0.3750000
vt 0.1104688 0.3750000
vt 0.1250000 0.3750000
vt 0.1395313 0.3750000
vt 0.1540625 0.3750000
vt 0.1685938 0.3750000
vt 0.1831250 0.3750000
vt 0.1976563 0.3750000
vt 0.2121875 0.3750000
vt 0.2267188 0.3750000
vt 0.2412500 0.3750000
vt 0.0087500 0.3459375
vt 0.0232813 0.3459375
vt 0.0378125 0.3459375
vt 0.0523438 0.3459375
vt 0.0668750 0.3459375
vt 0.0814063 0.3459375
vt 0.0959375 0.3459375
vt 0.1104688 0.3459375
vt 0.1250000 0.3459375
vt 0.1395313 0.3459375
vt 0.1540625 0.3459375
vt 0.1685938 0.3459375
vt 0.1831250 0.3459375
vt 0.1976563 0.3459375
vt 0.2121875 0.3459375
vt 0.2267188 0.3459375
vt 0.2412500 0.3459375
vt 0.0087500 0.3168750
vt 0.0232813 0.3168750
vt 0.0378125 0.3168750
vt 0.0523438 0.3168750
vt 0.0668750 0.3168750
vt 0.0814063 0.3168750
vt 0.0959375 0.3168750
vt 0.1104688 0.3168750
vt 0.1250000 0.3168750
vt 0.1395313 0.3168750
vt 0.1540625 0.3168750
vt 0.1685938 0.3168750
vt 0.1831250 0.3168750
vt 0.1976563 0.3168750
vt 0.2121875 0.3168750
vt 0.2267188 0.3168750
vt 0.2412500 0.3168750
vt 0.0087500 0.2878125
vt 0.0232813 0.2878125
vt 0.0378125 0.2878125
vt 0.0523438 0.2878125
vt 0.0668750 0.2878125
vt 0.0814063 0.2878125
vt 0.0959375 0.2878125
vt 0.1104688 0.2878125
vt 0.1250000 0.2878125
vt 0.1395313 0.2878125
vt 0.1540625 0.2878125
vt 0.1685938 0.2878125
vt 0.1831250 0.2878125
vt 0.1976563 0.2878125
vt 0.2121875 0.2878125
vt 0.2267188 0.2878125
vt 0.2412500 0.2878125
vt 0.1250000 0.2587500
vn -0.0000000 -1.0000000 -0.0000000
vn 0.2053884 -0.9784049 -0.0232270
vn 0.1826573 -0.9744155 -0.1309610
vn 0.1319659 -0.9671604 -0.2172227
vn 0.0621423 -0.9609520 -0.2696471
vn -0.0162667 -0.9592976 -0.2819283
vn -0.0924576 -0.9631034 -0.2527516
vn -0.1556574 -0.9702669 -0.1853456
vn -0.1957532 -0.9766588 -0.0884212
vn -0.2053884 -0.9784049 0.0232270
vn -0.1826573 -0.9744155 0.1309610
vn -0.1319659 -0.9671604 0.2172227
vn -0.0621423 -0.9609520 0.2696471
vn 0.0162667 -0.9592976 0.2819283
vn 0.0924576 -0.9631034 0.2527516
vn 0.1556574 -0.9702669 0.1853456
vn 0.1957532 -0.9766588 0.0884212
vn 0.2053884 -0.9784049 -0.0232270
vn 0.4113920 -0.9112018 -0.0216316
vn 0.3690194 -0.8986740 -0.2370860
vn 0.2685070 -0.8738864 -0.4052488
vn 0.1339153 -0.8523728 -0.5054970
vn -0.0143322 -0.8452124 -0.5342384
vn -0.1612320 -0.8556095 -0.4918705
vn -0.2911019 -0.8788329 -0.3780376
vn -0.3822905 -0.9024697 -0.1985004
vn -0.4113920 -0.9112018 0.0216316
vn -0.3690194 -0.8986740 0.2370860
vn -0.2685070 -0.8738864 0.4052488
vn -0.1339153 -0.8523728 0.5054970
vn 0.0143322 -0.8452124 0.5342384
vn 0.1612320 -0.8556095 0.4918705
vn 0.2911019 -0.8788329 0.3780376
vn 0.3822905 -0.9024697 0.1985004
vn 0.4113920 -0.9112018 -0.0216316
vn 0.7295683 -0.6837153 -0.0162312
vn 0.6441544 -0.6577367 -0.3904454
vn 0.4516466 -0.6082469 -0.6527259
vn 0.2235973 -0.5694110 -0.7910596
vn -0.0094322 -0.5562430 -0.8309661
vn -0.2424056 -0.5716923 -0.7838415
vn -0.4692582 -0.6121938 -0.6364083
vn -0.6561867 -0.6612598 -0.3635305
vn -0.7295683 -0.6837153 0.0162312
vn -0.6441544 -0.6577367 0.3904454
vn -0.4516466 -0.6082469 0.6527259
vn -0.2235973 -0.5694110 0.7910596
vn 0.0094322 -0.5562430 0.8309661
vn 0.2424056 -0.5716923 0.7838415
vn 0.4692582 -0.6121938 0.6364083
vn 0.6561867 -0.6612598 0.3635305
vn 0.7295683 -0.6837153 -0.0162312
vn 1.0000000 -0.0000000 0.0000000
vn 0.8650691 -0.0000000 -0.5016527
vn 0.5812382 -0.0000000 -0.8137335
vn 0.2837097 -0.0000000 -0.9589102
vn 0.0000000 -0.0000000 -1.0000000
vn -0.2837097 -0.0000000 -0.9589102
vn -0.5812382 -0.0000000 -0.8137335
vn -0.8650691 0.0000000 -0.5016527
vn -1.0000000 -0.0000000 -0.0000000
vn -0.8650691 -0.0000000 0.5016527
vn -0.5812382 -0.0000000 0.8137335
vn -0.2837097 0.0000000 0.9589102
vn -0.0000000 0.0000000 1.0000000
vn 0.2837097 -0.0000000 0.9589102
vn 0.5812382 0.0000000 0.8137335
vn 0.8650691 0.0000000 0.5016527
vn 1.0000000 -0.0000000 0.0000000
vn 0.7295683 0.6837153 0.0162312
vn 0.6561867 0.6612598 -0.3635305
vn 0.4692582 0.6121938 -0.6364083
vn 0.2424056 0.5716923 -0.7838415
vn 0.0094322 0.5562430 -0.8309661
vn -0.2235973 0.5694110 -0.7910596
vn -0.4516466 0.6082469 -0.6527259
vn -0.6441544 0.6577367 -0.3904454
vn -0.7295683 0.6837153 -0.0162312
vn -0.6561867 0.6612598 0.3635305
vn -0.4692582 0.6121938 0.6364083
vn -0.2424056 0.5716923 0.7838415
vn -0.0094322 0.5562430 0.8309661
vn 0.2235973 0.5694110 0.7910596
vn 0.4516466 0.6082469 0.6527259
vn 0.6441544 0.6577367 0.3904454
vn 0.7295683 0.6837153 0.0162312
vn 0.4113920 0.9112018 0.0216316
vn 0.3822905 0.9024697 -0.1985004
vn 0.2911019 0.8788329 -0.3780376
vn 0.1612320 0.8556095 -0.4918705
vn 0.0143322 0.8452124 -0.5342384
vn -0.1339153 0.8523728 -0.5054970
vn -0.2685070 0.8738864 -0.4052488
vn -0.3690194 0.8986740 -0.2370860
vn -0.4113920 0.9112018 -0.0216316
vn -0.3822905 0.9024697 0.1985004
vn -0.2911019 0.8788329 0.3780376
vn -0.1612320 0.8556095 0.4918705
vn -0.0143322 0.8452124 0.5342384
vn 0.1339153 0.8523728 0.5054970
vn 0.2685070 0.8738864 0.4052488
vn 0.3690194 0.8986740 0.2370860
vn 0.4113920 0.9112018 0.0216316
vn 0.2053884 0.9784049 0.0232270
vn 0.1957532 0.9766588 -0.0884212
vn 0.1556574 0.9702669 -0.1853456
vn 0.0924576 0.9631034 -0.2527516
vn 0.0162667 0.9592976 -0.2819283
vn -0.0621423 0.9609520 -0.2696471
vn -0.1319659 0.9671604 -0.2172227
vn -0.1826573 0.9744155 -0.1309610
vn -0.2053884 0.9784049 -0.0232270
vn -0.1957532 0.9766588 0.0884212
vn -0.1556574 0.9702669 0.1853456
vn -0.0924576 0.9631034 0.2527516
vn -0.0162667 0.9592976 0.2819283
vn 0.0621423 0.9609520 0.2696471
vn 0.1319659 0.9671604 0.2172227
vn 0.1826573 0.9744155 0.1309610
vn 0.2053884 0.9784049 0.0232270
vn -0.0000000 1.0000000 0.0000000
f 1/1/1 3/3/3 2/2/2
f 1/1/1 4/4/4 3/3/3
f 1/1/1 5/5/5 4/4/4
f 1/1/1 6/6/6 5/5/5
f 1/1/1 7/7/7 6/6/6
f 1/1/1 8/8/8 7/7/7
f 1/1/1 9/9/9 8/8/8
f 1/1/1 10/10/10 9/9/9
f 1/1/1 11/11/11 10/10/10
f 1/1/1 12/12/12 11/11/11
f 1/1/1 13/13/13 12/12/12
f 1/1/1 14/14/14 13/13/13
f 1/1/1 15/15/15 14/14/14
f 1/1/1 16/16/16 15/15/15
f 1/1/1 17/17/17 16/16/16
f 1/1/1 18/18/18 17/17/17
f 2/2/2 3/3/3 20/20/20
f 2/2/2 20/20/20 19/19/19
f 3/3/3 4/4/4 21/21/21
f 3/3/3 21/21/21 20/20/20
f 4/4/4 5/5/5 22/22/22
f 4/4/4 22/22/22 21/21/21
f 5/5/5 6/6/6 23/23/23
f 5/5/5 23/23/23 22/22/22
f 6/6/6 7/7/7 24/24/24
f 6/6/6 24/24/24 23/23/23
f 7/7/7 8/8/8 25/25/25
f 7/7/7 25/25/25 24/24/24
f 8/8/8 9/9/9 26/26/26
f 8/8/8 26/26/26 25/25/25
f 9/9/9 10/10/10 27/27/27
f 9/9/9 27/27/27 26/26/26
f 10/10/10 11/11/11 28/28/28
f 10/10/10 28/28/28 27/27/27
f 11/11/11 12/12/12 29/29/29
f 11/11/11 29/29/29 28/28/28
f 12/12/12 13/13/13 30/30/30
f 12/12/12 30/30/30 29/29/29
f 13/13/13 14/14/14 31/31/31
f 13/13/13 31/31/31 30/30/30
f 14/14/14 15/15/15 32/32/32
f 14/14/14 32/32/32 31/31/31
f 15/15/15 16/16/16 33/33/33
f 15/15/15 33/33/33 32/32/32
f 16/16/16 17/17/17 34/34/34
f 16/16/16 34/34/34 33/33/33
f 17/17/17 18/18/18 35/35/35
f 17/17/17 35/35/35 34/34/34
f 19/19/19 20/20/20 37/37/37
f 19/19/19 37/37/37 36/36/36
f 20/20/20 21/21/21 38/38/38
f 20/20/20 38/38/38 37/37/37
f 21/21/21 22/22/22 39/39/39
f 21/21/21 39/39/39 38/38/38
f 22/22/22 23/23/23 40/40/40
f 22/22/22 40/40/40 39/39/39
f 23/23/23 24/24/24 41/41/41
f 23/23/23 41/41/41 40/40/40
f 24/24/24 25/25/25 42/42/42
f 24/24/24 42/42/42 41/41/41
f 25/25/25 26/26/26 43/43/43
f 25/25/25 43/43/43 42/42/42
f 26/26/26 27/27/27 44/44/44
f 26/26/26 44/44/44 43/43/43
f 27/27/27 28/28/28 45/45/45
f 27/27/27 45/45/45 44/44/44
f 28/28/28 29/29/29 46/46/46
f 28/28/28 46/46/46 45/45/45
f 29/29/29 30/30/30 47/47/47
f 29/29/29 47/47/47 46/46/46
f 30/30/30 31/31/31 48/48/48
f 30/30/30 48/48/48 47/47/47
f 31/31/31 32/32/32 49/49/49
f 31/31/31 49/49/49 48/48/48
f 32/32/32 33/33/33 50/50/50
f 32/32/32 50/50/50 49/49/49
f 33/33/33 34/34/34 51/51/51
f 33/33/33 51/51/51 50/50/50
f 34/34/34 35/35/35 52/52/52
f 34/34/34 52/52/52 51/51/51
f 36/36/36 37/37/37 54/54/54
f 36/36/36 54/54/54 53/53/53
f 37/37/37 38/38/38 55/55/55
f 37/37/37 55/55/55 54/54/54
f 38/38/38 39/39/39 56/56/56
f 38/38/38 56/56/56 55/55/55
f 39/39/39 40/40/40 57/57/57
f 39/39/39 57/57/57 56/56/56
f 40/40/40 41/41/41 58/58/58
f 40/40/40 58/58/58 57/57/57
f 41/41/41 42/42/42 59/59/59
f 41/41/41 59/59/59 58/58/58
f 42/42/42 43/43/43 60/60/60
f 42/42/42 60/60/60 59/59/59
f 43/43/43 44/44/44 61/61/61
f 43/43/43 61/61/61 60/60/60
f 44/44/44 45/45/45 62/62/62
f 44/44/44 62/62/62 61/61/61
f 45/45/45 46/46/46 63/63/63
f 45/45/45 63/63/63 62/62/62
f 46/46/46 47/47/47 64/64/64
f 46/46/46 64/64/64 63/63/63
f 47/47/47 48/48/48 65/65/65
f 47/47/47 65/65/65 64/64/64
f 48/48/48 49/49/49 66/66/66
f 48/48/48 66/66/66 65/65/65
f 49/49/49 50/50/50 67/67/67
f 49/49/49 67/67/67 66/66/66
f 50/50/50 51/51/51 68/68/68
f 50/50/50 68/68/68 67/67/67
f 51/51/51 52/52/52 69/69/69
f 51/51/51 69/69/69 68/68/68
f 53/53/53 54/54/54 71/71/71
f 53/53/53 71/71/71 70/70/70
f 54/54/54 55/55/55 72/72/72
f 54/54/54 72/72/72 71/71/71
f 55/55/55 56/56/56 73/73/73
f 55/55/55 73/73/73 72/72/72
f 56/56/56 57/57/57 74/74/74
f 56/56/56 74/74/74 73/73/73
f 57/57/57 58/58/58 75/75/75
f 57/57/57 75/75/75 74/74/74
f 58/58/58 59/59/59 76/76/76
f 58/58/58 76/76/76 75/75/75
f 59/59/59 60/60/60 77/77/77
f 59/59/59 77/77/77 76/76/76
f 60/60/60 61/61/61 78/78/78
f 60/60/60 78/78/78 77/77/77
f 61/61/61 62/62/62 79/79/79
f 61/61/61 79/79/79 78/78/78
f 62/62/62 63/63/63 80/80/80
f 62/62/62 80/80/80 79/79/79
f 63/63/63 64/64/64 81/81/81
f 63/63/63 81/81/81 80/80/80
f 64/64/64 65/65/65 82/82/82
f 64/64/64 82/82/82 81/81/81
f 65/65/65 66/66/66 83/83/83
f 65/65/65 83/83/83 82/82/82
f 66/66/66 67/67/67 84/84/84
f 66/66/66 84/84/84 83/83/83
f 67/67/67 68/68/68 85/85/85
f 67/67/67 85/85/85 84/84/84
f 68/68/68 69/69/69 86/86/86
f 68/68/68 86/86/86 85/85/85
f 70/70/70 71/71/71 88/88/88
f 70/70/70 88/88/88 87/87/87
f 71/71/71 72/72/72 89/89/89
f 71/71/71 89/89/89 88/88/88
f 72/72/72 73/73/73 90/90/90
f 72/72/72 90/90/90 89/89/89
f 73/73/73 74/74/74 91/91/91
f 73/73/73 91/91/91 90/90/90
f 74/74/74 75/75/75 92/92/92
f 74/74/74 92/92/92 91/91/91
f 75/75/75 76/76/76 93/93/93
f 75/75/75 93/93/93 92/92/92
f 76/76/76 77/77/77 94/94/94
f 76/76/76 94/94/94 93/93/93
f 77/77/77 78/78/78 95/95/95
f 77/77/77 95/95/95 94/94/94
f 78/78/78 79/79/79 96/96/96
f 78/78/78 96/96/96 95/95/95
f 79/79/79 80/80/80 97/97/97
f 79/79/79 97/97/97 96/96/96
f 80/80/80 81/81/81 98/98/98
f 80/80/80 98/98/98 97/97/97
f 81/81/81 82/82/82 99/99/99
f 81/81/81 99/99/99 98/98/98
f 82/82/82 83/83/83 100/100/100
f 82/82/82 100/100/100 99/99/99
f 83/83/83 84/84/84 101/101/101
f 83/83/83 101/101/101 100/100/100
f 84/84/84 85/85/85 102/102/102
f 84/84/84 102/102/102 101/101/101
f 85/85/85 86/86/86 103/103/103
f 85/85/85 103/103/103 102/102/102
f 87/87/87 88/88/88 105/105/105
f 87/87/87 105/105/105 104/104/104
f 88/88/88 89/89/89 106/106/106
f 88/88/88 106/106/106 105/105/105
f 89/89/89 90/90/90 107/107/107
f 89/89/89 107/107/107 106/106/106
f 90/90/90 91/91/91 108/108/108
f 90/90/90 108/108/108 107/107/107
f 91/91/91 92/92/92 109/109/109
f 91/91/91 109/109/109 108/108/108
f 92/92/92 93/93/93 110/110/110
f 92/92/92 110/110/110 109/109/109
f 93/93/93 94/94/94 111/111/111
f 93/93/93 111/111/111 110/110/110
f 94/94/94 95/95/95 112/112/112
f 94/94/94 112/112/112 111/111/111
f 95/95/95 96/96/96 113/113/113
f 95/95/95 113/113/113 112/112/112
f 96/96/96 97/97/97 114/114/114
f 96/96/96 114/114/114 113/113/113
f 97/97/97 98/98/98 115/115/115
f 97/97/97 115/115/115 114/114/114
f 98/98/98 99/99/99 116/116/116
f 98/98/98 116/116/116 115/115/115
f 99/99/99 100/100/100 117/117/117
f 99/99/99 117/117/117 116/116/116
f 100/100/100 101/101/101 118/118/118
f 100/100/100 118/118/118 117/117/117
f 101/101/101 102/102/102 119/119/119
f 101/101/101 119/119/119 118/118/118
f 102/102/102 103/103/103 120/120/120
f 102/102/102 120/120/120 119/119/119
f 104/104/104 105/105/105 121/121/121
f 105/105/105 106/106/106 121/121/121
f 106/106/106 107/107/107 121/121/121
f 107/107/107 108/108/108 121/121/121
f 108/108/108 109/109/109 121/121/121
f 109/109/109 110/110/110 121/121/121
f 110/110/110 111/111/111 121/121/121
f 111/111/111 112/112/112 121/121/121
f 112/112/112 113/113/113 121/121/121
f 113/113/113 114/114/114 121/121/121
f 114/114/114 115/115/115 121/121/121
f 115/115/115 116/116/116 121/121/121
f 116/116/116 117/117/117 121/121/121
f 117/117/117 118/118/118 121/121/121
f 118/118/118 119/119/119 121/121/121
f 119/119/119 120/120/120 121/121/121
o Twine_binding
v -2.820000 2.120000 4.600000
v -2.910000 2.048505 4.461478
v -3.090000 2.048505 4.461478
v -3.180000 2.120000 4.600000
v -3.090000 2.191495 4.738522
v -2.910000 2.191495 4.738522
v -2.820000 2.120000 4.600000
v -2.820000 5.220000 3.000000
v -2.910000 5.104882 2.894892
v -3.090000 5.104882 2.894892
v -3.180000 5.220000 3.000000
v -3.090000 5.335118 3.105108
v -2.910000 5.335118 3.105108
v -2.820000 5.220000 3.000000
v -2.820000 6.320000 -0.000000
v -2.910000 6.164115 -0.000000
v -3.090000 6.164115 -0.000000
v -3.180000 6.320000 -0.000000
v -3.090000 6.475885 -0.000000
v -2.910000 6.475885 -0.000000
v -2.820000 6.320000 -0.000000
v -2.820000 5.220000 -3.000000
v -2.910000 5.104882 -2.894892
v -3.090000 5.104882 -2.894892
v -3.180000 5.220000 -3.000000
v -3.090000 5.335118 -3.105108
v -2.910000 5.335118 -3.105108
v -2.820000 5.220000 -3.000000
v -2.820000 2.120000 -4.600000
v -2.910000 2.048505 -4.461478
v -3.090000 2.048505 -4.461478
v -3.180000 2.120000 -4.600000
v -3.090000 2.191495 -4.738522
v -2.910000 2.191495 -4.738522
v -2.820000 2.120000 -4.600000
v -3.000000 2.120000 4.600000
v -3.000000 2.120000 -4.600000
vt 0.0087500 0.7412500
vt 0.0475000 0.7412500
vt 0.0862500 0.7412500
vt 0.1250000 0.7412500
vt 0.1637500 0.7412500
vt 0.2025000 0.7412500
vt 0.2412500 0.7412500
vt 0.0087500 0.6831250
vt 0.0475000 0.6831250
vt 0.0862500 0.6831250
vt 0.1250000 0.6831250
vt 0.1637500 0.6831250
vt 0.2025000 0.6831250
vt 0.2412500 0.6831250
vt 0.0087500 0.6250000
vt 0.0475000 0.6250000
vt 0.0862500 0.6250000
vt 0.1250000 0.6250000
vt 0.1637500 0.6250000
vt 0.2025000 0.6250000
vt 0.2412500 0.6250000
vt 0.0087500 0.5668750
vt 0.0475000 0.5668750
vt 0.0862500 0.5668750
vt 0.1250000 0.5668750
vt 0.1637500 0.5668750
vt 0.2025000 0.5668750
vt 0.2412500 0.5668750
vt 0.0087500 0.5087500
vt 0.0475000 0.5087500
vt 0.0862500 0.5087500
vt 0.1250000 0.5087500
vt 0.1637500 0.5087500
vt 0.2025000 0.5087500
vt 0.2412500 0.5087500
vt 0.1250000 0.6250000
vt 0.1250000 0.6250000
vn 0.9810343 -0.1178197 -0.1539166
vn 0.3271631 -0.4612670 -0.8247406
vn -0.6438295 -0.3798947 -0.6642015
vn -0.9803012 0.0592908 0.1883992
vn -0.3271729 0.4059235 0.8533370
vn 0.6411078 0.3229799 0.6961787
vn 0.9810343 -0.1178197 -0.1539166
vn 0.9972405 -0.0384380 0.0635127
vn 0.5198548 -0.6523257 -0.5515634
vn -0.4942337 -0.6140477 -0.6153685
vn -0.9972239 0.0466272 -0.0580554
vn -0.5133994 0.6610184 0.5472438
vn 0.4917098 0.6193675 0.6120502
vn 0.9972405 -0.0384380 0.0635127
vn 0.9974731 0.0067578 0.0707234
vn 0.5008853 -0.8648585 0.0336720
vn -0.5008853 -0.8648585 -0.0336720
vn -0.9974731 0.0067578 -0.0707234
vn -0.4950800 0.8680660 -0.0368397
vn 0.4950800 0.8680660 0.0368397
vn 0.9974731 0.0067578 0.0707234
vn 0.9972239 0.0466272 0.0580554
vn 0.4942337 -0.6140477 0.6153685
vn -0.5198548 -0.6523257 0.5515634
vn -0.9972405 -0.0384380 -0.0635127
vn -0.4917098 0.6193675 -0.6120502
vn 0.5133994 0.6610184 -0.5472438
vn 0.9972239 0.0466272 0.0580554
vn 0.9803012 0.0592908 -0.1883992
vn 0.6438295 -0.3798947 0.6642015
vn -0.3271631 -0.4612670 0.8247406
vn -0.9810343 -0.1178197 0.1539166
vn -0.6411078 0.3229799 -0.6961787
vn 0.3271729 0.4059235 -0.8533370
vn 0.9803012 0.0592908 -0.1883992
vn 0.0000000 -0.8886207 0.4586429
vn 0.0000000 -0.8886207 -0.4586429
f 122/122/122 123/123/123 130/130/130
f 122/122/122 130/130/130 129/129/129
f 123/123/123 124/124/124 131/131/131
f 123/123/123 131/131/131 130/130/130
f 124/124/124 125/125/125 132/132/132
f 124/124/124 132/132/132 131/131/131
f 125/125/125 126/126/126 133/133/133
f 125/125/125 133/133/133 132/132/132
f 126/126/126 127/127/127 134/134/134
f 126/126/126 134/134/134 133/133/133
f 127/127/127 128/128/128 135/135/135
f 127/127/127 135/135/135 134/134/134
f 129/129/129 130/130/130 137/137/137
f 129/129/129 137/137/137 136/136/136
f 130/130/130 131/131/131 138/138/138
f 130/130/130 138/138/138 137/137/137
f 131/131/131 132/132/132 139/139/139
f 131/131/131 139/139/139 138/138/138
f 132/132/132 133/133/133 140/140/140
f 132/132/132 140/140/140 139/139/139
f 133/133/133 134/134/134 141/141/141
f 133/133/133 141/141/141 140/140/140
f 134/134/134 135/135/135 142/142/142
f 134/134/134 142/142/142 141/141/141
f 136/136/136 137/137/137 144/144/144
f 136/136/136 144/144/144 143/143/143
f 137/137/137 138/138/138 145/145/145
f 137/137/137 145/145/145 144/144/144
f 138/138/138 139/139/139 146/146/146
f 138/138/138 146/146/146 145/145/145
f 139/139/139 140/140/140 147/147/147
f 139/139/139 147/147/147 146/146/146
f 140/140/140 141/141/141 148/148/148
f 140/140/140 148/148/148 147/147/147
f 141/141/141 142/142/142 149/149/149
f 141/141/141 149/149/149 148/148/148
f 143/143/143 144/144/144 151/151/151
f 143/143/143 151/151/151 150/150/150
f 144/144/144 145/145/145 152/152/152
f 144/144/144 152/152/152 151/151/151
f 145/145/145 146/146/146 153/153/153
f 145/145/145 153/153/153 152/152/152
f 146/146/146 147/147/147 154/154/154
f 146/146/146 154/154/154 153/153/153
f 147/147/147 148/148/148 155/155/155
f 147/147/147 155/155/155 154/154/154
f 148/148/148 149/149/149 156/156/156
f 148/148/148 156/156/156 155/155/155
f 157/157/157 123/123/123 122/122/122
f 157/157/157 124/124/124 123/123/123
f 157/157/157 125/125/125 124/124/124
f 157/157/157 126/126/126 125/125/125
f 157/157/157 127/127/127 126/126/126
f 157/157/157 128/128/128 127/127/127
f 158/158/158 150/150/150 151/151/151
f 158/158/158 151/151/151 152/152/152
f 158/158/158 152/152/152 153/153/153
f 158/158/158 153/153/153 154/154/154
f 158/158/158 154/154/154 155/155/155
f 158/158/158 155/155/155 156/156/156
o Twine_binding
v 3.180000 2.120000 4.600000
v 3.090000 2.048505 4.461478
v 2.910000 2.048505 4.461478
v 2.820000 2.120000 4.600000
v 2.910000 2.191495 4.738522
v 3.090000 2.191495 4.738522
v 3.180000 2.120000 4.600000
v 3.180000 5.220000 3.000000
v 3.090000 5.104882 2.894892
v 2.910000 5.104882 2.894892
v 2.820000 5.220000 3.000000
v 2.910000 5.335118 3.105108
v 3.090000 5.335118 3.105108
v 3.180000 5.220000 3.000000
v 3.180000 6.320000 -0.000000
v 3.090000 6.164115 -0.000000
v 2.910000 6.164115 -0.000000
v 2.820000 6.320000 -0.000000
v 2.910000 6.475885 -0.000000
v 3.090000 6.475885 -0.000000
v 3.180000 6.320000 -0.000000
v 3.180000 5.220000 -3.000000
v 3.090000 5.104882 -2.894892
v 2.910000 5.104882 -2.894892
v 2.820000 5.220000 -3.000000
v 2.910000 5.335118 -3.105108
v 3.090000 5.335118 -3.105108
v 3.180000 5.220000 -3.000000
v 3.180000 2.120000 -4.600000
v 3.090000 2.048505 -4.461478
v 2.910000 2.048505 -4.461478
v 2.820000 2.120000 -4.600000
v 2.910000 2.191495 -4.738522
v 3.090000 2.191495 -4.738522
v 3.180000 2.120000 -4.600000
v 3.000000 2.120000 4.600000
v 3.000000 2.120000 -4.600000
vt 0.0087500 0.7412500
vt 0.0475000 0.7412500
vt 0.0862500 0.7412500
vt 0.1250000 0.7412500
vt 0.1637500 0.7412500
vt 0.2025000 0.7412500
vt 0.2412500 0.7412500
vt 0.0087500 0.6831250
vt 0.0475000 0.6831250
vt 0.0862500 0.6831250
vt 0.1250000 0.6831250
vt 0.1637500 0.6831250
vt 0.2025000 0.6831250
vt 0.2412500 0.6831250
vt 0.0087500 0.6250000
vt 0.0475000 0.6250000
vt 0.0862500 0.6250000
vt 0.1250000 0.6250000
vt 0.1637500 0.6250000
vt 0.2025000 0.6250000
vt 0.2412500 0.6250000
vt 0.0087500 0.5668750
vt 0.0475000 0.5668750
vt 0.0862500 0.5668750
vt 0.1250000 0.5668750
vt 0.1637500 0.5668750
vt 0.2025000 0.5668750
vt 0.2412500 0.5668750
vt 0.0087500 0.5087500
vt 0.0475000 0.5087500
vt 0.0862500 0.5087500
vt 0.1250000 0.5087500
vt 0.1637500 0.5087500
vt 0.2025000 0.5087500
vt 0.2412500 0.5087500
vt 0.1250000 0.6250000
vt 0.1250000 0.6250000
vn 0.9810343 -0.1178197 -0.1539166
vn 0.3271631 -0.4612670 -0.8247406
vn -0.6438295 -0.3798947 -0.6642015
vn -0.9803012 0.0592908 0.1883992
vn -0.3271729 0.4059235 0.8533370
vn 0.6411078 0.3229799 0.6961787
vn 0.9810343 -0.1178197 -0.1539166
vn 0.9972405 -0.0384380 0.0635127
vn 0.5198548 -0.6523257 -0.5515634
vn -0.4942337 -0.6140477 -0.6153685
vn -0.9972239 0.0466272 -0.0580554
vn -0.5133994 0.6610184 0.5472438
vn 0.4917098 0.6193675 0.6120502
vn 0.9972405 -0.0384380 0.0635127
vn 0.9974731 0.0067578 0.0707234
vn 0.5008853 -0.8648585 0.0336720
vn -0.5008853 -0.8648585 -0.0336720
vn -0.9974731 0.0067578 -0.0707234
vn -0.4950800 0.8680660 -0.0368397
vn 0.4950800 0.8680660 0.0368397
vn 0.9974731 0.0067578 0.0707234
vn 0.9972239 0.0466272 0.0580554
vn 0.4942337 -0.6140477 0.6153685
vn -0.5198548 -0.6523257 0.5515634
vn -0.9972405 -0.0384380 -0.0635127
vn -0.4917098 0.6193675 -0.6120502
vn 0.5133994 0.6610184 -0.5472438
vn 0.9972239 0.0466272 0.0580554
vn 0.9803012 0.0592908 -0.1883992
vn 0.6438295 -0.3798947 0.6642015
vn -0.3271631 -0.4612670 0.8247406
vn -0.9810343 -0.1178197 0.1539166
vn -0.6411078 0.3229799 -0.6961787
vn 0.3271729 0.4059235 -0.8533370
vn 0.9803012 0.0592908 -0.1883992
vn 0.0000000 -0.8886207 0.4586429
vn 0.0000000 -0.8886207 -0.4586429
f 159/159/159 160/160/160 167/167/167
f 159/159/159 167/167/167 166/166/166
f 160/160/160 161/161/161 168/168/168
f 160/160/160 168/168/168 167/167/167
f 161/161/161 162/162/162 169/169/169
f 161/161/161 169/169/169 168/168/168
f 162/162/162 163/163/163 170/170/170
f 162/162/162 170/170/170 169/169/169
f 163/163/163 164/164/164 171/171/171
f 163/163/163 171/171/171 170/170/170
f 164/164/164 165/165/165 172/172/172
f 164/164/164 172/172/172 171/171/171
f 166/166/166 167/167/167 174/174/174
f 166/166/166 174/174/174 173/173/173
f 167/167/167 168/168/168 175/175/175
f 167/167/167 175/175/175 174/174/174
f 168/168/168 169/169/169 176/176/176
f 168/168/168 176/176/176 175/175/175
f 169/169/169 170/170/170 177/177/177
f 169/169/169 177/177/177 176/176/176
f 170/170/170 171/171/171 178/178/178
f 170/170/170 178/178/178 177/177/177
f 171/171/171 172/172/172 179/179/179
f 171/171/171 179/179/179 178/178/178
f 173/173/173 174/174/174 181/181/181
f 173/173/173 181/181/181 180/180/180
f 174/174/174 175/175/175 182/182/182
f 174/174/174 182/182/182 181/181/181
f 175/175/175 176/176/176 183/183/183
f 175/175/175 183/183/183 182/182/182
f 176/176/176 177/177/177 184/184/184
f 176/176/176 184/184/184 183/183/183
f 177/177/177 178/178/178 185/185/185
f 177/177/177 185/185/185 184/184/184
f 178/178/178 179/179/179 186/186/186
f 178/178/178 186/186/186 185/185/185
f 180/180/180 181/181/181 188/188/188
f 180/180/180 188/188/188 187/187/187
f 181/181/181 182/182/182 189/189/189
f 181/181/181 189/189/189 188/188/188
f 182/182/182 183/183/183 190/190/190
f 182/182/182 190/190/190 189/189/189
f 183/183/183 184/184/184 191/191/191
f 183/183/183 191/191/191 190/190/190
f 184/184/184 185/185/185 192/192/192
f 184/184/184 192/192/192 191/191/191
f 185/185/185 186/186/186 193/193/193
f 185/185/185 193/193/193 192/192/192
f 194/194/194 160/160/160 159/159/159
f 194/194/194 161/161/161 160/160/160
f 194/194/194 162/162/162 161/161/161
f 194/194/194 163/163/163 162/162/162
f 194/194/194 164/164/164 163/163/163
f 194/194/194 165/165/165 164/164/164
f 195/195/195 187/187/187 188/188/188
f 195/195/195 188/188/188 189/189/189
f 195/195/195 189/189/189 190/190/190
f 195/195/195 190/190/190 191/191/191
f 195/195/195 191/191/191 192/192/192
f 195/195/195 192/192/192 193/193/193
o Tied_cord
v -3.000000 6.370000 0.180000
v -3.000000 6.214115 0.090000
v -3.000000 6.214115 -0.090000
v -3.000000 6.370000 -0.180000
v -3.000000 6.525885 -0.090000
v -3.000000 6.525885 0.090000
v -3.000000 6.370000 0.180000
v 3.080397 6.366985 0.161020
v 3.034357 6.212717 0.080510
v 2.953960 6.215732 -0.080510
v 2.919603 6.373015 -0.161020
v 2.965643 6.527283 -0.080510
v 3.046040 6.524268 0.080510
v 3.080397 6.366985 0.161020
v 0.876867 6.182825 -1.874079
v 0.909925 6.353713 -1.919954
v 1.033058 6.390888 -2.045875
v 1.123133 6.257175 -2.125921
v 1.090075 6.086287 -2.080046
v 0.966942 6.049112 -1.954125
v 0.876867 6.182825 -1.874079
v -3.000000 6.370000 -0.000000
v 1.000000 6.220000 -2.000000
vt 0.0087500 0.7412500
vt 0.0475000 0.7412500
vt 0.0862500 0.7412500
vt 0.1250000 0.7412500
vt 0.1637500 0.7412500
vt 0.2025000 0.7412500
vt 0.2412500 0.7412500
vt 0.0087500 0.6250000
vt 0.0475000 0.6250000
vt 0.0862500 0.6250000
vt 0.1250000 0.6250000
vt 0.1637500 0.6250000
vt 0.2025000 0.6250000
vt 0.2412500 0.6250000
vt 0.0087500 0.5087500
vt 0.0475000 0.5087500
vt 0.0862500 0.5087500
vt 0.1250000 0.5087500
vt 0.1637500 0.5087500
vt 0.2025000 0.5087500
vt 0.2412500 0.5087500
vt 0.1250000 0.6250000
vt 0.1250000 0.6250000
vn -0.0170291 -0.1695126 0.9853809
vn -0.0199202 -0.9417190 0.3358101
vn -0.0182512 -0.7459888 -0.6657083
vn -0.0173994 0.1709171 -0.9851318
vn -0.0199613 0.9428603 -0.3325899
vn -0.0178960 0.7452022 0.6665983
vn -0.0170291 -0.1695126 0.9853809
vn 0.1164562 0.2600545 0.9585456
vn 0.1398453 -0.6097365 0.7801696
vn -0.0081273 -0.9059916 -0.4232176
vn -0.0927202 -0.2541550 -0.9627088
vn -0.0276463 0.6146795 -0.7882924
vn 0.0876263 0.9022333 0.4222519
vn 0.1164562 0.2600545 0.9585456
vn -0.5769242 -0.5707246 0.5843217
vn -0.1709163 0.9779623 0.1199059
vn 0.1966389 0.9625268 -0.1867490
vn 0.5512512 0.5463006 -0.6306170
vn 0.2214502 -0.9671659 -0.1246989
vn -0.0592391 -0.9749479 0.2144000
vn -0.5769242 -0.5707246 0.5843217
vn -1.0000000 0.0000000 -0.0000000
vn -0.7061145 -0.0529586 -0.7061145
f 196/196/196 197/197/197 204/204/204
f 196/196/196 204/204/204 203/203/203
f 197/197/197 198/198/198 205/205/205
f 197/197/197 205/205/205 204/204/204
f 198/198/198 199/199/199 206/206/206
f 198/198/198 206/206/206 205/205/205
f 199/199/199 200/200/200 207/207/207
f 199/199/199 207/207/207 206/206/206
f 200/200/200 201/201/201 208/208/208
f 200/200/200 208/208/208 207/207/207
f 201/201/201 202/202/202 209/209/209
f 201/201/201 209/209/209 208/208/208
f 203/203/203 204/204/204 211/211/211
f 203/203/203 211/211/211 210/210/210
f 204/204/204 205/205/205 212/212/212
f 204/204/204 212/212/212 211/211/211
f 205/205/205 206/206/206 213/213/213
f 205/205/205 213/213/213 212/212/212
f 206/206/206 207/207/207 214/214/214
f 206/206/206 214/214/214 213/213/213
f 207/207/207 208/208/208 215/215/215
f 207/207/207 215/215/215 214/214/214
f 208/208/208 209/209/209 216/216/216
f 208/208/208 216/216/216 215/215/215
f 217/217/217 197/197/197 196/196/196
f 217/217/217 198/198/198 197/197/197
f 217/217/217 199/199/199 198/198/198
f 217/217/217 200/200/200 199/199/199
f 217/217/217 201/201/201 200/200/200
f 217/217/217 202/202/202 201/201/201
f 218/218/218 210/210/210 211/211/211
f 218/218/218 211/211/211 212/212/212
f 218/218/218 212/212/212 213/213/213
f 218/218/218 213/213/213 214/214/214
f 218/218/218 214/214/214 215/215/215
f 218/218/218 215/215/215 216/216/216
