# Original Project Broom pickup; OBJ Y up; CC-BY-SA-4.0
o Asymmetric_mango
v 0.000000 0.120000 -0.000000
v 1.501150 0.263112 -0.000000
v 1.427679 0.263112 -0.319918
v 1.214456 0.263112 -0.608520
v 0.882354 0.263112 -0.837556
v 0.463881 0.263112 -0.984606
v 0.000000 0.263112 -1.035276
v -0.463881 0.263112 -0.984606
v -0.882354 0.263112 -0.837556
v -1.214456 0.263112 -0.608520
v -1.427679 0.263112 -0.319918
v -1.501150 0.263112 -0.000000
v -1.427679 0.263112 0.319918
v -1.214456 0.263112 0.608520
v -0.882354 0.263112 0.837556
v -0.463881 0.263112 0.984606
v -0.000000 0.263112 1.035276
v 0.463881 0.263112 0.984606
v 0.882354 0.263112 0.837556
v 1.214456 0.263112 0.608520
v 1.427679 0.263112 0.319918
v 1.501150 0.263112 0.000000
v 2.900000 0.682693 -0.000000
v 2.758064 0.682693 -0.618034
v 2.346149 0.682693 -1.175571
v 1.704577 0.682693 -1.618034
v 0.896149 0.682693 -1.902113
v 0.000000 0.682693 -2.000000
v -0.896149 0.682693 -1.902113
v -1.704577 0.682693 -1.618034
v -2.346149 0.682693 -1.175571
v -2.758064 0.682693 -0.618034
v -2.900000 0.682693 -0.000000
v -2.758064 0.682693 0.618034
v -2.346149 0.682693 1.175571
v -1.704577 0.682693 1.618034
v -0.896149 0.682693 1.902113
v -0.000000 0.682693 2.000000
v 0.896149 0.682693 1.902113
v 1.704577 0.682693 1.618034
v 2.346149 0.682693 1.175571
v 2.758064 0.682693 0.618034
v 2.900000 0.682693 0.000000
v 4.101219 1.350152 -0.000000
v 3.900491 1.350152 -0.874032
v 3.317956 1.350152 -1.662508
v 2.410636 1.350152 -2.288246
v 1.267346 1.350152 -2.689994
v 0.000000 1.350152 -2.828427
v -1.267346 1.350152 -2.689994
v -2.410636 1.350152 -2.288246
v -3.317956 1.350152 -1.662508
v -3.900491 1.350152 -0.874032
v -4.101219 1.350152 -0.000000
v -3.900491 1.350152 0.874032
v -3.317956 1.350152 1.662508
v -2.410636 1.350152 2.288246
v -1.267346 1.350152 2.689994
v -0.000000 1.350152 2.828427
v 1.267346 1.350152 2.689994
v 2.410636 1.350152 2.288246
v 3.317956 1.350152 1.662508
v 3.900491 1.350152 0.874032
v 4.101219 1.350152 0.000000
v 5.022947 2.220000 -0.000000
v 4.777107 2.220000 -1.070466
v 4.063650 2.220000 -2.036148
v 2.952414 2.220000 -2.802517
v 1.552176 2.220000 -3.294556
v 0.000000 2.220000 -3.464102
v -1.552176 2.220000 -3.294556
v -2.952414 2.220000 -2.802517
v -4.063650 2.220000 -2.036148
v -4.777107 2.220000 -1.070466
v -5.022947 2.220000 -0.000000
v -4.777107 2.220000 1.070466
v -4.063650 2.220000 2.036148
v -2.952414 2.220000 2.802517
v -1.552176 2.220000 3.294556
v -0.000000 2.220000 3.464102
v 1.552176 2.220000 3.294556
v 2.952414 2.220000 2.802517
v 4.063650 2.220000 2.036148
v 4.777107 2.220000 1.070466
v 5.022947 2.220000 0.000000
v 5.602370 3.232960 -0.000000
v 5.328170 3.232960 -1.193950
v 4.532412 3.232960 -2.271028
v 3.292990 3.232960 -3.125802
v 1.731227 3.232960 -3.674600
v 0.000000 3.232960 -3.863703
v -1.731227 3.232960 -3.674600
v -3.292990 3.232960 -3.125802
v -4.532412 3.232960 -2.271028
v -5.328170 3.232960 -1.193950
v -5.602370 3.232960 -0.000000
v -5.328170 3.232960 1.193950
v -4.532412 3.232960 2.271028
v -3.292990 3.232960 3.125802
v -1.731227 3.232960 3.674600
v -0.000000 3.232960 3.863703
v 1.731227 3.232960 3.674600
v 3.292990 3.232960 3.125802
v 4.532412 3.232960 2.271028
v 5.328170 3.232960 1.193950
v 5.602370 3.232960 0.000000
v 5.800000 4.320000 -0.000000
v 5.516128 4.320000 -1.236068
v 4.692299 4.320000 -2.351141
v 3.409154 4.320000 -3.236068
v 1.792299 4.320000 -3.804226
v 0.000000 4.320000 -4.000000
v -1.792299 4.320000 -3.804226
v -3.409154 4.320000 -3.236068
v -4.692299 4.320000 -2.351141
v -5.516128 4.320000 -1.236068
v -5.800000 4.320000 -0.000000
v -5.516128 4.320000 1.236068
v -4.692299 4.320000 2.351141
v -3.409154 4.320000 3.236068
v -1.792299 4.320000 3.804226
v -0.000000 4.320000 4.000000
v 1.792299 4.320000 3.804226
v 3.409154 4.320000 3.236068
v 4.692299 4.320000 2.351141
v 5.516128 4.320000 1.236068
v 5.800000 4.320000 0.000000
v 5.602370 5.407040 -0.000000
v 5.328170 5.407040 -1.193950
v 4.532412 5.407040 -2.271028
v 3.292990 5.407040 -3.125802
v 1.731227 5.407040 -3.674600
v 0.000000 5.407040 -3.863703
v -1.731227 5.407040 -3.674600
v -3.292990 5.407040 -3.125802
v -4.532412 5.407040 -2.271028
v -5.328170 5.407040 -1.193950
v -5.602370 5.407040 -0.000000
v -5.328170 5.407040 1.193950
v -4.532412 5.407040 2.271028
v -3.292990 5.407040 3.125802
v -1.731227 5.407040 3.674600
v -0.000000 5.407040 3.863703
v 1.731227 5.407040 3.674600
v 3.292990 5.407040 3.125802
v 4.532412 5.407040 2.271028
v 5.328170 5.407040 1.193950
v 5.602370 5.407040 0.000000
v 5.022947 6.420000 -0.000000
v 4.777107 6.420000 -1.070466
v 4.063650 6.420000 -2.036148
v 2.952414 6.420000 -2.802517
v 1.552176 6.420000 -3.294556
v 0.000000 6.420000 -3.464102
v -1.552176 6.420000 -3.294556
v -2.952414 6.420000 -2.802517
v -4.063650 6.420000 -2.036148
v -4.777107 6.420000 -1.070466
v -5.022947 6.420000 -0.000000
v -4.777107 6.420000 1.070466
v -4.063650 6.420000 2.036148
v -2.952414 6.420000 2.802517
v -1.552176 6.420000 3.294556
v -0.000000 6.420000 3.464102
v 1.552176 6.420000 3.294556
v 2.952414 6.420000 2.802517
v 4.063650 6.420000 2.036148
v 4.777107 6.420000 1.070466
v 5.022947 6.420000 0.000000
v 4.101219 7.289848 -0.000000
v 3.900491 7.289848 -0.874032
v 3.317956 7.289848 -1.662508
v 2.410636 7.289848 -2.288246
v 1.267346 7.289848 -2.689994
v 0.000000 7.289848 -2.828427
v -1.267346 7.289848 -2.689994
v -2.410636 7.289848 -2.288246
v -3.317956 7.289848 -1.662508
v -3.900491 7.289848 -0.874032
v -4.101219 7.289848 -0.000000
v -3.900491 7.289848 0.874032
v -3.317956 7.289848 1.662508
v -2.410636 7.289848 2.288246
v -1.267346 7.289848 2.689994
v -0.000000 7.289848 2.828427
v 1.267346 7.289848 2.689994
v 2.410636 7.289848 2.288246
v 3.317956 7.289848 1.662508
v 3.900491 7.289848 0.874032
v 4.101219 7.289848 0.000000
v 2.900000 7.957307 -0.000000
v 2.758064 7.957307 -0.618034
v 2.346149 7.957307 -1.175571
v 1.704577 7.957307 -1.618034
v 0.896149 7.957307 -1.902113
v 0.000000 7.957307 -2.000000
v -0.896149 7.957307 -1.902113
v -1.704577 7.957307 -1.618034
v -2.346149 7.957307 -1.175571
v -2.758064 7.957307 -0.618034
v -2.900000 7.957307 -0.000000
v -2.758064 7.957307 0.618034
v -2.346149 7.957307 1.175571
v -1.704577 7.957307 1.618034
v -0.896149 7.957307 1.902113
v -0.000000 7.957307 2.000000
v 0.896149 7.957307 1.902113
v 1.704577 7.957307 1.618034
v 2.346149 7.957307 1.175571
v 2.758064 7.957307 0.618034
v 2.900000 7.957307 0.000000
v 1.501150 8.376888 -0.000000
v 1.427679 8.376888 -0.319918
v 1.214456 8.376888 -0.608520
v 0.882354 8.376888 -0.837556
v 0.463881 8.376888 -0.984606
v 0.000000 8.376888 -1.035276
v -0.463881 8.376888 -0.984606
v -0.882354 8.376888 -0.837556
v -1.214456 8.376888 -0.608520
v -1.427679 8.376888 -0.319918
v -1.501150 8.376888 -0.000000
v -1.427679 8.376888 0.319918
v -1.214456 8.376888 0.608520
v -0.882354 8.376888 0.837556
v -0.463881 8.376888 0.984606
v -0.000000 8.376888 1.035276
v 0.463881 8.376888 0.984606
v 0.882354 8.376888 0.837556
v 1.214456 8.376888 0.608520
v 1.427679 8.376888 0.319918
v 1.501150 8.376888 0.000000
v 0.000000 8.520000 -0.000000
vt 0.8750000 0.2412500
vt 0.7587500 0.2218750
vt 0.7703750 0.2218750
vt 0.7820000 0.2218750
vt 0.7936250 0.2218750
vt 0.8052500 0.2218750
vt 0.8168750 0.2218750
vt 0.8285000 0.2218750
vt 0.8401250 0.2218750
vt 0.8517500 0.2218750
vt 0.8633750 0.2218750
vt 0.8750000 0.2218750
vt 0.8866250 0.2218750
vt 0.8982500 0.2218750
vt 0.9098750 0.2218750
vt 0.9215000 0.2218750
vt 0.9331250 0.2218750
vt 0.9447500 0.2218750
vt 0.9563750 0.2218750
vt 0.9680000 0.2218750
vt 0.9796250 0.2218750
vt 0.9912500 0.2218750
vt 0.7587500 0.2025000
vt 0.7703750 0.2025000
vt 0.7820000 0.2025000
vt 0.7936250 0.2025000
vt 0.8052500 0.2025000
vt 0.8168750 0.2025000
vt 0.8285000 0.2025000
vt 0.8401250 0.2025000
vt 0.8517500 0.2025000
vt 0.8633750 0.2025000
vt 0.8750000 0.2025000
vt 0.8866250 0.2025000
vt 0.8982500 0.2025000
vt 0.9098750 0.2025000
vt 0.9215000 0.2025000
vt 0.9331250 0.2025000
vt 0.9447500 0.2025000
vt 0.9563750 0.2025000
vt 0.9680000 0.2025000
vt 0.9796250 0.2025000
vt 0.9912500 0.2025000
vt 0.7587500 0.1831250
vt 0.7703750 0.1831250
vt 0.7820000 0.1831250
vt 0.7936250 0.1831250
vt 0.8052500 0.1831250
vt 0.8168750 0.1831250
vt 0.8285000 0.1831250
vt 0.8401250 0.1831250
vt 0.8517500 0.1831250
vt 0.8633750 0.1831250
vt 0.8750000 0.1831250
vt 0.8866250 0.1831250
vt 0.8982500 0.1831250
vt 0.9098750 0.1831250
vt 0.9215000 0.1831250
vt 0.9331250 0.1831250
vt 0.9447500 0.1831250
vt 0.9563750 0.1831250
vt 0.9680000 0.1831250
vt 0.9796250 0.1831250
vt 0.9912500 0.1831250
vt 0.7587500 0.1637500
vt 0.7703750 0.1637500
vt 0.7820000 0.1637500
vt 0.7936250 0.1637500
vt 0.8052500 0.1637500
vt 0.8168750 0.1637500
vt 0.8285000 0.1637500
vt 0.8401250 0.1637500
vt 0.8517500 0.1637500
vt 0.8633750 0.1637500
vt 0.8750000 0.1637500
vt 0.8866250 0.1637500
vt 0.8982500 0.1637500
vt 0.9098750 0.1637500
vt 0.9215000 0.1637500
vt 0.9331250 0.1637500
vt 0.9447500 0.1637500
vt 0.9563750 0.1637500
vt 0.9680000 0.1637500
vt 0.9796250 0.1637500
vt 0.9912500 0.1637500
vt 0.7587500 0.1443750
vt 0.7703750 0.1443750
vt 0.7820000 0.1443750
vt 0.7936250 0.1443750
vt 0.8052500 0.1443750
vt 0.8168750 0.1443750
vt 0.8285000 0.1443750
vt 0.8401250 0.1443750
vt 0.8517500 0.1443750
vt 0.8633750 0.1443750
vt 0.8750000 0.1443750
vt 0.8866250 0.1443750
vt 0.8982500 0.1443750
vt 0.9098750 0.1443750
vt 0.9215000 0.1443750
vt 0.9331250 0.1443750
vt 0.9447500 0.1443750
vt 0.9563750 0.1443750
vt 0.9680000 0.1443750
vt 0.9796250 0.1443750
vt 0.9912500 0.1443750
vt 0.7587500 0.1250000
vt 0.7703750 0.1250000
vt 0.7820000 0.1250000
vt 0.7936250 0.1250000
vt 0.8052500 0.1250000
vt 0.8168750 0.1250000
vt 0.8285000 0.1250000
vt 0.8401250 0.1250000
vt 0.8517500 0.1250000
vt 0.8633750 0.1250000
vt 0.8750000 0.1250000
vt 0.8866250 0.1250000
vt 0.8982500 0.1250000
vt 0.9098750 0.1250000
vt 0.9215000 0.1250000
vt 0.9331250 0.1250000
vt 0.9447500 0.1250000
vt 0.9563750 0.1250000
vt 0.9680000 0.1250000
vt 0.9796250 0.1250000
vt 0.9912500 0.1250000
vt 0.7587500 0.1056250
vt 0.7703750 0.1056250
vt 0.7820000 0.1056250
vt 0.7936250 0.1056250
vt 0.8052500 0.1056250
vt 0.8168750 0.1056250
vt 0.8285000 0.1056250
vt 0.8401250 0.1056250
vt 0.8517500 0.1056250
vt 0.8633750 0.1056250
vt 0.8750000 0.1056250
vt 0.8866250 0.1056250
vt 0.8982500 0.1056250
vt 0.9098750 0.1056250
vt 0.9215000 0.1056250
vt 0.9331250 0.1056250
vt 0.9447500 0.1056250
vt 0.9563750 0.1056250
vt 0.9680000 0.1056250
vt 0.9796250 0.1056250
vt 0.9912500 0.1056250
vt 0.7587500 0.0862500
vt 0.7703750 0.0862500
vt 0.7820000 0.0862500
vt 0.7936250 0.0862500
vt 0.8052500 0.0862500
vt 0.8168750 0.0862500
vt 0.8285000 0.0862500
vt 0.8401250 0.0862500
vt 0.8517500 0.0862500
vt 0.8633750 0.0862500
vt 0.8750000 0.0862500
vt 0.8866250 0.0862500
vt 0.8982500 0.0862500
vt 0.9098750 0.0862500
vt 0.9215000 0.0862500
vt 0.9331250 0.0862500
vt 0.9447500 0.0862500
vt 0.9563750 0.0862500
vt 0.9680000 0.0862500
vt 0.9796250 0.0862500
vt 0.9912500 0.0862500
vt 0.7587500 0.0668750
vt 0.7703750 0.0668750
vt 0.7820000 0.0668750
vt 0.7936250 0.0668750
vt 0.8052500 0.0668750
vt 0.8168750 0.0668750
vt 0.8285000 0.0668750
vt 0.8401250 0.0668750
vt 0.8517500 0.0668750
vt 0.8633750 0.0668750
vt 0.8750000 0.0668750
vt 0.8866250 0.0668750
vt 0.8982500 0.0668750
vt 0.9098750 0.0668750
vt 0.9215000 0.0668750
vt 0.9331250 0.0668750
vt 0.9447500 0.0668750
vt 0.9563750 0.0668750
vt 0.9680000 0.0668750
vt 0.9796250 0.0668750
vt 0.9912500 0.0668750
vt 0.7587500 0.0475000
vt 0.7703750 0.0475000
vt 0.7820000 0.0475000
vt 0.7936250 0.0475000
vt 0.8052500 0.0475000
vt 0.8168750 0.0475000
vt 0.8285000 0.0475000
vt 0.8401250 0.0475000
vt 0.8517500 0.0475000
vt 0.8633750 0.0475000
vt 0.8750000 0.0475000
vt 0.8866250 0.0475000
vt 0.8982500 0.0475000
vt 0.9098750 0.0475000
vt 0.9215000 0.0475000
vt 0.9331250 0.0475000
vt 0.9447500 0.0475000
vt 0.9563750 0.0475000
vt 0.9680000 0.0475000
vt 0.9796250 0.0475000
vt 0.9912500 0.0475000
vt 0.7587500 0.0281250
vt 0.7703750 0.0281250
vt 0.7820000 0.0281250
vt 0.7936250 0.0281250
vt 0.8052500 0.0281250
vt 0.8168750 0.0281250
vt 0.8285000 0.0281250
vt 0.8401250 0.0281250
vt 0.8517500 0.0281250
vt 0.8633750 0.0281250
vt 0.8750000 0.0281250
vt 0.8866250 0.0281250
vt 0.8982500 0.0281250
vt 0.9098750 0.0281250
vt 0.9215000 0.0281250
vt 0.9331250 0.0281250
vt 0.9447500 0.0281250
vt 0.9563750 0.0281250
vt 0.9680000 0.0281250
vt 0.9796250 0.0281250
vt 0.9912500 0.0281250
vt 0.8750000 0.0087500
vn -0.0000000 -1.0000000 0.0000000
vn 0.2219630 -0.9748215 -0.0213430
vn 0.2058030 -0.9712918 -0.1193208
vn 0.1690614 -0.9642205 -0.2041984
vn 0.1163221 -0.9564335 -0.2677762
vn 0.0532496 -0.9508613 -0.3050039
vn -0.0143368 -0.9494860 -0.3134817
vn -0.0807221 -0.9527825 -0.2927276
vn -0.1401521 -0.9596033 -0.2439651
vn -0.1868039 -0.9674686 -0.1706130
vn -0.2153201 -0.9733398 -0.0790373
vn -0.2219630 -0.9748215 0.0213430
vn -0.2058030 -0.9712918 0.1193208
vn -0.1690614 -0.9642205 0.2041984
vn -0.1163221 -0.9564335 0.2677762
vn -0.0532496 -0.9508613 0.3050039
vn 0.0143368 -0.9494860 0.3134817
vn 0.0807221 -0.9527825 0.2927276
vn 0.1401521 -0.9596033 0.2439651
vn 0.1868039 -0.9674686 0.1706130
vn 0.2153201 -0.9733398 0.0790373
vn 0.2219630 -0.9748215 -0.0213430
vn 0.4007514 -0.9159673 -0.0200545
vn 0.3730625 -0.9067296 -0.1966361
vn 0.3060129 -0.8867793 -0.3463793
vn 0.2118586 -0.8649044 -0.4550343
vn 0.1026115 -0.8491536 -0.5180820
vn -0.0127492 -0.8443431 -0.5356511
vn -0.1273939 -0.8517871 -0.5081629
vn -0.2342063 -0.8694213 -0.4350333
vn -0.3235208 -0.8916496 -0.3166943
vn -0.3828742 -0.9099380 -0.1594372
vn -0.4007514 -0.9159673 0.0200545
vn -0.3730625 -0.9067296 0.1966361
vn -0.3060129 -0.8867793 0.3463793
vn -0.2118586 -0.8649044 0.4550343
vn -0.1026115 -0.8491536 0.5180820
vn 0.0127492 -0.8443431 0.5356511
vn 0.1273939 -0.8517871 0.5081629
vn 0.2342063 -0.8694213 0.4350333
vn 0.3235208 -0.8916496 0.3166943
vn 0.3828742 -0.9099380 0.1594372
vn 0.4007514 -0.9159673 -0.0200545
vn 0.5952543 -0.8033448 -0.0175887
vn 0.5509304 -0.7870005 -0.2776794
vn 0.4438721 -0.7515843 -0.4879534
vn 0.3025793 -0.7147846 -0.6304987
vn 0.1479536 -0.6894012 -0.7091091
vn -0.0102868 -0.6812696 -0.7319603
vn -0.1683350 -0.6917892 -0.7022044
vn -0.3219783 -0.7191078 -0.6158035
vn -0.4602735 -0.7566150 -0.4644158
vn -0.5607988 -0.7905587 -0.2460117
vn -0.5952543 -0.8033448 0.0175887
vn -0.5509304 -0.7870005 0.2776794
vn -0.4438721 -0.7515843 0.4879534
vn -0.3025793 -0.7147846 0.6304987
vn -0.1479536 -0.6894012 0.7091091
vn 0.0102868 -0.6812696 0.7319603
vn 0.1683350 -0.6917892 0.7022044
vn 0.3219783 -0.7191078 0.6158035
vn 0.4602735 -0.7566150 0.4644158
vn 0.5607988 -0.7905587 0.2460117
vn 0.5952543 -0.8033448 -0.0175887
vn 0.7864709 -0.6174794 -0.0135193
vn 0.7203590 -0.5969784 -0.3531284
vn 0.5657215 -0.5537856 -0.6109670
vn 0.3771207 -0.5120901 -0.7717148
vn 0.1838937 -0.4849158 -0.8550086
vn -0.0071894 -0.4761349 -0.8793428
vn -0.1984033 -0.4863432 -0.8509445
vn -0.3917087 -0.5148197 -0.7625778
vn -0.5791442 -0.5572425 -0.5950401
vn -0.7291760 -0.5996477 -0.3297348
vn -0.7864709 -0.6174794 0.0135193
vn -0.7203590 -0.5969784 0.3531284
vn -0.5657215 -0.5537856 0.6109670
vn -0.3771207 -0.5120901 0.7717148
vn -0.1838937 -0.4849158 0.8550086
vn 0.0071894 -0.4761349 0.8793428
vn 0.1984033 -0.4863432 0.8509445
vn 0.3917087 -0.5148197 0.7625778
vn 0.5791442 -0.5572425 0.5950401
vn 0.7291760 -0.5996477 0.3297348
vn 0.7864709 -0.6174794 -0.0135193
vn 0.9392118 -0.3432561 -0.0075154
vn 0.8516891 -0.3278755 -0.4088073
vn 0.6535011 -0.2964068 -0.6964763
vn 0.4275972 -0.2679059 -0.8633580
vn 0.2079242 -0.2501594 -0.9456150
vn -0.0036904 -0.2444045 -0.9696664
vn -0.2154703 -0.2505796 -0.9438127
vn -0.4354988 -0.2687428 -0.8591380
vn -0.6612842 -0.2975415 -0.6886017
vn -0.8572196 -0.3288233 -0.3962951
vn -0.9392118 -0.3432561 0.0075154
vn -0.8516891 -0.3278755 0.4088073
vn -0.6535011 -0.2964068 0.6964763
vn -0.4275972 -0.2679059 0.8633580
vn -0.2079242 -0.2501594 0.9456150
vn 0.0036904 -0.2444045 0.9696664
vn 0.2154703 -0.2505796 0.9438127
vn 0.4354988 -0.2687428 0.8591380
vn 0.6612842 -0.2975415 0.6886017
vn 0.8572196 -0.3288233 0.3962951
vn 0.9392118 -0.3432561 -0.0075154
vn 1.0000000 -0.0000000 -0.0000000
vn 0.9046286 -0.0000000 -0.4262009
vn 0.6884554 0.0000000 -0.7252786
vn 0.4479743 0.0000000 -0.8940464
vn 0.2186600 0.0000000 -0.9758011
vn 0.0000000 0.0000000 -1.0000000
vn -0.2186600 -0.0000000 -0.9758011
vn -0.4479743 0.0000000 -0.8940464
vn -0.6884554 0.0000000 -0.7252786
vn -0.9046286 -0.0000000 -0.4262009
vn -1.0000000 0.0000000 -0.0000000
vn -0.9046286 0.0000000 0.4262009
vn -0.6884554 -0.0000000 0.7252786
vn -0.4479743 0.0000000 0.8940464
vn -0.2186600 0.0000000 0.9758011
vn -0.0000000 0.0000000 1.0000000
vn 0.2186600 -0.0000000 0.9758011
vn 0.4479743 0.0000000 0.8940464
vn 0.6884554 0.0000000 0.7252786
vn 0.9046286 -0.0000000 0.4262009
vn 1.0000000 -0.0000000 -0.0000000
vn 0.9392118 0.3432561 0.0075154
vn 0.8572196 0.3288233 -0.3962951
vn 0.6612842 0.2975415 -0.6886017
vn 0.4354988 0.2687428 -0.8591380
vn 0.2154703 0.2505796 -0.9438127
vn 0.0036904 0.2444045 -0.9696664
vn -0.2079242 0.2501594 -0.9456150
vn -0.4275972 0.2679059 -0.8633580
vn -0.6535011 0.2964068 -0.6964763
vn -0.8516891 0.3278755 -0.4088073
vn -0.9392118 0.3432561 -0.0075154
vn -0.8572196 0.3288233 0.3962951
vn -0.6612842 0.2975415 0.6886017
vn -0.4354988 0.2687428 0.8591380
vn -0.2154703 0.2505796 0.9438127
vn -0.0036904 0.2444045 0.9696664
vn 0.2079242 0.2501594 0.9456150
vn 0.4275972 0.2679059 0.8633580
vn 0.6535011 0.2964068 0.6964763
vn 0.8516891 0.3278755 0.4088073
vn 0.9392118 0.3432561 0.0075154
vn 0.7864709 0.6174794 0.0135193
vn 0.7291760 0.5996477 -0.3297348
vn 0.5791442 0.5572425 -0.5950401
vn 0.3917087 0.5148197 -0.7625778
vn 0.1984033 0.4863432 -0.8509445
vn 0.0071894 0.4761349 -0.8793428
vn -0.1838937 0.4849158 -0.8550086
vn -0.3771207 0.5120901 -0.7717148
vn -0.5657215 0.5537856 -0.6109670
vn -0.7203590 0.5969784 -0.3531284
vn -0.7864709 0.6174794 -0.0135193
vn -0.7291760 0.5996477 0.3297348
vn -0.5791442 0.5572425 0.5950401
vn -0.3917087 0.5148197 0.7625778
vn -0.1984033 0.4863432 0.8509445
vn -0.0071894 0.4761349 0.8793428
vn 0.1838937 0.4849158 0.8550086
vn 0.3771207 0.5120901 0.7717148
vn 0.5657215 0.5537856 0.6109670
vn 0.7203590 0.5969784 0.3531284
vn 0.7864709 0.6174794 0.0135193
vn 0.5952543 0.8033448 0.0175887
vn 0.5607988 0.7905587 -0.2460117
vn 0.4602735 0.7566150 -0.4644158
vn 0.3219783 0.7191078 -0.6158035
vn 0.1683350 0.6917892 -0.7022044
vn 0.0102868 0.6812696 -0.7319603
vn -0.1479536 0.6894012 -0.7091091
vn -0.3025793 0.7147846 -0.6304987
vn -0.4438721 0.7515843 -0.4879534
vn -0.5509304 0.7870005 -0.2776794
vn -0.5952543 0.8033448 -0.0175887
vn -0.5607988 0.7905587 0.2460117
vn -0.4602735 0.7566150 0.4644158
vn -0.3219783 0.7191078 0.6158035
vn -0.1683350 0.6917892 0.7022044
vn -0.0102868 0.6812696 0.7319603
vn 0.1479536 0.6894012 0.7091091
vn 0.3025793 0.7147846 0.6304987
vn 0.4438721 0.7515843 0.4879534
vn 0.5509304 0.7870005 0.2776794
vn 0.5952543 0.8033448 0.0175887
vn 0.4007514 0.9159673 0.0200545
vn 0.3828742 0.9099380 -0.1594372
vn 0.3235208 0.8916496 -0.3166943
vn 0.2342063 0.8694213 -0.4350333
vn 0.1273939 0.8517871 -0.5081629
vn 0.0127492 0.8443431 -0.5356511
vn -0.1026115 0.8491536 -0.5180820
vn -0.2118586 0.8649044 -0.4550343
vn -0.3060129 0.8867793 -0.3463793
vn -0.3730625 0.9067296 -0.1966361
vn -0.4007514 0.9159673 -0.0200545
vn -0.3828742 0.9099380 0.1594372
vn -0.3235208 0.8916496 0.3166943
vn -0.2342063 0.8694213 0.4350333
vn -0.1273939 0.8517871 0.5081629
vn -0.0127492 0.8443431 0.5356511
vn 0.1026115 0.8491536 0.5180820
vn 0.2118586 0.8649044 0.4550343
vn 0.3060129 0.8867793 0.3463793
vn 0.3730625 0.9067296 0.1966361
vn 0.4007514 0.9159673 0.0200545
vn 0.2219630 0.9748215 0.0213430
vn 0.2153201 0.9733398 -0.0790373
vn 0.1868039 0.9674686 -0.1706130
vn 0.1401521 0.9596033 -0.2439651
vn 0.0807221 0.9527825 -0.2927276
vn 0.0143368 0.9494860 -0.3134817
vn -0.0532496 0.9508613 -0.3050039
vn -0.1163221 0.9564335 -0.2677762
vn -0.1690614 0.9642205 -0.2041984
vn -0.2058030 0.9712918 -0.1193208
vn -0.2219630 0.9748215 -0.0213430
vn -0.2153201 0.9733398 0.0790373
vn -0.1868039 0.9674686 0.1706130
vn -0.1401521 0.9596033 0.2439651
vn -0.0807221 0.9527825 0.2927276
vn -0.0143368 0.9494860 0.3134817
vn 0.0532496 0.9508613 0.3050039
vn 0.1163221 0.9564335 0.2677762
vn 0.1690614 0.9642205 0.2041984
vn 0.2058030 0.9712918 0.1193208
vn 0.2219630 0.9748215 0.0213430
vn -0.0000000 1.0000000 -0.0000000
f 1/1/1 3/3/3 2/2/2
f 1/1/1 4/4/4 3/3/3
f 1/1/1 5/5/5 4/4/4
f 1/1/1 6/6/6 5/5/5
f 1/1/1 7/7/7 6/6/6
f 1/1/1 8/8/8 7/7/7
f 1/1/1 9/9/9 8/8/8
f 1/1/1 10/10/10 9/9/9
f 1/1/1 11/11/11 10/10/10
f 1/1/1 12/12/12 11/11/11
f 1/1/1 13/13/13 12/12/12
f 1/1/1 14/14/14 13/13/13
f 1/1/1 15/15/15 14/14/14
f 1/1/1 16/16/16 15/15/15
f 1/1/1 17/17/17 16/16/16
f 1/1/1 18/18/18 17/17/17
f 1/1/1 19/19/19 18/18/18
f 1/1/1 20/20/20 19/19/19
f 1/1/1 21/21/21 20/20/20
f 1/1/1 22/22/22 21/21/21
f 2/2/2 3/3/3 24/24/24
f 2/2/2 24/24/24 23/23/23
f 3/3/3 4/4/4 25/25/25
f 3/3/3 25/25/25 24/24/24
f 4/4/4 5/5/5 26/26/26
f 4/4/4 26/26/26 25/25/25
f 5/5/5 6/6/6 27/27/27
f 5/5/5 27/27/27 26/26/26
f 6/6/6 7/7/7 28/28/28
f 6/6/6 28/28/28 27/27/27
f 7/7/7 8/8/8 29/29/29
f 7/7/7 29/29/29 28/28/28
f 8/8/8 9/9/9 30/30/30
f 8/8/8 30/30/30 29/29/29
f 9/9/9 10/10/10 31/31/31
f 9/9/9 31/31/31 30/30/30
f 10/10/10 11/11/11 32/32/32
f 10/10/10 32/32/32 31/31/31
f 11/11/11 12/12/12 33/33/33
f 11/11/11 33/33/33 32/32/32
f 12/12/12 13/13/13 34/34/34
f 12/12/12 34/34/34 33/33/33
f 13/13/13 14/14/14 35/35/35
f 13/13/13 35/35/35 34/34/34
f 14/14/14 15/15/15 36/36/36
f 14/14/14 36/36/36 35/35/35
f 15/15/15 16/16/16 37/37/37
f 15/15/15 37/37/37 36/36/36
f 16/16/16 17/17/17 38/38/38
f 16/16/16 38/38/38 37/37/37
f 17/17/17 18/18/18 39/39/39
f 17/17/17 39/39/39 38/38/38
f 18/18/18 19/19/19 40/40/40
f 18/18/18 40/40/40 39/39/39
f 19/19/19 20/20/20 41/41/41
f 19/19/19 41/41/41 40/40/40
f 20/20/20 21/21/21 42/42/42
f 20/20/20 42/42/42 41/41/41
f 21/21/21 22/22/22 43/43/43
f 21/21/21 43/43/43 42/42/42
f 23/23/23 24/24/24 45/45/45
f 23/23/23 45/45/45 44/44/44
f 24/24/24 25/25/25 46/46/46
f 24/24/24 46/46/46 45/45/45
f 25/25/25 26/26/26 47/47/47
f 25/25/25 47/47/47 46/46/46
f 26/26/26 27/27/27 48/48/48
f 26/26/26 48/48/48 47/47/47
f 27/27/27 28/28/28 49/49/49
f 27/27/27 49/49/49 48/48/48
f 28/28/28 29/29/29 50/50/50
f 28/28/28 50/50/50 49/49/49
f 29/29/29 30/30/30 51/51/51
f 29/29/29 51/51/51 50/50/50
f 30/30/30 31/31/31 52/52/52
f 30/30/30 52/52/52 51/51/51
f 31/31/31 32/32/32 53/53/53
f 31/31/31 53/53/53 52/52/52
f 32/32/32 33/33/33 54/54/54
f 32/32/32 54/54/54 53/53/53
f 33/33/33 34/34/34 55/55/55
f 33/33/33 55/55/55 54/54/54
f 34/34/34 35/35/35 56/56/56
f 34/34/34 56/56/56 55/55/55
f 35/35/35 36/36/36 57/57/57
f 35/35/35 57/57/57 56/56/56
f 36/36/36 37/37/37 58/58/58
f 36/36/36 58/58/58 57/57/57
f 37/37/37 38/38/38 59/59/59
f 37/37/37 59/59/59 58/58/58
f 38/38/38 39/39/39 60/60/60
f 38/38/38 60/60/60 59/59/59
f 39/39/39 40/40/40 61/61/61
f 39/39/39 61/61/61 60/60/60
f 40/40/40 41/41/41 62/62/62
f 40/40/40 62/62/62 61/61/61
f 41/41/41 42/42/42 63/63/63
f 41/41/41 63/63/63 62/62/62
f 42/42/42 43/43/43 64/64/64
f 42/42/42 64/64/64 63/63/63
f 44/44/44 45/45/45 66/66/66
f 44/44/44 66/66/66 65/65/65
f 45/45/45 46/46/46 67/67/67
f 45/45/45 67/67/67 66/66/66
f 46/46/46 47/47/47 68/68/68
f 46/46/46 68/68/68 67/67/67
f 47/47/47 48/48/48 69/69/69
f 47/47/47 69/69/69 68/68/68
f 48/48/48 49/49/49 70/70/70
f 48/48/48 70/70/70 69/69/69
f 49/49/49 50/50/50 71/71/71
f 49/49/49 71/71/71 70/70/70
f 50/50/50 51/51/51 72/72/72
f 50/50/50 72/72/72 71/71/71
f 51/51/51 52/52/52 73/73/73
f 51/51/51 73/73/73 72/72/72
f 52/52/52 53/53/53 74/74/74
f 52/52/52 74/74/74 73/73/73
f 53/53/53 54/54/54 75/75/75
f 53/53/53 75/75/75 74/74/74
f 54/54/54 55/55/55 76/76/76
f 54/54/54 76/76/76 75/75/75
f 55/55/55 56/56/56 77/77/77
f 55/55/55 77/77/77 76/76/76
f 56/56/56 57/57/57 78/78/78
f 56/56/56 78/78/78 77/77/77
f 57/57/57 58/58/58 79/79/79
f 57/57/57 79/79/79 78/78/78
f 58/58/58 59/59/59 80/80/80
f 58/58/58 80/80/80 79/79/79
f 59/59/59 60/60/60 81/81/81
f 59/59/59 81/81/81 80/80/80
f 60/60/60 61/61/61 82/82/82
f 60/60/60 82/82/82 81/81/81
f 61/61/61 62/62/62 83/83/83
f 61/61/61 83/83/83 82/82/82
f 62/62/62 63/63/63 84/84/84
f 62/62/62 84/84/84 83/83/83
f 63/63/63 64/64/64 85/85/85
f 63/63/63 85/85/85 84/84/84
f 65/65/65 66/66/66 87/87/87
f 65/65/65 87/87/87 86/86/86
f 66/66/66 67/67/67 88/88/88
f 66/66/66 88/88/88 87/87/87
f 67/67/67 68/68/68 89/89/89
f 67/67/67 89/89/89 88/88/88
f 68/68/68 69/69/69 90/90/90
f 68/68/68 90/90/90 89/89/89
f 69/69/69 70/70/70 91/91/91
f 69/69/69 91/91/91 90/90/90
f 70/70/70 71/71/71 92/92/92
f 70/70/70 92/92/92 91/91/91
f 71/71/71 72/72/72 93/93/93
f 71/71/71 93/93/93 92/92/92
f 72/72/72 73/73/73 94/94/94
f 72/72/72 94/94/94 93/93/93
f 73/73/73 74/74/74 95/95/95
f 73/73/73 95/95/95 94/94/94
f 74/74/74 75/75/75 96/96/96
f 74/74/74 96/96/96 95/95/95
f 75/75/75 76/76/76 97/97/97
f 75/75/75 97/97/97 96/96/96
f 76/76/76 77/77/77 98/98/98
f 76/76/76 98/98/98 97/97/97
f 77/77/77 78/78/78 99/99/99
f 77/77/77 99/99/99 98/98/98
f 78/78/78 79/79/79 100/100/100
f 78/78/78 100/100/100 99/99/99
f 79/79/79 80/80/80 101/101/101
f 79/79/79 101/101/101 100/100/100
f 80/80/80 81/81/81 102/102/102
f 80/80/80 102/102/102 101/101/101
f 81/81/81 82/82/82 103/103/103
f 81/81/81 103/103/103 102/102/102
f 82/82/82 83/83/83 104/104/104
f 82/82/82 104/104/104 103/103/103
f 83/83/83 84/84/84 105/105/105
f 83/83/83 105/105/105 104/104/104
f 84/84/84 85/85/85 106/106/106
f 84/84/84 106/106/106 105/105/105
f 86/86/86 87/87/87 108/108/108
f 86/86/86 108/108/108 107/107/107
f 87/87/87 88/88/88 109/109/109
f 87/87/87 109/109/109 108/108/108
f 88/88/88 89/89/89 110/110/110
f 88/88/88 110/110/110 109/109/109
f 89/89/89 90/90/90 111/111/111
f 89/89/89 111/111/111 110/110/110
f 90/90/90 91/91/91 112/112/112
f 90/90/90 112/112/112 111/111/111
f 91/91/91 92/92/92 113/113/113
f 91/91/91 113/113/113 112/112/112
f 92/92/92 93/93/93 114/114/114
f 92/92/92 114/114/114 113/113/113
f 93/93/93 94/94/94 115/115/115
f 93/93/93 115/115/115 114/114/114
f 94/94/94 95/95/95 116/116/116
f 94/94/94 116/116/116 115/115/115
f 95/95/95 96/96/96 117/117/117
f 95/95/95 117/117/117 116/116/116
f 96/96/96 97/97/97 118/118/118
f 96/96/96 118/118/118 117/117/117
f 97/97/97 98/98/98 119/119/119
f 97/97/97 119/119/119 118/118/118
f 98/98/98 99/99/99 120/120/120
f 98/98/98 120/120/120 119/119/119
f 99/99/99 100/100/100 121/121/121
f 99/99/99 121/121/121 120/120/120
f 100/100/100 101/101/101 122/122/122
f 100/100/100 122/122/122 121/121/121
f 101/101/101 102/102/102 123/123/123
f 101/101/101 123/123/123 122/122/122
f 102/102/102 103/103/103 124/124/124
f 102/102/102 124/124/124 123/123/123
f 103/103/103 104/104/104 125/125/125
f 103/103/103 125/125/125 124/124/124
f 104/104/104 105/105/105 126/126/126
f 104/104/104 126/126/126 125/125/125
f 105/105/105 106/106/106 127/127/127
f 105/105/105 127/127/127 126/126/126
f 107/107/107 108/108/108 129/129/129
f 107/107/107 129/129/129 128/128/128
f 108/108/108 109/109/109 130/130/130
f 108/108/108 130/130/130 129/129/129
f 109/109/109 110/110/110 131/131/131
f 109/109/109 131/131/131 130/130/130
f 110/110/110 111/111/111 132/132/132
f 110/110/110 132/132/132 131/131/131
f 111/111/111 112/112/112 133/133/133
f 111/111/111 133/133/133 132/132/132
f 112/112/112 113/113/113 134/134/134
f 112/112/112 134/134/134 133/133/133
f 113/113/113 114/114/114 135/135/135
f 113/113/113 135/135/135 134/134/134
f 114/114/114 115/115/115 136/136/136
f 114/114/114 136/136/136 135/135/135
f 115/115/115 116/116/116 137/137/137
f 115/115/115 137/137/137 136/136/136
f 116/116/116 117/117/117 138/138/138
f 116/116/116 138/138/138 137/137/137
f 117/117/117 118/118/118 139/139/139
f 117/117/117 139/139/139 138/138/138
f 118/118/118 119/119/119 140/140/140
f 118/118/118 140/140/140 139/139/139
f 119/119/119 120/120/120 141/141/141
f 119/119/119 141/141/141 140/140/140
f 120/120/120 121/121/121 142/142/142
f 120/120/120 142/142/142 141/141/141
f 121/121/121 122/122/122 143/143/143
f 121/121/121 143/143/143 142/142/142
f 122/122/122 123/123/123 144/144/144
f 122/122/122 144/144/144 143/143/143
f 123/123/123 124/124/124 145/145/145
f 123/123/123 145/145/145 144/144/144
f 124/124/124 125/125/125 146/146/146
f 124/124/124 146/146/146 145/145/145
f 125/125/125 126/126/126 147/147/147
f 125/125/125 147/147/147 146/146/146
f 126/126/126 127/127/127 148/148/148
f 126/126/126 148/148/148 147/147/147
f 128/128/128 129/129/129 150/150/150
f 128/128/128 150/150/150 149/149/149
f 129/129/129 130/130/130 151/151/151
f 129/129/129 151/151/151 150/150/150
f 130/130/130 131/131/131 152/152/152
f 130/130/130 152/152/152 151/151/151
f 131/131/131 132/132/132 153/153/153
f 131/131/131 153/153/153 152/152/152
f 132/132/132 133/133/133 154/154/154
f 132/132/132 154/154/154 153/153/153
f 133/133/133 134/134/134 155/155/155
f 133/133/133 155/155/155 154/154/154
f 134/134/134 135/135/135 156/156/156
f 134/134/134 156/156/156 155/155/155
f 135/135/135 136/136/136 157/157/157
f 135/135/135 157/157/157 156/156/156
f 136/136/136 137/137/137 158/158/158
f 136/136/136 158/158/158 157/157/157
f 137/137/137 138/138/138 159/159/159
f 137/137/137 159/159/159 158/158/158
f 138/138/138 139/139/139 160/160/160
f 138/138/138 160/160/160 159/159/159
f 139/139/139 140/140/140 161/161/161
f 139/139/139 161/161/161 160/160/160
f 140/140/140 141/141/141 162/162/162
f 140/140/140 162/162/162 161/161/161
f 141/141/141 142/142/142 163/163/163
f 141/141/141 163/163/163 162/162/162
f 142/142/142 143/143/143 164/164/164
f 142/142/142 164/164/164 163/163/163
f 143/143/143 144/144/144 165/165/165
f 143/143/143 165/165/165 164/164/164
f 144/144/144 145/145/145 166/166/166
f 144/144/144 166/166/166 165/165/165
f 145/145/145 146/146/146 167/167/167
f 145/145/145 167/167/167 166/166/166
f 146/146/146 147/147/147 168/168/168
f 146/146/146 168/168/168 167/167/167
f 147/147/147 148/148/148 169/169/169
f 147/147/147 169/169/169 168/168/168
f 149/149/149 150/150/150 171/171/171
f 149/149/149 171/171/171 170/170/170
f 150/150/150 151/151/151 172/172/172
f 150/150/150 172/172/172 171/171/171
f 151/151/151 152/152/152 173/173/173
f 151/151/151 173/173/173 172/172/172
f 152/152/152 153/153/153 174/174/174
f 152/152/152 174/174/174 173/173/173
f 153/153/153 154/154/154 175/175/175
f 153/153/153 175/175/175 174/174/174
f 154/154/154 155/155/155 176/176/176
f 154/154/154 176/176/176 175/175/175
f 155/155/155 156/156/156 177/177/177
f 155/155/155 177/177/177 176/176/176
f 156/156/156 157/157/157 178/178/178
f 156/156/156 178/178/178 177/177/177
f 157/157/157 158/158/158 179/179/179
f 157/157/157 179/179/179 178/178/178
f 158/158/158 159/159/159 180/180/180
f 158/158/158 180/180/180 179/179/179
f 159/159/159 160/160/160 181/181/181
f 159/159/159 181/181/181 180/180/180
f 160/160/160 161/161/161 182/182/182
f 160/160/160 182/182/182 181/181/181
f 161/161/161 162/162/162 183/183/183
f 161/161/161 183/183/183 182/182/182
f 162/162/162 163/163/163 184/184/184
f 162/162/162 184/184/184 183/183/183
f 163/163/163 164/164/164 185/185/185
f 163/163/163 185/185/185 184/184/184
f 164/164/164 165/165/165 186/186/186
f 164/164/164 186/186/186 185/185/185
f 165/165/165 166/166/166 187/187/187
f 165/165/165 187/187/187 186/186/186
f 166/166/166 167/167/167 188/188/188
f 166/166/166 188/188/188 187/187/187
f 167/167/167 168/168/168 189/189/189
f 167/167/167 189/189/189 188/188/188
f 168/168/168 169/169/169 190/190/190
f 168/168/168 190/190/190 189/189/189
f 170/170/170 171/171/171 192/192/192
f 170/170/170 192/192/192 191/191/191
f 171/171/171 172/172/172 193/193/193
f 171/171/171 193/193/193 192/192/192
f 172/172/172 173/173/173 194/194/194
f 172/172/172 194/194/194 193/193/193
f 173/173/173 174/174/174 195/195/195
f 173/173/173 195/195/195 194/194/194
f 174/174/174 175/175/175 196/196/196
f 174/174/174 196/196/196 195/195/195
f 175/175/175 176/176/176 197/197/197
f 175/175/175 197/197/197 196/196/196
f 176/176/176 177/177/177 198/198/198
f 176/176/176 198/198/198 197/197/197
f 177/177/177 178/178/178 199/199/199
f 177/177/177 199/199/199 198/198/198
f 178/178/178 179/179/179 200/200/200
f 178/178/178 200/200/200 199/199/199
f 179/179/179 180/180/180 201/201/201
f 179/179/179 201/201/201 200/200/200
f 180/180/180 181/181/181 202/202/202
f 180/180/180 202/202/202 201/201/201
f 181/181/181 182/182/182 203/203/203
f 181/181/181 203/203/203 202/202/202
f 182/182/182 183/183/183 204/204/204
f 182/182/182 204/204/204 203/203/203
f 183/183/183 184/184/184 205/205/205
f 183/183/183 205/205/205 204/204/204
f 184/184/184 185/185/185 206/206/206
f 184/184/184 206/206/206 205/205/205
f 185/185/185 186/186/186 207/207/207
f 185/185/185 207/207/207 206/206/206
f 186/186/186 187/187/187 208/208/208
f 186/186/186 208/208/208 207/207/207
f 187/187/187 188/188/188 209/209/209
f 187/187/187 209/209/209 208/208/208
f 188/188/188 189/189/189 210/210/210
f 188/188/188 210/210/210 209/209/209
f 189/189/189 190/190/190 211/211/211
f 189/189/189 211/211/211 210/210/210
f 191/191/191 192/192/192 213/213/213
f 191/191/191 213/213/213 212/212/212
f 192/192/192 193/193/193 214/214/214
f 192/192/192 214/214/214 213/213/213
f 193/193/193 194/194/194 215/215/215
f 193/193/193 215/215/215 214/214/214
f 194/194/194 195/195/195 216/216/216
f 194/194/194 216/216/216 215/215/215
f 195/195/195 196/196/196 217/217/217
f 195/195/195 217/217/217 216/216/216
f 196/196/196 197/197/197 218/218/218
f 196/196/196 218/218/218 217/217/217
f 197/197/197 198/198/198 219/219/219
f 197/197/197 219/219/219 218/218/218
f 198/198/198 199/199/199 220/220/220
f 198/198/198 220/220/220 219/219/219
f 199/199/199 200/200/200 221/221/221
f 199/199/199 221/221/221 220/220/220
f 200/200/200 201/201/201 222/222/222
f 200/200/200 222/222/222 221/221/221
f 201/201/201 202/202/202 223/223/223
f 201/201/201 223/223/223 222/222/222
f 202/202/202 203/203/203 224/224/224
f 202/202/202 224/224/224 223/223/223
f 203/203/203 204/204/204 225/225/225
f 203/203/203 225/225/225 224/224/224
f 204/204/204 205/205/205 226/226/226
f 204/204/204 226/226/226 225/225/225
f 205/205/205 206/206/206 227/227/227
f 205/205/205 227/227/227 226/226/226
f 206/206/206 207/207/207 228/228/228
f 206/206/206 228/228/228 227/227/227
f 207/207/207 208/208/208 229/229/229
f 207/207/207 229/229/229 228/228/228
f 208/208/208 209/209/209 230/230/230
f 208/208/208 230/230/230 229/229/229
f 209/209/209 210/210/210 231/231/231
f 209/209/209 231/231/231 230/230/230
f 210/210/210 211/211/211 232/232/232
f 210/210/210 232/232/232 231/231/231
f 212/212/212 213/213/213 233/233/233
f 213/213/213 214/214/214 233/233/233
f 214/214/214 215/215/215 233/233/233
f 215/215/215 216/216/216 233/233/233
f 216/216/216 217/217/217 233/233/233
f 217/217/217 218/218/218 233/233/233
f 218/218/218 219/219/219 233/233/233
f 219/219/219 220/220/220 233/233/233
f 220/220/220 221/221/221 233/233/233
f 221/221/221 222/222/222 233/233/233
f 222/222/222 223/223/223 233/233/233
f 223/223/223 224/224/224 233/233/233
f 224/224/224 225/225/225 233/233/233
f 225/225/225 226/226/226 233/233/233
f 226/226/226 227/227/227 233/233/233
f 227/227/227 228/228/228 233/233/233
f 228/228/228 229/229/229 233/233/233
f 229/229/229 230/230/230 233/233/233
f 230/230/230 231/231/231 233/233/233
f 231/231/231 232/232/232 233/233/233
o Mango_stem
v 1.000000 7.920000 0.350000
v 1.205922 7.782719 0.247487
v 1.291218 7.725855 0.000000
v 1.205922 7.782719 -0.247487
v 1.000000 7.920000 -0.350000
v 0.794078 8.057281 -0.247487
v 0.708782 8.114145 -0.000000
v 0.794078 8.057281 0.247487
v 1.000000 7.920000 0.350000
v 1.800000 9.120000 0.200000
v 1.917670 9.041554 0.141421
v 1.966410 9.009060 0.000000
v 1.917670 9.041554 -0.141421
v 1.800000 9.120000 -0.200000
v 1.682330 9.198446 -0.141421
v 1.633590 9.230940 -0.000000
v 1.682330 9.198446 0.141421
v 1.800000 9.120000 0.200000
v 1.000000 7.920000 -0.000000
v 1.800000 9.120000 -0.000000
vt 0.7587500 0.9912500
vt 0.7878125 0.9912500
vt 0.8168750 0.9912500
vt 0.8459375 0.9912500
vt 0.8750000 0.9912500
vt 0.9040625 0.9912500
vt 0.9331250 0.9912500
vt 0.9621875 0.9912500
vt 0.9912500 0.9912500
vt 0.7587500 0.7587500
vt 0.7878125 0.7587500
vt 0.8168750 0.7587500
vt 0.8459375 0.7587500
vt 0.8750000 0.7587500
vt 0.9040625 0.7587500
vt 0.9331250 0.7587500
vt 0.9621875 0.7587500
vt 0.9912500 0.7587500
vt 0.8750000 0.8750000
vt 0.8750000 0.8750000
vn 0.0293507 -0.1206310 0.9922634
vn 0.5908887 -0.4949897 0.6370524
vn 0.7789682 -0.6203760 -0.0913353
vn 0.4834147 -0.4233404 -0.7662200
vn -0.1226404 -0.0193036 -0.9922634
vn -0.6841785 0.3550551 -0.6370524
vn -0.8722579 0.4804414 0.0913353
vn -0.5767045 0.2834058 0.7662200
vn 0.0293507 -0.1206310 0.9922634
vn -0.0600779 0.2469193 0.9671719
vn 0.5545172 -0.1628108 0.8160903
vn 0.9002129 -0.3932746 0.1869540
vn 0.7745054 -0.3094696 -0.5516974
vn 0.2510324 0.0395124 -0.9671719
vn -0.3635627 0.4492425 -0.8160903
vn -0.7092585 0.6797063 -0.1869540
vn -0.5835509 0.5959013 0.5516974
vn -0.0600779 0.2469193 0.9671719
vn -0.5547002 -0.8320503 -0.0000000
vn 0.5547002 0.8320503 -0.0000000
f 234/234/234 235/235/235 244/244/244
f 234/234/234 244/244/244 243/243/243
f 235/235/235 236/236/236 245/245/245
f 235/235/235 245/245/245 244/244/244
f 236/236/236 237/237/237 246/246/246
f 236/236/236 246/246/246 245/245/245
f 237/237/237 238/238/238 247/247/247
f 237/237/237 247/247/247 246/246/246
f 238/238/238 239/239/239 248/248/248
f 238/238/238 248/248/248 247/247/247
f 239/239/239 240/240/240 249/249/249
f 239/239/239 249/249/249 248/248/248
f 240/240/240 241/241/241 250/250/250
f 240/240/240 250/250/250 249/249/249
f 241/241/241 242/242/242 251/251/251
f 241/241/241 251/251/251 250/250/250
f 252/252/252 235/235/235 234/234/234
f 252/252/252 236/236/236 235/235/235
f 252/252/252 237/237/237 236/236/236
f 252/252/252 238/238/238 237/237/237
f 252/252/252 239/239/239 238/238/238
f 252/252/252 240/240/240 239/239/239
f 252/252/252 241/241/241 240/240/240
f 252/252/252 242/242/242 241/241/241
f 253/253/253 243/243/243 244/244/244
f 253/253/253 244/244/244 245/245/245
f 253/253/253 245/245/245 246/246/246
f 253/253/253 246/246/246 247/247/247
f 253/253/253 247/247/247 248/248/248
f 253/253/253 248/248/248 249/249/249
f 253/253/253 249/249/249 250/250/250
f 253/253/253 250/250/250 251/251/251
o Small_leaf
v 0.592028 8.815865 -0.125839
v 1.937961 9.144276 -0.411926
v 1.619056 9.088121 -0.641580
v 0.905131 8.941105 -0.673657
v 0.068881 8.759383 -0.495907
v -0.570275 8.612368 -0.176223
v -0.768201 8.556213 0.163286
v -0.449296 8.612368 0.392939
v 0.264629 8.759383 0.425017
v 1.100879 8.941105 0.247267
v 1.740035 9.088121 -0.072417
v 1.937961 9.144276 -0.411926
v 2.481169 9.349066 -0.527389
v 2.030169 9.269651 -0.852168
v 1.020527 9.061739 -0.897532
v -0.162109 8.804746 -0.646155
v -1.066012 8.596834 -0.194054
v -1.345922 8.517419 0.286084
v -0.894922 8.596834 0.610863
v 0.114721 8.804746 0.656228
v 1.297357 9.061739 0.404851
v 2.201260 9.269651 -0.047251
v 2.481169 9.349066 -0.527389
v 1.903448 9.310273 -0.404590
v 1.584543 9.254118 -0.634244
v 0.870618 9.107102 -0.666321
v 0.034368 8.925380 -0.488571
v -0.604788 8.778365 -0.168887
v -0.802714 8.722210 0.170622
v -0.483808 8.778365 0.400275
v 0.230117 8.925380 0.432353
v 1.066367 9.107102 0.254603
v 1.705523 9.254118 -0.065081
v 1.903448 9.310273 -0.404590
v 0.543220 9.050620 -0.115465
vt 0.3750000 0.2412500
vt 0.2587500 0.1831250
vt 0.2820000 0.1831250
vt 0.3052500 0.1831250
vt 0.3285000 0.1831250
vt 0.3517500 0.1831250
vt 0.3750000 0.1831250
vt 0.3982500 0.1831250
vt 0.4215000 0.1831250
vt 0.4447500 0.1831250
vt 0.4680000 0.1831250
vt 0.4912500 0.1831250
vt 0.2587500 0.1250000
vt 0.2820000 0.1250000
vt 0.3052500 0.1250000
vt 0.3285000 0.1250000
vt 0.3517500 0.1250000
vt 0.3750000 0.1250000
vt 0.3982500 0.1250000
vt 0.4215000 0.1250000
vt 0.4447500 0.1250000
vt 0.4680000 0.1250000
vt 0.4912500 0.1250000
vt 0.2587500 0.0668750
vt 0.2820000 0.0668750
vt 0.3052500 0.0668750
vt 0.3285000 0.0668750
vt 0.3517500 0.0668750
vt 0.3750000 0.0668750
vt 0.3982500 0.0668750
vt 0.4215000 0.0668750
vt 0.4447500 0.0668750
vt 0.4680000 0.0668750
vt 0.4912500 0.0668750
vt 0.3750000 0.0087500
vn 0.2033683 -0.9781476 -0.0432273
vn 0.2690886 -0.9597275 -0.0807124
vn 0.2239763 -0.9552973 -0.1929810
vn 0.1707254 -0.9540867 -0.2461126
vn 0.1308004 -0.9658096 -0.2238370
vn 0.1180467 -0.9840367 -0.1331797
vn 0.1364149 -0.9906366 -0.0054800
vn 0.1780070 -0.9781356 0.1075368
vn 0.2273057 -0.9603370 0.1615085
vn 0.2682005 -0.9532786 0.1390268
vn 0.2855569 -0.9571893 0.0473911
vn 0.2690886 -0.9597275 -0.0807124
vn 0.9567727 0.2079117 -0.2033683
vn 0.2279291 0.0902337 -0.9694876
vn -0.0984710 0.0234927 -0.9948626
vn -0.3146893 -0.0234927 -0.9489040
vn -0.6025497 -0.0902337 -0.7929639
vn -0.9567727 -0.2079117 0.2033683
vn -0.2279291 -0.0902337 0.9694876
vn 0.0984710 -0.0234927 0.9948626
vn 0.3146893 0.0234927 0.9489040
vn 0.6025497 0.0902337 0.7929639
vn 0.9567727 0.2079117 -0.2033683
vn -0.1268502 0.9906366 0.0504787
vn -0.1620101 0.9840367 -0.0736518
vn -0.2105348 0.9658096 -0.1512840
vn -0.2560684 0.9540867 -0.1553948
vn -0.2831049 0.9552973 -0.0851975
vn -0.2786533 0.9597275 0.0357138
vn -0.2415935 0.9571893 0.1594404
vn -0.1884660 0.9532786 0.2360942
vn -0.1419626 0.9603370 0.2399989
vn -0.1188784 0.9781356 0.1706417
vn -0.1268502 0.9906366 0.0504787
vn -0.2033683 0.9781476 0.0432273
f 254/254/254 256/256/256 255/255/255
f 254/254/254 257/257/257 256/256/256
f 254/254/254 258/258/258 257/257/257
f 254/254/254 259/259/259 258/258/258
f 254/254/254 260/260/260 259/259/259
f 254/254/254 261/261/261 260/260/260
f 254/254/254 262/262/262 261/261/261
f 254/254/254 263/263/263 262/262/262
f 254/254/254 264/264/264 263/263/263
f 254/254/254 265/265/265 264/264/264
f 255/255/255 256/256/256 267/267/267
f 255/255/255 267/267/267 266/266/266
f 256/256/256 257/257/257 268/268/268
f 256/256/256 268/268/268 267/267/267
f 257/257/257 258/258/258 269/269/269
f 257/257/257 269/269/269 268/268/268
f 258/258/258 259/259/259 270/270/270
f 258/258/258 270/270/270 269/269/269
f 259/259/259 260/260/260 271/271/271
f 259/259/259 271/271/271 270/270/270
f 260/260/260 261/261/261 272/272/272
f 260/260/260 272/272/272 271/271/271
f 261/261/261 262/262/262 273/273/273
f 261/261/261 273/273/273 272/272/272
f 262/262/262 263/263/263 274/274/274
f 262/262/262 274/274/274 273/273/273
f 263/263/263 264/264/264 275/275/275
f 263/263/263 275/275/275 274/274/274
f 264/264/264 265/265/265 276/276/276
f 264/264/264 276/276/276 275/275/275
f 266/266/266 267/267/267 278/278/278
f 266/266/266 278/278/278 277/277/277
f 267/267/267 268/268/268 279/279/279
f 267/267/267 279/279/279 278/278/278
f 268/268/268 269/269/269 280/280/280
f 268/268/268 280/280/280 279/279/279
f 269/269/269 270/270/270 281/281/281
f 269/269/269 281/281/281 280/280/280
f 270/270/270 271/271/271 282/282/282
f 270/270/270 282/282/282 281/281/281
f 271/271/271 272/272/272 283/283/283
f 271/271/271 283/283/283 282/282/282
f 272/272/272 273/273/273 284/284/284
f 272/272/272 284/284/284 283/283/283
f 273/273/273 274/274/274 285/285/285
f 273/273/273 285/285/285 284/284/284
f 274/274/274 275/275/275 286/286/286
f 274/274/274 286/286/286 285/285/285
f 275/275/275 276/276/276 287/287/287
f 275/275/275 287/287/287 286/286/286
f 277/277/277 278/278/278 288/288/288
f 278/278/278 279/279/279 288/288/288
f 279/279/279 280/280/280 288/288/288
f 280/280/280 281/281/281 288/288/288
f 281/281/281 282/282/282 288/288/288
f 282/282/282 283/283/283 288/288/288
f 283/283/283 284/284/284 288/288/288
f 284/284/284 285/285/285 288/288/288
f 285/285/285 286/286/286 288/288/288
f 286/286/286 287/287/287 288/288/288
