# Original Project Broom pickup; OBJ Y up; CC-BY-SA-4.0
o Faceted_crystal_orb
v 0.000000 0.120000 -0.000000
v 2.853170 1.074915 -1.727458
v 3.526712 1.074915 -0.000000
v 0.000000 0.120000 -0.000000
v 1.089814 1.074915 -2.795085
v 2.853170 1.074915 -1.727458
v 0.000000 0.120000 -0.000000
v -1.089814 1.074915 -2.795085
v 1.089814 1.074915 -2.795085
v 0.000000 0.120000 -0.000000
v -2.853170 1.074915 -1.727458
v -1.089814 1.074915 -2.795085
v 0.000000 0.120000 -0.000000
v -3.526712 1.074915 -0.000000
v -2.853170 1.074915 -1.727458
v 0.000000 0.120000 -0.000000
v -2.853170 1.074915 1.727458
v -3.526712 1.074915 -0.000000
v 0.000000 0.120000 -0.000000
v -1.089814 1.074915 2.795085
v -2.853170 1.074915 1.727458
v 0.000000 0.120000 -0.000000
v 1.089814 1.074915 2.795085
v -1.089814 1.074915 2.795085
v 0.000000 0.120000 -0.000000
v 2.853170 1.074915 1.727458
v 1.089814 1.074915 2.795085
v 0.000000 0.120000 -0.000000
v 3.526712 1.074915 0.000000
v 2.853170 1.074915 1.727458
v 3.526712 1.074915 -0.000000
v 2.853170 1.074915 -1.727458
v 4.616525 3.574915 -2.795085
v 3.526712 1.074915 -0.000000
v 4.616525 3.574915 -2.795085
v 5.706339 3.574915 -0.000000
v 2.853170 1.074915 -1.727458
v 1.089814 1.074915 -2.795085
v 1.763356 3.574915 -4.522542
v 2.853170 1.074915 -1.727458
v 1.763356 3.574915 -4.522542
v 4.616525 3.574915 -2.795085
v 1.089814 1.074915 -2.795085
v -1.089814 1.074915 -2.795085
v -1.763356 3.574915 -4.522542
v 1.089814 1.074915 -2.795085
v -1.763356 3.574915 -4.522542
v 1.763356 3.574915 -4.522542
v -1.089814 1.074915 -2.795085
v -2.853170 1.074915 -1.727458
v -4.616525 3.574915 -2.795085
v -1.089814 1.074915 -2.795085
v -4.616525 3.574915 -2.795085
v -1.763356 3.574915 -4.522542
v -2.853170 1.074915 -1.727458
v -3.526712 1.074915 -0.000000
v -5.706339 3.574915 -0.000000
v -2.853170 1.074915 -1.727458
v -5.706339 3.574915 -0.000000
v -4.616525 3.574915 -2.795085
v -3.526712 1.074915 -0.000000
v -2.853170 1.074915 1.727458
v -4.616525 3.574915 2.795085
v -3.526712 1.074915 -0.000000
v -4.616525 3.574915 2.795085
v -5.706339 3.574915 -0.000000
v -2.853170 1.074915 1.727458
v -1.089814 1.074915 2.795085
v -1.763356 3.574915 4.522542
v -2.853170 1.074915 1.727458
v -1.763356 3.574915 4.522542
v -4.616525 3.574915 2.795085
v -1.089814 1.074915 2.795085
v 1.089814 1.074915 2.795085
v 1.763356 3.574915 4.522542
v -1.089814 1.074915 2.795085
v 1.763356 3.574915 4.522542
v -1.763356 3.574915 4.522542
v 1.089814 1.074915 2.795085
v 2.853170 1.074915 1.727458
v 4.616525 3.574915 2.795085
v 1.089814 1.074915 2.795085
v 4.616525 3.574915 2.795085
v 1.763356 3.574915 4.522542
v 2.853170 1.074915 1.727458
v 3.526712 1.074915 0.000000
v 5.706339 3.574915 0.000000
v 2.853170 1.074915 1.727458
v 5.706339 3.574915 0.000000
v 4.616525 3.574915 2.795085
v 5.706339 3.574915 -0.000000
v 4.616525 3.574915 -2.795085
v 4.616525 6.665085 -2.795085
v 5.706339 3.574915 -0.000000
v 4.616525 6.665085 -2.795085
v 5.706339 6.665085 -0.000000
v 4.616525 3.574915 -2.795085
v 1.763356 3.574915 -4.522542
v 1.763356 6.665085 -4.522542
v 4.616525 3.574915 -2.795085
v 1.763356 6.665085 -4.522542
v 4.616525 6.665085 -2.795085
v 1.763356 3.574915 -4.522542
v -1.763356 3.574915 -4.522542
v -1.763356 6.665085 -4.522542
v 1.763356 3.574915 -4.522542
v -1.763356 6.665085 -4.522542
v 1.763356 6.665085 -4.522542
v -1.763356 3.574915 -4.522542
v -4.616525 3.574915 -2.795085
v -4.616525 6.665085 -2.795085
v -1.763356 3.574915 -4.522542
v -4.616525 6.665085 -2.795085
v -1.763356 6.665085 -4.522542
v -4.616525 3.574915 -2.795085
v -5.706339 3.574915 -0.000000
v -5.706339 6.665085 -0.000000
v -4.616525 3.574915 -2.795085
v -5.706339 6.665085 -0.000000
v -4.616525 6.665085 -2.795085
v -5.706339 3.574915 -0.000000
v -4.616525 3.574915 2.795085
v -4.616525 6.665085 2.795085
v -5.706339 3.574915 -0.000000
v -4.616525 6.665085 2.795085
v -5.706339 6.665085 -0.000000
v -4.616525 3.574915 2.795085
v -1.763356 3.574915 4.522542
v -1.763356 6.665085 4.522542
v -4.616525 3.574915 2.795085
v -1.763356 6.665085 4.522542
v -4.616525 6.665085 2.795085
v -1.763356 3.574915 4.522542
v 1.763356 3.574915 4.522542
v 1.763356 6.665085 4.522542
v -1.763356 3.574915 4.522542
v 1.763356 6.665085 4.522542
v -1.763356 6.665085 4.522542
v 1.763356 3.574915 4.522542
v 4.616525 3.574915 2.795085
v 4.616525 6.665085 2.795085
v 1.763356 3.574915 4.522542
v 4.616525 6.665085 2.795085
v 1.763356 6.665085 4.522542
v 4.616525 3.574915 2.795085
v 5.706339 3.574915 0.000000
v 5.706339 6.665085 0.000000
v 4.616525 3.574915 2.795085
v 5.706339 6.665085 0.000000
v 4.616525 6.665085 2.795085
v 5.706339 6.665085 -0.000000
v 4.616525 6.665085 -2.795085
v 2.853170 9.165085 -1.727458
v 5.706339 6.665085 -0.000000
v 2.853170 9.165085 -1.727458
v 3.526712 9.165085 -0.000000
v 4.616525 6.665085 -2.795085
v 1.763356 6.665085 -4.522542
v 1.089814 9.165085 -2.795085
v 4.616525 6.665085 -2.795085
v 1.089814 9.165085 -2.795085
v 2.853170 9.165085 -1.727458
v 1.763356 6.665085 -4.522542
v -1.763356 6.665085 -4.522542
v -1.089814 9.165085 -2.795085
v 1.763356 6.665085 -4.522542
v -1.089814 9.165085 -2.795085
v 1.089814 9.165085 -2.795085
v -1.763356 6.665085 -4.522542
v -4.616525 6.665085 -2.795085
v -2.853170 9.165085 -1.727458
v -1.763356 6.665085 -4.522542
v -2.853170 9.165085 -1.727458
v -1.089814 9.165085 -2.795085
v -4.616525 6.665085 -2.795085
v -5.706339 6.665085 -0.000000
v -3.526712 9.165085 -0.000000
v -4.616525 6.665085 -2.795085
v -3.526712 9.165085 -0.000000
v -2.853170 9.165085 -1.727458
v -5.706339 6.665085 -0.000000
v -4.616525 6.665085 2.795085
v -2.853170 9.165085 1.727458
v -5.706339 6.665085 -0.000000
v -2.853170 9.165085 1.727458
v -3.526712 9.165085 -0.000000
v -4.616525 6.665085 2.795085
v -1.763356 6.665085 4.522542
v -1.089814 9.165085 2.795085
v -4.616525 6.665085 2.795085
v -1.089814 9.165085 2.795085
v -2.853170 9.165085 1.727458
v -1.763356 6.665085 4.522542
v 1.763356 6.665085 4.522542
v 1.089814 9.165085 2.795085
v -1.763356 6.665085 4.522542
v 1.089814 9.165085 2.795085
v -1.089814 9.165085 2.795085
v 1.763356 6.665085 4.522542
v 4.616525 6.665085 2.795085
v 2.853170 9.165085 1.727458
v 1.763356 6.665085 4.522542
v 2.853170 9.165085 1.727458
v 1.089814 9.165085 2.795085
v 4.616525 6.665085 2.795085
v 5.706339 6.665085 0.000000
v 3.526712 9.165085 0.000000
v 4.616525 6.665085 2.795085
v 3.526712 9.165085 0.000000
v 2.853170 9.165085 1.727458
v 3.526712 9.165085 -0.000000
v 2.853170 9.165085 -1.727458
v 0.000000 10.120000 -0.000000
v 2.853170 9.165085 -1.727458
v 1.089814 9.165085 -2.795085
v 0.000000 10.120000 -0.000000
v 1.089814 9.165085 -2.795085
v -1.089814 9.165085 -2.795085
v 0.000000 10.120000 -0.000000
v -1.089814 9.165085 -2.795085
v -2.853170 9.165085 -1.727458
v 0.000000 10.120000 -0.000000
v -2.853170 9.165085 -1.727458
v -3.526712 9.165085 -0.000000
v 0.000000 10.120000 -0.000000
v -3.526712 9.165085 -0.000000
v -2.853170 9.165085 1.727458
v 0.000000 10.120000 -0.000000
v -2.853170 9.165085 1.727458
v -1.089814 9.165085 2.795085
v 0.000000 10.120000 -0.000000
v -1.089814 9.165085 2.795085
v 1.089814 9.165085 2.795085
v 0.000000 10.120000 -0.000000
v 1.089814 9.165085 2.795085
v 2.853170 9.165085 1.727458
v 0.000000 10.120000 -0.000000
v 2.853170 9.165085 1.727458
v 3.526712 9.165085 0.000000
v 0.000000 10.120000 -0.000000
vt 0.6250000 0.1864466
vt 0.6250000 0.1864466
vt 0.6250000 0.1864466
vt 0.6250000 0.1949904
vt 0.6250000 0.1949904
vt 0.6250000 0.1949904
vt 0.6250000 0.2022792
vt 0.6250000 0.2022792
vt 0.6250000 0.2022792
vt 0.6250000 0.2060972
vt 0.6250000 0.2060972
vt 0.6250000 0.2060972
vt 0.6250000 0.2045822
vt 0.6250000 0.2045822
vt 0.6250000 0.2045822
vt 0.6250000 0.1975110
vt 0.6250000 0.1975110
vt 0.6250000 0.1975110
vt 0.6250000 0.1877526
vt 0.6250000 0.1877526
vt 0.6250000 0.1877526
vt 0.6250000 0.1797294
vt 0.6250000 0.1797294
vt 0.6250000 0.1797294
vt 0.6250000 0.1766458
vt 0.6250000 0.1766458
vt 0.6250000 0.1766458
vt 0.6250000 0.1793754
vt 0.6250000 0.1793754
vt 0.6250000 0.1793754
vt 0.6250000 0.1535901
vt 0.6250000 0.1535901
vt 0.6250000 0.1535901
vt 0.6250000 0.1535901
vt 0.6250000 0.1535901
vt 0.6250000 0.1535901
vt 0.6250000 0.1756524
vt 0.6250000 0.1756524
vt 0.6250000 0.1756524
vt 0.6250000 0.1756524
vt 0.6250000 0.1756524
vt 0.6250000 0.1756524
vt 0.6250000 0.1933427
vt 0.6250000 0.1933427
vt 0.6250000 0.1933427
vt 0.6250000 0.1933427
vt 0.6250000 0.1933427
vt 0.6250000 0.1933427
vt 0.6250000 0.2048214
vt 0.6250000 0.2048214
vt 0.6250000 0.2048214
vt 0.6250000 0.2048214
vt 0.6250000 0.2048214
vt 0.6250000 0.2048214
vt 0.6250000 0.2040310
vt 0.6250000 0.2040310
vt 0.6250000 0.2040310
vt 0.6250000 0.2040310
vt 0.6250000 0.2040310
vt 0.6250000 0.2040310
vt 0.6250000 0.1843639
vt 0.6250000 0.1843639
vt 0.6250000 0.1843639
vt 0.6250000 0.1843639
vt 0.6250000 0.1843639
vt 0.6250000 0.1843639
vt 0.6250000 0.1566442
vt 0.6250000 0.1566442
vt 0.6250000 0.1566442
vt 0.6250000 0.1566442
vt 0.6250000 0.1566442
vt 0.6250000 0.1566442
vt 0.6250000 0.1359593
vt 0.6250000 0.1359593
vt 0.6250000 0.1359593
vt 0.6250000 0.1359593
vt 0.6250000 0.1359593
vt 0.6250000 0.1359593
vt 0.6250000 0.1274752
vt 0.6250000 0.1274752
vt 0.6250000 0.1274752
vt 0.6250000 0.1274752
vt 0.6250000 0.1274752
vt 0.6250000 0.1274752
vt 0.6250000 0.1339230
vt 0.6250000 0.1339230
vt 0.6250000 0.1339230
vt 0.6250000 0.1339230
vt 0.6250000 0.1339230
vt 0.6250000 0.1339230
vt 0.6250000 0.1051764
vt 0.6250000 0.1051764
vt 0.6250000 0.1051764
vt 0.6250000 0.1051764
vt 0.6250000 0.1051764
vt 0.6250000 0.1051764
vt 0.6250000 0.1367706
vt 0.6250000 0.1367706
vt 0.6250000 0.1367706
vt 0.6250000 0.1367706
vt 0.6250000 0.1367706
vt 0.6250000 0.1367706
vt 0.6250000 0.1598750
vt 0.6250000 0.1598750
vt 0.6250000 0.1598750
vt 0.6250000 0.1598750
vt 0.6250000 0.1598750
vt 0.6250000 0.1598750
vt 0.6250000 0.1728956
vt 0.6250000 0.1728956
vt 0.6250000 0.1728956
vt 0.6250000 0.1728956
vt 0.6250000 0.1728956
vt 0.6250000 0.1728956
vt 0.6250000 0.1701615
vt 0.6250000 0.1701615
vt 0.6250000 0.1701615
vt 0.6250000 0.1701615
vt 0.6250000 0.1701615
vt 0.6250000 0.1701615
vt 0.6250000 0.1448236
vt 0.6250000 0.1448236
vt 0.6250000 0.1448236
vt 0.6250000 0.1448236
vt 0.6250000 0.1448236
vt 0.6250000 0.1448236
vt 0.6250000 0.1132294
vt 0.6250000 0.1132294
vt 0.6250000 0.1132294
vt 0.6250000 0.1132294
vt 0.6250000 0.1132294
vt 0.6250000 0.1132294
vt 0.6250000 0.0901250
vt 0.6250000 0.0901250
vt 0.6250000 0.0901250
vt 0.6250000 0.0901250
vt 0.6250000 0.0901250
vt 0.6250000 0.0901250
vt 0.6250000 0.0771044
vt 0.6250000 0.0771044
vt 0.6250000 0.0771044
vt 0.6250000 0.0771044
vt 0.6250000 0.0771044
vt 0.6250000 0.0771044
vt 0.6250000 0.0798385
vt 0.6250000 0.0798385
vt 0.6250000 0.0798385
vt 0.6250000 0.0798385
vt 0.6250000 0.0798385
vt 0.6250000 0.0798385
vt 0.6250000 0.0656361
vt 0.6250000 0.0656361
vt 0.6250000 0.0656361
vt 0.6250000 0.0656361
vt 0.6250000 0.0656361
vt 0.6250000 0.0656361
vt 0.6250000 0.0933558
vt 0.6250000 0.0933558
vt 0.6250000 0.0933558
vt 0.6250000 0.0933558
vt 0.6250000 0.0933558
vt 0.6250000 0.0933558
vt 0.6250000 0.1140407
vt 0.6250000 0.1140407
vt 0.6250000 0.1140407
vt 0.6250000 0.1140407
vt 0.6250000 0.1140407
vt 0.6250000 0.1140407
vt 0.6250000 0.1225248
vt 0.6250000 0.1225248
vt 0.6250000 0.1225248
vt 0.6250000 0.1225248
vt 0.6250000 0.1225248
vt 0.6250000 0.1225248
vt 0.6250000 0.1160770
vt 0.6250000 0.1160770
vt 0.6250000 0.1160770
vt 0.6250000 0.1160770
vt 0.6250000 0.1160770
vt 0.6250000 0.1160770
vt 0.6250000 0.0964099
vt 0.6250000 0.0964099
vt 0.6250000 0.0964099
vt 0.6250000 0.0964099
vt 0.6250000 0.0964099
vt 0.6250000 0.0964099
vt 0.6250000 0.0743476
vt 0.6250000 0.0743476
vt 0.6250000 0.0743476
vt 0.6250000 0.0743476
vt 0.6250000 0.0743476
vt 0.6250000 0.0743476
vt 0.6250000 0.0566573
vt 0.6250000 0.0566573
vt 0.6250000 0.0566573
vt 0.6250000 0.0566573
vt 0.6250000 0.0566573
vt 0.6250000 0.0566573
vt 0.6250000 0.0451786
vt 0.6250000 0.0451786
vt 0.6250000 0.0451786
vt 0.6250000 0.0451786
vt 0.6250000 0.0451786
vt 0.6250000 0.0451786
vt 0.6250000 0.0459690
vt 0.6250000 0.0459690
vt 0.6250000 0.0459690
vt 0.6250000 0.0459690
vt 0.6250000 0.0459690
vt 0.6250000 0.0459690
vt 0.6250000 0.0524890
vt 0.6250000 0.0524890
vt 0.6250000 0.0524890
vt 0.6250000 0.0622474
vt 0.6250000 0.0622474
vt 0.6250000 0.0622474
vt 0.6250000 0.0702706
vt 0.6250000 0.0702706
vt 0.6250000 0.0702706
vt 0.6250000 0.0733542
vt 0.6250000 0.0733542
vt 0.6250000 0.0733542
vt 0.6250000 0.0706246
vt 0.6250000 0.0706246
vt 0.6250000 0.0706246
vt 0.6250000 0.0635534
vt 0.6250000 0.0635534
vt 0.6250000 0.0635534
vt 0.6250000 0.0550096
vt 0.6250000 0.0550096
vt 0.6250000 0.0550096
vt 0.6250000 0.0477208
vt 0.6250000 0.0477208
vt 0.6250000 0.0477208
vt 0.6250000 0.0439028
vt 0.6250000 0.0439028
vt 0.6250000 0.0439028
vt 0.6250000 0.0454178
vt 0.6250000 0.0454178
vt 0.6250000 0.0454178
vn -0.0000000 -1.0000000 -0.0000000
vn 0.4207647 -0.7769883 -0.4682373
vn 0.5892098 -0.8035147 -0.0848293
vn -0.0000000 -1.0000000 -0.0000000
vn 0.1072354 -0.7502766 -0.6523692
vn 0.4207647 -0.7769883 -0.4682373
vn -0.0000000 -1.0000000 -0.0000000
vn -0.2350065 -0.7574241 -0.6091639
vn 0.1072354 -0.7502766 -0.6523692
vn -0.0000000 -1.0000000 -0.0000000
vn -0.5094962 -0.7899699 -0.3411175
vn -0.2350065 -0.7574241 -0.6091639
vn -0.0000000 -1.0000000 -0.0000000
vn -0.5892098 -0.8035147 0.0848293
vn -0.5094962 -0.7899699 -0.3411175
vn -0.0000000 -1.0000000 -0.0000000
vn -0.4207647 -0.7769883 0.4682373
vn -0.5892098 -0.8035147 0.0848293
vn -0.0000000 -1.0000000 -0.0000000
vn -0.1072354 -0.7502766 0.6523692
vn -0.4207647 -0.7769883 0.4682373
vn -0.0000000 -1.0000000 -0.0000000
vn 0.2350065 -0.7574241 0.6091639
vn -0.1072354 -0.7502766 0.6523692
vn -0.0000000 -1.0000000 -0.0000000
vn 0.5094962 -0.7899699 0.3411175
vn 0.2350065 -0.7574241 0.6091639
vn -0.0000000 -1.0000000 -0.0000000
vn 0.5892098 -0.8035147 -0.0848293
vn 0.5094962 -0.7899699 0.3411175
vn 0.5892098 -0.8035147 -0.0848293
vn 0.4207647 -0.7769883 -0.4682373
vn 0.6940517 -0.3168395 -0.6464557
vn 0.5892098 -0.8035147 -0.0848293
vn 0.6940517 -0.3168395 -0.6464557
vn 0.9400428 -0.3391717 -0.0358073
vn 0.4207647 -0.7769883 -0.4682373
vn 0.1072354 -0.7502766 -0.6523692
vn 0.2248742 -0.2909882 -0.9299234
vn 0.4207647 -0.7769883 -0.4682373
vn 0.2248742 -0.2909882 -0.9299234
vn 0.6940517 -0.3168395 -0.6464557
vn 0.1072354 -0.7502766 -0.6523692
vn -0.2350065 -0.7574241 -0.6091639
vn -0.2750416 -0.2925545 -0.9158406
vn 0.1072354 -0.7502766 -0.6523692
vn -0.2750416 -0.2925545 -0.9158406
vn 0.2248742 -0.2909882 -0.9299234
vn -0.2350065 -0.7574241 -0.6091639
vn -0.5094962 -0.7899699 -0.3411175
vn -0.7343817 -0.3201357 -0.5984953
vn -0.2350065 -0.7574241 -0.6091639
vn -0.7343817 -0.3201357 -0.5984953
vn -0.2750416 -0.2925545 -0.9158406
vn -0.5094962 -0.7899699 -0.3411175
vn -0.5892098 -0.8035147 0.0848293
vn -0.9400428 -0.3391717 0.0358073
vn -0.5094962 -0.7899699 -0.3411175
vn -0.9400428 -0.3391717 0.0358073
vn -0.7343817 -0.3201357 -0.5984953
vn -0.5892098 -0.8035147 0.0848293
vn -0.4207647 -0.7769883 0.4682373
vn -0.6940517 -0.3168395 0.6464557
vn -0.5892098 -0.8035147 0.0848293
vn -0.6940517 -0.3168395 0.6464557
vn -0.9400428 -0.3391717 0.0358073
vn -0.4207647 -0.7769883 0.4682373
vn -0.1072354 -0.7502766 0.6523692
vn -0.2248742 -0.2909882 0.9299234
vn -0.4207647 -0.7769883 0.4682373
vn -0.2248742 -0.2909882 0.9299234
vn -0.6940517 -0.3168395 0.6464557
vn -0.1072354 -0.7502766 0.6523692
vn 0.2350065 -0.7574241 0.6091639
vn 0.2750416 -0.2925545 0.9158406
vn -0.1072354 -0.7502766 0.6523692
vn 0.2750416 -0.2925545 0.9158406
vn -0.2248742 -0.2909882 0.9299234
vn 0.2350065 -0.7574241 0.6091639
vn 0.5094962 -0.7899699 0.3411175
vn 0.7343817 -0.3201357 0.5984953
vn 0.2350065 -0.7574241 0.6091639
vn 0.7343817 -0.3201357 0.5984953
vn 0.2750416 -0.2925545 0.9158406
vn 0.5094962 -0.7899699 0.3411175
vn 0.5892098 -0.8035147 -0.0848293
vn 0.9400428 -0.3391717 -0.0358073
vn 0.5094962 -0.7899699 0.3411175
vn 0.9400428 -0.3391717 -0.0358073
vn 0.7343817 -0.3201357 0.5984953
vn 0.9400428 -0.3391717 -0.0358073
vn 0.6940517 -0.3168395 -0.6464557
vn 0.7343817 0.3201357 -0.5984953
vn 0.9400428 -0.3391717 -0.0358073
vn 0.7343817 0.3201357 -0.5984953
vn 0.9400428 0.3391717 0.0358073
vn 0.6940517 -0.3168395 -0.6464557
vn 0.2248742 -0.2909882 -0.9299234
vn 0.2750416 0.2925545 -0.9158406
vn 0.6940517 -0.3168395 -0.6464557
vn 0.2750416 0.2925545 -0.9158406
vn 0.7343817 0.3201357 -0.5984953
vn 0.2248742 -0.2909882 -0.9299234
vn -0.2750416 -0.2925545 -0.9158406
vn -0.2248742 0.2909882 -0.9299234
vn 0.2248742 -0.2909882 -0.9299234
vn -0.2248742 0.2909882 -0.9299234
vn 0.2750416 0.2925545 -0.9158406
vn -0.2750416 -0.2925545 -0.9158406
vn -0.7343817 -0.3201357 -0.5984953
vn -0.6940517 0.3168395 -0.6464557
vn -0.2750416 -0.2925545 -0.9158406
vn -0.6940517 0.3168395 -0.6464557
vn -0.2248742 0.2909882 -0.9299234
vn -0.7343817 -0.3201357 -0.5984953
vn -0.9400428 -0.3391717 0.0358073
vn -0.9400428 0.3391717 -0.0358073
vn -0.7343817 -0.3201357 -0.5984953
vn -0.9400428 0.3391717 -0.0358073
vn -0.6940517 0.3168395 -0.6464557
vn -0.9400428 -0.3391717 0.0358073
vn -0.6940517 -0.3168395 0.6464557
vn -0.7343817 0.3201357 0.5984953
vn -0.9400428 -0.3391717 0.0358073
vn -0.7343817 0.3201357 0.5984953
vn -0.9400428 0.3391717 -0.0358073
vn -0.6940517 -0.3168395 0.6464557
vn -0.2248742 -0.2909882 0.9299234
vn -0.2750416 0.2925545 0.9158406
vn -0.6940517 -0.3168395 0.6464557
vn -0.2750416 0.2925545 0.9158406
vn -0.7343817 0.3201357 0.5984953
vn -0.2248742 -0.2909882 0.9299234
vn 0.2750416 -0.2925545 0.9158406
vn 0.2248742 0.2909882 0.9299234
vn -0.2248742 -0.2909882 0.9299234
vn 0.2248742 0.2909882 0.9299234
vn -0.2750416 0.2925545 0.9158406
vn 0.2750416 -0.2925545 0.9158406
vn 0.7343817 -0.3201357 0.5984953
vn 0.6940517 0.3168395 0.6464557
vn 0.2750416 -0.2925545 0.9158406
vn 0.6940517 0.3168395 0.6464557
vn 0.2248742 0.2909882 0.9299234
vn 0.7343817 -0.3201357 0.5984953
vn 0.9400428 -0.3391717 -0.0358073
vn 0.9400428 0.3391717 0.0358073
vn 0.7343817 -0.3201357 0.5984953
vn 0.9400428 0.3391717 0.0358073
vn 0.6940517 0.3168395 0.6464557
vn 0.9400428 0.3391717 0.0358073
vn 0.7343817 0.3201357 -0.5984953
vn 0.5094962 0.7899699 -0.3411175
vn 0.9400428 0.3391717 0.0358073
vn 0.5094962 0.7899699 -0.3411175
vn 0.5892098 0.8035147 0.0848293
vn 0.7343817 0.3201357 -0.5984953
vn 0.2750416 0.2925545 -0.9158406
vn 0.2350065 0.7574241 -0.6091639
vn 0.7343817 0.3201357 -0.5984953
vn 0.2350065 0.7574241 -0.6091639
vn 0.5094962 0.7899699 -0.3411175
vn 0.2750416 0.2925545 -0.9158406
vn -0.2248742 0.2909882 -0.9299234
vn -0.1072354 0.7502766 -0.6523692
vn 0.2750416 0.2925545 -0.9158406
vn -0.1072354 0.7502766 -0.6523692
vn 0.2350065 0.7574241 -0.6091639
vn -0.2248742 0.2909882 -0.9299234
vn -0.6940517 0.3168395 -0.6464557
vn -0.4207647 0.7769883 -0.4682373
vn -0.2248742 0.2909882 -0.9299234
vn -0.4207647 0.7769883 -0.4682373
vn -0.1072354 0.7502766 -0.6523692
vn -0.6940517 0.3168395 -0.6464557
vn -0.9400428 0.3391717 -0.0358073
vn -0.5892098 0.8035147 -0.0848293
vn -0.6940517 0.3168395 -0.6464557
vn -0.5892098 0.8035147 -0.0848293
vn -0.4207647 0.7769883 -0.4682373
vn -0.9400428 0.3391717 -0.0358073
vn -0.7343817 0.3201357 0.5984953
vn -0.5094962 0.7899699 0.3411175
vn -0.9400428 0.3391717 -0.0358073
vn -0.5094962 0.7899699 0.3411175
vn -0.5892098 0.8035147 -0.0848293
vn -0.7343817 0.3201357 0.5984953
vn -0.2750416 0.2925545 0.9158406
vn -0.2350065 0.7574241 0.6091639
vn -0.7343817 0.3201357 0.5984953
vn -0.2350065 0.7574241 0.6091639
vn -0.5094962 0.7899699 0.3411175
vn -0.2750416 0.2925545 0.9158406
vn 0.2248742 0.2909882 0.9299234
vn 0.1072354 0.7502766 0.6523692
vn -0.2750416 0.2925545 0.9158406
vn 0.1072354 0.7502766 0.6523692
vn -0.2350065 0.7574241 0.6091639
vn 0.2248742 0.2909882 0.9299234
vn 0.6940517 0.3168395 0.6464557
vn 0.4207647 0.7769883 0.4682373
vn 0.2248742 0.2909882 0.9299234
vn 0.4207647 0.7769883 0.4682373
vn 0.1072354 0.7502766 0.6523692
vn 0.6940517 0.3168395 0.6464557
vn 0.9400428 0.3391717 0.0358073
vn 0.5892098 0.8035147 0.0848293
vn 0.6940517 0.3168395 0.6464557
vn 0.5892098 0.8035147 0.0848293
vn 0.4207647 0.7769883 0.4682373
vn 0.5892098 0.8035147 0.0848293
vn 0.5094962 0.7899699 -0.3411175
vn -0.0000000 1.0000000 0.0000000
vn 0.5094962 0.7899699 -0.3411175
vn 0.2350065 0.7574241 -0.6091639
vn -0.0000000 1.0000000 0.0000000
vn 0.2350065 0.7574241 -0.6091639
vn -0.1072354 0.7502766 -0.6523692
vn -0.0000000 1.0000000 0.0000000
vn -0.1072354 0.7502766 -0.6523692
vn -0.4207647 0.7769883 -0.4682373
vn -0.0000000 1.0000000 0.0000000
vn -0.4207647 0.7769883 -0.4682373
vn -0.5892098 0.8035147 -0.0848293
vn -0.0000000 1.0000000 0.0000000
vn -0.5892098 0.8035147 -0.0848293
vn -0.5094962 0.7899699 0.3411175
vn -0.0000000 1.0000000 0.0000000
vn -0.5094962 0.7899699 0.3411175
vn -0.2350065 0.7574241 0.6091639
vn -0.0000000 1.0000000 0.0000000
vn -0.2350065 0.7574241 0.6091639
vn 0.1072354 0.7502766 0.6523692
vn -0.0000000 1.0000000 0.0000000
vn 0.1072354 0.7502766 0.6523692
vn 0.4207647 0.7769883 0.4682373
vn -0.0000000 1.0000000 0.0000000
vn 0.4207647 0.7769883 0.4682373
vn 0.5892098 0.8035147 0.0848293
vn -0.0000000 1.0000000 0.0000000
f 1/1/1 2/2/2 3/3/3
f 4/4/4 5/5/5 6/6/6
f 7/7/7 8/8/8 9/9/9
f 10/10/10 11/11/11 12/12/12
f 13/13/13 14/14/14 15/15/15
f 16/16/16 17/17/17 18/18/18
f 19/19/19 20/20/20 21/21/21
f 22/22/22 23/23/23 24/24/24
f 25/25/25 26/26/26 27/27/27
f 28/28/28 29/29/29 30/30/30
f 31/31/31 32/32/32 33/33/33
f 34/34/34 35/35/35 36/36/36
f 37/37/37 38/38/38 39/39/39
f 40/40/40 41/41/41 42/42/42
f 43/43/43 44/44/44 45/45/45
f 46/46/46 47/47/47 48/48/48
f 49/49/49 50/50/50 51/51/51
f 52/52/52 53/53/53 54/54/54
f 55/55/55 56/56/56 57/57/57
f 58/58/58 59/59/59 60/60/60
f 61/61/61 62/62/62 63/63/63
f 64/64/64 65/65/65 66/66/66
f 67/67/67 68/68/68 69/69/69
f 70/70/70 71/71/71 72/72/72
f 73/73/73 74/74/74 75/75/75
f 76/76/76 77/77/77 78/78/78
f 79/79/79 80/80/80 81/81/81
f 82/82/82 83/83/83 84/84/84
f 85/85/85 86/86/86 87/87/87
f 88/88/88 89/89/89 90/90/90
f 91/91/91 92/92/92 93/93/93
f 94/94/94 95/95/95 96/96/96
f 97/97/97 98/98/98 99/99/99
f 100/100/100 101/101/101 102/102/102
f 103/103/103 104/104/104 105/105/105
f 106/106/106 107/107/107 108/108/108
f 109/109/109 110/110/110 111/111/111
f 112/112/112 113/113/113 114/114/114
f 115/115/115 116/116/116 117/117/117
f 118/118/118 119/119/119 120/120/120
f 121/121/121 122/122/122 123/123/123
f 124/124/124 125/125/125 126/126/126
f 127/127/127 128/128/128 129/129/129
f 130/130/130 131/131/131 132/132/132
f 133/133/133 134/134/134 135/135/135
f 136/136/136 137/137/137 138/138/138
f 139/139/139 140/140/140 141/141/141
f 142/142/142 143/143/143 144/144/144
f 145/145/145 146/146/146 147/147/147
f 148/148/148 149/149/149 150/150/150
f 151/151/151 152/152/152 153/153/153
f 154/154/154 155/155/155 156/156/156
f 157/157/157 158/158/158 159/159/159
f 160/160/160 161/161/161 162/162/162
f 163/163/163 164/164/164 165/165/165
f 166/166/166 167/167/167 168/168/168
f 169/169/169 170/170/170 171/171/171
f 172/172/172 173/173/173 174/174/174
f 175/175/175 176/176/176 177/177/177
f 178/178/178 179/179/179 180/180/180
f 181/181/181 182/182/182 183/183/183
f 184/184/184 185/185/185 186/186/186
f 187/187/187 188/188/188 189/189/189
f 190/190/190 191/191/191 192/192/192
f 193/193/193 194/194/194 195/195/195
f 196/196/196 197/197/197 198/198/198
f 199/199/199 200/200/200 201/201/201
f 202/202/202 203/203/203 204/204/204
f 205/205/205 206/206/206 207/207/207
f 208/208/208 209/209/209 210/210/210
f 211/211/211 212/212/212 213/213/213
f 214/214/214 215/215/215 216/216/216
f 217/217/217 218/218/218 219/219/219
f 220/220/220 221/221/221 222/222/222
f 223/223/223 224/224/224 225/225/225
f 226/226/226 227/227/227 228/228/228
f 229/229/229 230/230/230 231/231/231
f 232/232/232 233/233/233 234/234/234
f 235/235/235 236/236/236 237/237/237
f 238/238/238 239/239/239 240/240/240
