# Original Project Broom pickup; OBJ Y up; CC-BY-SA-4.0
o Worn_iron_bow
v -1.106844 0.928398 -0.104421
v -1.503422 0.235578 -0.052210
v -2.296578 0.235578 0.052210
v -2.693156 0.928398 0.104421
v -2.296578 1.621218 0.052210
v -1.503422 1.621218 -0.052210
v -1.106844 0.928398 -0.104421
v -1.256741 0.928398 -1.190568
v -1.643112 0.235578 -1.087040
v -2.415852 0.235578 -0.879985
v -2.802223 0.928398 -0.776457
v -2.415852 1.621218 -0.879985
v -1.643112 1.621218 -1.087040
v -1.256741 0.928398 -1.190568
v -1.716283 0.928398 -2.300000
v -2.062693 0.235578 -2.100000
v -2.755514 0.235578 -1.700000
v -3.101924 0.928398 -1.500000
v -2.755514 1.621218 -1.700000
v -2.062693 1.621218 -2.100000
v -1.716283 0.928398 -2.300000
v -2.447309 0.928398 -3.252691
v -2.730152 0.235578 -2.969848
v -3.295837 0.235578 -2.404163
v -3.578680 0.928398 -2.121320
v -3.295837 1.621218 -2.404163
v -2.730152 1.621218 -2.969848
v -2.447309 0.928398 -3.252691
v -3.400000 0.928398 -3.983717
v -3.600000 0.235578 -3.637307
v -4.000000 0.235578 -2.944486
v -4.200000 0.928398 -2.598076
v -4.000000 1.621218 -2.944486
v -3.600000 1.621218 -3.637307
v -3.400000 0.928398 -3.983717
v -4.509432 0.928398 -4.443259
v -4.612960 0.235578 -4.056888
v -4.820015 0.235578 -3.284148
v -4.923543 0.928398 -2.897777
v -4.820015 1.621218 -3.284148
v -4.612960 1.621218 -4.056888
v -4.509432 0.928398 -4.443259
v -5.700000 0.928398 -4.600000
v -5.700000 0.235578 -4.200000
v -5.700000 0.235578 -3.400000
v -5.700000 0.928398 -3.000000
v -5.700000 1.621218 -3.400000
v -5.700000 1.621218 -4.200000
v -5.700000 0.928398 -4.600000
v -6.890568 0.928398 -4.443259
v -6.787040 0.235578 -4.056888
v -6.579985 0.235578 -3.284148
v -6.476457 0.928398 -2.897777
v -6.579985 1.621218 -3.284148
v -6.787040 1.621218 -4.056888
v -6.890568 0.928398 -4.443259
v -8.000000 0.928398 -3.983717
v -7.800000 0.235578 -3.637307
v -7.400000 0.235578 -2.944486
v -7.200000 0.928398 -2.598076
v -7.400000 1.621218 -2.944486
v -7.800000 1.621218 -3.637307
v -8.000000 0.928398 -3.983717
v -8.952691 0.928398 -3.252691
v -8.669848 0.235578 -2.969848
v -8.104163 0.235578 -2.404163
v -7.821320 0.928398 -2.121320
v -8.104163 1.621218 -2.404163
v -8.669848 1.621218 -2.969848
v -8.952691 0.928398 -3.252691
v -9.683717 0.928398 -2.300000
v -9.337307 0.235578 -2.100000
v -8.644486 0.235578 -1.700000
v -8.298076 0.928398 -1.500000
v -8.644486 1.621218 -1.700000
v -9.337307 1.621218 -2.100000
v -9.683717 0.928398 -2.300000
v -10.143259 0.928398 -1.190568
v -9.756888 0.235578 -1.087040
v -8.984148 0.235578 -0.879985
v -8.597777 0.928398 -0.776457
v -8.984148 1.621218 -0.879985
v -9.756888 1.621218 -1.087040
v -10.143259 0.928398 -1.190568
v -10.300000 0.928398 -0.000000
v -9.900000 0.235578 -0.000000
v -9.100000 0.235578 -0.000000
v -8.700000 0.928398 -0.000000
v -9.100000 1.621218 -0.000000
v -9.900000 1.621218 -0.000000
v -10.300000 0.928398 -0.000000
v -10.143259 0.928398 1.190568
v -9.756888 0.235578 1.087040
v -8.984148 0.235578 0.879985
v -8.597777 0.928398 0.776457
v -8.984148 1.621218 0.879985
v -9.756888 1.621218 1.087040
v -10.143259 0.928398 1.190568
v -9.683717 0.928398 2.300000
v -9.337307 0.235578 2.100000
v -8.644486 0.235578 1.700000
v -8.298076 0.928398 1.500000
v -8.644486 1.621218 1.700000
v -9.337307 1.621218 2.100000
v -9.683717 0.928398 2.300000
v -8.952691 0.928398 3.252691
v -8.669848 0.235578 2.969848
v -8.104163 0.235578 2.404163
v -7.821320 0.928398 2.121320
v -8.104163 1.621218 2.404163
v -8.669848 1.621218 2.969848
v -8.952691 0.928398 3.252691
v -8.000000 0.928398 3.983717
v -7.800000 0.235578 3.637307
v -7.400000 0.235578 2.944486
v -7.200000 0.928398 2.598076
v -7.400000 1.621218 2.944486
v -7.800000 1.621218 3.637307
v -8.000000 0.928398 3.983717
v -6.890568 0.928398 4.443259
v -6.787040 0.235578 4.056888
v -6.579985 0.235578 3.284148
v -6.476457 0.928398 2.897777
v -6.579985 1.621218 3.284148
v -6.787040 1.621218 4.056888
v -6.890568 0.928398 4.443259
v -5.700000 0.928398 4.600000
v -5.700000 0.235578 4.200000
v -5.700000 0.235578 3.400000
v -5.700000 0.928398 3.000000
v -5.700000 1.621218 3.400000
v -5.700000 1.621218 4.200000
v -5.700000 0.928398 4.600000
v -4.509432 0.928398 4.443259
v -4.612960 0.235578 4.056888
v -4.820015 0.235578 3.284148
v -4.923543 0.928398 2.897777
v -4.820015 1.621218 3.284148
v -4.612960 1.621218 4.056888
v -4.509432 0.928398 4.443259
v -3.400000 0.928398 3.983717
v -3.600000 0.235578 3.637307
v -4.000000 0.235578 2.944486
v -4.200000 0.928398 2.598076
v -4.000000 1.621218 2.944486
v -3.600000 1.621218 3.637307
v -3.400000 0.928398 3.983717
v -2.447309 0.928398 3.252691
v -2.730152 0.235578 2.969848
v -3.295837 0.235578 2.404163
v -3.578680 0.928398 2.121320
v -3.295837 1.621218 2.404163
v -2.730152 1.621218 2.969848
v -2.447309 0.928398 3.252691
v -1.716283 0.928398 2.300000
v -2.062693 0.235578 2.100000
v -2.755514 0.235578 1.700000
v -3.101924 0.928398 1.500000
v -2.755514 1.621218 1.700000
v -2.062693 1.621218 2.100000
v -1.716283 0.928398 2.300000
v -1.256741 0.928398 1.190568
v -1.643112 0.235578 1.087040
v -2.415852 0.235578 0.879985
v -2.802223 0.928398 0.776457
v -2.415852 1.621218 0.879985
v -1.643112 1.621218 1.087040
v -1.256741 0.928398 1.190568
v -1.106844 0.928398 0.104421
v -1.503422 0.235578 0.052210
v -2.296578 0.235578 -0.052210
v -2.693156 0.928398 -0.104421
v -2.296578 1.621218 -0.052210
v -1.503422 1.621218 0.052210
v -1.106844 0.928398 0.104421
v -1.900000 0.928398 -0.000000
v -1.900000 0.928398 0.000000
vt 0.0087500 0.9912500
vt 0.0475000 0.9912500
vt 0.0862500 0.9912500
vt 0.1250000 0.9912500
vt 0.1637500 0.9912500
vt 0.2025000 0.9912500
vt 0.2412500 0.9912500
vt 0.0087500 0.9815625
vt 0.0475000 0.9815625
vt 0.0862500 0.9815625
vt 0.1250000 0.9815625
vt 0.1637500 0.9815625
vt 0.2025000 0.9815625
vt 0.2412500 0.9815625
vt 0.0087500 0.9718750
vt 0.0475000 0.9718750
vt 0.0862500 0.9718750
vt 0.1250000 0.9718750
vt 0.1637500 0.9718750
vt 0.2025000 0.9718750
vt 0.2412500 0.9718750
vt 0.0087500 0.9621875
vt 0.0475000 0.9621875
vt 0.0862500 0.9621875
vt 0.1250000 0.9621875
vt 0.1637500 0.9621875
vt 0.2025000 0.9621875
vt 0.2412500 0.9621875
vt 0.0087500 0.9525000
vt 0.0475000 0.9525000
vt 0.0862500 0.9525000
vt 0.1250000 0.9525000
vt 0.1637500 0.9525000
vt 0.2025000 0.9525000
vt 0.2412500 0.9525000
vt 0.0087500 0.9428125
vt 0.0475000 0.9428125
vt 0.0862500 0.9428125
vt 0.1250000 0.9428125
vt 0.1637500 0.9428125
vt 0.2025000 0.9428125
vt 0.2412500 0.9428125
vt 0.0087500 0.9331250
vt 0.0475000 0.9331250
vt 0.0862500 0.9331250
vt 0.1250000 0.9331250
vt 0.1637500 0.9331250
vt 0.2025000 0.9331250
vt 0.2412500 0.9331250
vt 0.0087500 0.9234375
vt 0.0475000 0.9234375
vt 0.0862500 0.9234375
vt 0.1250000 0.9234375
vt 0.1637500 0.9234375
vt 0.2025000 0.9234375
vt 0.2412500 0.9234375
vt 0.0087500 0.9137500
vt 0.0475000 0.9137500
vt 0.0862500 0.9137500
vt 0.1250000 0.9137500
vt 0.1637500 0.9137500
vt 0.2025000 0.9137500
vt 0.2412500 0.9137500
vt 0.0087500 0.9040625
vt 0.0475000 0.9040625
vt 0.0862500 0.9040625
vt 0.1250000 0.9040625
vt 0.1637500 0.9040625
vt 0.2025000 0.9040625
vt 0.2412500 0.9040625
vt 0.0087500 0.8943750
vt 0.0475000 0.8943750
vt 0.0862500 0.8943750
vt 0.1250000 0.8943750
vt 0.1637500 0.8943750
vt 0.2025000 0.8943750
vt 0.2412500 0.8943750
vt 0.0087500 0.8846875
vt 0.0475000 0.8846875
vt 0.0862500 0.8846875
vt 0.1250000 0.8846875
vt 0.1637500 0.8846875
vt 0.2025000 0.8846875
vt 0.2412500 0.8846875
vt 0.0087500 0.8750000
vt 0.0475000 0.8750000
vt 0.0862500 0.8750000
vt 0.1250000 0.8750000
vt 0.1637500 0.8750000
vt 0.2025000 0.8750000
vt 0.2412500 0.8750000
vt 0.0087500 0.8653125
vt 0.0475000 0.8653125
vt 0.0862500 0.8653125
vt 0.1250000 0.8653125
vt 0.1637500 0.8653125
vt 0.2025000 0.8653125
vt 0.2412500 0.8653125
vt 0.0087500 0.8556250
vt 0.0475000 0.8556250
vt 0.0862500 0.8556250
vt 0.1250000 0.8556250
vt 0.1637500 0.8556250
vt 0.2025000 0.8556250
vt 0.2412500 0.8556250
vt 0.0087500 0.8459375
vt 0.0475000 0.8459375
vt 0.0862500 0.8459375
vt 0.1250000 0.8459375
vt 0.1637500 0.8459375
vt 0.2025000 0.8459375
vt 0.2412500 0.8459375
vt 0.0087500 0.8362500
vt 0.0475000 0.8362500
vt 0.0862500 0.8362500
vt 0.1250000 0.8362500
vt 0.1637500 0.8362500
vt 0.2025000 0.8362500
vt 0.2412500 0.8362500
vt 0.0087500 0.8265625
vt 0.0475000 0.8265625
vt 0.0862500 0.8265625
vt 0.1250000 0.8265625
vt 0.1637500 0.8265625
vt 0.2025000 0.8265625
vt 0.2412500 0.8265625
vt 0.0087500 0.8168750
vt 0.0475000 0.8168750
vt 0.0862500 0.8168750
vt 0.1250000 0.8168750
vt 0.1637500 0.8168750
vt 0.2025000 0.8168750
vt 0.2412500 0.8168750
vt 0.0087500 0.8071875
vt 0.0475000 0.8071875
vt 0.0862500 0.8071875
vt 0.1250000 0.8071875
vt 0.1637500 0.8071875
vt 0.2025000 0.8071875
vt 0.2412500 0.8071875
vt 0.0087500 0.7975000
vt 0.0475000 0.7975000
vt 0.0862500 0.7975000
vt 0.1250000 0.7975000
vt 0.1637500 0.7975000
vt 0.2025000 0.7975000
vt 0.2412500 0.7975000
vt 0.0087500 0.7878125
vt 0.0475000 0.7878125
vt 0.0862500 0.7878125
vt 0.1250000 0.7878125
vt 0.1637500 0.7878125
vt 0.2025000 0.7878125
vt 0.2412500 0.7878125
vt 0.0087500 0.7781250
vt 0.0475000 0.7781250
vt 0.0862500 0.7781250
vt 0.1250000 0.7781250
vt 0.1637500 0.7781250
vt 0.2025000 0.7781250
vt 0.2412500 0.7781250
vt 0.0087500 0.7684375
vt 0.0475000 0.7684375
vt 0.0862500 0.7684375
vt 0.1250000 0.7684375
vt 0.1637500 0.7684375
vt 0.2025000 0.7684375
vt 0.2412500 0.7684375
vt 0.0087500 0.7587500
vt 0.0475000 0.7587500
vt 0.0862500 0.7587500
vt 0.1250000 0.7587500
vt 0.1637500 0.7587500
vt 0.2025000 0.7587500
vt 0.2412500 0.7587500
vt 0.1250000 0.8750000
vt 0.1250000 0.8750000
vn 0.9352105 -0.1637114 0.3139745
vn 0.3596637 -0.8340384 0.4183561
vn -0.4968292 -0.6613023 0.5619965
vn -0.7794345 0.1686413 0.6033590
vn -0.2141861 0.8361054 0.5050268
vn 0.6450038 0.6746056 0.3589949
vn 0.9352105 -0.1637114 0.3139745
vn 0.9639135 -0.0037018 -0.2661898
vn 0.5038419 -0.8562385 -0.1140128
vn -0.4545826 -0.8797450 0.1392963
vn -0.9684346 -0.0067401 0.2491768
vn -0.4705417 0.8765201 0.1015039
vn 0.4948848 0.8541582 -0.1596958
vn 0.9639135 -0.0037018 -0.2661898
vn 0.8660254 -0.0000000 -0.5000000
vn 0.4658541 -0.8514713 -0.2407832
vn -0.3982444 -0.8820317 0.2518363
vn -0.8660254 -0.0000000 0.5000000
vn -0.4172188 0.8820317 0.2189716
vn 0.4414514 0.8514713 -0.2830498
vn 0.8660254 -0.0000000 -0.5000000
vn 0.7071068 -0.0000000 -0.7071068
vn 0.3876612 -0.8514713 -0.3531507
vn -0.3194945 -0.8820317 0.3463284
vn -0.7071068 -0.0000000 0.7071068
vn -0.3463284 0.8820317 0.3194945
vn 0.3531507 0.8514713 -0.3876612
vn 0.7071068 -0.0000000 -0.7071068
vn 0.5000000 0.0000000 -0.8660254
vn 0.2830498 -0.8514713 -0.4414514
vn -0.2189716 -0.8820317 0.4172188
vn -0.5000000 0.0000000 0.8660254
vn -0.2518363 0.8820317 0.3982444
vn 0.2407832 0.8514713 -0.4658541
vn 0.5000000 0.0000000 -0.8660254
vn 0.2588190 0.0000000 -0.9659258
vn 0.1591491 -0.8514713 -0.4996680
vn -0.1035262 -0.8820317 0.4596765
vn -0.2588190 -0.0000000 0.9659258
vn -0.1401819 0.8820317 0.4498546
vn 0.1120069 0.8514713 -0.5122998
vn 0.2588190 0.0000000 -0.9659258
vn -0.0000000 0.0000000 -1.0000000
vn 0.0244026 -0.8514713 -0.5238331
vn 0.0189744 -0.8820317 0.4708079
vn -0.0000000 -0.0000000 1.0000000
vn -0.0189744 0.8820317 0.4708079
vn -0.0244026 0.8514713 -0.5238331
vn -0.0000000 0.0000000 -1.0000000
vn -0.2588190 -0.0000000 -0.9659258
vn -0.1120069 -0.8514713 -0.5122998
vn 0.1401819 -0.8820317 0.4498546
vn 0.2588190 0.0000000 0.9659258
vn 0.1035262 0.8820317 0.4596765
vn -0.1591491 0.8514713 -0.4996680
vn -0.2588190 -0.0000000 -0.9659258
vn -0.5000000 -0.0000000 -0.8660254
vn -0.2407832 -0.8514713 -0.4658541
vn 0.2518363 -0.8820317 0.3982444
vn 0.5000000 -0.0000000 0.8660254
vn 0.2189716 0.8820317 0.4172188
vn -0.2830498 0.8514713 -0.4414514
vn -0.5000000 -0.0000000 -0.8660254
vn -0.7071068 0.0000000 -0.7071068
vn -0.3531507 -0.8514713 -0.3876612
vn 0.3463284 -0.8820317 0.3194945
vn 0.7071068 -0.0000000 0.7071068
vn 0.3194945 0.8820317 0.3463284
vn -0.3876612 0.8514713 -0.3531507
vn -0.7071068 0.0000000 -0.7071068
vn -0.8660254 0.0000000 -0.5000000
vn -0.4414514 -0.8514713 -0.2830498
vn 0.4172188 -0.8820317 0.2189716
vn 0.8660254 -0.0000000 0.5000000
vn 0.3982444 0.8820317 0.2518363
vn -0.4658541 0.8514713 -0.2407832
vn -0.8660254 0.0000000 -0.5000000
vn -0.9659258 -0.0000000 -0.2588190
vn -0.4996680 -0.8514713 -0.1591491
vn 0.4596765 -0.8820317 0.1035262
vn 0.9659258 -0.0000000 0.2588190
vn 0.4498546 0.8820317 0.1401819
vn -0.5122998 0.8514713 -0.1120069
vn -0.9659258 -0.0000000 -0.2588190
vn -1.0000000 0.0000000 0.0000000
vn -0.5238331 -0.8514713 -0.0244026
vn 0.4708079 -0.8820317 -0.0189744
vn 1.0000000 -0.0000000 -0.0000000
vn 0.4708079 0.8820317 0.0189744
vn -0.5238331 0.8514713 0.0244026
vn -1.0000000 0.0000000 0.0000000
vn -0.9659258 0.0000000 0.2588190
vn -0.5122998 -0.8514713 0.1120069
vn 0.4498546 -0.8820317 -0.1401819
vn 0.9659258 -0.0000000 -0.2588190
vn 0.4596765 0.8820317 -0.1035262
vn -0.4996680 0.8514713 0.1591491
vn -0.9659258 0.0000000 0.2588190
vn -0.8660254 0.0000000 0.5000000
vn -0.4658541 -0.8514713 0.2407832
vn 0.3982444 -0.8820317 -0.2518363
vn 0.8660254 -0.0000000 -0.5000000
vn 0.4172188 0.8820317 -0.2189716
vn -0.4414514 0.8514713 0.2830498
vn -0.8660254 0.0000000 0.5000000
vn -0.7071068 -0.0000000 0.7071068
vn -0.3876612 -0.8514713 0.3531507
vn 0.3194945 -0.8820317 -0.3463284
vn 0.7071068 -0.0000000 -0.7071068
vn 0.3463284 0.8820317 -0.3194945
vn -0.3531507 0.8514713 0.3876612
vn -0.7071068 -0.0000000 0.7071068
vn -0.5000000 -0.0000000 0.8660254
vn -0.2830498 -0.8514713 0.4414514
vn 0.2189716 -0.8820317 -0.4172188
vn 0.5000000 -0.0000000 -0.8660254
vn 0.2518363 0.8820317 -0.3982444
vn -0.2407832 0.8514713 0.4658541
vn -0.5000000 -0.0000000 0.8660254
vn -0.2588190 0.0000000 0.9659258
vn -0.1591491 -0.8514713 0.4996680
vn 0.1035262 -0.8820317 -0.4596765
vn 0.2588190 -0.0000000 -0.9659258
vn 0.1401819 0.8820317 -0.4498546
vn -0.1120069 0.8514713 0.5122998
vn -0.2588190 0.0000000 0.9659258
vn -0.0000000 -0.0000000 1.0000000
vn -0.0244026 -0.8514713 0.5238331
vn -0.0189744 -0.8820317 -0.4708079
vn 0.0000000 -0.0000000 -1.0000000
vn 0.0189744 0.8820317 -0.4708079
vn 0.0244026 0.8514713 0.5238331
vn -0.0000000 -0.0000000 1.0000000
vn 0.2588190 -0.0000000 0.9659258
vn 0.1120069 -0.8514713 0.5122998
vn -0.1401819 -0.8820317 -0.4498546
vn -0.2588190 0.0000000 -0.9659258
vn -0.1035262 0.8820317 -0.4596765
vn 0.1591491 0.8514713 0.4996680
vn 0.2588190 -0.0000000 0.9659258
vn 0.5000000 0.0000000 0.8660254
vn 0.2407832 -0.8514713 0.4658541
vn -0.2518363 -0.8820317 -0.3982444
vn -0.5000000 -0.0000000 -0.8660254
vn -0.2189716 0.8820317 -0.4172188
vn 0.2830498 0.8514713 0.4414514
vn 0.5000000 0.0000000 0.8660254
vn 0.7071068 -0.0000000 0.7071068
vn 0.3531507 -0.8514713 0.3876612
vn -0.3463284 -0.8820317 -0.3194945
vn -0.7071068 -0.0000000 -0.7071068
vn -0.3194945 0.8820317 -0.3463284
vn 0.3876612 0.8514713 0.3531507
vn 0.7071068 -0.0000000 0.7071068
vn 0.8660254 -0.0000000 0.5000000
vn 0.4414514 -0.8514713 0.2830498
vn -0.4172188 -0.8820317 -0.2189716
vn -0.8660254 -0.0000000 -0.5000000
vn -0.3982444 0.8820317 -0.2518363
vn 0.4658541 0.8514713 0.2407832
vn 0.8660254 -0.0000000 0.5000000
vn 0.9639135 0.0037018 0.2661898
vn 0.4948848 -0.8541582 0.1596958
vn -0.4705417 -0.8765201 -0.1015039
vn -0.9684346 0.0067401 -0.2491768
vn -0.4545826 0.8797450 -0.1392963
vn 0.5038419 0.8562385 0.1140128
vn 0.9639135 0.0037018 0.2661898
vn 0.9352105 0.1637114 -0.3139745
vn 0.6450038 -0.6746056 -0.3589949
vn -0.2141861 -0.8361054 -0.5050268
vn -0.7794345 -0.1686413 -0.6033590
vn -0.4968292 0.6613023 -0.5619965
vn 0.3596637 0.8340384 -0.4183561
vn 0.9352105 0.1637114 -0.3139745
vn 1.0000000 -0.0000000 0.0000000
vn 1.0000000 -0.0000000 0.0000000
f 1/1/1 2/2/2 9/9/9
f 1/1/1 9/9/9 8/8/8
f 2/2/2 3/3/3 10/10/10
f 2/2/2 10/10/10 9/9/9
f 3/3/3 4/4/4 11/11/11
f 3/3/3 11/11/11 10/10/10
f 4/4/4 5/5/5 12/12/12
f 4/4/4 12/12/12 11/11/11
f 5/5/5 6/6/6 13/13/13
f 5/5/5 13/13/13 12/12/12
f 6/6/6 7/7/7 14/14/14
f 6/6/6 14/14/14 13/13/13
f 8/8/8 9/9/9 16/16/16
f 8/8/8 16/16/16 15/15/15
f 9/9/9 10/10/10 17/17/17
f 9/9/9 17/17/17 16/16/16
f 10/10/10 11/11/11 18/18/18
f 10/10/10 18/18/18 17/17/17
f 11/11/11 12/12/12 19/19/19
f 11/11/11 19/19/19 18/18/18
f 12/12/12 13/13/13 20/20/20
f 12/12/12 20/20/20 19/19/19
f 13/13/13 14/14/14 21/21/21
f 13/13/13 21/21/21 20/20/20
f 15/15/15 16/16/16 23/23/23
f 15/15/15 23/23/23 22/22/22
f 16/16/16 17/17/17 24/24/24
f 16/16/16 24/24/24 23/23/23
f 17/17/17 18/18/18 25/25/25
f 17/17/17 25/25/25 24/24/24
f 18/18/18 19/19/19 26/26/26
f 18/18/18 26/26/26 25/25/25
f 19/19/19 20/20/20 27/27/27
f 19/19/19 27/27/27 26/26/26
f 20/20/20 21/21/21 28/28/28
f 20/20/20 28/28/28 27/27/27
f 22/22/22 23/23/23 30/30/30
f 22/22/22 30/30/30 29/29/29
f 23/23/23 24/24/24 31/31/31
f 23/23/23 31/31/31 30/30/30
f 24/24/24 25/25/25 32/32/32
f 24/24/24 32/32/32 31/31/31
f 25/25/25 26/26/26 33/33/33
f 25/25/25 33/33/33 32/32/32
f 26/26/26 27/27/27 34/34/34
f 26/26/26 34/34/34 33/33/33
f 27/27/27 28/28/28 35/35/35
f 27/27/27 35/35/35 34/34/34
f 29/29/29 30/30/30 37/37/37
f 29/29/29 37/37/37 36/36/36
f 30/30/30 31/31/31 38/38/38
f 30/30/30 38/38/38 37/37/37
f 31/31/31 32/32/32 39/39/39
f 31/31/31 39/39/39 38/38/38
f 32/32/32 33/33/33 40/40/40
f 32/32/32 40/40/40 39/39/39
f 33/33/33 34/34/34 41/41/41
f 33/33/33 41/41/41 40/40/40
f 34/34/34 35/35/35 42/42/42
f 34/34/34 42/42/42 41/41/41
f 36/36/36 37/37/37 44/44/44
f 36/36/36 44/44/44 43/43/43
f 37/37/37 38/38/38 45/45/45
f 37/37/37 45/45/45 44/44/44
f 38/38/38 39/39/39 46/46/46
f 38/38/38 46/46/46 45/45/45
f 39/39/39 40/40/40 47/47/47
f 39/39/39 47/47/47 46/46/46
f 40/40/40 41/41/41 48/48/48
f 40/40/40 48/48/48 47/47/47
f 41/41/41 42/42/42 49/49/49
f 41/41/41 49/49/49 48/48/48
f 43/43/43 44/44/44 51/51/51
f 43/43/43 51/51/51 50/50/50
f 44/44/44 45/45/45 52/52/52
f 44/44/44 52/52/52 51/51/51
f 45/45/45 46/46/46 53/53/53
f 45/45/45 53/53/53 52/52/52
f 46/46/46 47/47/47 54/54/54
f 46/46/46 54/54/54 53/53/53
f 47/47/47 48/48/48 55/55/55
f 47/47/47 55/55/55 54/54/54
f 48/48/48 49/49/49 56/56/56
f 48/48/48 56/56/56 55/55/55
f 50/50/50 51/51/51 58/58/58
f 50/50/50 58/58/58 57/57/57
f 51/51/51 52/52/52 59/59/59
f 51/51/51 59/59/59 58/58/58
f 52/52/52 53/53/53 60/60/60
f 52/52/52 60/60/60 59/59/59
f 53/53/53 54/54/54 61/61/61
f 53/53/53 61/61/61 60/60/60
f 54/54/54 55/55/55 62/62/62
f 54/54/54 62/62/62 61/61/61
f 55/55/55 56/56/56 63/63/63
f 55/55/55 63/63/63 62/62/62
f 57/57/57 58/58/58 65/65/65
f 57/57/57 65/65/65 64/64/64
f 58/58/58 59/59/59 66/66/66
f 58/58/58 66/66/66 65/65/65
f 59/59/59 60/60/60 67/67/67
f 59/59/59 67/67/67 66/66/66
f 60/60/60 61/61/61 68/68/68
f 60/60/60 68/68/68 67/67/67
f 61/61/61 62/62/62 69/69/69
f 61/61/61 69/69/69 68/68/68
f 62/62/62 63/63/63 70/70/70
f 62/62/62 70/70/70 69/69/69
f 64/64/64 65/65/65 72/72/72
f 64/64/64 72/72/72 71/71/71
f 65/65/65 66/66/66 73/73/73
f 65/65/65 73/73/73 72/72/72
f 66/66/66 67/67/67 74/74/74
f 66/66/66 74/74/74 73/73/73
f 67/67/67 68/68/68 75/75/75
f 67/67/67 75/75/75 74/74/74
f 68/68/68 69/69/69 76/76/76
f 68/68/68 76/76/76 75/75/75
f 69/69/69 70/70/70 77/77/77
f 69/69/69 77/77/77 76/76/76
f 71/71/71 72/72/72 79/79/79
f 71/71/71 79/79/79 78/78/78
f 72/72/72 73/73/73 80/80/80
f 72/72/72 80/80/80 79/79/79
f 73/73/73 74/74/74 81/81/81
f 73/73/73 81/81/81 80/80/80
f 74/74/74 75/75/75 82/82/82
f 74/74/74 82/82/82 81/81/81
f 75/75/75 76/76/76 83/83/83
f 75/75/75 83/83/83 82/82/82
f 76/76/76 77/77/77 84/84/84
f 76/76/76 84/84/84 83/83/83
f 78/78/78 79/79/79 86/86/86
f 78/78/78 86/86/86 85/85/85
f 79/79/79 80/80/80 87/87/87
f 79/79/79 87/87/87 86/86/86
f 80/80/80 81/81/81 88/88/88
f 80/80/80 88/88/88 87/87/87
f 81/81/81 82/82/82 89/89/89
f 81/81/81 89/89/89 88/88/88
f 82/82/82 83/83/83 90/90/90
f 82/82/82 90/90/90 89/89/89
f 83/83/83 84/84/84 91/91/91
f 83/83/83 91/91/91 90/90/90
f 85/85/85 86/86/86 93/93/93
f 85/85/85 93/93/93 92/92/92
f 86/86/86 87/87/87 94/94/94
f 86/86/86 94/94/94 93/93/93
f 87/87/87 88/88/88 95/95/95
f 87/87/87 95/95/95 94/94/94
f 88/88/88 89/89/89 96/96/96
f 88/88/88 96/96/96 95/95/95
f 89/89/89 90/90/90 97/97/97
f 89/89/89 97/97/97 96/96/96
f 90/90/90 91/91/91 98/98/98
f 90/90/90 98/98/98 97/97/97
f 92/92/92 93/93/93 100/100/100
f 92/92/92 100/100/100 99/99/99
f 93/93/93 94/94/94 101/101/101
f 93/93/93 101/101/101 100/100/100
f 94/94/94 95/95/95 102/102/102
f 94/94/94 102/102/102 101/101/101
f 95/95/95 96/96/96 103/103/103
f 95/95/95 103/103/103 102/102/102
f 96/96/96 97/97/97 104/104/104
f 96/96/96 104/104/104 103/103/103
f 97/97/97 98/98/98 105/105/105
f 97/97/97 105/105/105 104/104/104
f 99/99/99 100/100/100 107/107/107
f 99/99/99 107/107/107 106/106/106
f 100/100/100 101/101/101 108/108/108
f 100/100/100 108/108/108 107/107/107
f 101/101/101 102/102/102 109/109/109
f 101/101/101 109/109/109 108/108/108
f 102/102/102 103/103/103 110/110/110
f 102/102/102 110/110/110 109/109/109
f 103/103/103 104/104/104 111/111/111
f 103/103/103 111/111/111 110/110/110
f 104/104/104 105/105/105 112/112/112
f 104/104/104 112/112/112 111/111/111
f 106/106/106 107/107/107 114/114/114
f 106/106/106 114/114/114 113/113/113
f 107/107/107 108/108/108 115/115/115
f 107/107/107 115/115/115 114/114/114
f 108/108/108 109/109/109 116/116/116
f 108/108/108 116/116/116 115/115/115
f 109/109/109 110/110/110 117/117/117
f 109/109/109 117/117/117 116/116/116
f 110/110/110 111/111/111 118/118/118
f 110/110/110 118/118/118 117/117/117
f 111/111/111 112/112/112 119/119/119
f 111/111/111 119/119/119 118/118/118
f 113/113/113 114/114/114 121/121/121
f 113/113/113 121/121/121 120/120/120
f 114/114/114 115/115/115 122/122/122
f 114/114/114 122/122/122 121/121/121
f 115/115/115 116/116/116 123/123/123
f 115/115/115 123/123/123 122/122/122
f 116/116/116 117/117/117 124/124/124
f 116/116/116 124/124/124 123/123/123
f 117/117/117 118/118/118 125/125/125
f 117/117/117 125/125/125 124/124/124
f 118/118/118 119/119/119 126/126/126
f 118/118/118 126/126/126 125/125/125
f 120/120/120 121/121/121 128/128/128
f 120/120/120 128/128/128 127/127/127
f 121/121/121 122/122/122 129/129/129
f 121/121/121 129/129/129 128/128/128
f 122/122/122 123/123/123 130/130/130
f 122/122/122 130/130/130 129/129/129
f 123/123/123 124/124/124 131/131/131
f 123/123/123 131/131/131 130/130/130
f 124/124/124 125/125/125 132/132/132
f 124/124/124 132/132/132 131/131/131
f 125/125/125 126/126/126 133/133/133
f 125/125/125 133/133/133 132/132/132
f 127/127/127 128/128/128 135/135/135
f 127/127/127 135/135/135 134/134/134
f 128/128/128 129/129/129 136/136/136
f 128/128/128 136/136/136 135/135/135
f 129/129/129 130/130/130 137/137/137
f 129/129/129 137/137/137 136/136/136
f 130/130/130 131/131/131 138/138/138
f 130/130/130 138/138/138 137/137/137
f 131/131/131 132/132/132 139/139/139
f 131/131/131 139/139/139 138/138/138
f 132/132/132 133/133/133 140/140/140
f 132/132/132 140/140/140 139/139/139
f 134/134/134 135/135/135 142/142/142
f 134/134/134 142/142/142 141/141/141
f 135/135/135 136/136/136 143/143/143
f 135/135/135 143/143/143 142/142/142
f 136/136/136 137/137/137 144/144/144
f 136/136/136 144/144/144 143/143/143
f 137/137/137 138/138/138 145/145/145
f 137/137/137 145/145/145 144/144/144
f 138/138/138 139/139/139 146/146/146
f 138/138/138 146/146/146 145/145/145
f 139/139/139 140/140/140 147/147/147
f 139/139/139 147/147/147 146/146/146
f 141/141/141 142/142/142 149/149/149
f 141/141/141 149/149/149 148/148/148
f 142/142/142 143/143/143 150/150/150
f 142/142/142 150/150/150 149/149/149
f 143/143/143 144/144/144 151/151/151
f 143/143/143 151/151/151 150/150/150
f 144/144/144 145/145/145 152/152/152
f 144/144/144 152/152/152 151/151/151
f 145/145/145 146/146/146 153/153/153
f 145/145/145 153/153/153 152/152/152
f 146/146/146 147/147/147 154/154/154
f 146/146/146 154/154/154 153/153/153
f 148/148/148 149/149/149 156/156/156
f 148/148/148 156/156/156 155/155/155
f 149/149/149 150/150/150 157/157/157
f 149/149/149 157/157/157 156/156/156
f 150/150/150 151/151/151 158/158/158
f 150/150/150 158/158/158 157/157/157
f 151/151/151 152/152/152 159/159/159
f 151/151/151 159/159/159 158/158/158
f 152/152/152 153/153/153 160/160/160
f 152/152/152 160/160/160 159/159/159
f 153/153/153 154/154/154 161/161/161
f 153/153/153 161/161/161 160/160/160
f 155/155/155 156/156/156 163/163/163
f 155/155/155 163/163/163 162/162/162
f 156/156/156 157/157/157 164/164/164
f 156/156/156 164/164/164 163/163/163
f 157/157/157 158/158/158 165/165/165
f 157/157/157 165/165/165 164/164/164
f 158/158/158 159/159/159 166/166/166
f 158/158/158 166/166/166 165/165/165
f 159/159/159 160/160/160 167/167/167
f 159/159/159 167/167/167 166/166/166
f 160/160/160 161/161/161 168/168/168
f 160/160/160 168/168/168 167/167/167
f 162/162/162 163/163/163 170/170/170
f 162/162/162 170/170/170 169/169/169
f 163/163/163 164/164/164 171/171/171
f 163/163/163 171/171/171 170/170/170
f 164/164/164 165/165/165 172/172/172
f 164/164/164 172/172/172 171/171/171
f 165/165/165 166/166/166 173/173/173
f 165/165/165 173/173/173 172/172/172
f 166/166/166 167/167/167 174/174/174
f 166/166/166 174/174/174 173/173/173
f 167/167/167 168/168/168 175/175/175
f 167/167/167 175/175/175 174/174/174
f 176/176/176 2/2/2 1/1/1
f 176/176/176 3/3/3 2/2/2
f 176/176/176 4/4/4 3/3/3
f 176/176/176 5/5/5 4/4/4
f 176/176/176 6/6/6 5/5/5
f 176/176/176 7/7/7 6/6/6
f 177/177/177 169/169/169 170/170/170
f 177/177/177 170/170/170 171/171/171
f 177/177/177 171/171/171 172/172/172
f 177/177/177 172/172/172 173/173/173
f 177/177/177 173/173/173 174/174/174
f 177/177/177 174/174/174 175/175/175
o Forged_key_stem
v -2.700000 0.928398 0.850000
v -2.700000 0.428781 0.687664
v -2.700000 0.120000 0.262664
v -2.700000 0.120000 -0.262664
v -2.700000 0.428781 -0.687664
v -2.700000 0.928398 -0.850000
v -2.700000 1.428016 -0.687664
v -2.700000 1.736796 -0.262664
v -2.700000 1.736796 0.262664
v -2.700000 1.428016 0.687664
v -2.700000 0.928398 0.850000
v 10.300000 0.928398 0.700000
v 10.300000 0.516948 0.566312
v 10.300000 0.262658 0.216312
v 10.300000 0.262658 -0.216312
v 10.300000 0.516948 -0.566312
v 10.300000 0.928398 -0.700000
v 10.300000 1.339848 -0.566312
v 10.300000 1.594138 -0.216312
v 10.300000 1.594138 0.216312
v 10.300000 1.339848 0.566312
v 10.300000 0.928398 0.700000
v -2.700000 0.928398 -0.000000
v 10.300000 0.928398 -0.000000
vt 0.0087500 0.9912500
vt 0.0320000 0.9912500
vt 0.0552500 0.9912500
vt 0.0785000 0.9912500
vt 0.1017500 0.9912500
vt 0.1250000 0.9912500
vt 0.1482500 0.9912500
vt 0.1715000 0.9912500
vt 0.1947500 0.9912500
vt 0.2180000 0.9912500
vt 0.2412500 0.9912500
vt 0.0087500 0.7587500
vt 0.0320000 0.7587500
vt 0.0552500 0.7587500
vt 0.0785000 0.7587500
vt 0.1017500 0.7587500
vt 0.1250000 0.7587500
vt 0.1482500 0.7587500
vt 0.1715000 0.7587500
vt 0.1947500 0.7587500
vt 0.2180000 0.7587500
vt 0.2412500 0.7587500
vt 0.1250000 0.8750000
vt 0.1250000 0.8750000
vn -0.0345998 -0.0942890 0.9949434
vn -0.0345998 -0.6610945 0.7495044
vn -0.0345998 -0.9753843 0.2177802
vn -0.0345998 -0.9171105 -0.3971286
vn -0.0345998 -0.5085316 -0.8603479
vn -0.0345998 0.0942890 -0.9949434
vn -0.0345998 0.6610945 -0.7495044
vn -0.0345998 0.9753843 -0.2177802
vn -0.0345998 0.9171105 0.3971286
vn -0.0345998 0.5085316 0.8603479
vn -0.0345998 -0.0942890 0.9949434
vn 0.0446626 0.1217115 0.9915602
vn 0.0446626 -0.4843578 0.8737292
vn 0.0446626 -0.9054188 0.4221634
vn 0.0446626 -0.9806407 -0.1906545
vn 0.0446626 -0.6812911 -0.7306488
vn 0.0446626 -0.1217115 -0.9915602
vn 0.0446626 0.4843578 -0.8737292
vn 0.0446626 0.9054188 -0.4221634
vn 0.0446626 0.9806407 0.1906545
vn 0.0446626 0.6812911 0.7306488
vn 0.0446626 0.1217115 0.9915602
vn -1.0000000 0.0000000 -0.0000000
vn 1.0000000 0.0000000 -0.0000000
f 178/178/178 179/179/179 190/190/190
f 178/178/178 190/190/190 189/189/189
f 179/179/179 180/180/180 191/191/191
f 179/179/179 191/191/191 190/190/190
f 180/180/180 181/181/181 192/192/192
f 180/180/180 192/192/192 191/191/191
f 181/181/181 182/182/182 193/193/193
f 181/181/181 193/193/193 192/192/192
f 182/182/182 183/183/183 194/194/194
f 182/182/182 194/194/194 193/193/193
f 183/183/183 184/184/184 195/195/195
f 183/183/183 195/195/195 194/194/194
f 184/184/184 185/185/185 196/196/196
f 184/184/184 196/196/196 195/195/195
f 185/185/185 186/186/186 197/197/197
f 185/185/185 197/197/197 196/196/196
f 186/186/186 187/187/187 198/198/198
f 186/186/186 198/198/198 197/197/197
f 187/187/187 188/188/188 199/199/199
f 187/187/187 199/199/199 198/198/198
f 200/200/200 179/179/179 178/178/178
f 200/200/200 180/180/180 179/179/179
f 200/200/200 181/181/181 180/180/180
f 200/200/200 182/182/182 181/181/181
f 200/200/200 183/183/183 182/182/182
f 200/200/200 184/184/184 183/183/183
f 200/200/200 185/185/185 184/184/184
f 200/200/200 186/186/186 185/185/185
f 200/200/200 187/187/187 186/186/186
f 200/200/200 188/188/188 187/187/187
f 201/201/201 189/189/189 190/190/190
f 201/201/201 190/190/190 191/191/191
f 201/201/201 191/191/191 192/192/192
f 201/201/201 192/192/192 193/193/193
f 201/201/201 193/193/193 194/194/194
f 201/201/201 194/194/194 195/195/195
f 201/201/201 195/195/195 196/196/196
f 201/201/201 196/196/196 197/197/197
f 201/201/201 197/197/197 198/198/198
f 201/201/201 198/198/198 199/199/199
o Notched_iron_tooth
v 5.850000 0.928398 -0.000000
v 5.575000 0.452084 -0.000000
v 5.025000 0.452084 -0.000000
v 4.750000 0.928398 -0.000000
v 5.025000 1.404712 -0.000000
v 5.575000 1.404712 -0.000000
v 5.850000 0.928398 -0.000000
v 5.850000 0.928398 -2.200000
v 5.575000 0.452084 -2.200000
v 5.025000 0.452084 -2.200000
v 4.750000 0.928398 -2.200000
v 5.025000 1.404712 -2.200000
v 5.575000 1.404712 -2.200000
v 5.850000 0.928398 -2.200000
v 5.300000 0.928398 -0.000000
v 5.300000 0.928398 -2.200000
vt 0.0087500 0.9912500
vt 0.0475000 0.9912500
vt 0.0862500 0.9912500
vt 0.1250000 0.9912500
vt 0.1637500 0.9912500
vt 0.2025000 0.9912500
vt 0.2412500 0.9912500
vt 0.0087500 0.7587500
vt 0.0475000 0.7587500
vt 0.0862500 0.7587500
vt 0.1250000 0.7587500
vt 0.1637500 0.7587500
vt 0.2025000 0.7587500
vt 0.2412500 0.7587500
vt 0.1250000 0.8750000
vt 0.1250000 0.8750000
vn 0.9690874 -0.1865010 0.1615146
vn 0.3230291 -0.9325048 0.1615146
vn -0.6460583 -0.7460038 0.1615146
vn -0.9690874 0.1865010 0.1615146
vn -0.3230291 0.9325048 0.1615146
vn 0.6460583 0.7460038 0.1615146
vn 0.9690874 -0.1865010 0.1615146
vn 0.9690874 0.1865010 -0.1615146
vn 0.6460583 -0.7460038 -0.1615146
vn -0.3230291 -0.9325048 -0.1615146
vn -0.9690874 -0.1865010 -0.1615146
vn -0.6460583 0.7460038 -0.1615146
vn 0.3230291 0.9325048 -0.1615146
vn 0.9690874 0.1865010 -0.1615146
vn 0.0000000 0.0000000 1.0000000
vn 0.0000000 0.0000000 -1.0000000
f 202/202/202 203/203/203 210/210/210
f 202/202/202 210/210/210 209/209/209
f 203/203/203 204/204/204 211/211/211
f 203/203/203 211/211/211 210/210/210
f 204/204/204 205/205/205 212/212/212
f 204/204/204 212/212/212 211/211/211
f 205/205/205 206/206/206 213/213/213
f 205/205/205 213/213/213 212/212/212
f 206/206/206 207/207/207 214/214/214
f 206/206/206 214/214/214 213/213/213
f 207/207/207 208/208/208 215/215/215
f 207/207/207 215/215/215 214/214/214
f 216/216/216 203/203/203 202/202/202
f 216/216/216 204/204/204 203/203/203
f 216/216/216 205/205/205 204/204/204
f 216/216/216 206/206/206 205/205/205
f 216/216/216 207/207/207 206/206/206
f 216/216/216 208/208/208 207/207/207
f 217/217/217 209/209/209 210/210/210
f 217/217/217 210/210/210 211/211/211
f 217/217/217 211/211/211 212/212/212
f 217/217/217 212/212/212 213/213/213
f 217/217/217 213/213/213 214/214/214
f 217/217/217 214/214/214 215/215/215
o Notched_iron_tooth
v 7.650000 0.928398 -0.000000
v 7.375000 0.452084 -0.000000
v 6.825000 0.452084 -0.000000
v 6.550000 0.928398 -0.000000
v 6.825000 1.404712 -0.000000
v 7.375000 1.404712 -0.000000
v 7.650000 0.928398 -0.000000
v 7.650000 0.928398 -2.750000
v 7.375000 0.452084 -2.750000
v 6.825000 0.452084 -2.750000
v 6.550000 0.928398 -2.750000
v 6.825000 1.404712 -2.750000
v 7.375000 1.404712 -2.750000
v 7.650000 0.928398 -2.750000
v 7.100000 0.928398 -0.000000
v 7.100000 0.928398 -2.750000
vt 0.0087500 0.9912500
vt 0.0475000 0.9912500
vt 0.0862500 0.9912500
vt 0.1250000 0.9912500
vt 0.1637500 0.9912500
vt 0.2025000 0.9912500
vt 0.2412500 0.9912500
vt 0.0087500 0.7587500
vt 0.0475000 0.7587500
vt 0.0862500 0.7587500
vt 0.1250000 0.7587500
vt 0.1637500 0.7587500
vt 0.2025000 0.7587500
vt 0.2412500 0.7587500
vt 0.1250000 0.8750000
vt 0.1250000 0.8750000
vn 0.9736702 -0.1873829 0.1298227
vn 0.3245567 -0.9369146 0.1298227
vn -0.6491135 -0.7495317 0.1298227
vn -0.9736702 0.1873829 0.1298227
vn -0.3245567 0.9369146 0.1298227
vn 0.6491135 0.7495317 0.1298227
vn 0.9736702 -0.1873829 0.1298227
vn 0.9736702 0.1873829 -0.1298227
vn 0.6491135 -0.7495317 -0.1298227
vn -0.3245567 -0.9369146 -0.1298227
vn -0.9736702 -0.1873829 -0.1298227
vn -0.6491135 0.7495317 -0.1298227
vn 0.3245567 0.9369146 -0.1298227
vn 0.9736702 0.1873829 -0.1298227
vn 0.0000000 0.0000000 1.0000000
vn 0.0000000 0.0000000 -1.0000000
f 218/218/218 219/219/219 226/226/226
f 218/218/218 226/226/226 225/225/225
f 219/219/219 220/220/220 227/227/227
f 219/219/219 227/227/227 226/226/226
f 220/220/220 221/221/221 228/228/228
f 220/220/220 228/228/228 227/227/227
f 221/221/221 222/222/222 229/229/229
f 221/221/221 229/229/229 228/228/228
f 222/222/222 223/223/223 230/230/230
f 222/222/222 230/230/230 229/229/229
f 223/223/223 224/224/224 231/231/231
f 223/223/223 231/231/231 230/230/230
f 232/232/232 219/219/219 218/218/218
f 232/232/232 220/220/220 219/219/219
f 232/232/232 221/221/221 220/220/220
f 232/232/232 222/222/222 221/221/221
f 232/232/232 223/223/223 222/222/222
f 232/232/232 224/224/224 223/223/223
f 233/233/233 225/225/225 226/226/226
f 233/233/233 226/226/226 227/227/227
f 233/233/233 227/227/227 228/228/228
f 233/233/233 228/228/228 229/229/229
f 233/233/233 229/229/229 230/230/230
f 233/233/233 230/230/230 231/231/231
o Notched_iron_tooth
v 9.450000 0.928398 -0.000000
v 9.175000 0.452084 -0.000000
v 8.625000 0.452084 -0.000000
v 8.350000 0.928398 -0.000000
v 8.625000 1.404712 -0.000000
v 9.175000 1.404712 -0.000000
v 9.450000 0.928398 -0.000000
v 9.450000 0.928398 -3.300000
v 9.175000 0.452084 -3.300000
v 8.625000 0.452084 -3.300000
v 8.350000 0.928398 -3.300000
v 8.625000 1.404712 -3.300000
v 9.175000 1.404712 -3.300000
v 9.450000 0.928398 -3.300000
v 8.900000 0.928398 -0.000000
v 8.900000 0.928398 -3.300000
vt 0.0087500 0.9912500
vt 0.0475000 0.9912500
vt 0.0862500 0.9912500
vt 0.1250000 0.9912500
vt 0.1637500 0.9912500
vt 0.2025000 0.9912500
vt 0.2412500 0.9912500
vt 0.0087500 0.7587500
vt 0.0475000 0.7587500
vt 0.0862500 0.7587500
vt 0.1250000 0.7587500
vt 0.1637500 0.7587500
vt 0.2025000 0.7587500
vt 0.2412500 0.7587500
vt 0.1250000 0.8750000
vt 0.1250000 0.8750000
vn 0.9761871 -0.1878673 0.1084652
vn 0.3253957 -0.9393364 0.1084652
vn -0.6507914 -0.7514691 0.1084652
vn -0.9761871 0.1878673 0.1084652
vn -0.3253957 0.9393364 0.1084652
vn 0.6507914 0.7514691 0.1084652
vn 0.9761871 -0.1878673 0.1084652
vn 0.9761871 0.1878673 -0.1084652
vn 0.6507914 -0.7514691 -0.1084652
vn -0.3253957 -0.9393364 -0.1084652
vn -0.9761871 -0.1878673 -0.1084652
vn -0.6507914 0.7514691 -0.1084652
vn 0.3253957 0.9393364 -0.1084652
vn 0.9761871 0.1878673 -0.1084652
vn 0.0000000 0.0000000 1.0000000
vn 0.0000000 0.0000000 -1.0000000
f 234/234/234 235/235/235 242/242/242
f 234/234/234 242/242/242 241/241/241
f 235/235/235 236/236/236 243/243/243
f 235/235/235 243/243/243 242/242/242
f 236/236/236 237/237/237 244/244/244
f 236/236/236 244/244/244 243/243/243
f 237/237/237 238/238/238 245/245/245
f 237/237/237 245/245/245 244/244/244
f 238/238/238 239/239/239 246/246/246
f 238/238/238 246/246/246 245/245/245
f 239/239/239 240/240/240 247/247/247
f 239/239/239 247/247/247 246/246/246
f 248/248/248 235/235/235 234/234/234
f 248/248/248 236/236/236 235/235/235
f 248/248/248 237/237/237 236/236/236
f 248/248/248 238/238/238 237/237/237
f 248/248/248 239/239/239 238/238/238
f 248/248/248 240/240/240 239/239/239
f 249/249/249 241/241/241 242/242/242
f 249/249/249 242/242/242 243/243/243
f 249/249/249 243/243/243 244/244/244
f 249/249/249 244/244/244 245/245/245
f 249/249/249 245/245/245 246/246/246
f 249/249/249 246/246/246 247/247/247
o Rust_and_dried_stain
v -4.700000 1.198398 0.650000
v -4.381802 1.236474 0.650000
v -4.540901 1.236474 0.564268
v -4.859099 1.236474 0.564268
v -5.018198 1.236474 0.650000
v -4.859099 1.236474 0.735732
v -4.540901 1.236474 0.735732
v -4.381802 1.236474 0.650000
v -4.250000 1.328398 0.650000
v -4.475000 1.328398 0.528756
v -4.925000 1.328398 0.528756
v -5.150000 1.328398 0.650000
v -4.925000 1.328398 0.771244
v -4.475000 1.328398 0.771244
v -4.250000 1.328398 0.650000
v -4.381802 1.420322 0.650000
v -4.540901 1.420322 0.564268
v -4.859099 1.420322 0.564268
v -5.018198 1.420322 0.650000
v -4.859099 1.420322 0.735732
v -4.540901 1.420322 0.735732
v -4.381802 1.420322 0.650000
v -4.700000 1.458398 0.650000
vt 0.1250000 0.2412500
vt 0.0087500 0.1831250
vt 0.0475000 0.1831250
vt 0.0862500 0.1831250
vt 0.1250000 0.1831250
vt 0.1637500 0.1831250
vt 0.2025000 0.1831250
vt 0.2412500 0.1831250
vt 0.0087500 0.1250000
vt 0.0475000 0.1250000
vt 0.0862500 0.1250000
vt 0.1250000 0.1250000
vt 0.1637500 0.1250000
vt 0.2025000 0.1250000
vt 0.2412500 0.1250000
vt 0.0087500 0.0668750
vt 0.0475000 0.0668750
vt 0.0862500 0.0668750
vt 0.1250000 0.0668750
vt 0.1637500 0.0668750
vt 0.2025000 0.0668750
vt 0.2412500 0.0668750
vt 0.1250000 0.0087500
vn 0.0000000 -1.0000000 0.0000000
vn 0.3307273 -0.9212842 -0.2045845
vn 0.0798253 -0.6670916 -0.7406866
vn -0.1761313 -0.7359554 -0.6537181
vn -0.3307273 -0.9212842 0.2045845
vn -0.0798253 -0.6670916 0.7406866
vn 0.1761313 -0.7359554 0.6537181
vn 0.3307273 -0.9212842 -0.2045845
vn 1.0000000 -0.0000000 0.0000000
vn 0.1767908 -0.0000000 -0.9842485
vn -0.1767908 -0.0000000 -0.9842485
vn -1.0000000 -0.0000000 -0.0000000
vn -0.1767908 0.0000000 0.9842485
vn 0.1767908 -0.0000000 0.9842485
vn 1.0000000 -0.0000000 0.0000000
vn 0.3307273 0.9212842 0.2045845
vn 0.1761313 0.7359554 -0.6537181
vn -0.0798253 0.6670916 -0.7406866
vn -0.3307273 0.9212842 -0.2045845
vn -0.1761313 0.7359554 0.6537181
vn 0.0798253 0.6670916 0.7406866
vn 0.3307273 0.9212842 0.2045845
vn 0.0000000 1.0000000 -0.0000000
f 250/250/250 252/252/252 251/251/251
f 250/250/250 253/253/253 252/252/252
f 250/250/250 254/254/254 253/253/253
f 250/250/250 255/255/255 254/254/254
f 250/250/250 256/256/256 255/255/255
f 250/250/250 257/257/257 256/256/256
f 251/251/251 252/252/252 259/259/259
f 251/251/251 259/259/259 258/258/258
f 252/252/252 253/253/253 260/260/260
f 252/252/252 260/260/260 259/259/259
f 253/253/253 254/254/254 261/261/261
f 253/253/253 261/261/261 260/260/260
f 254/254/254 255/255/255 262/262/262
f 254/254/254 262/262/262 261/261/261
f 255/255/255 256/256/256 263/263/263
f 255/255/255 263/263/263 262/262/262
f 256/256/256 257/257/257 264/264/264
f 256/256/256 264/264/264 263/263/263
f 258/258/258 259/259/259 266/266/266
f 258/258/258 266/266/266 265/265/265
f 259/259/259 260/260/260 267/267/267
f 259/259/259 267/267/267 266/266/266
f 260/260/260 261/261/261 268/268/268
f 260/260/260 268/268/268 267/267/267
f 261/261/261 262/262/262 269/269/269
f 261/261/261 269/269/269 268/268/268
f 262/262/262 263/263/263 270/270/270
f 262/262/262 270/270/270 269/269/269
f 263/263/263 264/264/264 271/271/271
f 263/263/263 271/271/271 270/270/270
f 265/265/265 266/266/266 272/272/272
f 266/266/266 267/267/267 272/272/272
f 267/267/267 268/268/268 272/272/272
f 268/268/268 269/269/269 272/272/272
f 269/269/269 270/270/270 272/272/272
f 270/270/270 271/271/271 272/272/272
o Rust_and_dried_stain
v -1.700000 1.198398 0.650000
v -1.381802 1.236474 0.650000
v -1.540901 1.236474 0.564268
v -1.859099 1.236474 0.564268
v -2.018198 1.236474 0.650000
v -1.859099 1.236474 0.735732
v -1.540901 1.236474 0.735732
v -1.381802 1.236474 0.650000
v -1.250000 1.328398 0.650000
v -1.475000 1.328398 0.528756
v -1.925000 1.328398 0.528756
v -2.150000 1.328398 0.650000
v -1.925000 1.328398 0.771244
v -1.475000 1.328398 0.771244
v -1.250000 1.328398 0.650000
v -1.381802 1.420322 0.650000
v -1.540901 1.420322 0.564268
v -1.859099 1.420322 0.564268
v -2.018198 1.420322 0.650000
v -1.859099 1.420322 0.735732
v -1.540901 1.420322 0.735732
v -1.381802 1.420322 0.650000
v -1.700000 1.458398 0.650000
vt 0.1250000 0.2412500
vt 0.0087500 0.1831250
vt 0.0475000 0.1831250
vt 0.0862500 0.1831250
vt 0.1250000 0.1831250
vt 0.1637500 0.1831250
vt 0.2025000 0.1831250
vt 0.2412500 0.1831250
vt 0.0087500 0.1250000
vt 0.0475000 0.1250000
vt 0.0862500 0.1250000
vt 0.1250000 0.1250000
vt 0.1637500 0.1250000
vt 0.2025000 0.1250000
vt 0.2412500 0.1250000
vt 0.0087500 0.0668750
vt 0.0475000 0.0668750
vt 0.0862500 0.0668750
vt 0.1250000 0.0668750
vt 0.1637500 0.0668750
vt 0.2025000 0.0668750
vt 0.2412500 0.0668750
vt 0.1250000 0.0087500
vn 0.0000000 -1.0000000 0.0000000
vn 0.3307273 -0.9212842 -0.2045845
vn 0.0798253 -0.6670916 -0.7406866
vn -0.1761313 -0.7359554 -0.6537181
vn -0.3307273 -0.9212842 0.2045845
vn -0.0798253 -0.6670916 0.7406866
vn 0.1761313 -0.7359554 0.6537181
vn 0.3307273 -0.9212842 -0.2045845
vn 1.0000000 0.0000000 0.0000000
vn 0.1767908 0.0000000 -0.9842485
vn -0.1767908 -0.0000000 -0.9842485
vn -1.0000000 0.0000000 -0.0000000
vn -0.1767908 0.0000000 0.9842485
vn 0.1767908 -0.0000000 0.9842485
vn 1.0000000 0.0000000 0.0000000
vn 0.3307273 0.9212842 0.2045845
vn 0.1761313 0.7359554 -0.6537181
vn -0.0798253 0.6670916 -0.7406866
vn -0.3307273 0.9212842 -0.2045845
vn -0.1761313 0.7359554 0.6537181
vn 0.0798253 0.6670916 0.7406866
vn 0.3307273 0.9212842 0.2045845
vn 0.0000000 1.0000000 0.0000000
f 273/273/273 275/275/275 274/274/274
f 273/273/273 276/276/276 275/275/275
f 273/273/273 277/277/277 276/276/276
f 273/273/273 278/278/278 277/277/277
f 273/273/273 279/279/279 278/278/278
f 273/273/273 280/280/280 279/279/279
f 274/274/274 275/275/275 282/282/282
f 274/274/274 282/282/282 281/281/281
f 275/275/275 276/276/276 283/283/283
f 275/275/275 283/283/283 282/282/282
f 276/276/276 277/277/277 284/284/284
f 276/276/276 284/284/284 283/283/283
f 277/277/277 278/278/278 285/285/285
f 277/277/277 285/285/285 284/284/284
f 278/278/278 279/279/279 286/286/286
f 278/278/278 286/286/286 285/285/285
f 279/279/279 280/280/280 287/287/287
f 279/279/279 287/287/287 286/286/286
f 281/281/281 282/282/282 289/289/289
f 281/281/281 289/289/289 288/288/288
f 282/282/282 283/283/283 290/290/290
f 282/282/282 290/290/290 289/289/289
f 283/283/283 284/284/284 291/291/291
f 283/283/283 291/291/291 290/290/290
f 284/284/284 285/285/285 292/292/292
f 284/284/284 292/292/292 291/291/291
f 285/285/285 286/286/286 293/293/293
f 285/285/285 293/293/293 292/292/292
f 286/286/286 287/287/287 294/294/294
f 286/286/286 294/294/294 293/293/293
f 288/288/288 289/289/289 295/295/295
f 289/289/289 290/290/290 295/295/295
f 290/290/290 291/291/291 295/295/295
f 291/291/291 292/292/292 295/295/295
f 292/292/292 293/293/293 295/295/295
f 293/293/293 294/294/294 295/295/295
o Rust_and_dried_stain
v 1.300000 1.198398 0.650000
v 1.618198 1.236474 0.650000
v 1.459099 1.236474 0.564268
v 1.140901 1.236474 0.564268
v 0.981802 1.236474 0.650000
v 1.140901 1.236474 0.735732
v 1.459099 1.236474 0.735732
v 1.618198 1.236474 0.650000
v 1.750000 1.328398 0.650000
v 1.525000 1.328398 0.528756
v 1.075000 1.328398 0.528756
v 0.850000 1.328398 0.650000
v 1.075000 1.328398 0.771244
v 1.525000 1.328398 0.771244
v 1.750000 1.328398 0.650000
v 1.618198 1.420322 0.650000
v 1.459099 1.420322 0.564268
v 1.140901 1.420322 0.564268
v 0.981802 1.420322 0.650000
v 1.140901 1.420322 0.735732
v 1.459099 1.420322 0.735732
v 1.618198 1.420322 0.650000
v 1.300000 1.458398 0.650000
vt 0.1250000 0.2412500
vt 0.0087500 0.1831250
vt 0.0475000 0.1831250
vt 0.0862500 0.1831250
vt 0.1250000 0.1831250
vt 0.1637500 0.1831250
vt 0.2025000 0.1831250
vt 0.2412500 0.1831250
vt 0.0087500 0.1250000
vt 0.0475000 0.1250000
vt 0.0862500 0.1250000
vt 0.1250000 0.1250000
vt 0.1637500 0.1250000
vt 0.2025000 0.1250000
vt 0.2412500 0.1250000
vt 0.0087500 0.0668750
vt 0.0475000 0.0668750
vt 0.0862500 0.0668750
vt 0.1250000 0.0668750
vt 0.1637500 0.0668750
vt 0.2025000 0.0668750
vt 0.2412500 0.0668750
vt 0.1250000 0.0087500
vn 0.0000000 -1.0000000 -0.0000000
vn 0.3307273 -0.9212842 -0.2045845
vn 0.0798253 -0.6670916 -0.7406866
vn -0.1761313 -0.7359554 -0.6537181
vn -0.3307273 -0.9212842 0.2045845
vn -0.0798253 -0.6670916 0.7406866
vn 0.1761313 -0.7359554 0.6537181
vn 0.3307273 -0.9212842 -0.2045845
vn 1.0000000 0.0000000 0.0000000
vn 0.1767908 0.0000000 -0.9842485
vn -0.1767908 -0.0000000 -0.9842485
vn -1.0000000 -0.0000000 -0.0000000
vn -0.1767908 0.0000000 0.9842485
vn 0.1767908 -0.0000000 0.9842485
vn 1.0000000 0.0000000 0.0000000
vn 0.3307273 0.9212842 0.2045845
vn 0.1761313 0.7359554 -0.6537181
vn -0.0798253 0.6670916 -0.7406866
vn -0.3307273 0.9212842 -0.2045845
vn -0.1761313 0.7359554 0.6537181
vn 0.0798253 0.6670916 0.7406866
vn 0.3307273 0.9212842 0.2045845
vn 0.0000000 1.0000000 -0.0000000
f 296/296/296 298/298/298 297/297/297
f 296/296/296 299/299/299 298/298/298
f 296/296/296 300/300/300 299/299/299
f 296/296/296 301/301/301 300/300/300
f 296/296/296 302/302/302 301/301/301
f 296/296/296 303/303/303 302/302/302
f 297/297/297 298/298/298 305/305/305
f 297/297/297 305/305/305 304/304/304
f 298/298/298 299/299/299 306/306/306
f 298/298/298 306/306/306 305/305/305
f 299/299/299 300/300/300 307/307/307
f 299/299/299 307/307/307 306/306/306
f 300/300/300 301/301/301 308/308/308
f 300/300/300 308/308/308 307/307/307
f 301/301/301 302/302/302 309/309/309
f 301/301/301 309/309/309 308/308/308
f 302/302/302 303/303/303 310/310/310
f 302/302/302 310/310/310 309/309/309
f 304/304/304 305/305/305 312/312/312
f 304/304/304 312/312/312 311/311/311
f 305/305/305 306/306/306 313/313/313
f 305/305/305 313/313/313 312/312/312
f 306/306/306 307/307/307 314/314/314
f 306/306/306 314/314/314 313/313/313
f 307/307/307 308/308/308 315/315/315
f 307/307/307 315/315/315 314/314/314
f 308/308/308 309/309/309 316/316/316
f 308/308/308 316/316/316 315/315/315
f 309/309/309 310/310/310 317/317/317
f 309/309/309 317/317/317 316/316/316
f 311/311/311 312/312/312 318/318/318
f 312/312/312 313/313/313 318/318/318
f 313/313/313 314/314/314 318/318/318
f 314/314/314 315/315/315 318/318/318
f 315/315/315 316/316/316 318/318/318
f 316/316/316 317/317/317 318/318/318
o Rust_and_dried_stain
v 4.300000 1.198398 0.650000
v 4.618198 1.236474 0.650000
v 4.459099 1.236474 0.564268
v 4.140901 1.236474 0.564268
v 3.981802 1.236474 0.650000
v 4.140901 1.236474 0.735732
v 4.459099 1.236474 0.735732
v 4.618198 1.236474 0.650000
v 4.750000 1.328398 0.650000
v 4.525000 1.328398 0.528756
v 4.075000 1.328398 0.528756
v 3.850000 1.328398 0.650000
v 4.075000 1.328398 0.771244
v 4.525000 1.328398 0.771244
v 4.750000 1.328398 0.650000
v 4.618198 1.420322 0.650000
v 4.459099 1.420322 0.564268
v 4.140901 1.420322 0.564268
v 3.981802 1.420322 0.650000
v 4.140901 1.420322 0.735732
v 4.459099 1.420322 0.735732
v 4.618198 1.420322 0.650000
v 4.300000 1.458398 0.650000
vt 0.1250000 0.2412500
vt 0.0087500 0.1831250
vt 0.0475000 0.1831250
vt 0.0862500 0.1831250
vt 0.1250000 0.1831250
vt 0.1637500 0.1831250
vt 0.2025000 0.1831250
vt 0.2412500 0.1831250
vt 0.0087500 0.1250000
vt 0.0475000 0.1250000
vt 0.0862500 0.1250000
vt 0.1250000 0.1250000
vt 0.1637500 0.1250000
vt 0.2025000 0.1250000
vt 0.2412500 0.1250000
vt 0.0087500 0.0668750
vt 0.0475000 0.0668750
vt 0.0862500 0.0668750
vt 0.1250000 0.0668750
vt 0.1637500 0.0668750
vt 0.2025000 0.0668750
vt 0.2412500 0.0668750
vt 0.1250000 0.0087500
vn 0.0000000 -1.0000000 0.0000000
vn 0.3307273 -0.9212842 -0.2045845
vn 0.0798253 -0.6670916 -0.7406866
vn -0.1761313 -0.7359554 -0.6537181
vn -0.3307273 -0.9212842 0.2045845
vn -0.0798253 -0.6670916 0.7406866
vn 0.1761313 -0.7359554 0.6537181
vn 0.3307273 -0.9212842 -0.2045845
vn 1.0000000 0.0000000 0.0000000
vn 0.1767908 0.0000000 -0.9842485
vn -0.1767908 -0.0000000 -0.9842485
vn -1.0000000 -0.0000000 -0.0000000
vn -0.1767908 0.0000000 0.9842485
vn 0.1767908 -0.0000000 0.9842485
vn 1.0000000 0.0000000 0.0000000
vn 0.3307273 0.9212842 0.2045845
vn 0.1761313 0.7359554 -0.6537181
vn -0.0798253 0.6670916 -0.7406866
vn -0.3307273 0.9212842 -0.2045845
vn -0.1761313 0.7359554 0.6537181
vn 0.0798253 0.6670916 0.7406866
vn 0.3307273 0.9212842 0.2045845
vn 0.0000000 1.0000000 0.0000000
f 319/319/319 321/321/321 320/320/320
f 319/319/319 322/322/322 321/321/321
f 319/319/319 323/323/323 322/322/322
f 319/319/319 324/324/324 323/323/323
f 319/319/319 325/325/325 324/324/324
f 319/319/319 326/326/326 325/325/325
f 320/320/320 321/321/321 328/328/328
f 320/320/320 328/328/328 327/327/327
f 321/321/321 322/322/322 329/329/329
f 321/321/321 329/329/329 328/328/328
f 322/322/322 323/323/323 330/330/330
f 322/322/322 330/330/330 329/329/329
f 323/323/323 324/324/324 331/331/331
f 323/323/323 331/331/331 330/330/330
f 324/324/324 325/325/325 332/332/332
f 324/324/324 332/332/332 331/331/331
f 325/325/325 326/326/326 333/333/333
f 325/325/325 333/333/333 332/332/332
f 327/327/327 328/328/328 335/335/335
f 327/327/327 335/335/335 334/334/334
f 328/328/328 329/329/329 336/336/336
f 328/328/328 336/336/336 335/335/335
f 329/329/329 330/330/330 337/337/337
f 329/329/329 337/337/337 336/336/336
f 330/330/330 331/331/331 338/338/338
f 330/330/330 338/338/338 337/337/337
f 331/331/331 332/332/332 339/339/339
f 331/331/331 339/339/339 338/338/338
f 332/332/332 333/333/333 340/340/340
f 332/332/332 340/340/340 339/339/339
f 334/334/334 335/335/335 341/341/341
f 335/335/335 336/336/336 341/341/341
f 336/336/336 337/337/337 341/341/341
f 337/337/337 338/338/338 341/341/341
f 338/338/338 339/339/339 341/341/341
f 339/339/339 340/340/340 341/341/341
