# Original Project Broom pickup; OBJ Y up; CC-BY-SA-4.0
o Assigned_title_ink
v 0.000000 0.000000 -0.000000
v 0.100000 0.000000 -0.000000
v 0.100000 0.000000 0.100000
v 0.000000 0.000000 0.100000
v 0.400000 0.000000 -0.000000
v 0.500000 0.000000 -0.000000
v 0.500000 0.000000 0.100000
v 0.400000 0.000000 0.100000
v 0.000000 0.000000 0.100000
v 0.100000 0.000000 0.100000
v 0.100000 0.000000 0.200000
v 0.000000 0.000000 0.200000
v 0.400000 0.000000 0.100000
v 0.500000 0.000000 0.100000
v 0.500000 0.000000 0.200000
v 0.400000 0.000000 0.200000
v 0.100000 0.000000 0.200000
v 0.200000 0.000000 0.200000
v 0.200000 0.000000 0.300000
v 0.100000 0.000000 0.300000
v 0.300000 0.000000 0.200000
v 0.400000 0.000000 0.200000
v 0.400000 0.000000 0.300000
v 0.300000 0.000000 0.300000
v 0.200000 0.000000 0.300000
v 0.300000 0.000000 0.300000
v 0.300000 0.000000 0.400000
v 0.200000 0.000000 0.400000
v 0.100000 0.000000 0.400000
v 0.200000 0.000000 0.400000
v 0.200000 0.000000 0.500000
v 0.100000 0.000000 0.500000
v 0.300000 0.000000 0.400000
v 0.400000 0.000000 0.400000
v 0.400000 0.000000 0.500000
v 0.300000 0.000000 0.500000
v 0.000000 0.000000 0.500000
v 0.100000 0.000000 0.500000
v 0.100000 0.000000 0.600000
v 0.000000 0.000000 0.600000
v 0.400000 0.000000 0.500000
v 0.500000 0.000000 0.500000
v 0.500000 0.000000 0.600000
v 0.400000 0.000000 0.600000
v 0.000000 0.000000 0.600000
v 0.100000 0.000000 0.600000
v 0.100000 0.000000 0.700000
v 0.000000 0.000000 0.700000
v 0.400000 0.000000 0.600000
v 0.500000 0.000000 0.600000
v 0.500000 0.000000 0.700000
v 0.400000 0.000000 0.700000
vt 0.0087500 0.9825000
vt 0.0087500 0.9825000
vt 0.0087500 0.9825000
vt 0.0087500 0.9825000
vt 0.0087500 0.9825000
vt 0.0087500 0.9825000
vt 0.0087500 0.9825000
vt 0.0087500 0.9825000
vt 0.0087500 0.9825000
vt 0.0087500 0.9825000
vt 0.0087500 0.9825000
vt 0.0087500 0.9825000
vt 0.0087500 0.9825000
vt 0.0087500 0.9825000
vt 0.0087500 0.9825000
vt 0.0087500 0.9825000
vt 0.0087500 0.9825000
vt 0.0087500 0.9825000
vt 0.0087500 0.9825000
vt 0.0087500 0.9825000
vt 0.0087500 0.9825000
vt 0.0087500 0.9825000
vt 0.0087500 0.9825000
vt 0.0087500 0.9825000
vt 0.0087500 0.9825000
vt 0.0087500 0.9825000
vt 0.0087500 0.9825000
vt 0.0087500 0.9825000
vt 0.0087500 0.9825000
vt 0.0087500 0.9825000
vt 0.0087500 0.9825000
vt 0.0087500 0.9825000
vt 0.0087500 0.9825000
vt 0.0087500 0.9825000
vt 0.0087500 0.9825000
vt 0.0087500 0.9825000
vt 0.0087500 0.9825000
vt 0.0087500 0.9825000
vt 0.0087500 0.9825000
vt 0.0087500 0.9825000
vt 0.0087500 0.9825000
vt 0.0087500 0.9825000
vt 0.0087500 0.9825000
vt 0.0087500 0.9825000
vt 0.0087500 0.9825000
vt 0.0087500 0.9825000
vt 0.0087500 0.9825000
vt 0.0087500 0.9825000
vt 0.0087500 0.9825000
vt 0.0087500 0.9825000
vt 0.0087500 0.9825000
vt 0.0087500 0.9825000
vn 0.0000000 1.0000000 -0.0000000
vn 0.0000000 1.0000000 -0.0000000
vn 0.0000000 1.0000000 -0.0000000
vn 0.0000000 1.0000000 -0.0000000
vn 0.0000000 1.0000000 -0.0000000
vn 0.0000000 1.0000000 -0.0000000
vn 0.0000000 1.0000000 -0.0000000
vn 0.0000000 1.0000000 -0.0000000
vn 0.0000000 1.0000000 -0.0000000
vn 0.0000000 1.0000000 -0.0000000
vn 0.0000000 1.0000000 -0.0000000
vn 0.0000000 1.0000000 -0.0000000
vn 0.0000000 1.0000000 -0.0000000
vn 0.0000000 1.0000000 -0.0000000
vn 0.0000000 1.0000000 -0.0000000
vn 0.0000000 1.0000000 -0.0000000
vn 0.0000000 1.0000000 -0.0000000
vn 0.0000000 1.0000000 -0.0000000
vn 0.0000000 1.0000000 -0.0000000
vn 0.0000000 1.0000000 -0.0000000
vn 0.0000000 1.0000000 -0.0000000
vn 0.0000000 1.0000000 -0.0000000
vn 0.0000000 1.0000000 -0.0000000
vn 0.0000000 1.0000000 -0.0000000
vn 0.0000000 1.0000000 -0.0000000
vn 0.0000000 1.0000000 -0.0000000
vn 0.0000000 1.0000000 -0.0000000
vn 0.0000000 1.0000000 -0.0000000
vn 0.0000000 1.0000000 -0.0000000
vn 0.0000000 1.0000000 -0.0000000
vn 0.0000000 1.0000000 -0.0000000
vn 0.0000000 1.0000000 -0.0000000
vn 0.0000000 1.0000000 -0.0000000
vn 0.0000000 1.0000000 -0.0000000
vn 0.0000000 1.0000000 -0.0000000
vn 0.0000000 1.0000000 -0.0000000
vn 0.0000000 1.0000000 -0.0000000
vn 0.0000000 1.0000000 -0.0000000
vn 0.0000000 1.0000000 -0.0000000
vn 0.0000000 1.0000000 -0.0000000
vn 0.0000000 1.0000000 -0.0000000
vn 0.0000000 1.0000000 -0.0000000
vn 0.0000000 1.0000000 -0.0000000
vn 0.0000000 1.0000000 -0.0000000
vn 0.0000000 1.0000000 -0.0000000
vn 0.0000000 1.0000000 -0.0000000
vn 0.0000000 1.0000000 -0.0000000
vn 0.0000000 1.0000000 -0.0000000
vn 0.0000000 1.0000000 -0.0000000
vn 0.0000000 1.0000000 -0.0000000
vn 0.0000000 1.0000000 -0.0000000
vn 0.0000000 1.0000000 -0.0000000
f 1/1/1 3/3/3 2/2/2
f 1/1/1 4/4/4 3/3/3
f 5/5/5 7/7/7 6/6/6
f 5/5/5 8/8/8 7/7/7
f 9/9/9 11/11/11 10/10/10
f 9/9/9 12/12/12 11/11/11
f 13/13/13 15/15/15 14/14/14
f 13/13/13 16/16/16 15/15/15
f 17/17/17 19/19/19 18/18/18
f 17/17/17 20/20/20 19/19/19
f 21/21/21 23/23/23 22/22/22
f 21/21/21 24/24/24 23/23/23
f 25/25/25 27/27/27 26/26/26
f 25/25/25 28/28/28 27/27/27
f 29/29/29 31/31/31 30/30/30
f 29/29/29 32/32/32 31/31/31
f 33/33/33 35/35/35 34/34/34
f 33/33/33 36/36/36 35/35/35
f 37/37/37 39/39/39 38/38/38
f 37/37/37 40/40/40 39/39/39
f 41/41/41 43/43/43 42/42/42
f 41/41/41 44/44/44 43/43/43
f 45/45/45 47/47/47 46/46/46
f 45/45/45 48/48/48 47/47/47
f 49/49/49 51/51/51 50/50/50
f 49/49/49 52/52/52 51/51/51
