# Original Project Broom pickup; OBJ Y up; CC-BY-SA-4.0
o Rounded_ring_band
v 4.846364 0.856122 -0.790968
v 4.425000 0.120000 -0.735495
v 3.582272 0.120000 -0.624547
v 3.160908 0.856122 -0.569074
v 3.582272 1.592243 -0.624547
v 4.425000 1.592243 -0.735495
v 4.846364 0.856122 -0.790968
v 4.688376 0.856122 -1.935293
v 4.277858 0.120000 -1.825295
v 3.456821 0.120000 -1.605299
v 3.046302 0.856122 -1.495301
v 3.456821 1.592243 -1.605299
v 4.277858 1.592243 -1.825295
v 4.688376 0.856122 -1.935293
v 4.203859 0.856122 -3.105021
v 3.835798 0.120000 -2.892521
v 3.099677 0.120000 -2.467521
v 2.731616 0.856122 -2.255021
v 3.099677 1.592243 -2.467521
v 3.835798 1.592243 -2.892521
v 4.203859 0.856122 -3.105021
v 3.433104 0.856122 -4.109489
v 3.132583 0.120000 -3.808969
v 2.531543 0.120000 -3.207928
v 2.231022 0.856122 -2.907407
v 2.531543 1.592243 -3.207928
v 3.132583 1.592243 -3.808969
v 3.433104 0.856122 -4.109489
v 2.428636 0.856122 -4.880244
v 2.216136 0.120000 -4.512183
v 1.791136 0.120000 -3.776062
v 1.578636 0.856122 -3.408001
v 1.791136 1.592243 -3.776062
v 2.216136 1.592243 -4.512183
v 2.428636 0.856122 -4.880244
v 1.258908 0.856122 -5.364761
v 1.148910 0.120000 -4.954243
v 0.928914 0.120000 -4.133206
v 0.818916 0.856122 -3.722687
v 0.928914 1.592243 -4.133206
v 1.148910 1.592243 -4.954243
v 1.258908 0.856122 -5.364761
v 0.003636 0.856122 -5.530021
v 0.003636 0.120000 -5.105021
v 0.003636 0.120000 -4.255021
v 0.003636 0.856122 -3.830021
v 0.003636 1.592243 -4.255021
v 0.003636 1.592243 -5.105021
v 0.003636 0.856122 -5.530021
v -1.251636 0.856122 -5.364761
v -1.141638 0.120000 -4.954243
v -0.921642 0.120000 -4.133206
v -0.811644 0.856122 -3.722687
v -0.921642 1.592243 -4.133206
v -1.141638 1.592243 -4.954243
v -1.251636 0.856122 -5.364761
v -2.421364 0.856122 -4.880244
v -2.208864 0.120000 -4.512183
v -1.783864 0.120000 -3.776062
v -1.571364 0.856122 -3.408001
v -1.783864 1.592243 -3.776062
v -2.208864 1.592243 -4.512183
v -2.421364 0.856122 -4.880244
v -3.425832 0.856122 -4.109489
v -3.125312 0.120000 -3.808969
v -2.524271 0.120000 -3.207928
v -2.223750 0.856122 -2.907407
v -2.524271 1.592243 -3.207928
v -3.125312 1.592243 -3.808969
v -3.425832 0.856122 -4.109489
v -4.196587 0.856122 -3.105021
v -3.828526 0.120000 -2.892521
v -3.092405 0.120000 -2.467521
v -2.724344 0.856122 -2.255021
v -3.092405 1.592243 -2.467521
v -3.828526 1.592243 -2.892521
v -4.196587 0.856122 -3.105021
v -4.681104 0.856122 -1.935293
v -4.270586 0.120000 -1.825295
v -3.449549 0.120000 -1.605299
v -3.039030 0.856122 -1.495301
v -3.449549 1.592243 -1.605299
v -4.270586 1.592243 -1.825295
v -4.681104 0.856122 -1.935293
v -4.846364 0.856122 -0.680021
v -4.421364 0.120000 -0.680021
v -3.571364 0.120000 -0.680021
v -3.146364 0.856122 -0.680021
v -3.571364 1.592243 -0.680021
v -4.421364 1.592243 -0.680021
v -4.846364 0.856122 -0.680021
v -4.681104 0.856122 0.575251
v -4.270586 0.120000 0.465253
v -3.449549 0.120000 0.245257
v -3.039030 0.856122 0.135259
v -3.449549 1.592243 0.245257
v -4.270586 1.592243 0.465253
v -4.681104 0.856122 0.575251
v -4.196587 0.856122 1.744979
v -3.828526 0.120000 1.532479
v -3.092405 0.120000 1.107479
v -2.724344 0.856122 0.894979
v -3.092405 1.592243 1.107479
v -3.828526 1.592243 1.532479
v -4.196587 0.856122 1.744979
v -3.425832 0.856122 2.749447
v -3.125312 0.120000 2.448927
v -2.524271 0.120000 1.847886
v -2.223750 0.856122 1.547365
v -2.524271 1.592243 1.847886
v -3.125312 1.592243 2.448927
v -3.425832 0.856122 2.749447
v -2.421364 0.856122 3.520202
v -2.208864 0.120000 3.152141
v -1.783864 0.120000 2.416020
v -1.571364 0.856122 2.047959
v -1.783864 1.592243 2.416020
v -2.208864 1.592243 3.152141
v -2.421364 0.856122 3.520202
v -1.251636 0.856122 4.004719
v -1.141638 0.120000 3.594201
v -0.921642 0.120000 2.773164
v -0.811644 0.856122 2.362645
v -0.921642 1.592243 2.773164
v -1.141638 1.592243 3.594201
v -1.251636 0.856122 4.004719
v 0.003636 0.856122 4.169979
v 0.003636 0.120000 3.744979
v 0.003636 0.120000 2.894979
v 0.003636 0.856122 2.469979
v 0.003636 1.592243 2.894979
v 0.003636 1.592243 3.744979
v 0.003636 0.856122 4.169979
v 1.258908 0.856122 4.004719
v 1.148910 0.120000 3.594201
v 0.928914 0.120000 2.773164
v 0.818916 0.856122 2.362645
v 0.928914 1.592243 2.773164
v 1.148910 1.592243 3.594201
v 1.258908 0.856122 4.004719
v 2.428636 0.856122 3.520202
v 2.216136 0.120000 3.152141
v 1.791136 0.120000 2.416020
v 1.578636 0.856122 2.047959
v 1.791136 1.592243 2.416020
v 2.216136 1.592243 3.152141
v 2.428636 0.856122 3.520202
v 3.433104 0.856122 2.749447
v 3.132583 0.120000 2.448927
v 2.531543 0.120000 1.847886
v 2.231022 0.856122 1.547365
v 2.531543 1.592243 1.847886
v 3.132583 1.592243 2.448927
v 3.433104 0.856122 2.749447
v 4.203859 0.856122 1.744979
v 3.835798 0.120000 1.532479
v 3.099677 0.120000 1.107479
v 2.731616 0.856122 0.894979
v 3.099677 1.592243 1.107479
v 3.835798 1.592243 1.532479
v 4.203859 0.856122 1.744979
v 4.688376 0.856122 0.575251
v 4.277858 0.120000 0.465253
v 3.456821 0.120000 0.245257
v 3.046302 0.856122 0.135259
v 3.456821 1.592243 0.245257
v 4.277858 1.592243 0.465253
v 4.688376 0.856122 0.575251
v 4.846364 0.856122 -0.569074
v 4.425000 0.120000 -0.624547
v 3.582272 0.120000 -0.735495
v 3.160908 0.856122 -0.790968
v 3.582272 1.592243 -0.735495
v 4.425000 1.592243 -0.624547
v 4.846364 0.856122 -0.569074
v 4.003636 0.856122 -0.680021
v 4.003636 0.856122 -0.680021
vt 0.5087500 0.9912500
vt 0.5475000 0.9912500
vt 0.5862500 0.9912500
vt 0.6250000 0.9912500
vt 0.6637500 0.9912500
vt 0.7025000 0.9912500
vt 0.7412500 0.9912500
vt 0.5087500 0.9815625
vt 0.5475000 0.9815625
vt 0.5862500 0.9815625
vt 0.6250000 0.9815625
vt 0.6637500 0.9815625
vt 0.7025000 0.9815625
vt 0.7412500 0.9815625
vt 0.5087500 0.9718750
vt 0.5475000 0.9718750
vt 0.5862500 0.9718750
vt 0.6250000 0.9718750
vt 0.6637500 0.9718750
vt 0.7025000 0.9718750
vt 0.7412500 0.9718750
vt 0.5087500 0.9621875
vt 0.5475000 0.9621875
vt 0.5862500 0.9621875
vt 0.6250000 0.9621875
vt 0.6637500 0.9621875
vt 0.7025000 0.9621875
vt 0.7412500 0.9621875
vt 0.5087500 0.9525000
vt 0.5475000 0.9525000
vt 0.5862500 0.9525000
vt 0.6250000 0.9525000
vt 0.6637500 0.9525000
vt 0.7025000 0.9525000
vt 0.7412500 0.9525000
vt 0.5087500 0.9428125
vt 0.5475000 0.9428125
vt 0.5862500 0.9428125
vt 0.6250000 0.9428125
vt 0.6637500 0.9428125
vt 0.7025000 0.9428125
vt 0.7412500 0.9428125
vt 0.5087500 0.9331250
vt 0.5475000 0.9331250
vt 0.5862500 0.9331250
vt 0.6250000 0.9331250
vt 0.6637500 0.9331250
vt 0.7025000 0.9331250
vt 0.7412500 0.9331250
vt 0.5087500 0.9234375
vt 0.5475000 0.9234375
vt 0.5862500 0.9234375
vt 0.6250000 0.9234375
vt 0.6637500 0.9234375
vt 0.7025000 0.9234375
vt 0.7412500 0.9234375
vt 0.5087500 0.9137500
vt 0.5475000 0.9137500
vt 0.5862500 0.9137500
vt 0.6250000 0.9137500
vt 0.6637500 0.9137500
vt 0.7025000 0.9137500
vt 0.7412500 0.9137500
vt 0.5087500 0.9040625
vt 0.5475000 0.9040625
vt 0.5862500 0.9040625
vt 0.6250000 0.9040625
vt 0.6637500 0.9040625
vt 0.7025000 0.9040625
vt 0.7412500 0.9040625
vt 0.5087500 0.8943750
vt 0.5475000 0.8943750
vt 0.5862500 0.8943750
vt 0.6250000 0.8943750
vt 0.6637500 0.8943750
vt 0.7025000 0.8943750
vt 0.7412500 0.8943750
vt 0.5087500 0.8846875
vt 0.5475000 0.8846875
vt 0.5862500 0.8846875
vt 0.6250000 0.8846875
vt 0.6637500 0.8846875
vt 0.7025000 0.8846875
vt 0.7412500 0.8846875
vt 0.5087500 0.8750000
vt 0.5475000 0.8750000
vt 0.5862500 0.8750000
vt 0.6250000 0.8750000
vt 0.6637500 0.8750000
vt 0.7025000 0.8750000
vt 0.7412500 0.8750000
vt 0.5087500 0.8653125
vt 0.5475000 0.8653125
vt 0.5862500 0.8653125
vt 0.6250000 0.8653125
vt 0.6637500 0.8653125
vt 0.7025000 0.8653125
vt 0.7412500 0.8653125
vt 0.5087500 0.8556250
vt 0.5475000 0.8556250
vt 0.5862500 0.8556250
vt 0.6250000 0.8556250
vt 0.6637500 0.8556250
vt 0.7025000 0.8556250
vt 0.7412500 0.8556250
vt 0.5087500 0.8459375
vt 0.5475000 0.8459375
vt 0.5862500 0.8459375
vt 0.6250000 0.8459375
vt 0.6637500 0.8459375
vt 0.7025000 0.8459375
vt 0.7412500 0.8459375
vt 0.5087500 0.8362500
vt 0.5475000 0.8362500
vt 0.5862500 0.8362500
vt 0.6250000 0.8362500
vt 0.6637500 0.8362500
vt 0.7025000 0.8362500
vt 0.7412500 0.8362500
vt 0.5087500 0.8265625
vt 0.5475000 0.8265625
vt 0.5862500 0.8265625
vt 0.6250000 0.8265625
vt 0.6637500 0.8265625
vt 0.7025000 0.8265625
vt 0.7412500 0.8265625
vt 0.5087500 0.8168750
vt 0.5475000 0.8168750
vt 0.5862500 0.8168750
vt 0.6250000 0.8168750
vt 0.6637500 0.8168750
vt 0.7025000 0.8168750
vt 0.7412500 0.8168750
vt 0.5087500 0.8071875
vt 0.5475000 0.8071875
vt 0.5862500 0.8071875
vt 0.6250000 0.8071875
vt 0.6637500 0.8071875
vt 0.7025000 0.8071875
vt 0.7412500 0.8071875
vt 0.5087500 0.7975000
vt 0.5475000 0.7975000
vt 0.5862500 0.7975000
vt 0.6250000 0.7975000
vt 0.6637500 0.7975000
vt 0.7025000 0.7975000
vt 0.7412500 0.7975000
vt 0.5087500 0.7878125
vt 0.5475000 0.7878125
vt 0.5862500 0.7878125
vt 0.6250000 0.7878125
vt 0.6637500 0.7878125
vt 0.7025000 0.7878125
vt 0.7412500 0.7878125
vt 0.5087500 0.7781250
vt 0.5475000 0.7781250
vt 0.5862500 0.7781250
vt 0.6250000 0.7781250
vt 0.6637500 0.7781250
vt 0.7025000 0.7781250
vt 0.7412500 0.7781250
vt 0.5087500 0.7684375
vt 0.5475000 0.7684375
vt 0.5862500 0.7684375
vt 0.6250000 0.7684375
vt 0.6637500 0.7684375
vt 0.7025000 0.7684375
vt 0.7412500 0.7684375
vt 0.5087500 0.7587500
vt 0.5475000 0.7587500
vt 0.5862500 0.7587500
vt 0.6250000 0.7587500
vt 0.6637500 0.7587500
vt 0.7025000 0.7587500
vt 0.7412500 0.7587500
vt 0.6250000 0.8750000
vt 0.6250000 0.8750000
vn 0.9341885 -0.1634011 0.3171624
vn 0.3596079 -0.8323583 0.4217366
vn -0.4949171 -0.6597200 0.5655321
vn -0.7767828 0.1682747 0.6068708
vn -0.2130393 0.8343591 0.5083888
vn 0.6444460 0.6734299 0.3621899
vn 0.9341885 -0.1634011 0.3171624
vn 0.9638966 -0.0037393 -0.2662507
vn 0.5039805 -0.8561500 -0.1140651
vn -0.4543578 -0.8798790 0.1391831
vn -0.9684610 -0.0068040 0.2490723
vn -0.4703660 0.8766220 0.1014382
vn 0.4950433 0.8540513 -0.1597765
vn 0.9638966 -0.0037393 -0.2662507
vn 0.8660254 -0.0000000 -0.5000000
vn 0.4660417 -0.8513449 -0.2408671
vn -0.3979985 -0.8821933 0.2516590
vn -0.8660254 -0.0000000 0.5000000
vn -0.4169423 0.8821933 0.2188473
vn 0.4416179 0.8513449 -0.2831704
vn 0.8660254 -0.0000000 -0.5000000
vn 0.7071068 -0.0000000 -0.7071068
vn 0.3878207 -0.8513449 -0.3532803
vn -0.3193029 -0.8821933 0.3460935
vn -0.7071068 -0.0000000 0.7071068
vn -0.3460935 0.8821933 0.3193029
vn 0.3532803 0.8513449 -0.3878207
vn 0.7071068 -0.0000000 -0.7071068
vn 0.5000000 0.0000000 -0.8660254
vn 0.2831704 -0.8513449 -0.4416179
vn -0.2188473 -0.8821933 0.4169423
vn -0.5000000 -0.0000000 0.8660254
vn -0.2516590 0.8821933 0.3979985
vn 0.2408671 0.8513449 -0.4660417
vn 0.5000000 0.0000000 -0.8660254
vn 0.2588190 0.0000000 -0.9659258
vn 0.1592224 -0.8513449 -0.4998600
vn -0.1034777 -0.8821933 0.4593772
vn -0.2588190 -0.0000000 0.9659258
vn -0.1400743 0.8821933 0.4495712
vn 0.1120393 0.8513449 -0.5125027
vn 0.2588190 0.0000000 -0.9659258
vn -0.0000000 0.0000000 -1.0000000
vn 0.0244238 -0.8513449 -0.5240375
vn 0.0189438 -0.8821933 0.4705063
vn 0.0000000 -0.0000000 1.0000000
vn -0.0189438 0.8821933 0.4705063
vn -0.0244238 0.8513449 -0.5240375
vn -0.0000000 0.0000000 -1.0000000
vn -0.2588190 0.0000000 -0.9659258
vn -0.1120393 -0.8513449 -0.5125027
vn 0.1400743 -0.8821933 0.4495712
vn 0.2588190 -0.0000000 0.9659258
vn 0.1034777 0.8821933 0.4593772
vn -0.1592224 0.8513449 -0.4998600
vn -0.2588190 0.0000000 -0.9659258
vn -0.5000000 -0.0000000 -0.8660254
vn -0.2408671 -0.8513449 -0.4660417
vn 0.2516590 -0.8821933 0.3979985
vn 0.5000000 -0.0000000 0.8660254
vn 0.2188473 0.8821933 0.4169423
vn -0.2831704 0.8513449 -0.4416179
vn -0.5000000 -0.0000000 -0.8660254
vn -0.7071068 -0.0000000 -0.7071068
vn -0.3532803 -0.8513449 -0.3878207
vn 0.3460935 -0.8821933 0.3193029
vn 0.7071068 -0.0000000 0.7071068
vn 0.3193029 0.8821933 0.3460935
vn -0.3878207 0.8513449 -0.3532803
vn -0.7071068 -0.0000000 -0.7071068
vn -0.8660254 0.0000000 -0.5000000
vn -0.4416179 -0.8513449 -0.2831704
vn 0.4169423 -0.8821933 0.2188473
vn 0.8660254 -0.0000000 0.5000000
vn 0.3979985 0.8821933 0.2516590
vn -0.4660417 0.8513449 -0.2408671
vn -0.8660254 0.0000000 -0.5000000
vn -0.9659258 -0.0000000 -0.2588190
vn -0.4998600 -0.8513449 -0.1592224
vn 0.4593772 -0.8821933 0.1034777
vn 0.9659258 -0.0000000 0.2588190
vn 0.4495712 0.8821933 0.1400743
vn -0.5125027 0.8513449 -0.1120393
vn -0.9659258 -0.0000000 -0.2588190
vn -1.0000000 0.0000000 -0.0000000
vn -0.5240375 -0.8513449 -0.0244238
vn 0.4705063 -0.8821933 -0.0189438
vn 1.0000000 -0.0000000 0.0000000
vn 0.4705063 0.8821933 0.0189438
vn -0.5240375 0.8513449 0.0244238
vn -1.0000000 0.0000000 -0.0000000
vn -0.9659258 0.0000000 0.2588190
vn -0.5125027 -0.8513449 0.1120393
vn 0.4495712 -0.8821933 -0.1400743
vn 0.9659258 -0.0000000 -0.2588190
vn 0.4593772 0.8821933 -0.1034777
vn -0.4998600 0.8513449 0.1592224
vn -0.9659258 0.0000000 0.2588190
vn -0.8660254 -0.0000000 0.5000000
vn -0.4660417 -0.8513449 0.2408671
vn 0.3979985 -0.8821933 -0.2516590
vn 0.8660254 -0.0000000 -0.5000000
vn 0.4169423 0.8821933 -0.2188473
vn -0.4416179 0.8513449 0.2831704
vn -0.8660254 -0.0000000 0.5000000
vn -0.7071068 -0.0000000 0.7071068
vn -0.3878207 -0.8513449 0.3532803
vn 0.3193029 -0.8821933 -0.3460935
vn 0.7071068 -0.0000000 -0.7071068
vn 0.3460935 0.8821933 -0.3193029
vn -0.3532803 0.8513449 0.3878207
vn -0.7071068 -0.0000000 0.7071068
vn -0.5000000 -0.0000000 0.8660254
vn -0.2831704 -0.8513449 0.4416179
vn 0.2188473 -0.8821933 -0.4169423
vn 0.5000000 -0.0000000 -0.8660254
vn 0.2516590 0.8821933 -0.3979985
vn -0.2408671 0.8513449 0.4660417
vn -0.5000000 -0.0000000 0.8660254
vn -0.2588190 0.0000000 0.9659258
vn -0.1592224 -0.8513449 0.4998600
vn 0.1034777 -0.8821933 -0.4593772
vn 0.2588190 -0.0000000 -0.9659258
vn 0.1400743 0.8821933 -0.4495712
vn -0.1120393 0.8513449 0.5125027
vn -0.2588190 0.0000000 0.9659258
vn -0.0000000 -0.0000000 1.0000000
vn -0.0244238 -0.8513449 0.5240375
vn -0.0189438 -0.8821933 -0.4705063
vn 0.0000000 -0.0000000 -1.0000000
vn 0.0189438 0.8821933 -0.4705063
vn 0.0244238 0.8513449 0.5240375
vn -0.0000000 -0.0000000 1.0000000
vn 0.2588190 -0.0000000 0.9659258
vn 0.1120393 -0.8513449 0.5125027
vn -0.1400743 -0.8821933 -0.4495712
vn -0.2588190 -0.0000000 -0.9659258
vn -0.1034777 0.8821933 -0.4593772
vn 0.1592224 0.8513449 0.4998600
vn 0.2588190 -0.0000000 0.9659258
vn 0.5000000 0.0000000 0.8660254
vn 0.2408671 -0.8513449 0.4660417
vn -0.2516590 -0.8821933 -0.3979985
vn -0.5000000 -0.0000000 -0.8660254
vn -0.2188473 0.8821933 -0.4169423
vn 0.2831704 0.8513449 0.4416179
vn 0.5000000 0.0000000 0.8660254
vn 0.7071068 0.0000000 0.7071068
vn 0.3532803 -0.8513449 0.3878207
vn -0.3460935 -0.8821933 -0.3193029
vn -0.7071068 -0.0000000 -0.7071068
vn -0.3193029 0.8821933 -0.3460935
vn 0.3878207 0.8513449 0.3532803
vn 0.7071068 0.0000000 0.7071068
vn 0.8660254 -0.0000000 0.5000000
vn 0.4416179 -0.8513449 0.2831704
vn -0.4169423 -0.8821933 -0.2188473
vn -0.8660254 -0.0000000 -0.5000000
vn -0.3979985 0.8821933 -0.2516590
vn 0.4660417 0.8513449 0.2408671
vn 0.8660254 -0.0000000 0.5000000
vn 0.9638966 0.0037393 0.2662507
vn 0.4950433 -0.8540513 0.1597765
vn -0.4703660 -0.8766220 -0.1014382
vn -0.9684610 0.0068040 -0.2490723
vn -0.4543578 0.8798790 -0.1391831
vn 0.5039805 0.8561500 0.1140651
vn 0.9638966 0.0037393 0.2662507
vn 0.9341885 0.1634011 -0.3171624
vn 0.6444460 -0.6734299 -0.3621899
vn -0.2130393 -0.8343591 -0.5083888
vn -0.7767828 -0.1682747 -0.6068708
vn -0.4949171 0.6597200 -0.5655321
vn 0.3596079 0.8323583 -0.4217366
vn 0.9341885 0.1634011 -0.3171624
vn 1.0000000 0.0000000 0.0000000
vn 1.0000000 0.0000000 0.0000000
f 1/1/1 2/2/2 9/9/9
f 1/1/1 9/9/9 8/8/8
f 2/2/2 3/3/3 10/10/10
f 2/2/2 10/10/10 9/9/9
f 3/3/3 4/4/4 11/11/11
f 3/3/3 11/11/11 10/10/10
f 4/4/4 5/5/5 12/12/12
f 4/4/4 12/12/12 11/11/11
f 5/5/5 6/6/6 13/13/13
f 5/5/5 13/13/13 12/12/12
f 6/6/6 7/7/7 14/14/14
f 6/6/6 14/14/14 13/13/13
f 8/8/8 9/9/9 16/16/16
f 8/8/8 16/16/16 15/15/15
f 9/9/9 10/10/10 17/17/17
f 9/9/9 17/17/17 16/16/16
f 10/10/10 11/11/11 18/18/18
f 10/10/10 18/18/18 17/17/17
f 11/11/11 12/12/12 19/19/19
f 11/11/11 19/19/19 18/18/18
f 12/12/12 13/13/13 20/20/20
f 12/12/12 20/20/20 19/19/19
f 13/13/13 14/14/14 21/21/21
f 13/13/13 21/21/21 20/20/20
f 15/15/15 16/16/16 23/23/23
f 15/15/15 23/23/23 22/22/22
f 16/16/16 17/17/17 24/24/24
f 16/16/16 24/24/24 23/23/23
f 17/17/17 18/18/18 25/25/25
f 17/17/17 25/25/25 24/24/24
f 18/18/18 19/19/19 26/26/26
f 18/18/18 26/26/26 25/25/25
f 19/19/19 20/20/20 27/27/27
f 19/19/19 27/27/27 26/26/26
f 20/20/20 21/21/21 28/28/28
f 20/20/20 28/28/28 27/27/27
f 22/22/22 23/23/23 30/30/30
f 22/22/22 30/30/30 29/29/29
f 23/23/23 24/24/24 31/31/31
f 23/23/23 31/31/31 30/30/30
f 24/24/24 25/25/25 32/32/32
f 24/24/24 32/32/32 31/31/31
f 25/25/25 26/26/26 33/33/33
f 25/25/25 33/33/33 32/32/32
f 26/26/26 27/27/27 34/34/34
f 26/26/26 34/34/34 33/33/33
f 27/27/27 28/28/28 35/35/35
f 27/27/27 35/35/35 34/34/34
f 29/29/29 30/30/30 37/37/37
f 29/29/29 37/37/37 36/36/36
f 30/30/30 31/31/31 38/38/38
f 30/30/30 38/38/38 37/37/37
f 31/31/31 32/32/32 39/39/39
f 31/31/31 39/39/39 38/38/38
f 32/32/32 33/33/33 40/40/40
f 32/32/32 40/40/40 39/39/39
f 33/33/33 34/34/34 41/41/41
f 33/33/33 41/41/41 40/40/40
f 34/34/34 35/35/35 42/42/42
f 34/34/34 42/42/42 41/41/41
f 36/36/36 37/37/37 44/44/44
f 36/36/36 44/44/44 43/43/43
f 37/37/37 38/38/38 45/45/45
f 37/37/37 45/45/45 44/44/44
f 38/38/38 39/39/39 46/46/46
f 38/38/38 46/46/46 45/45/45
f 39/39/39 40/40/40 47/47/47
f 39/39/39 47/47/47 46/46/46
f 40/40/40 41/41/41 48/48/48
f 40/40/40 48/48/48 47/47/47
f 41/41/41 42/42/42 49/49/49
f 41/41/41 49/49/49 48/48/48
f 43/43/43 44/44/44 51/51/51
f 43/43/43 51/51/51 50/50/50
f 44/44/44 45/45/45 52/52/52
f 44/44/44 52/52/52 51/51/51
f 45/45/45 46/46/46 53/53/53
f 45/45/45 53/53/53 52/52/52
f 46/46/46 47/47/47 54/54/54
f 46/46/46 54/54/54 53/53/53
f 47/47/47 48/48/48 55/55/55
f 47/47/47 55/55/55 54/54/54
f 48/48/48 49/49/49 56/56/56
f 48/48/48 56/56/56 55/55/55
f 50/50/50 51/51/51 58/58/58
f 50/50/50 58/58/58 57/57/57
f 51/51/51 52/52/52 59/59/59
f 51/51/51 59/59/59 58/58/58
f 52/52/52 53/53/53 60/60/60
f 52/52/52 60/60/60 59/59/59
f 53/53/53 54/54/54 61/61/61
f 53/53/53 61/61/61 60/60/60
f 54/54/54 55/55/55 62/62/62
f 54/54/54 62/62/62 61/61/61
f 55/55/55 56/56/56 63/63/63
f 55/55/55 63/63/63 62/62/62
f 57/57/57 58/58/58 65/65/65
f 57/57/57 65/65/65 64/64/64
f 58/58/58 59/59/59 66/66/66
f 58/58/58 66/66/66 65/65/65
f 59/59/59 60/60/60 67/67/67
f 59/59/59 67/67/67 66/66/66
f 60/60/60 61/61/61 68/68/68
f 60/60/60 68/68/68 67/67/67
f 61/61/61 62/62/62 69/69/69
f 61/61/61 69/69/69 68/68/68
f 62/62/62 63/63/63 70/70/70
f 62/62/62 70/70/70 69/69/69
f 64/64/64 65/65/65 72/72/72
f 64/64/64 72/72/72 71/71/71
f 65/65/65 66/66/66 73/73/73
f 65/65/65 73/73/73 72/72/72
f 66/66/66 67/67/67 74/74/74
f 66/66/66 74/74/74 73/73/73
f 67/67/67 68/68/68 75/75/75
f 67/67/67 75/75/75 74/74/74
f 68/68/68 69/69/69 76/76/76
f 68/68/68 76/76/76 75/75/75
f 69/69/69 70/70/70 77/77/77
f 69/69/69 77/77/77 76/76/76
f 71/71/71 72/72/72 79/79/79
f 71/71/71 79/79/79 78/78/78
f 72/72/72 73/73/73 80/80/80
f 72/72/72 80/80/80 79/79/79
f 73/73/73 74/74/74 81/81/81
f 73/73/73 81/81/81 80/80/80
f 74/74/74 75/75/75 82/82/82
f 74/74/74 82/82/82 81/81/81
f 75/75/75 76/76/76 83/83/83
f 75/75/75 83/83/83 82/82/82
f 76/76/76 77/77/77 84/84/84
f 76/76/76 84/84/84 83/83/83
f 78/78/78 79/79/79 86/86/86
f 78/78/78 86/86/86 85/85/85
f 79/79/79 80/80/80 87/87/87
f 79/79/79 87/87/87 86/86/86
f 80/80/80 81/81/81 88/88/88
f 80/80/80 88/88/88 87/87/87
f 81/81/81 82/82/82 89/89/89
f 81/81/81 89/89/89 88/88/88
f 82/82/82 83/83/83 90/90/90
f 82/82/82 90/90/90 89/89/89
f 83/83/83 84/84/84 91/91/91
f 83/83/83 91/91/91 90/90/90
f 85/85/85 86/86/86 93/93/93
f 85/85/85 93/93/93 92/92/92
f 86/86/86 87/87/87 94/94/94
f 86/86/86 94/94/94 93/93/93
f 87/87/87 88/88/88 95/95/95
f 87/87/87 95/95/95 94/94/94
f 88/88/88 89/89/89 96/96/96
f 88/88/88 96/96/96 95/95/95
f 89/89/89 90/90/90 97/97/97
f 89/89/89 97/97/97 96/96/96
f 90/90/90 91/91/91 98/98/98
f 90/90/90 98/98/98 97/97/97
f 92/92/92 93/93/93 100/100/100
f 92/92/92 100/100/100 99/99/99
f 93/93/93 94/94/94 101/101/101
f 93/93/93 101/101/101 100/100/100
f 94/94/94 95/95/95 102/102/102
f 94/94/94 102/102/102 101/101/101
f 95/95/95 96/96/96 103/103/103
f 95/95/95 103/103/103 102/102/102
f 96/96/96 97/97/97 104/104/104
f 96/96/96 104/104/104 103/103/103
f 97/97/97 98/98/98 105/105/105
f 97/97/97 105/105/105 104/104/104
f 99/99/99 100/100/100 107/107/107
f 99/99/99 107/107/107 106/106/106
f 100/100/100 101/101/101 108/108/108
f 100/100/100 108/108/108 107/107/107
f 101/101/101 102/102/102 109/109/109
f 101/101/101 109/109/109 108/108/108
f 102/102/102 103/103/103 110/110/110
f 102/102/102 110/110/110 109/109/109
f 103/103/103 104/104/104 111/111/111
f 103/103/103 111/111/111 110/110/110
f 104/104/104 105/105/105 112/112/112
f 104/104/104 112/112/112 111/111/111
f 106/106/106 107/107/107 114/114/114
f 106/106/106 114/114/114 113/113/113
f 107/107/107 108/108/108 115/115/115
f 107/107/107 115/115/115 114/114/114
f 108/108/108 109/109/109 116/116/116
f 108/108/108 116/116/116 115/115/115
f 109/109/109 110/110/110 117/117/117
f 109/109/109 117/117/117 116/116/116
f 110/110/110 111/111/111 118/118/118
f 110/110/110 118/118/118 117/117/117
f 111/111/111 112/112/112 119/119/119
f 111/111/111 119/119/119 118/118/118
f 113/113/113 114/114/114 121/121/121
f 113/113/113 121/121/121 120/120/120
f 114/114/114 115/115/115 122/122/122
f 114/114/114 122/122/122 121/121/121
f 115/115/115 116/116/116 123/123/123
f 115/115/115 123/123/123 122/122/122
f 116/116/116 117/117/117 124/124/124
f 116/116/116 124/124/124 123/123/123
f 117/117/117 118/118/118 125/125/125
f 117/117/117 125/125/125 124/124/124
f 118/118/118 119/119/119 126/126/126
f 118/118/118 126/126/126 125/125/125
f 120/120/120 121/121/121 128/128/128
f 120/120/120 128/128/128 127/127/127
f 121/121/121 122/122/122 129/129/129
f 121/121/121 129/129/129 128/128/128
f 122/122/122 123/123/123 130/130/130
f 122/122/122 130/130/130 129/129/129
f 123/123/123 124/124/124 131/131/131
f 123/123/123 131/131/131 130/130/130
f 124/124/124 125/125/125 132/132/132
f 124/124/124 132/132/132 131/131/131
f 125/125/125 126/126/126 133/133/133
f 125/125/125 133/133/133 132/132/132
f 127/127/127 128/128/128 135/135/135
f 127/127/127 135/135/135 134/134/134
f 128/128/128 129/129/129 136/136/136
f 128/128/128 136/136/136 135/135/135
f 129/129/129 130/130/130 137/137/137
f 129/129/129 137/137/137 136/136/136
f 130/130/130 131/131/131 138/138/138
f 130/130/130 138/138/138 137/137/137
f 131/131/131 132/132/132 139/139/139
f 131/131/131 139/139/139 138/138/138
f 132/132/132 133/133/133 140/140/140
f 132/132/132 140/140/140 139/139/139
f 134/134/134 135/135/135 142/142/142
f 134/134/134 142/142/142 141/141/141
f 135/135/135 136/136/136 143/143/143
f 135/135/135 143/143/143 142/142/142
f 136/136/136 137/137/137 144/144/144
f 136/136/136 144/144/144 143/143/143
f 137/137/137 138/138/138 145/145/145
f 137/137/137 145/145/145 144/144/144
f 138/138/138 139/139/139 146/146/146
f 138/138/138 146/146/146 145/145/145
f 139/139/139 140/140/140 147/147/147
f 139/139/139 147/147/147 146/146/146
f 141/141/141 142/142/142 149/149/149
f 141/141/141 149/149/149 148/148/148
f 142/142/142 143/143/143 150/150/150
f 142/142/142 150/150/150 149/149/149
f 143/143/143 144/144/144 151/151/151
f 143/143/143 151/151/151 150/150/150
f 144/144/144 145/145/145 152/152/152
f 144/144/144 152/152/152 151/151/151
f 145/145/145 146/146/146 153/153/153
f 145/145/145 153/153/153 152/152/152
f 146/146/146 147/147/147 154/154/154
f 146/146/146 154/154/154 153/153/153
f 148/148/148 149/149/149 156/156/156
f 148/148/148 156/156/156 155/155/155
f 149/149/149 150/150/150 157/157/157
f 149/149/149 157/157/157 156/156/156
f 150/150/150 151/151/151 158/158/158
f 150/150/150 158/158/158 157/157/157
f 151/151/151 152/152/152 159/159/159
f 151/151/151 159/159/159 158/158/158
f 152/152/152 153/153/153 160/160/160
f 152/152/152 160/160/160 159/159/159
f 153/153/153 154/154/154 161/161/161
f 153/153/153 161/161/161 160/160/160
f 155/155/155 156/156/156 163/163/163
f 155/155/155 163/163/163 162/162/162
f 156/156/156 157/157/157 164/164/164
f 156/156/156 164/164/164 163/163/163
f 157/157/157 158/158/158 165/165/165
f 157/157/157 165/165/165 164/164/164
f 158/158/158 159/159/159 166/166/166
f 158/158/158 166/166/166 165/165/165
f 159/159/159 160/160/160 167/167/167
f 159/159/159 167/167/167 166/166/166
f 160/160/160 161/161/161 168/168/168
f 160/160/160 168/168/168 167/167/167
f 162/162/162 163/163/163 170/170/170
f 162/162/162 170/170/170 169/169/169
f 163/163/163 164/164/164 171/171/171
f 163/163/163 171/171/171 170/170/170
f 164/164/164 165/165/165 172/172/172
f 164/164/164 172/172/172 171/171/171
f 165/165/165 166/166/166 173/173/173
f 165/165/165 173/173/173 172/172/172
f 166/166/166 167/167/167 174/174/174
f 166/166/166 174/174/174 173/173/173
f 167/167/167 168/168/168 175/175/175
f 167/167/167 175/175/175 174/174/174
f 176/176/176 2/2/2 1/1/1
f 176/176/176 3/3/3 2/2/2
f 176/176/176 4/4/4 3/3/3
f 176/176/176 5/5/5 4/4/4
f 176/176/176 6/6/6 5/5/5
f 176/176/176 7/7/7 6/6/6
f 177/177/177 169/169/169 170/170/170
f 177/177/177 170/170/170 171/171/171
f 177/177/177 171/171/171 172/172/172
f 177/177/177 172/172/172 173/173/173
f 177/177/177 173/173/173 174/174/174
f 177/177/177 174/174/174 175/175/175
o Band_chased_rim
v 4.182096 1.456122 -0.703516
v 4.092866 1.300237 -0.691768
v 3.914406 1.300237 -0.668274
v 3.825176 1.456122 -0.656526
v 3.914406 1.612006 -0.668274
v 4.092866 1.612006 -0.691768
v 4.182096 1.456122 -0.703516
v 4.041206 1.456122 -1.761885
v 3.954273 1.300237 -1.738591
v 3.780406 1.300237 -1.692003
v 3.693473 1.456122 -1.668710
v 3.780406 1.612006 -1.692003
v 3.954273 1.612006 -1.738591
v 4.041206 1.456122 -1.761885
v 3.623622 1.456122 -2.770021
v 3.545680 1.300237 -2.725021
v 3.389795 1.300237 -2.635021
v 3.311853 1.456122 -2.590021
v 3.389795 1.612006 -2.635021
v 3.545680 1.612006 -2.725021
v 3.623622 1.456122 -2.770021
v 2.959342 1.456122 -3.635727
v 2.895703 1.300237 -3.572088
v 2.768423 1.300237 -3.444809
v 2.704784 1.456122 -3.381169
v 2.768423 1.612006 -3.444809
v 2.895703 1.612006 -3.572088
v 2.959342 1.456122 -3.635727
v 2.093636 1.456122 -4.300007
v 2.048636 1.300237 -4.222065
v 1.958636 1.300237 -4.066180
v 1.913636 1.456122 -3.988238
v 1.958636 1.612006 -4.066180
v 2.048636 1.612006 -4.222065
v 2.093636 1.456122 -4.300007
v 1.085500 1.456122 -4.717591
v 1.062206 1.300237 -4.630658
v 1.015618 1.300237 -4.456791
v 0.992325 1.456122 -4.369858
v 1.015618 1.612006 -4.456791
v 1.062206 1.612006 -4.630658
v 1.085500 1.456122 -4.717591
v 0.003636 1.456122 -4.860021
v 0.003636 1.300237 -4.770021
v 0.003636 1.300237 -4.590021
v 0.003636 1.456122 -4.500021
v 0.003636 1.612006 -4.590021
v 0.003636 1.612006 -4.770021
v 0.003636 1.456122 -4.860021
v -1.078228 1.456122 -4.717591
v -1.054934 1.300237 -4.630658
v -1.008347 1.300237 -4.456791
v -0.985053 1.456122 -4.369858
v -1.008347 1.612006 -4.456791
v -1.054934 1.612006 -4.630658
v -1.078228 1.456122 -4.717591
v -2.086364 1.456122 -4.300007
v -2.041364 1.300237 -4.222065
v -1.951364 1.300237 -4.066180
v -1.906364 1.456122 -3.988238
v -1.951364 1.612006 -4.066180
v -2.041364 1.612006 -4.222065
v -2.086364 1.456122 -4.300007
v -2.952070 1.456122 -3.635727
v -2.888431 1.300237 -3.572088
v -2.761152 1.300237 -3.444809
v -2.697512 1.456122 -3.381169
v -2.761152 1.612006 -3.444809
v -2.888431 1.612006 -3.572088
v -2.952070 1.456122 -3.635727
v -3.616350 1.456122 -2.770021
v -3.538408 1.300237 -2.725021
v -3.382523 1.300237 -2.635021
v -3.304581 1.456122 -2.590021
v -3.382523 1.612006 -2.635021
v -3.538408 1.612006 -2.725021
v -3.616350 1.456122 -2.770021
v -4.033934 1.456122 -1.761885
v -3.947001 1.300237 -1.738591
v -3.773134 1.300237 -1.692003
v -3.686201 1.456122 -1.668710
v -3.773134 1.612006 -1.692003
v -3.947001 1.612006 -1.738591
v -4.033934 1.456122 -1.761885
v -4.176364 1.456122 -0.680021
v -4.086364 1.300237 -0.680021
v -3.906364 1.300237 -0.680021
v -3.816364 1.456122 -0.680021
v -3.906364 1.612006 -0.680021
v -4.086364 1.612006 -0.680021
v -4.176364 1.456122 -0.680021
v -4.033934 1.456122 0.401843
v -3.947001 1.300237 0.378549
v -3.773134 1.300237 0.331961
v -3.686201 1.456122 0.308668
v -3.773134 1.612006 0.331961
v -3.947001 1.612006 0.378549
v -4.033934 1.456122 0.401843
v -3.616350 1.456122 1.409979
v -3.538408 1.300237 1.364979
v -3.382523 1.300237 1.274979
v -3.304581 1.456122 1.229979
v -3.382523 1.612006 1.274979
v -3.538408 1.612006 1.364979
v -3.616350 1.456122 1.409979
v -2.952070 1.456122 2.275685
v -2.888431 1.300237 2.212046
v -2.761152 1.300237 2.084767
v -2.697512 1.456122 2.021127
v -2.761152 1.612006 2.084767
v -2.888431 1.612006 2.212046
v -2.952070 1.456122 2.275685
v -2.086364 1.456122 2.939965
v -2.041364 1.300237 2.862023
v -1.951364 1.300237 2.706138
v -1.906364 1.456122 2.628196
v -1.951364 1.612006 2.706138
v -2.041364 1.612006 2.862023
v -2.086364 1.456122 2.939965
v -1.078228 1.456122 3.357549
v -1.054934 1.300237 3.270616
v -1.008347 1.300237 3.096749
v -0.985053 1.456122 3.009816
v -1.008347 1.612006 3.096749
v -1.054934 1.612006 3.270616
v -1.078228 1.456122 3.357549
v 0.003636 1.456122 3.499979
v 0.003636 1.300237 3.409979
v 0.003636 1.300237 3.229979
v 0.003636 1.456122 3.139979
v 0.003636 1.612006 3.229979
v 0.003636 1.612006 3.409979
v 0.003636 1.456122 3.499979
v 1.085500 1.456122 3.357549
v 1.062206 1.300237 3.270616
v 1.015618 1.300237 3.096749
v 0.992325 1.456122 3.009816
v 1.015618 1.612006 3.096749
v 1.062206 1.612006 3.270616
v 1.085500 1.456122 3.357549
v 2.093636 1.456122 2.939965
v 2.048636 1.300237 2.862023
v 1.958636 1.300237 2.706138
v 1.913636 1.456122 2.628196
v 1.958636 1.612006 2.706138
v 2.048636 1.612006 2.862023
v 2.093636 1.456122 2.939965
v 2.959342 1.456122 2.275685
v 2.895703 1.300237 2.212046
v 2.768423 1.300237 2.084767
v 2.704784 1.456122 2.021127
v 2.768423 1.612006 2.084767
v 2.895703 1.612006 2.212046
v 2.959342 1.456122 2.275685
v 3.623622 1.456122 1.409979
v 3.545680 1.300237 1.364979
v 3.389795 1.300237 1.274979
v 3.311853 1.456122 1.229979
v 3.389795 1.612006 1.274979
v 3.545680 1.612006 1.364979
v 3.623622 1.456122 1.409979
v 4.041206 1.456122 0.401843
v 3.954273 1.300237 0.378549
v 3.780406 1.300237 0.331961
v 3.693473 1.456122 0.308668
v 3.780406 1.612006 0.331961
v 3.954273 1.612006 0.378549
v 4.041206 1.456122 0.401843
v 4.182096 1.456122 -0.656526
v 4.092866 1.300237 -0.668274
v 3.914406 1.300237 -0.691768
v 3.825176 1.456122 -0.703516
v 3.914406 1.612006 -0.691768
v 4.092866 1.612006 -0.668274
v 4.182096 1.456122 -0.656526
v 4.003636 1.456122 -0.680021
v 4.003636 1.456122 -0.680021
vt 0.2587500 0.9912500
vt 0.2975000 0.9912500
vt 0.3362500 0.9912500
vt 0.3750000 0.9912500
vt 0.4137500 0.9912500
vt 0.4525000 0.9912500
vt 0.4912500 0.9912500
vt 0.2587500 0.9815625
vt 0.2975000 0.9815625
vt 0.3362500 0.9815625
vt 0.3750000 0.9815625
vt 0.4137500 0.9815625
vt 0.4525000 0.9815625
vt 0.4912500 0.9815625
vt 0.2587500 0.9718750
vt 0.2975000 0.9718750
vt 0.3362500 0.9718750
vt 0.3750000 0.9718750
vt 0.4137500 0.9718750
vt 0.4525000 0.9718750
vt 0.4912500 0.9718750
vt 0.2587500 0.9621875
vt 0.2975000 0.9621875
vt 0.3362500 0.9621875
vt 0.3750000 0.9621875
vt 0.4137500 0.9621875
vt 0.4525000 0.9621875
vt 0.4912500 0.9621875
vt 0.2587500 0.9525000
vt 0.2975000 0.9525000
vt 0.3362500 0.9525000
vt 0.3750000 0.9525000
vt 0.4137500 0.9525000
vt 0.4525000 0.9525000
vt 0.4912500 0.9525000
vt 0.2587500 0.9428125
vt 0.2975000 0.9428125
vt 0.3362500 0.9428125
vt 0.3750000 0.9428125
vt 0.4137500 0.9428125
vt 0.4525000 0.9428125
vt 0.4912500 0.9428125
vt 0.2587500 0.9331250
vt 0.2975000 0.9331250
vt 0.3362500 0.9331250
vt 0.3750000 0.9331250
vt 0.4137500 0.9331250
vt 0.4525000 0.9331250
vt 0.4912500 0.9331250
vt 0.2587500 0.9234375
vt 0.2975000 0.9234375
vt 0.3362500 0.9234375
vt 0.3750000 0.9234375
vt 0.4137500 0.9234375
vt 0.4525000 0.9234375
vt 0.4912500 0.9234375
vt 0.2587500 0.9137500
vt 0.2975000 0.9137500
vt 0.3362500 0.9137500
vt 0.3750000 0.9137500
vt 0.4137500 0.9137500
vt 0.4525000 0.9137500
vt 0.4912500 0.9137500
vt 0.2587500 0.9040625
vt 0.2975000 0.9040625
vt 0.3362500 0.9040625
vt 0.3750000 0.9040625
vt 0.4137500 0.9040625
vt 0.4525000 0.9040625
vt 0.4912500 0.9040625
vt 0.2587500 0.8943750
vt 0.2975000 0.8943750
vt 0.3362500 0.8943750
vt 0.3750000 0.8943750
vt 0.4137500 0.8943750
vt 0.4525000 0.8943750
vt 0.4912500 0.8943750
vt 0.2587500 0.8846875
vt 0.2975000 0.8846875
vt 0.3362500 0.8846875
vt 0.3750000 0.8846875
vt 0.4137500 0.8846875
vt 0.4525000 0.8846875
vt 0.4912500 0.8846875
vt 0.2587500 0.8750000
vt 0.2975000 0.8750000
vt 0.3362500 0.8750000
vt 0.3750000 0.8750000
vt 0.4137500 0.8750000
vt 0.4525000 0.8750000
vt 0.4912500 0.8750000
vt 0.2587500 0.8653125
vt 0.2975000 0.8653125
vt 0.3362500 0.8653125
vt 0.3750000 0.8653125
vt 0.4137500 0.8653125
vt 0.4525000 0.8653125
vt 0.4912500 0.8653125
vt 0.2587500 0.8556250
vt 0.2975000 0.8556250
vt 0.3362500 0.8556250
vt 0.3750000 0.8556250
vt 0.4137500 0.8556250
vt 0.4525000 0.8556250
vt 0.4912500 0.8556250
vt 0.2587500 0.8459375
vt 0.2975000 0.8459375
vt 0.3362500 0.8459375
vt 0.3750000 0.8459375
vt 0.4137500 0.8459375
vt 0.4525000 0.8459375
vt 0.4912500 0.8459375
vt 0.2587500 0.8362500
vt 0.2975000 0.8362500
vt 0.3362500 0.8362500
vt 0.3750000 0.8362500
vt 0.4137500 0.8362500
vt 0.4525000 0.8362500
vt 0.4912500 0.8362500
vt 0.2587500 0.8265625
vt 0.2975000 0.8265625
vt 0.3362500 0.8265625
vt 0.3750000 0.8265625
vt 0.4137500 0.8265625
vt 0.4525000 0.8265625
vt 0.4912500 0.8265625
vt 0.2587500 0.8168750
vt 0.2975000 0.8168750
vt 0.3362500 0.8168750
vt 0.3750000 0.8168750
vt 0.4137500 0.8168750
vt 0.4525000 0.8168750
vt 0.4912500 0.8168750
vt 0.2587500 0.8071875
vt 0.2975000 0.8071875
vt 0.3362500 0.8071875
vt 0.3750000 0.8071875
vt 0.4137500 0.8071875
vt 0.4525000 0.8071875
vt 0.4912500 0.8071875
vt 0.2587500 0.7975000
vt 0.2975000 0.7975000
vt 0.3362500 0.7975000
vt 0.3750000 0.7975000
vt 0.4137500 0.7975000
vt 0.4525000 0.7975000
vt 0.4912500 0.7975000
vt 0.2587500 0.7878125
vt 0.2975000 0.7878125
vt 0.3362500 0.7878125
vt 0.3750000 0.7878125
vt 0.4137500 0.7878125
vt 0.4525000 0.7878125
vt 0.4912500 0.7878125
vt 0.2587500 0.7781250
vt 0.2975000 0.7781250
vt 0.3362500 0.7781250
vt 0.3750000 0.7781250
vt 0.4137500 0.7781250
vt 0.4525000 0.7781250
vt 0.4912500 0.7781250
vt 0.2587500 0.7684375
vt 0.2975000 0.7684375
vt 0.3362500 0.7684375
vt 0.3750000 0.7684375
vt 0.4137500 0.7684375
vt 0.4525000 0.7684375
vt 0.4912500 0.7684375
vt 0.2587500 0.7587500
vt 0.2975000 0.7587500
vt 0.3362500 0.7587500
vt 0.3750000 0.7587500
vt 0.4137500 0.7587500
vt 0.4525000 0.7587500
vt 0.4912500 0.7587500
vt 0.3750000 0.8750000
vt 0.3750000 0.8750000
vn 0.9825468 -0.1849991 -0.0194191
vn 0.3406663 -0.9377221 0.0679976
vn -0.6298385 -0.7512844 0.1971680
vn -0.9526193 0.1875760 0.2394403
vn -0.3061493 0.9394655 0.1538739
vn 0.6612645 0.7497754 0.0237926
vn 0.9825468 -0.1849991 -0.0194191
vn 0.9654589 -0.0002362 -0.2605553
vn 0.4916767 -0.8638747 -0.1094284
vn -0.4721266 -0.8689932 0.1481464
vn -0.9664146 -0.0019588 0.2569805
vn -0.4845807 0.8682070 0.1067622
vn 0.4806824 0.8635361 -0.1524790
vn 0.9654589 -0.0002362 -0.2605553
vn 0.8660254 0.0000000 -0.5000000
vn 0.4489254 -0.8626016 -0.2332049
vn -0.4172664 -0.8691179 0.2655615
vn -0.8660254 -0.0000000 0.5000000
vn -0.4386162 0.8691179 0.2285826
vn 0.4264240 0.8626016 -0.2721783
vn 0.8660254 0.0000000 -0.5000000
vn 0.7071068 0.0000000 -0.7071068
vn 0.3732707 -0.8626016 -0.3414491
vn -0.3343160 -0.8691179 0.3645092
vn -0.7071068 -0.0000000 0.7071068
vn -0.3645092 0.8691179 0.3343160
vn 0.3414491 0.8626016 -0.3732707
vn 0.7071068 0.0000000 -0.7071068
vn 0.5000000 -0.0000000 -0.8660254
vn 0.2721783 -0.8626016 -0.4264240
vn -0.2285826 -0.8691179 0.4386162
vn -0.5000000 -0.0000000 0.8660254
vn -0.2655615 0.8691179 0.4172664
vn 0.2332049 0.8626016 -0.4489254
vn 0.5000000 -0.0000000 -0.8660254
vn 0.2588190 0.0000000 -0.9659258
vn 0.1525374 -0.8626016 -0.4823389
vn -0.1072716 -0.8691179 0.4828322
vn -0.2588190 0.0000000 0.9659258
vn -0.1485162 0.8691179 0.4717808
vn 0.1090682 0.8626016 -0.4939865
vn 0.2588190 0.0000000 -0.9659258
vn 0.0000000 -0.0000000 -1.0000000
vn 0.0225013 -0.8626016 -0.5053832
vn 0.0213498 -0.8691179 0.4941440
vn 0.0000000 0.0000000 1.0000000
vn -0.0213498 0.8691179 0.4941440
vn -0.0225013 0.8626016 -0.5053832
vn 0.0000000 -0.0000000 -1.0000000
vn -0.2588190 -0.0000000 -0.9659258
vn -0.1090682 -0.8626016 -0.4939865
vn 0.1485162 -0.8691179 0.4717808
vn 0.2588190 -0.0000000 0.9659258
vn 0.1072716 0.8691179 0.4828322
vn -0.1525374 0.8626016 -0.4823389
vn -0.2588190 -0.0000000 -0.9659258
vn -0.5000000 0.0000000 -0.8660254
vn -0.2332049 -0.8626016 -0.4489254
vn 0.2655615 -0.8691179 0.4172664
vn 0.5000000 0.0000000 0.8660254
vn 0.2285826 0.8691179 0.4386162
vn -0.2721783 0.8626016 -0.4264240
vn -0.5000000 0.0000000 -0.8660254
vn -0.7071068 -0.0000000 -0.7071068
vn -0.3414491 -0.8626016 -0.3732707
vn 0.3645092 -0.8691179 0.3343160
vn 0.7071068 0.0000000 0.7071068
vn 0.3343160 0.8691179 0.3645092
vn -0.3732707 0.8626016 -0.3414491
vn -0.7071068 -0.0000000 -0.7071068
vn -0.8660254 0.0000000 -0.5000000
vn -0.4264240 -0.8626016 -0.2721783
vn 0.4386162 -0.8691179 0.2285826
vn 0.8660254 -0.0000000 0.5000000
vn 0.4172664 0.8691179 0.2655615
vn -0.4489254 0.8626016 -0.2332049
vn -0.8660254 0.0000000 -0.5000000
vn -0.9659258 -0.0000000 -0.2588190
vn -0.4823389 -0.8626016 -0.1525374
vn 0.4828322 -0.8691179 0.1072716
vn 0.9659258 -0.0000000 0.2588190
vn 0.4717808 0.8691179 0.1485162
vn -0.4939865 0.8626016 -0.1090682
vn -0.9659258 -0.0000000 -0.2588190
vn -1.0000000 -0.0000000 -0.0000000
vn -0.5053832 -0.8626016 -0.0225013
vn 0.4941440 -0.8691179 -0.0213498
vn 1.0000000 -0.0000000 0.0000000
vn 0.4941440 0.8691179 0.0213498
vn -0.5053832 0.8626016 0.0225013
vn -1.0000000 -0.0000000 -0.0000000
vn -0.9659258 0.0000000 0.2588190
vn -0.4939865 -0.8626016 0.1090682
vn 0.4717808 -0.8691179 -0.1485162
vn 0.9659258 -0.0000000 -0.2588190
vn 0.4828322 0.8691179 -0.1072716
vn -0.4823389 0.8626016 0.1525374
vn -0.9659258 0.0000000 0.2588190
vn -0.8660254 0.0000000 0.5000000
vn -0.4489254 -0.8626016 0.2332049
vn 0.4172664 -0.8691179 -0.2655615
vn 0.8660254 -0.0000000 -0.5000000
vn 0.4386162 0.8691179 -0.2285826
vn -0.4264240 0.8626016 0.2721783
vn -0.8660254 0.0000000 0.5000000
vn -0.7071068 -0.0000000 0.7071068
vn -0.3732707 -0.8626016 0.3414491
vn 0.3343160 -0.8691179 -0.3645092
vn 0.7071068 0.0000000 -0.7071068
vn 0.3645092 0.8691179 -0.3343160
vn -0.3414491 0.8626016 0.3732707
vn -0.7071068 -0.0000000 0.7071068
vn -0.5000000 -0.0000000 0.8660254
vn -0.2721783 -0.8626016 0.4264240
vn 0.2285826 -0.8691179 -0.4386162
vn 0.5000000 -0.0000000 -0.8660254
vn 0.2655615 0.8691179 -0.4172664
vn -0.2332049 0.8626016 0.4489254
vn -0.5000000 -0.0000000 0.8660254
vn -0.2588190 0.0000000 0.9659258
vn -0.1525374 -0.8626016 0.4823389
vn 0.1072716 -0.8691179 -0.4828322
vn 0.2588190 -0.0000000 -0.9659258
vn 0.1485162 0.8691179 -0.4717808
vn -0.1090682 0.8626016 0.4939865
vn -0.2588190 0.0000000 0.9659258
vn -0.0000000 0.0000000 1.0000000
vn -0.0225013 -0.8626016 0.5053832
vn -0.0213498 -0.8691179 -0.4941440
vn 0.0000000 -0.0000000 -1.0000000
vn 0.0213498 0.8691179 -0.4941440
vn 0.0225013 0.8626016 0.5053832
vn -0.0000000 0.0000000 1.0000000
vn 0.2588190 -0.0000000 0.9659258
vn 0.1090682 -0.8626016 0.4939865
vn -0.1485162 -0.8691179 -0.4717808
vn -0.2588190 -0.0000000 -0.9659258
vn -0.1072716 0.8691179 -0.4828322
vn 0.1525374 0.8626016 0.4823389
vn 0.2588190 -0.0000000 0.9659258
vn 0.5000000 0.0000000 0.8660254
vn 0.2332049 -0.8626016 0.4489254
vn -0.2655615 -0.8691179 -0.4172664
vn -0.5000000 -0.0000000 -0.8660254
vn -0.2285826 0.8691179 -0.4386162
vn 0.2721783 0.8626016 0.4264240
vn 0.5000000 0.0000000 0.8660254
vn 0.7071068 0.0000000 0.7071068
vn 0.3414491 -0.8626016 0.3732707
vn -0.3645092 -0.8691179 -0.3343160
vn -0.7071068 0.0000000 -0.7071068
vn -0.3343160 0.8691179 -0.3645092
vn 0.3732707 0.8626016 0.3414491
vn 0.7071068 0.0000000 0.7071068
vn 0.8660254 -0.0000000 0.5000000
vn 0.4264240 -0.8626016 0.2721783
vn -0.4386162 -0.8691179 -0.2285826
vn -0.8660254 -0.0000000 -0.5000000
vn -0.4172664 0.8691179 -0.2655615
vn 0.4489254 0.8626016 0.2332049
vn 0.8660254 -0.0000000 0.5000000
vn 0.9654589 0.0002362 0.2605553
vn 0.4806824 -0.8635361 0.1524790
vn -0.4845807 -0.8682070 -0.1067622
vn -0.9664146 0.0019588 -0.2569805
vn -0.4721266 0.8689932 -0.1481464
vn 0.4916767 0.8638747 0.1094284
vn 0.9654589 0.0002362 0.2605553
vn 0.9825468 0.1849991 0.0194191
vn 0.6612645 -0.7497754 -0.0237926
vn -0.3061493 -0.9394655 -0.1538739
vn -0.9526193 -0.1875760 -0.2394403
vn -0.6298385 0.7512844 -0.1971680
vn 0.3406663 0.9377221 -0.0679976
vn 0.9825468 0.1849991 0.0194191
vn 1.0000000 -0.0000000 0.0000000
vn 1.0000000 -0.0000000 0.0000000
f 178/178/178 179/179/179 186/186/186
f 178/178/178 186/186/186 185/185/185
f 179/179/179 180/180/180 187/187/187
f 179/179/179 187/187/187 186/186/186
f 180/180/180 181/181/181 188/188/188
f 180/180/180 188/188/188 187/187/187
f 181/181/181 182/182/182 189/189/189
f 181/181/181 189/189/189 188/188/188
f 182/182/182 183/183/183 190/190/190
f 182/182/182 190/190/190 189/189/189
f 183/183/183 184/184/184 191/191/191
f 183/183/183 191/191/191 190/190/190
f 185/185/185 186/186/186 193/193/193
f 185/185/185 193/193/193 192/192/192
f 186/186/186 187/187/187 194/194/194
f 186/186/186 194/194/194 193/193/193
f 187/187/187 188/188/188 195/195/195
f 187/187/187 195/195/195 194/194/194
f 188/188/188 189/189/189 196/196/196
f 188/188/188 196/196/196 195/195/195
f 189/189/189 190/190/190 197/197/197
f 189/189/189 197/197/197 196/196/196
f 190/190/190 191/191/191 198/198/198
f 190/190/190 198/198/198 197/197/197
f 192/192/192 193/193/193 200/200/200
f 192/192/192 200/200/200 199/199/199
f 193/193/193 194/194/194 201/201/201
f 193/193/193 201/201/201 200/200/200
f 194/194/194 195/195/195 202/202/202
f 194/194/194 202/202/202 201/201/201
f 195/195/195 196/196/196 203/203/203
f 195/195/195 203/203/203 202/202/202
f 196/196/196 197/197/197 204/204/204
f 196/196/196 204/204/204 203/203/203
f 197/197/197 198/198/198 205/205/205
f 197/197/197 205/205/205 204/204/204
f 199/199/199 200/200/200 207/207/207
f 199/199/199 207/207/207 206/206/206
f 200/200/200 201/201/201 208/208/208
f 200/200/200 208/208/208 207/207/207
f 201/201/201 202/202/202 209/209/209
f 201/201/201 209/209/209 208/208/208
f 202/202/202 203/203/203 210/210/210
f 202/202/202 210/210/210 209/209/209
f 203/203/203 204/204/204 211/211/211
f 203/203/203 211/211/211 210/210/210
f 204/204/204 205/205/205 212/212/212
f 204/204/204 212/212/212 211/211/211
f 206/206/206 207/207/207 214/214/214
f 206/206/206 214/214/214 213/213/213
f 207/207/207 208/208/208 215/215/215
f 207/207/207 215/215/215 214/214/214
f 208/208/208 209/209/209 216/216/216
f 208/208/208 216/216/216 215/215/215
f 209/209/209 210/210/210 217/217/217
f 209/209/209 217/217/217 216/216/216
f 210/210/210 211/211/211 218/218/218
f 210/210/210 218/218/218 217/217/217
f 211/211/211 212/212/212 219/219/219
f 211/211/211 219/219/219 218/218/218
f 213/213/213 214/214/214 221/221/221
f 213/213/213 221/221/221 220/220/220
f 214/214/214 215/215/215 222/222/222
f 214/214/214 222/222/222 221/221/221
f 215/215/215 216/216/216 223/223/223
f 215/215/215 223/223/223 222/222/222
f 216/216/216 217/217/217 224/224/224
f 216/216/216 224/224/224 223/223/223
f 217/217/217 218/218/218 225/225/225
f 217/217/217 225/225/225 224/224/224
f 218/218/218 219/219/219 226/226/226
f 218/218/218 226/226/226 225/225/225
f 220/220/220 221/221/221 228/228/228
f 220/220/220 228/228/228 227/227/227
f 221/221/221 222/222/222 229/229/229
f 221/221/221 229/229/229 228/228/228
f 222/222/222 223/223/223 230/230/230
f 222/222/222 230/230/230 229/229/229
f 223/223/223 224/224/224 231/231/231
f 223/223/223 231/231/231 230/230/230
f 224/224/224 225/225/225 232/232/232
f 224/224/224 232/232/232 231/231/231
f 225/225/225 226/226/226 233/233/233
f 225/225/225 233/233/233 232/232/232
f 227/227/227 228/228/228 235/235/235
f 227/227/227 235/235/235 234/234/234
f 228/228/228 229/229/229 236/236/236
f 228/228/228 236/236/236 235/235/235
f 229/229/229 230/230/230 237/237/237
f 229/229/229 237/237/237 236/236/236
f 230/230/230 231/231/231 238/238/238
f 230/230/230 238/238/238 237/237/237
f 231/231/231 232/232/232 239/239/239
f 231/231/231 239/239/239 238/238/238
f 232/232/232 233/233/233 240/240/240
f 232/232/232 240/240/240 239/239/239
f 234/234/234 235/235/235 242/242/242
f 234/234/234 242/242/242 241/241/241
f 235/235/235 236/236/236 243/243/243
f 235/235/235 243/243/243 242/242/242
f 236/236/236 237/237/237 244/244/244
f 236/236/236 244/244/244 243/243/243
f 237/237/237 238/238/238 245/245/245
f 237/237/237 245/245/245 244/244/244
f 238/238/238 239/239/239 246/246/246
f 238/238/238 246/246/246 245/245/245
f 239/239/239 240/240/240 247/247/247
f 239/239/239 247/247/247 246/246/246
f 241/241/241 242/242/242 249/249/249
f 241/241/241 249/249/249 248/248/248
f 242/242/242 243/243/243 250/250/250
f 242/242/242 250/250/250 249/249/249
f 243/243/243 244/244/244 251/251/251
f 243/243/243 251/251/251 250/250/250
f 244/244/244 245/245/245 252/252/252
f 244/244/244 252/252/252 251/251/251
f 245/245/245 246/246/246 253/253/253
f 245/245/245 253/253/253 252/252/252
f 246/246/246 247/247/247 254/254/254
f 246/246/246 254/254/254 253/253/253
f 248/248/248 249/249/249 256/256/256
f 248/248/248 256/256/256 255/255/255
f 249/249/249 250/250/250 257/257/257
f 249/249/249 257/257/257 256/256/256
f 250/250/250 251/251/251 258/258/258
f 250/250/250 258/258/258 257/257/257
f 251/251/251 252/252/252 259/259/259
f 251/251/251 259/259/259 258/258/258
f 252/252/252 253/253/253 260/260/260
f 252/252/252 260/260/260 259/259/259
f 253/253/253 254/254/254 261/261/261
f 253/253/253 261/261/261 260/260/260
f 255/255/255 256/256/256 263/263/263
f 255/255/255 263/263/263 262/262/262
f 256/256/256 257/257/257 264/264/264
f 256/256/256 264/264/264 263/263/263
f 257/257/257 258/258/258 265/265/265
f 257/257/257 265/265/265 264/264/264
f 258/258/258 259/259/259 266/266/266
f 258/258/258 266/266/266 265/265/265
f 259/259/259 260/260/260 267/267/267
f 259/259/259 267/267/267 266/266/266
f 260/260/260 261/261/261 268/268/268
f 260/260/260 268/268/268 267/267/267
f 262/262/262 263/263/263 270/270/270
f 262/262/262 270/270/270 269/269/269
f 263/263/263 264/264/264 271/271/271
f 263/263/263 271/271/271 270/270/270
f 264/264/264 265/265/265 272/272/272
f 264/264/264 272/272/272 271/271/271
f 265/265/265 266/266/266 273/273/273
f 265/265/265 273/273/273 272/272/272
f 266/266/266 267/267/267 274/274/274
f 266/266/266 274/274/274 273/273/273
f 267/267/267 268/268/268 275/275/275
f 267/267/267 275/275/275 274/274/274
f 269/269/269 270/270/270 277/277/277
f 269/269/269 277/277/277 276/276/276
f 270/270/270 271/271/271 278/278/278
f 270/270/270 278/278/278 277/277/277
f 271/271/271 272/272/272 279/279/279
f 271/271/271 279/279/279 278/278/278
f 272/272/272 273/273/273 280/280/280
f 272/272/272 280/280/280 279/279/279
f 273/273/273 274/274/274 281/281/281
f 273/273/273 281/281/281 280/280/280
f 274/274/274 275/275/275 282/282/282
f 274/274/274 282/282/282 281/281/281
f 276/276/276 277/277/277 284/284/284
f 276/276/276 284/284/284 283/283/283
f 277/277/277 278/278/278 285/285/285
f 277/277/277 285/285/285 284/284/284
f 278/278/278 279/279/279 286/286/286
f 278/278/278 286/286/286 285/285/285
f 279/279/279 280/280/280 287/287/287
f 279/279/279 287/287/287 286/286/286
f 280/280/280 281/281/281 288/288/288
f 280/280/280 288/288/288 287/287/287
f 281/281/281 282/282/282 289/289/289
f 281/281/281 289/289/289 288/288/288
f 283/283/283 284/284/284 291/291/291
f 283/283/283 291/291/291 290/290/290
f 284/284/284 285/285/285 292/292/292
f 284/284/284 292/292/292 291/291/291
f 285/285/285 286/286/286 293/293/293
f 285/285/285 293/293/293 292/292/292
f 286/286/286 287/287/287 294/294/294
f 286/286/286 294/294/294 293/293/293
f 287/287/287 288/288/288 295/295/295
f 287/287/287 295/295/295 294/294/294
f 288/288/288 289/289/289 296/296/296
f 288/288/288 296/296/296 295/295/295
f 290/290/290 291/291/291 298/298/298
f 290/290/290 298/298/298 297/297/297
f 291/291/291 292/292/292 299/299/299
f 291/291/291 299/299/299 298/298/298
f 292/292/292 293/293/293 300/300/300
f 292/292/292 300/300/300 299/299/299
f 293/293/293 294/294/294 301/301/301
f 293/293/293 301/301/301 300/300/300
f 294/294/294 295/295/295 302/302/302
f 294/294/294 302/302/302 301/301/301
f 295/295/295 296/296/296 303/303/303
f 295/295/295 303/303/303 302/302/302
f 297/297/297 298/298/298 305/305/305
f 297/297/297 305/305/305 304/304/304
f 298/298/298 299/299/299 306/306/306
f 298/298/298 306/306/306 305/305/305
f 299/299/299 300/300/300 307/307/307
f 299/299/299 307/307/307 306/306/306
f 300/300/300 301/301/301 308/308/308
f 300/300/300 308/308/308 307/307/307
f 301/301/301 302/302/302 309/309/309
f 301/301/301 309/309/309 308/308/308
f 302/302/302 303/303/303 310/310/310
f 302/302/302 310/310/310 309/309/309
f 304/304/304 305/305/305 312/312/312
f 304/304/304 312/312/312 311/311/311
f 305/305/305 306/306/306 313/313/313
f 305/305/305 313/313/313 312/312/312
f 306/306/306 307/307/307 314/314/314
f 306/306/306 314/314/314 313/313/313
f 307/307/307 308/308/308 315/315/315
f 307/307/307 315/315/315 314/314/314
f 308/308/308 309/309/309 316/316/316
f 308/308/308 316/316/316 315/315/315
f 309/309/309 310/310/310 317/317/317
f 309/309/309 317/317/317 316/316/316
f 311/311/311 312/312/312 319/319/319
f 311/311/311 319/319/319 318/318/318
f 312/312/312 313/313/313 320/320/320
f 312/312/312 320/320/320 319/319/319
f 313/313/313 314/314/314 321/321/321
f 313/313/313 321/321/321 320/320/320
f 314/314/314 315/315/315 322/322/322
f 314/314/314 322/322/322 321/321/321
f 315/315/315 316/316/316 323/323/323
f 315/315/315 323/323/323 322/322/322
f 316/316/316 317/317/317 324/324/324
f 316/316/316 324/324/324 323/323/323
f 318/318/318 319/319/319 326/326/326
f 318/318/318 326/326/326 325/325/325
f 319/319/319 320/320/320 327/327/327
f 319/319/319 327/327/327 326/326/326
f 320/320/320 321/321/321 328/328/328
f 320/320/320 328/328/328 327/327/327
f 321/321/321 322/322/322 329/329/329
f 321/321/321 329/329/329 328/328/328
f 322/322/322 323/323/323 330/330/330
f 322/322/322 330/330/330 329/329/329
f 323/323/323 324/324/324 331/331/331
f 323/323/323 331/331/331 330/330/330
f 325/325/325 326/326/326 333/333/333
f 325/325/325 333/333/333 332/332/332
f 326/326/326 327/327/327 334/334/334
f 326/326/326 334/334/334 333/333/333
f 327/327/327 328/328/328 335/335/335
f 327/327/327 335/335/335 334/334/334
f 328/328/328 329/329/329 336/336/336
f 328/328/328 336/336/336 335/335/335
f 329/329/329 330/330/330 337/337/337
f 329/329/329 337/337/337 336/336/336
f 330/330/330 331/331/331 338/338/338
f 330/330/330 338/338/338 337/337/337
f 332/332/332 333/333/333 340/340/340
f 332/332/332 340/340/340 339/339/339
f 333/333/333 334/334/334 341/341/341
f 333/333/333 341/341/341 340/340/340
f 334/334/334 335/335/335 342/342/342
f 334/334/334 342/342/342 341/341/341
f 335/335/335 336/336/336 343/343/343
f 335/335/335 343/343/343 342/342/342
f 336/336/336 337/337/337 344/344/344
f 336/336/336 344/344/344 343/343/343
f 337/337/337 338/338/338 345/345/345
f 337/337/337 345/345/345 344/344/344
f 339/339/339 340/340/340 347/347/347
f 339/339/339 347/347/347 346/346/346
f 340/340/340 341/341/341 348/348/348
f 340/340/340 348/348/348 347/347/347
f 341/341/341 342/342/342 349/349/349
f 341/341/341 349/349/349 348/348/348
f 342/342/342 343/343/343 350/350/350
f 342/342/342 350/350/350 349/349/349
f 343/343/343 344/344/344 351/351/351
f 343/343/343 351/351/351 350/350/350
f 344/344/344 345/345/345 352/352/352
f 344/344/344 352/352/352 351/351/351
f 353/353/353 179/179/179 178/178/178
f 353/353/353 180/180/180 179/179/179
f 353/353/353 181/181/181 180/180/180
f 353/353/353 182/182/182 181/181/181
f 353/353/353 183/183/183 182/182/182
f 353/353/353 184/184/184 183/183/183
f 354/354/354 346/346/346 347/347/347
f 354/354/354 347/347/347 348/348/348
f 354/354/354 348/348/348 349/349/349
f 354/354/354 349/349/349 350/350/350
f 354/354/354 350/350/350 351/351/351
f 354/354/354 351/351/351 352/352/352
o Faceted_inset_stone
v 0.003636 0.506122 3.319979
v 1.053636 0.901527 2.269979
v 1.488560 0.901527 3.319979
v 0.003636 0.506122 3.319979
v 0.003636 0.901527 1.835055
v 1.053636 0.901527 2.269979
v 0.003636 0.506122 3.319979
v -1.046364 0.901527 2.269979
v 0.003636 0.901527 1.835055
v 0.003636 0.506122 3.319979
v -1.481288 0.901527 3.319979
v -1.046364 0.901527 2.269979
v 0.003636 0.506122 3.319979
v -1.046364 0.901527 4.369979
v -1.481288 0.901527 3.319979
v 0.003636 0.506122 3.319979
v 0.003636 0.901527 4.804903
v -1.046364 0.901527 4.369979
v 0.003636 0.506122 3.319979
v 1.053636 0.901527 4.369979
v 0.003636 0.901527 4.804903
v 0.003636 0.506122 3.319979
v 1.488560 0.901527 3.319979
v 1.053636 0.901527 4.369979
v 1.488560 0.901527 3.319979
v 1.053636 0.901527 2.269979
v 1.488560 1.856122 1.835055
v 1.488560 0.901527 3.319979
v 1.488560 1.856122 1.835055
v 2.103636 1.856122 3.319979
v 1.053636 0.901527 2.269979
v 0.003636 0.901527 1.835055
v 0.003636 1.856122 1.219979
v 1.053636 0.901527 2.269979
v 0.003636 1.856122 1.219979
v 1.488560 1.856122 1.835055
v 0.003636 0.901527 1.835055
v -1.046364 0.901527 2.269979
v -1.481288 1.856122 1.835055
v 0.003636 0.901527 1.835055
v -1.481288 1.856122 1.835055
v 0.003636 1.856122 1.219979
v -1.046364 0.901527 2.269979
v -1.481288 0.901527 3.319979
v -2.096364 1.856122 3.319979
v -1.046364 0.901527 2.269979
v -2.096364 1.856122 3.319979
v -1.481288 1.856122 1.835055
v -1.481288 0.901527 3.319979
v -1.046364 0.901527 4.369979
v -1.481288 1.856122 4.804903
v -1.481288 0.901527 3.319979
v -1.481288 1.856122 4.804903
v -2.096364 1.856122 3.319979
v -1.046364 0.901527 4.369979
v 0.003636 0.901527 4.804903
v 0.003636 1.856122 5.419979
v -1.046364 0.901527 4.369979
v 0.003636 1.856122 5.419979
v -1.481288 1.856122 4.804903
v 0.003636 0.901527 4.804903
v 1.053636 0.901527 4.369979
v 1.488560 1.856122 4.804903
v 0.003636 0.901527 4.804903
v 1.488560 1.856122 4.804903
v 0.003636 1.856122 5.419979
v 1.053636 0.901527 4.369979
v 1.488560 0.901527 3.319979
v 2.103636 1.856122 3.319979
v 1.053636 0.901527 4.369979
v 2.103636 1.856122 3.319979
v 1.488560 1.856122 4.804903
v 2.103636 1.856122 3.319979
v 1.488560 1.856122 1.835055
v 1.053636 2.810716 2.269979
v 2.103636 1.856122 3.319979
v 1.053636 2.810716 2.269979
v 1.488560 2.810716 3.319979
v 1.488560 1.856122 1.835055
v 0.003636 1.856122 1.219979
v 0.003636 2.810716 1.835055
v 1.488560 1.856122 1.835055
v 0.003636 2.810716 1.835055
v 1.053636 2.810716 2.269979
v 0.003636 1.856122 1.219979
v -1.481288 1.856122 1.835055
v -1.046364 2.810716 2.269979
v 0.003636 1.856122 1.219979
v -1.046364 2.810716 2.269979
v 0.003636 2.810716 1.835055
v -1.481288 1.856122 1.835055
v -2.096364 1.856122 3.319979
v -1.481288 2.810716 3.319979
v -1.481288 1.856122 1.835055
v -1.481288 2.810716 3.319979
v -1.046364 2.810716 2.269979
v -2.096364 1.856122 3.319979
v -1.481288 1.856122 4.804903
v -1.046364 2.810716 4.369979
v -2.096364 1.856122 3.319979
v -1.046364 2.810716 4.369979
v -1.481288 2.810716 3.319979
v -1.481288 1.856122 4.804903
v 0.003636 1.856122 5.419979
v 0.003636 2.810716 4.804903
v -1.481288 1.856122 4.804903
v 0.003636 2.810716 4.804903
v -1.046364 2.810716 4.369979
v 0.003636 1.856122 5.419979
v 1.488560 1.856122 4.804903
v 1.053636 2.810716 4.369979
v 0.003636 1.856122 5.419979
v 1.053636 2.810716 4.369979
v 0.003636 2.810716 4.804903
v 1.488560 1.856122 4.804903
v 2.103636 1.856122 3.319979
v 1.488560 2.810716 3.319979
v 1.488560 1.856122 4.804903
v 1.488560 2.810716 3.319979
v 1.053636 2.810716 4.369979
v 1.488560 2.810716 3.319979
v 1.053636 2.810716 2.269979
v 0.003636 3.206122 3.319979
v 1.053636 2.810716 2.269979
v 0.003636 2.810716 1.835055
v 0.003636 3.206122 3.319979
v 0.003636 2.810716 1.835055
v -1.046364 2.810716 2.269979
v 0.003636 3.206122 3.319979
v -1.046364 2.810716 2.269979
v -1.481288 2.810716 3.319979
v 0.003636 3.206122 3.319979
v -1.481288 2.810716 3.319979
v -1.046364 2.810716 4.369979
v 0.003636 3.206122 3.319979
v -1.046364 2.810716 4.369979
v 0.003636 2.810716 4.804903
v 0.003636 3.206122 3.319979
v 0.003636 2.810716 4.804903
v 1.053636 2.810716 4.369979
v 0.003636 3.206122 3.319979
v 1.053636 2.810716 4.369979
v 1.488560 2.810716 3.319979
v 0.003636 3.206122 3.319979
vt 0.3750000 0.1867946
vt 0.3750000 0.1867946
vt 0.3750000 0.1867946
vt 0.3750000 0.1972489
vt 0.3750000 0.1972489
vt 0.3750000 0.1972489
vt 0.3750000 0.2046412
vt 0.3750000 0.2046412
vt 0.3750000 0.2046412
vt 0.3750000 0.2046412
vt 0.3750000 0.2046412
vt 0.3750000 0.2046412
vt 0.3750000 0.1972489
vt 0.3750000 0.1972489
vt 0.3750000 0.1972489
vt 0.3750000 0.1867946
vt 0.3750000 0.1867946
vt 0.3750000 0.1867946
vt 0.3750000 0.1794023
vt 0.3750000 0.1794023
vt 0.3750000 0.1794023
vt 0.3750000 0.1794023
vt 0.3750000 0.1794023
vt 0.3750000 0.1794023
vt 0.3750000 0.1444599
vt 0.3750000 0.1444599
vt 0.3750000 0.1444599
vt 0.3750000 0.1444599
vt 0.3750000 0.1444599
vt 0.3750000 0.1444599
vt 0.3750000 0.1768962
vt 0.3750000 0.1768962
vt 0.3750000 0.1768962
vt 0.3750000 0.1768962
vt 0.3750000 0.1768962
vt 0.3750000 0.1768962
vt 0.3750000 0.1998321
vt 0.3750000 0.1998321
vt 0.3750000 0.1998321
vt 0.3750000 0.1998321
vt 0.3750000 0.1998321
vt 0.3750000 0.1998321
vt 0.3750000 0.1998321
vt 0.3750000 0.1998321
vt 0.3750000 0.1998321
vt 0.3750000 0.1998321
vt 0.3750000 0.1998321
vt 0.3750000 0.1998321
vt 0.3750000 0.1768962
vt 0.3750000 0.1768962
vt 0.3750000 0.1768962
vt 0.3750000 0.1768962
vt 0.3750000 0.1768962
vt 0.3750000 0.1768962
vt 0.3750000 0.1444599
vt 0.3750000 0.1444599
vt 0.3750000 0.1444599
vt 0.3750000 0.1444599
vt 0.3750000 0.1444599
vt 0.3750000 0.1444599
vt 0.3750000 0.1215240
vt 0.3750000 0.1215240
vt 0.3750000 0.1215240
vt 0.3750000 0.1215240
vt 0.3750000 0.1215240
vt 0.3750000 0.1215240
vt 0.3750000 0.1215240
vt 0.3750000 0.1215240
vt 0.3750000 0.1215240
vt 0.3750000 0.1215240
vt 0.3750000 0.1215240
vt 0.3750000 0.1215240
vt 0.3750000 0.0731038
vt 0.3750000 0.0731038
vt 0.3750000 0.0731038
vt 0.3750000 0.0731038
vt 0.3750000 0.0731038
vt 0.3750000 0.0731038
vt 0.3750000 0.1055401
vt 0.3750000 0.1055401
vt 0.3750000 0.1055401
vt 0.3750000 0.1055401
vt 0.3750000 0.1055401
vt 0.3750000 0.1055401
vt 0.3750000 0.1284760
vt 0.3750000 0.1284760
vt 0.3750000 0.1284760
vt 0.3750000 0.1284760
vt 0.3750000 0.1284760
vt 0.3750000 0.1284760
vt 0.3750000 0.1284760
vt 0.3750000 0.1284760
vt 0.3750000 0.1284760
vt 0.3750000 0.1284760
vt 0.3750000 0.1284760
vt 0.3750000 0.1284760
vt 0.3750000 0.1055401
vt 0.3750000 0.1055401
vt 0.3750000 0.1055401
vt 0.3750000 0.1055401
vt 0.3750000 0.1055401
vt 0.3750000 0.1055401
vt 0.3750000 0.0731038
vt 0.3750000 0.0731038
vt 0.3750000 0.0731038
vt 0.3750000 0.0731038
vt 0.3750000 0.0731038
vt 0.3750000 0.0731038
vt 0.3750000 0.0501679
vt 0.3750000 0.0501679
vt 0.3750000 0.0501679
vt 0.3750000 0.0501679
vt 0.3750000 0.0501679
vt 0.3750000 0.0501679
vt 0.3750000 0.0501679
vt 0.3750000 0.0501679
vt 0.3750000 0.0501679
vt 0.3750000 0.0501679
vt 0.3750000 0.0501679
vt 0.3750000 0.0501679
vt 0.3750000 0.0527511
vt 0.3750000 0.0527511
vt 0.3750000 0.0527511
vt 0.3750000 0.0632054
vt 0.3750000 0.0632054
vt 0.3750000 0.0632054
vt 0.3750000 0.0705977
vt 0.3750000 0.0705977
vt 0.3750000 0.0705977
vt 0.3750000 0.0705977
vt 0.3750000 0.0705977
vt 0.3750000 0.0705977
vt 0.3750000 0.0632054
vt 0.3750000 0.0632054
vt 0.3750000 0.0632054
vt 0.3750000 0.0527511
vt 0.3750000 0.0527511
vt 0.3750000 0.0527511
vt 0.3750000 0.0453588
vt 0.3750000 0.0453588
vt 0.3750000 0.0453588
vt 0.3750000 0.0453588
vt 0.3750000 0.0453588
vt 0.3750000 0.0453588
vn 0.0000000 -1.0000000 -0.0000000
vn 0.3789950 -0.7784255 -0.5004164
vn 0.6218378 -0.7784255 -0.0858579
vn 0.0000000 -1.0000000 -0.0000000
vn -0.0858579 -0.7784255 -0.6218378
vn 0.3789950 -0.7784255 -0.5004164
vn 0.0000000 -1.0000000 -0.0000000
vn -0.5004164 -0.7784255 -0.3789950
vn -0.0858579 -0.7784255 -0.6218378
vn 0.0000000 -1.0000000 -0.0000000
vn -0.6218378 -0.7784255 0.0858579
vn -0.5004164 -0.7784255 -0.3789950
vn 0.0000000 -1.0000000 -0.0000000
vn -0.3789950 -0.7784255 0.5004164
vn -0.6218378 -0.7784255 0.0858579
vn 0.0000000 -1.0000000 -0.0000000
vn 0.0858579 -0.7784255 0.6218378
vn -0.3789950 -0.7784255 0.5004164
vn 0.0000000 -1.0000000 -0.0000000
vn 0.5004164 -0.7784255 0.3789950
vn 0.0858579 -0.7784255 0.6218378
vn 0.0000000 -1.0000000 -0.0000000
vn 0.6218378 -0.7784255 -0.0858579
vn 0.5004164 -0.7784255 0.3789950
vn 0.6218378 -0.7784255 -0.0858579
vn 0.3789950 -0.7784255 -0.5004164
vn 0.7071068 -0.0000000 -0.7071068
vn 0.6218378 -0.7784255 -0.0858579
vn 0.7071068 -0.0000000 -0.7071068
vn 1.0000000 -0.0000000 0.0000000
vn 0.3789950 -0.7784255 -0.5004164
vn -0.0858579 -0.7784255 -0.6218378
vn 0.0000000 0.0000000 -1.0000000
vn 0.3789950 -0.7784255 -0.5004164
vn 0.0000000 0.0000000 -1.0000000
vn 0.7071068 -0.0000000 -0.7071068
vn -0.0858579 -0.7784255 -0.6218378
vn -0.5004164 -0.7784255 -0.3789950
vn -0.7071068 0.0000000 -0.7071068
vn -0.0858579 -0.7784255 -0.6218378
vn -0.7071068 0.0000000 -0.7071068
vn 0.0000000 0.0000000 -1.0000000
vn -0.5004164 -0.7784255 -0.3789950
vn -0.6218378 -0.7784255 0.0858579
vn -1.0000000 -0.0000000 -0.0000000
vn -0.5004164 -0.7784255 -0.3789950
vn -1.0000000 -0.0000000 -0.0000000
vn -0.7071068 0.0000000 -0.7071068
vn -0.6218378 -0.7784255 0.0858579
vn -0.3789950 -0.7784255 0.5004164
vn -0.7071068 -0.0000000 0.7071068
vn -0.6218378 -0.7784255 0.0858579
vn -0.7071068 -0.0000000 0.7071068
vn -1.0000000 -0.0000000 -0.0000000
vn -0.3789950 -0.7784255 0.5004164
vn 0.0858579 -0.7784255 0.6218378
vn -0.0000000 -0.0000000 1.0000000
vn -0.3789950 -0.7784255 0.5004164
vn -0.0000000 -0.0000000 1.0000000
vn -0.7071068 -0.0000000 0.7071068
vn 0.0858579 -0.7784255 0.6218378
vn 0.5004164 -0.7784255 0.3789950
vn 0.7071068 0.0000000 0.7071068
vn 0.0858579 -0.7784255 0.6218378
vn 0.7071068 0.0000000 0.7071068
vn -0.0000000 -0.0000000 1.0000000
vn 0.5004164 -0.7784255 0.3789950
vn 0.6218378 -0.7784255 -0.0858579
vn 1.0000000 -0.0000000 0.0000000
vn 0.5004164 -0.7784255 0.3789950
vn 1.0000000 -0.0000000 0.0000000
vn 0.7071068 0.0000000 0.7071068
vn 1.0000000 -0.0000000 0.0000000
vn 0.7071068 -0.0000000 -0.7071068
vn 0.5004164 0.7784255 -0.3789950
vn 1.0000000 -0.0000000 0.0000000
vn 0.5004164 0.7784255 -0.3789950
vn 0.6218378 0.7784255 0.0858579
vn 0.7071068 -0.0000000 -0.7071068
vn 0.0000000 0.0000000 -1.0000000
vn 0.0858579 0.7784255 -0.6218378
vn 0.7071068 -0.0000000 -0.7071068
vn 0.0858579 0.7784255 -0.6218378
vn 0.5004164 0.7784255 -0.3789950
vn 0.0000000 0.0000000 -1.0000000
vn -0.7071068 0.0000000 -0.7071068
vn -0.3789950 0.7784255 -0.5004164
vn 0.0000000 0.0000000 -1.0000000
vn -0.3789950 0.7784255 -0.5004164
vn 0.0858579 0.7784255 -0.6218378
vn -0.7071068 0.0000000 -0.7071068
vn -1.0000000 -0.0000000 -0.0000000
vn -0.6218378 0.7784255 -0.0858579
vn -0.7071068 0.0000000 -0.7071068
vn -0.6218378 0.7784255 -0.0858579
vn -0.3789950 0.7784255 -0.5004164
vn -1.0000000 -0.0000000 -0.0000000
vn -0.7071068 -0.0000000 0.7071068
vn -0.5004164 0.7784255 0.3789950
vn -1.0000000 -0.0000000 -0.0000000
vn -0.5004164 0.7784255 0.3789950
vn -0.6218378 0.7784255 -0.0858579
vn -0.7071068 -0.0000000 0.7071068
vn -0.0000000 -0.0000000 1.0000000
vn -0.0858579 0.7784255 0.6218378
vn -0.7071068 -0.0000000 0.7071068
vn -0.0858579 0.7784255 0.6218378
vn -0.5004164 0.7784255 0.3789950
vn -0.0000000 -0.0000000 1.0000000
vn 0.7071068 0.0000000 0.7071068
vn 0.3789950 0.7784255 0.5004164
vn -0.0000000 -0.0000000 1.0000000
vn 0.3789950 0.7784255 0.5004164
vn -0.0858579 0.7784255 0.6218378
vn 0.7071068 0.0000000 0.7071068
vn 1.0000000 -0.0000000 0.0000000
vn 0.6218378 0.7784255 0.0858579
vn 0.7071068 0.0000000 0.7071068
vn 0.6218378 0.7784255 0.0858579
vn 0.3789950 0.7784255 0.5004164
vn 0.6218378 0.7784255 0.0858579
vn 0.5004164 0.7784255 -0.3789950
vn -0.0000000 1.0000000 0.0000000
vn 0.5004164 0.7784255 -0.3789950
vn 0.0858579 0.7784255 -0.6218378
vn -0.0000000 1.0000000 0.0000000
vn 0.0858579 0.7784255 -0.6218378
vn -0.3789950 0.7784255 -0.5004164
vn -0.0000000 1.0000000 0.0000000
vn -0.3789950 0.7784255 -0.5004164
vn -0.6218378 0.7784255 -0.0858579
vn -0.0000000 1.0000000 0.0000000
vn -0.6218378 0.7784255 -0.0858579
vn -0.5004164 0.7784255 0.3789950
vn -0.0000000 1.0000000 0.0000000
vn -0.5004164 0.7784255 0.3789950
vn -0.0858579 0.7784255 0.6218378
vn -0.0000000 1.0000000 0.0000000
vn -0.0858579 0.7784255 0.6218378
vn 0.3789950 0.7784255 0.5004164
vn -0.0000000 1.0000000 0.0000000
vn 0.3789950 0.7784255 0.5004164
vn 0.6218378 0.7784255 0.0858579
vn -0.0000000 1.0000000 0.0000000
f 355/355/355 356/356/356 357/357/357
f 358/358/358 359/359/359 360/360/360
f 361/361/361 362/362/362 363/363/363
f 364/364/364 365/365/365 366/366/366
f 367/367/367 368/368/368 369/369/369
f 370/370/370 371/371/371 372/372/372
f 373/373/373 374/374/374 375/375/375
f 376/376/376 377/377/377 378/378/378
f 379/379/379 380/380/380 381/381/381
f 382/382/382 383/383/383 384/384/384
f 385/385/385 386/386/386 387/387/387
f 388/388/388 389/389/389 390/390/390
f 391/391/391 392/392/392 393/393/393
f 394/394/394 395/395/395 396/396/396
f 397/397/397 398/398/398 399/399/399
f 400/400/400 401/401/401 402/402/402
f 403/403/403 404/404/404 405/405/405
f 406/406/406 407/407/407 408/408/408
f 409/409/409 410/410/410 411/411/411
f 412/412/412 413/413/413 414/414/414
f 415/415/415 416/416/416 417/417/417
f 418/418/418 419/419/419 420/420/420
f 421/421/421 422/422/422 423/423/423
f 424/424/424 425/425/425 426/426/426
f 427/427/427 428/428/428 429/429/429
f 430/430/430 431/431/431 432/432/432
f 433/433/433 434/434/434 435/435/435
f 436/436/436 437/437/437 438/438/438
f 439/439/439 440/440/440 441/441/441
f 442/442/442 443/443/443 444/444/444
f 445/445/445 446/446/446 447/447/447
f 448/448/448 449/449/449 450/450/450
f 451/451/451 452/452/452 453/453/453
f 454/454/454 455/455/455 456/456/456
f 457/457/457 458/458/458 459/459/459
f 460/460/460 461/461/461 462/462/462
f 463/463/463 464/464/464 465/465/465
f 466/466/466 467/467/467 468/468/468
f 469/469/469 470/470/470 471/471/471
f 472/472/472 473/473/473 474/474/474
f 475/475/475 476/476/476 477/477/477
f 478/478/478 479/479/479 480/480/480
f 481/481/481 482/482/482 483/483/483
f 484/484/484 485/485/485 486/486/486
f 487/487/487 488/488/488 489/489/489
f 490/490/490 491/491/491 492/492/492
f 493/493/493 494/494/494 495/495/495
f 496/496/496 497/497/497 498/498/498
o Setting_claw
v 1.761100 1.395488 3.319979
v 1.882368 1.425805 3.536485
v 2.124904 1.486439 3.536485
v 2.246172 1.516755 3.319979
v 2.124904 1.486439 3.103473
v 1.882368 1.425805 3.103473
v 1.761100 1.395488 3.319979
v 1.529010 2.612465 3.319979
v 1.616323 2.634293 3.475864
v 1.790949 2.677950 3.475864
v 1.878262 2.699778 3.319979
v 1.790949 2.677950 3.164094
v 1.616323 2.634293 3.164094
v 1.529010 2.612465 3.319979
v 2.003636 1.456122 3.319979
v 1.703636 2.656122 3.319979
vt 0.5087500 0.9912500
vt 0.5475000 0.9912500
vt 0.5862500 0.9912500
vt 0.6250000 0.9912500
vt 0.6637500 0.9912500
vt 0.7025000 0.9912500
vt 0.7412500 0.9912500
vt 0.5087500 0.7587500
vt 0.5475000 0.7587500
vt 0.5862500 0.7587500
vt 0.6250000 0.7587500
vt 0.6637500 0.7587500
vt 0.7025000 0.7587500
vt 0.7412500 0.7587500
vt 0.6250000 0.8750000
vt 0.6250000 0.8750000
vn -0.9330930 -0.3266520 0.1504527
vn -0.3291552 -0.1756675 0.9277919
vn 0.6259093 0.0630986 0.7773392
vn 0.9770359 0.1508802 -0.1504527
vn 0.3730981 -0.0001042 -0.9277919
vn -0.5819663 -0.2388703 -0.7773392
vn -0.9330930 -0.3266520 0.1504527
vn -0.9684365 -0.1005515 -0.2280791
vn -0.6924969 -0.0315666 0.7207299
vn 0.2426320 0.2022156 0.9488090
vn 0.9018212 0.3670129 0.2280791
vn 0.6258815 0.2980280 -0.7207299
vn -0.3092473 0.0642458 -0.9488090
vn -0.9684365 -0.1005515 -0.2280791
vn 0.2425356 -0.9701425 -0.0000000
vn -0.2425356 0.9701425 0.0000000
f 499/499/499 500/500/500 507/507/507
f 499/499/499 507/507/507 506/506/506
f 500/500/500 501/501/501 508/508/508
f 500/500/500 508/508/508 507/507/507
f 501/501/501 502/502/502 509/509/509
f 501/501/501 509/509/509 508/508/508
f 502/502/502 503/503/503 510/510/510
f 502/502/502 510/510/510 509/509/509
f 503/503/503 504/504/504 511/511/511
f 503/503/503 511/511/511 510/510/510
f 504/504/504 505/505/505 512/512/512
f 504/504/504 512/512/512 511/511/511
f 513/513/513 500/500/500 499/499/499
f 513/513/513 501/501/501 500/500/500
f 513/513/513 502/502/502 501/501/501
f 513/513/513 503/503/503 502/502/502
f 513/513/513 504/504/504 503/503/503
f 513/513/513 505/505/505 504/504/504
f 514/514/514 506/506/506 507/507/507
f 514/514/514 507/507/507 508/508/508
f 514/514/514 508/508/508 509/509/509
f 514/514/514 509/509/509 510/510/510
f 514/514/514 510/510/510 511/511/511
f 514/514/514 511/511/511 512/512/512
o Setting_claw
v -0.246364 1.456122 1.319979
v -0.121364 1.403611 1.530021
v 0.128636 1.403611 1.530021
v 0.253636 1.456122 1.319979
v 0.128636 1.508632 1.109937
v -0.121364 1.508632 1.109937
v -0.246364 1.456122 1.319979
v -0.176364 2.656122 1.619979
v -0.086364 2.618314 1.771209
v 0.093636 2.618314 1.771209
v 0.183636 2.656122 1.619979
v 0.093636 2.693929 1.468749
v -0.086364 2.693929 1.468749
v -0.176364 2.656122 1.619979
v 0.003636 1.456122 1.319979
v 0.003636 2.656122 1.619979
vt 0.5087500 0.9912500
vt 0.5475000 0.9912500
vt 0.5862500 0.9912500
vt 0.6250000 0.9912500
vt 0.6637500 0.9912500
vt 0.7025000 0.9912500
vt 0.7412500 0.9912500
vt 0.5087500 0.7587500
vt 0.5475000 0.7587500
vt 0.5862500 0.7587500
vt 0.6250000 0.7587500
vt 0.6637500 0.7587500
vt 0.7025000 0.7587500
vt 0.7412500 0.7587500
vt 0.6250000 0.8750000
vt 0.6250000 0.8750000
vn -0.9844579 -0.1243760 0.1239891
vn -0.3619330 -0.3129084 0.8781189
vn 0.6225248 -0.2764183 0.7321583
vn 0.9844579 -0.0513957 -0.1679321
vn 0.3619330 0.1371367 -0.9220618
vn -0.6225248 0.1006466 -0.7761012
vn -0.9844579 -0.1243760 0.1239891
vn -0.9639088 0.1885480 -0.1879615
vn -0.6794767 -0.0415720 0.7325184
vn 0.2844321 -0.0968893 0.9537876
vn 0.9639088 0.0779134 0.2545769
vn 0.6794767 0.3080334 -0.6659031
vn -0.2844321 0.3633507 -0.8871723
vn -0.9639088 0.1885480 -0.1879615
vn 0.0000000 -0.9701425 -0.2425356
vn 0.0000000 0.9701425 0.2425356
f 515/515/515 516/516/516 523/523/523
f 515/515/515 523/523/523 522/522/522
f 516/516/516 517/517/517 524/524/524
f 516/516/516 524/524/524 523/523/523
f 517/517/517 518/518/518 525/525/525
f 517/517/517 525/525/525 524/524/524
f 518/518/518 519/519/519 526/526/526
f 518/518/518 526/526/526 525/525/525
f 519/519/519 520/520/520 527/527/527
f 519/519/519 527/527/527 526/526/526
f 520/520/520 521/521/521 528/528/528
f 520/520/520 528/528/528 527/527/527
f 529/529/529 516/516/516 515/515/515
f 529/529/529 517/517/517 516/516/516
f 529/529/529 518/518/518 517/517/517
f 529/529/529 519/519/519 518/518/518
f 529/529/529 520/520/520 519/519/519
f 529/529/529 521/521/521 520/520/520
f 530/530/530 522/522/522 523/523/523
f 530/530/530 523/523/523 524/524/524
f 530/530/530 524/524/524 525/525/525
f 530/530/530 525/525/525 526/526/526
f 530/530/530 526/526/526 527/527/527
f 530/530/530 527/527/527 528/528/528
o Setting_claw
v -2.238900 1.516755 3.319979
v -2.117632 1.486439 3.536485
v -1.875096 1.425805 3.536485
v -1.753828 1.395488 3.319979
v -1.875096 1.425805 3.103473
v -2.117632 1.486439 3.103473
v -2.238900 1.516755 3.319979
v -1.870990 2.699778 3.319979
v -1.783677 2.677950 3.475864
v -1.609051 2.634293 3.475864
v -1.521738 2.612465 3.319979
v -1.609051 2.634293 3.164094
v -1.783677 2.677950 3.164094
v -1.870990 2.699778 3.319979
v -1.996364 1.456122 3.319979
v -1.696364 2.656122 3.319979
vt 0.5087500 0.9912500
vt 0.5475000 0.9912500
vt 0.5862500 0.9912500
vt 0.6250000 0.9912500
vt 0.6637500 0.9912500
vt 0.7025000 0.9912500
vt 0.7412500 0.9912500
vt 0.5087500 0.7587500
vt 0.5475000 0.7587500
vt 0.5862500 0.7587500
vt 0.6250000 0.7587500
vt 0.6637500 0.7587500
vt 0.7025000 0.7587500
vt 0.7412500 0.7587500
vt 0.6250000 0.8750000
vt 0.6250000 0.8750000
vn -0.9770359 0.1508802 0.1504527
vn -0.3730981 -0.0001042 0.9277919
vn 0.5819663 -0.2388703 0.7773392
vn 0.9330930 -0.3266520 -0.1504527
vn 0.3291552 -0.1756675 -0.9277919
vn -0.6259093 0.0630986 -0.7773392
vn -0.9770359 0.1508802 0.1504527
vn -0.9018212 0.3670129 -0.2280791
vn -0.6258815 0.2980280 0.7207299
vn 0.3092473 0.0642458 0.9488090
vn 0.9684365 -0.1005515 0.2280791
vn 0.6924969 -0.0315666 -0.7207299
vn -0.2426320 0.2022156 -0.9488090
vn -0.9018212 0.3670129 -0.2280791
vn -0.2425356 -0.9701425 -0.0000000
vn 0.2425356 0.9701425 0.0000000
f 531/531/531 532/532/532 539/539/539
f 531/531/531 539/539/539 538/538/538
f 532/532/532 533/533/533 540/540/540
f 532/532/532 540/540/540 539/539/539
f 533/533/533 534/534/534 541/541/541
f 533/533/533 541/541/541 540/540/540
f 534/534/534 535/535/535 542/542/542
f 534/534/534 542/542/542 541/541/541
f 535/535/535 536/536/536 543/543/543
f 535/535/535 543/543/543 542/542/542
f 536/536/536 537/537/537 544/544/544
f 536/536/536 544/544/544 543/543/543
f 545/545/545 532/532/532 531/531/531
f 545/545/545 533/533/533 532/532/532
f 545/545/545 534/534/534 533/533/533
f 545/545/545 535/535/535 534/534/534
f 545/545/545 536/536/536 535/535/535
f 545/545/545 537/537/537 536/536/536
f 546/546/546 538/538/538 539/539/539
f 546/546/546 539/539/539 540/540/540
f 546/546/546 540/540/540 541/541/541
f 546/546/546 541/541/541 542/542/542
f 546/546/546 542/542/542 543/543/543
f 546/546/546 543/543/543 544/544/544
o Setting_claw
v -0.246364 1.456122 5.319979
v -0.121364 1.508632 5.530021
v 0.128636 1.508632 5.530021
v 0.253636 1.456122 5.319979
v 0.128636 1.403611 5.109937
v -0.121364 1.403611 5.109937
v -0.246364 1.456122 5.319979
v -0.176364 2.656122 5.019979
v -0.086364 2.693929 5.171209
v 0.093636 2.693929 5.171209
v 0.183636 2.656122 5.019979
v 0.093636 2.618314 4.868749
v -0.086364 2.618314 4.868749
v -0.176364 2.656122 5.019979
v 0.003636 1.456122 5.319979
v 0.003636 2.656122 5.019979
vt 0.5087500 0.9912500
vt 0.5475000 0.9912500
vt 0.5862500 0.9912500
vt 0.6250000 0.9912500
vt 0.6637500 0.9912500
vt 0.7025000 0.9912500
vt 0.7412500 0.9912500
vt 0.5087500 0.7587500
vt 0.5475000 0.7587500
vt 0.5862500 0.7587500
vt 0.6250000 0.7587500
vt 0.6637500 0.7587500
vt 0.7025000 0.7587500
vt 0.7412500 0.7587500
vt 0.6250000 0.8750000
vt 0.6250000 0.8750000
vn -0.9844579 -0.0513957 0.1679321
vn -0.3619330 0.1371367 0.9220618
vn 0.6225248 0.1006466 0.7761012
vn 0.9844579 -0.1243760 -0.1239891
vn 0.3619330 -0.3129084 -0.8781189
vn -0.6225248 -0.2764183 -0.7321583
vn -0.9844579 -0.0513957 0.1679321
vn -0.9639088 0.0779134 -0.2545769
vn -0.6794767 0.3080334 0.6659031
vn 0.2844321 0.3633507 0.8871723
vn 0.9639088 0.1885480 0.1879615
vn 0.6794767 -0.0415720 -0.7325184
vn -0.2844321 -0.0968893 -0.9537876
vn -0.9639088 0.0779134 -0.2545769
vn 0.0000000 -0.9701425 0.2425356
vn 0.0000000 0.9701425 -0.2425356
f 547/547/547 548/548/548 555/555/555
f 547/547/547 555/555/555 554/554/554
f 548/548/548 549/549/549 556/556/556
f 548/548/548 556/556/556 555/555/555
f 549/549/549 550/550/550 557/557/557
f 549/549/549 557/557/557 556/556/556
f 550/550/550 551/551/551 558/558/558
f 550/550/550 558/558/558 557/557/557
f 551/551/551 552/552/552 559/559/559
f 551/551/551 559/559/559 558/558/558
f 552/552/552 553/553/553 560/560/560
f 552/552/552 560/560/560 559/559/559
f 561/561/561 548/548/548 547/547/547
f 561/561/561 549/549/549 548/548/548
f 561/561/561 550/550/550 549/549/549
f 561/561/561 551/551/551 550/550/550
f 561/561/561 552/552/552 551/551/551
f 561/561/561 553/553/553 552/552/552
f 562/562/562 554/554/554 555/555/555
f 562/562/562 555/555/555 556/556/556
f 562/562/562 556/556/556 557/557/557
f 562/562/562 557/557/557 558/558/558
f 562/562/562 558/558/558 559/559/559
f 562/562/562 559/559/559 560/560/560
o Engraved_ornamental_stroke
v -0.346844 3.206122 2.270425
v -0.265811 3.091995 2.252846
v -0.134697 3.135587 2.224402
v -0.134697 3.276656 2.224402
v -0.265811 3.320248 2.252846
v -0.346844 3.206122 2.270425
v -0.109683 3.206122 3.280496
v -0.031381 3.091995 3.307778
v 0.095312 3.135587 3.351922
v 0.095312 3.276656 3.351922
v -0.031381 3.320248 3.307778
v -0.109683 3.206122 3.280496
v -0.548663 3.206122 3.045405
v -0.498010 3.320248 2.979757
v -0.416053 3.276656 2.873536
v -0.416053 3.135587 2.873536
v -0.498010 3.091995 2.979757
v -0.548663 3.206122 3.045405
v -0.229572 3.206122 2.244984
v -0.475358 3.206122 2.950398
vt 0.5087500 0.9912500
vt 0.5552500 0.9912500
vt 0.6017500 0.9912500
vt 0.6482500 0.9912500
vt 0.6947500 0.9912500
vt 0.7412500 0.9912500
vt 0.5087500 0.8750000
vt 0.5552500 0.8750000
vt 0.6017500 0.8750000
vt 0.6482500 0.8750000
vt 0.6947500 0.8750000
vt 0.7412500 0.8750000
vt 0.5087500 0.7587500
vt 0.5552500 0.7587500
vt 0.6017500 0.7587500
vt 0.6482500 0.7587500
vt 0.6947500 0.7587500
vt 0.7412500 0.7587500
vt 0.6250000 0.8750000
vt 0.6250000 0.8750000
vn -0.9673504 -0.2066360 0.1467473
vn -0.0841500 -0.9949407 -0.0548800
vn 0.8903225 -0.3802492 -0.2504724
vn 0.6520366 0.7289298 -0.2085897
vn -0.5362928 0.8427677 0.0461807
vn -0.9673504 -0.2066360 0.1467473
vn -0.9115601 0.3901633 0.1297331
vn -0.6655567 -0.7157105 0.2116430
vn 0.6873802 -0.7253072 -0.0379196
vn 0.9917949 0.0580323 0.1139080
vn -0.1552239 0.9578377 0.2417696
vn -0.9115601 0.3901633 0.1297331
vn -0.6632867 -0.1946658 0.7226036
vn 0.1610099 0.9865649 -0.0276683
vn 0.4163062 0.8323163 -0.3659763
vn 0.1436893 -0.9495341 -0.2788161
vn -0.1753341 -0.8678889 0.4647868
vn -0.6632867 -0.1946658 0.7226036
vn -0.2120071 0.0000000 -0.9772681
vn -0.7917254 0.0000000 -0.6108772
f 563/563/563 564/564/564 570/570/570
f 563/563/563 570/570/570 569/569/569
f 564/564/564 565/565/565 571/571/571
f 564/564/564 571/571/571 570/570/570
f 565/565/565 566/566/566 572/572/572
f 565/565/565 572/572/572 571/571/571
f 566/566/566 567/567/567 573/573/573
f 566/566/566 573/573/573 572/572/572
f 567/567/567 568/568/568 574/574/574
f 567/567/567 574/574/574 573/573/573
f 569/569/569 570/570/570 576/576/576
f 569/569/569 576/576/576 575/575/575
f 570/570/570 571/571/571 577/577/577
f 570/570/570 577/577/577 576/576/576
f 571/571/571 572/572/572 578/578/578
f 571/571/571 578/578/578 577/577/577
f 572/572/572 573/573/573 579/579/579
f 572/572/572 579/579/579 578/578/578
f 573/573/573 574/574/574 580/580/580
f 573/573/573 580/580/580 579/579/579
f 581/581/581 564/564/564 563/563/563
f 581/581/581 565/565/565 564/564/564
f 581/581/581 566/566/566 565/565/565
f 581/581/581 567/567/567 566/566/566
f 581/581/581 568/568/568 567/567/567
f 582/582/582 575/575/575 576/576/576
f 582/582/582 576/576/576 577/577/577
f 582/582/582 577/577/577 578/578/578
f 582/582/582 578/578/578 579/579/579
f 582/582/582 579/579/579 580/580/580
o Engraved_ornamental_stroke
v -0.730065 3.206122 4.148281
v -0.785805 3.091995 4.086894
v -0.875995 3.135587 3.987567
v -0.875995 3.276656 3.987567
v -0.785805 3.320248 4.086894
v -0.730065 3.206122 4.148281
v 0.026102 3.206122 3.437857
v 0.010578 3.091995 3.356405
v -0.014539 3.135587 3.224613
v -0.014539 3.276656 3.224613
v 0.010578 3.320248 3.356405
v 0.026102 3.206122 3.437857
v 0.041998 3.206122 3.935571
v -0.040182 3.320248 3.924528
v -0.173151 3.276656 3.906662
v -0.173151 3.135587 3.906662
v -0.040182 3.091995 3.924528
v 0.041998 3.206122 3.935571
v -0.810733 3.206122 4.059440
v -0.076933 3.206122 3.919590
vt 0.5087500 0.9912500
vt 0.5552500 0.9912500
vt 0.6017500 0.9912500
vt 0.6482500 0.9912500
vt 0.6947500 0.9912500
vt 0.7412500 0.9912500
vt 0.5087500 0.8750000
vt 0.5552500 0.8750000
vt 0.6017500 0.8750000
vt 0.6482500 0.8750000
vt 0.6947500 0.8750000
vt 0.7412500 0.8750000
vt 0.5087500 0.7587500
vt 0.5552500 0.7587500
vt 0.6017500 0.7587500
vt 0.6482500 0.7587500
vt 0.6947500 0.7587500
vt 0.7412500 0.7587500
vt 0.6250000 0.8750000
vt 0.6250000 0.8750000
vn 0.6107621 -0.2066360 0.7643763
vn -0.0054524 -0.9949407 0.1003160
vn -0.6620767 -0.3802492 -0.6458057
vn -0.5066623 0.7289298 -0.4603854
vn 0.3081401 0.8427677 0.4413528
vn 0.6107621 -0.2066360 0.7643763
vn 0.5681322 0.3901633 0.7245677
vn 0.5160666 -0.7157105 0.4705675
vn -0.3765295 -0.7253072 -0.5763289
vn -0.3972502 0.0580323 -0.9158736
vn 0.2869906 0.9578377 0.0135430
vn 0.5681322 0.3901633 0.7245677
vn 0.9574364 -0.1946658 0.2131214
vn -0.1044665 0.9865649 -0.1256045
vn -0.5250979 0.8323163 -0.1775436
vn -0.3133065 -0.9495341 0.0149695
vn 0.4901842 -0.8678889 -0.0805497
vn 0.9574364 -0.1946658 0.2131214
vn -0.7403355 0.0000000 0.6722376
vn -0.1331724 0.0000000 0.9910929
f 583/583/583 584/584/584 590/590/590
f 583/583/583 590/590/590 589/589/589
f 584/584/584 585/585/585 591/591/591
f 584/584/584 591/591/591 590/590/590
f 585/585/585 586/586/586 592/592/592
f 585/585/585 592/592/592 591/591/591
f 586/586/586 587/587/587 593/593/593
f 586/586/586 593/593/593 592/592/592
f 587/587/587 588/588/588 594/594/594
f 587/587/587 594/594/594 593/593/593
f 589/589/589 590/590/590 596/596/596
f 589/589/589 596/596/596 595/595/595
f 590/590/590 591/591/591 597/597/597
f 590/590/590 597/597/597 596/596/596
f 591/591/591 592/592/592 598/598/598
f 591/591/591 598/598/598 597/597/597
f 592/592/592 593/593/593 599/599/599
f 592/592/592 599/599/599 598/598/598
f 593/593/593 594/594/594 600/600/600
f 593/593/593 600/600/600 599/599/599
f 601/601/601 584/584/584 583/583/583
f 601/601/601 585/585/585 584/584/584
f 601/601/601 586/586/586 585/585/585
f 601/601/601 587/587/587 586/586/586
f 601/601/601 588/588/588 587/587/587
f 602/602/602 595/595/595 596/596/596
f 602/602/602 596/596/596 597/597/597
f 602/602/602 597/597/597 598/598/598
f 602/602/602 598/598/598 599/599/599
f 602/602/602 599/599/599 600/600/600
o Engraved_ornamental_stroke
v 1.087816 3.206122 3.541231
v 1.062524 3.091995 3.620198
v 1.021600 3.135587 3.747968
v 1.021600 3.276656 3.747968
v 1.062524 3.320248 3.620198
v 1.087816 3.206122 3.541231
v 0.094489 3.206122 3.241584
v 0.031711 3.091995 3.295754
v -0.069865 3.135587 3.383402
v -0.069865 3.276656 3.383402
v 0.031711 3.320248 3.295754
v 0.094489 3.206122 3.241584
v 0.517573 3.206122 2.978961
v 0.549100 3.320248 3.055651
v 0.600111 3.276656 3.179739
v 0.600111 3.135587 3.179739
v 0.549100 3.091995 3.055651
v 0.517573 3.206122 2.978961
v 1.051213 3.206122 3.655513
v 0.563199 3.206122 3.089948
vt 0.5087500 0.9912500
vt 0.5552500 0.9912500
vt 0.6017500 0.9912500
vt 0.6482500 0.9912500
vt 0.6947500 0.9912500
vt 0.7412500 0.9912500
vt 0.5087500 0.8750000
vt 0.5552500 0.8750000
vt 0.6017500 0.8750000
vt 0.6482500 0.8750000
vt 0.6947500 0.8750000
vt 0.7412500 0.8750000
vt 0.5087500 0.7587500
vt 0.5552500 0.7587500
vt 0.6017500 0.7587500
vt 0.6482500 0.7587500
vt 0.6947500 0.7587500
vt 0.7412500 0.7587500
vt 0.6250000 0.8750000
vt 0.6250000 0.8750000
vn 0.3565883 -0.2066360 -0.9111237
vn 0.0896024 -0.9949407 -0.0454361
vn -0.2282458 -0.3802492 0.8962781
vn -0.1453743 0.7289298 0.6689751
vn 0.2281527 0.8427677 -0.4875335
vn 0.3565883 -0.2066360 -0.9111237
vn 0.3434279 0.3901633 -0.8543008
vn 0.1494901 -0.7157105 -0.6822106
vn -0.3108507 -0.7253072 0.6142485
vn -0.5945447 0.0580323 0.8019656
vn -0.1317667 0.9578377 -0.2553127
vn 0.3434279 0.3901633 -0.8543008
vn -0.2941497 -0.1946658 -0.9357249
vn -0.0565435 0.9865649 0.1532729
vn 0.1087917 0.8323163 0.5435199
vn 0.1696172 -0.9495341 0.2638466
vn -0.3148502 -0.8678889 -0.3842372
vn -0.2941497 -0.1946658 -0.9357249
vn 0.9523426 0.0000000 0.3050305
vn 0.9248978 0.0000000 -0.3802157
f 603/603/603 604/604/604 610/610/610
f 603/603/603 610/610/610 609/609/609
f 604/604/604 605/605/605 611/611/611
f 604/604/604 611/611/611 610/610/610
f 605/605/605 606/606/606 612/612/612
f 605/605/605 612/612/612 611/611/611
f 606/606/606 607/607/607 613/613/613
f 606/606/606 613/613/613 612/612/612
f 607/607/607 608/608/608 614/614/614
f 607/607/607 614/614/614 613/613/613
f 609/609/609 610/610/610 616/616/616
f 609/609/609 616/616/616 615/615/615
f 610/610/610 611/611/611 617/617/617
f 610/610/610 617/617/617 616/616/616
f 611/611/611 612/612/612 618/618/618
f 611/611/611 618/618/618 617/617/617
f 612/612/612 613/613/613 619/619/619
f 612/612/612 619/619/619 618/618/618
f 613/613/613 614/614/614 620/620/620
f 613/613/613 620/620/620 619/619/619
f 621/621/621 604/604/604 603/603/603
f 621/621/621 605/605/605 604/604/604
f 621/621/621 606/606/606 605/605/605
f 621/621/621 607/607/607 606/606/606
f 621/621/621 608/608/608 607/607/607
f 622/622/622 615/615/615 616/616/616
f 622/622/622 616/616/616 617/617/617
f 622/622/622 617/617/617 618/618/618
f 622/622/622 618/618/618 619/619/619
f 622/622/622 619/619/619 620/620/620
