# Original Project Broom pickup; OBJ Y up; CC-BY-SA-4.0
o Tapered_carved_shaft
v -23.065635 1.720000 0.999742
v -23.065069 1.286125 0.900672
v -23.069116 0.938185 0.623214
v -23.076973 0.745093 0.222320
v -23.087085 0.745093 -0.222607
v -23.097449 0.938185 -0.623444
v -23.106012 1.286125 -0.900800
v -23.111078 1.720000 -0.999742
v -23.111644 2.153875 -0.900672
v -23.107597 2.501815 -0.623214
v -23.099740 2.694907 -0.222320
v -23.089628 2.694907 0.222607
v -23.079264 2.501815 0.623444
v -23.070701 2.153875 0.900800
v -23.065635 1.720000 0.999742
v -7.696235 1.820000 0.949976
v -7.695455 1.255951 0.821238
v -7.693269 0.803619 0.460522
v -7.690110 0.552594 -0.060728
v -7.686603 0.552594 -0.639272
v -7.683444 0.803619 -1.160522
v -7.681258 1.255951 -1.521238
v -7.680478 1.820000 -1.649976
v -7.681258 2.384049 -1.521238
v -7.683444 2.836381 -1.160522
v -7.686603 3.087406 -0.639272
v -7.690110 3.087406 -0.060728
v -7.693269 2.836381 0.460522
v -7.695455 2.384049 0.821238
v -7.696235 1.820000 0.949976
v 9.899407 1.720000 1.199925
v 9.900619 1.286116 1.100901
v 9.904014 0.938169 0.823443
v 9.908921 0.745072 0.422504
v 9.914367 0.745072 -0.022504
v 9.919273 0.938169 -0.423443
v 9.922669 1.286116 -0.700901
v 9.923880 1.720000 -0.799925
v 9.922669 2.153884 -0.700901
v 9.919273 2.501831 -0.423443
v 9.914367 2.694928 -0.022504
v 9.908921 2.694928 0.422504
v 9.904014 2.501831 0.823443
v 9.900619 2.153884 1.100901
v 9.899407 1.720000 1.199925
v 20.925276 1.820207 0.749876
v 20.926885 1.494788 0.675651
v 20.925475 1.233780 0.467605
v 20.921325 1.088880 0.166944
v 20.915259 1.088788 -0.166782
v 20.908476 1.233521 -0.467475
v 20.902320 1.494414 -0.675579
v 20.898011 1.819793 -0.749876
v 20.896403 2.145212 -0.675651
v 20.897812 2.406220 -0.467605
v 20.901962 2.551120 -0.166944
v 20.908029 2.551212 0.166782
v 20.914812 2.406479 0.467475
v 20.920967 2.145586 0.675579
v 20.925276 1.820207 0.749876
v -23.088356 1.720000 -0.000000
v 20.911644 1.820000 -0.000000
vt 0.7587500 0.9912500
vt 0.7753571 0.9912500
vt 0.7919643 0.9912500
vt 0.8085714 0.9912500
vt 0.8251786 0.9912500
vt 0.8417857 0.9912500
vt 0.8583929 0.9912500
vt 0.8750000 0.9912500
vt 0.8916071 0.9912500
vt 0.9082143 0.9912500
vt 0.9248214 0.9912500
vt 0.9414286 0.9912500
vt 0.9580357 0.9912500
vt 0.9746429 0.9912500
vt 0.9912500 0.9912500
vt 0.7587500 0.9137500
vt 0.7753571 0.9137500
vt 0.7919643 0.9137500
vt 0.8085714 0.9137500
vt 0.8251786 0.9137500
vt 0.8417857 0.9137500
vt 0.8583929 0.9137500
vt 0.8750000 0.9137500
vt 0.8916071 0.9137500
vt 0.9082143 0.9137500
vt 0.9248214 0.9137500
vt 0.9414286 0.9137500
vt 0.9580357 0.9137500
vt 0.9746429 0.9137500
vt 0.9912500 0.9137500
vt 0.7587500 0.8362500
vt 0.7753571 0.8362500
vt 0.7919643 0.8362500
vt 0.8085714 0.8362500
vt 0.8251786 0.8362500
vt 0.8417857 0.8362500
vt 0.8583929 0.8362500
vt 0.8750000 0.8362500
vt 0.8916071 0.8362500
vt 0.9082143 0.8362500
vt 0.9248214 0.8362500
vt 0.9414286 0.8362500
vt 0.9580357 0.8362500
vt 0.9746429 0.8362500
vt 0.9912500 0.8362500
vt 0.7587500 0.7587500
vt 0.7753571 0.7587500
vt 0.7919643 0.7587500
vt 0.8085714 0.7587500
vt 0.8251786 0.7587500
vt 0.8417857 0.7587500
vt 0.8583929 0.7587500
vt 0.8750000 0.7587500
vt 0.8916071 0.7587500
vt 0.9082143 0.7587500
vt 0.9248214 0.7587500
vt 0.9414286 0.7587500
vt 0.9580357 0.7587500
vt 0.9746429 0.7587500
vt 0.9912500 0.7587500
vt 0.8750000 0.8750000
vt 0.8750000 0.8750000
vn -0.0354011 -0.0897407 0.9953358
vn -0.0357725 -0.5123227 0.8580476
vn -0.0406458 -0.8334999 0.5510225
vn -0.0490469 -0.9896218 0.1350673
vn -0.0593019 -0.9497395 -0.3073730
vn -0.0693758 -0.7218138 -0.6886014
vn -0.0772798 -0.3510935 -0.9331458
vn -0.0814613 0.0889819 -0.9926965
vn -0.0811003 0.5113654 -0.8555280
vn -0.0762649 0.8325122 -0.5487322
vn -0.0679007 0.9887950 -0.1329436
vn -0.0576538 0.9491439 0.3095188
vn -0.0475531 0.7213452 0.6909412
vn -0.0396075 0.3505522 0.9357053
vn -0.0354011 -0.0897407 0.9953358
vn -0.0064555 -0.0042938 0.9999699
vn -0.0050677 -0.4377588 0.8990782
vn -0.0026739 -0.7845031 0.6201191
vn 0.0002494 -0.9758656 0.2183720
vn 0.0031201 -0.9739830 -0.2265997
vn 0.0053683 -0.7792353 -0.6267085
vn 0.0065499 -0.4301524 -0.9027325
vn 0.0064335 0.0041650 -0.9999706
vn 0.0050446 0.4376813 -0.8991160
vn 0.0026587 0.7844868 -0.6201399
vn -0.0002537 0.9758740 -0.2183343
vn -0.0031186 0.9739612 0.2266932
vn -0.0053706 0.7791511 0.6268132
vn -0.0065626 0.4300207 0.9027952
vn -0.0064555 -0.0042938 0.9999699
vn 0.0051957 0.0377234 0.9992747
vn 0.0053225 -0.3995617 0.9166908
vn 0.0081507 -0.7576850 0.6525695
vn 0.0131221 -0.9657189 0.2592583
vn 0.0192548 -0.9824884 -0.1853260
vn 0.0253355 -0.8047007 -0.5931399
vn 0.0301587 -0.4675765 -0.8834380
vn 0.0327664 -0.0378734 -0.9987452
vn 0.0326400 0.3993249 -0.9162283
vn 0.0298043 0.7574464 -0.6522167
vn 0.0248232 0.9655649 -0.2589754
vn 0.0186859 0.9824418 0.1856315
vn 0.0126092 0.8047032 0.5935434
vn 0.0077955 0.4675330 0.8839412
vn 0.0051957 0.0377234 0.9992747
vn 0.0802669 0.0912648 0.9925865
vn 0.0831682 -0.3487160 0.9335310
vn 0.0821331 -0.7195800 0.6895352
vn 0.0773592 -0.9479763 0.3087986
vn 0.0697766 -0.9886018 -0.1334080
vn 0.0608767 -0.8332733 -0.5494995
vn 0.0524246 -0.5127080 -0.8569610
vn 0.0461062 -0.0904520 -0.9948330
vn 0.0431849 0.3498142 -0.9358232
vn 0.0442437 0.7208926 -0.6916331
vn 0.0490673 0.9492707 -0.3106083
vn 0.0566880 0.9896589 0.1317637
vn 0.0655857 0.8340526 0.5477725
vn 0.0739971 0.5133786 0.8549660
vn 0.0802669 0.0912648 0.9925865
vn -0.9997208 -0.0064917 0.0227209
vn 0.9997935 0.0090890 -0.0181781
f 1/1/1 2/2/2 17/17/17
f 1/1/1 17/17/17 16/16/16
f 2/2/2 3/3/3 18/18/18
f 2/2/2 18/18/18 17/17/17
f 3/3/3 4/4/4 19/19/19
f 3/3/3 19/19/19 18/18/18
f 4/4/4 5/5/5 20/20/20
f 4/4/4 20/20/20 19/19/19
f 5/5/5 6/6/6 21/21/21
f 5/5/5 21/21/21 20/20/20
f 6/6/6 7/7/7 22/22/22
f 6/6/6 22/22/22 21/21/21
f 7/7/7 8/8/8 23/23/23
f 7/7/7 23/23/23 22/22/22
f 8/8/8 9/9/9 24/24/24
f 8/8/8 24/24/24 23/23/23
f 9/9/9 10/10/10 25/25/25
f 9/9/9 25/25/25 24/24/24
f 10/10/10 11/11/11 26/26/26
f 10/10/10 26/26/26 25/25/25
f 11/11/11 12/12/12 27/27/27
f 11/11/11 27/27/27 26/26/26
f 12/12/12 13/13/13 28/28/28
f 12/12/12 28/28/28 27/27/27
f 13/13/13 14/14/14 29/29/29
f 13/13/13 29/29/29 28/28/28
f 14/14/14 15/15/15 30/30/30
f 14/14/14 30/30/30 29/29/29
f 16/16/16 17/17/17 32/32/32
f 16/16/16 32/32/32 31/31/31
f 17/17/17 18/18/18 33/33/33
f 17/17/17 33/33/33 32/32/32
f 18/18/18 19/19/19 34/34/34
f 18/18/18 34/34/34 33/33/33
f 19/19/19 20/20/20 35/35/35
f 19/19/19 35/35/35 34/34/34
f 20/20/20 21/21/21 36/36/36
f 20/20/20 36/36/36 35/35/35
f 21/21/21 22/22/22 37/37/37
f 21/21/21 37/37/37 36/36/36
f 22/22/22 23/23/23 38/38/38
f 22/22/22 38/38/38 37/37/37
f 23/23/23 24/24/24 39/39/39
f 23/23/23 39/39/39 38/38/38
f 24/24/24 25/25/25 40/40/40
f 24/24/24 40/40/40 39/39/39
f 25/25/25 26/26/26 41/41/41
f 25/25/25 41/41/41 40/40/40
f 26/26/26 27/27/27 42/42/42
f 26/26/26 42/42/42 41/41/41
f 27/27/27 28/28/28 43/43/43
f 27/27/27 43/43/43 42/42/42
f 28/28/28 29/29/29 44/44/44
f 28/28/28 44/44/44 43/43/43
f 29/29/29 30/30/30 45/45/45
f 29/29/29 45/45/45 44/44/44
f 31/31/31 32/32/32 47/47/47
f 31/31/31 47/47/47 46/46/46
f 32/32/32 33/33/33 48/48/48
f 32/32/32 48/48/48 47/47/47
f 33/33/33 34/34/34 49/49/49
f 33/33/33 49/49/49 48/48/48
f 34/34/34 35/35/35 50/50/50
f 34/34/34 50/50/50 49/49/49
f 35/35/35 36/36/36 51/51/51
f 35/35/35 51/51/51 50/50/50
f 36/36/36 37/37/37 52/52/52
f 36/36/36 52/52/52 51/51/51
f 37/37/37 38/38/38 53/53/53
f 37/37/37 53/53/53 52/52/52
f 38/38/38 39/39/39 54/54/54
f 38/38/38 54/54/54 53/53/53
f 39/39/39 40/40/40 55/55/55
f 39/39/39 55/55/55 54/54/54
f 40/40/40 41/41/41 56/56/56
f 40/40/40 56/56/56 55/55/55
f 41/41/41 42/42/42 57/57/57
f 41/41/41 57/57/57 56/56/56
f 42/42/42 43/43/43 58/58/58
f 42/42/42 58/58/58 57/57/57
f 43/43/43 44/44/44 59/59/59
f 43/43/43 59/59/59 58/58/58
f 44/44/44 45/45/45 60/60/60
f 44/44/44 60/60/60 59/59/59
f 61/61/61 2/2/2 1/1/1
f 61/61/61 3/3/3 2/2/2
f 61/61/61 4/4/4 3/3/3
f 61/61/61 5/5/5 4/4/4
f 61/61/61 6/6/6 5/5/5
f 61/61/61 7/7/7 6/6/6
f 61/61/61 8/8/8 7/7/7
f 61/61/61 9/9/9 8/8/8
f 61/61/61 10/10/10 9/9/9
f 61/61/61 11/11/11 10/10/10
f 61/61/61 12/12/12 11/11/11
f 61/61/61 13/13/13 12/12/12
f 61/61/61 14/14/14 13/13/13
f 61/61/61 15/15/15 14/14/14
f 62/62/62 46/46/46 47/47/47
f 62/62/62 47/47/47 48/48/48
f 62/62/62 48/48/48 49/49/49
f 62/62/62 49/49/49 50/50/50
f 62/62/62 50/50/50 51/51/51
f 62/62/62 51/51/51 52/52/52
f 62/62/62 52/52/52 53/53/53
f 62/62/62 53/53/53 54/54/54
f 62/62/62 54/54/54 55/55/55
f 62/62/62 55/55/55 56/56/56
f 62/62/62 56/56/56 57/57/57
f 62/62/62 57/57/57 58/58/58
f 62/62/62 58/58/58 59/59/59
f 62/62/62 59/59/59 60/60/60
o Engraved_ferrule
v -22.438356 1.820000 1.350000
v -22.438356 1.234257 1.216308
v -22.438356 0.764527 0.841711
v -22.438356 0.503847 0.300403
v -22.438356 0.503847 -0.300403
v -22.438356 0.764527 -0.841711
v -22.438356 1.234257 -1.216308
v -22.438356 1.820000 -1.350000
v -22.438356 2.405743 -1.216308
v -22.438356 2.875473 -0.841711
v -22.438356 3.136153 -0.300403
v -22.438356 3.136153 0.300403
v -22.438356 2.875473 0.841711
v -22.438356 2.405743 1.216308
v -22.438356 1.820000 1.350000
v -21.738356 1.820000 1.350000
v -21.738356 1.234257 1.216308
v -21.738356 0.764527 0.841711
v -21.738356 0.503847 0.300403
v -21.738356 0.503847 -0.300403
v -21.738356 0.764527 -0.841711
v -21.738356 1.234257 -1.216308
v -21.738356 1.820000 -1.350000
v -21.738356 2.405743 -1.216308
v -21.738356 2.875473 -0.841711
v -21.738356 3.136153 -0.300403
v -21.738356 3.136153 0.300403
v -21.738356 2.875473 0.841711
v -21.738356 2.405743 1.216308
v -21.738356 1.820000 1.350000
v -22.438356 1.820000 -0.000000
v -21.738356 1.820000 -0.000000
vt 0.5087500 0.9912500
vt 0.5253571 0.9912500
vt 0.5419643 0.9912500
vt 0.5585714 0.9912500
vt 0.5751786 0.9912500
vt 0.5917857 0.9912500
vt 0.6083929 0.9912500
vt 0.6250000 0.9912500
vt 0.6416071 0.9912500
vt 0.6582143 0.9912500
vt 0.6748214 0.9912500
vt 0.6914286 0.9912500
vt 0.7080357 0.9912500
vt 0.7246429 0.9912500
vt 0.7412500 0.9912500
vt 0.5087500 0.7587500
vt 0.5253571 0.7587500
vt 0.5419643 0.7587500
vt 0.5585714 0.7587500
vt 0.5751786 0.7587500
vt 0.5917857 0.7587500
vt 0.6083929 0.7587500
vt 0.6250000 0.7587500
vt 0.6416071 0.7587500
vt 0.6582143 0.7587500
vt 0.6748214 0.7587500
vt 0.6914286 0.7587500
vt 0.7080357 0.7587500
vt 0.7246429 0.7587500
vt 0.7412500 0.7587500
vt 0.6250000 0.8750000
vt 0.6250000 0.8750000
vn -0.7884925 -0.0466584 0.6132720
vn -0.7884925 -0.3081265 0.5322946
vn -0.7884925 -0.5085664 0.3458898
vn -0.7884925 -0.6082784 0.0909772
vn -0.7884925 -0.5875135 -0.1819545
vn -0.7884925 -0.4503843 -0.4188479
vn -0.7884925 -0.2240509 -0.5727833
vn -0.7884925 0.0466584 -0.6132720
vn -0.7884925 0.3081265 -0.5322946
vn -0.7884925 0.5085664 -0.3458898
vn -0.7884925 0.6082784 -0.0909772
vn -0.7884925 0.5875135 0.1819545
vn -0.7884925 0.4503843 0.4188479
vn -0.7884925 0.2240509 0.5727833
vn -0.7884925 -0.0466584 0.6132720
vn 0.7884925 0.0466584 0.6132720
vn 0.7884925 -0.2240509 0.5727833
vn 0.7884925 -0.4503843 0.4188479
vn 0.7884925 -0.5875135 0.1819545
vn 0.7884925 -0.6082784 -0.0909772
vn 0.7884925 -0.5085664 -0.3458898
vn 0.7884925 -0.3081265 -0.5322946
vn 0.7884925 -0.0466584 -0.6132720
vn 0.7884925 0.2240509 -0.5727833
vn 0.7884925 0.4503843 -0.4188479
vn 0.7884925 0.5875135 -0.1819545
vn 0.7884925 0.6082784 0.0909772
vn 0.7884925 0.5085664 0.3458898
vn 0.7884925 0.3081265 0.5322946
vn 0.7884925 0.0466584 0.6132720
vn -1.0000000 0.0000000 -0.0000000
vn 1.0000000 0.0000000 -0.0000000
f 63/63/63 64/64/64 79/79/79
f 63/63/63 79/79/79 78/78/78
f 64/64/64 65/65/65 80/80/80
f 64/64/64 80/80/80 79/79/79
f 65/65/65 66/66/66 81/81/81
f 65/65/65 81/81/81 80/80/80
f 66/66/66 67/67/67 82/82/82
f 66/66/66 82/82/82 81/81/81
f 67/67/67 68/68/68 83/83/83
f 67/67/67 83/83/83 82/82/82
f 68/68/68 69/69/69 84/84/84
f 68/68/68 84/84/84 83/83/83
f 69/69/69 70/70/70 85/85/85
f 69/69/69 85/85/85 84/84/84
f 70/70/70 71/71/71 86/86/86
f 70/70/70 86/86/86 85/85/85
f 71/71/71 72/72/72 87/87/87
f 71/71/71 87/87/87 86/86/86
f 72/72/72 73/73/73 88/88/88
f 72/72/72 88/88/88 87/87/87
f 73/73/73 74/74/74 89/89/89
f 73/73/73 89/89/89 88/88/88
f 74/74/74 75/75/75 90/90/90
f 74/74/74 90/90/90 89/89/89
f 75/75/75 76/76/76 91/91/91
f 75/75/75 91/91/91 90/90/90
f 76/76/76 77/77/77 92/92/92
f 76/76/76 92/92/92 91/91/91
f 93/93/93 64/64/64 63/63/63
f 93/93/93 65/65/65 64/64/64
f 93/93/93 66/66/66 65/65/65
f 93/93/93 67/67/67 66/66/66
f 93/93/93 68/68/68 67/67/67
f 93/93/93 69/69/69 68/68/68
f 93/93/93 70/70/70 69/69/69
f 93/93/93 71/71/71 70/70/70
f 93/93/93 72/72/72 71/71/71
f 93/93/93 73/73/73 72/72/72
f 93/93/93 74/74/74 73/73/73
f 93/93/93 75/75/75 74/74/74
f 93/93/93 76/76/76 75/75/75
f 93/93/93 77/77/77 76/76/76
f 94/94/94 78/78/78 79/79/79
f 94/94/94 79/79/79 80/80/80
f 94/94/94 80/80/80 81/81/81
f 94/94/94 81/81/81 82/82/82
f 94/94/94 82/82/82 83/83/83
f 94/94/94 83/83/83 84/84/84
f 94/94/94 84/84/84 85/85/85
f 94/94/94 85/85/85 86/86/86
f 94/94/94 86/86/86 87/87/87
f 94/94/94 87/87/87 88/88/88
f 94/94/94 88/88/88 89/89/89
f 94/94/94 89/89/89 90/90/90
f 94/94/94 90/90/90 91/91/91
f 94/94/94 91/91/91 92/92/92
o Engraved_ferrule
v -21.438356 1.820000 1.350000
v -21.438356 1.234257 1.216308
v -21.438356 0.764527 0.841711
v -21.438356 0.503847 0.300403
v -21.438356 0.503847 -0.300403
v -21.438356 0.764527 -0.841711
v -21.438356 1.234257 -1.216308
v -21.438356 1.820000 -1.350000
v -21.438356 2.405743 -1.216308
v -21.438356 2.875473 -0.841711
v -21.438356 3.136153 -0.300403
v -21.438356 3.136153 0.300403
v -21.438356 2.875473 0.841711
v -21.438356 2.405743 1.216308
v -21.438356 1.820000 1.350000
v -20.738356 1.820000 1.350000
v -20.738356 1.234257 1.216308
v -20.738356 0.764527 0.841711
v -20.738356 0.503847 0.300403
v -20.738356 0.503847 -0.300403
v -20.738356 0.764527 -0.841711
v -20.738356 1.234257 -1.216308
v -20.738356 1.820000 -1.350000
v -20.738356 2.405743 -1.216308
v -20.738356 2.875473 -0.841711
v -20.738356 3.136153 -0.300403
v -20.738356 3.136153 0.300403
v -20.738356 2.875473 0.841711
v -20.738356 2.405743 1.216308
v -20.738356 1.820000 1.350000
v -21.438356 1.820000 -0.000000
v -20.738356 1.820000 -0.000000
vt 0.5087500 0.9912500
vt 0.5253571 0.9912500
vt 0.5419643 0.9912500
vt 0.5585714 0.9912500
vt 0.5751786 0.9912500
vt 0.5917857 0.9912500
vt 0.6083929 0.9912500
vt 0.6250000 0.9912500
vt 0.6416071 0.9912500
vt 0.6582143 0.9912500
vt 0.6748214 0.9912500
vt 0.6914286 0.9912500
vt 0.7080357 0.9912500
vt 0.7246429 0.9912500
vt 0.7412500 0.9912500
vt 0.5087500 0.7587500
vt 0.5253571 0.7587500
vt 0.5419643 0.7587500
vt 0.5585714 0.7587500
vt 0.5751786 0.7587500
vt 0.5917857 0.7587500
vt 0.6083929 0.7587500
vt 0.6250000 0.7587500
vt 0.6416071 0.7587500
vt 0.6582143 0.7587500
vt 0.6748214 0.7587500
vt 0.6914286 0.7587500
vt 0.7080357 0.7587500
vt 0.7246429 0.7587500
vt 0.7412500 0.7587500
vt 0.6250000 0.8750000
vt 0.6250000 0.8750000
vn -0.7884925 -0.0466584 0.6132720
vn -0.7884925 -0.3081265 0.5322946
vn -0.7884925 -0.5085664 0.3458898
vn -0.7884925 -0.6082784 0.0909772
vn -0.7884925 -0.5875135 -0.1819545
vn -0.7884925 -0.4503843 -0.4188479
vn -0.7884925 -0.2240509 -0.5727833
vn -0.7884925 0.0466584 -0.6132720
vn -0.7884925 0.3081265 -0.5322946
vn -0.7884925 0.5085664 -0.3458898
vn -0.7884925 0.6082784 -0.0909772
vn -0.7884925 0.5875135 0.1819545
vn -0.7884925 0.4503843 0.4188479
vn -0.7884925 0.2240509 0.5727833
vn -0.7884925 -0.0466584 0.6132720
vn 0.7884925 0.0466584 0.6132720
vn 0.7884925 -0.2240509 0.5727833
vn 0.7884925 -0.4503843 0.4188479
vn 0.7884925 -0.5875135 0.1819545
vn 0.7884925 -0.6082784 -0.0909772
vn 0.7884925 -0.5085664 -0.3458898
vn 0.7884925 -0.3081265 -0.5322946
vn 0.7884925 -0.0466584 -0.6132720
vn 0.7884925 0.2240509 -0.5727833
vn 0.7884925 0.4503843 -0.4188479
vn 0.7884925 0.5875135 -0.1819545
vn 0.7884925 0.6082784 0.0909772
vn 0.7884925 0.5085664 0.3458898
vn 0.7884925 0.3081265 0.5322946
vn 0.7884925 0.0466584 0.6132720
vn -1.0000000 0.0000000 -0.0000000
vn 1.0000000 0.0000000 -0.0000000
f 95/95/95 96/96/96 111/111/111
f 95/95/95 111/111/111 110/110/110
f 96/96/96 97/97/97 112/112/112
f 96/96/96 112/112/112 111/111/111
f 97/97/97 98/98/98 113/113/113
f 97/97/97 113/113/113 112/112/112
f 98/98/98 99/99/99 114/114/114
f 98/98/98 114/114/114 113/113/113
f 99/99/99 100/100/100 115/115/115
f 99/99/99 115/115/115 114/114/114
f 100/100/100 101/101/101 116/116/116
f 100/100/100 116/116/116 115/115/115
f 101/101/101 102/102/102 117/117/117
f 101/101/101 117/117/117 116/116/116
f 102/102/102 103/103/103 118/118/118
f 102/102/102 118/118/118 117/117/117
f 103/103/103 104/104/104 119/119/119
f 103/103/103 119/119/119 118/118/118
f 104/104/104 105/105/105 120/120/120
f 104/104/104 120/120/120 119/119/119
f 105/105/105 106/106/106 121/121/121
f 105/105/105 121/121/121 120/120/120
f 106/106/106 107/107/107 122/122/122
f 106/106/106 122/122/122 121/121/121
f 107/107/107 108/108/108 123/123/123
f 107/107/107 123/123/123 122/122/122
f 108/108/108 109/109/109 124/124/124
f 108/108/108 124/124/124 123/123/123
f 125/125/125 96/96/96 95/95/95
f 125/125/125 97/97/97 96/96/96
f 125/125/125 98/98/98 97/97/97
f 125/125/125 99/99/99 98/98/98
f 125/125/125 100/100/100 99/99/99
f 125/125/125 101/101/101 100/100/100
f 125/125/125 102/102/102 101/101/101
f 125/125/125 103/103/103 102/102/102
f 125/125/125 104/104/104 103/103/103
f 125/125/125 105/105/105 104/104/104
f 125/125/125 106/106/106 105/105/105
f 125/125/125 107/107/107 106/106/106
f 125/125/125 108/108/108 107/107/107
f 125/125/125 109/109/109 108/108/108
f 126/126/126 110/110/110 111/111/111
f 126/126/126 111/111/111 112/112/112
f 126/126/126 112/112/112 113/113/113
f 126/126/126 113/113/113 114/114/114
f 126/126/126 114/114/114 115/115/115
f 126/126/126 115/115/115 116/116/116
f 126/126/126 116/116/116 117/117/117
f 126/126/126 117/117/117 118/118/118
f 126/126/126 118/118/118 119/119/119
f 126/126/126 119/119/119 120/120/120
f 126/126/126 120/120/120 121/121/121
f 126/126/126 121/121/121 122/122/122
f 126/126/126 122/122/122 123/123/123
f 126/126/126 123/123/123 124/124/124
o Engraved_ferrule
v 17.561644 1.820000 1.350000
v 17.561644 1.234257 1.216308
v 17.561644 0.764527 0.841711
v 17.561644 0.503847 0.300403
v 17.561644 0.503847 -0.300403
v 17.561644 0.764527 -0.841711
v 17.561644 1.234257 -1.216308
v 17.561644 1.820000 -1.350000
v 17.561644 2.405743 -1.216308
v 17.561644 2.875473 -0.841711
v 17.561644 3.136153 -0.300403
v 17.561644 3.136153 0.300403
v 17.561644 2.875473 0.841711
v 17.561644 2.405743 1.216308
v 17.561644 1.820000 1.350000
v 18.261644 1.820000 1.350000
v 18.261644 1.234257 1.216308
v 18.261644 0.764527 0.841711
v 18.261644 0.503847 0.300403
v 18.261644 0.503847 -0.300403
v 18.261644 0.764527 -0.841711
v 18.261644 1.234257 -1.216308
v 18.261644 1.820000 -1.350000
v 18.261644 2.405743 -1.216308
v 18.261644 2.875473 -0.841711
v 18.261644 3.136153 -0.300403
v 18.261644 3.136153 0.300403
v 18.261644 2.875473 0.841711
v 18.261644 2.405743 1.216308
v 18.261644 1.820000 1.350000
v 17.561644 1.820000 -0.000000
v 18.261644 1.820000 -0.000000
vt 0.5087500 0.9912500
vt 0.5253571 0.9912500
vt 0.5419643 0.9912500
vt 0.5585714 0.9912500
vt 0.5751786 0.9912500
vt 0.5917857 0.9912500
vt 0.6083929 0.9912500
vt 0.6250000 0.9912500
vt 0.6416071 0.9912500
vt 0.6582143 0.9912500
vt 0.6748214 0.9912500
vt 0.6914286 0.9912500
vt 0.7080357 0.9912500
vt 0.7246429 0.9912500
vt 0.7412500 0.9912500
vt 0.5087500 0.7587500
vt 0.5253571 0.7587500
vt 0.5419643 0.7587500
vt 0.5585714 0.7587500
vt 0.5751786 0.7587500
vt 0.5917857 0.7587500
vt 0.6083929 0.7587500
vt 0.6250000 0.7587500
vt 0.6416071 0.7587500
vt 0.6582143 0.7587500
vt 0.6748214 0.7587500
vt 0.6914286 0.7587500
vt 0.7080357 0.7587500
vt 0.7246429 0.7587500
vt 0.7412500 0.7587500
vt 0.6250000 0.8750000
vt 0.6250000 0.8750000
vn -0.7884925 -0.0466584 0.6132720
vn -0.7884925 -0.3081265 0.5322946
vn -0.7884925 -0.5085664 0.3458898
vn -0.7884925 -0.6082784 0.0909772
vn -0.7884925 -0.5875135 -0.1819545
vn -0.7884925 -0.4503843 -0.4188479
vn -0.7884925 -0.2240509 -0.5727833
vn -0.7884925 0.0466584 -0.6132720
vn -0.7884925 0.3081265 -0.5322946
vn -0.7884925 0.5085664 -0.3458898
vn -0.7884925 0.6082784 -0.0909772
vn -0.7884925 0.5875135 0.1819545
vn -0.7884925 0.4503843 0.4188479
vn -0.7884925 0.2240509 0.5727833
vn -0.7884925 -0.0466584 0.6132720
vn 0.7884925 0.0466584 0.6132720
vn 0.7884925 -0.2240509 0.5727833
vn 0.7884925 -0.4503843 0.4188479
vn 0.7884925 -0.5875135 0.1819545
vn 0.7884925 -0.6082784 -0.0909772
vn 0.7884925 -0.5085664 -0.3458898
vn 0.7884925 -0.3081265 -0.5322946
vn 0.7884925 -0.0466584 -0.6132720
vn 0.7884925 0.2240509 -0.5727833
vn 0.7884925 0.4503843 -0.4188479
vn 0.7884925 0.5875135 -0.1819545
vn 0.7884925 0.6082784 0.0909772
vn 0.7884925 0.5085664 0.3458898
vn 0.7884925 0.3081265 0.5322946
vn 0.7884925 0.0466584 0.6132720
vn -1.0000000 0.0000000 -0.0000000
vn 1.0000000 0.0000000 -0.0000000
f 127/127/127 128/128/128 143/143/143
f 127/127/127 143/143/143 142/142/142
f 128/128/128 129/129/129 144/144/144
f 128/128/128 144/144/144 143/143/143
f 129/129/129 130/130/130 145/145/145
f 129/129/129 145/145/145 144/144/144
f 130/130/130 131/131/131 146/146/146
f 130/130/130 146/146/146 145/145/145
f 131/131/131 132/132/132 147/147/147
f 131/131/131 147/147/147 146/146/146
f 132/132/132 133/133/133 148/148/148
f 132/132/132 148/148/148 147/147/147
f 133/133/133 134/134/134 149/149/149
f 133/133/133 149/149/149 148/148/148
f 134/134/134 135/135/135 150/150/150
f 134/134/134 150/150/150 149/149/149
f 135/135/135 136/136/136 151/151/151
f 135/135/135 151/151/151 150/150/150
f 136/136/136 137/137/137 152/152/152
f 136/136/136 152/152/152 151/151/151
f 137/137/137 138/138/138 153/153/153
f 137/137/137 153/153/153 152/152/152
f 138/138/138 139/139/139 154/154/154
f 138/138/138 154/154/154 153/153/153
f 139/139/139 140/140/140 155/155/155
f 139/139/139 155/155/155 154/154/154
f 140/140/140 141/141/141 156/156/156
f 140/140/140 156/156/156 155/155/155
f 157/157/157 128/128/128 127/127/127
f 157/157/157 129/129/129 128/128/128
f 157/157/157 130/130/130 129/129/129
f 157/157/157 131/131/131 130/130/130
f 157/157/157 132/132/132 131/131/131
f 157/157/157 133/133/133 132/132/132
f 157/157/157 134/134/134 133/133/133
f 157/157/157 135/135/135 134/134/134
f 157/157/157 136/136/136 135/135/135
f 157/157/157 137/137/137 136/136/136
f 157/157/157 138/138/138 137/137/137
f 157/157/157 139/139/139 138/138/138
f 157/157/157 140/140/140 139/139/139
f 157/157/157 141/141/141 140/140/140
f 158/158/158 142/142/142 143/143/143
f 158/158/158 143/143/143 144/144/144
f 158/158/158 144/144/144 145/145/145
f 158/158/158 145/145/145 146/146/146
f 158/158/158 146/146/146 147/147/147
f 158/158/158 147/147/147 148/148/148
f 158/158/158 148/148/148 149/149/149
f 158/158/158 149/149/149 150/150/150
f 158/158/158 150/150/150 151/151/151
f 158/158/158 151/151/151 152/152/152
f 158/158/158 152/152/152 153/153/153
f 158/158/158 153/153/153 154/154/154
f 158/158/158 154/154/154 155/155/155
f 158/158/158 155/155/155 156/156/156
o Engraved_ferrule
v 19.561644 1.820000 1.350000
v 19.561644 1.234257 1.216308
v 19.561644 0.764527 0.841711
v 19.561644 0.503847 0.300403
v 19.561644 0.503847 -0.300403
v 19.561644 0.764527 -0.841711
v 19.561644 1.234257 -1.216308
v 19.561644 1.820000 -1.350000
v 19.561644 2.405743 -1.216308
v 19.561644 2.875473 -0.841711
v 19.561644 3.136153 -0.300403
v 19.561644 3.136153 0.300403
v 19.561644 2.875473 0.841711
v 19.561644 2.405743 1.216308
v 19.561644 1.820000 1.350000
v 20.261644 1.820000 1.350000
v 20.261644 1.234257 1.216308
v 20.261644 0.764527 0.841711
v 20.261644 0.503847 0.300403
v 20.261644 0.503847 -0.300403
v 20.261644 0.764527 -0.841711
v 20.261644 1.234257 -1.216308
v 20.261644 1.820000 -1.350000
v 20.261644 2.405743 -1.216308
v 20.261644 2.875473 -0.841711
v 20.261644 3.136153 -0.300403
v 20.261644 3.136153 0.300403
v 20.261644 2.875473 0.841711
v 20.261644 2.405743 1.216308
v 20.261644 1.820000 1.350000
v 19.561644 1.820000 -0.000000
v 20.261644 1.820000 -0.000000
vt 0.5087500 0.9912500
vt 0.5253571 0.9912500
vt 0.5419643 0.9912500
vt 0.5585714 0.9912500
vt 0.5751786 0.9912500
vt 0.5917857 0.9912500
vt 0.6083929 0.9912500
vt 0.6250000 0.9912500
vt 0.6416071 0.9912500
vt 0.6582143 0.9912500
vt 0.6748214 0.9912500
vt 0.6914286 0.9912500
vt 0.7080357 0.9912500
vt 0.7246429 0.9912500
vt 0.7412500 0.9912500
vt 0.5087500 0.7587500
vt 0.5253571 0.7587500
vt 0.5419643 0.7587500
vt 0.5585714 0.7587500
vt 0.5751786 0.7587500
vt 0.5917857 0.7587500
vt 0.6083929 0.7587500
vt 0.6250000 0.7587500
vt 0.6416071 0.7587500
vt 0.6582143 0.7587500
vt 0.6748214 0.7587500
vt 0.6914286 0.7587500
vt 0.7080357 0.7587500
vt 0.7246429 0.7587500
vt 0.7412500 0.7587500
vt 0.6250000 0.8750000
vt 0.6250000 0.8750000
vn -0.7884925 -0.0466584 0.6132720
vn -0.7884925 -0.3081265 0.5322946
vn -0.7884925 -0.5085664 0.3458898
vn -0.7884925 -0.6082784 0.0909772
vn -0.7884925 -0.5875135 -0.1819545
vn -0.7884925 -0.4503843 -0.4188479
vn -0.7884925 -0.2240509 -0.5727833
vn -0.7884925 0.0466584 -0.6132720
vn -0.7884925 0.3081265 -0.5322946
vn -0.7884925 0.5085664 -0.3458898
vn -0.7884925 0.6082784 -0.0909772
vn -0.7884925 0.5875135 0.1819545
vn -0.7884925 0.4503843 0.4188479
vn -0.7884925 0.2240509 0.5727833
vn -0.7884925 -0.0466584 0.6132720
vn 0.7884925 0.0466584 0.6132720
vn 0.7884925 -0.2240509 0.5727833
vn 0.7884925 -0.4503843 0.4188479
vn 0.7884925 -0.5875135 0.1819545
vn 0.7884925 -0.6082784 -0.0909772
vn 0.7884925 -0.5085664 -0.3458898
vn 0.7884925 -0.3081265 -0.5322946
vn 0.7884925 -0.0466584 -0.6132720
vn 0.7884925 0.2240509 -0.5727833
vn 0.7884925 0.4503843 -0.4188479
vn 0.7884925 0.5875135 -0.1819545
vn 0.7884925 0.6082784 0.0909772
vn 0.7884925 0.5085664 0.3458898
vn 0.7884925 0.3081265 0.5322946
vn 0.7884925 0.0466584 0.6132720
vn -1.0000000 0.0000000 -0.0000000
vn 1.0000000 0.0000000 -0.0000000
f 159/159/159 160/160/160 175/175/175
f 159/159/159 175/175/175 174/174/174
f 160/160/160 161/161/161 176/176/176
f 160/160/160 176/176/176 175/175/175
f 161/161/161 162/162/162 177/177/177
f 161/161/161 177/177/177 176/176/176
f 162/162/162 163/163/163 178/178/178
f 162/162/162 178/178/178 177/177/177
f 163/163/163 164/164/164 179/179/179
f 163/163/163 179/179/179 178/178/178
f 164/164/164 165/165/165 180/180/180
f 164/164/164 180/180/180 179/179/179
f 165/165/165 166/166/166 181/181/181
f 165/165/165 181/181/181 180/180/180
f 166/166/166 167/167/167 182/182/182
f 166/166/166 182/182/182 181/181/181
f 167/167/167 168/168/168 183/183/183
f 167/167/167 183/183/183 182/182/182
f 168/168/168 169/169/169 184/184/184
f 168/168/168 184/184/184 183/183/183
f 169/169/169 170/170/170 185/185/185
f 169/169/169 185/185/185 184/184/184
f 170/170/170 171/171/171 186/186/186
f 170/170/170 186/186/186 185/185/185
f 171/171/171 172/172/172 187/187/187
f 171/171/171 187/187/187 186/186/186
f 172/172/172 173/173/173 188/188/188
f 172/172/172 188/188/188 187/187/187
f 189/189/189 160/160/160 159/159/159
f 189/189/189 161/161/161 160/160/160
f 189/189/189 162/162/162 161/161/161
f 189/189/189 163/163/163 162/162/162
f 189/189/189 164/164/164 163/163/163
f 189/189/189 165/165/165 164/164/164
f 189/189/189 166/166/166 165/165/165
f 189/189/189 167/167/167 166/166/166
f 189/189/189 168/168/168 167/167/167
f 189/189/189 169/169/169 168/168/168
f 189/189/189 170/170/170 169/169/169
f 189/189/189 171/171/171 170/170/170
f 189/189/189 172/172/172 171/171/171
f 189/189/189 173/173/173 172/172/172
f 190/190/190 174/174/174 175/175/175
f 190/190/190 175/175/175 176/176/176
f 190/190/190 176/176/176 177/177/177
f 190/190/190 177/177/177 178/178/178
f 190/190/190 178/178/178 179/179/179
f 190/190/190 179/179/179 180/180/180
f 190/190/190 180/180/180 181/181/181
f 190/190/190 181/181/181 182/182/182
f 190/190/190 182/182/182 183/183/183
f 190/190/190 183/183/183 184/184/184
f 190/190/190 184/184/184 185/185/185
f 190/190/190 185/185/185 186/186/186
f 190/190/190 186/186/186 187/187/187
f 190/190/190 187/187/187 188/188/188
o Bound_crystal_terminal
v 20.911644 0.120000 -0.000000
v 22.011644 0.705786 -1.100000
v 22.467279 0.705786 -0.000000
v 20.911644 0.120000 -0.000000
v 20.911644 0.705786 -1.555635
v 22.011644 0.705786 -1.100000
v 20.911644 0.120000 -0.000000
v 19.811644 0.705786 -1.100000
v 20.911644 0.705786 -1.555635
v 20.911644 0.120000 -0.000000
v 19.356009 0.705786 -0.000000
v 19.811644 0.705786 -1.100000
v 20.911644 0.120000 -0.000000
v 19.811644 0.705786 1.100000
v 19.356009 0.705786 -0.000000
v 20.911644 0.120000 -0.000000
v 20.911644 0.705786 1.555635
v 19.811644 0.705786 1.100000
v 20.911644 0.120000 -0.000000
v 22.011644 0.705786 1.100000
v 20.911644 0.705786 1.555635
v 20.911644 0.120000 -0.000000
v 22.467279 0.705786 0.000000
v 22.011644 0.705786 1.100000
v 22.467279 0.705786 -0.000000
v 22.011644 0.705786 -1.100000
v 22.467279 2.120000 -1.555635
v 22.467279 0.705786 -0.000000
v 22.467279 2.120000 -1.555635
v 23.111644 2.120000 -0.000000
v 22.011644 0.705786 -1.100000
v 20.911644 0.705786 -1.555635
v 20.911644 2.120000 -2.200000
v 22.011644 0.705786 -1.100000
v 20.911644 2.120000 -2.200000
v 22.467279 2.120000 -1.555635
v 20.911644 0.705786 -1.555635
v 19.811644 0.705786 -1.100000
v 19.356009 2.120000 -1.555635
v 20.911644 0.705786 -1.555635
v 19.356009 2.120000 -1.555635
v 20.911644 2.120000 -2.200000
v 19.811644 0.705786 -1.100000
v 19.356009 0.705786 -0.000000
v 18.711644 2.120000 -0.000000
v 19.811644 0.705786 -1.100000
v 18.711644 2.120000 -0.000000
v 19.356009 2.120000 -1.555635
v 19.356009 0.705786 -0.000000
v 19.811644 0.705786 1.100000
v 19.356009 2.120000 1.555635
v 19.356009 0.705786 -0.000000
v 19.356009 2.120000 1.555635
v 18.711644 2.120000 -0.000000
v 19.811644 0.705786 1.100000
v 20.911644 0.705786 1.555635
v 20.911644 2.120000 2.200000
v 19.811644 0.705786 1.100000
v 20.911644 2.120000 2.200000
v 19.356009 2.120000 1.555635
v 20.911644 0.705786 1.555635
v 22.011644 0.705786 1.100000
v 22.467279 2.120000 1.555635
v 20.911644 0.705786 1.555635
v 22.467279 2.120000 1.555635
v 20.911644 2.120000 2.200000
v 22.011644 0.705786 1.100000
v 22.467279 0.705786 0.000000
v 23.111644 2.120000 0.000000
v 22.011644 0.705786 1.100000
v 23.111644 2.120000 0.000000
v 22.467279 2.120000 1.555635
v 23.111644 2.120000 -0.000000
v 22.467279 2.120000 -1.555635
v 22.011644 3.534214 -1.100000
v 23.111644 2.120000 -0.000000
v 22.011644 3.534214 -1.100000
v 22.467279 3.534214 -0.000000
v 22.467279 2.120000 -1.555635
v 20.911644 2.120000 -2.200000
v 20.911644 3.534214 -1.555635
v 22.467279 2.120000 -1.555635
v 20.911644 3.534214 -1.555635
v 22.011644 3.534214 -1.100000
v 20.911644 2.120000 -2.200000
v 19.356009 2.120000 -1.555635
v 19.811644 3.534214 -1.100000
v 20.911644 2.120000 -2.200000
v 19.811644 3.534214 -1.100000
v 20.911644 3.534214 -1.555635
v 19.356009 2.120000 -1.555635
v 18.711644 2.120000 -0.000000
v 19.356009 3.534214 -0.000000
v 19.356009 2.120000 -1.555635
v 19.356009 3.534214 -0.000000
v 19.811644 3.534214 -1.100000
v 18.711644 2.120000 -0.000000
v 19.356009 2.120000 1.555635
v 19.811644 3.534214 1.100000
v 18.711644 2.120000 -0.000000
v 19.811644 3.534214 1.100000
v 19.356009 3.534214 -0.000000
v 19.356009 2.120000 1.555635
v 20.911644 2.120000 2.200000
v 20.911644 3.534214 1.555635
v 19.356009 2.120000 1.555635
v 20.911644 3.534214 1.555635
v 19.811644 3.534214 1.100000
v 20.911644 2.120000 2.200000
v 22.467279 2.120000 1.555635
v 22.011644 3.534214 1.100000
v 20.911644 2.120000 2.200000
v 22.011644 3.534214 1.100000
v 20.911644 3.534214 1.555635
v 22.467279 2.120000 1.555635
v 23.111644 2.120000 0.000000
v 22.467279 3.534214 0.000000
v 22.467279 2.120000 1.555635
v 22.467279 3.534214 0.000000
v 22.011644 3.534214 1.100000
v 22.467279 3.534214 -0.000000
v 22.011644 3.534214 -1.100000
v 20.911644 4.120000 -0.000000
v 22.011644 3.534214 -1.100000
v 20.911644 3.534214 -1.555635
v 20.911644 4.120000 -0.000000
v 20.911644 3.534214 -1.555635
v 19.811644 3.534214 -1.100000
v 20.911644 4.120000 -0.000000
v 19.811644 3.534214 -1.100000
v 19.356009 3.534214 -0.000000
v 20.911644 4.120000 -0.000000
v 19.356009 3.534214 -0.000000
v 19.811644 3.534214 1.100000
v 20.911644 4.120000 -0.000000
v 19.811644 3.534214 1.100000
v 20.911644 3.534214 1.555635
v 20.911644 4.120000 -0.000000
v 20.911644 3.534214 1.555635
v 22.011644 3.534214 1.100000
v 20.911644 4.120000 -0.000000
v 22.011644 3.534214 1.100000
v 22.467279 3.534214 0.000000
v 20.911644 4.120000 -0.000000
vt 0.3750000 0.1824672
vt 0.3750000 0.1824672
vt 0.3750000 0.1824672
vt 0.3750000 0.1967148
vt 0.3750000 0.1967148
vt 0.3750000 0.1967148
vt 0.3750000 0.2067894
vt 0.3750000 0.2067894
vt 0.3750000 0.2067894
vt 0.3750000 0.2067894
vt 0.3750000 0.2067894
vt 0.3750000 0.2067894
vt 0.3750000 0.1967148
vt 0.3750000 0.1967148
vt 0.3750000 0.1967148
vt 0.3750000 0.1824672
vt 0.3750000 0.1824672
vt 0.3750000 0.1824672
vt 0.3750000 0.1723926
vt 0.3750000 0.1723926
vt 0.3750000 0.1723926
vt 0.3750000 0.1723926
vt 0.3750000 0.1723926
vt 0.3750000 0.1723926
vt 0.3750000 0.1346657
vt 0.3750000 0.1346657
vt 0.3750000 0.1346657
vt 0.3750000 0.1346657
vt 0.3750000 0.1346657
vt 0.3750000 0.1346657
vt 0.3750000 0.1694572
vt 0.3750000 0.1694572
vt 0.3750000 0.1694572
vt 0.3750000 0.1694572
vt 0.3750000 0.1694572
vt 0.3750000 0.1694572
vt 0.3750000 0.1940586
vt 0.3750000 0.1940586
vt 0.3750000 0.1940586
vt 0.3750000 0.1940586
vt 0.3750000 0.1940586
vt 0.3750000 0.1940586
vt 0.3750000 0.1940586
vt 0.3750000 0.1940586
vt 0.3750000 0.1940586
vt 0.3750000 0.1940586
vt 0.3750000 0.1940586
vt 0.3750000 0.1940586
vt 0.3750000 0.1694572
vt 0.3750000 0.1694572
vt 0.3750000 0.1694572
vt 0.3750000 0.1694572
vt 0.3750000 0.1694572
vt 0.3750000 0.1694572
vt 0.3750000 0.1346657
vt 0.3750000 0.1346657
vt 0.3750000 0.1346657
vt 0.3750000 0.1346657
vt 0.3750000 0.1346657
vt 0.3750000 0.1346657
vt 0.3750000 0.1100644
vt 0.3750000 0.1100644
vt 0.3750000 0.1100644
vt 0.3750000 0.1100644
vt 0.3750000 0.1100644
vt 0.3750000 0.1100644
vt 0.3750000 0.1100644
vt 0.3750000 0.1100644
vt 0.3750000 0.1100644
vt 0.3750000 0.1100644
vt 0.3750000 0.1100644
vt 0.3750000 0.1100644
vt 0.3750000 0.0805428
vt 0.3750000 0.0805428
vt 0.3750000 0.0805428
vt 0.3750000 0.0805428
vt 0.3750000 0.0805428
vt 0.3750000 0.0805428
vt 0.3750000 0.1153343
vt 0.3750000 0.1153343
vt 0.3750000 0.1153343
vt 0.3750000 0.1153343
vt 0.3750000 0.1153343
vt 0.3750000 0.1153343
vt 0.3750000 0.1399356
vt 0.3750000 0.1399356
vt 0.3750000 0.1399356
vt 0.3750000 0.1399356
vt 0.3750000 0.1399356
vt 0.3750000 0.1399356
vt 0.3750000 0.1399356
vt 0.3750000 0.1399356
vt 0.3750000 0.1399356
vt 0.3750000 0.1399356
vt 0.3750000 0.1399356
vt 0.3750000 0.1399356
vt 0.3750000 0.1153343
vt 0.3750000 0.1153343
vt 0.3750000 0.1153343
vt 0.3750000 0.1153343
vt 0.3750000 0.1153343
vt 0.3750000 0.1153343
vt 0.3750000 0.0805428
vt 0.3750000 0.0805428
vt 0.3750000 0.0805428
vt 0.3750000 0.0805428
vt 0.3750000 0.0805428
vt 0.3750000 0.0805428
vt 0.3750000 0.0559414
vt 0.3750000 0.0559414
vt 0.3750000 0.0559414
vt 0.3750000 0.0559414
vt 0.3750000 0.0559414
vt 0.3750000 0.0559414
vt 0.3750000 0.0559414
vt 0.3750000 0.0559414
vt 0.3750000 0.0559414
vt 0.3750000 0.0559414
vt 0.3750000 0.0559414
vt 0.3750000 0.0559414
vt 0.3750000 0.0532852
vt 0.3750000 0.0532852
vt 0.3750000 0.0532852
vt 0.3750000 0.0675328
vt 0.3750000 0.0675328
vt 0.3750000 0.0675328
vt 0.3750000 0.0776074
vt 0.3750000 0.0776074
vt 0.3750000 0.0776074
vt 0.3750000 0.0776074
vt 0.3750000 0.0776074
vt 0.3750000 0.0776074
vt 0.3750000 0.0675328
vt 0.3750000 0.0675328
vt 0.3750000 0.0675328
vt 0.3750000 0.0532852
vt 0.3750000 0.0532852
vt 0.3750000 0.0532852
vt 0.3750000 0.0432106
vt 0.3750000 0.0432106
vt 0.3750000 0.0432106
vt 0.3750000 0.0432106
vt 0.3750000 0.0432106
vt 0.3750000 0.0432106
vn -0.0000000 -1.0000000 -0.0000000
vn 0.4539407 -0.6593102 -0.5993729
vn 0.7448052 -0.6593102 -0.1028361
vn -0.0000000 -1.0000000 -0.0000000
vn -0.1028361 -0.6593102 -0.7448052
vn 0.4539407 -0.6593102 -0.5993729
vn -0.0000000 -1.0000000 -0.0000000
vn -0.5993729 -0.6593102 -0.4539407
vn -0.1028361 -0.6593102 -0.7448052
vn -0.0000000 -1.0000000 -0.0000000
vn -0.7448052 -0.6593102 0.1028361
vn -0.5993729 -0.6593102 -0.4539407
vn -0.0000000 -1.0000000 -0.0000000
vn -0.4539407 -0.6593102 0.5993729
vn -0.7448052 -0.6593102 0.1028361
vn -0.0000000 -1.0000000 -0.0000000
vn 0.1028361 -0.6593102 0.7448052
vn -0.4539407 -0.6593102 0.5993729
vn -0.0000000 -1.0000000 -0.0000000
vn 0.5993729 -0.6593102 0.4539407
vn 0.1028361 -0.6593102 0.7448052
vn -0.0000000 -1.0000000 -0.0000000
vn 0.7448052 -0.6593102 -0.1028361
vn 0.5993729 -0.6593102 0.4539407
vn 0.7448052 -0.6593102 -0.1028361
vn 0.4539407 -0.6593102 -0.5993729
vn 0.7071068 0.0000000 -0.7071068
vn 0.7448052 -0.6593102 -0.1028361
vn 0.7071068 0.0000000 -0.7071068
vn 1.0000000 -0.0000000 0.0000000
vn 0.4539407 -0.6593102 -0.5993729
vn -0.1028361 -0.6593102 -0.7448052
vn 0.0000000 0.0000000 -1.0000000
vn 0.4539407 -0.6593102 -0.5993729
vn 0.0000000 0.0000000 -1.0000000
vn 0.7071068 0.0000000 -0.7071068
vn -0.1028361 -0.6593102 -0.7448052
vn -0.5993729 -0.6593102 -0.4539407
vn -0.7071068 -0.0000000 -0.7071068
vn -0.1028361 -0.6593102 -0.7448052
vn -0.7071068 -0.0000000 -0.7071068
vn 0.0000000 0.0000000 -1.0000000
vn -0.5993729 -0.6593102 -0.4539407
vn -0.7448052 -0.6593102 0.1028361
vn -1.0000000 -0.0000000 -0.0000000
vn -0.5993729 -0.6593102 -0.4539407
vn -1.0000000 -0.0000000 -0.0000000
vn -0.7071068 -0.0000000 -0.7071068
vn -0.7448052 -0.6593102 0.1028361
vn -0.4539407 -0.6593102 0.5993729
vn -0.7071068 0.0000000 0.7071068
vn -0.7448052 -0.6593102 0.1028361
vn -0.7071068 0.0000000 0.7071068
vn -1.0000000 -0.0000000 -0.0000000
vn -0.4539407 -0.6593102 0.5993729
vn 0.1028361 -0.6593102 0.7448052
vn -0.0000000 -0.0000000 1.0000000
vn -0.4539407 -0.6593102 0.5993729
vn -0.0000000 -0.0000000 1.0000000
vn -0.7071068 0.0000000 0.7071068
vn 0.1028361 -0.6593102 0.7448052
vn 0.5993729 -0.6593102 0.4539407
vn 0.7071068 -0.0000000 0.7071068
vn 0.1028361 -0.6593102 0.7448052
vn 0.7071068 -0.0000000 0.7071068
vn -0.0000000 -0.0000000 1.0000000
vn 0.5993729 -0.6593102 0.4539407
vn 0.7448052 -0.6593102 -0.1028361
vn 1.0000000 -0.0000000 0.0000000
vn 0.5993729 -0.6593102 0.4539407
vn 1.0000000 -0.0000000 0.0000000
vn 0.7071068 -0.0000000 0.7071068
vn 1.0000000 -0.0000000 0.0000000
vn 0.7071068 0.0000000 -0.7071068
vn 0.5993729 0.6593102 -0.4539407
vn 1.0000000 -0.0000000 0.0000000
vn 0.5993729 0.6593102 -0.4539407
vn 0.7448052 0.6593102 0.1028361
vn 0.7071068 0.0000000 -0.7071068
vn 0.0000000 0.0000000 -1.0000000
vn 0.1028361 0.6593102 -0.7448052
vn 0.7071068 0.0000000 -0.7071068
vn 0.1028361 0.6593102 -0.7448052
vn 0.5993729 0.6593102 -0.4539407
vn 0.0000000 0.0000000 -1.0000000
vn -0.7071068 -0.0000000 -0.7071068
vn -0.4539407 0.6593102 -0.5993729
vn 0.0000000 0.0000000 -1.0000000
vn -0.4539407 0.6593102 -0.5993729
vn 0.1028361 0.6593102 -0.7448052
vn -0.7071068 -0.0000000 -0.7071068
vn -1.0000000 -0.0000000 -0.0000000
vn -0.7448052 0.6593102 -0.1028361
vn -0.7071068 -0.0000000 -0.7071068
vn -0.7448052 0.6593102 -0.1028361
vn -0.4539407 0.6593102 -0.5993729
vn -1.0000000 -0.0000000 -0.0000000
vn -0.7071068 0.0000000 0.7071068
vn -0.5993729 0.6593102 0.4539407
vn -1.0000000 -0.0000000 -0.0000000
vn -0.5993729 0.6593102 0.4539407
vn -0.7448052 0.6593102 -0.1028361
vn -0.7071068 0.0000000 0.7071068
vn -0.0000000 -0.0000000 1.0000000
vn -0.1028361 0.6593102 0.7448052
vn -0.7071068 0.0000000 0.7071068
vn -0.1028361 0.6593102 0.7448052
vn -0.5993729 0.6593102 0.4539407
vn -0.0000000 -0.0000000 1.0000000
vn 0.7071068 -0.0000000 0.7071068
vn 0.4539407 0.6593102 0.5993729
vn -0.0000000 -0.0000000 1.0000000
vn 0.4539407 0.6593102 0.5993729
vn -0.1028361 0.6593102 0.7448052
vn 0.7071068 -0.0000000 0.7071068
vn 1.0000000 -0.0000000 0.0000000
vn 0.7448052 0.6593102 0.1028361
vn 0.7071068 -0.0000000 0.7071068
vn 0.7448052 0.6593102 0.1028361
vn 0.4539407 0.6593102 0.5993729
vn 0.7448052 0.6593102 0.1028361
vn 0.5993729 0.6593102 -0.4539407
vn -0.0000000 1.0000000 -0.0000000
vn 0.5993729 0.6593102 -0.4539407
vn 0.1028361 0.6593102 -0.7448052
vn -0.0000000 1.0000000 -0.0000000
vn 0.1028361 0.6593102 -0.7448052
vn -0.4539407 0.6593102 -0.5993729
vn -0.0000000 1.0000000 -0.0000000
vn -0.4539407 0.6593102 -0.5993729
vn -0.7448052 0.6593102 -0.1028361
vn -0.0000000 1.0000000 -0.0000000
vn -0.7448052 0.6593102 -0.1028361
vn -0.5993729 0.6593102 0.4539407
vn -0.0000000 1.0000000 -0.0000000
vn -0.5993729 0.6593102 0.4539407
vn -0.1028361 0.6593102 0.7448052
vn -0.0000000 1.0000000 -0.0000000
vn -0.1028361 0.6593102 0.7448052
vn 0.4539407 0.6593102 0.5993729
vn -0.0000000 1.0000000 -0.0000000
vn 0.4539407 0.6593102 0.5993729
vn 0.7448052 0.6593102 0.1028361
vn -0.0000000 1.0000000 -0.0000000
f 191/191/191 192/192/192 193/193/193
f 194/194/194 195/195/195 196/196/196
f 197/197/197 198/198/198 199/199/199
f 200/200/200 201/201/201 202/202/202
f 203/203/203 204/204/204 205/205/205
f 206/206/206 207/207/207 208/208/208
f 209/209/209 210/210/210 211/211/211
f 212/212/212 213/213/213 214/214/214
f 215/215/215 216/216/216 217/217/217
f 218/218/218 219/219/219 220/220/220
f 221/221/221 222/222/222 223/223/223
f 224/224/224 225/225/225 226/226/226
f 227/227/227 228/228/228 229/229/229
f 230/230/230 231/231/231 232/232/232
f 233/233/233 234/234/234 235/235/235
f 236/236/236 237/237/237 238/238/238
f 239/239/239 240/240/240 241/241/241
f 242/242/242 243/243/243 244/244/244
f 245/245/245 246/246/246 247/247/247
f 248/248/248 249/249/249 250/250/250
f 251/251/251 252/252/252 253/253/253
f 254/254/254 255/255/255 256/256/256
f 257/257/257 258/258/258 259/259/259
f 260/260/260 261/261/261 262/262/262
f 263/263/263 264/264/264 265/265/265
f 266/266/266 267/267/267 268/268/268
f 269/269/269 270/270/270 271/271/271
f 272/272/272 273/273/273 274/274/274
f 275/275/275 276/276/276 277/277/277
f 278/278/278 279/279/279 280/280/280
f 281/281/281 282/282/282 283/283/283
f 284/284/284 285/285/285 286/286/286
f 287/287/287 288/288/288 289/289/289
f 290/290/290 291/291/291 292/292/292
f 293/293/293 294/294/294 295/295/295
f 296/296/296 297/297/297 298/298/298
f 299/299/299 300/300/300 301/301/301
f 302/302/302 303/303/303 304/304/304
f 305/305/305 306/306/306 307/307/307
f 308/308/308 309/309/309 310/310/310
f 311/311/311 312/312/312 313/313/313
f 314/314/314 315/315/315 316/316/316
f 317/317/317 318/318/318 319/319/319
f 320/320/320 321/321/321 322/322/322
f 323/323/323 324/324/324 325/325/325
f 326/326/326 327/327/327 328/328/328
f 329/329/329 330/330/330 331/331/331
f 332/332/332 333/333/333 334/334/334
o Grip_wrap
v -7.966183 1.820000 1.144427
v -8.019203 1.737273 1.027378
v -8.167790 1.768872 1.010691
v -8.206603 1.871128 1.117426
v -8.082003 1.902727 1.200079
v -7.966183 1.820000 1.144427
v -7.566183 3.120000 0.044427
v -7.650603 2.996363 0.013729
v -7.787197 3.043588 -0.035942
v -7.787197 3.196412 -0.035942
v -7.650603 3.243637 0.013729
v -7.566183 3.120000 0.044427
v -7.166183 1.820000 -1.055573
v -7.282003 1.737273 -0.999921
v -7.406603 1.768872 -1.082574
v -7.367790 1.871128 -1.189309
v -7.219203 1.902727 -1.172622
v -7.166183 1.820000 -1.055573
v -8.088356 1.820000 1.100000
v -7.288356 1.820000 -1.100000
vt 0.0087500 0.7412500
vt 0.0552500 0.7412500
vt 0.1017500 0.7412500
vt 0.1482500 0.7412500
vt 0.1947500 0.7412500
vt 0.2412500 0.7412500
vt 0.0087500 0.6250000
vt 0.0552500 0.6250000
vt 0.1017500 0.6250000
vt 0.1482500 0.6250000
vt 0.1947500 0.6250000
vt 0.2412500 0.6250000
vt 0.0087500 0.5087500
vt 0.0552500 0.5087500
vt 0.1017500 0.5087500
vt 0.1482500 0.5087500
vt 0.1947500 0.5087500
vt 0.2412500 0.5087500
vt 0.1250000 0.6250000
vt 0.1250000 0.6250000
vn 0.9612209 -0.2061539 0.1831803
vn 0.3541046 -0.6862086 -0.6353957
vn -0.7540736 -0.3194432 -0.5738720
vn -0.7904670 0.4990067 0.3551820
vn 0.1725761 0.5764892 0.7986725
vn 0.9612209 -0.2061539 0.1831803
vn 0.8386995 0.0159005 0.5443623
vn 0.3114519 -0.9288291 0.2006842
vn -0.7247762 -0.5053277 -0.4683411
vn -0.7091741 0.5323585 -0.4622409
vn 0.2968213 0.9350285 0.1939554
vn 0.8386995 0.0159005 0.5443623
vn 0.9830394 0.1462298 0.1106815
vn 0.1985021 -0.6263807 0.7538197
vn -0.7766405 -0.5489736 0.3089620
vn -0.7183519 0.2603068 -0.6451440
vn 0.3692196 0.6441949 -0.6698431
vn 0.9830394 0.1462298 0.1106815
vn -0.2286648 -0.7431605 0.6288281
vn 0.2286648 -0.7431605 -0.6288281
f 335/335/335 336/336/336 342/342/342
f 335/335/335 342/342/342 341/341/341
f 336/336/336 337/337/337 343/343/343
f 336/336/336 343/343/343 342/342/342
f 337/337/337 338/338/338 344/344/344
f 337/337/337 344/344/344 343/343/343
f 338/338/338 339/339/339 345/345/345
f 338/338/338 345/345/345 344/344/344
f 339/339/339 340/340/340 346/346/346
f 339/339/339 346/346/346 345/345/345
f 341/341/341 342/342/342 348/348/348
f 341/341/341 348/348/348 347/347/347
f 342/342/342 343/343/343 349/349/349
f 342/342/342 349/349/349 348/348/348
f 343/343/343 344/344/344 350/350/350
f 343/343/343 350/350/350 349/349/349
f 344/344/344 345/345/345 351/351/351
f 344/344/344 351/351/351 350/350/350
f 345/345/345 346/346/346 352/352/352
f 345/345/345 352/352/352 351/351/351
f 353/353/353 336/336/336 335/335/335
f 353/353/353 337/337/337 336/336/336
f 353/353/353 338/338/338 337/337/337
f 353/353/353 339/339/339 338/338/338
f 353/353/353 340/340/340 339/339/339
f 354/354/354 347/347/347 348/348/348
f 354/354/354 348/348/348 349/349/349
f 354/354/354 349/349/349 350/350/350
f 354/354/354 350/350/350 351/351/351
f 354/354/354 351/351/351 352/352/352
o Grip_wrap
v -7.116183 1.820000 1.144427
v -7.169203 1.737273 1.027378
v -7.317790 1.768872 1.010691
v -7.356603 1.871128 1.117426
v -7.232003 1.902727 1.200079
v -7.116183 1.820000 1.144427
v -6.716183 3.120000 0.044427
v -6.800603 2.996363 0.013729
v -6.937197 3.043588 -0.035942
v -6.937197 3.196412 -0.035942
v -6.800603 3.243637 0.013729
v -6.716183 3.120000 0.044427
v -6.316183 1.820000 -1.055573
v -6.432003 1.737273 -0.999921
v -6.556603 1.768872 -1.082574
v -6.517790 1.871128 -1.189309
v -6.369203 1.902727 -1.172622
v -6.316183 1.820000 -1.055573
v -7.238356 1.820000 1.100000
v -6.438356 1.820000 -1.100000
vt 0.0087500 0.7412500
vt 0.0552500 0.7412500
vt 0.1017500 0.7412500
vt 0.1482500 0.7412500
vt 0.1947500 0.7412500
vt 0.2412500 0.7412500
vt 0.0087500 0.6250000
vt 0.0552500 0.6250000
vt 0.1017500 0.6250000
vt 0.1482500 0.6250000
vt 0.1947500 0.6250000
vt 0.2412500 0.6250000
vt 0.0087500 0.5087500
vt 0.0552500 0.5087500
vt 0.1017500 0.5087500
vt 0.1482500 0.5087500
vt 0.1947500 0.5087500
vt 0.2412500 0.5087500
vt 0.1250000 0.6250000
vt 0.1250000 0.6250000
vn 0.9612209 -0.2061539 0.1831803
vn 0.3541046 -0.6862086 -0.6353957
vn -0.7540736 -0.3194432 -0.5738720
vn -0.7904670 0.4990067 0.3551820
vn 0.1725761 0.5764892 0.7986725
vn 0.9612209 -0.2061539 0.1831803
vn 0.8386995 0.0159005 0.5443623
vn 0.3114519 -0.9288291 0.2006842
vn -0.7247762 -0.5053277 -0.4683411
vn -0.7091741 0.5323585 -0.4622409
vn 0.2968213 0.9350285 0.1939554
vn 0.8386995 0.0159005 0.5443623
vn 0.9830394 0.1462298 0.1106815
vn 0.1985021 -0.6263807 0.7538197
vn -0.7766405 -0.5489736 0.3089620
vn -0.7183519 0.2603068 -0.6451440
vn 0.3692196 0.6441949 -0.6698431
vn 0.9830394 0.1462298 0.1106815
vn -0.2286648 -0.7431605 0.6288281
vn 0.2286648 -0.7431605 -0.6288281
f 355/355/355 356/356/356 362/362/362
f 355/355/355 362/362/362 361/361/361
f 356/356/356 357/357/357 363/363/363
f 356/356/356 363/363/363 362/362/362
f 357/357/357 358/358/358 364/364/364
f 357/357/357 364/364/364 363/363/363
f 358/358/358 359/359/359 365/365/365
f 358/358/358 365/365/365 364/364/364
f 359/359/359 360/360/360 366/366/366
f 359/359/359 366/366/366 365/365/365
f 361/361/361 362/362/362 368/368/368
f 361/361/361 368/368/368 367/367/367
f 362/362/362 363/363/363 369/369/369
f 362/362/362 369/369/369 368/368/368
f 363/363/363 364/364/364 370/370/370
f 363/363/363 370/370/370 369/369/369
f 364/364/364 365/365/365 371/371/371
f 364/364/364 371/371/371 370/370/370
f 365/365/365 366/366/366 372/372/372
f 365/365/365 372/372/372 371/371/371
f 373/373/373 356/356/356 355/355/355
f 373/373/373 357/357/357 356/356/356
f 373/373/373 358/358/358 357/357/357
f 373/373/373 359/359/359 358/358/358
f 373/373/373 360/360/360 359/359/359
f 374/374/374 367/367/367 368/368/368
f 374/374/374 368/368/368 369/369/369
f 374/374/374 369/369/369 370/370/370
f 374/374/374 370/370/370 371/371/371
f 374/374/374 371/371/371 372/372/372
o Grip_wrap
v -6.266183 1.820000 1.144427
v -6.319203 1.737273 1.027378
v -6.467790 1.768872 1.010691
v -6.506603 1.871128 1.117426
v -6.382003 1.902727 1.200079
v -6.266183 1.820000 1.144427
v -5.866183 3.120000 0.044427
v -5.950603 2.996363 0.013729
v -6.087197 3.043588 -0.035942
v -6.087197 3.196412 -0.035942
v -5.950603 3.243637 0.013729
v -5.866183 3.120000 0.044427
v -5.466183 1.820000 -1.055573
v -5.582003 1.737273 -0.999921
v -5.706603 1.768872 -1.082574
v -5.667790 1.871128 -1.189309
v -5.519203 1.902727 -1.172622
v -5.466183 1.820000 -1.055573
v -6.388356 1.820000 1.100000
v -5.588356 1.820000 -1.100000
vt 0.0087500 0.7412500
vt 0.0552500 0.7412500
vt 0.1017500 0.7412500
vt 0.1482500 0.7412500
vt 0.1947500 0.7412500
vt 0.2412500 0.7412500
vt 0.0087500 0.6250000
vt 0.0552500 0.6250000
vt 0.1017500 0.6250000
vt 0.1482500 0.6250000
vt 0.1947500 0.6250000
vt 0.2412500 0.6250000
vt 0.0087500 0.5087500
vt 0.0552500 0.5087500
vt 0.1017500 0.5087500
vt 0.1482500 0.5087500
vt 0.1947500 0.5087500
vt 0.2412500 0.5087500
vt 0.1250000 0.6250000
vt 0.1250000 0.6250000
vn 0.9612209 -0.2061539 0.1831803
vn 0.3541046 -0.6862086 -0.6353957
vn -0.7540736 -0.3194432 -0.5738720
vn -0.7904670 0.4990067 0.3551820
vn 0.1725761 0.5764892 0.7986725
vn 0.9612209 -0.2061539 0.1831803
vn 0.8386995 0.0159005 0.5443623
vn 0.3114519 -0.9288291 0.2006842
vn -0.7247762 -0.5053277 -0.4683411
vn -0.7091741 0.5323585 -0.4622409
vn 0.2968213 0.9350285 0.1939554
vn 0.8386995 0.0159005 0.5443623
vn 0.9830394 0.1462298 0.1106815
vn 0.1985021 -0.6263807 0.7538197
vn -0.7766405 -0.5489736 0.3089620
vn -0.7183519 0.2603068 -0.6451440
vn 0.3692196 0.6441949 -0.6698431
vn 0.9830394 0.1462298 0.1106815
vn -0.2286648 -0.7431605 0.6288281
vn 0.2286648 -0.7431605 -0.6288281
f 375/375/375 376/376/376 382/382/382
f 375/375/375 382/382/382 381/381/381
f 376/376/376 377/377/377 383/383/383
f 376/376/376 383/383/383 382/382/382
f 377/377/377 378/378/378 384/384/384
f 377/377/377 384/384/384 383/383/383
f 378/378/378 379/379/379 385/385/385
f 378/378/378 385/385/385 384/384/384
f 379/379/379 380/380/380 386/386/386
f 379/379/379 386/386/386 385/385/385
f 381/381/381 382/382/382 388/388/388
f 381/381/381 388/388/388 387/387/387
f 382/382/382 383/383/383 389/389/389
f 382/382/382 389/389/389 388/388/388
f 383/383/383 384/384/384 390/390/390
f 383/383/383 390/390/390 389/389/389
f 384/384/384 385/385/385 391/391/391
f 384/384/384 391/391/391 390/390/390
f 385/385/385 386/386/386 392/392/392
f 385/385/385 392/392/392 391/391/391
f 393/393/393 376/376/376 375/375/375
f 393/393/393 377/377/377 376/376/376
f 393/393/393 378/378/378 377/377/377
f 393/393/393 379/379/379 378/378/378
f 393/393/393 380/380/380 379/379/379
f 394/394/394 387/387/387 388/388/388
f 394/394/394 388/388/388 389/389/389
f 394/394/394 389/389/389 390/390/390
f 394/394/394 390/390/390 391/391/391
f 394/394/394 391/391/391 392/392/392
o Grip_wrap
v -5.416183 1.820000 1.144427
v -5.469203 1.737273 1.027378
v -5.617790 1.768872 1.010691
v -5.656603 1.871128 1.117426
v -5.532003 1.902727 1.200079
v -5.416183 1.820000 1.144427
v -5.016183 3.120000 0.044427
v -5.100603 2.996363 0.013729
v -5.237197 3.043588 -0.035942
v -5.237197 3.196412 -0.035942
v -5.100603 3.243637 0.013729
v -5.016183 3.120000 0.044427
v -4.616183 1.820000 -1.055573
v -4.732003 1.737273 -0.999921
v -4.856603 1.768872 -1.082574
v -4.817790 1.871128 -1.189309
v -4.669203 1.902727 -1.172622
v -4.616183 1.820000 -1.055573
v -5.538356 1.820000 1.100000
v -4.738356 1.820000 -1.100000
vt 0.0087500 0.7412500
vt 0.0552500 0.7412500
vt 0.1017500 0.7412500
vt 0.1482500 0.7412500
vt 0.1947500 0.7412500
vt 0.2412500 0.7412500
vt 0.0087500 0.6250000
vt 0.0552500 0.6250000
vt 0.1017500 0.6250000
vt 0.1482500 0.6250000
vt 0.1947500 0.6250000
vt 0.2412500 0.6250000
vt 0.0087500 0.5087500
vt 0.0552500 0.5087500
vt 0.1017500 0.5087500
vt 0.1482500 0.5087500
vt 0.1947500 0.5087500
vt 0.2412500 0.5087500
vt 0.1250000 0.6250000
vt 0.1250000 0.6250000
vn 0.9612209 -0.2061539 0.1831803
vn 0.3541046 -0.6862086 -0.6353957
vn -0.7540736 -0.3194432 -0.5738720
vn -0.7904670 0.4990067 0.3551820
vn 0.1725761 0.5764892 0.7986725
vn 0.9612209 -0.2061539 0.1831803
vn 0.8386995 0.0159005 0.5443623
vn 0.3114519 -0.9288291 0.2006842
vn -0.7247762 -0.5053277 -0.4683411
vn -0.7091741 0.5323585 -0.4622409
vn 0.2968213 0.9350285 0.1939554
vn 0.8386995 0.0159005 0.5443623
vn 0.9830394 0.1462298 0.1106815
vn 0.1985021 -0.6263807 0.7538197
vn -0.7766405 -0.5489736 0.3089620
vn -0.7183519 0.2603068 -0.6451440
vn 0.3692196 0.6441949 -0.6698431
vn 0.9830394 0.1462298 0.1106815
vn -0.2286648 -0.7431605 0.6288281
vn 0.2286648 -0.7431605 -0.6288281
f 395/395/395 396/396/396 402/402/402
f 395/395/395 402/402/402 401/401/401
f 396/396/396 397/397/397 403/403/403
f 396/396/396 403/403/403 402/402/402
f 397/397/397 398/398/398 404/404/404
f 397/397/397 404/404/404 403/403/403
f 398/398/398 399/399/399 405/405/405
f 398/398/398 405/405/405 404/404/404
f 399/399/399 400/400/400 406/406/406
f 399/399/399 406/406/406 405/405/405
f 401/401/401 402/402/402 408/408/408
f 401/401/401 408/408/408 407/407/407
f 402/402/402 403/403/403 409/409/409
f 402/402/402 409/409/409 408/408/408
f 403/403/403 404/404/404 410/410/410
f 403/403/403 410/410/410 409/409/409
f 404/404/404 405/405/405 411/411/411
f 404/404/404 411/411/411 410/410/410
f 405/405/405 406/406/406 412/412/412
f 405/405/405 412/412/412 411/411/411
f 413/413/413 396/396/396 395/395/395
f 413/413/413 397/397/397 396/396/396
f 413/413/413 398/398/398 397/397/397
f 413/413/413 399/399/399 398/398/398
f 413/413/413 400/400/400 399/399/399
f 414/414/414 407/407/407 408/408/408
f 414/414/414 408/408/408 409/409/409
f 414/414/414 409/409/409 410/410/410
f 414/414/414 410/410/410 411/411/411
f 414/414/414 411/411/411 412/412/412
o Grip_wrap
v -4.566183 1.820000 1.144427
v -4.619203 1.737273 1.027378
v -4.767790 1.768872 1.010691
v -4.806603 1.871128 1.117426
v -4.682003 1.902727 1.200079
v -4.566183 1.820000 1.144427
v -4.166183 3.120000 0.044427
v -4.250603 2.996363 0.013729
v -4.387197 3.043588 -0.035942
v -4.387197 3.196412 -0.035942
v -4.250603 3.243637 0.013729
v -4.166183 3.120000 0.044427
v -3.766183 1.820000 -1.055573
v -3.882003 1.737273 -0.999921
v -4.006603 1.768872 -1.082574
v -3.967790 1.871128 -1.189309
v -3.819203 1.902727 -1.172622
v -3.766183 1.820000 -1.055573
v -4.688356 1.820000 1.100000
v -3.888356 1.820000 -1.100000
vt 0.0087500 0.7412500
vt 0.0552500 0.7412500
vt 0.1017500 0.7412500
vt 0.1482500 0.7412500
vt 0.1947500 0.7412500
vt 0.2412500 0.7412500
vt 0.0087500 0.6250000
vt 0.0552500 0.6250000
vt 0.1017500 0.6250000
vt 0.1482500 0.6250000
vt 0.1947500 0.6250000
vt 0.2412500 0.6250000
vt 0.0087500 0.5087500
vt 0.0552500 0.5087500
vt 0.1017500 0.5087500
vt 0.1482500 0.5087500
vt 0.1947500 0.5087500
vt 0.2412500 0.5087500
vt 0.1250000 0.6250000
vt 0.1250000 0.6250000
vn 0.9612209 -0.2061539 0.1831803
vn 0.3541046 -0.6862086 -0.6353957
vn -0.7540736 -0.3194432 -0.5738720
vn -0.7904670 0.4990067 0.3551820
vn 0.1725761 0.5764892 0.7986725
vn 0.9612209 -0.2061539 0.1831803
vn 0.8386995 0.0159005 0.5443623
vn 0.3114519 -0.9288291 0.2006842
vn -0.7247762 -0.5053277 -0.4683411
vn -0.7091741 0.5323585 -0.4622409
vn 0.2968213 0.9350285 0.1939554
vn 0.8386995 0.0159005 0.5443623
vn 0.9830394 0.1462298 0.1106815
vn 0.1985021 -0.6263807 0.7538197
vn -0.7766405 -0.5489736 0.3089620
vn -0.7183519 0.2603068 -0.6451440
vn 0.3692196 0.6441949 -0.6698431
vn 0.9830394 0.1462298 0.1106815
vn -0.2286648 -0.7431605 0.6288281
vn 0.2286648 -0.7431605 -0.6288281
f 415/415/415 416/416/416 422/422/422
f 415/415/415 422/422/422 421/421/421
f 416/416/416 417/417/417 423/423/423
f 416/416/416 423/423/423 422/422/422
f 417/417/417 418/418/418 424/424/424
f 417/417/417 424/424/424 423/423/423
f 418/418/418 419/419/419 425/425/425
f 418/418/418 425/425/425 424/424/424
f 419/419/419 420/420/420 426/426/426
f 419/419/419 426/426/426 425/425/425
f 421/421/421 422/422/422 428/428/428
f 421/421/421 428/428/428 427/427/427
f 422/422/422 423/423/423 429/429/429
f 422/422/422 429/429/429 428/428/428
f 423/423/423 424/424/424 430/430/430
f 423/423/423 430/430/430 429/429/429
f 424/424/424 425/425/425 431/431/431
f 424/424/424 431/431/431 430/430/430
f 425/425/425 426/426/426 432/432/432
f 425/425/425 432/432/432 431/431/431
f 433/433/433 416/416/416 415/415/415
f 433/433/433 417/417/417 416/416/416
f 433/433/433 418/418/418 417/417/417
f 433/433/433 419/419/419 418/418/418
f 433/433/433 420/420/420 419/419/419
f 434/434/434 427/427/427 428/428/428
f 434/434/434 428/428/428 429/429/429
f 434/434/434 429/429/429 430/430/430
f 434/434/434 430/430/430 431/431/431
f 434/434/434 431/431/431 432/432/432
o Grip_wrap
v -3.716183 1.820000 1.144427
v -3.769203 1.737273 1.027378
v -3.917790 1.768872 1.010691
v -3.956603 1.871128 1.117426
v -3.832003 1.902727 1.200079
v -3.716183 1.820000 1.144427
v -3.316183 3.120000 0.044427
v -3.400603 2.996363 0.013729
v -3.537197 3.043588 -0.035942
v -3.537197 3.196412 -0.035942
v -3.400603 3.243637 0.013729
v -3.316183 3.120000 0.044427
v -2.916183 1.820000 -1.055573
v -3.032003 1.737273 -0.999921
v -3.156603 1.768872 -1.082574
v -3.117790 1.871128 -1.189309
v -2.969203 1.902727 -1.172622
v -2.916183 1.820000 -1.055573
v -3.838356 1.820000 1.100000
v -3.038356 1.820000 -1.100000
vt 0.0087500 0.7412500
vt 0.0552500 0.7412500
vt 0.1017500 0.7412500
vt 0.1482500 0.7412500
vt 0.1947500 0.7412500
vt 0.2412500 0.7412500
vt 0.0087500 0.6250000
vt 0.0552500 0.6250000
vt 0.1017500 0.6250000
vt 0.1482500 0.6250000
vt 0.1947500 0.6250000
vt 0.2412500 0.6250000
vt 0.0087500 0.5087500
vt 0.0552500 0.5087500
vt 0.1017500 0.5087500
vt 0.1482500 0.5087500
vt 0.1947500 0.5087500
vt 0.2412500 0.5087500
vt 0.1250000 0.6250000
vt 0.1250000 0.6250000
vn 0.9612209 -0.2061539 0.1831803
vn 0.3541046 -0.6862086 -0.6353957
vn -0.7540736 -0.3194432 -0.5738720
vn -0.7904670 0.4990067 0.3551820
vn 0.1725761 0.5764892 0.7986725
vn 0.9612209 -0.2061539 0.1831803
vn 0.8386995 0.0159005 0.5443623
vn 0.3114519 -0.9288291 0.2006842
vn -0.7247762 -0.5053277 -0.4683411
vn -0.7091741 0.5323585 -0.4622409
vn 0.2968213 0.9350285 0.1939554
vn 0.8386995 0.0159005 0.5443623
vn 0.9830394 0.1462298 0.1106815
vn 0.1985021 -0.6263807 0.7538197
vn -0.7766405 -0.5489736 0.3089620
vn -0.7183519 0.2603068 -0.6451440
vn 0.3692196 0.6441949 -0.6698431
vn 0.9830394 0.1462298 0.1106815
vn -0.2286648 -0.7431605 0.6288281
vn 0.2286648 -0.7431605 -0.6288281
f 435/435/435 436/436/436 442/442/442
f 435/435/435 442/442/442 441/441/441
f 436/436/436 437/437/437 443/443/443
f 436/436/436 443/443/443 442/442/442
f 437/437/437 438/438/438 444/444/444
f 437/437/437 444/444/444 443/443/443
f 438/438/438 439/439/439 445/445/445
f 438/438/438 445/445/445 444/444/444
f 439/439/439 440/440/440 446/446/446
f 439/439/439 446/446/446 445/445/445
f 441/441/441 442/442/442 448/448/448
f 441/441/441 448/448/448 447/447/447
f 442/442/442 443/443/443 449/449/449
f 442/442/442 449/449/449 448/448/448
f 443/443/443 444/444/444 450/450/450
f 443/443/443 450/450/450 449/449/449
f 444/444/444 445/445/445 451/451/451
f 444/444/444 451/451/451 450/450/450
f 445/445/445 446/446/446 452/452/452
f 445/445/445 452/452/452 451/451/451
f 453/453/453 436/436/436 435/435/435
f 453/453/453 437/437/437 436/436/436
f 453/453/453 438/438/438 437/437/437
f 453/453/453 439/439/439 438/438/438
f 453/453/453 440/440/440 439/439/439
f 454/454/454 447/447/447 448/448/448
f 454/454/454 448/448/448 449/449/449
f 454/454/454 449/449/449 450/450/450
f 454/454/454 450/450/450 451/451/451
f 454/454/454 451/451/451 452/452/452
o Grip_wrap
v -2.866183 1.820000 1.144427
v -2.919203 1.737273 1.027378
v -3.067790 1.768872 1.010691
v -3.106603 1.871128 1.117426
v -2.982003 1.902727 1.200079
v -2.866183 1.820000 1.144427
v -2.466183 3.120000 0.044427
v -2.550603 2.996363 0.013729
v -2.687197 3.043588 -0.035942
v -2.687197 3.196412 -0.035942
v -2.550603 3.243637 0.013729
v -2.466183 3.120000 0.044427
v -2.066183 1.820000 -1.055573
v -2.182003 1.737273 -0.999921
v -2.306603 1.768872 -1.082574
v -2.267790 1.871128 -1.189309
v -2.119203 1.902727 -1.172622
v -2.066183 1.820000 -1.055573
v -2.988356 1.820000 1.100000
v -2.188356 1.820000 -1.100000
vt 0.0087500 0.7412500
vt 0.0552500 0.7412500
vt 0.1017500 0.7412500
vt 0.1482500 0.7412500
vt 0.1947500 0.7412500
vt 0.2412500 0.7412500
vt 0.0087500 0.6250000
vt 0.0552500 0.6250000
vt 0.1017500 0.6250000
vt 0.1482500 0.6250000
vt 0.1947500 0.6250000
vt 0.2412500 0.6250000
vt 0.0087500 0.5087500
vt 0.0552500 0.5087500
vt 0.1017500 0.5087500
vt 0.1482500 0.5087500
vt 0.1947500 0.5087500
vt 0.2412500 0.5087500
vt 0.1250000 0.6250000
vt 0.1250000 0.6250000
vn 0.9612209 -0.2061539 0.1831803
vn 0.3541046 -0.6862086 -0.6353957
vn -0.7540736 -0.3194432 -0.5738720
vn -0.7904670 0.4990067 0.3551820
vn 0.1725761 0.5764892 0.7986725
vn 0.9612209 -0.2061539 0.1831803
vn 0.8386995 0.0159005 0.5443623
vn 0.3114519 -0.9288291 0.2006842
vn -0.7247762 -0.5053277 -0.4683411
vn -0.7091741 0.5323585 -0.4622409
vn 0.2968213 0.9350285 0.1939554
vn 0.8386995 0.0159005 0.5443623
vn 0.9830394 0.1462298 0.1106815
vn 0.1985021 -0.6263807 0.7538197
vn -0.7766405 -0.5489736 0.3089620
vn -0.7183519 0.2603068 -0.6451440
vn 0.3692196 0.6441949 -0.6698431
vn 0.9830394 0.1462298 0.1106815
vn -0.2286648 -0.7431605 0.6288281
vn 0.2286648 -0.7431605 -0.6288281
f 455/455/455 456/456/456 462/462/462
f 455/455/455 462/462/462 461/461/461
f 456/456/456 457/457/457 463/463/463
f 456/456/456 463/463/463 462/462/462
f 457/457/457 458/458/458 464/464/464
f 457/457/457 464/464/464 463/463/463
f 458/458/458 459/459/459 465/465/465
f 458/458/458 465/465/465 464/464/464
f 459/459/459 460/460/460 466/466/466
f 459/459/459 466/466/466 465/465/465
f 461/461/461 462/462/462 468/468/468
f 461/461/461 468/468/468 467/467/467
f 462/462/462 463/463/463 469/469/469
f 462/462/462 469/469/469 468/468/468
f 463/463/463 464/464/464 470/470/470
f 463/463/463 470/470/470 469/469/469
f 464/464/464 465/465/465 471/471/471
f 464/464/464 471/471/471 470/470/470
f 465/465/465 466/466/466 472/472/472
f 465/465/465 472/472/472 471/471/471
f 473/473/473 456/456/456 455/455/455
f 473/473/473 457/457/457 456/456/456
f 473/473/473 458/458/458 457/457/457
f 473/473/473 459/459/459 458/458/458
f 473/473/473 460/460/460 459/459/459
f 474/474/474 467/467/467 468/468/468
f 474/474/474 468/468/468 469/469/469
f 474/474/474 469/469/469 470/470/470
f 474/474/474 470/470/470 471/471/471
f 474/474/474 471/471/471 472/472/472
o Grip_wrap
v -2.016183 1.820000 1.144427
v -2.069203 1.737273 1.027378
v -2.217790 1.768872 1.010691
v -2.256603 1.871128 1.117426
v -2.132003 1.902727 1.200079
v -2.016183 1.820000 1.144427
v -1.616183 3.120000 0.044427
v -1.700603 2.996363 0.013729
v -1.837197 3.043588 -0.035942
v -1.837197 3.196412 -0.035942
v -1.700603 3.243637 0.013729
v -1.616183 3.120000 0.044427
v -1.216183 1.820000 -1.055573
v -1.332003 1.737273 -0.999921
v -1.456603 1.768872 -1.082574
v -1.417790 1.871128 -1.189309
v -1.269203 1.902727 -1.172622
v -1.216183 1.820000 -1.055573
v -2.138356 1.820000 1.100000
v -1.338356 1.820000 -1.100000
vt 0.0087500 0.7412500
vt 0.0552500 0.7412500
vt 0.1017500 0.7412500
vt 0.1482500 0.7412500
vt 0.1947500 0.7412500
vt 0.2412500 0.7412500
vt 0.0087500 0.6250000
vt 0.0552500 0.6250000
vt 0.1017500 0.6250000
vt 0.1482500 0.6250000
vt 0.1947500 0.6250000
vt 0.2412500 0.6250000
vt 0.0087500 0.5087500
vt 0.0552500 0.5087500
vt 0.1017500 0.5087500
vt 0.1482500 0.5087500
vt 0.1947500 0.5087500
vt 0.2412500 0.5087500
vt 0.1250000 0.6250000
vt 0.1250000 0.6250000
vn 0.9612209 -0.2061539 0.1831803
vn 0.3541046 -0.6862086 -0.6353957
vn -0.7540736 -0.3194432 -0.5738720
vn -0.7904670 0.4990067 0.3551820
vn 0.1725761 0.5764892 0.7986725
vn 0.9612209 -0.2061539 0.1831803
vn 0.8386995 0.0159005 0.5443623
vn 0.3114519 -0.9288291 0.2006842
vn -0.7247762 -0.5053277 -0.4683411
vn -0.7091741 0.5323585 -0.4622409
vn 0.2968213 0.9350285 0.1939554
vn 0.8386995 0.0159005 0.5443623
vn 0.9830394 0.1462298 0.1106815
vn 0.1985021 -0.6263807 0.7538197
vn -0.7766405 -0.5489736 0.3089620
vn -0.7183519 0.2603068 -0.6451440
vn 0.3692196 0.6441949 -0.6698431
vn 0.9830394 0.1462298 0.1106815
vn -0.2286648 -0.7431605 0.6288281
vn 0.2286648 -0.7431605 -0.6288281
f 475/475/475 476/476/476 482/482/482
f 475/475/475 482/482/482 481/481/481
f 476/476/476 477/477/477 483/483/483
f 476/476/476 483/483/483 482/482/482
f 477/477/477 478/478/478 484/484/484
f 477/477/477 484/484/484 483/483/483
f 478/478/478 479/479/479 485/485/485
f 478/478/478 485/485/485 484/484/484
f 479/479/479 480/480/480 486/486/486
f 479/479/479 486/486/486 485/485/485
f 481/481/481 482/482/482 488/488/488
f 481/481/481 488/488/488 487/487/487
f 482/482/482 483/483/483 489/489/489
f 482/482/482 489/489/489 488/488/488
f 483/483/483 484/484/484 490/490/490
f 483/483/483 490/490/490 489/489/489
f 484/484/484 485/485/485 491/491/491
f 484/484/484 491/491/491 490/490/490
f 485/485/485 486/486/486 492/492/492
f 485/485/485 492/492/492 491/491/491
f 493/493/493 476/476/476 475/475/475
f 493/493/493 477/477/477 476/476/476
f 493/493/493 478/478/478 477/477/477
f 493/493/493 479/479/479 478/478/478
f 493/493/493 480/480/480 479/479/479
f 494/494/494 487/487/487 488/488/488
f 494/494/494 488/488/488 489/489/489
f 494/494/494 489/489/489 490/490/490
f 494/494/494 490/490/490 491/491/491
f 494/494/494 491/491/491 492/492/492
o Engraved_ornamental_stroke
v 20.779184 4.120000 0.998426
v 20.698871 4.005873 0.977805
v 20.568922 4.049466 0.944440
v 20.568922 4.190534 0.944440
v 20.698871 4.234127 0.977805
v 20.779184 4.120000 0.998426
v 20.995229 4.120000 0.086102
v 20.937473 4.005873 0.026607
v 20.844022 4.049466 -0.069658
v 20.844022 4.190534 -0.069658
v 20.937473 4.234127 0.026607
v 20.995229 4.120000 0.086102
v 21.258340 4.120000 0.443511
v 21.183629 4.234127 0.479478
v 21.062744 4.190534 0.537674
v 21.062744 4.049466 0.537674
v 21.183629 4.005873 0.479478
v 21.258340 4.120000 0.443511
v 20.662954 4.120000 0.968583
v 21.150217 4.120000 0.495563
vt 0.5087500 0.9912500
vt 0.5552500 0.9912500
vt 0.6017500 0.9912500
vt 0.6482500 0.9912500
vt 0.6947500 0.9912500
vt 0.7412500 0.9912500
vt 0.5087500 0.8750000
vt 0.5552500 0.8750000
vt 0.6017500 0.8750000
vt 0.6482500 0.8750000
vt 0.6947500 0.8750000
vt 0.7412500 0.8750000
vt 0.5087500 0.7587500
vt 0.5552500 0.7587500
vt 0.6017500 0.7587500
vt 0.6482500 0.7587500
vt 0.6947500 0.7587500
vt 0.7412500 0.7587500
vt 0.6250000 0.8750000
vt 0.6250000 0.8750000
vn 0.9283564 -0.2070410 0.3086883
vn 0.0478388 -0.9944826 0.0933585
vn -0.9091564 -0.3801302 -0.1701050
vn -0.6782572 0.7280104 -0.0998394
vn 0.4975549 0.8426538 0.2058487
vn 0.9283564 -0.2070410 0.3086883
vn 0.8751567 0.3893916 0.2871846
vn 0.6988602 -0.7103248 0.0838639
vn -0.6296813 -0.7246112 -0.2800716
vn -0.8280436 0.0574281 -0.5577149
vn 0.2513192 0.9548959 -0.1581536
vn 0.8751567 0.3893916 0.2871846
vn 0.9205989 -0.1914318 -0.3403696
vn -0.1558740 0.9858514 -0.0616474
vn -0.5330245 0.8364568 0.1273768
vn -0.2512786 -0.9492629 0.1891008
vn 0.3648253 -0.8623234 -0.3511423
vn 0.9205989 -0.1914318 -0.3403696
vn -0.2486899 0.0000000 0.9685832
vn 0.4337699 0.0000000 0.9010237
f 495/495/495 496/496/496 502/502/502
f 495/495/495 502/502/502 501/501/501
f 496/496/496 497/497/497 503/503/503
f 496/496/496 503/503/503 502/502/502
f 497/497/497 498/498/498 504/504/504
f 497/497/497 504/504/504 503/503/503
f 498/498/498 499/499/499 505/505/505
f 498/498/498 505/505/505 504/504/504
f 499/499/499 500/500/500 506/506/506
f 499/499/499 506/506/506 505/505/505
f 501/501/501 502/502/502 508/508/508
f 501/501/501 508/508/508 507/507/507
f 502/502/502 503/503/503 509/509/509
f 502/502/502 509/509/509 508/508/508
f 503/503/503 504/504/504 510/510/510
f 503/503/503 510/510/510 509/509/509
f 504/504/504 505/505/505 511/511/511
f 504/504/504 511/511/511 510/510/510
f 505/505/505 506/506/506 512/512/512
f 505/505/505 512/512/512 511/511/511
f 513/513/513 496/496/496 495/495/495
f 513/513/513 497/497/497 496/496/496
f 513/513/513 498/498/498 497/497/497
f 513/513/513 499/499/499 498/498/498
f 513/513/513 500/500/500 499/499/499
f 514/514/514 507/507/507 508/508/508
f 514/514/514 508/508/508 509/509/509
f 514/514/514 509/509/509 510/510/510
f 514/514/514 510/510/510 511/511/511
f 514/514/514 511/511/511 512/512/512
o Engraved_ornamental_stroke
v 21.842536 4.120000 -0.384499
v 21.864834 4.005873 -0.304636
v 21.900913 4.049466 -0.175414
v 21.900913 4.190534 -0.175414
v 21.864834 4.234127 -0.304636
v 21.842536 4.120000 -0.384499
v 20.944418 4.120000 -0.115438
v 20.921771 4.005873 -0.035672
v 20.885129 4.049466 0.093391
v 20.885129 4.190534 0.093391
v 20.921771 4.234127 -0.035672
v 20.944418 4.120000 -0.115438
v 21.122387 4.120000 -0.522003
v 21.190891 4.234127 -0.475285
v 21.301733 4.190534 -0.399694
v 21.301733 4.049466 -0.399694
v 21.190891 4.005873 -0.475285
v 21.122387 4.120000 -0.522003
v 21.874806 4.120000 -0.268920
v 21.221527 4.120000 -0.454392
vt 0.5087500 0.9912500
vt 0.5552500 0.9912500
vt 0.6017500 0.9912500
vt 0.6482500 0.9912500
vt 0.6947500 0.9912500
vt 0.7412500 0.9912500
vt 0.5087500 0.8750000
vt 0.5552500 0.8750000
vt 0.6017500 0.8750000
vt 0.6482500 0.8750000
vt 0.6947500 0.8750000
vt 0.7412500 0.8750000
vt 0.5087500 0.7587500
vt 0.5552500 0.7587500
vt 0.6017500 0.7587500
vt 0.6482500 0.7587500
vt 0.6947500 0.7587500
vt 0.7412500 0.7587500
vt 0.6250000 0.8750000
vt 0.6250000 0.8750000
vn -0.1968463 -0.2070410 -0.9583243
vn 0.0569314 -0.9944826 -0.0881088
vn 0.3072629 -0.3801302 0.8724050
vn 0.2526652 0.7280104 0.6373077
vn -0.0705073 0.8426538 -0.5338195
vn -0.1968463 -0.2070410 -0.9583243
vn -0.1888692 0.3893916 -0.9015002
vn -0.2768018 -0.7103248 -0.6471626
vn 0.0722915 -0.7246112 0.6853558
vn -0.0689735 0.0574281 0.9959642
vn -0.2626246 0.9548959 -0.1385720
vn -0.1888692 0.3893916 -0.9015002
vn -0.7550682 -0.1914318 -0.6270773
vn 0.0245488 0.9858514 0.1658145
vn 0.3768237 0.8364568 0.3979244
vn 0.2894054 -0.9492629 0.1230633
vn -0.4865108 -0.8623234 -0.1403768
vn -0.7550682 -0.1914318 -0.6270773
vn 0.9631626 0.0000000 -0.2689198
vn 0.5634245 0.0000000 -0.8261676
f 515/515/515 516/516/516 522/522/522
f 515/515/515 522/522/522 521/521/521
f 516/516/516 517/517/517 523/523/523
f 516/516/516 523/523/523 522/522/522
f 517/517/517 518/518/518 524/524/524
f 517/517/517 524/524/524 523/523/523
f 518/518/518 519/519/519 525/525/525
f 518/518/518 525/525/525 524/524/524
f 519/519/519 520/520/520 526/526/526
f 519/519/519 526/526/526 525/525/525
f 521/521/521 522/522/522 528/528/528
f 521/521/521 528/528/528 527/527/527
f 522/522/522 523/523/523 529/529/529
f 522/522/522 529/529/529 528/528/528
f 523/523/523 524/524/524 530/530/530
f 523/523/523 530/530/530 529/529/529
f 524/524/524 525/525/525 531/531/531
f 524/524/524 531/531/531 530/530/530
f 525/525/525 526/526/526 532/532/532
f 525/525/525 532/532/532 531/531/531
f 533/533/533 516/516/516 515/515/515
f 533/533/533 517/517/517 516/516/516
f 533/533/533 518/518/518 517/517/517
f 533/533/533 519/519/519 518/518/518
f 533/533/533 520/520/520 519/519/519
f 534/534/534 527/527/527 528/528/528
f 534/534/534 528/528/528 529/529/529
f 534/534/534 529/529/529 530/530/530
f 534/534/534 530/530/530 531/531/531
f 534/534/534 531/531/531 532/532/532
o Engraved_ornamental_stroke
v 20.113211 4.120000 -0.613927
v 20.171226 4.005873 -0.673169
v 20.265096 4.049466 -0.769026
v 20.265096 4.190534 -0.769026
v 20.171226 4.234127 -0.673169
v 20.113211 4.120000 -0.613927
v 20.795285 4.120000 0.029336
v 20.875687 4.005873 0.009065
v 21.005780 4.049466 -0.023733
v 21.005780 4.190534 -0.023733
v 20.875687 4.234127 0.009065
v 20.795285 4.120000 0.029336
v 20.354204 4.120000 0.078492
v 20.360411 4.234127 -0.004193
v 20.370454 4.190534 -0.137981
v 20.370454 4.049466 -0.137981
v 20.360411 4.005873 -0.004193
v 20.354204 4.120000 0.078492
v 20.197171 4.120000 -0.699663
v 20.363187 4.120000 -0.041171
vt 0.5087500 0.9912500
vt 0.5552500 0.9912500
vt 0.6017500 0.9912500
vt 0.6482500 0.9912500
vt 0.6947500 0.9912500
vt 0.7412500 0.9912500
vt 0.5087500 0.8750000
vt 0.5552500 0.8750000
vt 0.6017500 0.8750000
vt 0.6482500 0.8750000
vt 0.6947500 0.8750000
vt 0.7412500 0.8750000
vt 0.5087500 0.7587500
vt 0.5552500 0.7587500
vt 0.6017500 0.7587500
vt 0.6482500 0.7587500
vt 0.6947500 0.7587500
vt 0.7412500 0.7587500
vt 0.6250000 0.8750000
vt 0.6250000 0.8750000
vn -0.7315101 -0.2070410 0.6496361
vn -0.1047702 -0.9944826 -0.0052496
vn 0.6018935 -0.3801302 -0.7023000
vn 0.4255921 0.7280104 -0.5374683
vn -0.4270477 0.8426538 0.3279708
vn -0.7315101 -0.2070410 0.6496361
vn -0.6862875 0.3893916 0.6143156
vn -0.4220583 -0.7103248 0.5632987
vn 0.5573898 -0.7246112 -0.4052842
vn 0.8970170 0.0574281 -0.4382493
vn 0.0113054 0.9548959 0.2967256
vn -0.6862875 0.3893916 0.6143156
vn -0.1655308 -0.1914318 0.9674469
vn 0.1313252 0.9858514 -0.1041671
vn 0.1562007 0.8364568 -0.5253011
vn -0.0381268 -0.9492629 -0.3121640
vn 0.1216855 -0.8623234 0.4915191
vn -0.1655308 -0.1914318 0.9674469
vn -0.7144727 0.0000000 -0.6996633
vn -0.9971943 0.0000000 -0.0748561
f 535/535/535 536/536/536 542/542/542
f 535/535/535 542/542/542 541/541/541
f 536/536/536 537/537/537 543/543/543
f 536/536/536 543/543/543 542/542/542
f 537/537/537 538/538/538 544/544/544
f 537/537/537 544/544/544 543/543/543
f 538/538/538 539/539/539 545/545/545
f 538/538/538 545/545/545 544/544/544
f 539/539/539 540/540/540 546/546/546
f 539/539/539 546/546/546 545/545/545
f 541/541/541 542/542/542 548/548/548
f 541/541/541 548/548/548 547/547/547
f 542/542/542 543/543/543 549/549/549
f 542/542/542 549/549/549 548/548/548
f 543/543/543 544/544/544 550/550/550
f 543/543/543 550/550/550 549/549/549
f 544/544/544 545/545/545 551/551/551
f 544/544/544 551/551/551 550/550/550
f 545/545/545 546/546/546 552/552/552
f 545/545/545 552/552/552 551/551/551
f 553/553/553 536/536/536 535/535/535
f 553/553/553 537/537/537 536/536/536
f 553/553/553 538/538/538 537/537/537
f 553/553/553 539/539/539 538/538/538
f 553/553/553 540/540/540 539/539/539
f 554/554/554 547/547/547 548/548/548
f 554/554/554 548/548/548 549/549/549
f 554/554/554 549/549/549 550/550/550
f 554/554/554 550/550/550 551/551/551
f 554/554/554 551/551/551 552/552/552
