# Original Project Broom pickup; OBJ Y up; CC-BY-SA-4.0
o Dart_shaft
v -12.000000 2.304451 0.425000
v -12.000000 2.247860 0.636200
v -12.000000 2.093251 0.790809
v -12.000000 1.882051 0.847400
v -12.000000 1.670851 0.790809
v -12.000000 1.516242 0.636200
v -12.000000 1.459651 0.425000
v -12.000000 1.516242 0.213800
v -12.000000 1.670851 0.059191
v -12.000000 1.882051 0.002600
v -12.000000 2.093251 0.059191
v -12.000000 2.247860 0.213800
v -12.000000 2.304451 0.425000
v -11.500000 2.362051 0.425000
v -11.500000 2.297743 0.665000
v -11.500000 2.122051 0.840692
v -11.500000 1.882051 0.905000
v -11.500000 1.642051 0.840692
v -11.500000 1.466359 0.665000
v -11.500000 1.402051 0.425000
v -11.500000 1.466359 0.185000
v -11.500000 1.642051 0.009308
v -11.500000 1.882051 -0.055000
v -11.500000 2.122051 0.009308
v -11.500000 2.297743 0.185000
v -11.500000 2.362051 0.425000
v 6.500000 2.362051 0.425000
v 6.500000 2.297743 0.665000
v 6.500000 2.122051 0.840692
v 6.500000 1.882051 0.905000
v 6.500000 1.642051 0.840692
v 6.500000 1.466359 0.665000
v 6.500000 1.402051 0.425000
v 6.500000 1.466359 0.185000
v 6.500000 1.642051 0.009308
v 6.500000 1.882051 -0.055000
v 6.500000 2.122051 0.009308
v 6.500000 2.297743 0.185000
v 6.500000 2.362051 0.425000
v 7.000000 2.304451 0.425000
v 7.000000 2.247860 0.636200
v 7.000000 2.093251 0.790809
v 7.000000 1.882051 0.847400
v 7.000000 1.670851 0.790809
v 7.000000 1.516242 0.636200
v 7.000000 1.459651 0.425000
v 7.000000 1.516242 0.213800
v 7.000000 1.670851 0.059191
v 7.000000 1.882051 0.002600
v 7.000000 2.093251 0.059191
v 7.000000 2.247860 0.213800
v 7.000000 2.304451 0.425000
v -12.000000 1.882051 0.425000
v 7.000000 1.882051 0.425000
vt 0.7587500 0.9912500
vt 0.7781250 0.9912500
vt 0.7975000 0.9912500
vt 0.8168750 0.9912500
vt 0.8362500 0.9912500
vt 0.8556250 0.9912500
vt 0.8750000 0.9912500
vt 0.8943750 0.9912500
vt 0.9137500 0.9912500
vt 0.9331250 0.9912500
vt 0.9525000 0.9912500
vt 0.9718750 0.9912500
vt 0.9912500 0.9912500
vt 0.7587500 0.9137500
vt 0.7781250 0.9137500
vt 0.7975000 0.9137500
vt 0.8168750 0.9137500
vt 0.8362500 0.9137500
vt 0.8556250 0.9137500
vt 0.8750000 0.9137500
vt 0.8943750 0.9137500
vt 0.9137500 0.9137500
vt 0.9331250 0.9137500
vt 0.9525000 0.9137500
vt 0.9718750 0.9137500
vt 0.9912500 0.9137500
vt 0.7587500 0.8362500
vt 0.7781250 0.8362500
vt 0.7975000 0.8362500
vt 0.8168750 0.8362500
vt 0.8362500 0.8362500
vt 0.8556250 0.8362500
vt 0.8750000 0.8362500
vt 0.8943750 0.8362500
vt 0.9137500 0.8362500
vt 0.9331250 0.8362500
vt 0.9525000 0.8362500
vt 0.9718750 0.8362500
vt 0.9912500 0.8362500
vt 0.7587500 0.7587500
vt 0.7781250 0.7587500
vt 0.7975000 0.7587500
vt 0.8168750 0.7587500
vt 0.8362500 0.7587500
vt 0.8556250 0.7587500
vt 0.8750000 0.7587500
vt 0.8943750 0.7587500
vt 0.9137500 0.7587500
vt 0.9331250 0.7587500
vt 0.9525000 0.7587500
vt 0.9718750 0.7587500
vt 0.9912500 0.7587500
vt 0.8750000 0.8750000
vt 0.8750000 0.8750000
vn -0.5454909 0.8341948 0.0809862
vn -0.5454909 0.6819408 0.4872335
vn -0.5454909 0.3469613 0.7629270
vn -0.5454909 -0.0809862 0.8341948
vn -0.5454909 -0.4872335 0.6819408
vn -0.5454909 -0.7629270 0.3469613
vn -0.5454909 -0.8341948 -0.0809862
vn -0.5454909 -0.6819408 -0.4872335
vn -0.5454909 -0.3469613 -0.7629270
vn -0.5454909 0.0809862 -0.8341948
vn -0.5454909 0.4872335 -0.6819408
vn -0.5454909 0.7629270 -0.3469613
vn -0.5454909 0.8341948 0.0809862
vn -0.0029815 0.9964135 0.0845655
vn -0.0029815 0.8206366 0.5714426
vn -0.0029815 0.4249708 0.9052021
vn -0.0029815 -0.0845655 0.9964135
vn -0.0029815 -0.5714426 0.8206366
vn -0.0029815 -0.9052021 0.4249708
vn -0.0029815 -0.9964135 -0.0845655
vn -0.0029815 -0.8206366 -0.5714426
vn -0.0029815 -0.4249708 -0.9052021
vn -0.0029815 0.0845655 -0.9964135
vn -0.0029815 0.5714426 -0.8206366
vn -0.0029815 0.9052021 -0.4249708
vn -0.0029815 0.9964135 0.0845655
vn 0.0029815 0.9964135 -0.0845655
vn 0.0029815 0.9052021 0.4249708
vn 0.0029815 0.5714426 0.8206366
vn 0.0029815 0.0845655 0.9964135
vn 0.0029815 -0.4249708 0.9052021
vn 0.0029815 -0.8206366 0.5714426
vn 0.0029815 -0.9964135 0.0845655
vn 0.0029815 -0.9052021 -0.4249708
vn 0.0029815 -0.5714426 -0.8206366
vn 0.0029815 -0.0845655 -0.9964135
vn 0.0029815 0.4249708 -0.9052021
vn 0.0029815 0.8206366 -0.5714426
vn 0.0029815 0.9964135 -0.0845655
vn 0.5454909 0.8341948 -0.0809862
vn 0.5454909 0.7629270 0.3469613
vn 0.5454909 0.4872335 0.6819408
vn 0.5454909 0.0809862 0.8341948
vn 0.5454909 -0.3469613 0.7629270
vn 0.5454909 -0.6819408 0.4872335
vn 0.5454909 -0.8341948 0.0809862
vn 0.5454909 -0.7629270 -0.3469613
vn 0.5454909 -0.4872335 -0.6819408
vn 0.5454909 -0.0809862 -0.8341948
vn 0.5454909 0.3469613 -0.7629270
vn 0.5454909 0.6819408 -0.4872335
vn 0.5454909 0.8341948 -0.0809862
vn -1.0000000 0.0000000 -0.0000000
vn 1.0000000 0.0000000 -0.0000000
f 1/1/1 2/2/2 15/15/15
f 1/1/1 15/15/15 14/14/14
f 2/2/2 3/3/3 16/16/16
f 2/2/2 16/16/16 15/15/15
f 3/3/3 4/4/4 17/17/17
f 3/3/3 17/17/17 16/16/16
f 4/4/4 5/5/5 18/18/18
f 4/4/4 18/18/18 17/17/17
f 5/5/5 6/6/6 19/19/19
f 5/5/5 19/19/19 18/18/18
f 6/6/6 7/7/7 20/20/20
f 6/6/6 20/20/20 19/19/19
f 7/7/7 8/8/8 21/21/21
f 7/7/7 21/21/21 20/20/20
f 8/8/8 9/9/9 22/22/22
f 8/8/8 22/22/22 21/21/21
f 9/9/9 10/10/10 23/23/23
f 9/9/9 23/23/23 22/22/22
f 10/10/10 11/11/11 24/24/24
f 10/10/10 24/24/24 23/23/23
f 11/11/11 12/12/12 25/25/25
f 11/11/11 25/25/25 24/24/24
f 12/12/12 13/13/13 26/26/26
f 12/12/12 26/26/26 25/25/25
f 14/14/14 15/15/15 28/28/28
f 14/14/14 28/28/28 27/27/27
f 15/15/15 16/16/16 29/29/29
f 15/15/15 29/29/29 28/28/28
f 16/16/16 17/17/17 30/30/30
f 16/16/16 30/30/30 29/29/29
f 17/17/17 18/18/18 31/31/31
f 17/17/17 31/31/31 30/30/30
f 18/18/18 19/19/19 32/32/32
f 18/18/18 32/32/32 31/31/31
f 19/19/19 20/20/20 33/33/33
f 19/19/19 33/33/33 32/32/32
f 20/20/20 21/21/21 34/34/34
f 20/20/20 34/34/34 33/33/33
f 21/21/21 22/22/22 35/35/35
f 21/21/21 35/35/35 34/34/34
f 22/22/22 23/23/23 36/36/36
f 22/22/22 36/36/36 35/35/35
f 23/23/23 24/24/24 37/37/37
f 23/23/23 37/37/37 36/36/36
f 24/24/24 25/25/25 38/38/38
f 24/24/24 38/38/38 37/37/37
f 25/25/25 26/26/26 39/39/39
f 25/25/25 39/39/39 38/38/38
f 27/27/27 28/28/28 41/41/41
f 27/27/27 41/41/41 40/40/40
f 28/28/28 29/29/29 42/42/42
f 28/28/28 42/42/42 41/41/41
f 29/29/29 30/30/30 43/43/43
f 29/29/29 43/43/43 42/42/42
f 30/30/30 31/31/31 44/44/44
f 30/30/30 44/44/44 43/43/43
f 31/31/31 32/32/32 45/45/45
f 31/31/31 45/45/45 44/44/44
f 32/32/32 33/33/33 46/46/46
f 32/32/32 46/46/46 45/45/45
f 33/33/33 34/34/34 47/47/47
f 33/33/33 47/47/47 46/46/46
f 34/34/34 35/35/35 48/48/48
f 34/34/34 48/48/48 47/47/47
f 35/35/35 36/36/36 49/49/49
f 35/35/35 49/49/49 48/48/48
f 36/36/36 37/37/37 50/50/50
f 36/36/36 50/50/50 49/49/49
f 37/37/37 38/38/38 51/51/51
f 37/37/37 51/51/51 50/50/50
f 38/38/38 39/39/39 52/52/52
f 38/38/38 52/52/52 51/51/51
f 53/53/53 2/2/2 1/1/1
f 53/53/53 3/3/3 2/2/2
f 53/53/53 4/4/4 3/3/3
f 53/53/53 5/5/5 4/4/4
f 53/53/53 6/6/6 5/5/5
f 53/53/53 7/7/7 6/6/6
f 53/53/53 8/8/8 7/7/7
f 53/53/53 9/9/9 8/8/8
f 53/53/53 10/10/10 9/9/9
f 53/53/53 11/11/11 10/10/10
f 53/53/53 12/12/12 11/11/11
f 53/53/53 13/13/13 12/12/12
f 54/54/54 40/40/40 41/41/41
f 54/54/54 41/41/41 42/42/42
f 54/54/54 42/42/42 43/43/43
f 54/54/54 43/43/43 44/44/44
f 54/54/54 44/44/44 45/45/45
f 54/54/54 45/45/45 46/46/46
f 54/54/54 46/46/46 47/47/47
f 54/54/54 47/47/47 48/48/48
f 54/54/54 48/48/48 49/49/49
f 54/54/54 49/49/49 50/50/50
f 54/54/54 50/50/50 51/51/51
f 54/54/54 51/51/51 52/52/52
o Dart_point
v 14.000000 1.607051 0.425000
v 7.000000 1.607051 1.575000
v 7.000000 1.607051 -0.725000
v 7.000000 2.157051 -0.725000
v 7.000000 2.157051 1.575000
v 14.000000 2.157051 0.425000
v 14.000000 2.157051 0.425000
v 7.000000 2.157051 1.575000
v 7.000000 1.607051 1.575000
v 14.000000 1.607051 0.425000
v 7.000000 2.157051 1.575000
v 7.000000 2.157051 -0.725000
v 7.000000 1.607051 -0.725000
v 7.000000 1.607051 1.575000
v 7.000000 2.157051 -0.725000
v 14.000000 2.157051 0.425000
v 14.000000 1.607051 0.425000
v 7.000000 1.607051 -0.725000
vt 0.2587500 0.9912500
vt 0.4912500 0.9912500
vt 0.4912500 0.7587500
vt 0.2587500 0.9912500
vt 0.4912500 0.9912500
vt 0.4912500 0.7587500
vt 0.2587500 0.9912500
vt 0.4912500 0.9912500
vt 0.4912500 0.7587500
vt 0.2587500 0.7587500
vt 0.2587500 0.9912500
vt 0.4912500 0.9912500
vt 0.4912500 0.7587500
vt 0.2587500 0.7587500
vt 0.2587500 0.9912500
vt 0.4912500 0.9912500
vt 0.4912500 0.7587500
vt 0.2587500 0.7587500
vn 0.1138797 -0.9662518 -0.2310602
vn 0.0000000 -0.9021342 0.4314555
vn -0.1138797 -0.9662518 -0.2310602
vn -0.0000000 0.9021342 -0.4314555
vn -0.1138797 0.9662518 0.2310602
vn 0.1138797 0.9662518 0.2310602
vn 0.1138797 0.9662518 0.2310602
vn -0.1138797 0.9662518 0.2310602
vn 0.0000000 -0.9021342 0.4314555
vn 0.1138797 -0.9662518 -0.2310602
vn -0.1138797 0.9662518 0.2310602
vn -0.0000000 0.9021342 -0.4314555
vn -0.1138797 -0.9662518 -0.2310602
vn 0.0000000 -0.9021342 0.4314555
vn -0.0000000 0.9021342 -0.4314555
vn 0.1138797 0.9662518 0.2310602
vn 0.1138797 -0.9662518 -0.2310602
vn -0.1138797 -0.9662518 -0.2310602
f 55/55/55 56/56/56 57/57/57
f 58/58/58 59/59/59 60/60/60
f 61/61/61 62/62/62 63/63/63
f 61/61/61 63/63/63 64/64/64
f 65/65/65 66/66/66 67/67/67
f 65/65/65 67/67/67 68/68/68
f 69/69/69 70/70/70 71/71/71
f 69/69/69 71/71/71 72/72/72
o Flight_vane
v -12.000000 1.822051 0.125000
v -7.000000 1.822051 0.125000
v -11.000000 1.822051 -1.575000
v -14.000000 1.822051 -1.575000
v -14.000000 1.942051 -1.575000
v -11.000000 1.942051 -1.575000
v -7.000000 1.942051 0.125000
v -12.000000 1.942051 0.125000
v -12.000000 1.942051 0.125000
v -7.000000 1.942051 0.125000
v -7.000000 1.822051 0.125000
v -12.000000 1.822051 0.125000
v -7.000000 1.942051 0.125000
v -11.000000 1.942051 -1.575000
v -11.000000 1.822051 -1.575000
v -7.000000 1.822051 0.125000
v -11.000000 1.942051 -1.575000
v -14.000000 1.942051 -1.575000
v -14.000000 1.822051 -1.575000
v -11.000000 1.822051 -1.575000
v -14.000000 1.942051 -1.575000
v -12.000000 1.942051 0.125000
v -12.000000 1.822051 0.125000
v -14.000000 1.822051 -1.575000
vt 0.7587500 0.7412500
vt 0.9912500 0.7412500
vt 0.9912500 0.5087500
vt 0.7587500 0.5087500
vt 0.7587500 0.7412500
vt 0.9912500 0.7412500
vt 0.9912500 0.5087500
vt 0.7587500 0.5087500
vt 0.7587500 0.7412500
vt 0.9912500 0.7412500
vt 0.9912500 0.5087500
vt 0.7587500 0.5087500
vt 0.7587500 0.7412500
vt 0.9912500 0.7412500
vt 0.9912500 0.5087500
vt 0.7587500 0.5087500
vt 0.7587500 0.7412500
vt 0.9912500 0.7412500
vt 0.9912500 0.5087500
vt 0.7587500 0.5087500
vt 0.7587500 0.7412500
vt 0.9912500 0.7412500
vt 0.9912500 0.5087500
vt 0.7587500 0.5087500
vn 0.0298925 0.9964162 -0.0791272
vn -0.0239075 0.9961468 -0.0843795
vn -0.0298464 0.9948794 0.0965618
vn 0.0397925 0.9948116 0.0936293
vn 0.0299853 -0.9995114 -0.0088192
vn -0.0389072 -0.9726801 0.2288659
vn -0.0299760 -0.9992006 0.0264494
vn 0.0236562 -0.9856756 -0.1669850
vn 0.0236562 -0.9856756 -0.1669850
vn -0.0299760 -0.9992006 0.0264494
vn -0.0239075 0.9961468 -0.0843795
vn 0.0298925 0.9964162 -0.0791272
vn -0.0299760 -0.9992006 0.0264494
vn -0.0389072 -0.9726801 0.2288659
vn -0.0298464 0.9948794 0.0965618
vn -0.0239075 0.9961468 -0.0843795
vn -0.0389072 -0.9726801 0.2288659
vn 0.0299853 -0.9995114 -0.0088192
vn 0.0397925 0.9948116 0.0936293
vn -0.0298464 0.9948794 0.0965618
vn 0.0299853 -0.9995114 -0.0088192
vn 0.0236562 -0.9856756 -0.1669850
vn 0.0298925 0.9964162 -0.0791272
vn 0.0397925 0.9948116 0.0936293
f 73/73/73 74/74/74 75/75/75
f 73/73/73 75/75/75 76/76/76
f 77/77/77 78/78/78 79/79/79
f 77/77/77 79/79/79 80/80/80
f 81/81/81 82/82/82 83/83/83
f 81/81/81 83/83/83 84/84/84
f 85/85/85 86/86/86 87/87/87
f 85/85/85 87/87/87 88/88/88
f 89/89/89 90/90/90 91/91/91
f 89/89/89 91/91/91 92/92/92
f 93/93/93 94/94/94 95/95/95
f 93/93/93 95/95/95 96/96/96
o Flight_vane
v -12.000000 2.171858 0.523038
v -7.000000 2.171858 0.523038
v -11.000000 3.644102 1.373038
v -14.000000 3.644102 1.373038
v -14.000000 3.584102 1.476962
v -11.000000 3.584102 1.476962
v -7.000000 2.111858 0.626962
v -12.000000 2.111858 0.626962
v -12.000000 2.111858 0.626962
v -7.000000 2.111858 0.626962
v -7.000000 2.171858 0.523038
v -12.000000 2.171858 0.523038
v -7.000000 2.111858 0.626962
v -11.000000 3.584102 1.476962
v -11.000000 3.644102 1.373038
v -7.000000 2.171858 0.523038
v -11.000000 3.584102 1.476962
v -14.000000 3.584102 1.476962
v -14.000000 3.644102 1.373038
v -11.000000 3.644102 1.373038
v -14.000000 3.584102 1.476962
v -12.000000 2.111858 0.626962
v -12.000000 2.171858 0.523038
v -14.000000 3.644102 1.373038
vt 0.7587500 0.7412500
vt 0.9912500 0.7412500
vt 0.9912500 0.5087500
vt 0.7587500 0.5087500
vt 0.7587500 0.7412500
vt 0.9912500 0.7412500
vt 0.9912500 0.5087500
vt 0.7587500 0.5087500
vt 0.7587500 0.7412500
vt 0.9912500 0.7412500
vt 0.9912500 0.5087500
vt 0.7587500 0.5087500
vt 0.7587500 0.7412500
vt 0.9912500 0.7412500
vt 0.9912500 0.5087500
vt 0.7587500 0.5087500
vt 0.7587500 0.7412500
vt 0.9912500 0.7412500
vt 0.9912500 0.5087500
vt 0.7587500 0.5087500
vt 0.7587500 0.7412500
vt 0.9912500 0.7412500
vt 0.9912500 0.5087500
vt 0.7587500 0.5087500
vn 0.0298925 -0.4296820 0.9024854
vn -0.0239075 -0.4249986 0.9048782
vn -0.0298464 -0.5810647 0.8133099
vn 0.0397925 -0.5784912 0.8147174
vn 0.0299853 0.5073934 -0.8611927
vn -0.0389072 0.2881364 -0.9567987
vn -0.0299760 0.4766944 -0.8785578
vn 0.0236562 0.6374511 -0.7701276
vn 0.0236562 0.6374511 -0.7701276
vn -0.0299760 0.4766944 -0.8785578
vn -0.0239075 -0.4249986 0.9048782
vn 0.0298925 -0.4296820 0.9024854
vn -0.0299760 0.4766944 -0.8785578
vn -0.0389072 0.2881364 -0.9567987
vn -0.0298464 -0.5810647 0.8133099
vn -0.0239075 -0.4249986 0.9048782
vn -0.0389072 0.2881364 -0.9567987
vn 0.0299853 0.5073934 -0.8611927
vn 0.0397925 -0.5784912 0.8147174
vn -0.0298464 -0.5810647 0.8133099
vn 0.0299853 0.5073934 -0.8611927
vn 0.0236562 0.6374511 -0.7701276
vn 0.0298925 -0.4296820 0.9024854
vn 0.0397925 -0.5784912 0.8147174
f 97/97/97 98/98/98 99/99/99
f 97/97/97 99/99/99 100/100/100
f 101/101/101 102/102/102 103/103/103
f 101/101/101 103/103/103 104/104/104
f 105/105/105 106/106/106 107/107/107
f 105/105/105 107/107/107 108/108/108
f 109/109/109 110/110/110 111/111/111
f 109/109/109 111/111/111 112/112/112
f 113/113/113 114/114/114 115/115/115
f 113/113/113 115/115/115 116/116/116
f 117/117/117 118/118/118 119/119/119
f 117/117/117 119/119/119 120/120/120
o Flight_vane
v -12.000000 1.652243 0.626962
v -7.000000 1.652243 0.626962
v -11.000000 0.180000 1.476962
v -14.000000 0.180000 1.476962
v -14.000000 0.120000 1.373038
v -11.000000 0.120000 1.373038
v -7.000000 1.592243 0.523038
v -12.000000 1.592243 0.523038
v -12.000000 1.592243 0.523038
v -7.000000 1.592243 0.523038
v -7.000000 1.652243 0.626962
v -12.000000 1.652243 0.626962
v -7.000000 1.592243 0.523038
v -11.000000 0.120000 1.373038
v -11.000000 0.180000 1.476962
v -7.000000 1.652243 0.626962
v -11.000000 0.120000 1.373038
v -14.000000 0.120000 1.373038
v -14.000000 0.180000 1.476962
v -11.000000 0.180000 1.476962
v -14.000000 0.120000 1.373038
v -12.000000 1.592243 0.523038
v -12.000000 1.652243 0.626962
v -14.000000 0.180000 1.476962
vt 0.7587500 0.7412500
vt 0.9912500 0.7412500
vt 0.9912500 0.5087500
vt 0.7587500 0.5087500
vt 0.7587500 0.7412500
vt 0.9912500 0.7412500
vt 0.9912500 0.5087500
vt 0.7587500 0.5087500
vt 0.7587500 0.7412500
vt 0.9912500 0.7412500
vt 0.9912500 0.5087500
vt 0.7587500 0.5087500
vt 0.7587500 0.7412500
vt 0.9912500 0.7412500
vt 0.9912500 0.5087500
vt 0.7587500 0.5087500
vt 0.7587500 0.7412500
vt 0.9912500 0.7412500
vt 0.9912500 0.5087500
vt 0.7587500 0.5087500
vt 0.7587500 0.7412500
vt 0.9912500 0.7412500
vt 0.9912500 0.5087500
vt 0.7587500 0.5087500
vn 0.0298925 -0.5667343 -0.8233582
vn -0.0239075 -0.5711482 -0.8204987
vn -0.0298464 -0.4138147 -0.9098717
vn 0.0397925 -0.4163204 -0.9083468
vn 0.0299853 0.4921180 0.8700119
vn -0.0389072 0.6845438 0.7279327
vn -0.0299760 0.5225062 0.8521084
vn 0.0236562 0.3482245 0.9371126
vn 0.0236562 0.3482245 0.9371126
vn -0.0299760 0.5225062 0.8521084
vn -0.0239075 -0.5711482 -0.8204987
vn 0.0298925 -0.5667343 -0.8233582
vn -0.0299760 0.5225062 0.8521084
vn -0.0389072 0.6845438 0.7279327
vn -0.0298464 -0.4138147 -0.9098717
vn -0.0239075 -0.5711482 -0.8204987
vn -0.0389072 0.6845438 0.7279327
vn 0.0299853 0.4921180 0.8700119
vn 0.0397925 -0.4163204 -0.9083468
vn -0.0298464 -0.4138147 -0.9098717
vn 0.0299853 0.4921180 0.8700119
vn 0.0236562 0.3482245 0.9371126
vn 0.0298925 -0.5667343 -0.8233582
vn 0.0397925 -0.4163204 -0.9083468
f 121/121/121 122/122/122 123/123/123
f 121/121/121 123/123/123 124/124/124
f 125/125/125 126/126/126 127/127/127
f 125/125/125 127/127/127 128/128/128
f 129/129/129 130/130/130 131/131/131
f 129/129/129 131/131/131 132/132/132
f 133/133/133 134/134/134 135/135/135
f 133/133/133 135/135/135 136/136/136
f 137/137/137 138/138/138 139/139/139
f 137/137/137 139/139/139 140/140/140
f 141/141/141 142/142/142 143/143/143
f 141/141/141 143/143/143 144/144/144
