o BroguePickupC0002K07
v -14.0000 1.0000 -1.5000
v 2.0000 1.0000 -1.5000
v 2.0000 4.0000 -1.5000
v -14.0000 4.0000 -1.5000
v 2.0000 1.0000 1.5000
v -14.0000 1.0000 1.5000
v -14.0000 4.0000 1.5000
v 2.0000 4.0000 1.5000
v -14.0000 1.0000 1.5000
v -14.0000 1.0000 -1.5000
v -14.0000 4.0000 -1.5000
v -14.0000 4.0000 1.5000
v 2.0000 1.0000 -1.5000
v 2.0000 1.0000 1.5000
v 2.0000 4.0000 1.5000
v 2.0000 4.0000 -1.5000
v -14.0000 4.0000 -1.5000
v 2.0000 4.0000 -1.5000
v 2.0000 4.0000 1.5000
v -14.0000 4.0000 1.5000
v -14.0000 1.0000 1.5000
v 2.0000 1.0000 1.5000
v 2.0000 1.0000 -1.5000
v -14.0000 1.0000 -1.5000
v -1.0000 0.0000 -3.0000
v 11.0000 0.0000 -3.0000
v 11.0000 8.0000 -3.0000
v -1.0000 8.0000 -3.0000
v 11.0000 0.0000 3.0000
v -1.0000 0.0000 3.0000
v -1.0000 8.0000 3.0000
v 11.0000 8.0000 3.0000
v -1.0000 0.0000 3.0000
v -1.0000 0.0000 -3.0000
v -1.0000 8.0000 -3.0000
v -1.0000 8.0000 3.0000
v 11.0000 0.0000 -3.0000
v 11.0000 0.0000 3.0000
v 11.0000 8.0000 3.0000
v 11.0000 8.0000 -3.0000
v -1.0000 8.0000 -3.0000
v 11.0000 8.0000 -3.0000
v 11.0000 8.0000 3.0000
v -1.0000 8.0000 3.0000
v -1.0000 0.0000 3.0000
v 11.0000 0.0000 3.0000
v 11.0000 0.0000 -3.0000
v -1.0000 0.0000 -3.0000
vt 0.250000 0.500000
vt 0.500000 0.500000
vt 0.500000 1.000000
vt 0.250000 1.000000
vt 0.250000 0.500000
vt 0.500000 0.500000
vt 0.500000 1.000000
vt 0.250000 1.000000
vt 0.250000 0.500000
vt 0.500000 0.500000
vt 0.500000 1.000000
vt 0.250000 1.000000
vt 0.250000 0.500000
vt 0.500000 0.500000
vt 0.500000 1.000000
vt 0.250000 1.000000
vt 0.250000 0.500000
vt 0.500000 0.500000
vt 0.500000 1.000000
vt 0.250000 1.000000
vt 0.250000 0.500000
vt 0.500000 0.500000
vt 0.500000 1.000000
vt 0.250000 1.000000
vt 0.000000 0.500000
vt 0.250000 0.500000
vt 0.250000 1.000000
vt 0.000000 1.000000
vt 0.000000 0.500000
vt 0.250000 0.500000
vt 0.250000 1.000000
vt 0.000000 1.000000
vt 0.000000 0.500000
vt 0.250000 0.500000
vt 0.250000 1.000000
vt 0.000000 1.000000
vt 0.000000 0.500000
vt 0.250000 0.500000
vt 0.250000 1.000000
vt 0.000000 1.000000
vt 0.000000 0.500000
vt 0.250000 0.500000
vt 0.250000 1.000000
vt 0.000000 1.000000
vt 0.000000 0.500000
vt 0.250000 0.500000
vt 0.250000 1.000000
vt 0.000000 1.000000
f 1/1 2/2 3/3 4/4
f 5/5 6/6 7/7 8/8
f 9/9 10/10 11/11 12/12
f 13/13 14/14 15/15 16/16
f 17/17 18/18 19/19 20/20
f 21/21 22/22 23/23 24/24
f 25/25 26/26 27/27 28/28
f 29/29 30/30 31/31 32/32
f 33/33 34/34 35/35 36/36
f 37/37 38/38 39/39 40/40
f 41/41 42/42 43/43 44/44
f 45/45 46/46 47/47 48/48
