o BroguePickupC0002K05
v -15.0000 1.0000 -1.5000
v 1.0000 1.0000 -1.5000
v 1.0000 4.0000 -1.5000
v -15.0000 4.0000 -1.5000
v 1.0000 1.0000 1.5000
v -15.0000 1.0000 1.5000
v -15.0000 4.0000 1.5000
v 1.0000 4.0000 1.5000
v -15.0000 1.0000 1.5000
v -15.0000 1.0000 -1.5000
v -15.0000 4.0000 -1.5000
v -15.0000 4.0000 1.5000
v 1.0000 1.0000 -1.5000
v 1.0000 1.0000 1.5000
v 1.0000 4.0000 1.5000
v 1.0000 4.0000 -1.5000
v -15.0000 4.0000 -1.5000
v 1.0000 4.0000 -1.5000
v 1.0000 4.0000 1.5000
v -15.0000 4.0000 1.5000
v -15.0000 1.0000 1.5000
v 1.0000 1.0000 1.5000
v 1.0000 1.0000 -1.5000
v -15.0000 1.0000 -1.5000
v 0.5000 2.0000 -0.5000
v 7.5000 2.0000 -0.5000
v 7.5000 3.0000 -0.5000
v 0.5000 3.0000 -0.5000
v 7.5000 2.0000 0.5000
v 0.5000 2.0000 0.5000
v 0.5000 3.0000 0.5000
v 7.5000 3.0000 0.5000
v 0.5000 2.0000 0.5000
v 0.5000 2.0000 -0.5000
v 0.5000 3.0000 -0.5000
v 0.5000 3.0000 0.5000
v 7.5000 2.0000 -0.5000
v 7.5000 2.0000 0.5000
v 7.5000 3.0000 0.5000
v 7.5000 3.0000 -0.5000
v 0.5000 3.0000 -0.5000
v 7.5000 3.0000 -0.5000
v 7.5000 3.0000 0.5000
v 0.5000 3.0000 0.5000
v 0.5000 2.0000 0.5000
v 7.5000 2.0000 0.5000
v 7.5000 2.0000 -0.5000
v 0.5000 2.0000 -0.5000
v 10.0000 0.0000 0.0000
v 10.0000 0.0000 0.0000
v 12.1399 0.8594 1.5547
v 12.6450 0.8594 0.0000
v 10.0000 0.0000 0.0000
v 10.0000 0.0000 0.0000
v 10.8174 0.8594 2.5156
v 12.1399 0.8594 1.5547
v 10.0000 0.0000 0.0000
v 10.0000 0.0000 0.0000
v 9.1826 0.8594 2.5156
v 10.8174 0.8594 2.5156
v 10.0000 0.0000 0.0000
v 10.0000 0.0000 0.0000
v 7.8601 0.8594 1.5547
v 9.1826 0.8594 2.5156
v 10.0000 0.0000 0.0000
v 10.0000 0.0000 0.0000
v 7.3550 0.8594 0.0000
v 7.8601 0.8594 1.5547
v 10.0000 0.0000 0.0000
v 10.0000 0.0000 -0.0000
v 7.8601 0.8594 -1.5547
v 7.3550 0.8594 0.0000
v 10.0000 0.0000 -0.0000
v 10.0000 0.0000 -0.0000
v 9.1826 0.8594 -2.5156
v 7.8601 0.8594 -1.5547
v 10.0000 0.0000 -0.0000
v 10.0000 0.0000 -0.0000
v 10.8174 0.8594 -2.5156
v 9.1826 0.8594 -2.5156
v 10.0000 0.0000 -0.0000
v 10.0000 0.0000 -0.0000
v 12.1399 0.8594 -1.5547
v 10.8174 0.8594 -2.5156
v 10.0000 0.0000 -0.0000
v 10.0000 0.0000 -0.0000
v 12.6450 0.8594 -0.0000
v 12.1399 0.8594 -1.5547
v 12.6450 0.8594 0.0000
v 12.1399 0.8594 1.5547
v 13.4624 3.1094 2.5156
v 14.2798 3.1094 0.0000
v 12.1399 0.8594 1.5547
v 10.8174 0.8594 2.5156
v 11.3225 3.1094 4.0703
v 13.4624 3.1094 2.5156
v 10.8174 0.8594 2.5156
v 9.1826 0.8594 2.5156
v 8.6775 3.1094 4.0703
v 11.3225 3.1094 4.0703
v 9.1826 0.8594 2.5156
v 7.8601 0.8594 1.5547
v 6.5376 3.1094 2.5156
v 8.6775 3.1094 4.0703
v 7.8601 0.8594 1.5547
v 7.3550 0.8594 0.0000
v 5.7202 3.1094 0.0000
v 6.5376 3.1094 2.5156
v 7.3550 0.8594 0.0000
v 7.8601 0.8594 -1.5547
v 6.5376 3.1094 -2.5156
v 5.7202 3.1094 0.0000
v 7.8601 0.8594 -1.5547
v 9.1826 0.8594 -2.5156
v 8.6775 3.1094 -4.0703
v 6.5376 3.1094 -2.5156
v 9.1826 0.8594 -2.5156
v 10.8174 0.8594 -2.5156
v 11.3225 3.1094 -4.0703
v 8.6775 3.1094 -4.0703
v 10.8174 0.8594 -2.5156
v 12.1399 0.8594 -1.5547
v 13.4624 3.1094 -2.5156
v 11.3225 3.1094 -4.0703
v 12.1399 0.8594 -1.5547
v 12.6450 0.8594 -0.0000
v 14.2798 3.1094 -0.0000
v 13.4624 3.1094 -2.5156
v 14.2798 3.1094 0.0000
v 13.4624 3.1094 2.5156
v 13.4624 5.8906 2.5156
v 14.2798 5.8906 0.0000
v 13.4624 3.1094 2.5156
v 11.3225 3.1094 4.0703
v 11.3225 5.8906 4.0703
v 13.4624 5.8906 2.5156
v 11.3225 3.1094 4.0703
v 8.6775 3.1094 4.0703
v 8.6775 5.8906 4.0703
v 11.3225 5.8906 4.0703
v 8.6775 3.1094 4.0703
v 6.5376 3.1094 2.5156
v 6.5376 5.8906 2.5156
v 8.6775 5.8906 4.0703
v 6.5376 3.1094 2.5156
v 5.7202 3.1094 0.0000
v 5.7202 5.8906 0.0000
v 6.5376 5.8906 2.5156
v 5.7202 3.1094 0.0000
v 6.5376 3.1094 -2.5156
v 6.5376 5.8906 -2.5156
v 5.7202 5.8906 0.0000
v 6.5376 3.1094 -2.5156
v 8.6775 3.1094 -4.0703
v 8.6775 5.8906 -4.0703
v 6.5376 5.8906 -2.5156
v 8.6775 3.1094 -4.0703
v 11.3225 3.1094 -4.0703
v 11.3225 5.8906 -4.0703
v 8.6775 5.8906 -4.0703
v 11.3225 3.1094 -4.0703
v 13.4624 3.1094 -2.5156
v 13.4624 5.8906 -2.5156
v 11.3225 5.8906 -4.0703
v 13.4624 3.1094 -2.5156
v 14.2798 3.1094 -0.0000
v 14.2798 5.8906 -0.0000
v 13.4624 5.8906 -2.5156
v 14.2798 5.8906 0.0000
v 13.4624 5.8906 2.5156
v 12.1399 8.1406 1.5547
v 12.6450 8.1406 0.0000
v 13.4624 5.8906 2.5156
v 11.3225 5.8906 4.0703
v 10.8174 8.1406 2.5156
v 12.1399 8.1406 1.5547
v 11.3225 5.8906 4.0703
v 8.6775 5.8906 4.0703
v 9.1826 8.1406 2.5156
v 10.8174 8.1406 2.5156
v 8.6775 5.8906 4.0703
v 6.5376 5.8906 2.5156
v 7.8601 8.1406 1.5547
v 9.1826 8.1406 2.5156
v 6.5376 5.8906 2.5156
v 5.7202 5.8906 0.0000
v 7.3550 8.1406 0.0000
v 7.8601 8.1406 1.5547
v 5.7202 5.8906 0.0000
v 6.5376 5.8906 -2.5156
v 7.8601 8.1406 -1.5547
v 7.3550 8.1406 0.0000
v 6.5376 5.8906 -2.5156
v 8.6775 5.8906 -4.0703
v 9.1826 8.1406 -2.5156
v 7.8601 8.1406 -1.5547
v 8.6775 5.8906 -4.0703
v 11.3225 5.8906 -4.0703
v 10.8174 8.1406 -2.5156
v 9.1826 8.1406 -2.5156
v 11.3225 5.8906 -4.0703
v 13.4624 5.8906 -2.5156
v 12.1399 8.1406 -1.5547
v 10.8174 8.1406 -2.5156
v 13.4624 5.8906 -2.5156
v 14.2798 5.8906 -0.0000
v 12.6450 8.1406 -0.0000
v 12.1399 8.1406 -1.5547
v 12.6450 8.1406 0.0000
v 12.1399 8.1406 1.5547
v 10.0000 9.0000 0.0000
v 10.0000 9.0000 0.0000
v 12.1399 8.1406 1.5547
v 10.8174 8.1406 2.5156
v 10.0000 9.0000 0.0000
v 10.0000 9.0000 0.0000
v 10.8174 8.1406 2.5156
v 9.1826 8.1406 2.5156
v 10.0000 9.0000 0.0000
v 10.0000 9.0000 0.0000
v 9.1826 8.1406 2.5156
v 7.8601 8.1406 1.5547
v 10.0000 9.0000 0.0000
v 10.0000 9.0000 0.0000
v 7.8601 8.1406 1.5547
v 7.3550 8.1406 0.0000
v 10.0000 9.0000 0.0000
v 10.0000 9.0000 0.0000
v 7.3550 8.1406 0.0000
v 7.8601 8.1406 -1.5547
v 10.0000 9.0000 -0.0000
v 10.0000 9.0000 0.0000
v 7.8601 8.1406 -1.5547
v 9.1826 8.1406 -2.5156
v 10.0000 9.0000 -0.0000
v 10.0000 9.0000 -0.0000
v 9.1826 8.1406 -2.5156
v 10.8174 8.1406 -2.5156
v 10.0000 9.0000 -0.0000
v 10.0000 9.0000 -0.0000
v 10.8174 8.1406 -2.5156
v 12.1399 8.1406 -1.5547
v 10.0000 9.0000 -0.0000
v 10.0000 9.0000 -0.0000
v 12.1399 8.1406 -1.5547
v 12.6450 8.1406 -0.0000
v 10.0000 9.0000 -0.0000
v 10.0000 9.0000 -0.0000
vt 0.250000 0.500000
vt 0.500000 0.500000
vt 0.500000 1.000000
vt 0.250000 1.000000
vt 0.250000 0.500000
vt 0.500000 0.500000
vt 0.500000 1.000000
vt 0.250000 1.000000
vt 0.250000 0.500000
vt 0.500000 0.500000
vt 0.500000 1.000000
vt 0.250000 1.000000
vt 0.250000 0.500000
vt 0.500000 0.500000
vt 0.500000 1.000000
vt 0.250000 1.000000
vt 0.250000 0.500000
vt 0.500000 0.500000
vt 0.500000 1.000000
vt 0.250000 1.000000
vt 0.250000 0.500000
vt 0.500000 0.500000
vt 0.500000 1.000000
vt 0.250000 1.000000
vt 0.000000 0.500000
vt 0.250000 0.500000
vt 0.250000 1.000000
vt 0.000000 1.000000
vt 0.000000 0.500000
vt 0.250000 0.500000
vt 0.250000 1.000000
vt 0.000000 1.000000
vt 0.000000 0.500000
vt 0.250000 0.500000
vt 0.250000 1.000000
vt 0.000000 1.000000
vt 0.000000 0.500000
vt 0.250000 0.500000
vt 0.250000 1.000000
vt 0.000000 1.000000
vt 0.000000 0.500000
vt 0.250000 0.500000
vt 0.250000 1.000000
vt 0.000000 1.000000
vt 0.000000 0.500000
vt 0.250000 0.500000
vt 0.250000 1.000000
vt 0.000000 1.000000
vt 0.000000 0.500000
vt 0.250000 0.500000
vt 0.250000 1.000000
vt 0.000000 1.000000
vt 0.000000 0.500000
vt 0.250000 0.500000
vt 0.250000 1.000000
vt 0.000000 1.000000
vt 0.000000 0.500000
vt 0.250000 0.500000
vt 0.250000 1.000000
vt 0.000000 1.000000
vt 0.000000 0.500000
vt 0.250000 0.500000
vt 0.250000 1.000000
vt 0.000000 1.000000
vt 0.000000 0.500000
vt 0.250000 0.500000
vt 0.250000 1.000000
vt 0.000000 1.000000
vt 0.000000 0.500000
vt 0.250000 0.500000
vt 0.250000 1.000000
vt 0.000000 1.000000
vt 0.000000 0.500000
vt 0.250000 0.500000
vt 0.250000 1.000000
vt 0.000000 1.000000
vt 0.000000 0.500000
vt 0.250000 0.500000
vt 0.250000 1.000000
vt 0.000000 1.000000
vt 0.000000 0.500000
vt 0.250000 0.500000
vt 0.250000 1.000000
vt 0.000000 1.000000
vt 0.000000 0.500000
vt 0.250000 0.500000
vt 0.250000 1.000000
vt 0.000000 1.000000
vt 0.000000 0.500000
vt 0.250000 0.500000
vt 0.250000 1.000000
vt 0.000000 1.000000
vt 0.000000 0.500000
vt 0.250000 0.500000
vt 0.250000 1.000000
vt 0.000000 1.000000
vt 0.000000 0.500000
vt 0.250000 0.500000
vt 0.250000 1.000000
vt 0.000000 1.000000
vt 0.000000 0.500000
vt 0.250000 0.500000
vt 0.250000 1.000000
vt 0.000000 1.000000
vt 0.000000 0.500000
vt 0.250000 0.500000
vt 0.250000 1.000000
vt 0.000000 1.000000
vt 0.000000 0.500000
vt 0.250000 0.500000
vt 0.250000 1.000000
vt 0.000000 1.000000
vt 0.000000 0.500000
vt 0.250000 0.500000
vt 0.250000 1.000000
vt 0.000000 1.000000
vt 0.000000 0.500000
vt 0.250000 0.500000
vt 0.250000 1.000000
vt 0.000000 1.000000
vt 0.000000 0.500000
vt 0.250000 0.500000
vt 0.250000 1.000000
vt 0.000000 1.000000
vt 0.000000 0.500000
vt 0.250000 0.500000
vt 0.250000 1.000000
vt 0.000000 1.000000
vt 0.000000 0.500000
vt 0.250000 0.500000
vt 0.250000 1.000000
vt 0.000000 1.000000
vt 0.000000 0.500000
vt 0.250000 0.500000
vt 0.250000 1.000000
vt 0.000000 1.000000
vt 0.000000 0.500000
vt 0.250000 0.500000
vt 0.250000 1.000000
vt 0.000000 1.000000
vt 0.000000 0.500000
vt 0.250000 0.500000
vt 0.250000 1.000000
vt 0.000000 1.000000
vt 0.000000 0.500000
vt 0.250000 0.500000
vt 0.250000 1.000000
vt 0.000000 1.000000
vt 0.000000 0.500000
vt 0.250000 0.500000
vt 0.250000 1.000000
vt 0.000000 1.000000
vt 0.000000 0.500000
vt 0.250000 0.500000
vt 0.250000 1.000000
vt 0.000000 1.000000
vt 0.000000 0.500000
vt 0.250000 0.500000
vt 0.250000 1.000000
vt 0.000000 1.000000
vt 0.000000 0.500000
vt 0.250000 0.500000
vt 0.250000 1.000000
vt 0.000000 1.000000
vt 0.000000 0.500000
vt 0.250000 0.500000
vt 0.250000 1.000000
vt 0.000000 1.000000
vt 0.000000 0.500000
vt 0.250000 0.500000
vt 0.250000 1.000000
vt 0.000000 1.000000
vt 0.000000 0.500000
vt 0.250000 0.500000
vt 0.250000 1.000000
vt 0.000000 1.000000
vt 0.000000 0.500000
vt 0.250000 0.500000
vt 0.250000 1.000000
vt 0.000000 1.000000
vt 0.000000 0.500000
vt 0.250000 0.500000
vt 0.250000 1.000000
vt 0.000000 1.000000
vt 0.000000 0.500000
vt 0.250000 0.500000
vt 0.250000 1.000000
vt 0.000000 1.000000
vt 0.000000 0.500000
vt 0.250000 0.500000
vt 0.250000 1.000000
vt 0.000000 1.000000
vt 0.000000 0.500000
vt 0.250000 0.500000
vt 0.250000 1.000000
vt 0.000000 1.000000
vt 0.000000 0.500000
vt 0.250000 0.500000
vt 0.250000 1.000000
vt 0.000000 1.000000
vt 0.000000 0.500000
vt 0.250000 0.500000
vt 0.250000 1.000000
vt 0.000000 1.000000
vt 0.000000 0.500000
vt 0.250000 0.500000
vt 0.250000 1.000000
vt 0.000000 1.000000
vt 0.000000 0.500000
vt 0.250000 0.500000
vt 0.250000 1.000000
vt 0.000000 1.000000
vt 0.000000 0.500000
vt 0.250000 0.500000
vt 0.250000 1.000000
vt 0.000000 1.000000
vt 0.000000 0.500000
vt 0.250000 0.500000
vt 0.250000 1.000000
vt 0.000000 1.000000
vt 0.000000 0.500000
vt 0.250000 0.500000
vt 0.250000 1.000000
vt 0.000000 1.000000
vt 0.000000 0.500000
vt 0.250000 0.500000
vt 0.250000 1.000000
vt 0.000000 1.000000
vt 0.000000 0.500000
vt 0.250000 0.500000
vt 0.250000 1.000000
vt 0.000000 1.000000
vt 0.000000 0.500000
vt 0.250000 0.500000
vt 0.250000 1.000000
vt 0.000000 1.000000
vt 0.000000 0.500000
vt 0.250000 0.500000
vt 0.250000 1.000000
vt 0.000000 1.000000
vt 0.000000 0.500000
vt 0.250000 0.500000
vt 0.250000 1.000000
vt 0.000000 1.000000
vt 0.000000 0.500000
vt 0.250000 0.500000
vt 0.250000 1.000000
vt 0.000000 1.000000
f 1/1 2/2 3/3 4/4
f 5/5 6/6 7/7 8/8
f 9/9 10/10 11/11 12/12
f 13/13 14/14 15/15 16/16
f 17/17 18/18 19/19 20/20
f 21/21 22/22 23/23 24/24
f 25/25 26/26 27/27 28/28
f 29/29 30/30 31/31 32/32
f 33/33 34/34 35/35 36/36
f 37/37 38/38 39/39 40/40
f 41/41 42/42 43/43 44/44
f 45/45 46/46 47/47 48/48
f 49/49 50/50 51/51 52/52
f 53/53 54/54 55/55 56/56
f 57/57 58/58 59/59 60/60
f 61/61 62/62 63/63 64/64
f 65/65 66/66 67/67 68/68
f 69/69 70/70 71/71 72/72
f 73/73 74/74 75/75 76/76
f 77/77 78/78 79/79 80/80
f 81/81 82/82 83/83 84/84
f 85/85 86/86 87/87 88/88
f 89/89 90/90 91/91 92/92
f 93/93 94/94 95/95 96/96
f 97/97 98/98 99/99 100/100
f 101/101 102/102 103/103 104/104
f 105/105 106/106 107/107 108/108
f 109/109 110/110 111/111 112/112
f 113/113 114/114 115/115 116/116
f 117/117 118/118 119/119 120/120
f 121/121 122/122 123/123 124/124
f 125/125 126/126 127/127 128/128
f 129/129 130/130 131/131 132/132
f 133/133 134/134 135/135 136/136
f 137/137 138/138 139/139 140/140
f 141/141 142/142 143/143 144/144
f 145/145 146/146 147/147 148/148
f 149/149 150/150 151/151 152/152
f 153/153 154/154 155/155 156/156
f 157/157 158/158 159/159 160/160
f 161/161 162/162 163/163 164/164
f 165/165 166/166 167/167 168/168
f 169/169 170/170 171/171 172/172
f 173/173 174/174 175/175 176/176
f 177/177 178/178 179/179 180/180
f 181/181 182/182 183/183 184/184
f 185/185 186/186 187/187 188/188
f 189/189 190/190 191/191 192/192
f 193/193 194/194 195/195 196/196
f 197/197 198/198 199/199 200/200
f 201/201 202/202 203/203 204/204
f 205/205 206/206 207/207 208/208
f 209/209 210/210 211/211 212/212
f 213/213 214/214 215/215 216/216
f 217/217 218/218 219/219 220/220
f 221/221 222/222 223/223 224/224
f 225/225 226/226 227/227 228/228
f 229/229 230/230 231/231 232/232
f 233/233 234/234 235/235 236/236
f 237/237 238/238 239/239 240/240
f 241/241 242/242 243/243 244/244
f 245/245 246/246 247/247 248/248
