# Original Project Broom pickup; OBJ Y up; CC-BY-SA-4.0
o Dart_shaft
v -12.000000 2.304451 0.400000
v -12.000000 2.247860 0.611200
v -12.000000 2.093251 0.765809
v -12.000000 1.882051 0.822400
v -12.000000 1.670851 0.765809
v -12.000000 1.516242 0.611200
v -12.000000 1.459651 0.400000
v -12.000000 1.516242 0.188800
v -12.000000 1.670851 0.034191
v -12.000000 1.882051 -0.022400
v -12.000000 2.093251 0.034191
v -12.000000 2.247860 0.188800
v -12.000000 2.304451 0.400000
v -11.500000 2.362051 0.400000
v -11.500000 2.297743 0.640000
v -11.500000 2.122051 0.815692
v -11.500000 1.882051 0.880000
v -11.500000 1.642051 0.815692
v -11.500000 1.466359 0.640000
v -11.500000 1.402051 0.400000
v -11.500000 1.466359 0.160000
v -11.500000 1.642051 -0.015692
v -11.500000 1.882051 -0.080000
v -11.500000 2.122051 -0.015692
v -11.500000 2.297743 0.160000
v -11.500000 2.362051 0.400000
v 6.500000 2.362051 0.400000
v 6.500000 2.297743 0.640000
v 6.500000 2.122051 0.815692
v 6.500000 1.882051 0.880000
v 6.500000 1.642051 0.815692
v 6.500000 1.466359 0.640000
v 6.500000 1.402051 0.400000
v 6.500000 1.466359 0.160000
v 6.500000 1.642051 -0.015692
v 6.500000 1.882051 -0.080000
v 6.500000 2.122051 -0.015692
v 6.500000 2.297743 0.160000
v 6.500000 2.362051 0.400000
v 7.000000 2.304451 0.400000
v 7.000000 2.247860 0.611200
v 7.000000 2.093251 0.765809
v 7.000000 1.882051 0.822400
v 7.000000 1.670851 0.765809
v 7.000000 1.516242 0.611200
v 7.000000 1.459651 0.400000
v 7.000000 1.516242 0.188800
v 7.000000 1.670851 0.034191
v 7.000000 1.882051 -0.022400
v 7.000000 2.093251 0.034191
v 7.000000 2.247860 0.188800
v 7.000000 2.304451 0.400000
v -12.000000 1.882051 0.400000
v 7.000000 1.882051 0.400000
vt 0.7587500 0.9912500
vt 0.7781250 0.9912500
vt 0.7975000 0.9912500
vt 0.8168750 0.9912500
vt 0.8362500 0.9912500
vt 0.8556250 0.9912500
vt 0.8750000 0.9912500
vt 0.8943750 0.9912500
vt 0.9137500 0.9912500
vt 0.9331250 0.9912500
vt 0.9525000 0.9912500
vt 0.9718750 0.9912500
vt 0.9912500 0.9912500
vt 0.7587500 0.9137500
vt 0.7781250 0.9137500
vt 0.7975000 0.9137500
vt 0.8168750 0.9137500
vt 0.8362500 0.9137500
vt 0.8556250 0.9137500
vt 0.8750000 0.9137500
vt 0.8943750 0.9137500
vt 0.9137500 0.9137500
vt 0.9331250 0.9137500
vt 0.9525000 0.9137500
vt 0.9718750 0.9137500
vt 0.9912500 0.9137500
vt 0.7587500 0.8362500
vt 0.7781250 0.8362500
vt 0.7975000 0.8362500
vt 0.8168750 0.8362500
vt 0.8362500 0.8362500
vt 0.8556250 0.8362500
vt 0.8750000 0.8362500
vt 0.8943750 0.8362500
vt 0.9137500 0.8362500
vt 0.9331250 0.8362500
vt 0.9525000 0.8362500
vt 0.9718750 0.8362500
vt 0.9912500 0.8362500
vt 0.7587500 0.7587500
vt 0.7781250 0.7587500
vt 0.7975000 0.7587500
vt 0.8168750 0.7587500
vt 0.8362500 0.7587500
vt 0.8556250 0.7587500
vt 0.8750000 0.7587500
vt 0.8943750 0.7587500
vt 0.9137500 0.7587500
vt 0.9331250 0.7587500
vt 0.9525000 0.7587500
vt 0.9718750 0.7587500
vt 0.9912500 0.7587500
vt 0.8750000 0.8750000
vt 0.8750000 0.8750000
vn -0.5454909 0.8341948 0.0809862
vn -0.5454909 0.6819408 0.4872335
vn -0.5454909 0.3469613 0.7629270
vn -0.5454909 -0.0809862 0.8341948
vn -0.5454909 -0.4872335 0.6819408
vn -0.5454909 -0.7629270 0.3469613
vn -0.5454909 -0.8341948 -0.0809862
vn -0.5454909 -0.6819408 -0.4872335
vn -0.5454909 -0.3469613 -0.7629270
vn -0.5454909 0.0809862 -0.8341948
vn -0.5454909 0.4872335 -0.6819408
vn -0.5454909 0.7629270 -0.3469613
vn -0.5454909 0.8341948 0.0809862
vn -0.0029815 0.9964135 0.0845655
vn -0.0029815 0.8206366 0.5714426
vn -0.0029815 0.4249708 0.9052021
vn -0.0029815 -0.0845655 0.9964135
vn -0.0029815 -0.5714426 0.8206366
vn -0.0029815 -0.9052021 0.4249708
vn -0.0029815 -0.9964135 -0.0845655
vn -0.0029815 -0.8206366 -0.5714426
vn -0.0029815 -0.4249708 -0.9052021
vn -0.0029815 0.0845655 -0.9964135
vn -0.0029815 0.5714426 -0.8206366
vn -0.0029815 0.9052021 -0.4249708
vn -0.0029815 0.9964135 0.0845655
vn 0.0029815 0.9964135 -0.0845655
vn 0.0029815 0.9052021 0.4249708
vn 0.0029815 0.5714426 0.8206366
vn 0.0029815 0.0845655 0.9964135
vn 0.0029815 -0.4249708 0.9052021
vn 0.0029815 -0.8206366 0.5714426
vn 0.0029815 -0.9964135 0.0845655
vn 0.0029815 -0.9052021 -0.4249708
vn 0.0029815 -0.5714426 -0.8206366
vn 0.0029815 -0.0845655 -0.9964135
vn 0.0029815 0.4249708 -0.9052021
vn 0.0029815 0.8206366 -0.5714426
vn 0.0029815 0.9964135 -0.0845655
vn 0.5454909 0.8341948 -0.0809862
vn 0.5454909 0.7629270 0.3469613
vn 0.5454909 0.4872335 0.6819408
vn 0.5454909 0.0809862 0.8341948
vn 0.5454909 -0.3469613 0.7629270
vn 0.5454909 -0.6819408 0.4872335
vn 0.5454909 -0.8341948 0.0809862
vn 0.5454909 -0.7629270 -0.3469613
vn 0.5454909 -0.4872335 -0.6819408
vn 0.5454909 -0.0809862 -0.8341948
vn 0.5454909 0.3469613 -0.7629270
vn 0.5454909 0.6819408 -0.4872335
vn 0.5454909 0.8341948 -0.0809862
vn -1.0000000 0.0000000 -0.0000000
vn 1.0000000 0.0000000 -0.0000000
f 1/1/1 2/2/2 15/15/15
f 1/1/1 15/15/15 14/14/14
f 2/2/2 3/3/3 16/16/16
f 2/2/2 16/16/16 15/15/15
f 3/3/3 4/4/4 17/17/17
f 3/3/3 17/17/17 16/16/16
f 4/4/4 5/5/5 18/18/18
f 4/4/4 18/18/18 17/17/17
f 5/5/5 6/6/6 19/19/19
f 5/5/5 19/19/19 18/18/18
f 6/6/6 7/7/7 20/20/20
f 6/6/6 20/20/20 19/19/19
f 7/7/7 8/8/8 21/21/21
f 7/7/7 21/21/21 20/20/20
f 8/8/8 9/9/9 22/22/22
f 8/8/8 22/22/22 21/21/21
f 9/9/9 10/10/10 23/23/23
f 9/9/9 23/23/23 22/22/22
f 10/10/10 11/11/11 24/24/24
f 10/10/10 24/24/24 23/23/23
f 11/11/11 12/12/12 25/25/25
f 11/11/11 25/25/25 24/24/24
f 12/12/12 13/13/13 26/26/26
f 12/12/12 26/26/26 25/25/25
f 14/14/14 15/15/15 28/28/28
f 14/14/14 28/28/28 27/27/27
f 15/15/15 16/16/16 29/29/29
f 15/15/15 29/29/29 28/28/28
f 16/16/16 17/17/17 30/30/30
f 16/16/16 30/30/30 29/29/29
f 17/17/17 18/18/18 31/31/31
f 17/17/17 31/31/31 30/30/30
f 18/18/18 19/19/19 32/32/32
f 18/18/18 32/32/32 31/31/31
f 19/19/19 20/20/20 33/33/33
f 19/19/19 33/33/33 32/32/32
f 20/20/20 21/21/21 34/34/34
f 20/20/20 34/34/34 33/33/33
f 21/21/21 22/22/22 35/35/35
f 21/21/21 35/35/35 34/34/34
f 22/22/22 23/23/23 36/36/36
f 22/22/22 36/36/36 35/35/35
f 23/23/23 24/24/24 37/37/37
f 23/23/23 37/37/37 36/36/36
f 24/24/24 25/25/25 38/38/38
f 24/24/24 38/38/38 37/37/37
f 25/25/25 26/26/26 39/39/39
f 25/25/25 39/39/39 38/38/38
f 27/27/27 28/28/28 41/41/41
f 27/27/27 41/41/41 40/40/40
f 28/28/28 29/29/29 42/42/42
f 28/28/28 42/42/42 41/41/41
f 29/29/29 30/30/30 43/43/43
f 29/29/29 43/43/43 42/42/42
f 30/30/30 31/31/31 44/44/44
f 30/30/30 44/44/44 43/43/43
f 31/31/31 32/32/32 45/45/45
f 31/31/31 45/45/45 44/44/44
f 32/32/32 33/33/33 46/46/46
f 32/32/32 46/46/46 45/45/45
f 33/33/33 34/34/34 47/47/47
f 33/33/33 47/47/47 46/46/46
f 34/34/34 35/35/35 48/48/48
f 34/34/34 48/48/48 47/47/47
f 35/35/35 36/36/36 49/49/49
f 35/35/35 49/49/49 48/48/48
f 36/36/36 37/37/37 50/50/50
f 36/36/36 50/50/50 49/49/49
f 37/37/37 38/38/38 51/51/51
f 37/37/37 51/51/51 50/50/50
f 38/38/38 39/39/39 52/52/52
f 38/38/38 52/52/52 51/51/51
f 53/53/53 2/2/2 1/1/1
f 53/53/53 3/3/3 2/2/2
f 53/53/53 4/4/4 3/3/3
f 53/53/53 5/5/5 4/4/4
f 53/53/53 6/6/6 5/5/5
f 53/53/53 7/7/7 6/6/6
f 53/53/53 8/8/8 7/7/7
f 53/53/53 9/9/9 8/8/8
f 53/53/53 10/10/10 9/9/9
f 53/53/53 11/11/11 10/10/10
f 53/53/53 12/12/12 11/11/11
f 53/53/53 13/13/13 12/12/12
f 54/54/54 40/40/40 41/41/41
f 54/54/54 41/41/41 42/42/42
f 54/54/54 42/42/42 43/43/43
f 54/54/54 43/43/43 44/44/44
f 54/54/54 44/44/44 45/45/45
f 54/54/54 45/45/45 46/46/46
f 54/54/54 46/46/46 47/47/47
f 54/54/54 47/47/47 48/48/48
f 54/54/54 48/48/48 49/49/49
f 54/54/54 49/49/49 50/50/50
f 54/54/54 50/50/50 51/51/51
f 54/54/54 51/51/51 52/52/52
o Dart_point
v 14.000000 1.607051 0.400000
v 7.000000 1.607051 1.550000
v 7.000000 1.607051 -0.750000
v 7.000000 2.157051 -0.750000
v 7.000000 2.157051 1.550000
v 14.000000 2.157051 0.400000
v 14.000000 2.157051 0.400000
v 7.000000 2.157051 1.550000
v 7.000000 1.607051 1.550000
v 14.000000 1.607051 0.400000
v 7.000000 2.157051 1.550000
v 7.000000 2.157051 -0.750000
v 7.000000 1.607051 -0.750000
v 7.000000 1.607051 1.550000
v 7.000000 2.157051 -0.750000
v 14.000000 2.157051 0.400000
v 14.000000 1.607051 0.400000
v 7.000000 1.607051 -0.750000
vt 0.2587500 0.9912500
vt 0.4912500 0.9912500
vt 0.4912500 0.7587500
vt 0.2587500 0.9912500
vt 0.4912500 0.9912500
vt 0.4912500 0.7587500
vt 0.2587500 0.9912500
vt 0.4912500 0.9912500
vt 0.4912500 0.7587500
vt 0.2587500 0.7587500
vt 0.2587500 0.9912500
vt 0.4912500 0.9912500
vt 0.4912500 0.7587500
vt 0.2587500 0.7587500
vt 0.2587500 0.9912500
vt 0.4912500 0.9912500
vt 0.4912500 0.7587500
vt 0.2587500 0.7587500
vn 0.1138797 -0.9662518 -0.2310602
vn 0.0000000 -0.9021342 0.4314555
vn -0.1138797 -0.9662518 -0.2310602
vn -0.0000000 0.9021342 -0.4314555
vn -0.1138797 0.9662518 0.2310602
vn 0.1138797 0.9662518 0.2310602
vn 0.1138797 0.9662518 0.2310602
vn -0.1138797 0.9662518 0.2310602
vn 0.0000000 -0.9021342 0.4314555
vn 0.1138797 -0.9662518 -0.2310602
vn -0.1138797 0.9662518 0.2310602
vn -0.0000000 0.9021342 -0.4314555
vn -0.1138797 -0.9662518 -0.2310602
vn 0.0000000 -0.9021342 0.4314555
vn -0.0000000 0.9021342 -0.4314555
vn 0.1138797 0.9662518 0.2310602
vn 0.1138797 -0.9662518 -0.2310602
vn -0.1138797 -0.9662518 -0.2310602
f 55/55/55 56/56/56 57/57/57
f 58/58/58 59/59/59 60/60/60
f 61/61/61 62/62/62 63/63/63
f 61/61/61 63/63/63 64/64/64
f 65/65/65 66/66/66 67/67/67
f 65/65/65 67/67/67 68/68/68
f 69/69/69 70/70/70 71/71/71
f 69/69/69 71/71/71 72/72/72
o Flight_vane
v -12.000000 1.822051 0.100000
v -7.000000 1.822051 0.100000
v -11.000000 1.822051 -1.600000
v -14.000000 1.822051 -1.600000
v -14.000000 1.942051 -1.600000
v -11.000000 1.942051 -1.600000
v -7.000000 1.942051 0.100000
v -12.000000 1.942051 0.100000
v -12.000000 1.942051 0.100000
v -7.000000 1.942051 0.100000
v -7.000000 1.822051 0.100000
v -12.000000 1.822051 0.100000
v -7.000000 1.942051 0.100000
v -11.000000 1.942051 -1.600000
v -11.000000 1.822051 -1.600000
v -7.000000 1.822051 0.100000
v -11.000000 1.942051 -1.600000
v -14.000000 1.942051 -1.600000
v -14.000000 1.822051 -1.600000
v -11.000000 1.822051 -1.600000
v -14.000000 1.942051 -1.600000
v -12.000000 1.942051 0.100000
v -12.000000 1.822051 0.100000
v -14.000000 1.822051 -1.600000
vt 0.7587500 0.7412500
vt 0.9912500 0.7412500
vt 0.9912500 0.5087500
vt 0.7587500 0.5087500
vt 0.7587500 0.7412500
vt 0.9912500 0.7412500
vt 0.9912500 0.5087500
vt 0.7587500 0.5087500
vt 0.7587500 0.7412500
vt 0.9912500 0.7412500
vt 0.9912500 0.5087500
vt 0.7587500 0.5087500
vt 0.7587500 0.7412500
vt 0.9912500 0.7412500
vt 0.9912500 0.5087500
vt 0.7587500 0.5087500
vt 0.7587500 0.7412500
vt 0.9912500 0.7412500
vt 0.9912500 0.5087500
vt 0.7587500 0.5087500
vt 0.7587500 0.7412500
vt 0.9912500 0.7412500
vt 0.9912500 0.5087500
vt 0.7587500 0.5087500
vn 0.0298925 0.9964162 -0.0791272
vn -0.0239075 0.9961468 -0.0843795
vn -0.0298464 0.9948794 0.0965618
vn 0.0397925 0.9948116 0.0936293
vn 0.0299853 -0.9995114 -0.0088192
vn -0.0389072 -0.9726801 0.2288659
vn -0.0299760 -0.9992006 0.0264494
vn 0.0236562 -0.9856756 -0.1669850
vn 0.0236562 -0.9856756 -0.1669850
vn -0.0299760 -0.9992006 0.0264494
vn -0.0239075 0.9961468 -0.0843795
vn 0.0298925 0.9964162 -0.0791272
vn -0.0299760 -0.9992006 0.0264494
vn -0.0389072 -0.9726801 0.2288659
vn -0.0298464 0.9948794 0.0965618
vn -0.0239075 0.9961468 -0.0843795
vn -0.0389072 -0.9726801 0.2288659
vn 0.0299853 -0.9995114 -0.0088192
vn 0.0397925 0.9948116 0.0936293
vn -0.0298464 0.9948794 0.0965618
vn 0.0299853 -0.9995114 -0.0088192
vn 0.0236562 -0.9856756 -0.1669850
vn 0.0298925 0.9964162 -0.0791272
vn 0.0397925 0.9948116 0.0936293
f 73/73/73 74/74/74 75/75/75
f 73/73/73 75/75/75 76/76/76
f 77/77/77 78/78/78 79/79/79
f 77/77/77 79/79/79 80/80/80
f 81/81/81 82/82/82 83/83/83
f 81/81/81 83/83/83 84/84/84
f 85/85/85 86/86/86 87/87/87
f 85/85/85 87/87/87 88/88/88
f 89/89/89 90/90/90 91/91/91
f 89/89/89 91/91/91 92/92/92
f 93/93/93 94/94/94 95/95/95
f 93/93/93 95/95/95 96/96/96
o Flight_vane
v -12.000000 2.171858 0.498038
v -7.000000 2.171858 0.498038
v -11.000000 3.644102 1.348038
v -14.000000 3.644102 1.348038
v -14.000000 3.584102 1.451962
v -11.000000 3.584102 1.451962
v -7.000000 2.111858 0.601962
v -12.000000 2.111858 0.601962
v -12.000000 2.111858 0.601962
v -7.000000 2.111858 0.601962
v -7.000000 2.171858 0.498038
v -12.000000 2.171858 0.498038
v -7.000000 2.111858 0.601962
v -11.000000 3.584102 1.451962
v -11.000000 3.644102 1.348038
v -7.000000 2.171858 0.498038
v -11.000000 3.584102 1.451962
v -14.000000 3.584102 1.451962
v -14.000000 3.644102 1.348038
v -11.000000 3.644102 1.348038
v -14.000000 3.584102 1.451962
v -12.000000 2.111858 0.601962
v -12.000000 2.171858 0.498038
v -14.000000 3.644102 1.348038
vt 0.7587500 0.7412500
vt 0.9912500 0.7412500
vt 0.9912500 0.5087500
vt 0.7587500 0.5087500
vt 0.7587500 0.7412500
vt 0.9912500 0.7412500
vt 0.9912500 0.5087500
vt 0.7587500 0.5087500
vt 0.7587500 0.7412500
vt 0.9912500 0.7412500
vt 0.9912500 0.5087500
vt 0.7587500 0.5087500
vt 0.7587500 0.7412500
vt 0.9912500 0.7412500
vt 0.9912500 0.5087500
vt 0.7587500 0.5087500
vt 0.7587500 0.7412500
vt 0.9912500 0.7412500
vt 0.9912500 0.5087500
vt 0.7587500 0.5087500
vt 0.7587500 0.7412500
vt 0.9912500 0.7412500
vt 0.9912500 0.5087500
vt 0.7587500 0.5087500
vn 0.0298925 -0.4296820 0.9024854
vn -0.0239075 -0.4249986 0.9048782
vn -0.0298464 -0.5810647 0.8133099
vn 0.0397925 -0.5784912 0.8147174
vn 0.0299853 0.5073934 -0.8611927
vn -0.0389072 0.2881364 -0.9567987
vn -0.0299760 0.4766944 -0.8785578
vn 0.0236562 0.6374511 -0.7701276
vn 0.0236562 0.6374511 -0.7701276
vn -0.0299760 0.4766944 -0.8785578
vn -0.0239075 -0.4249986 0.9048782
vn 0.0298925 -0.4296820 0.9024854
vn -0.0299760 0.4766944 -0.8785578
vn -0.0389072 0.2881364 -0.9567987
vn -0.0298464 -0.5810647 0.8133099
vn -0.0239075 -0.4249986 0.9048782
vn -0.0389072 0.2881364 -0.9567987
vn 0.0299853 0.5073934 -0.8611927
vn 0.0397925 -0.5784912 0.8147174
vn -0.0298464 -0.5810647 0.8133099
vn 0.0299853 0.5073934 -0.8611927
vn 0.0236562 0.6374511 -0.7701276
vn 0.0298925 -0.4296820 0.9024854
vn 0.0397925 -0.5784912 0.8147174
f 97/97/97 98/98/98 99/99/99
f 97/97/97 99/99/99 100/100/100
f 101/101/101 102/102/102 103/103/103
f 101/101/101 103/103/103 104/104/104
f 105/105/105 106/106/106 107/107/107
f 105/105/105 107/107/107 108/108/108
f 109/109/109 110/110/110 111/111/111
f 109/109/109 111/111/111 112/112/112
f 113/113/113 114/114/114 115/115/115
f 113/113/113 115/115/115 116/116/116
f 117/117/117 118/118/118 119/119/119
f 117/117/117 119/119/119 120/120/120
o Flight_vane
v -12.000000 1.652243 0.601962
v -7.000000 1.652243 0.601962
v -11.000000 0.180000 1.451962
v -14.000000 0.180000 1.451962
v -14.000000 0.120000 1.348038
v -11.000000 0.120000 1.348038
v -7.000000 1.592243 0.498038
v -12.000000 1.592243 0.498038
v -12.000000 1.592243 0.498038
v -7.000000 1.592243 0.498038
v -7.000000 1.652243 0.601962
v -12.000000 1.652243 0.601962
v -7.000000 1.592243 0.498038
v -11.000000 0.120000 1.348038
v -11.000000 0.180000 1.451962
v -7.000000 1.652243 0.601962
v -11.000000 0.120000 1.348038
v -14.000000 0.120000 1.348038
v -14.000000 0.180000 1.451962
v -11.000000 0.180000 1.451962
v -14.000000 0.120000 1.348038
v -12.000000 1.592243 0.498038
v -12.000000 1.652243 0.601962
v -14.000000 0.180000 1.451962
vt 0.7587500 0.7412500
vt 0.9912500 0.7412500
vt 0.9912500 0.5087500
vt 0.7587500 0.5087500
vt 0.7587500 0.7412500
vt 0.9912500 0.7412500
vt 0.9912500 0.5087500
vt 0.7587500 0.5087500
vt 0.7587500 0.7412500
vt 0.9912500 0.7412500
vt 0.9912500 0.5087500
vt 0.7587500 0.5087500
vt 0.7587500 0.7412500
vt 0.9912500 0.7412500
vt 0.9912500 0.5087500
vt 0.7587500 0.5087500
vt 0.7587500 0.7412500
vt 0.9912500 0.7412500
vt 0.9912500 0.5087500
vt 0.7587500 0.5087500
vt 0.7587500 0.7412500
vt 0.9912500 0.7412500
vt 0.9912500 0.5087500
vt 0.7587500 0.5087500
vn 0.0298925 -0.5667343 -0.8233582
vn -0.0239075 -0.5711482 -0.8204987
vn -0.0298464 -0.4138147 -0.9098717
vn 0.0397925 -0.4163204 -0.9083468
vn 0.0299853 0.4921180 0.8700119
vn -0.0389072 0.6845438 0.7279327
vn -0.0299760 0.5225062 0.8521084
vn 0.0236562 0.3482245 0.9371126
vn 0.0236562 0.3482245 0.9371126
vn -0.0299760 0.5225062 0.8521084
vn -0.0239075 -0.5711482 -0.8204987
vn 0.0298925 -0.5667343 -0.8233582
vn -0.0299760 0.5225062 0.8521084
vn -0.0389072 0.6845438 0.7279327
vn -0.0298464 -0.4138147 -0.9098717
vn -0.0239075 -0.5711482 -0.8204987
vn -0.0389072 0.6845438 0.7279327
vn 0.0299853 0.4921180 0.8700119
vn 0.0397925 -0.4163204 -0.9083468
vn -0.0298464 -0.4138147 -0.9098717
vn 0.0299853 0.4921180 0.8700119
vn 0.0236562 0.3482245 0.9371126
vn 0.0298925 -0.5667343 -0.8233582
vn 0.0397925 -0.4163204 -0.9083468
f 121/121/121 122/122/122 123/123/123
f 121/121/121 123/123/123 124/124/124
f 125/125/125 126/126/126 127/127/127
f 125/125/125 127/127/127 128/128/128
f 129/129/129 130/130/130 131/131/131
f 129/129/129 131/131/131 132/132/132
f 133/133/133 134/134/134 135/135/135
f 133/133/133 135/135/135 136/136/136
f 137/137/137 138/138/138 139/139/139
f 137/137/137 139/139/139 140/140/140
f 141/141/141 142/142/142 143/143/143
f 141/141/141 143/143/143 144/144/144
o Incendiary_cloth_wrap
v 2.000000 2.938051 0.400000
v 2.000000 2.796574 0.928000
v 2.000000 2.410051 1.314523
v 2.000000 1.882051 1.456000
v 2.000000 1.354051 1.314523
v 2.000000 0.967528 0.928000
v 2.000000 0.826051 0.400000
v 2.000000 0.967528 -0.128000
v 2.000000 1.354051 -0.514523
v 2.000000 1.882051 -0.656000
v 2.000000 2.410051 -0.514523
v 2.000000 2.796574 -0.128000
v 2.000000 2.938051 0.400000
v 2.500000 3.082051 0.400000
v 2.500000 2.921281 1.000000
v 2.500000 2.482051 1.439230
v 2.500000 1.882051 1.600000
v 2.500000 1.282051 1.439230
v 2.500000 0.842820 1.000000
v 2.500000 0.682051 0.400000
v 2.500000 0.842820 -0.200000
v 2.500000 1.282051 -0.639230
v 2.500000 1.882051 -0.800000
v 2.500000 2.482051 -0.639230
v 2.500000 2.921281 -0.200000
v 2.500000 3.082051 0.400000
v 6.500000 3.082051 0.400000
v 6.500000 2.921281 1.000000
v 6.500000 2.482051 1.439230
v 6.500000 1.882051 1.600000
v 6.500000 1.282051 1.439230
v 6.500000 0.842820 1.000000
v 6.500000 0.682051 0.400000
v 6.500000 0.842820 -0.200000
v 6.500000 1.282051 -0.639230
v 6.500000 1.882051 -0.800000
v 6.500000 2.482051 -0.639230
v 6.500000 2.921281 -0.200000
v 6.500000 3.082051 0.400000
v 7.000000 2.938051 0.400000
v 7.000000 2.796574 0.928000
v 7.000000 2.410051 1.314523
v 7.000000 1.882051 1.456000
v 7.000000 1.354051 1.314523
v 7.000000 0.967528 0.928000
v 7.000000 0.826051 0.400000
v 7.000000 0.967528 -0.128000
v 7.000000 1.354051 -0.514523
v 7.000000 1.882051 -0.656000
v 7.000000 2.410051 -0.514523
v 7.000000 2.796574 -0.128000
v 7.000000 2.938051 0.400000
v 2.000000 1.882051 0.400000
v 7.000000 1.882051 0.400000
vt 0.0087500 0.7412500
vt 0.0281250 0.7412500
vt 0.0475000 0.7412500
vt 0.0668750 0.7412500
vt 0.0862500 0.7412500
vt 0.1056250 0.7412500
vt 0.1250000 0.7412500
vt 0.1443750 0.7412500
vt 0.1637500 0.7412500
vt 0.1831250 0.7412500
vt 0.2025000 0.7412500
vt 0.2218750 0.7412500
vt 0.2412500 0.7412500
vt 0.0087500 0.6637500
vt 0.0281250 0.6637500
vt 0.0475000 0.6637500
vt 0.0668750 0.6637500
vt 0.0862500 0.6637500
vt 0.1056250 0.6637500
vt 0.1250000 0.6637500
vt 0.1443750 0.6637500
vt 0.1637500 0.6637500
vt 0.1831250 0.6637500
vt 0.2025000 0.6637500
vt 0.2218750 0.6637500
vt 0.2412500 0.6637500
vt 0.0087500 0.5862500
vt 0.0281250 0.5862500
vt 0.0475000 0.5862500
vt 0.0668750 0.5862500
vt 0.0862500 0.5862500
vt 0.1056250 0.5862500
vt 0.1250000 0.5862500
vt 0.1443750 0.5862500
vt 0.1637500 0.5862500
vt 0.1831250 0.5862500
vt 0.2025000 0.5862500
vt 0.2218750 0.5862500
vt 0.2412500 0.5862500
vt 0.0087500 0.5087500
vt 0.0281250 0.5087500
vt 0.0475000 0.5087500
vt 0.0668750 0.5087500
vt 0.0862500 0.5087500
vt 0.1056250 0.5087500
vt 0.1250000 0.5087500
vt 0.1443750 0.5087500
vt 0.1637500 0.5087500
vt 0.1831250 0.5087500
vt 0.2025000 0.5087500
vt 0.2218750 0.5087500
vt 0.2412500 0.5087500
vt 0.1250000 0.6250000
vt 0.1250000 0.6250000
vn -0.8519649 0.5211487 0.0505947
vn -0.8519649 0.4260307 0.3043907
vn -0.8519649 0.2167581 0.4766254
vn -0.8519649 -0.0505947 0.5211487
vn -0.8519649 -0.3043907 0.4260307
vn -0.8519649 -0.4766254 0.2167581
vn -0.8519649 -0.5211487 -0.0505947
vn -0.8519649 -0.4260307 -0.3043907
vn -0.8519649 -0.2167581 -0.4766254
vn -0.8519649 0.0505947 -0.5211487
vn -0.8519649 0.3043907 -0.4260307
vn -0.8519649 0.4766254 -0.2167581
vn -0.8519649 0.5211487 0.0505947
vn -0.0307651 0.9970186 0.0707630
vn -0.0307651 0.8280619 0.5597919
vn -0.0307651 0.4372267 0.8988250
vn -0.0307651 -0.0707630 0.9970186
vn -0.0307651 -0.5597919 0.8280619
vn -0.0307651 -0.8988250 0.4372267
vn -0.0307651 -0.9970186 -0.0707630
vn -0.0307651 -0.8280619 -0.5597919
vn -0.0307651 -0.4372267 -0.8988250
vn -0.0307651 0.0707630 -0.9970186
vn -0.0307651 0.5597919 -0.8280619
vn -0.0307651 0.8988250 -0.4372267
vn -0.0307651 0.9970186 0.0707630
vn 0.0307651 0.9970186 -0.0707630
vn 0.0307651 0.8988250 0.4372267
vn 0.0307651 0.5597919 0.8280619
vn 0.0307651 0.0707630 0.9970186
vn 0.0307651 -0.4372267 0.8988250
vn 0.0307651 -0.8280619 0.5597919
vn 0.0307651 -0.9970186 0.0707630
vn 0.0307651 -0.8988250 -0.4372267
vn 0.0307651 -0.5597919 -0.8280619
vn 0.0307651 -0.0707630 -0.9970186
vn 0.0307651 0.4372267 -0.8988250
vn 0.0307651 0.8280619 -0.5597919
vn 0.0307651 0.9970186 -0.0707630
vn 0.8519649 0.5211487 -0.0505947
vn 0.8519649 0.4766254 0.2167581
vn 0.8519649 0.3043907 0.4260307
vn 0.8519649 0.0505947 0.5211487
vn 0.8519649 -0.2167581 0.4766254
vn 0.8519649 -0.4260307 0.3043907
vn 0.8519649 -0.5211487 0.0505947
vn 0.8519649 -0.4766254 -0.2167581
vn 0.8519649 -0.3043907 -0.4260307
vn 0.8519649 -0.0505947 -0.5211487
vn 0.8519649 0.2167581 -0.4766254
vn 0.8519649 0.4260307 -0.3043907
vn 0.8519649 0.5211487 -0.0505947
vn -1.0000000 0.0000000 -0.0000000
vn 1.0000000 0.0000000 -0.0000000
f 145/145/145 146/146/146 159/159/159
f 145/145/145 159/159/159 158/158/158
f 146/146/146 147/147/147 160/160/160
f 146/146/146 160/160/160 159/159/159
f 147/147/147 148/148/148 161/161/161
f 147/147/147 161/161/161 160/160/160
f 148/148/148 149/149/149 162/162/162
f 148/148/148 162/162/162 161/161/161
f 149/149/149 150/150/150 163/163/163
f 149/149/149 163/163/163 162/162/162
f 150/150/150 151/151/151 164/164/164
f 150/150/150 164/164/164 163/163/163
f 151/151/151 152/152/152 165/165/165
f 151/151/151 165/165/165 164/164/164
f 152/152/152 153/153/153 166/166/166
f 152/152/152 166/166/166 165/165/165
f 153/153/153 154/154/154 167/167/167
f 153/153/153 167/167/167 166/166/166
f 154/154/154 155/155/155 168/168/168
f 154/154/154 168/168/168 167/167/167
f 155/155/155 156/156/156 169/169/169
f 155/155/155 169/169/169 168/168/168
f 156/156/156 157/157/157 170/170/170
f 156/156/156 170/170/170 169/169/169
f 158/158/158 159/159/159 172/172/172
f 158/158/158 172/172/172 171/171/171
f 159/159/159 160/160/160 173/173/173
f 159/159/159 173/173/173 172/172/172
f 160/160/160 161/161/161 174/174/174
f 160/160/160 174/174/174 173/173/173
f 161/161/161 162/162/162 175/175/175
f 161/161/161 175/175/175 174/174/174
f 162/162/162 163/163/163 176/176/176
f 162/162/162 176/176/176 175/175/175
f 163/163/163 164/164/164 177/177/177
f 163/163/163 177/177/177 176/176/176
f 164/164/164 165/165/165 178/178/178
f 164/164/164 178/178/178 177/177/177
f 165/165/165 166/166/166 179/179/179
f 165/165/165 179/179/179 178/178/178
f 166/166/166 167/167/167 180/180/180
f 166/166/166 180/180/180 179/179/179
f 167/167/167 168/168/168 181/181/181
f 167/167/167 181/181/181 180/180/180
f 168/168/168 169/169/169 182/182/182
f 168/168/168 182/182/182 181/181/181
f 169/169/169 170/170/170 183/183/183
f 169/169/169 183/183/183 182/182/182
f 171/171/171 172/172/172 185/185/185
f 171/171/171 185/185/185 184/184/184
f 172/172/172 173/173/173 186/186/186
f 172/172/172 186/186/186 185/185/185
f 173/173/173 174/174/174 187/187/187
f 173/173/173 187/187/187 186/186/186
f 174/174/174 175/175/175 188/188/188
f 174/174/174 188/188/188 187/187/187
f 175/175/175 176/176/176 189/189/189
f 175/175/175 189/189/189 188/188/188
f 176/176/176 177/177/177 190/190/190
f 176/176/176 190/190/190 189/189/189
f 177/177/177 178/178/178 191/191/191
f 177/177/177 191/191/191 190/190/190
f 178/178/178 179/179/179 192/192/192
f 178/178/178 192/192/192 191/191/191
f 179/179/179 180/180/180 193/193/193
f 179/179/179 193/193/193 192/192/192
f 180/180/180 181/181/181 194/194/194
f 180/180/180 194/194/194 193/193/193
f 181/181/181 182/182/182 195/195/195
f 181/181/181 195/195/195 194/194/194
f 182/182/182 183/183/183 196/196/196
f 182/182/182 196/196/196 195/195/195
f 197/197/197 146/146/146 145/145/145
f 197/197/197 147/147/147 146/146/146
f 197/197/197 148/148/148 147/147/147
f 197/197/197 149/149/149 148/148/148
f 197/197/197 150/150/150 149/149/149
f 197/197/197 151/151/151 150/150/150
f 197/197/197 152/152/152 151/151/151
f 197/197/197 153/153/153 152/152/152
f 197/197/197 154/154/154 153/153/153
f 197/197/197 155/155/155 154/154/154
f 197/197/197 156/156/156 155/155/155
f 197/197/197 157/157/157 156/156/156
f 198/198/198 184/184/184 185/185/185
f 198/198/198 185/185/185 186/186/186
f 198/198/198 186/186/186 187/187/187
f 198/198/198 187/187/187 188/188/188
f 198/198/198 188/188/188 189/189/189
f 198/198/198 189/189/189 190/190/190
f 198/198/198 190/190/190 191/191/191
f 198/198/198 191/191/191 192/192/192
f 198/198/198 192/192/192 193/193/193
f 198/198/198 193/193/193 194/194/194
f 198/198/198 194/194/194 195/195/195
f 198/198/198 195/195/195 196/196/196
o Unlit_fuse
v 7.000000 1.882051 0.620000
v 6.865278 1.747329 0.510000
v 6.865278 1.747329 0.290000
v 7.000000 1.882051 0.180000
v 7.134722 2.016773 0.290000
v 7.134722 2.016773 0.510000
v 7.000000 1.882051 0.620000
v 8.000000 0.882051 0.580000
v 7.910606 0.754345 0.490000
v 7.910606 0.754345 0.310000
v 8.000000 0.882051 0.220000
v 8.089394 1.009756 0.310000
v 8.089394 1.009756 0.490000
v 8.000000 0.882051 0.580000
v 9.000000 0.482051 0.500000
v 8.967837 0.401642 0.450000
v 8.967837 0.401642 0.350000
v 9.000000 0.482051 0.300000
v 9.032163 0.562459 0.350000
v 9.032163 0.562459 0.450000
v 9.000000 0.482051 0.500000
v 7.000000 1.882051 0.400000
v 9.000000 0.482051 0.400000
vt 0.7587500 0.7412500
vt 0.7975000 0.7412500
vt 0.8362500 0.7412500
vt 0.8750000 0.7412500
vt 0.9137500 0.7412500
vt 0.9525000 0.7412500
vt 0.9912500 0.7412500
vt 0.7587500 0.6250000
vt 0.7975000 0.6250000
vt 0.8362500 0.6250000
vt 0.8750000 0.6250000
vt 0.9137500 0.6250000
vt 0.9525000 0.6250000
vt 0.9912500 0.6250000
vt 0.7587500 0.5087500
vt 0.7975000 0.5087500
vt 0.8362500 0.5087500
vt 0.8750000 0.5087500
vt 0.9137500 0.5087500
vt 0.9525000 0.5087500
vt 0.9912500 0.5087500
vt 0.8750000 0.6250000
vt 0.8750000 0.6250000
vn -0.1747044 -0.0611562 0.9827198
vn -0.7153243 -0.6054590 0.3488990
vn -0.6017979 -0.4899339 -0.6307171
vn 0.0585076 0.1736575 -0.9830666
vn 0.6031684 0.7172976 -0.3488152
vn 0.4873322 0.6019359 0.6325982
vn -0.1747044 -0.0611562 0.9827198
vn 0.1148215 0.0236526 0.9931045
vn -0.4330397 -0.6939814 0.5752099
vn -0.5135048 -0.7475871 -0.4212200
vn -0.0444807 -0.0824857 -0.9955991
vn 0.5065403 0.6379445 -0.5800378
vn 0.5866137 0.6916635 0.4212907
vn 0.1148215 0.0236526 0.9931045
vn 0.2055202 0.1927503 0.9594836
vn -0.1584795 -0.7030072 0.6933002
vn -0.2542120 -0.9336666 -0.2522757
vn 0.0062499 -0.2981812 -0.9544888
vn 0.3694744 0.6033353 -0.7067356
vn 0.4664424 0.8478788 0.2520575
vn 0.2055202 0.1927503 0.9594836
vn -0.7071068 0.7071068 -0.0000000
vn 0.9284767 -0.3713907 -0.0000000
f 199/199/199 200/200/200 207/207/207
f 199/199/199 207/207/207 206/206/206
f 200/200/200 201/201/201 208/208/208
f 200/200/200 208/208/208 207/207/207
f 201/201/201 202/202/202 209/209/209
f 201/201/201 209/209/209 208/208/208
f 202/202/202 203/203/203 210/210/210
f 202/202/202 210/210/210 209/209/209
f 203/203/203 204/204/204 211/211/211
f 203/203/203 211/211/211 210/210/210
f 204/204/204 205/205/205 212/212/212
f 204/204/204 212/212/212 211/211/211
f 206/206/206 207/207/207 214/214/214
f 206/206/206 214/214/214 213/213/213
f 207/207/207 208/208/208 215/215/215
f 207/207/207 215/215/215 214/214/214
f 208/208/208 209/209/209 216/216/216
f 208/208/208 216/216/216 215/215/215
f 209/209/209 210/210/210 217/217/217
f 209/209/209 217/217/217 216/216/216
f 210/210/210 211/211/211 218/218/218
f 210/210/210 218/218/218 217/217/217
f 211/211/211 212/212/212 219/219/219
f 211/211/211 219/219/219 218/218/218
f 220/220/220 200/200/200 199/199/199
f 220/220/220 201/201/201 200/200/200
f 220/220/220 202/202/202 201/201/201
f 220/220/220 203/203/203 202/202/202
f 220/220/220 204/204/204 203/203/203
f 220/220/220 205/205/205 204/204/204
f 221/221/221 213/213/213 214/214/214
f 221/221/221 214/214/214 215/215/215
f 221/221/221 215/215/215 216/216/216
f 221/221/221 216/216/216 217/217/217
f 221/221/221 217/217/217 218/218/218
f 221/221/221 218/218/218 219/219/219
