o Algae
v -9.7680 0.2000 -2.0000
v -10.3840 0.2000 -0.9330
v -10.3840 0.3500 -0.9330
v -9.7680 0.3500 -2.0000
v -10.3840 0.2000 -0.9330
v -11.6160 0.2000 -0.9330
v -11.6160 0.3500 -0.9330
v -10.3840 0.3500 -0.9330
v -11.6160 0.2000 -0.9330
v -12.2320 0.2000 -2.0000
v -12.2320 0.3500 -2.0000
v -11.6160 0.3500 -0.9330
v -12.2320 0.2000 -2.0000
v -11.6160 0.2000 -3.0670
v -11.6160 0.3500 -3.0670
v -12.2320 0.3500 -2.0000
v -11.6160 0.2000 -3.0670
v -10.3840 0.2000 -3.0670
v -10.3840 0.3500 -3.0670
v -11.6160 0.3500 -3.0670
v -10.3840 0.2000 -3.0670
v -9.7680 0.2000 -2.0000
v -9.7680 0.3500 -2.0000
v -10.3840 0.3500 -3.0670
v -9.7680 0.2000 -2.0000
v -10.3840 0.2000 -0.9330
v -11.6160 0.2000 -0.9330
v -11.6160 0.2000 -0.9330
v -9.7680 0.3500 -2.0000
v -11.6160 0.3500 -0.9330
v -10.3840 0.3500 -0.9330
v -10.3840 0.3500 -0.9330
v -9.7680 0.2000 -2.0000
v -11.6160 0.2000 -0.9330
v -12.2320 0.2000 -2.0000
v -12.2320 0.2000 -2.0000
v -9.7680 0.3500 -2.0000
v -12.2320 0.3500 -2.0000
v -11.6160 0.3500 -0.9330
v -11.6160 0.3500 -0.9330
v -9.7680 0.2000 -2.0000
v -12.2320 0.2000 -2.0000
v -11.6160 0.2000 -3.0670
v -11.6160 0.2000 -3.0670
v -9.7680 0.3500 -2.0000
v -11.6160 0.3500 -3.0670
v -12.2320 0.3500 -2.0000
v -12.2320 0.3500 -2.0000
v -9.7680 0.2000 -2.0000
v -11.6160 0.2000 -3.0670
v -10.3840 0.2000 -3.0670
v -10.3840 0.2000 -3.0670
v -9.7680 0.3500 -2.0000
v -10.3840 0.3500 -3.0670
v -11.6160 0.3500 -3.0670
v -11.6160 0.3500 -3.0670
v -21.9919 0.2000 -9.0000
v -22.4959 0.2000 -8.1270
v -22.4959 0.3500 -8.1270
v -21.9919 0.3500 -9.0000
v -22.4959 0.2000 -8.1270
v -23.5041 0.2000 -8.1270
v -23.5041 0.3500 -8.1270
v -22.4959 0.3500 -8.1270
v -23.5041 0.2000 -8.1270
v -24.0081 0.2000 -9.0000
v -24.0081 0.3500 -9.0000
v -23.5041 0.3500 -8.1270
v -24.0081 0.2000 -9.0000
v -23.5041 0.2000 -9.8730
v -23.5041 0.3500 -9.8730
v -24.0081 0.3500 -9.0000
v -23.5041 0.2000 -9.8730
v -22.4959 0.2000 -9.8730
v -22.4959 0.3500 -9.8730
v -23.5041 0.3500 -9.8730
v -22.4959 0.2000 -9.8730
v -21.9919 0.2000 -9.0000
v -21.9919 0.3500 -9.0000
v -22.4959 0.3500 -9.8730
v -21.9919 0.2000 -9.0000
v -22.4959 0.2000 -8.1270
v -23.5041 0.2000 -8.1270
v -23.5041 0.2000 -8.1270
v -21.9919 0.3500 -9.0000
v -23.5041 0.3500 -8.1270
v -22.4959 0.3500 -8.1270
v -22.4959 0.3500 -8.1270
v -21.9919 0.2000 -9.0000
v -23.5041 0.2000 -8.1270
v -24.0081 0.2000 -9.0000
v -24.0081 0.2000 -9.0000
v -21.9919 0.3500 -9.0000
v -24.0081 0.3500 -9.0000
v -23.5041 0.3500 -8.1270
v -23.5041 0.3500 -8.1270
v -21.9919 0.2000 -9.0000
v -24.0081 0.2000 -9.0000
v -23.5041 0.2000 -9.8730
v -23.5041 0.2000 -9.8730
v -21.9919 0.3500 -9.0000
v -23.5041 0.3500 -9.8730
v -24.0081 0.3500 -9.0000
v -24.0081 0.3500 -9.0000
v -21.9919 0.2000 -9.0000
v -23.5041 0.2000 -9.8730
v -22.4959 0.2000 -9.8730
v -22.4959 0.2000 -9.8730
v -21.9919 0.3500 -9.0000
v -22.4959 0.3500 -9.8730
v -23.5041 0.3500 -9.8730
v -23.5041 0.3500 -9.8730
v -23.4834 0.2000 2.0000
v -23.7417 0.2000 2.4473
v -23.7417 0.3500 2.4473
v -23.4834 0.3500 2.0000
v -23.7417 0.2000 2.4473
v -24.2583 0.2000 2.4473
v -24.2583 0.3500 2.4473
v -23.7417 0.3500 2.4473
v -24.2583 0.2000 2.4473
v -24.5166 0.2000 2.0000
v -24.5166 0.3500 2.0000
v -24.2583 0.3500 2.4473
v -24.5166 0.2000 2.0000
v -24.2583 0.2000 1.5527
v -24.2583 0.3500 1.5527
v -24.5166 0.3500 2.0000
v -24.2583 0.2000 1.5527
v -23.7417 0.2000 1.5527
v -23.7417 0.3500 1.5527
v -24.2583 0.3500 1.5527
v -23.7417 0.2000 1.5527
v -23.4834 0.2000 2.0000
v -23.4834 0.3500 2.0000
v -23.7417 0.3500 1.5527
v -23.4834 0.2000 2.0000
v -23.7417 0.2000 2.4473
v -24.2583 0.2000 2.4473
v -24.2583 0.2000 2.4473
v -23.4834 0.3500 2.0000
v -24.2583 0.3500 2.4473
v -23.7417 0.3500 2.4473
v -23.7417 0.3500 2.4473
v -23.4834 0.2000 2.0000
v -24.2583 0.2000 2.4473
v -24.5166 0.2000 2.0000
v -24.5166 0.2000 2.0000
v -23.4834 0.3500 2.0000
v -24.5166 0.3500 2.0000
v -24.2583 0.3500 2.4473
v -24.2583 0.3500 2.4473
v -23.4834 0.2000 2.0000
v -24.5166 0.2000 2.0000
v -24.2583 0.2000 1.5527
v -24.2583 0.2000 1.5527
v -23.4834 0.3500 2.0000
v -24.2583 0.3500 1.5527
v -24.5166 0.3500 2.0000
v -24.5166 0.3500 2.0000
v -23.4834 0.2000 2.0000
v -24.2583 0.2000 1.5527
v -23.7417 0.2000 1.5527
v -23.7417 0.2000 1.5527
v -23.4834 0.3500 2.0000
v -23.7417 0.3500 1.5527
v -24.2583 0.3500 1.5527
v -24.2583 0.3500 1.5527
v -9.3234 0.2000 23.0000
v -9.6617 0.2000 23.5859
v -9.6617 0.3500 23.5859
v -9.3234 0.3500 23.0000
v -9.6617 0.2000 23.5859
v -10.3383 0.2000 23.5859
v -10.3383 0.3500 23.5859
v -9.6617 0.3500 23.5859
v -10.3383 0.2000 23.5859
v -10.6766 0.2000 23.0000
v -10.6766 0.3500 23.0000
v -10.3383 0.3500 23.5859
v -10.6766 0.2000 23.0000
v -10.3383 0.2000 22.4141
v -10.3383 0.3500 22.4141
v -10.6766 0.3500 23.0000
v -10.3383 0.2000 22.4141
v -9.6617 0.2000 22.4141
v -9.6617 0.3500 22.4141
v -10.3383 0.3500 22.4141
v -9.6617 0.2000 22.4141
v -9.3234 0.2000 23.0000
v -9.3234 0.3500 23.0000
v -9.6617 0.3500 22.4141
v -9.3234 0.2000 23.0000
v -9.6617 0.2000 23.5859
v -10.3383 0.2000 23.5859
v -10.3383 0.2000 23.5859
v -9.3234 0.3500 23.0000
v -10.3383 0.3500 23.5859
v -9.6617 0.3500 23.5859
v -9.6617 0.3500 23.5859
v -9.3234 0.2000 23.0000
v -10.3383 0.2000 23.5859
v -10.6766 0.2000 23.0000
v -10.6766 0.2000 23.0000
v -9.3234 0.3500 23.0000
v -10.6766 0.3500 23.0000
v -10.3383 0.3500 23.5859
v -10.3383 0.3500 23.5859
v -9.3234 0.2000 23.0000
v -10.6766 0.2000 23.0000
v -10.3383 0.2000 22.4141
v -10.3383 0.2000 22.4141
v -9.3234 0.3500 23.0000
v -10.3383 0.3500 22.4141
v -10.6766 0.3500 23.0000
v -10.6766 0.3500 23.0000
v -9.3234 0.2000 23.0000
v -10.3383 0.2000 22.4141
v -9.6617 0.2000 22.4141
v -9.6617 0.2000 22.4141
v -9.3234 0.3500 23.0000
v -9.6617 0.3500 22.4141
v -10.3383 0.3500 22.4141
v -10.3383 0.3500 22.4141
v -7.3848 0.2000 26.0000
v -8.1924 0.2000 27.3988
v -8.1924 0.3500 27.3988
v -7.3848 0.3500 26.0000
v -8.1924 0.2000 27.3988
v -9.8076 0.2000 27.3988
v -9.8076 0.3500 27.3988
v -8.1924 0.3500 27.3988
v -9.8076 0.2000 27.3988
v -10.6152 0.2000 26.0000
v -10.6152 0.3500 26.0000
v -9.8076 0.3500 27.3988
v -10.6152 0.2000 26.0000
v -9.8076 0.2000 24.6012
v -9.8076 0.3500 24.6012
v -10.6152 0.3500 26.0000
v -9.8076 0.2000 24.6012
v -8.1924 0.2000 24.6012
v -8.1924 0.3500 24.6012
v -9.8076 0.3500 24.6012
v -8.1924 0.2000 24.6012
v -7.3848 0.2000 26.0000
v -7.3848 0.3500 26.0000
v -8.1924 0.3500 24.6012
v -7.3848 0.2000 26.0000
v -8.1924 0.2000 27.3988
v -9.8076 0.2000 27.3988
v -9.8076 0.2000 27.3988
v -7.3848 0.3500 26.0000
v -9.8076 0.3500 27.3988
v -8.1924 0.3500 27.3988
v -8.1924 0.3500 27.3988
v -7.3848 0.2000 26.0000
v -9.8076 0.2000 27.3988
v -10.6152 0.2000 26.0000
v -10.6152 0.2000 26.0000
v -7.3848 0.3500 26.0000
v -10.6152 0.3500 26.0000
v -9.8076 0.3500 27.3988
v -9.8076 0.3500 27.3988
v -7.3848 0.2000 26.0000
v -10.6152 0.2000 26.0000
v -9.8076 0.2000 24.6012
v -9.8076 0.2000 24.6012
v -7.3848 0.3500 26.0000
v -9.8076 0.3500 24.6012
v -10.6152 0.3500 26.0000
v -10.6152 0.3500 26.0000
v -7.3848 0.2000 26.0000
v -9.8076 0.2000 24.6012
v -8.1924 0.2000 24.6012
v -8.1924 0.2000 24.6012
v -7.3848 0.3500 26.0000
v -8.1924 0.3500 24.6012
v -9.8076 0.3500 24.6012
v -9.8076 0.3500 24.6012
v -25.4001 0.2000 11.0000
v -25.7000 0.2000 11.5196
v -25.7000 0.3500 11.5196
v -25.4001 0.3500 11.0000
v -25.7000 0.2000 11.5196
v -26.3000 0.2000 11.5196
v -26.3000 0.3500 11.5196
v -25.7000 0.3500 11.5196
v -26.3000 0.2000 11.5196
v -26.5999 0.2000 11.0000
v -26.5999 0.3500 11.0000
v -26.3000 0.3500 11.5196
v -26.5999 0.2000 11.0000
v -26.3000 0.2000 10.4804
v -26.3000 0.3500 10.4804
v -26.5999 0.3500 11.0000
v -26.3000 0.2000 10.4804
v -25.7000 0.2000 10.4804
v -25.7000 0.3500 10.4804
v -26.3000 0.3500 10.4804
v -25.7000 0.2000 10.4804
v -25.4001 0.2000 11.0000
v -25.4001 0.3500 11.0000
v -25.7000 0.3500 10.4804
v -25.4001 0.2000 11.0000
v -25.7000 0.2000 11.5196
v -26.3000 0.2000 11.5196
v -26.3000 0.2000 11.5196
v -25.4001 0.3500 11.0000
v -26.3000 0.3500 11.5196
v -25.7000 0.3500 11.5196
v -25.7000 0.3500 11.5196
v -25.4001 0.2000 11.0000
v -26.3000 0.2000 11.5196
v -26.5999 0.2000 11.0000
v -26.5999 0.2000 11.0000
v -25.4001 0.3500 11.0000
v -26.5999 0.3500 11.0000
v -26.3000 0.3500 11.5196
v -26.3000 0.3500 11.5196
v -25.4001 0.2000 11.0000
v -26.5999 0.2000 11.0000
v -26.3000 0.2000 10.4804
v -26.3000 0.2000 10.4804
v -25.4001 0.3500 11.0000
v -26.3000 0.3500 10.4804
v -26.5999 0.3500 11.0000
v -26.5999 0.3500 11.0000
v -25.4001 0.2000 11.0000
v -26.3000 0.2000 10.4804
v -25.7000 0.2000 10.4804
v -25.7000 0.2000 10.4804
v -25.4001 0.3500 11.0000
v -25.7000 0.3500 10.4804
v -26.3000 0.3500 10.4804
v -26.3000 0.3500 10.4804
v -9.1559 0.2000 22.0000
v -10.0779 0.2000 23.5971
v -10.0779 0.3500 23.5971
v -9.1559 0.3500 22.0000
v -10.0779 0.2000 23.5971
v -11.9221 0.2000 23.5971
v -11.9221 0.3500 23.5971
v -10.0779 0.3500 23.5971
v -11.9221 0.2000 23.5971
v -12.8441 0.2000 22.0000
v -12.8441 0.3500 22.0000
v -11.9221 0.3500 23.5971
v -12.8441 0.2000 22.0000
v -11.9221 0.2000 20.4029
v -11.9221 0.3500 20.4029
v -12.8441 0.3500 22.0000
v -11.9221 0.2000 20.4029
v -10.0779 0.2000 20.4029
v -10.0779 0.3500 20.4029
v -11.9221 0.3500 20.4029
v -10.0779 0.2000 20.4029
v -9.1559 0.2000 22.0000
v -9.1559 0.3500 22.0000
v -10.0779 0.3500 20.4029
v -9.1559 0.2000 22.0000
v -10.0779 0.2000 23.5971
v -11.9221 0.2000 23.5971
v -11.9221 0.2000 23.5971
v -9.1559 0.3500 22.0000
v -11.9221 0.3500 23.5971
v -10.0779 0.3500 23.5971
v -10.0779 0.3500 23.5971
v -9.1559 0.2000 22.0000
v -11.9221 0.2000 23.5971
v -12.8441 0.2000 22.0000
v -12.8441 0.2000 22.0000
v -9.1559 0.3500 22.0000
v -12.8441 0.3500 22.0000
v -11.9221 0.3500 23.5971
v -11.9221 0.3500 23.5971
v -9.1559 0.2000 22.0000
v -12.8441 0.2000 22.0000
v -11.9221 0.2000 20.4029
v -11.9221 0.2000 20.4029
v -9.1559 0.3500 22.0000
v -11.9221 0.3500 20.4029
v -12.8441 0.3500 22.0000
v -12.8441 0.3500 22.0000
v -9.1559 0.2000 22.0000
v -11.9221 0.2000 20.4029
v -10.0779 0.2000 20.4029
v -10.0779 0.2000 20.4029
v -9.1559 0.3500 22.0000
v -10.0779 0.3500 20.4029
v -11.9221 0.3500 20.4029
v -11.9221 0.3500 20.4029
v -17.0111 0.2000 -15.0000
v -18.0056 0.2000 -13.2776
v -18.0056 0.3500 -13.2776
v -17.0111 0.3500 -15.0000
v -18.0056 0.2000 -13.2776
v -19.9944 0.2000 -13.2776
v -19.9944 0.3500 -13.2776
v -18.0056 0.3500 -13.2776
v -19.9944 0.2000 -13.2776
v -20.9889 0.2000 -15.0000
v -20.9889 0.3500 -15.0000
v -19.9944 0.3500 -13.2776
v -20.9889 0.2000 -15.0000
v -19.9944 0.2000 -16.7224
v -19.9944 0.3500 -16.7224
v -20.9889 0.3500 -15.0000
v -19.9944 0.2000 -16.7224
v -18.0056 0.2000 -16.7224
v -18.0056 0.3500 -16.7224
v -19.9944 0.3500 -16.7224
v -18.0056 0.2000 -16.7224
v -17.0111 0.2000 -15.0000
v -17.0111 0.3500 -15.0000
v -18.0056 0.3500 -16.7224
v -17.0111 0.2000 -15.0000
v -18.0056 0.2000 -13.2776
v -19.9944 0.2000 -13.2776
v -19.9944 0.2000 -13.2776
v -17.0111 0.3500 -15.0000
v -19.9944 0.3500 -13.2776
v -18.0056 0.3500 -13.2776
v -18.0056 0.3500 -13.2776
v -17.0111 0.2000 -15.0000
v -19.9944 0.2000 -13.2776
v -20.9889 0.2000 -15.0000
v -20.9889 0.2000 -15.0000
v -17.0111 0.3500 -15.0000
v -20.9889 0.3500 -15.0000
v -19.9944 0.3500 -13.2776
v -19.9944 0.3500 -13.2776
v -17.0111 0.2000 -15.0000
v -20.9889 0.2000 -15.0000
v -19.9944 0.2000 -16.7224
v -19.9944 0.2000 -16.7224
v -17.0111 0.3500 -15.0000
v -19.9944 0.3500 -16.7224
v -20.9889 0.3500 -15.0000
v -20.9889 0.3500 -15.0000
v -17.0111 0.2000 -15.0000
v -19.9944 0.2000 -16.7224
v -18.0056 0.2000 -16.7224
v -18.0056 0.2000 -16.7224
v -17.0111 0.3500 -15.0000
v -18.0056 0.3500 -16.7224
v -19.9944 0.3500 -16.7224
v -19.9944 0.3500 -16.7224
v 21.1426 0.2000 17.0000
v 20.5713 0.2000 17.9895
v 20.5713 0.3500 17.9895
v 21.1426 0.3500 17.0000
v 20.5713 0.2000 17.9895
v 19.4287 0.2000 17.9895
v 19.4287 0.3500 17.9895
v 20.5713 0.3500 17.9895
v 19.4287 0.2000 17.9895
v 18.8574 0.2000 17.0000
v 18.8574 0.3500 17.0000
v 19.4287 0.3500 17.9895
v 18.8574 0.2000 17.0000
v 19.4287 0.2000 16.0105
v 19.4287 0.3500 16.0105
v 18.8574 0.3500 17.0000
v 19.4287 0.2000 16.0105
v 20.5713 0.2000 16.0105
v 20.5713 0.3500 16.0105
v 19.4287 0.3500 16.0105
v 20.5713 0.2000 16.0105
v 21.1426 0.2000 17.0000
v 21.1426 0.3500 17.0000
v 20.5713 0.3500 16.0105
v 21.1426 0.2000 17.0000
v 20.5713 0.2000 17.9895
v 19.4287 0.2000 17.9895
v 19.4287 0.2000 17.9895
v 21.1426 0.3500 17.0000
v 19.4287 0.3500 17.9895
v 20.5713 0.3500 17.9895
v 20.5713 0.3500 17.9895
v 21.1426 0.2000 17.0000
v 19.4287 0.2000 17.9895
v 18.8574 0.2000 17.0000
v 18.8574 0.2000 17.0000
v 21.1426 0.3500 17.0000
v 18.8574 0.3500 17.0000
v 19.4287 0.3500 17.9895
v 19.4287 0.3500 17.9895
v 21.1426 0.2000 17.0000
v 18.8574 0.2000 17.0000
v 19.4287 0.2000 16.0105
v 19.4287 0.2000 16.0105
v 21.1426 0.3500 17.0000
v 19.4287 0.3500 16.0105
v 18.8574 0.3500 17.0000
v 18.8574 0.3500 17.0000
v 21.1426 0.2000 17.0000
v 19.4287 0.2000 16.0105
v 20.5713 0.2000 16.0105
v 20.5713 0.2000 16.0105
v 21.1426 0.3500 17.0000
v 20.5713 0.3500 16.0105
v 19.4287 0.3500 16.0105
v 19.4287 0.3500 16.0105
v 11.7142 0.2000 -2.0000
v 11.3571 0.2000 -1.3815
v 11.3571 0.3500 -1.3815
v 11.7142 0.3500 -2.0000
v 11.3571 0.2000 -1.3815
v 10.6429 0.2000 -1.3815
v 10.6429 0.3500 -1.3815
v 11.3571 0.3500 -1.3815
v 10.6429 0.2000 -1.3815
v 10.2858 0.2000 -2.0000
v 10.2858 0.3500 -2.0000
v 10.6429 0.3500 -1.3815
v 10.2858 0.2000 -2.0000
v 10.6429 0.2000 -2.6185
v 10.6429 0.3500 -2.6185
v 10.2858 0.3500 -2.0000
v 10.6429 0.2000 -2.6185
v 11.3571 0.2000 -2.6185
v 11.3571 0.3500 -2.6185
v 10.6429 0.3500 -2.6185
v 11.3571 0.2000 -2.6185
v 11.7142 0.2000 -2.0000
v 11.7142 0.3500 -2.0000
v 11.3571 0.3500 -2.6185
v 11.7142 0.2000 -2.0000
v 11.3571 0.2000 -1.3815
v 10.6429 0.2000 -1.3815
v 10.6429 0.2000 -1.3815
v 11.7142 0.3500 -2.0000
v 10.6429 0.3500 -1.3815
v 11.3571 0.3500 -1.3815
v 11.3571 0.3500 -1.3815
v 11.7142 0.2000 -2.0000
v 10.6429 0.2000 -1.3815
v 10.2858 0.2000 -2.0000
v 10.2858 0.2000 -2.0000
v 11.7142 0.3500 -2.0000
v 10.2858 0.3500 -2.0000
v 10.6429 0.3500 -1.3815
v 10.6429 0.3500 -1.3815
v 11.7142 0.2000 -2.0000
v 10.2858 0.2000 -2.0000
v 10.6429 0.2000 -2.6185
v 10.6429 0.2000 -2.6185
v 11.7142 0.3500 -2.0000
v 10.6429 0.3500 -2.6185
v 10.2858 0.3500 -2.0000
v 10.2858 0.3500 -2.0000
v 11.7142 0.2000 -2.0000
v 10.6429 0.2000 -2.6185
v 11.3571 0.2000 -2.6185
v 11.3571 0.2000 -2.6185
v 11.7142 0.3500 -2.0000
v 11.3571 0.3500 -2.6185
v 10.6429 0.3500 -2.6185
v 10.6429 0.3500 -2.6185
v -24.2417 0.2000 -26.0000
v -24.6208 0.2000 -25.3433
v -24.6208 0.3500 -25.3433
v -24.2417 0.3500 -26.0000
v -24.6208 0.2000 -25.3433
v -25.3792 0.2000 -25.3433
v -25.3792 0.3500 -25.3433
v -24.6208 0.3500 -25.3433
v -25.3792 0.2000 -25.3433
v -25.7583 0.2000 -26.0000
v -25.7583 0.3500 -26.0000
v -25.3792 0.3500 -25.3433
v -25.7583 0.2000 -26.0000
v -25.3792 0.2000 -26.6567
v -25.3792 0.3500 -26.6567
v -25.7583 0.3500 -26.0000
v -25.3792 0.2000 -26.6567
v -24.6208 0.2000 -26.6567
v -24.6208 0.3500 -26.6567
v -25.3792 0.3500 -26.6567
v -24.6208 0.2000 -26.6567
v -24.2417 0.2000 -26.0000
v -24.2417 0.3500 -26.0000
v -24.6208 0.3500 -26.6567
v -24.2417 0.2000 -26.0000
v -24.6208 0.2000 -25.3433
v -25.3792 0.2000 -25.3433
v -25.3792 0.2000 -25.3433
v -24.2417 0.3500 -26.0000
v -25.3792 0.3500 -25.3433
v -24.6208 0.3500 -25.3433
v -24.6208 0.3500 -25.3433
v -24.2417 0.2000 -26.0000
v -25.3792 0.2000 -25.3433
v -25.7583 0.2000 -26.0000
v -25.7583 0.2000 -26.0000
v -24.2417 0.3500 -26.0000
v -25.7583 0.3500 -26.0000
v -25.3792 0.3500 -25.3433
v -25.3792 0.3500 -25.3433
v -24.2417 0.2000 -26.0000
v -25.7583 0.2000 -26.0000
v -25.3792 0.2000 -26.6567
v -25.3792 0.2000 -26.6567
v -24.2417 0.3500 -26.0000
v -25.3792 0.3500 -26.6567
v -25.7583 0.3500 -26.0000
v -25.7583 0.3500 -26.0000
v -24.2417 0.2000 -26.0000
v -25.3792 0.2000 -26.6567
v -24.6208 0.2000 -26.6567
v -24.6208 0.2000 -26.6567
v -24.2417 0.3500 -26.0000
v -24.6208 0.3500 -26.6567
v -25.3792 0.3500 -26.6567
v -25.3792 0.3500 -26.6567
v -10.3374 0.2000 -6.0000
v -11.1687 0.2000 -4.5601
v -11.1687 0.3500 -4.5601
v -10.3374 0.3500 -6.0000
v -11.1687 0.2000 -4.5601
v -12.8313 0.2000 -4.5601
v -12.8313 0.3500 -4.5601
v -11.1687 0.3500 -4.5601
v -12.8313 0.2000 -4.5601
v -13.6626 0.2000 -6.0000
v -13.6626 0.3500 -6.0000
v -12.8313 0.3500 -4.5601
v -13.6626 0.2000 -6.0000
v -12.8313 0.2000 -7.4399
v -12.8313 0.3500 -7.4399
v -13.6626 0.3500 -6.0000
v -12.8313 0.2000 -7.4399
v -11.1687 0.2000 -7.4399
v -11.1687 0.3500 -7.4399
v -12.8313 0.3500 -7.4399
v -11.1687 0.2000 -7.4399
v -10.3374 0.2000 -6.0000
v -10.3374 0.3500 -6.0000
v -11.1687 0.3500 -7.4399
v -10.3374 0.2000 -6.0000
v -11.1687 0.2000 -4.5601
v -12.8313 0.2000 -4.5601
v -12.8313 0.2000 -4.5601
v -10.3374 0.3500 -6.0000
v -12.8313 0.3500 -4.5601
v -11.1687 0.3500 -4.5601
v -11.1687 0.3500 -4.5601
v -10.3374 0.2000 -6.0000
v -12.8313 0.2000 -4.5601
v -13.6626 0.2000 -6.0000
v -13.6626 0.2000 -6.0000
v -10.3374 0.3500 -6.0000
v -13.6626 0.3500 -6.0000
v -12.8313 0.3500 -4.5601
v -12.8313 0.3500 -4.5601
v -10.3374 0.2000 -6.0000
v -13.6626 0.2000 -6.0000
v -12.8313 0.2000 -7.4399
v -12.8313 0.2000 -7.4399
v -10.3374 0.3500 -6.0000
v -12.8313 0.3500 -7.4399
v -13.6626 0.3500 -6.0000
v -13.6626 0.3500 -6.0000
v -10.3374 0.2000 -6.0000
v -12.8313 0.2000 -7.4399
v -11.1687 0.2000 -7.4399
v -11.1687 0.2000 -7.4399
v -10.3374 0.3500 -6.0000
v -11.1687 0.3500 -7.4399
v -12.8313 0.3500 -7.4399
v -12.8313 0.3500 -7.4399
v -6.8829 0.2000 -22.0000
v -7.4415 0.2000 -21.0326
v -7.4415 0.3500 -21.0326
v -6.8829 0.3500 -22.0000
v -7.4415 0.2000 -21.0326
v -8.5585 0.2000 -21.0326
v -8.5585 0.3500 -21.0326
v -7.4415 0.3500 -21.0326
v -8.5585 0.2000 -21.0326
v -9.1171 0.2000 -22.0000
v -9.1171 0.3500 -22.0000
v -8.5585 0.3500 -21.0326
v -9.1171 0.2000 -22.0000
v -8.5585 0.2000 -22.9674
v -8.5585 0.3500 -22.9674
v -9.1171 0.3500 -22.0000
v -8.5585 0.2000 -22.9674
v -7.4415 0.2000 -22.9674
v -7.4415 0.3500 -22.9674
v -8.5585 0.3500 -22.9674
v -7.4415 0.2000 -22.9674
v -6.8829 0.2000 -22.0000
v -6.8829 0.3500 -22.0000
v -7.4415 0.3500 -22.9674
v -6.8829 0.2000 -22.0000
v -7.4415 0.2000 -21.0326
v -8.5585 0.2000 -21.0326
v -8.5585 0.2000 -21.0326
v -6.8829 0.3500 -22.0000
v -8.5585 0.3500 -21.0326
v -7.4415 0.3500 -21.0326
v -7.4415 0.3500 -21.0326
v -6.8829 0.2000 -22.0000
v -8.5585 0.2000 -21.0326
v -9.1171 0.2000 -22.0000
v -9.1171 0.2000 -22.0000
v -6.8829 0.3500 -22.0000
v -9.1171 0.3500 -22.0000
v -8.5585 0.3500 -21.0326
v -8.5585 0.3500 -21.0326
v -6.8829 0.2000 -22.0000
v -9.1171 0.2000 -22.0000
v -8.5585 0.2000 -22.9674
v -8.5585 0.2000 -22.9674
v -6.8829 0.3500 -22.0000
v -8.5585 0.3500 -22.9674
v -9.1171 0.3500 -22.0000
v -9.1171 0.3500 -22.0000
v -6.8829 0.2000 -22.0000
v -8.5585 0.2000 -22.9674
v -7.4415 0.2000 -22.9674
v -7.4415 0.2000 -22.9674
v -6.8829 0.3500 -22.0000
v -7.4415 0.3500 -22.9674
v -8.5585 0.3500 -22.9674
v -8.5585 0.3500 -22.9674
v -26.0072 0.2000 20.0000
v -26.5036 0.2000 20.8598
v -26.5036 0.3500 20.8598
v -26.0072 0.3500 20.0000
v -26.5036 0.2000 20.8598
v -27.4964 0.2000 20.8598
v -27.4964 0.3500 20.8598
v -26.5036 0.3500 20.8598
v -27.4964 0.2000 20.8598
v -27.9928 0.2000 20.0000
v -27.9928 0.3500 20.0000
v -27.4964 0.3500 20.8598
v -27.9928 0.2000 20.0000
v -27.4964 0.2000 19.1402
v -27.4964 0.3500 19.1402
v -27.9928 0.3500 20.0000
v -27.4964 0.2000 19.1402
v -26.5036 0.2000 19.1402
v -26.5036 0.3500 19.1402
v -27.4964 0.3500 19.1402
v -26.5036 0.2000 19.1402
v -26.0072 0.2000 20.0000
v -26.0072 0.3500 20.0000
v -26.5036 0.3500 19.1402
v -26.0072 0.2000 20.0000
v -26.5036 0.2000 20.8598
v -27.4964 0.2000 20.8598
v -27.4964 0.2000 20.8598
v -26.0072 0.3500 20.0000
v -27.4964 0.3500 20.8598
v -26.5036 0.3500 20.8598
v -26.5036 0.3500 20.8598
v -26.0072 0.2000 20.0000
v -27.4964 0.2000 20.8598
v -27.9928 0.2000 20.0000
v -27.9928 0.2000 20.0000
v -26.0072 0.3500 20.0000
v -27.9928 0.3500 20.0000
v -27.4964 0.3500 20.8598
v -27.4964 0.3500 20.8598
v -26.0072 0.2000 20.0000
v -27.9928 0.2000 20.0000
v -27.4964 0.2000 19.1402
v -27.4964 0.2000 19.1402
v -26.0072 0.3500 20.0000
v -27.4964 0.3500 19.1402
v -27.9928 0.3500 20.0000
v -27.9928 0.3500 20.0000
v -26.0072 0.2000 20.0000
v -27.4964 0.2000 19.1402
v -26.5036 0.2000 19.1402
v -26.5036 0.2000 19.1402
v -26.0072 0.3500 20.0000
v -26.5036 0.3500 19.1402
v -27.4964 0.3500 19.1402
v -27.4964 0.3500 19.1402
v 23.5488 0.2000 -4.0000
v 22.7744 0.2000 -2.6587
v 22.7744 0.3500 -2.6587
v 23.5488 0.3500 -4.0000
v 22.7744 0.2000 -2.6587
v 21.2256 0.2000 -2.6587
v 21.2256 0.3500 -2.6587
v 22.7744 0.3500 -2.6587
v 21.2256 0.2000 -2.6587
v 20.4512 0.2000 -4.0000
v 20.4512 0.3500 -4.0000
v 21.2256 0.3500 -2.6587
v 20.4512 0.2000 -4.0000
v 21.2256 0.2000 -5.3413
v 21.2256 0.3500 -5.3413
v 20.4512 0.3500 -4.0000
v 21.2256 0.2000 -5.3413
v 22.7744 0.2000 -5.3413
v 22.7744 0.3500 -5.3413
v 21.2256 0.3500 -5.3413
v 22.7744 0.2000 -5.3413
v 23.5488 0.2000 -4.0000
v 23.5488 0.3500 -4.0000
v 22.7744 0.3500 -5.3413
v 23.5488 0.2000 -4.0000
v 22.7744 0.2000 -2.6587
v 21.2256 0.2000 -2.6587
v 21.2256 0.2000 -2.6587
v 23.5488 0.3500 -4.0000
v 21.2256 0.3500 -2.6587
v 22.7744 0.3500 -2.6587
v 22.7744 0.3500 -2.6587
v 23.5488 0.2000 -4.0000
v 21.2256 0.2000 -2.6587
v 20.4512 0.2000 -4.0000
v 20.4512 0.2000 -4.0000
v 23.5488 0.3500 -4.0000
v 20.4512 0.3500 -4.0000
v 21.2256 0.3500 -2.6587
v 21.2256 0.3500 -2.6587
v 23.5488 0.2000 -4.0000
v 20.4512 0.2000 -4.0000
v 21.2256 0.2000 -5.3413
v 21.2256 0.2000 -5.3413
v 23.5488 0.3500 -4.0000
v 21.2256 0.3500 -5.3413
v 20.4512 0.3500 -4.0000
v 20.4512 0.3500 -4.0000
v 23.5488 0.2000 -4.0000
v 21.2256 0.2000 -5.3413
v 22.7744 0.2000 -5.3413
v 22.7744 0.2000 -5.3413
v 23.5488 0.3500 -4.0000
v 22.7744 0.3500 -5.3413
v 21.2256 0.3500 -5.3413
v 21.2256 0.3500 -5.3413
v 20.4911 0.2000 5.0000
v 19.7455 0.2000 6.2913
v 19.7455 0.3500 6.2913
v 20.4911 0.3500 5.0000
v 19.7455 0.2000 6.2913
v 18.2545 0.2000 6.2913
v 18.2545 0.3500 6.2913
v 19.7455 0.3500 6.2913
v 18.2545 0.2000 6.2913
v 17.5089 0.2000 5.0000
v 17.5089 0.3500 5.0000
v 18.2545 0.3500 6.2913
v 17.5089 0.2000 5.0000
v 18.2545 0.2000 3.7087
v 18.2545 0.3500 3.7087
v 17.5089 0.3500 5.0000
v 18.2545 0.2000 3.7087
v 19.7455 0.2000 3.7087
v 19.7455 0.3500 3.7087
v 18.2545 0.3500 3.7087
v 19.7455 0.2000 3.7087
v 20.4911 0.2000 5.0000
v 20.4911 0.3500 5.0000
v 19.7455 0.3500 3.7087
v 20.4911 0.2000 5.0000
v 19.7455 0.2000 6.2913
v 18.2545 0.2000 6.2913
v 18.2545 0.2000 6.2913
v 20.4911 0.3500 5.0000
v 18.2545 0.3500 6.2913
v 19.7455 0.3500 6.2913
v 19.7455 0.3500 6.2913
v 20.4911 0.2000 5.0000
v 18.2545 0.2000 6.2913
v 17.5089 0.2000 5.0000
v 17.5089 0.2000 5.0000
v 20.4911 0.3500 5.0000
v 17.5089 0.3500 5.0000
v 18.2545 0.3500 6.2913
v 18.2545 0.3500 6.2913
v 20.4911 0.2000 5.0000
v 17.5089 0.2000 5.0000
v 18.2545 0.2000 3.7087
v 18.2545 0.2000 3.7087
v 20.4911 0.3500 5.0000
v 18.2545 0.3500 3.7087
v 17.5089 0.3500 5.0000
v 17.5089 0.3500 5.0000
v 20.4911 0.2000 5.0000
v 18.2545 0.2000 3.7087
v 19.7455 0.2000 3.7087
v 19.7455 0.2000 3.7087
v 20.4911 0.3500 5.0000
v 19.7455 0.3500 3.7087
v 18.2545 0.3500 3.7087
v 18.2545 0.3500 3.7087
v 28.5981 0.2000 12.0000
v 27.7990 0.2000 13.3840
v 27.7990 0.3500 13.3840
v 28.5981 0.3500 12.0000
v 27.7990 0.2000 13.3840
v 26.2010 0.2000 13.3840
v 26.2010 0.3500 13.3840
v 27.7990 0.3500 13.3840
v 26.2010 0.2000 13.3840
v 25.4019 0.2000 12.0000
v 25.4019 0.3500 12.0000
v 26.2010 0.3500 13.3840
v 25.4019 0.2000 12.0000
v 26.2010 0.2000 10.6160
v 26.2010 0.3500 10.6160
v 25.4019 0.3500 12.0000
v 26.2010 0.2000 10.6160
v 27.7990 0.2000 10.6160
v 27.7990 0.3500 10.6160
v 26.2010 0.3500 10.6160
v 27.7990 0.2000 10.6160
v 28.5981 0.2000 12.0000
v 28.5981 0.3500 12.0000
v 27.7990 0.3500 10.6160
v 28.5981 0.2000 12.0000
v 27.7990 0.2000 13.3840
v 26.2010 0.2000 13.3840
v 26.2010 0.2000 13.3840
v 28.5981 0.3500 12.0000
v 26.2010 0.3500 13.3840
v 27.7990 0.3500 13.3840
v 27.7990 0.3500 13.3840
v 28.5981 0.2000 12.0000
v 26.2010 0.2000 13.3840
v 25.4019 0.2000 12.0000
v 25.4019 0.2000 12.0000
v 28.5981 0.3500 12.0000
v 25.4019 0.3500 12.0000
v 26.2010 0.3500 13.3840
v 26.2010 0.3500 13.3840
v 28.5981 0.2000 12.0000
v 25.4019 0.2000 12.0000
v 26.2010 0.2000 10.6160
v 26.2010 0.2000 10.6160
v 28.5981 0.3500 12.0000
v 26.2010 0.3500 10.6160
v 25.4019 0.3500 12.0000
v 25.4019 0.3500 12.0000
v 28.5981 0.2000 12.0000
v 26.2010 0.2000 10.6160
v 27.7990 0.2000 10.6160
v 27.7990 0.2000 10.6160
v 28.5981 0.3500 12.0000
v 27.7990 0.3500 10.6160
v 26.2010 0.3500 10.6160
v 26.2010 0.3500 10.6160
v 24.4649 0.2000 16.0000
v 23.7324 0.2000 17.2686
v 23.7324 0.3500 17.2686
v 24.4649 0.3500 16.0000
v 23.7324 0.2000 17.2686
v 22.2676 0.2000 17.2686
v 22.2676 0.3500 17.2686
v 23.7324 0.3500 17.2686
v 22.2676 0.2000 17.2686
v 21.5351 0.2000 16.0000
v 21.5351 0.3500 16.0000
v 22.2676 0.3500 17.2686
v 21.5351 0.2000 16.0000
v 22.2676 0.2000 14.7314
v 22.2676 0.3500 14.7314
v 21.5351 0.3500 16.0000
v 22.2676 0.2000 14.7314
v 23.7324 0.2000 14.7314
v 23.7324 0.3500 14.7314
v 22.2676 0.3500 14.7314
v 23.7324 0.2000 14.7314
v 24.4649 0.2000 16.0000
v 24.4649 0.3500 16.0000
v 23.7324 0.3500 14.7314
v 24.4649 0.2000 16.0000
v 23.7324 0.2000 17.2686
v 22.2676 0.2000 17.2686
v 22.2676 0.2000 17.2686
v 24.4649 0.3500 16.0000
v 22.2676 0.3500 17.2686
v 23.7324 0.3500 17.2686
v 23.7324 0.3500 17.2686
v 24.4649 0.2000 16.0000
v 22.2676 0.2000 17.2686
v 21.5351 0.2000 16.0000
v 21.5351 0.2000 16.0000
v 24.4649 0.3500 16.0000
v 21.5351 0.3500 16.0000
v 22.2676 0.3500 17.2686
v 22.2676 0.3500 17.2686
v 24.4649 0.2000 16.0000
v 21.5351 0.2000 16.0000
v 22.2676 0.2000 14.7314
v 22.2676 0.2000 14.7314
v 24.4649 0.3500 16.0000
v 22.2676 0.3500 14.7314
v 21.5351 0.3500 16.0000
v 21.5351 0.3500 16.0000
v 24.4649 0.2000 16.0000
v 22.2676 0.2000 14.7314
v 23.7324 0.2000 14.7314
v 23.7324 0.2000 14.7314
v 24.4649 0.3500 16.0000
v 23.7324 0.3500 14.7314
v 22.2676 0.3500 14.7314
v 22.2676 0.3500 14.7314
vt 0.500000 0.000000
vt 0.750000 0.000000
vt 0.750000 0.500000
vt 0.500000 0.500000
vt 0.500000 0.000000
vt 0.750000 0.000000
vt 0.750000 0.500000
vt 0.500000 0.500000
vt 0.500000 0.000000
vt 0.750000 0.000000
vt 0.750000 0.500000
vt 0.500000 0.500000
vt 0.500000 0.000000
vt 0.750000 0.000000
vt 0.750000 0.500000
vt 0.500000 0.500000
vt 0.500000 0.000000
vt 0.750000 0.000000
vt 0.750000 0.500000
vt 0.500000 0.500000
vt 0.500000 0.000000
vt 0.750000 0.000000
vt 0.750000 0.500000
vt 0.500000 0.500000
vt 0.500000 0.000000
vt 0.750000 0.000000
vt 0.750000 0.500000
vt 0.500000 0.500000
vt 0.500000 0.000000
vt 0.750000 0.000000
vt 0.750000 0.500000
vt 0.500000 0.500000
vt 0.500000 0.000000
vt 0.750000 0.000000
vt 0.750000 0.500000
vt 0.500000 0.500000
vt 0.500000 0.000000
vt 0.750000 0.000000
vt 0.750000 0.500000
vt 0.500000 0.500000
vt 0.500000 0.000000
vt 0.750000 0.000000
vt 0.750000 0.500000
vt 0.500000 0.500000
vt 0.500000 0.000000
vt 0.750000 0.000000
vt 0.750000 0.500000
vt 0.500000 0.500000
vt 0.500000 0.000000
vt 0.750000 0.000000
vt 0.750000 0.500000
vt 0.500000 0.500000
vt 0.500000 0.000000
vt 0.750000 0.000000
vt 0.750000 0.500000
vt 0.500000 0.500000
vt 0.500000 0.000000
vt 0.750000 0.000000
vt 0.750000 0.500000
vt 0.500000 0.500000
vt 0.500000 0.000000
vt 0.750000 0.000000
vt 0.750000 0.500000
vt 0.500000 0.500000
vt 0.500000 0.000000
vt 0.750000 0.000000
vt 0.750000 0.500000
vt 0.500000 0.500000
vt 0.500000 0.000000
vt 0.750000 0.000000
vt 0.750000 0.500000
vt 0.500000 0.500000
vt 0.500000 0.000000
vt 0.750000 0.000000
vt 0.750000 0.500000
vt 0.500000 0.500000
vt 0.500000 0.000000
vt 0.750000 0.000000
vt 0.750000 0.500000
vt 0.500000 0.500000
vt 0.500000 0.000000
vt 0.750000 0.000000
vt 0.750000 0.500000
vt 0.500000 0.500000
vt 0.500000 0.000000
vt 0.750000 0.000000
vt 0.750000 0.500000
vt 0.500000 0.500000
vt 0.500000 0.000000
vt 0.750000 0.000000
vt 0.750000 0.500000
vt 0.500000 0.500000
vt 0.500000 0.000000
vt 0.750000 0.000000
vt 0.750000 0.500000
vt 0.500000 0.500000
vt 0.500000 0.000000
vt 0.750000 0.000000
vt 0.750000 0.500000
vt 0.500000 0.500000
vt 0.500000 0.000000
vt 0.750000 0.000000
vt 0.750000 0.500000
vt 0.500000 0.500000
vt 0.500000 0.000000
vt 0.750000 0.000000
vt 0.750000 0.500000
vt 0.500000 0.500000
vt 0.500000 0.000000
vt 0.750000 0.000000
vt 0.750000 0.500000
vt 0.500000 0.500000
vt 0.500000 0.000000
vt 0.750000 0.000000
vt 0.750000 0.500000
vt 0.500000 0.500000
vt 0.500000 0.000000
vt 0.750000 0.000000
vt 0.750000 0.500000
vt 0.500000 0.500000
vt 0.500000 0.000000
vt 0.750000 0.000000
vt 0.750000 0.500000
vt 0.500000 0.500000
vt 0.500000 0.000000
vt 0.750000 0.000000
vt 0.750000 0.500000
vt 0.500000 0.500000
vt 0.500000 0.000000
vt 0.750000 0.000000
vt 0.750000 0.500000
vt 0.500000 0.500000
vt 0.500000 0.000000
vt 0.750000 0.000000
vt 0.750000 0.500000
vt 0.500000 0.500000
vt 0.500000 0.000000
vt 0.750000 0.000000
vt 0.750000 0.500000
vt 0.500000 0.500000
vt 0.500000 0.000000
vt 0.750000 0.000000
vt 0.750000 0.500000
vt 0.500000 0.500000
vt 0.500000 0.000000
vt 0.750000 0.000000
vt 0.750000 0.500000
vt 0.500000 0.500000
vt 0.500000 0.000000
vt 0.750000 0.000000
vt 0.750000 0.500000
vt 0.500000 0.500000
vt 0.500000 0.000000
vt 0.750000 0.000000
vt 0.750000 0.500000
vt 0.500000 0.500000
vt 0.500000 0.000000
vt 0.750000 0.000000
vt 0.750000 0.500000
vt 0.500000 0.500000
vt 0.500000 0.000000
vt 0.750000 0.000000
vt 0.750000 0.500000
vt 0.500000 0.500000
vt 0.500000 0.000000
vt 0.750000 0.000000
vt 0.750000 0.500000
vt 0.500000 0.500000
vt 0.500000 0.000000
vt 0.750000 0.000000
vt 0.750000 0.500000
vt 0.500000 0.500000
vt 0.500000 0.000000
vt 0.750000 0.000000
vt 0.750000 0.500000
vt 0.500000 0.500000
vt 0.500000 0.000000
vt 0.750000 0.000000
vt 0.750000 0.500000
vt 0.500000 0.500000
vt 0.500000 0.000000
vt 0.750000 0.000000
vt 0.750000 0.500000
vt 0.500000 0.500000
vt 0.500000 0.000000
vt 0.750000 0.000000
vt 0.750000 0.500000
vt 0.500000 0.500000
vt 0.500000 0.000000
vt 0.750000 0.000000
vt 0.750000 0.500000
vt 0.500000 0.500000
vt 0.500000 0.000000
vt 0.750000 0.000000
vt 0.750000 0.500000
vt 0.500000 0.500000
vt 0.500000 0.000000
vt 0.750000 0.000000
vt 0.750000 0.500000
vt 0.500000 0.500000
vt 0.500000 0.000000
vt 0.750000 0.000000
vt 0.750000 0.500000
vt 0.500000 0.500000
vt 0.500000 0.000000
vt 0.750000 0.000000
vt 0.750000 0.500000
vt 0.500000 0.500000
vt 0.500000 0.000000
vt 0.750000 0.000000
vt 0.750000 0.500000
vt 0.500000 0.500000
vt 0.500000 0.000000
vt 0.750000 0.000000
vt 0.750000 0.500000
vt 0.500000 0.500000
vt 0.500000 0.000000
vt 0.750000 0.000000
vt 0.750000 0.500000
vt 0.500000 0.500000
vt 0.500000 0.000000
vt 0.750000 0.000000
vt 0.750000 0.500000
vt 0.500000 0.500000
vt 0.500000 0.000000
vt 0.750000 0.000000
vt 0.750000 0.500000
vt 0.500000 0.500000
vt 0.500000 0.000000
vt 0.750000 0.000000
vt 0.750000 0.500000
vt 0.500000 0.500000
vt 0.500000 0.000000
vt 0.750000 0.000000
vt 0.750000 0.500000
vt 0.500000 0.500000
vt 0.500000 0.000000
vt 0.750000 0.000000
vt 0.750000 0.500000
vt 0.500000 0.500000
vt 0.500000 0.000000
vt 0.750000 0.000000
vt 0.750000 0.500000
vt 0.500000 0.500000
vt 0.500000 0.000000
vt 0.750000 0.000000
vt 0.750000 0.500000
vt 0.500000 0.500000
vt 0.500000 0.000000
vt 0.750000 0.000000
vt 0.750000 0.500000
vt 0.500000 0.500000
vt 0.500000 0.000000
vt 0.750000 0.000000
vt 0.750000 0.500000
vt 0.500000 0.500000
vt 0.500000 0.000000
vt 0.750000 0.000000
vt 0.750000 0.500000
vt 0.500000 0.500000
vt 0.500000 0.000000
vt 0.750000 0.000000
vt 0.750000 0.500000
vt 0.500000 0.500000
vt 0.500000 0.000000
vt 0.750000 0.000000
vt 0.750000 0.500000
vt 0.500000 0.500000
vt 0.500000 0.000000
vt 0.750000 0.000000
vt 0.750000 0.500000
vt 0.500000 0.500000
vt 0.500000 0.000000
vt 0.750000 0.000000
vt 0.750000 0.500000
vt 0.500000 0.500000
vt 0.500000 0.000000
vt 0.750000 0.000000
vt 0.750000 0.500000
vt 0.500000 0.500000
vt 0.500000 0.000000
vt 0.750000 0.000000
vt 0.750000 0.500000
vt 0.500000 0.500000
vt 0.500000 0.000000
vt 0.750000 0.000000
vt 0.750000 0.500000
vt 0.500000 0.500000
vt 0.500000 0.000000
vt 0.750000 0.000000
vt 0.750000 0.500000
vt 0.500000 0.500000
vt 0.500000 0.000000
vt 0.750000 0.000000
vt 0.750000 0.500000
vt 0.500000 0.500000
vt 0.500000 0.000000
vt 0.750000 0.000000
vt 0.750000 0.500000
vt 0.500000 0.500000
vt 0.500000 0.000000
vt 0.750000 0.000000
vt 0.750000 0.500000
vt 0.500000 0.500000
vt 0.500000 0.000000
vt 0.750000 0.000000
vt 0.750000 0.500000
vt 0.500000 0.500000
vt 0.500000 0.000000
vt 0.750000 0.000000
vt 0.750000 0.500000
vt 0.500000 0.500000
vt 0.500000 0.000000
vt 0.750000 0.000000
vt 0.750000 0.500000
vt 0.500000 0.500000
vt 0.500000 0.000000
vt 0.750000 0.000000
vt 0.750000 0.500000
vt 0.500000 0.500000
vt 0.500000 0.000000
vt 0.750000 0.000000
vt 0.750000 0.500000
vt 0.500000 0.500000
vt 0.500000 0.000000
vt 0.750000 0.000000
vt 0.750000 0.500000
vt 0.500000 0.500000
vt 0.500000 0.000000
vt 0.750000 0.000000
vt 0.750000 0.500000
vt 0.500000 0.500000
vt 0.500000 0.000000
vt 0.750000 0.000000
vt 0.750000 0.500000
vt 0.500000 0.500000
vt 0.500000 0.000000
vt 0.750000 0.000000
vt 0.750000 0.500000
vt 0.500000 0.500000
vt 0.500000 0.000000
vt 0.750000 0.000000
vt 0.750000 0.500000
vt 0.500000 0.500000
vt 0.500000 0.000000
vt 0.750000 0.000000
vt 0.750000 0.500000
vt 0.500000 0.500000
vt 0.500000 0.000000
vt 0.750000 0.000000
vt 0.750000 0.500000
vt 0.500000 0.500000
vt 0.500000 0.000000
vt 0.750000 0.000000
vt 0.750000 0.500000
vt 0.500000 0.500000
vt 0.500000 0.000000
vt 0.750000 0.000000
vt 0.750000 0.500000
vt 0.500000 0.500000
vt 0.500000 0.000000
vt 0.750000 0.000000
vt 0.750000 0.500000
vt 0.500000 0.500000
vt 0.500000 0.000000
vt 0.750000 0.000000
vt 0.750000 0.500000
vt 0.500000 0.500000
vt 0.500000 0.000000
vt 0.750000 0.000000
vt 0.750000 0.500000
vt 0.500000 0.500000
vt 0.500000 0.000000
vt 0.750000 0.000000
vt 0.750000 0.500000
vt 0.500000 0.500000
vt 0.500000 0.000000
vt 0.750000 0.000000
vt 0.750000 0.500000
vt 0.500000 0.500000
vt 0.500000 0.000000
vt 0.750000 0.000000
vt 0.750000 0.500000
vt 0.500000 0.500000
vt 0.500000 0.000000
vt 0.750000 0.000000
vt 0.750000 0.500000
vt 0.500000 0.500000
vt 0.500000 0.000000
vt 0.750000 0.000000
vt 0.750000 0.500000
vt 0.500000 0.500000
vt 0.500000 0.000000
vt 0.750000 0.000000
vt 0.750000 0.500000
vt 0.500000 0.500000
vt 0.500000 0.000000
vt 0.750000 0.000000
vt 0.750000 0.500000
vt 0.500000 0.500000
vt 0.500000 0.000000
vt 0.750000 0.000000
vt 0.750000 0.500000
vt 0.500000 0.500000
vt 0.500000 0.000000
vt 0.750000 0.000000
vt 0.750000 0.500000
vt 0.500000 0.500000
vt 0.500000 0.000000
vt 0.750000 0.000000
vt 0.750000 0.500000
vt 0.500000 0.500000
vt 0.500000 0.000000
vt 0.750000 0.000000
vt 0.750000 0.500000
vt 0.500000 0.500000
vt 0.500000 0.000000
vt 0.750000 0.000000
vt 0.750000 0.500000
vt 0.500000 0.500000
vt 0.500000 0.000000
vt 0.750000 0.000000
vt 0.750000 0.500000
vt 0.500000 0.500000
vt 0.500000 0.000000
vt 0.750000 0.000000
vt 0.750000 0.500000
vt 0.500000 0.500000
vt 0.500000 0.000000
vt 0.750000 0.000000
vt 0.750000 0.500000
vt 0.500000 0.500000
vt 0.500000 0.000000
vt 0.750000 0.000000
vt 0.750000 0.500000
vt 0.500000 0.500000
vt 0.500000 0.000000
vt 0.750000 0.000000
vt 0.750000 0.500000
vt 0.500000 0.500000
vt 0.500000 0.000000
vt 0.750000 0.000000
vt 0.750000 0.500000
vt 0.500000 0.500000
vt 0.500000 0.000000
vt 0.750000 0.000000
vt 0.750000 0.500000
vt 0.500000 0.500000
vt 0.500000 0.000000
vt 0.750000 0.000000
vt 0.750000 0.500000
vt 0.500000 0.500000
vt 0.500000 0.000000
vt 0.750000 0.000000
vt 0.750000 0.500000
vt 0.500000 0.500000
vt 0.500000 0.000000
vt 0.750000 0.000000
vt 0.750000 0.500000
vt 0.500000 0.500000
vt 0.500000 0.000000
vt 0.750000 0.000000
vt 0.750000 0.500000
vt 0.500000 0.500000
vt 0.500000 0.000000
vt 0.750000 0.000000
vt 0.750000 0.500000
vt 0.500000 0.500000
vt 0.500000 0.000000
vt 0.750000 0.000000
vt 0.750000 0.500000
vt 0.500000 0.500000
vt 0.500000 0.000000
vt 0.750000 0.000000
vt 0.750000 0.500000
vt 0.500000 0.500000
vt 0.500000 0.000000
vt 0.750000 0.000000
vt 0.750000 0.500000
vt 0.500000 0.500000
vt 0.500000 0.000000
vt 0.750000 0.000000
vt 0.750000 0.500000
vt 0.500000 0.500000
vt 0.500000 0.000000
vt 0.750000 0.000000
vt 0.750000 0.500000
vt 0.500000 0.500000
vt 0.500000 0.000000
vt 0.750000 0.000000
vt 0.750000 0.500000
vt 0.500000 0.500000
vt 0.500000 0.000000
vt 0.750000 0.000000
vt 0.750000 0.500000
vt 0.500000 0.500000
vt 0.500000 0.000000
vt 0.750000 0.000000
vt 0.750000 0.500000
vt 0.500000 0.500000
vt 0.500000 0.000000
vt 0.750000 0.000000
vt 0.750000 0.500000
vt 0.500000 0.500000
vt 0.500000 0.000000
vt 0.750000 0.000000
vt 0.750000 0.500000
vt 0.500000 0.500000
vt 0.500000 0.000000
vt 0.750000 0.000000
vt 0.750000 0.500000
vt 0.500000 0.500000
vt 0.500000 0.000000
vt 0.750000 0.000000
vt 0.750000 0.500000
vt 0.500000 0.500000
vt 0.500000 0.000000
vt 0.750000 0.000000
vt 0.750000 0.500000
vt 0.500000 0.500000
vt 0.500000 0.000000
vt 0.750000 0.000000
vt 0.750000 0.500000
vt 0.500000 0.500000
vt 0.500000 0.000000
vt 0.750000 0.000000
vt 0.750000 0.500000
vt 0.500000 0.500000
vt 0.500000 0.000000
vt 0.750000 0.000000
vt 0.750000 0.500000
vt 0.500000 0.500000
vt 0.500000 0.000000
vt 0.750000 0.000000
vt 0.750000 0.500000
vt 0.500000 0.500000
vt 0.500000 0.000000
vt 0.750000 0.000000
vt 0.750000 0.500000
vt 0.500000 0.500000
vt 0.500000 0.000000
vt 0.750000 0.000000
vt 0.750000 0.500000
vt 0.500000 0.500000
vt 0.500000 0.000000
vt 0.750000 0.000000
vt 0.750000 0.500000
vt 0.500000 0.500000
vt 0.500000 0.000000
vt 0.750000 0.000000
vt 0.750000 0.500000
vt 0.500000 0.500000
vt 0.500000 0.000000
vt 0.750000 0.000000
vt 0.750000 0.500000
vt 0.500000 0.500000
vt 0.500000 0.000000
vt 0.750000 0.000000
vt 0.750000 0.500000
vt 0.500000 0.500000
vt 0.500000 0.000000
vt 0.750000 0.000000
vt 0.750000 0.500000
vt 0.500000 0.500000
vt 0.500000 0.000000
vt 0.750000 0.000000
vt 0.750000 0.500000
vt 0.500000 0.500000
vt 0.500000 0.000000
vt 0.750000 0.000000
vt 0.750000 0.500000
vt 0.500000 0.500000
vt 0.500000 0.000000
vt 0.750000 0.000000
vt 0.750000 0.500000
vt 0.500000 0.500000
vt 0.500000 0.000000
vt 0.750000 0.000000
vt 0.750000 0.500000
vt 0.500000 0.500000
vt 0.500000 0.000000
vt 0.750000 0.000000
vt 0.750000 0.500000
vt 0.500000 0.500000
vt 0.500000 0.000000
vt 0.750000 0.000000
vt 0.750000 0.500000
vt 0.500000 0.500000
vt 0.500000 0.000000
vt 0.750000 0.000000
vt 0.750000 0.500000
vt 0.500000 0.500000
vt 0.500000 0.000000
vt 0.750000 0.000000
vt 0.750000 0.500000
vt 0.500000 0.500000
vt 0.500000 0.000000
vt 0.750000 0.000000
vt 0.750000 0.500000
vt 0.500000 0.500000
vt 0.500000 0.000000
vt 0.750000 0.000000
vt 0.750000 0.500000
vt 0.500000 0.500000
vt 0.500000 0.000000
vt 0.750000 0.000000
vt 0.750000 0.500000
vt 0.500000 0.500000
vt 0.500000 0.000000
vt 0.750000 0.000000
vt 0.750000 0.500000
vt 0.500000 0.500000
vt 0.500000 0.000000
vt 0.750000 0.000000
vt 0.750000 0.500000
vt 0.500000 0.500000
vt 0.500000 0.000000
vt 0.750000 0.000000
vt 0.750000 0.500000
vt 0.500000 0.500000
vt 0.500000 0.000000
vt 0.750000 0.000000
vt 0.750000 0.500000
vt 0.500000 0.500000
vt 0.500000 0.000000
vt 0.750000 0.000000
vt 0.750000 0.500000
vt 0.500000 0.500000
vt 0.500000 0.000000
vt 0.750000 0.000000
vt 0.750000 0.500000
vt 0.500000 0.500000
vt 0.500000 0.000000
vt 0.750000 0.000000
vt 0.750000 0.500000
vt 0.500000 0.500000
vt 0.500000 0.000000
vt 0.750000 0.000000
vt 0.750000 0.500000
vt 0.500000 0.500000
vt 0.500000 0.000000
vt 0.750000 0.000000
vt 0.750000 0.500000
vt 0.500000 0.500000
vt 0.500000 0.000000
vt 0.750000 0.000000
vt 0.750000 0.500000
vt 0.500000 0.500000
vt 0.500000 0.000000
vt 0.750000 0.000000
vt 0.750000 0.500000
vt 0.500000 0.500000
vt 0.500000 0.000000
vt 0.750000 0.000000
vt 0.750000 0.500000
vt 0.500000 0.500000
vt 0.500000 0.000000
vt 0.750000 0.000000
vt 0.750000 0.500000
vt 0.500000 0.500000
vt 0.500000 0.000000
vt 0.750000 0.000000
vt 0.750000 0.500000
vt 0.500000 0.500000
vt 0.500000 0.000000
vt 0.750000 0.000000
vt 0.750000 0.500000
vt 0.500000 0.500000
vt 0.500000 0.000000
vt 0.750000 0.000000
vt 0.750000 0.500000
vt 0.500000 0.500000
vt 0.500000 0.000000
vt 0.750000 0.000000
vt 0.750000 0.500000
vt 0.500000 0.500000
vt 0.500000 0.000000
vt 0.750000 0.000000
vt 0.750000 0.500000
vt 0.500000 0.500000
vt 0.500000 0.000000
vt 0.750000 0.000000
vt 0.750000 0.500000
vt 0.500000 0.500000
vt 0.500000 0.000000
vt 0.750000 0.000000
vt 0.750000 0.500000
vt 0.500000 0.500000
vt 0.500000 0.000000
vt 0.750000 0.000000
vt 0.750000 0.500000
vt 0.500000 0.500000
vt 0.500000 0.000000
vt 0.750000 0.000000
vt 0.750000 0.500000
vt 0.500000 0.500000
vt 0.500000 0.000000
vt 0.750000 0.000000
vt 0.750000 0.500000
vt 0.500000 0.500000
vt 0.500000 0.000000
vt 0.750000 0.000000
vt 0.750000 0.500000
vt 0.500000 0.500000
vt 0.500000 0.000000
vt 0.750000 0.000000
vt 0.750000 0.500000
vt 0.500000 0.500000
vt 0.500000 0.000000
vt 0.750000 0.000000
vt 0.750000 0.500000
vt 0.500000 0.500000
vt 0.500000 0.000000
vt 0.750000 0.000000
vt 0.750000 0.500000
vt 0.500000 0.500000
vt 0.500000 0.000000
vt 0.750000 0.000000
vt 0.750000 0.500000
vt 0.500000 0.500000
vt 0.500000 0.000000
vt 0.750000 0.000000
vt 0.750000 0.500000
vt 0.500000 0.500000
vt 0.500000 0.000000
vt 0.750000 0.000000
vt 0.750000 0.500000
vt 0.500000 0.500000
vt 0.500000 0.000000
vt 0.750000 0.000000
vt 0.750000 0.500000
vt 0.500000 0.500000
vt 0.500000 0.000000
vt 0.750000 0.000000
vt 0.750000 0.500000
vt 0.500000 0.500000
vt 0.500000 0.000000
vt 0.750000 0.000000
vt 0.750000 0.500000
vt 0.500000 0.500000
vt 0.500000 0.000000
vt 0.750000 0.000000
vt 0.750000 0.500000
vt 0.500000 0.500000
vt 0.500000 0.000000
vt 0.750000 0.000000
vt 0.750000 0.500000
vt 0.500000 0.500000
vt 0.500000 0.000000
vt 0.750000 0.000000
vt 0.750000 0.500000
vt 0.500000 0.500000
vt 0.500000 0.000000
vt 0.750000 0.000000
vt 0.750000 0.500000
vt 0.500000 0.500000
vt 0.500000 0.000000
vt 0.750000 0.000000
vt 0.750000 0.500000
vt 0.500000 0.500000
vt 0.500000 0.000000
vt 0.750000 0.000000
vt 0.750000 0.500000
vt 0.500000 0.500000
vt 0.500000 0.000000
vt 0.750000 0.000000
vt 0.750000 0.500000
vt 0.500000 0.500000
vt 0.500000 0.000000
vt 0.750000 0.000000
vt 0.750000 0.500000
vt 0.500000 0.500000
vt 0.500000 0.000000
vt 0.750000 0.000000
vt 0.750000 0.500000
vt 0.500000 0.500000
vt 0.500000 0.000000
vt 0.750000 0.000000
vt 0.750000 0.500000
vt 0.500000 0.500000
vt 0.500000 0.000000
vt 0.750000 0.000000
vt 0.750000 0.500000
vt 0.500000 0.500000
vt 0.500000 0.000000
vt 0.750000 0.000000
vt 0.750000 0.500000
vt 0.500000 0.500000
vt 0.500000 0.000000
vt 0.750000 0.000000
vt 0.750000 0.500000
vt 0.500000 0.500000
vt 0.500000 0.000000
vt 0.750000 0.000000
vt 0.750000 0.500000
vt 0.500000 0.500000
vt 0.500000 0.000000
vt 0.750000 0.000000
vt 0.750000 0.500000
vt 0.500000 0.500000
vt 0.500000 0.000000
vt 0.750000 0.000000
vt 0.750000 0.500000
vt 0.500000 0.500000
vt 0.500000 0.000000
vt 0.750000 0.000000
vt 0.750000 0.500000
vt 0.500000 0.500000
vt 0.500000 0.000000
vt 0.750000 0.000000
vt 0.750000 0.500000
vt 0.500000 0.500000
vt 0.500000 0.000000
vt 0.750000 0.000000
vt 0.750000 0.500000
vt 0.500000 0.500000
vt 0.500000 0.000000
vt 0.750000 0.000000
vt 0.750000 0.500000
vt 0.500000 0.500000
vt 0.500000 0.000000
vt 0.750000 0.000000
vt 0.750000 0.500000
vt 0.500000 0.500000
vt 0.500000 0.000000
vt 0.750000 0.000000
vt 0.750000 0.500000
vt 0.500000 0.500000
vt 0.500000 0.000000
vt 0.750000 0.000000
vt 0.750000 0.500000
vt 0.500000 0.500000
vt 0.500000 0.000000
vt 0.750000 0.000000
vt 0.750000 0.500000
vt 0.500000 0.500000
vt 0.500000 0.000000
vt 0.750000 0.000000
vt 0.750000 0.500000
vt 0.500000 0.500000
vt 0.500000 0.000000
vt 0.750000 0.000000
vt 0.750000 0.500000
vt 0.500000 0.500000
vt 0.500000 0.000000
vt 0.750000 0.000000
vt 0.750000 0.500000
vt 0.500000 0.500000
vt 0.500000 0.000000
vt 0.750000 0.000000
vt 0.750000 0.500000
vt 0.500000 0.500000
vt 0.500000 0.000000
vt 0.750000 0.000000
vt 0.750000 0.500000
vt 0.500000 0.500000
vt 0.500000 0.000000
vt 0.750000 0.000000
vt 0.750000 0.500000
vt 0.500000 0.500000
vt 0.500000 0.000000
vt 0.750000 0.000000
vt 0.750000 0.500000
vt 0.500000 0.500000
vt 0.500000 0.000000
vt 0.750000 0.000000
vt 0.750000 0.500000
vt 0.500000 0.500000
vt 0.500000 0.000000
vt 0.750000 0.000000
vt 0.750000 0.500000
vt 0.500000 0.500000
vt 0.500000 0.000000
vt 0.750000 0.000000
vt 0.750000 0.500000
vt 0.500000 0.500000
vt 0.500000 0.000000
vt 0.750000 0.000000
vt 0.750000 0.500000
vt 0.500000 0.500000
vt 0.500000 0.000000
vt 0.750000 0.000000
vt 0.750000 0.500000
vt 0.500000 0.500000
vt 0.500000 0.000000
vt 0.750000 0.000000
vt 0.750000 0.500000
vt 0.500000 0.500000
vt 0.500000 0.000000
vt 0.750000 0.000000
vt 0.750000 0.500000
vt 0.500000 0.500000
vt 0.500000 0.000000
vt 0.750000 0.000000
vt 0.750000 0.500000
vt 0.500000 0.500000
vt 0.500000 0.000000
vt 0.750000 0.000000
vt 0.750000 0.500000
vt 0.500000 0.500000
vt 0.500000 0.000000
vt 0.750000 0.000000
vt 0.750000 0.500000
vt 0.500000 0.500000
vt 0.500000 0.000000
vt 0.750000 0.000000
vt 0.750000 0.500000
vt 0.500000 0.500000
vt 0.500000 0.000000
vt 0.750000 0.000000
vt 0.750000 0.500000
vt 0.500000 0.500000
vt 0.500000 0.000000
vt 0.750000 0.000000
vt 0.750000 0.500000
vt 0.500000 0.500000
vt 0.500000 0.000000
vt 0.750000 0.000000
vt 0.750000 0.500000
vt 0.500000 0.500000
vt 0.500000 0.000000
vt 0.750000 0.000000
vt 0.750000 0.500000
vt 0.500000 0.500000
vt 0.500000 0.000000
vt 0.750000 0.000000
vt 0.750000 0.500000
vt 0.500000 0.500000
vt 0.500000 0.000000
vt 0.750000 0.000000
vt 0.750000 0.500000
vt 0.500000 0.500000
vt 0.500000 0.000000
vt 0.750000 0.000000
vt 0.750000 0.500000
vt 0.500000 0.500000
vt 0.500000 0.000000
vt 0.750000 0.000000
vt 0.750000 0.500000
vt 0.500000 0.500000
vt 0.500000 0.000000
vt 0.750000 0.000000
vt 0.750000 0.500000
vt 0.500000 0.500000
vt 0.500000 0.000000
vt 0.750000 0.000000
vt 0.750000 0.500000
vt 0.500000 0.500000
vt 0.500000 0.000000
vt 0.750000 0.000000
vt 0.750000 0.500000
vt 0.500000 0.500000
vt 0.500000 0.000000
vt 0.750000 0.000000
vt 0.750000 0.500000
vt 0.500000 0.500000
vt 0.500000 0.000000
vt 0.750000 0.000000
vt 0.750000 0.500000
vt 0.500000 0.500000
vt 0.500000 0.000000
vt 0.750000 0.000000
vt 0.750000 0.500000
vt 0.500000 0.500000
vt 0.500000 0.000000
vt 0.750000 0.000000
vt 0.750000 0.500000
vt 0.500000 0.500000
vt 0.500000 0.000000
vt 0.750000 0.000000
vt 0.750000 0.500000
vt 0.500000 0.500000
vt 0.500000 0.000000
vt 0.750000 0.000000
vt 0.750000 0.500000
vt 0.500000 0.500000
vt 0.500000 0.000000
vt 0.750000 0.000000
vt 0.750000 0.500000
vt 0.500000 0.500000
vt 0.500000 0.000000
vt 0.750000 0.000000
vt 0.750000 0.500000
vt 0.500000 0.500000
vt 0.500000 0.000000
vt 0.750000 0.000000
vt 0.750000 0.500000
vt 0.500000 0.500000
vt 0.500000 0.000000
vt 0.750000 0.000000
vt 0.750000 0.500000
vt 0.500000 0.500000
vt 0.500000 0.000000
vt 0.750000 0.000000
vt 0.750000 0.500000
vt 0.500000 0.500000
vt 0.500000 0.000000
vt 0.750000 0.000000
vt 0.750000 0.500000
vt 0.500000 0.500000
vt 0.500000 0.000000
vt 0.750000 0.000000
vt 0.750000 0.500000
vt 0.500000 0.500000
vt 0.500000 0.000000
vt 0.750000 0.000000
vt 0.750000 0.500000
vt 0.500000 0.500000
f 1/1 2/2 3/3 4/4
f 5/5 6/6 7/7 8/8
f 9/9 10/10 11/11 12/12
f 13/13 14/14 15/15 16/16
f 17/17 18/18 19/19 20/20
f 21/21 22/22 23/23 24/24
f 25/25 26/26 27/27 28/28
f 29/29 30/30 31/31 32/32
f 33/33 34/34 35/35 36/36
f 37/37 38/38 39/39 40/40
f 41/41 42/42 43/43 44/44
f 45/45 46/46 47/47 48/48
f 49/49 50/50 51/51 52/52
f 53/53 54/54 55/55 56/56
f 57/57 58/58 59/59 60/60
f 61/61 62/62 63/63 64/64
f 65/65 66/66 67/67 68/68
f 69/69 70/70 71/71 72/72
f 73/73 74/74 75/75 76/76
f 77/77 78/78 79/79 80/80
f 81/81 82/82 83/83 84/84
f 85/85 86/86 87/87 88/88
f 89/89 90/90 91/91 92/92
f 93/93 94/94 95/95 96/96
f 97/97 98/98 99/99 100/100
f 101/101 102/102 103/103 104/104
f 105/105 106/106 107/107 108/108
f 109/109 110/110 111/111 112/112
f 113/113 114/114 115/115 116/116
f 117/117 118/118 119/119 120/120
f 121/121 122/122 123/123 124/124
f 125/125 126/126 127/127 128/128
f 129/129 130/130 131/131 132/132
f 133/133 134/134 135/135 136/136
f 137/137 138/138 139/139 140/140
f 141/141 142/142 143/143 144/144
f 145/145 146/146 147/147 148/148
f 149/149 150/150 151/151 152/152
f 153/153 154/154 155/155 156/156
f 157/157 158/158 159/159 160/160
f 161/161 162/162 163/163 164/164
f 165/165 166/166 167/167 168/168
f 169/169 170/170 171/171 172/172
f 173/173 174/174 175/175 176/176
f 177/177 178/178 179/179 180/180
f 181/181 182/182 183/183 184/184
f 185/185 186/186 187/187 188/188
f 189/189 190/190 191/191 192/192
f 193/193 194/194 195/195 196/196
f 197/197 198/198 199/199 200/200
f 201/201 202/202 203/203 204/204
f 205/205 206/206 207/207 208/208
f 209/209 210/210 211/211 212/212
f 213/213 214/214 215/215 216/216
f 217/217 218/218 219/219 220/220
f 221/221 222/222 223/223 224/224
f 225/225 226/226 227/227 228/228
f 229/229 230/230 231/231 232/232
f 233/233 234/234 235/235 236/236
f 237/237 238/238 239/239 240/240
f 241/241 242/242 243/243 244/244
f 245/245 246/246 247/247 248/248
f 249/249 250/250 251/251 252/252
f 253/253 254/254 255/255 256/256
f 257/257 258/258 259/259 260/260
f 261/261 262/262 263/263 264/264
f 265/265 266/266 267/267 268/268
f 269/269 270/270 271/271 272/272
f 273/273 274/274 275/275 276/276
f 277/277 278/278 279/279 280/280
f 281/281 282/282 283/283 284/284
f 285/285 286/286 287/287 288/288
f 289/289 290/290 291/291 292/292
f 293/293 294/294 295/295 296/296
f 297/297 298/298 299/299 300/300
f 301/301 302/302 303/303 304/304
f 305/305 306/306 307/307 308/308
f 309/309 310/310 311/311 312/312
f 313/313 314/314 315/315 316/316
f 317/317 318/318 319/319 320/320
f 321/321 322/322 323/323 324/324
f 325/325 326/326 327/327 328/328
f 329/329 330/330 331/331 332/332
f 333/333 334/334 335/335 336/336
f 337/337 338/338 339/339 340/340
f 341/341 342/342 343/343 344/344
f 345/345 346/346 347/347 348/348
f 349/349 350/350 351/351 352/352
f 353/353 354/354 355/355 356/356
f 357/357 358/358 359/359 360/360
f 361/361 362/362 363/363 364/364
f 365/365 366/366 367/367 368/368
f 369/369 370/370 371/371 372/372
f 373/373 374/374 375/375 376/376
f 377/377 378/378 379/379 380/380
f 381/381 382/382 383/383 384/384
f 385/385 386/386 387/387 388/388
f 389/389 390/390 391/391 392/392
f 393/393 394/394 395/395 396/396
f 397/397 398/398 399/399 400/400
f 401/401 402/402 403/403 404/404
f 405/405 406/406 407/407 408/408
f 409/409 410/410 411/411 412/412
f 413/413 414/414 415/415 416/416
f 417/417 418/418 419/419 420/420
f 421/421 422/422 423/423 424/424
f 425/425 426/426 427/427 428/428
f 429/429 430/430 431/431 432/432
f 433/433 434/434 435/435 436/436
f 437/437 438/438 439/439 440/440
f 441/441 442/442 443/443 444/444
f 445/445 446/446 447/447 448/448
f 449/449 450/450 451/451 452/452
f 453/453 454/454 455/455 456/456
f 457/457 458/458 459/459 460/460
f 461/461 462/462 463/463 464/464
f 465/465 466/466 467/467 468/468
f 469/469 470/470 471/471 472/472
f 473/473 474/474 475/475 476/476
f 477/477 478/478 479/479 480/480
f 481/481 482/482 483/483 484/484
f 485/485 486/486 487/487 488/488
f 489/489 490/490 491/491 492/492
f 493/493 494/494 495/495 496/496
f 497/497 498/498 499/499 500/500
f 501/501 502/502 503/503 504/504
f 505/505 506/506 507/507 508/508
f 509/509 510/510 511/511 512/512
f 513/513 514/514 515/515 516/516
f 517/517 518/518 519/519 520/520
f 521/521 522/522 523/523 524/524
f 525/525 526/526 527/527 528/528
f 529/529 530/530 531/531 532/532
f 533/533 534/534 535/535 536/536
f 537/537 538/538 539/539 540/540
f 541/541 542/542 543/543 544/544
f 545/545 546/546 547/547 548/548
f 549/549 550/550 551/551 552/552
f 553/553 554/554 555/555 556/556
f 557/557 558/558 559/559 560/560
f 561/561 562/562 563/563 564/564
f 565/565 566/566 567/567 568/568
f 569/569 570/570 571/571 572/572
f 573/573 574/574 575/575 576/576
f 577/577 578/578 579/579 580/580
f 581/581 582/582 583/583 584/584
f 585/585 586/586 587/587 588/588
f 589/589 590/590 591/591 592/592
f 593/593 594/594 595/595 596/596
f 597/597 598/598 599/599 600/600
f 601/601 602/602 603/603 604/604
f 605/605 606/606 607/607 608/608
f 609/609 610/610 611/611 612/612
f 613/613 614/614 615/615 616/616
f 617/617 618/618 619/619 620/620
f 621/621 622/622 623/623 624/624
f 625/625 626/626 627/627 628/628
f 629/629 630/630 631/631 632/632
f 633/633 634/634 635/635 636/636
f 637/637 638/638 639/639 640/640
f 641/641 642/642 643/643 644/644
f 645/645 646/646 647/647 648/648
f 649/649 650/650 651/651 652/652
f 653/653 654/654 655/655 656/656
f 657/657 658/658 659/659 660/660
f 661/661 662/662 663/663 664/664
f 665/665 666/666 667/667 668/668
f 669/669 670/670 671/671 672/672
f 673/673 674/674 675/675 676/676
f 677/677 678/678 679/679 680/680
f 681/681 682/682 683/683 684/684
f 685/685 686/686 687/687 688/688
f 689/689 690/690 691/691 692/692
f 693/693 694/694 695/695 696/696
f 697/697 698/698 699/699 700/700
f 701/701 702/702 703/703 704/704
f 705/705 706/706 707/707 708/708
f 709/709 710/710 711/711 712/712
f 713/713 714/714 715/715 716/716
f 717/717 718/718 719/719 720/720
f 721/721 722/722 723/723 724/724
f 725/725 726/726 727/727 728/728
f 729/729 730/730 731/731 732/732
f 733/733 734/734 735/735 736/736
f 737/737 738/738 739/739 740/740
f 741/741 742/742 743/743 744/744
f 745/745 746/746 747/747 748/748
f 749/749 750/750 751/751 752/752
f 753/753 754/754 755/755 756/756
f 757/757 758/758 759/759 760/760
f 761/761 762/762 763/763 764/764
f 765/765 766/766 767/767 768/768
f 769/769 770/770 771/771 772/772
f 773/773 774/774 775/775 776/776
f 777/777 778/778 779/779 780/780
f 781/781 782/782 783/783 784/784
f 785/785 786/786 787/787 788/788
f 789/789 790/790 791/791 792/792
f 793/793 794/794 795/795 796/796
f 797/797 798/798 799/799 800/800
f 801/801 802/802 803/803 804/804
f 805/805 806/806 807/807 808/808
f 809/809 810/810 811/811 812/812
f 813/813 814/814 815/815 816/816
f 817/817 818/818 819/819 820/820
f 821/821 822/822 823/823 824/824
f 825/825 826/826 827/827 828/828
f 829/829 830/830 831/831 832/832
f 833/833 834/834 835/835 836/836
f 837/837 838/838 839/839 840/840
f 841/841 842/842 843/843 844/844
f 845/845 846/846 847/847 848/848
f 849/849 850/850 851/851 852/852
f 853/853 854/854 855/855 856/856
f 857/857 858/858 859/859 860/860
f 861/861 862/862 863/863 864/864
f 865/865 866/866 867/867 868/868
f 869/869 870/870 871/871 872/872
f 873/873 874/874 875/875 876/876
f 877/877 878/878 879/879 880/880
f 881/881 882/882 883/883 884/884
f 885/885 886/886 887/887 888/888
f 889/889 890/890 891/891 892/892
f 893/893 894/894 895/895 896/896
f 897/897 898/898 899/899 900/900
f 901/901 902/902 903/903 904/904
f 905/905 906/906 907/907 908/908
f 909/909 910/910 911/911 912/912
f 913/913 914/914 915/915 916/916
f 917/917 918/918 919/919 920/920
f 921/921 922/922 923/923 924/924
f 925/925 926/926 927/927 928/928
f 929/929 930/930 931/931 932/932
f 933/933 934/934 935/935 936/936
f 937/937 938/938 939/939 940/940
f 941/941 942/942 943/943 944/944
f 945/945 946/946 947/947 948/948
f 949/949 950/950 951/951 952/952
f 953/953 954/954 955/955 956/956
f 957/957 958/958 959/959 960/960
f 961/961 962/962 963/963 964/964
f 965/965 966/966 967/967 968/968
f 969/969 970/970 971/971 972/972
f 973/973 974/974 975/975 976/976
f 977/977 978/978 979/979 980/980
f 981/981 982/982 983/983 984/984
f 985/985 986/986 987/987 988/988
f 989/989 990/990 991/991 992/992
f 993/993 994/994 995/995 996/996
f 997/997 998/998 999/999 1000/1000
f 1001/1001 1002/1002 1003/1003 1004/1004
f 1005/1005 1006/1006 1007/1007 1008/1008
