o Glass
v -16.0000 1.0000 -15.0000
v -10.0000 1.0000 -13.0000
v -14.0000 2.0000 -7.0000
v 11.0000 1.0000 15.0000
v 17.0000 1.0000 17.0000
v 13.0000 2.0000 23.0000
v 22.0000 1.0000 -12.0000
v 28.0000 1.0000 -10.0000
v 24.0000 2.0000 -4.0000
v -9.0000 1.0000 -15.0000
v -3.0000 1.0000 -13.0000
v -7.0000 2.0000 -7.0000
v 17.0000 1.0000 6.0000
v 23.0000 1.0000 8.0000
v 19.0000 2.0000 14.0000
v 3.0000 1.0000 -10.0000
v 9.0000 1.0000 -8.0000
v 5.0000 2.0000 -2.0000
v -10.0000 1.0000 -14.0000
v -4.0000 1.0000 -12.0000
v -8.0000 2.0000 -6.0000
v 2.0000 1.0000 -13.0000
v 8.0000 1.0000 -11.0000
v 4.0000 2.0000 -5.0000
v -15.0000 1.0000 15.0000
v -9.0000 1.0000 17.0000
v -13.0000 2.0000 23.0000
v -11.0000 1.0000 -11.0000
v -5.0000 1.0000 -9.0000
v -9.0000 2.0000 -3.0000
v -22.0000 1.0000 3.0000
v -16.0000 1.0000 5.0000
v -20.0000 2.0000 11.0000
v -8.0000 1.0000 -19.0000
v -2.0000 1.0000 -17.0000
v -6.0000 2.0000 -11.0000
v -17.0000 1.0000 3.0000
v -11.0000 1.0000 5.0000
v -15.0000 2.0000 11.0000
v -3.0000 1.0000 21.0000
v 3.0000 1.0000 23.0000
v -1.0000 2.0000 29.0000
v -15.0000 1.0000 -12.0000
v -9.0000 1.0000 -10.0000
v -13.0000 2.0000 -4.0000
vt 0.000000 0.000000
vt 0.250000 0.000000
vt 0.250000 0.500000
vt 0.000000 0.000000
vt 0.250000 0.000000
vt 0.250000 0.500000
vt 0.000000 0.000000
vt 0.250000 0.000000
vt 0.250000 0.500000
vt 0.000000 0.000000
vt 0.250000 0.000000
vt 0.250000 0.500000
vt 0.000000 0.000000
vt 0.250000 0.000000
vt 0.250000 0.500000
vt 0.000000 0.000000
vt 0.250000 0.000000
vt 0.250000 0.500000
vt 0.000000 0.000000
vt 0.250000 0.000000
vt 0.250000 0.500000
vt 0.000000 0.000000
vt 0.250000 0.000000
vt 0.250000 0.500000
vt 0.000000 0.000000
vt 0.250000 0.000000
vt 0.250000 0.500000
vt 0.000000 0.000000
vt 0.250000 0.000000
vt 0.250000 0.500000
vt 0.000000 0.000000
vt 0.250000 0.000000
vt 0.250000 0.500000
vt 0.000000 0.000000
vt 0.250000 0.000000
vt 0.250000 0.500000
vt 0.000000 0.000000
vt 0.250000 0.000000
vt 0.250000 0.500000
vt 0.000000 0.000000
vt 0.250000 0.000000
vt 0.250000 0.500000
vt 0.000000 0.000000
vt 0.250000 0.000000
vt 0.250000 0.500000
f 1/1 2/2 3/3
f 4/4 5/5 6/6
f 7/7 8/8 9/9
f 10/10 11/11 12/12
f 13/13 14/14 15/15
f 16/16 17/17 18/18
f 19/19 20/20 21/21
f 22/22 23/23 24/24
f 25/25 26/26 27/27
f 28/28 29/29 30/30
f 31/31 32/32 33/33
f 34/34 35/35 36/36
f 37/37 38/38 39/39
f 40/40 41/41 42/42
f 43/43 44/44 45/45
