o Junk
v 2.3411 0.7000 8.7650
v 0.9925 0.4500 9.2136
v 4.4490 0.2500 11.0446
v 2.3411 0.5600 8.7650
v 4.4490 0.1100 11.0446
v 0.9925 0.3100 9.2136
v 4.4490 0.2500 11.0446
v 0.9925 0.4500 9.2136
v 0.9925 0.3100 9.2136
v 4.4490 0.1100 11.0446
v 2.3411 0.7000 8.7650
v -0.3548 0.2500 7.4150
v 0.9925 0.4500 9.2136
v 2.3411 0.5600 8.7650
v 0.9925 0.3100 9.2136
v -0.3548 0.1100 7.4150
v 0.9925 0.4500 9.2136
v -0.3548 0.2500 7.4150
v -0.3548 0.1100 7.4150
v 0.9925 0.3100 9.2136
v 2.3411 0.7000 8.7650
v 1.1802 0.4500 7.7942
v -0.3548 0.2500 7.4150
v 2.3411 0.5600 8.7650
v -0.3548 0.1100 7.4150
v 1.1802 0.3100 7.7942
v -0.3548 0.2500 7.4150
v 1.1802 0.4500 7.7942
v 1.1802 0.3100 7.7942
v -0.3548 0.1100 7.4150
v 2.3411 0.7000 8.7650
v 0.4332 0.2500 6.7302
v 1.1802 0.4500 7.7942
v 2.3411 0.5600 8.7650
v 1.1802 0.3100 7.7942
v 0.4332 0.1100 6.7302
v 1.1802 0.4500 7.7942
v 0.4332 0.2500 6.7302
v 0.4332 0.1100 6.7302
v 1.1802 0.3100 7.7942
v 2.3411 0.7000 8.7650
v 4.9661 0.4500 9.4785
v 0.4332 0.2500 6.7302
v 2.3411 0.5600 8.7650
v 0.4332 0.1100 6.7302
v 4.9661 0.3100 9.4785
v 0.4332 0.2500 6.7302
v 4.9661 0.4500 9.4785
v 4.9661 0.3100 9.4785
v 0.4332 0.1100 6.7302
v 2.3411 0.7000 8.7650
v 4.4490 0.2500 11.0446
v 4.9661 0.4500 9.4785
v 2.3411 0.5600 8.7650
v 4.9661 0.3100 9.4785
v 4.4490 0.1100 11.0446
v 4.9661 0.4500 9.4785
v 4.4490 0.2500 11.0446
v 4.4490 0.1100 11.0446
v 4.9661 0.3100 9.4785
v -19.8952 0.7000 -9.6820
v -21.1419 0.4500 -8.9997
v -17.4139 0.2500 -7.8157
v -19.8952 0.5600 -9.6820
v -17.4139 0.1100 -7.8157
v -21.1419 0.3100 -8.9997
v -17.4139 0.2500 -7.8157
v -21.1419 0.4500 -8.9997
v -21.1419 0.3100 -8.9997
v -17.4139 0.1100 -7.8157
v -19.8952 0.7000 -9.6820
v -22.7888 0.2500 -10.5286
v -21.1419 0.4500 -8.9997
v -19.8952 0.5600 -9.6820
v -21.1419 0.3100 -8.9997
v -22.7888 0.1100 -10.5286
v -21.1419 0.4500 -8.9997
v -22.7888 0.2500 -10.5286
v -22.7888 0.1100 -10.5286
v -21.1419 0.3100 -8.9997
v -19.8952 0.7000 -9.6820
v -21.2108 0.4500 -10.4298
v -22.7888 0.2500 -10.5286
v -19.8952 0.5600 -9.6820
v -22.7888 0.1100 -10.5286
v -21.2108 0.3100 -10.4298
v -22.7888 0.2500 -10.5286
v -21.2108 0.4500 -10.4298
v -21.2108 0.3100 -10.4298
v -22.7888 0.1100 -10.5286
v -19.8952 0.7000 -9.6820
v -22.1358 0.2500 -11.3432
v -21.2108 0.4500 -10.4298
v -19.8952 0.5600 -9.6820
v -21.2108 0.3100 -10.4298
v -22.1358 0.1100 -11.3432
v -21.2108 0.4500 -10.4298
v -22.1358 0.2500 -11.3432
v -22.1358 0.1100 -11.3432
v -21.2108 0.3100 -10.4298
v -19.8952 0.7000 -9.6820
v -17.1849 0.4500 -9.4489
v -22.1358 0.2500 -11.3432
v -19.8952 0.5600 -9.6820
v -22.1358 0.1100 -11.3432
v -17.1849 0.3100 -9.4489
v -22.1358 0.2500 -11.3432
v -17.1849 0.4500 -9.4489
v -17.1849 0.3100 -9.4489
v -22.1358 0.1100 -11.3432
v -19.8952 0.7000 -9.6820
v -17.4139 0.2500 -7.8157
v -17.1849 0.4500 -9.4489
v -19.8952 0.5600 -9.6820
v -17.1849 0.3100 -9.4489
v -17.4139 0.1100 -7.8157
v -17.1849 0.4500 -9.4489
v -17.4139 0.2500 -7.8157
v -17.4139 0.1100 -7.8157
v -17.1849 0.3100 -9.4489
v -21.6137 0.7000 -4.5412
v -21.2846 0.4500 -5.9238
v -24.6618 0.2500 -3.9503
v -21.6137 0.5600 -4.5412
v -24.6618 0.1100 -3.9503
v -21.2846 0.3100 -5.9238
v -24.6618 0.2500 -3.9503
v -21.2846 0.4500 -5.9238
v -21.2846 0.3100 -5.9238
v -24.6618 0.1100 -3.9503
v -21.6137 0.7000 -4.5412
v -19.0461 0.2500 -6.1215
v -21.2846 0.4500 -5.9238
v -21.6137 0.5600 -4.5412
v -21.2846 0.3100 -5.9238
v -19.0461 0.1100 -6.1215
v -21.2846 0.4500 -5.9238
v -19.0461 0.2500 -6.1215
v -19.0461 0.1100 -6.1215
v -21.2846 0.3100 -5.9238
v -21.6137 0.7000 -4.5412
v -20.1770 0.4500 -5.0165
v -19.0461 0.2500 -6.1215
v -21.6137 0.5600 -4.5412
v -19.0461 0.1100 -6.1215
v -20.1770 0.3100 -5.0165
v -19.0461 0.2500 -6.1215
v -20.1770 0.4500 -5.0165
v -20.1770 0.3100 -5.0165
v -19.0461 0.1100 -6.1215
v -21.6137 0.7000 -4.5412
v -18.8791 0.2500 -5.0909
v -20.1770 0.4500 -5.0165
v -21.6137 0.5600 -4.5412
v -20.1770 0.3100 -5.0165
v -18.8791 0.1100 -5.0909
v -20.1770 0.4500 -5.0165
v -18.8791 0.2500 -5.0909
v -18.8791 0.1100 -5.0909
v -20.1770 0.3100 -5.0165
v -21.6137 0.7000 -4.5412
v -23.6030 0.4500 -2.6858
v -18.8791 0.2500 -5.0909
v -21.6137 0.5600 -4.5412
v -18.8791 0.1100 -5.0909
v -23.6030 0.3100 -2.6858
v -18.8791 0.2500 -5.0909
v -23.6030 0.4500 -2.6858
v -23.6030 0.3100 -2.6858
v -18.8791 0.1100 -5.0909
v -21.6137 0.7000 -4.5412
v -24.6618 0.2500 -3.9503
v -23.6030 0.4500 -2.6858
v -21.6137 0.5600 -4.5412
v -23.6030 0.3100 -2.6858
v -24.6618 0.1100 -3.9503
v -23.6030 0.4500 -2.6858
v -24.6618 0.2500 -3.9503
v -24.6618 0.1100 -3.9503
v -23.6030 0.3100 -2.6858
v -10.7960 0.7000 18.3306
v -11.4539 0.4500 19.5904
v -7.6961 0.2500 18.5047
v -10.7960 0.5600 18.3306
v -7.6961 0.1100 18.5047
v -11.4539 0.3100 19.5904
v -7.6961 0.2500 18.5047
v -11.4539 0.4500 19.5904
v -11.4539 0.3100 19.5904
v -7.6961 0.1100 18.5047
v -10.7960 0.7000 18.3306
v -13.6726 0.2500 19.2335
v -11.4539 0.4500 19.5904
v -10.7960 0.5600 18.3306
v -11.4539 0.3100 19.5904
v -13.6726 0.1100 19.2335
v -11.4539 0.4500 19.5904
v -13.6726 0.2500 19.2335
v -13.6726 0.1100 19.2335
v -11.4539 0.3100 19.5904
v -10.7960 0.7000 18.3306
v -12.3054 0.4500 18.4393
v -13.6726 0.2500 19.2335
v -10.7960 0.5600 18.3306
v -13.6726 0.1100 19.2335
v -12.3054 0.3100 18.4393
v -13.6726 0.2500 19.2335
v -12.3054 0.4500 18.4393
v -12.3054 0.3100 18.4393
v -13.6726 0.1100 19.2335
v -10.7960 0.7000 18.3306
v -13.5819 0.2500 18.1934
v -12.3054 0.4500 18.4393
v -10.7960 0.5600 18.3306
v -12.3054 0.3100 18.4393
v -13.5819 0.1100 18.1934
v -12.3054 0.4500 18.4393
v -13.5819 0.2500 18.1934
v -13.5819 0.1100 18.1934
v -12.3054 0.3100 18.4393
v -10.7960 0.7000 18.3306
v -8.4127 0.4500 17.0193
v -13.5819 0.2500 18.1934
v -10.7960 0.5600 18.3306
v -13.5819 0.1100 18.1934
v -8.4127 0.3100 17.0193
v -13.5819 0.2500 18.1934
v -8.4127 0.4500 17.0193
v -8.4127 0.3100 17.0193
v -13.5819 0.1100 18.1934
v -10.7960 0.7000 18.3306
v -7.6961 0.2500 18.5047
v -8.4127 0.4500 17.0193
v -10.7960 0.5600 18.3306
v -8.4127 0.3100 17.0193
v -7.6961 0.1100 18.5047
v -8.4127 0.4500 17.0193
v -7.6961 0.2500 18.5047
v -7.6961 0.1100 18.5047
v -8.4127 0.3100 17.0193
v 9.6671 0.7000 -16.7402
v 8.4833 0.4500 -17.5267
v 9.1687 0.2500 -13.6756
v 9.6671 0.5600 -16.7402
v 9.1687 0.1100 -13.6756
v 8.4833 0.3100 -17.5267
v 9.1687 0.2500 -13.6756
v 8.4833 0.4500 -17.5267
v 8.4833 0.3100 -17.5267
v 9.1687 0.1100 -13.6756
v 9.6671 0.7000 -16.7402
v 9.0710 0.2500 -19.6957
v 8.4833 0.4500 -17.5267
v 9.6671 0.5600 -16.7402
v 8.4833 0.3100 -17.5267
v 9.0710 0.1100 -19.6957
v 8.4833 0.4500 -17.5267
v 9.0710 0.2500 -19.6957
v 9.0710 0.1100 -19.6957
v 8.4833 0.3100 -17.5267
v 9.6671 0.7000 -16.7402
v 9.7174 0.4500 -18.2526
v 9.0710 0.2500 -19.6957
v 9.6671 0.5600 -16.7402
v 9.0710 0.1100 -19.6957
v 9.7174 0.3100 -18.2526
v 9.0710 0.2500 -19.6957
v 9.7174 0.4500 -18.2526
v 9.7174 0.3100 -18.2526
v 9.0710 0.1100 -19.6957
v 9.6671 0.7000 -16.7402
v 10.0959 0.2500 -19.4963
v 9.7174 0.4500 -18.2526
v 9.6671 0.5600 -16.7402
v 9.7174 0.3100 -18.2526
v 10.0959 0.1100 -19.4963
v 9.7174 0.4500 -18.2526
v 10.0959 0.2500 -19.4963
v 10.0959 0.1100 -19.4963
v 9.7174 0.3100 -18.2526
v 9.6671 0.7000 -16.7402
v 10.7211 0.4500 -14.2324
v 10.0959 0.2500 -19.4963
v 9.6671 0.5600 -16.7402
v 10.0959 0.1100 -19.4963
v 10.7211 0.3100 -14.2324
v 10.0959 0.2500 -19.4963
v 10.7211 0.4500 -14.2324
v 10.7211 0.3100 -14.2324
v 10.0959 0.1100 -19.4963
v 9.6671 0.7000 -16.7402
v 9.1687 0.2500 -13.6756
v 10.7211 0.4500 -14.2324
v 9.6671 0.5600 -16.7402
v 10.7211 0.3100 -14.2324
v 9.1687 0.1100 -13.6756
v 10.7211 0.4500 -14.2324
v 9.1687 0.2500 -13.6756
v 9.1687 0.1100 -13.6756
v 10.7211 0.3100 -14.2324
v 15.7737 0.7000 -10.3291
v 16.8938 0.4500 -11.2040
v 13.0234 0.2500 -11.7699
v 15.7737 0.5600 -10.3291
v 13.0234 0.1100 -11.7699
v 16.8938 0.3100 -11.2040
v 13.0234 0.2500 -11.7699
v 16.8938 0.4500 -11.2040
v 16.8938 0.3100 -11.2040
v 13.0234 0.1100 -11.7699
v 15.7737 0.7000 -10.3291
v 18.7661 0.2500 -9.9614
v 16.8938 0.4500 -11.2040
v 15.7737 0.5600 -10.3291
v 16.8938 0.3100 -11.2040
v 18.7661 0.1100 -9.9614
v 16.8938 0.4500 -11.2040
v 18.7661 0.2500 -9.9614
v 18.7661 0.1100 -9.9614
v 16.8938 0.3100 -11.2040
v 15.7737 0.7000 -10.3291
v 17.1929 0.4500 -9.8038
v 18.7661 0.2500 -9.9614
v 15.7737 0.5600 -10.3291
v 18.7661 0.1100 -9.9614
v 17.1929 0.3100 -9.8038
v 18.7661 0.2500 -9.9614
v 17.1929 0.4500 -9.8038
v 17.1929 0.3100 -9.8038
v 18.7661 0.1100 -9.9614
v 15.7737 0.7000 -10.3291
v 18.2534 0.2500 -9.0519
v 17.1929 0.4500 -9.8038
v 15.7737 0.5600 -10.3291
v 17.1929 0.3100 -9.8038
v 18.2534 0.1100 -9.0519
v 17.1929 0.4500 -9.8038
v 18.2534 0.2500 -9.0519
v 18.2534 0.1100 -9.0519
v 17.1929 0.3100 -9.8038
v 15.7737 0.7000 -10.3291
v 13.0614 0.4500 -10.1211
v 18.2534 0.2500 -9.0519
v 15.7737 0.5600 -10.3291
v 18.2534 0.1100 -9.0519
v 13.0614 0.3100 -10.1211
v 18.2534 0.2500 -9.0519
v 13.0614 0.4500 -10.1211
v 13.0614 0.3100 -10.1211
v 18.2534 0.1100 -9.0519
v 15.7737 0.7000 -10.3291
v 13.0234 0.2500 -11.7699
v 13.0614 0.4500 -10.1211
v 15.7737 0.5600 -10.3291
v 13.0614 0.3100 -10.1211
v 13.0234 0.1100 -11.7699
v 13.0614 0.4500 -10.1211
v 13.0234 0.2500 -11.7699
v 13.0234 0.1100 -11.7699
v 13.0614 0.3100 -10.1211
v 5.4571 0.7000 2.2036
v 4.3779 0.4500 3.1283
v 8.2699 0.2500 3.5182
v 5.4571 0.5600 2.2036
v 8.2699 0.1100 3.5182
v 4.3779 0.3100 3.1283
v 8.2699 0.2500 3.5182
v 4.3779 0.4500 3.1283
v 4.3779 0.3100 3.1283
v 8.2699 0.1100 3.5182
v 5.4571 0.7000 2.2036
v 2.4511 0.2500 1.9718
v 4.3779 0.4500 3.1283
v 5.4571 0.5600 2.2036
v 4.3779 0.3100 3.1283
v 2.4511 0.1100 1.9718
v 4.3779 0.4500 3.1283
v 2.4511 0.2500 1.9718
v 2.4511 0.1100 1.9718
v 4.3779 0.3100 3.1283
v 5.4571 0.7000 2.2036
v 4.0156 0.4500 1.7431
v 2.4511 0.2500 1.9718
v 5.4571 0.5600 2.2036
v 2.4511 0.1100 1.9718
v 4.0156 0.3100 1.7431
v 2.4511 0.2500 1.9718
v 4.0156 0.4500 1.7431
v 4.0156 0.3100 1.7431
v 2.4511 0.1100 1.9718
v 5.4571 0.7000 2.2036
v 2.9221 0.2500 1.0401
v 4.0156 0.4500 1.7431
v 5.4571 0.5600 2.2036
v 4.0156 0.3100 1.7431
v 2.9221 0.1100 1.0401
v 4.0156 0.4500 1.7431
v 2.9221 0.2500 1.0401
v 2.9221 0.1100 1.0401
v 4.0156 0.3100 1.7431
v 5.4571 0.7000 2.2036
v 8.1573 0.4500 1.8728
v 2.9221 0.2500 1.0401
v 5.4571 0.5600 2.2036
v 2.9221 0.1100 1.0401
v 8.1573 0.3100 1.8728
v 2.9221 0.2500 1.0401
v 8.1573 0.4500 1.8728
v 8.1573 0.3100 1.8728
v 2.9221 0.1100 1.0401
v 5.4571 0.7000 2.2036
v 8.2699 0.2500 3.5182
v 8.1573 0.4500 1.8728
v 5.4571 0.5600 2.2036
v 8.1573 0.3100 1.8728
v 8.2699 0.1100 3.5182
v 8.1573 0.4500 1.8728
v 8.2699 0.2500 3.5182
v 8.2699 0.1100 3.5182
v 8.1573 0.3100 1.8728
v -15.7405 0.7000 7.2842
v -15.5670 0.4500 5.8736
v -18.7042 0.2500 8.2098
v -15.7405 0.5600 7.2842
v -18.7042 0.1100 8.2098
v -15.5670 0.3100 5.8736
v -18.7042 0.2500 8.2098
v -15.5670 0.4500 5.8736
v -15.5670 0.3100 5.8736
v -18.7042 0.1100 8.2098
v -15.7405 0.7000 7.2842
v -13.3643 0.2500 5.4286
v -15.5670 0.4500 5.8736
v -15.7405 0.5600 7.2842
v -15.5670 0.3100 5.8736
v -13.3643 0.1100 5.4286
v -15.5670 0.4500 5.8736
v -13.3643 0.2500 5.4286
v -13.3643 0.1100 5.4286
v -15.5670 0.3100 5.8736
v -15.7405 0.7000 7.2842
v -14.3655 0.4500 6.6523
v -13.3643 0.2500 5.4286
v -15.7405 0.5600 7.2842
v -13.3643 0.1100 5.4286
v -14.3655 0.3100 6.6523
v -13.3643 0.2500 5.4286
v -14.3655 0.4500 6.6523
v -14.3655 0.3100 6.6523
v -13.3643 0.1100 5.4286
v -15.7405 0.7000 7.2842
v -13.0839 0.2500 6.4342
v -14.3655 0.4500 6.6523
v -15.7405 0.5600 7.2842
v -14.3655 0.3100 6.6523
v -13.0839 0.1100 6.4342
v -14.3655 0.4500 6.6523
v -13.0839 0.2500 6.4342
v -13.0839 0.1100 6.4342
v -14.3655 0.3100 6.6523
v -15.7405 0.7000 7.2842
v -17.5116 0.4500 9.3490
v -13.0839 0.2500 6.4342
v -15.7405 0.5600 7.2842
v -13.0839 0.1100 6.4342
v -17.5116 0.3100 9.3490
v -13.0839 0.2500 6.4342
v -17.5116 0.4500 9.3490
v -17.5116 0.3100 9.3490
v -13.0839 0.1100 6.4342
v -15.7405 0.7000 7.2842
v -18.7042 0.2500 8.2098
v -17.5116 0.4500 9.3490
v -15.7405 0.5600 7.2842
v -17.5116 0.3100 9.3490
v -18.7042 0.1100 8.2098
v -17.5116 0.4500 9.3490
v -18.7042 0.2500 8.2098
v -18.7042 0.1100 8.2098
v -17.5116 0.3100 9.3490
v 7.0680 0.7000 4.3113
v 5.6525 0.4500 4.1830
v 8.0878 0.2500 7.2439
v 7.0680 0.5600 4.3113
v 8.0878 0.1100 7.2439
v 5.6525 0.3100 4.1830
v 8.0878 0.2500 7.2439
v 5.6525 0.4500 4.1830
v 5.6525 0.3100 4.1830
v 8.0878 0.1100 7.2439
v 7.0680 0.7000 4.3113
v 5.1373 0.2500 1.9956
v 5.6525 0.4500 4.1830
v 7.0680 0.5600 4.3113
v 5.6525 0.3100 4.1830
v 5.1373 0.1100 1.9956
v 5.6525 0.4500 4.1830
v 5.1373 0.2500 1.9956
v 5.1373 0.1100 1.9956
v 5.6525 0.3100 4.1830
v 7.0680 0.7000 4.3113
v 6.3924 0.4500 2.9572
v 5.1373 0.2500 1.9956
v 7.0680 0.5600 4.3113
v 5.1373 0.1100 1.9956
v 6.3924 0.3100 2.9572
v 5.1373 0.2500 1.9956
v 6.3924 0.4500 2.9572
v 6.3924 0.3100 2.9572
v 5.1373 0.1100 1.9956
v 7.0680 0.7000 4.3113
v 6.1336 0.2500 1.6832
v 6.3924 0.4500 2.9572
v 7.0680 0.5600 4.3113
v 6.3924 0.3100 2.9572
v 6.1336 0.1100 1.6832
v 6.3924 0.4500 2.9572
v 6.1336 0.2500 1.6832
v 6.1336 0.1100 1.6832
v 6.3924 0.3100 2.9572
v 7.0680 0.7000 4.3113
v 9.1883 0.4500 6.0155
v 6.1336 0.2500 1.6832
v 7.0680 0.5600 4.3113
v 6.1336 0.1100 1.6832
v 9.1883 0.3100 6.0155
v 6.1336 0.2500 1.6832
v 9.1883 0.4500 6.0155
v 9.1883 0.3100 6.0155
v 6.1336 0.1100 1.6832
v 7.0680 0.7000 4.3113
v 8.0878 0.2500 7.2439
v 9.1883 0.4500 6.0155
v 7.0680 0.5600 4.3113
v 9.1883 0.3100 6.0155
v 8.0878 0.1100 7.2439
v 9.1883 0.4500 6.0155
v 8.0878 0.2500 7.2439
v 8.0878 0.1100 7.2439
v 9.1883 0.3100 6.0155
v -21.5734 0.7000 -9.5129
v -20.4642 0.4500 -10.4015
v -24.3412 0.2500 -10.9198
v -21.5734 0.5600 -9.5129
v -24.3412 0.1100 -10.9198
v -20.4642 0.3100 -10.4015
v -24.3412 0.2500 -10.9198
v -20.4642 0.4500 -10.4015
v -20.4642 0.3100 -10.4015
v -24.3412 0.1100 -10.9198
v -21.5734 0.7000 -9.5129
v -18.5766 0.2500 -9.1819
v -20.4642 0.4500 -10.4015
v -21.5734 0.5600 -9.5129
v -20.4642 0.3100 -10.4015
v -18.5766 0.1100 -9.1819
v -20.4642 0.4500 -10.4015
v -18.5766 0.2500 -9.1819
v -18.5766 0.1100 -9.1819
v -20.4642 0.3100 -10.4015
v -21.5734 0.7000 -9.5129
v -20.1479 0.4500 -9.0051
v -18.5766 0.2500 -9.1819
v -21.5734 0.5600 -9.5129
v -18.5766 0.1100 -9.1819
v -20.1479 0.3100 -9.0051
v -18.5766 0.2500 -9.1819
v -20.1479 0.4500 -9.0051
v -20.1479 0.3100 -9.0051
v -18.5766 0.1100 -9.1819
v -21.5734 0.7000 -9.5129
v -19.0782 0.2500 -8.2663
v -20.1479 0.4500 -9.0051
v -21.5734 0.5600 -9.5129
v -20.1479 0.3100 -9.0051
v -19.0782 0.1100 -8.2663
v -20.1479 0.4500 -9.0051
v -19.0782 0.2500 -8.2663
v -19.0782 0.1100 -8.2663
v -20.1479 0.3100 -9.0051
v -21.5734 0.7000 -9.5129
v -24.2830 0.4500 -9.2715
v -19.0782 0.2500 -8.2663
v -21.5734 0.5600 -9.5129
v -19.0782 0.1100 -8.2663
v -24.2830 0.3100 -9.2715
v -19.0782 0.2500 -8.2663
v -24.2830 0.4500 -9.2715
v -24.2830 0.3100 -9.2715
v -19.0782 0.1100 -8.2663
v -21.5734 0.7000 -9.5129
v -24.3412 0.2500 -10.9198
v -24.2830 0.4500 -9.2715
v -21.5734 0.5600 -9.5129
v -24.2830 0.3100 -9.2715
v -24.3412 0.1100 -10.9198
v -24.2830 0.4500 -9.2715
v -24.3412 0.2500 -10.9198
v -24.3412 0.1100 -10.9198
v -24.2830 0.3100 -9.2715
v -21.7792 0.7000 17.9833
v -21.2549 0.4500 19.3043
v -19.6227 0.2500 15.7496
v -21.7792 0.5600 17.9833
v -19.6227 0.1100 15.7496
v -21.2549 0.3100 19.3043
v -19.6227 0.2500 15.7496
v -21.2549 0.4500 19.3043
v -21.2549 0.3100 19.3043
v -19.6227 0.1100 15.7496
v -21.7792 0.7000 17.9833
v -22.9742 0.2500 20.7513
v -21.2549 0.4500 19.3043
v -21.7792 0.5600 17.9833
v -21.2549 0.3100 19.3043
v -22.9742 0.1100 20.7513
v -21.2549 0.4500 19.3043
v -22.9742 0.2500 20.7513
v -22.9742 0.1100 20.7513
v -21.2549 0.3100 19.3043
v -21.7792 0.7000 17.9833
v -22.6826 0.4500 19.1973
v -22.9742 0.2500 20.7513
v -21.7792 0.5600 17.9833
v -22.9742 0.1100 20.7513
v -22.6826 0.3100 19.1973
v -22.9742 0.2500 20.7513
v -22.6826 0.4500 19.1973
v -22.6826 0.3100 19.1973
v -22.9742 0.1100 20.7513
v -21.7792 0.7000 17.9833
v -23.7026 0.2500 20.0033
v -22.6826 0.4500 19.1973
v -21.7792 0.5600 17.9833
v -22.6826 0.3100 19.1973
v -23.7026 0.1100 20.0033
v -22.6826 0.4500 19.1973
v -23.7026 0.2500 20.0033
v -23.7026 0.1100 20.0033
v -22.6826 0.3100 19.1973
v -21.7792 0.7000 17.9833
v -21.2156 0.4500 15.3220
v -23.7026 0.2500 20.0033
v -21.7792 0.5600 17.9833
v -23.7026 0.1100 20.0033
v -21.2156 0.3100 15.3220
v -23.7026 0.2500 20.0033
v -21.2156 0.4500 15.3220
v -21.2156 0.3100 15.3220
v -23.7026 0.1100 20.0033
v -21.7792 0.7000 17.9833
v -19.6227 0.2500 15.7496
v -21.2156 0.4500 15.3220
v -21.7792 0.5600 17.9833
v -21.2156 0.3100 15.3220
v -19.6227 0.1100 15.7496
v -21.2156 0.4500 15.3220
v -19.6227 0.2500 15.7496
v -19.6227 0.1100 15.7496
v -21.2156 0.3100 15.3220
v 2.4806 0.7000 -11.2741
v 2.3900 0.4500 -9.8557
v 5.3849 0.2500 -12.3718
v 2.4806 0.5600 -11.2741
v 5.3849 0.1100 -12.3718
v 2.3900 0.3100 -9.8557
v 5.3849 0.2500 -12.3718
v 2.3900 0.4500 -9.8557
v 2.3900 0.3100 -9.8557
v 5.3849 0.1100 -12.3718
v 2.4806 0.7000 -11.2741
v 0.2172 0.2500 -9.2823
v 2.3900 0.4500 -9.8557
v 2.4806 0.5600 -11.2741
v 2.3900 0.3100 -9.8557
v 0.2172 0.1100 -9.2823
v 2.3900 0.4500 -9.8557
v 0.2172 0.2500 -9.2823
v 0.2172 0.1100 -9.2823
v 2.3900 0.3100 -9.8557
v 2.4806 0.7000 -11.2741
v 1.1450 0.4500 -10.5627
v 0.2172 0.2500 -9.2823
v 2.4806 0.5600 -11.2741
v 0.2172 0.1100 -9.2823
v 1.1450 0.3100 -10.5627
v 0.2172 0.2500 -9.2823
v 1.1450 0.4500 -10.5627
v 1.1450 0.3100 -10.5627
v 0.2172 0.1100 -9.2823
v 2.4806 0.7000 -11.2741
v -0.1216 0.2500 -10.2699
v 1.1450 0.4500 -10.5627
v 2.4806 0.5600 -11.2741
v 1.1450 0.3100 -10.5627
v -0.1216 0.1100 -10.2699
v 1.1450 0.4500 -10.5627
v -0.1216 0.2500 -10.2699
v -0.1216 0.1100 -10.2699
v 1.1450 0.3100 -10.5627
v 2.4806 0.7000 -11.2741
v 4.1276 0.4500 -13.4391
v -0.1216 0.2500 -10.2699
v 2.4806 0.5600 -11.2741
v -0.1216 0.1100 -10.2699
v 4.1276 0.3100 -13.4391
v -0.1216 0.2500 -10.2699
v 4.1276 0.4500 -13.4391
v 4.1276 0.3100 -13.4391
v -0.1216 0.1100 -10.2699
v 2.4806 0.7000 -11.2741
v 5.3849 0.2500 -12.3718
v 4.1276 0.4500 -13.4391
v 2.4806 0.5600 -11.2741
v 4.1276 0.3100 -13.4391
v 5.3849 0.1100 -12.3718
v 4.1276 0.4500 -13.4391
v 5.3849 0.2500 -12.3718
v 5.3849 0.1100 -12.3718
v 4.1276 0.3100 -13.4391
v 4.8539 0.7000 -2.7197
v 3.7888 0.4500 -3.6608
v 3.9408 0.2500 0.2478
v 4.8539 0.5600 -2.7197
v 3.9408 0.1100 0.2478
v 3.7888 0.3100 -3.6608
v 3.9408 0.2500 0.2478
v 3.7888 0.4500 -3.6608
v 3.7888 0.3100 -3.6608
v 3.9408 0.1100 0.2478
v 4.8539 0.7000 -2.7197
v 4.6678 0.2500 -5.7290
v 3.7888 0.4500 -3.6608
v 4.8539 0.5600 -2.7197
v 3.7888 0.3100 -3.6608
v 4.6678 0.1100 -5.7290
v 3.7888 0.4500 -3.6608
v 4.6678 0.2500 -5.7290
v 4.6678 0.1100 -5.7290
v 3.7888 0.3100 -3.6608
v 4.8539 0.7000 -2.7197
v 5.1106 0.4500 -4.2111
v 4.6678 0.2500 -5.7290
v 4.8539 0.5600 -2.7197
v 4.6678 0.1100 -5.7290
v 5.1106 0.3100 -4.2111
v 4.6678 0.2500 -5.7290
v 5.1106 0.4500 -4.2111
v 5.1106 0.3100 -4.2111
v 4.6678 0.1100 -5.7290
v 4.8539 0.7000 -2.7197
v 5.6557 0.2500 -5.3913
v 5.1106 0.4500 -4.2111
v 4.8539 0.5600 -2.7197
v 5.1106 0.3100 -4.2111
v 5.6557 0.1100 -5.3913
v 5.1106 0.4500 -4.2111
v 5.6557 0.2500 -5.3913
v 5.6557 0.1100 -5.3913
v 5.1106 0.3100 -4.2111
v 4.8539 0.7000 -2.7197
v 5.5548 0.4500 -0.0913
v 5.6557 0.2500 -5.3913
v 4.8539 0.5600 -2.7197
v 5.6557 0.1100 -5.3913
v 5.5548 0.3100 -0.0913
v 5.6557 0.2500 -5.3913
v 5.5548 0.4500 -0.0913
v 5.5548 0.3100 -0.0913
v 5.6557 0.1100 -5.3913
v 4.8539 0.7000 -2.7197
v 3.9408 0.2500 0.2478
v 5.5548 0.4500 -0.0913
v 4.8539 0.5600 -2.7197
v 5.5548 0.3100 -0.0913
v 3.9408 0.1100 0.2478
v 5.5548 0.4500 -0.0913
v 3.9408 0.2500 0.2478
v 3.9408 0.1100 0.2478
v 5.5548 0.3100 -0.0913
vt 0.000000 0.500000
vt 0.250000 0.500000
vt 0.250000 1.000000
vt 0.000000 0.500000
vt 0.250000 0.500000
vt 0.250000 1.000000
vt 0.000000 0.500000
vt 0.250000 0.500000
vt 0.250000 1.000000
vt 0.000000 1.000000
vt 0.000000 0.500000
vt 0.250000 0.500000
vt 0.250000 1.000000
vt 0.000000 0.500000
vt 0.250000 0.500000
vt 0.250000 1.000000
vt 0.000000 0.500000
vt 0.250000 0.500000
vt 0.250000 1.000000
vt 0.000000 1.000000
vt 0.000000 0.500000
vt 0.250000 0.500000
vt 0.250000 1.000000
vt 0.000000 0.500000
vt 0.250000 0.500000
vt 0.250000 1.000000
vt 0.000000 0.500000
vt 0.250000 0.500000
vt 0.250000 1.000000
vt 0.000000 1.000000
vt 0.000000 0.500000
vt 0.250000 0.500000
vt 0.250000 1.000000
vt 0.000000 0.500000
vt 0.250000 0.500000
vt 0.250000 1.000000
vt 0.000000 0.500000
vt 0.250000 0.500000
vt 0.250000 1.000000
vt 0.000000 1.000000
vt 0.000000 0.500000
vt 0.250000 0.500000
vt 0.250000 1.000000
vt 0.000000 0.500000
vt 0.250000 0.500000
vt 0.250000 1.000000
vt 0.000000 0.500000
vt 0.250000 0.500000
vt 0.250000 1.000000
vt 0.000000 1.000000
vt 0.000000 0.500000
vt 0.250000 0.500000
vt 0.250000 1.000000
vt 0.000000 0.500000
vt 0.250000 0.500000
vt 0.250000 1.000000
vt 0.000000 0.500000
vt 0.250000 0.500000
vt 0.250000 1.000000
vt 0.000000 1.000000
vt 0.250000 0.500000
vt 0.500000 0.500000
vt 0.500000 1.000000
vt 0.250000 0.500000
vt 0.500000 0.500000
vt 0.500000 1.000000
vt 0.250000 0.500000
vt 0.500000 0.500000
vt 0.500000 1.000000
vt 0.250000 1.000000
vt 0.250000 0.500000
vt 0.500000 0.500000
vt 0.500000 1.000000
vt 0.250000 0.500000
vt 0.500000 0.500000
vt 0.500000 1.000000
vt 0.250000 0.500000
vt 0.500000 0.500000
vt 0.500000 1.000000
vt 0.250000 1.000000
vt 0.250000 0.500000
vt 0.500000 0.500000
vt 0.500000 1.000000
vt 0.250000 0.500000
vt 0.500000 0.500000
vt 0.500000 1.000000
vt 0.250000 0.500000
vt 0.500000 0.500000
vt 0.500000 1.000000
vt 0.250000 1.000000
vt 0.250000 0.500000
vt 0.500000 0.500000
vt 0.500000 1.000000
vt 0.250000 0.500000
vt 0.500000 0.500000
vt 0.500000 1.000000
vt 0.250000 0.500000
vt 0.500000 0.500000
vt 0.500000 1.000000
vt 0.250000 1.000000
vt 0.250000 0.500000
vt 0.500000 0.500000
vt 0.500000 1.000000
vt 0.250000 0.500000
vt 0.500000 0.500000
vt 0.500000 1.000000
vt 0.250000 0.500000
vt 0.500000 0.500000
vt 0.500000 1.000000
vt 0.250000 1.000000
vt 0.250000 0.500000
vt 0.500000 0.500000
vt 0.500000 1.000000
vt 0.250000 0.500000
vt 0.500000 0.500000
vt 0.500000 1.000000
vt 0.250000 0.500000
vt 0.500000 0.500000
vt 0.500000 1.000000
vt 0.250000 1.000000
vt 0.250000 0.500000
vt 0.500000 0.500000
vt 0.500000 1.000000
vt 0.250000 0.500000
vt 0.500000 0.500000
vt 0.500000 1.000000
vt 0.250000 0.500000
vt 0.500000 0.500000
vt 0.500000 1.000000
vt 0.250000 1.000000
vt 0.250000 0.500000
vt 0.500000 0.500000
vt 0.500000 1.000000
vt 0.250000 0.500000
vt 0.500000 0.500000
vt 0.500000 1.000000
vt 0.250000 0.500000
vt 0.500000 0.500000
vt 0.500000 1.000000
vt 0.250000 1.000000
vt 0.250000 0.500000
vt 0.500000 0.500000
vt 0.500000 1.000000
vt 0.250000 0.500000
vt 0.500000 0.500000
vt 0.500000 1.000000
vt 0.250000 0.500000
vt 0.500000 0.500000
vt 0.500000 1.000000
vt 0.250000 1.000000
vt 0.250000 0.500000
vt 0.500000 0.500000
vt 0.500000 1.000000
vt 0.250000 0.500000
vt 0.500000 0.500000
vt 0.500000 1.000000
vt 0.250000 0.500000
vt 0.500000 0.500000
vt 0.500000 1.000000
vt 0.250000 1.000000
vt 0.250000 0.500000
vt 0.500000 0.500000
vt 0.500000 1.000000
vt 0.250000 0.500000
vt 0.500000 0.500000
vt 0.500000 1.000000
vt 0.250000 0.500000
vt 0.500000 0.500000
vt 0.500000 1.000000
vt 0.250000 1.000000
vt 0.250000 0.500000
vt 0.500000 0.500000
vt 0.500000 1.000000
vt 0.250000 0.500000
vt 0.500000 0.500000
vt 0.500000 1.000000
vt 0.250000 0.500000
vt 0.500000 0.500000
vt 0.500000 1.000000
vt 0.250000 1.000000
vt 0.000000 0.500000
vt 0.250000 0.500000
vt 0.250000 1.000000
vt 0.000000 0.500000
vt 0.250000 0.500000
vt 0.250000 1.000000
vt 0.000000 0.500000
vt 0.250000 0.500000
vt 0.250000 1.000000
vt 0.000000 1.000000
vt 0.000000 0.500000
vt 0.250000 0.500000
vt 0.250000 1.000000
vt 0.000000 0.500000
vt 0.250000 0.500000
vt 0.250000 1.000000
vt 0.000000 0.500000
vt 0.250000 0.500000
vt 0.250000 1.000000
vt 0.000000 1.000000
vt 0.000000 0.500000
vt 0.250000 0.500000
vt 0.250000 1.000000
vt 0.000000 0.500000
vt 0.250000 0.500000
vt 0.250000 1.000000
vt 0.000000 0.500000
vt 0.250000 0.500000
vt 0.250000 1.000000
vt 0.000000 1.000000
vt 0.000000 0.500000
vt 0.250000 0.500000
vt 0.250000 1.000000
vt 0.000000 0.500000
vt 0.250000 0.500000
vt 0.250000 1.000000
vt 0.000000 0.500000
vt 0.250000 0.500000
vt 0.250000 1.000000
vt 0.000000 1.000000
vt 0.000000 0.500000
vt 0.250000 0.500000
vt 0.250000 1.000000
vt 0.000000 0.500000
vt 0.250000 0.500000
vt 0.250000 1.000000
vt 0.000000 0.500000
vt 0.250000 0.500000
vt 0.250000 1.000000
vt 0.000000 1.000000
vt 0.000000 0.500000
vt 0.250000 0.500000
vt 0.250000 1.000000
vt 0.000000 0.500000
vt 0.250000 0.500000
vt 0.250000 1.000000
vt 0.000000 0.500000
vt 0.250000 0.500000
vt 0.250000 1.000000
vt 0.000000 1.000000
vt 0.250000 0.500000
vt 0.500000 0.500000
vt 0.500000 1.000000
vt 0.250000 0.500000
vt 0.500000 0.500000
vt 0.500000 1.000000
vt 0.250000 0.500000
vt 0.500000 0.500000
vt 0.500000 1.000000
vt 0.250000 1.000000
vt 0.250000 0.500000
vt 0.500000 0.500000
vt 0.500000 1.000000
vt 0.250000 0.500000
vt 0.500000 0.500000
vt 0.500000 1.000000
vt 0.250000 0.500000
vt 0.500000 0.500000
vt 0.500000 1.000000
vt 0.250000 1.000000
vt 0.250000 0.500000
vt 0.500000 0.500000
vt 0.500000 1.000000
vt 0.250000 0.500000
vt 0.500000 0.500000
vt 0.500000 1.000000
vt 0.250000 0.500000
vt 0.500000 0.500000
vt 0.500000 1.000000
vt 0.250000 1.000000
vt 0.250000 0.500000
vt 0.500000 0.500000
vt 0.500000 1.000000
vt 0.250000 0.500000
vt 0.500000 0.500000
vt 0.500000 1.000000
vt 0.250000 0.500000
vt 0.500000 0.500000
vt 0.500000 1.000000
vt 0.250000 1.000000
vt 0.250000 0.500000
vt 0.500000 0.500000
vt 0.500000 1.000000
vt 0.250000 0.500000
vt 0.500000 0.500000
vt 0.500000 1.000000
vt 0.250000 0.500000
vt 0.500000 0.500000
vt 0.500000 1.000000
vt 0.250000 1.000000
vt 0.250000 0.500000
vt 0.500000 0.500000
vt 0.500000 1.000000
vt 0.250000 0.500000
vt 0.500000 0.500000
vt 0.500000 1.000000
vt 0.250000 0.500000
vt 0.500000 0.500000
vt 0.500000 1.000000
vt 0.250000 1.000000
vt 0.250000 0.500000
vt 0.500000 0.500000
vt 0.500000 1.000000
vt 0.250000 0.500000
vt 0.500000 0.500000
vt 0.500000 1.000000
vt 0.250000 0.500000
vt 0.500000 0.500000
vt 0.500000 1.000000
vt 0.250000 1.000000
vt 0.250000 0.500000
vt 0.500000 0.500000
vt 0.500000 1.000000
vt 0.250000 0.500000
vt 0.500000 0.500000
vt 0.500000 1.000000
vt 0.250000 0.500000
vt 0.500000 0.500000
vt 0.500000 1.000000
vt 0.250000 1.000000
vt 0.250000 0.500000
vt 0.500000 0.500000
vt 0.500000 1.000000
vt 0.250000 0.500000
vt 0.500000 0.500000
vt 0.500000 1.000000
vt 0.250000 0.500000
vt 0.500000 0.500000
vt 0.500000 1.000000
vt 0.250000 1.000000
vt 0.250000 0.500000
vt 0.500000 0.500000
vt 0.500000 1.000000
vt 0.250000 0.500000
vt 0.500000 0.500000
vt 0.500000 1.000000
vt 0.250000 0.500000
vt 0.500000 0.500000
vt 0.500000 1.000000
vt 0.250000 1.000000
vt 0.250000 0.500000
vt 0.500000 0.500000
vt 0.500000 1.000000
vt 0.250000 0.500000
vt 0.500000 0.500000
vt 0.500000 1.000000
vt 0.250000 0.500000
vt 0.500000 0.500000
vt 0.500000 1.000000
vt 0.250000 1.000000
vt 0.250000 0.500000
vt 0.500000 0.500000
vt 0.500000 1.000000
vt 0.250000 0.500000
vt 0.500000 0.500000
vt 0.500000 1.000000
vt 0.250000 0.500000
vt 0.500000 0.500000
vt 0.500000 1.000000
vt 0.250000 1.000000
vt 0.000000 0.500000
vt 0.250000 0.500000
vt 0.250000 1.000000
vt 0.000000 0.500000
vt 0.250000 0.500000
vt 0.250000 1.000000
vt 0.000000 0.500000
vt 0.250000 0.500000
vt 0.250000 1.000000
vt 0.000000 1.000000
vt 0.000000 0.500000
vt 0.250000 0.500000
vt 0.250000 1.000000
vt 0.000000 0.500000
vt 0.250000 0.500000
vt 0.250000 1.000000
vt 0.000000 0.500000
vt 0.250000 0.500000
vt 0.250000 1.000000
vt 0.000000 1.000000
vt 0.000000 0.500000
vt 0.250000 0.500000
vt 0.250000 1.000000
vt 0.000000 0.500000
vt 0.250000 0.500000
vt 0.250000 1.000000
vt 0.000000 0.500000
vt 0.250000 0.500000
vt 0.250000 1.000000
vt 0.000000 1.000000
vt 0.000000 0.500000
vt 0.250000 0.500000
vt 0.250000 1.000000
vt 0.000000 0.500000
vt 0.250000 0.500000
vt 0.250000 1.000000
vt 0.000000 0.500000
vt 0.250000 0.500000
vt 0.250000 1.000000
vt 0.000000 1.000000
vt 0.000000 0.500000
vt 0.250000 0.500000
vt 0.250000 1.000000
vt 0.000000 0.500000
vt 0.250000 0.500000
vt 0.250000 1.000000
vt 0.000000 0.500000
vt 0.250000 0.500000
vt 0.250000 1.000000
vt 0.000000 1.000000
vt 0.000000 0.500000
vt 0.250000 0.500000
vt 0.250000 1.000000
vt 0.000000 0.500000
vt 0.250000 0.500000
vt 0.250000 1.000000
vt 0.000000 0.500000
vt 0.250000 0.500000
vt 0.250000 1.000000
vt 0.000000 1.000000
vt 0.250000 0.500000
vt 0.500000 0.500000
vt 0.500000 1.000000
vt 0.250000 0.500000
vt 0.500000 0.500000
vt 0.500000 1.000000
vt 0.250000 0.500000
vt 0.500000 0.500000
vt 0.500000 1.000000
vt 0.250000 1.000000
vt 0.250000 0.500000
vt 0.500000 0.500000
vt 0.500000 1.000000
vt 0.250000 0.500000
vt 0.500000 0.500000
vt 0.500000 1.000000
vt 0.250000 0.500000
vt 0.500000 0.500000
vt 0.500000 1.000000
vt 0.250000 1.000000
vt 0.250000 0.500000
vt 0.500000 0.500000
vt 0.500000 1.000000
vt 0.250000 0.500000
vt 0.500000 0.500000
vt 0.500000 1.000000
vt 0.250000 0.500000
vt 0.500000 0.500000
vt 0.500000 1.000000
vt 0.250000 1.000000
vt 0.250000 0.500000
vt 0.500000 0.500000
vt 0.500000 1.000000
vt 0.250000 0.500000
vt 0.500000 0.500000
vt 0.500000 1.000000
vt 0.250000 0.500000
vt 0.500000 0.500000
vt 0.500000 1.000000
vt 0.250000 1.000000
vt 0.250000 0.500000
vt 0.500000 0.500000
vt 0.500000 1.000000
vt 0.250000 0.500000
vt 0.500000 0.500000
vt 0.500000 1.000000
vt 0.250000 0.500000
vt 0.500000 0.500000
vt 0.500000 1.000000
vt 0.250000 1.000000
vt 0.250000 0.500000
vt 0.500000 0.500000
vt 0.500000 1.000000
vt 0.250000 0.500000
vt 0.500000 0.500000
vt 0.500000 1.000000
vt 0.250000 0.500000
vt 0.500000 0.500000
vt 0.500000 1.000000
vt 0.250000 1.000000
vt 0.250000 0.500000
vt 0.500000 0.500000
vt 0.500000 1.000000
vt 0.250000 0.500000
vt 0.500000 0.500000
vt 0.500000 1.000000
vt 0.250000 0.500000
vt 0.500000 0.500000
vt 0.500000 1.000000
vt 0.250000 1.000000
vt 0.250000 0.500000
vt 0.500000 0.500000
vt 0.500000 1.000000
vt 0.250000 0.500000
vt 0.500000 0.500000
vt 0.500000 1.000000
vt 0.250000 0.500000
vt 0.500000 0.500000
vt 0.500000 1.000000
vt 0.250000 1.000000
vt 0.250000 0.500000
vt 0.500000 0.500000
vt 0.500000 1.000000
vt 0.250000 0.500000
vt 0.500000 0.500000
vt 0.500000 1.000000
vt 0.250000 0.500000
vt 0.500000 0.500000
vt 0.500000 1.000000
vt 0.250000 1.000000
vt 0.250000 0.500000
vt 0.500000 0.500000
vt 0.500000 1.000000
vt 0.250000 0.500000
vt 0.500000 0.500000
vt 0.500000 1.000000
vt 0.250000 0.500000
vt 0.500000 0.500000
vt 0.500000 1.000000
vt 0.250000 1.000000
vt 0.250000 0.500000
vt 0.500000 0.500000
vt 0.500000 1.000000
vt 0.250000 0.500000
vt 0.500000 0.500000
vt 0.500000 1.000000
vt 0.250000 0.500000
vt 0.500000 0.500000
vt 0.500000 1.000000
vt 0.250000 1.000000
vt 0.250000 0.500000
vt 0.500000 0.500000
vt 0.500000 1.000000
vt 0.250000 0.500000
vt 0.500000 0.500000
vt 0.500000 1.000000
vt 0.250000 0.500000
vt 0.500000 0.500000
vt 0.500000 1.000000
vt 0.250000 1.000000
vt 0.000000 0.500000
vt 0.250000 0.500000
vt 0.250000 1.000000
vt 0.000000 0.500000
vt 0.250000 0.500000
vt 0.250000 1.000000
vt 0.000000 0.500000
vt 0.250000 0.500000
vt 0.250000 1.000000
vt 0.000000 1.000000
vt 0.000000 0.500000
vt 0.250000 0.500000
vt 0.250000 1.000000
vt 0.000000 0.500000
vt 0.250000 0.500000
vt 0.250000 1.000000
vt 0.000000 0.500000
vt 0.250000 0.500000
vt 0.250000 1.000000
vt 0.000000 1.000000
vt 0.000000 0.500000
vt 0.250000 0.500000
vt 0.250000 1.000000
vt 0.000000 0.500000
vt 0.250000 0.500000
vt 0.250000 1.000000
vt 0.000000 0.500000
vt 0.250000 0.500000
vt 0.250000 1.000000
vt 0.000000 1.000000
vt 0.000000 0.500000
vt 0.250000 0.500000
vt 0.250000 1.000000
vt 0.000000 0.500000
vt 0.250000 0.500000
vt 0.250000 1.000000
vt 0.000000 0.500000
vt 0.250000 0.500000
vt 0.250000 1.000000
vt 0.000000 1.000000
vt 0.000000 0.500000
vt 0.250000 0.500000
vt 0.250000 1.000000
vt 0.000000 0.500000
vt 0.250000 0.500000
vt 0.250000 1.000000
vt 0.000000 0.500000
vt 0.250000 0.500000
vt 0.250000 1.000000
vt 0.000000 1.000000
vt 0.000000 0.500000
vt 0.250000 0.500000
vt 0.250000 1.000000
vt 0.000000 0.500000
vt 0.250000 0.500000
vt 0.250000 1.000000
vt 0.000000 0.500000
vt 0.250000 0.500000
vt 0.250000 1.000000
vt 0.000000 1.000000
vt 0.250000 0.500000
vt 0.500000 0.500000
vt 0.500000 1.000000
vt 0.250000 0.500000
vt 0.500000 0.500000
vt 0.500000 1.000000
vt 0.250000 0.500000
vt 0.500000 0.500000
vt 0.500000 1.000000
vt 0.250000 1.000000
vt 0.250000 0.500000
vt 0.500000 0.500000
vt 0.500000 1.000000
vt 0.250000 0.500000
vt 0.500000 0.500000
vt 0.500000 1.000000
vt 0.250000 0.500000
vt 0.500000 0.500000
vt 0.500000 1.000000
vt 0.250000 1.000000
vt 0.250000 0.500000
vt 0.500000 0.500000
vt 0.500000 1.000000
vt 0.250000 0.500000
vt 0.500000 0.500000
vt 0.500000 1.000000
vt 0.250000 0.500000
vt 0.500000 0.500000
vt 0.500000 1.000000
vt 0.250000 1.000000
vt 0.250000 0.500000
vt 0.500000 0.500000
vt 0.500000 1.000000
vt 0.250000 0.500000
vt 0.500000 0.500000
vt 0.500000 1.000000
vt 0.250000 0.500000
vt 0.500000 0.500000
vt 0.500000 1.000000
vt 0.250000 1.000000
vt 0.250000 0.500000
vt 0.500000 0.500000
vt 0.500000 1.000000
vt 0.250000 0.500000
vt 0.500000 0.500000
vt 0.500000 1.000000
vt 0.250000 0.500000
vt 0.500000 0.500000
vt 0.500000 1.000000
vt 0.250000 1.000000
vt 0.250000 0.500000
vt 0.500000 0.500000
vt 0.500000 1.000000
vt 0.250000 0.500000
vt 0.500000 0.500000
vt 0.500000 1.000000
vt 0.250000 0.500000
vt 0.500000 0.500000
vt 0.500000 1.000000
vt 0.250000 1.000000
vt 0.250000 0.500000
vt 0.500000 0.500000
vt 0.500000 1.000000
vt 0.250000 0.500000
vt 0.500000 0.500000
vt 0.500000 1.000000
vt 0.250000 0.500000
vt 0.500000 0.500000
vt 0.500000 1.000000
vt 0.250000 1.000000
vt 0.250000 0.500000
vt 0.500000 0.500000
vt 0.500000 1.000000
vt 0.250000 0.500000
vt 0.500000 0.500000
vt 0.500000 1.000000
vt 0.250000 0.500000
vt 0.500000 0.500000
vt 0.500000 1.000000
vt 0.250000 1.000000
vt 0.250000 0.500000
vt 0.500000 0.500000
vt 0.500000 1.000000
vt 0.250000 0.500000
vt 0.500000 0.500000
vt 0.500000 1.000000
vt 0.250000 0.500000
vt 0.500000 0.500000
vt 0.500000 1.000000
vt 0.250000 1.000000
vt 0.250000 0.500000
vt 0.500000 0.500000
vt 0.500000 1.000000
vt 0.250000 0.500000
vt 0.500000 0.500000
vt 0.500000 1.000000
vt 0.250000 0.500000
vt 0.500000 0.500000
vt 0.500000 1.000000
vt 0.250000 1.000000
vt 0.250000 0.500000
vt 0.500000 0.500000
vt 0.500000 1.000000
vt 0.250000 0.500000
vt 0.500000 0.500000
vt 0.500000 1.000000
vt 0.250000 0.500000
vt 0.500000 0.500000
vt 0.500000 1.000000
vt 0.250000 1.000000
vt 0.250000 0.500000
vt 0.500000 0.500000
vt 0.500000 1.000000
vt 0.250000 0.500000
vt 0.500000 0.500000
vt 0.500000 1.000000
vt 0.250000 0.500000
vt 0.500000 0.500000
vt 0.500000 1.000000
vt 0.250000 1.000000
vt 0.000000 0.500000
vt 0.250000 0.500000
vt 0.250000 1.000000
vt 0.000000 0.500000
vt 0.250000 0.500000
vt 0.250000 1.000000
vt 0.000000 0.500000
vt 0.250000 0.500000
vt 0.250000 1.000000
vt 0.000000 1.000000
vt 0.000000 0.500000
vt 0.250000 0.500000
vt 0.250000 1.000000
vt 0.000000 0.500000
vt 0.250000 0.500000
vt 0.250000 1.000000
vt 0.000000 0.500000
vt 0.250000 0.500000
vt 0.250000 1.000000
vt 0.000000 1.000000
vt 0.000000 0.500000
vt 0.250000 0.500000
vt 0.250000 1.000000
vt 0.000000 0.500000
vt 0.250000 0.500000
vt 0.250000 1.000000
vt 0.000000 0.500000
vt 0.250000 0.500000
vt 0.250000 1.000000
vt 0.000000 1.000000
vt 0.000000 0.500000
vt 0.250000 0.500000
vt 0.250000 1.000000
vt 0.000000 0.500000
vt 0.250000 0.500000
vt 0.250000 1.000000
vt 0.000000 0.500000
vt 0.250000 0.500000
vt 0.250000 1.000000
vt 0.000000 1.000000
vt 0.000000 0.500000
vt 0.250000 0.500000
vt 0.250000 1.000000
vt 0.000000 0.500000
vt 0.250000 0.500000
vt 0.250000 1.000000
vt 0.000000 0.500000
vt 0.250000 0.500000
vt 0.250000 1.000000
vt 0.000000 1.000000
vt 0.000000 0.500000
vt 0.250000 0.500000
vt 0.250000 1.000000
vt 0.000000 0.500000
vt 0.250000 0.500000
vt 0.250000 1.000000
vt 0.000000 0.500000
vt 0.250000 0.500000
vt 0.250000 1.000000
vt 0.000000 1.000000
f 1/1 2/2 3/3
f 4/4 5/5 6/6
f 7/7 8/8 9/9 10/10
f 11/11 12/12 13/13
f 14/14 15/15 16/16
f 17/17 18/18 19/19 20/20
f 21/21 22/22 23/23
f 24/24 25/25 26/26
f 27/27 28/28 29/29 30/30
f 31/31 32/32 33/33
f 34/34 35/35 36/36
f 37/37 38/38 39/39 40/40
f 41/41 42/42 43/43
f 44/44 45/45 46/46
f 47/47 48/48 49/49 50/50
f 51/51 52/52 53/53
f 54/54 55/55 56/56
f 57/57 58/58 59/59 60/60
f 61/61 62/62 63/63
f 64/64 65/65 66/66
f 67/67 68/68 69/69 70/70
f 71/71 72/72 73/73
f 74/74 75/75 76/76
f 77/77 78/78 79/79 80/80
f 81/81 82/82 83/83
f 84/84 85/85 86/86
f 87/87 88/88 89/89 90/90
f 91/91 92/92 93/93
f 94/94 95/95 96/96
f 97/97 98/98 99/99 100/100
f 101/101 102/102 103/103
f 104/104 105/105 106/106
f 107/107 108/108 109/109 110/110
f 111/111 112/112 113/113
f 114/114 115/115 116/116
f 117/117 118/118 119/119 120/120
f 121/121 122/122 123/123
f 124/124 125/125 126/126
f 127/127 128/128 129/129 130/130
f 131/131 132/132 133/133
f 134/134 135/135 136/136
f 137/137 138/138 139/139 140/140
f 141/141 142/142 143/143
f 144/144 145/145 146/146
f 147/147 148/148 149/149 150/150
f 151/151 152/152 153/153
f 154/154 155/155 156/156
f 157/157 158/158 159/159 160/160
f 161/161 162/162 163/163
f 164/164 165/165 166/166
f 167/167 168/168 169/169 170/170
f 171/171 172/172 173/173
f 174/174 175/175 176/176
f 177/177 178/178 179/179 180/180
f 181/181 182/182 183/183
f 184/184 185/185 186/186
f 187/187 188/188 189/189 190/190
f 191/191 192/192 193/193
f 194/194 195/195 196/196
f 197/197 198/198 199/199 200/200
f 201/201 202/202 203/203
f 204/204 205/205 206/206
f 207/207 208/208 209/209 210/210
f 211/211 212/212 213/213
f 214/214 215/215 216/216
f 217/217 218/218 219/219 220/220
f 221/221 222/222 223/223
f 224/224 225/225 226/226
f 227/227 228/228 229/229 230/230
f 231/231 232/232 233/233
f 234/234 235/235 236/236
f 237/237 238/238 239/239 240/240
f 241/241 242/242 243/243
f 244/244 245/245 246/246
f 247/247 248/248 249/249 250/250
f 251/251 252/252 253/253
f 254/254 255/255 256/256
f 257/257 258/258 259/259 260/260
f 261/261 262/262 263/263
f 264/264 265/265 266/266
f 267/267 268/268 269/269 270/270
f 271/271 272/272 273/273
f 274/274 275/275 276/276
f 277/277 278/278 279/279 280/280
f 281/281 282/282 283/283
f 284/284 285/285 286/286
f 287/287 288/288 289/289 290/290
f 291/291 292/292 293/293
f 294/294 295/295 296/296
f 297/297 298/298 299/299 300/300
f 301/301 302/302 303/303
f 304/304 305/305 306/306
f 307/307 308/308 309/309 310/310
f 311/311 312/312 313/313
f 314/314 315/315 316/316
f 317/317 318/318 319/319 320/320
f 321/321 322/322 323/323
f 324/324 325/325 326/326
f 327/327 328/328 329/329 330/330
f 331/331 332/332 333/333
f 334/334 335/335 336/336
f 337/337 338/338 339/339 340/340
f 341/341 342/342 343/343
f 344/344 345/345 346/346
f 347/347 348/348 349/349 350/350
f 351/351 352/352 353/353
f 354/354 355/355 356/356
f 357/357 358/358 359/359 360/360
f 361/361 362/362 363/363
f 364/364 365/365 366/366
f 367/367 368/368 369/369 370/370
f 371/371 372/372 373/373
f 374/374 375/375 376/376
f 377/377 378/378 379/379 380/380
f 381/381 382/382 383/383
f 384/384 385/385 386/386
f 387/387 388/388 389/389 390/390
f 391/391 392/392 393/393
f 394/394 395/395 396/396
f 397/397 398/398 399/399 400/400
f 401/401 402/402 403/403
f 404/404 405/405 406/406
f 407/407 408/408 409/409 410/410
f 411/411 412/412 413/413
f 414/414 415/415 416/416
f 417/417 418/418 419/419 420/420
f 421/421 422/422 423/423
f 424/424 425/425 426/426
f 427/427 428/428 429/429 430/430
f 431/431 432/432 433/433
f 434/434 435/435 436/436
f 437/437 438/438 439/439 440/440
f 441/441 442/442 443/443
f 444/444 445/445 446/446
f 447/447 448/448 449/449 450/450
f 451/451 452/452 453/453
f 454/454 455/455 456/456
f 457/457 458/458 459/459 460/460
f 461/461 462/462 463/463
f 464/464 465/465 466/466
f 467/467 468/468 469/469 470/470
f 471/471 472/472 473/473
f 474/474 475/475 476/476
f 477/477 478/478 479/479 480/480
f 481/481 482/482 483/483
f 484/484 485/485 486/486
f 487/487 488/488 489/489 490/490
f 491/491 492/492 493/493
f 494/494 495/495 496/496
f 497/497 498/498 499/499 500/500
f 501/501 502/502 503/503
f 504/504 505/505 506/506
f 507/507 508/508 509/509 510/510
f 511/511 512/512 513/513
f 514/514 515/515 516/516
f 517/517 518/518 519/519 520/520
f 521/521 522/522 523/523
f 524/524 525/525 526/526
f 527/527 528/528 529/529 530/530
f 531/531 532/532 533/533
f 534/534 535/535 536/536
f 537/537 538/538 539/539 540/540
f 541/541 542/542 543/543
f 544/544 545/545 546/546
f 547/547 548/548 549/549 550/550
f 551/551 552/552 553/553
f 554/554 555/555 556/556
f 557/557 558/558 559/559 560/560
f 561/561 562/562 563/563
f 564/564 565/565 566/566
f 567/567 568/568 569/569 570/570
f 571/571 572/572 573/573
f 574/574 575/575 576/576
f 577/577 578/578 579/579 580/580
f 581/581 582/582 583/583
f 584/584 585/585 586/586
f 587/587 588/588 589/589 590/590
f 591/591 592/592 593/593
f 594/594 595/595 596/596
f 597/597 598/598 599/599 600/600
f 601/601 602/602 603/603
f 604/604 605/605 606/606
f 607/607 608/608 609/609 610/610
f 611/611 612/612 613/613
f 614/614 615/615 616/616
f 617/617 618/618 619/619 620/620
f 621/621 622/622 623/623
f 624/624 625/625 626/626
f 627/627 628/628 629/629 630/630
f 631/631 632/632 633/633
f 634/634 635/635 636/636
f 637/637 638/638 639/639 640/640
f 641/641 642/642 643/643
f 644/644 645/645 646/646
f 647/647 648/648 649/649 650/650
f 651/651 652/652 653/653
f 654/654 655/655 656/656
f 657/657 658/658 659/659 660/660
f 661/661 662/662 663/663
f 664/664 665/665 666/666
f 667/667 668/668 669/669 670/670
f 671/671 672/672 673/673
f 674/674 675/675 676/676
f 677/677 678/678 679/679 680/680
f 681/681 682/682 683/683
f 684/684 685/685 686/686
f 687/687 688/688 689/689 690/690
f 691/691 692/692 693/693
f 694/694 695/695 696/696
f 697/697 698/698 699/699 700/700
f 701/701 702/702 703/703
f 704/704 705/705 706/706
f 707/707 708/708 709/709 710/710
f 711/711 712/712 713/713
f 714/714 715/715 716/716
f 717/717 718/718 719/719 720/720
f 721/721 722/722 723/723
f 724/724 725/725 726/726
f 727/727 728/728 729/729 730/730
f 731/731 732/732 733/733
f 734/734 735/735 736/736
f 737/737 738/738 739/739 740/740
f 741/741 742/742 743/743
f 744/744 745/745 746/746
f 747/747 748/748 749/749 750/750
f 751/751 752/752 753/753
f 754/754 755/755 756/756
f 757/757 758/758 759/759 760/760
f 761/761 762/762 763/763
f 764/764 765/765 766/766
f 767/767 768/768 769/769 770/770
f 771/771 772/772 773/773
f 774/774 775/775 776/776
f 777/777 778/778 779/779 780/780
