o Net
v -25.3500 2.0000 -25.0000
v -25.2475 1.7525 -25.0000
v -25.2475 1.7525 25.0000
v -25.3500 2.0000 25.0000
v -25.2475 1.7525 -25.0000
v -25.0000 1.6500 -25.0000
v -25.0000 1.6500 25.0000
v -25.2475 1.7525 25.0000
v -25.0000 1.6500 -25.0000
v -24.7525 1.7525 -25.0000
v -24.7525 1.7525 25.0000
v -25.0000 1.6500 25.0000
v -24.7525 1.7525 -25.0000
v -24.6500 2.0000 -25.0000
v -24.6500 2.0000 25.0000
v -24.7525 1.7525 25.0000
v -24.6500 2.0000 -25.0000
v -24.7525 2.2475 -25.0000
v -24.7525 2.2475 25.0000
v -24.6500 2.0000 25.0000
v -24.7525 2.2475 -25.0000
v -25.0000 2.3500 -25.0000
v -25.0000 2.3500 25.0000
v -24.7525 2.2475 25.0000
v -25.0000 2.3500 -25.0000
v -25.2475 2.2475 -25.0000
v -25.2475 2.2475 25.0000
v -25.0000 2.3500 25.0000
v -25.2475 2.2475 -25.0000
v -25.3500 2.0000 -25.0000
v -25.3500 2.0000 25.0000
v -25.2475 2.2475 25.0000
v -25.3500 2.0000 -25.0000
v -25.2475 1.7525 -25.0000
v -25.0000 1.6500 -25.0000
v -25.3500 2.0000 -25.0000
v -25.0000 1.6500 -25.0000
v -24.7525 1.7525 -25.0000
v -25.3500 2.0000 -25.0000
v -24.7525 1.7525 -25.0000
v -24.6500 2.0000 -25.0000
v -25.3500 2.0000 -25.0000
v -24.6500 2.0000 -25.0000
v -24.7525 2.2475 -25.0000
v -25.3500 2.0000 -25.0000
v -24.7525 2.2475 -25.0000
v -25.0000 2.3500 -25.0000
v -25.3500 2.0000 -25.0000
v -25.0000 2.3500 -25.0000
v -25.2475 2.2475 -25.0000
v -25.3500 2.0000 25.0000
v -25.2475 1.7525 25.0000
v -25.0000 1.6500 25.0000
v -25.3500 2.0000 25.0000
v -25.0000 1.6500 25.0000
v -24.7525 1.7525 25.0000
v -25.3500 2.0000 25.0000
v -24.7525 1.7525 25.0000
v -24.6500 2.0000 25.0000
v -25.3500 2.0000 25.0000
v -24.6500 2.0000 25.0000
v -24.7525 2.2475 25.0000
v -25.3500 2.0000 25.0000
v -24.7525 2.2475 25.0000
v -25.0000 2.3500 25.0000
v -25.3500 2.0000 25.0000
v -25.0000 2.3500 25.0000
v -25.2475 2.2475 25.0000
v -25.0000 2.0000 -24.6500
v -25.0000 1.7525 -24.7525
v 25.0000 1.7525 -24.7525
v 25.0000 2.0000 -24.6500
v -25.0000 1.7525 -24.7525
v -25.0000 1.6500 -25.0000
v 25.0000 1.6500 -25.0000
v 25.0000 1.7525 -24.7525
v -25.0000 1.6500 -25.0000
v -25.0000 1.7525 -25.2475
v 25.0000 1.7525 -25.2475
v 25.0000 1.6500 -25.0000
v -25.0000 1.7525 -25.2475
v -25.0000 2.0000 -25.3500
v 25.0000 2.0000 -25.3500
v 25.0000 1.7525 -25.2475
v -25.0000 2.0000 -25.3500
v -25.0000 2.2475 -25.2475
v 25.0000 2.2475 -25.2475
v 25.0000 2.0000 -25.3500
v -25.0000 2.2475 -25.2475
v -25.0000 2.3500 -25.0000
v 25.0000 2.3500 -25.0000
v 25.0000 2.2475 -25.2475
v -25.0000 2.3500 -25.0000
v -25.0000 2.2475 -24.7525
v 25.0000 2.2475 -24.7525
v 25.0000 2.3500 -25.0000
v -25.0000 2.2475 -24.7525
v -25.0000 2.0000 -24.6500
v 25.0000 2.0000 -24.6500
v 25.0000 2.2475 -24.7525
v -25.0000 2.0000 -24.6500
v -25.0000 1.7525 -24.7525
v -25.0000 1.6500 -25.0000
v -25.0000 2.0000 -24.6500
v -25.0000 1.6500 -25.0000
v -25.0000 1.7525 -25.2475
v -25.0000 2.0000 -24.6500
v -25.0000 1.7525 -25.2475
v -25.0000 2.0000 -25.3500
v -25.0000 2.0000 -24.6500
v -25.0000 2.0000 -25.3500
v -25.0000 2.2475 -25.2475
v -25.0000 2.0000 -24.6500
v -25.0000 2.2475 -25.2475
v -25.0000 2.3500 -25.0000
v -25.0000 2.0000 -24.6500
v -25.0000 2.3500 -25.0000
v -25.0000 2.2475 -24.7525
v 25.0000 2.0000 -24.6500
v 25.0000 1.7525 -24.7525
v 25.0000 1.6500 -25.0000
v 25.0000 2.0000 -24.6500
v 25.0000 1.6500 -25.0000
v 25.0000 1.7525 -25.2475
v 25.0000 2.0000 -24.6500
v 25.0000 1.7525 -25.2475
v 25.0000 2.0000 -25.3500
v 25.0000 2.0000 -24.6500
v 25.0000 2.0000 -25.3500
v 25.0000 2.2475 -25.2475
v 25.0000 2.0000 -24.6500
v 25.0000 2.2475 -25.2475
v 25.0000 2.3500 -25.0000
v 25.0000 2.0000 -24.6500
v 25.0000 2.3500 -25.0000
v 25.0000 2.2475 -24.7525
v -17.3500 2.0000 -25.0000
v -17.2475 1.7525 -25.0000
v -17.2475 1.7525 25.0000
v -17.3500 2.0000 25.0000
v -17.2475 1.7525 -25.0000
v -17.0000 1.6500 -25.0000
v -17.0000 1.6500 25.0000
v -17.2475 1.7525 25.0000
v -17.0000 1.6500 -25.0000
v -16.7525 1.7525 -25.0000
v -16.7525 1.7525 25.0000
v -17.0000 1.6500 25.0000
v -16.7525 1.7525 -25.0000
v -16.6500 2.0000 -25.0000
v -16.6500 2.0000 25.0000
v -16.7525 1.7525 25.0000
v -16.6500 2.0000 -25.0000
v -16.7525 2.2475 -25.0000
v -16.7525 2.2475 25.0000
v -16.6500 2.0000 25.0000
v -16.7525 2.2475 -25.0000
v -17.0000 2.3500 -25.0000
v -17.0000 2.3500 25.0000
v -16.7525 2.2475 25.0000
v -17.0000 2.3500 -25.0000
v -17.2475 2.2475 -25.0000
v -17.2475 2.2475 25.0000
v -17.0000 2.3500 25.0000
v -17.2475 2.2475 -25.0000
v -17.3500 2.0000 -25.0000
v -17.3500 2.0000 25.0000
v -17.2475 2.2475 25.0000
v -17.3500 2.0000 -25.0000
v -17.2475 1.7525 -25.0000
v -17.0000 1.6500 -25.0000
v -17.3500 2.0000 -25.0000
v -17.0000 1.6500 -25.0000
v -16.7525 1.7525 -25.0000
v -17.3500 2.0000 -25.0000
v -16.7525 1.7525 -25.0000
v -16.6500 2.0000 -25.0000
v -17.3500 2.0000 -25.0000
v -16.6500 2.0000 -25.0000
v -16.7525 2.2475 -25.0000
v -17.3500 2.0000 -25.0000
v -16.7525 2.2475 -25.0000
v -17.0000 2.3500 -25.0000
v -17.3500 2.0000 -25.0000
v -17.0000 2.3500 -25.0000
v -17.2475 2.2475 -25.0000
v -17.3500 2.0000 25.0000
v -17.2475 1.7525 25.0000
v -17.0000 1.6500 25.0000
v -17.3500 2.0000 25.0000
v -17.0000 1.6500 25.0000
v -16.7525 1.7525 25.0000
v -17.3500 2.0000 25.0000
v -16.7525 1.7525 25.0000
v -16.6500 2.0000 25.0000
v -17.3500 2.0000 25.0000
v -16.6500 2.0000 25.0000
v -16.7525 2.2475 25.0000
v -17.3500 2.0000 25.0000
v -16.7525 2.2475 25.0000
v -17.0000 2.3500 25.0000
v -17.3500 2.0000 25.0000
v -17.0000 2.3500 25.0000
v -17.2475 2.2475 25.0000
v -25.0000 2.0000 -16.6500
v -25.0000 1.7525 -16.7525
v 25.0000 1.7525 -16.7525
v 25.0000 2.0000 -16.6500
v -25.0000 1.7525 -16.7525
v -25.0000 1.6500 -17.0000
v 25.0000 1.6500 -17.0000
v 25.0000 1.7525 -16.7525
v -25.0000 1.6500 -17.0000
v -25.0000 1.7525 -17.2475
v 25.0000 1.7525 -17.2475
v 25.0000 1.6500 -17.0000
v -25.0000 1.7525 -17.2475
v -25.0000 2.0000 -17.3500
v 25.0000 2.0000 -17.3500
v 25.0000 1.7525 -17.2475
v -25.0000 2.0000 -17.3500
v -25.0000 2.2475 -17.2475
v 25.0000 2.2475 -17.2475
v 25.0000 2.0000 -17.3500
v -25.0000 2.2475 -17.2475
v -25.0000 2.3500 -17.0000
v 25.0000 2.3500 -17.0000
v 25.0000 2.2475 -17.2475
v -25.0000 2.3500 -17.0000
v -25.0000 2.2475 -16.7525
v 25.0000 2.2475 -16.7525
v 25.0000 2.3500 -17.0000
v -25.0000 2.2475 -16.7525
v -25.0000 2.0000 -16.6500
v 25.0000 2.0000 -16.6500
v 25.0000 2.2475 -16.7525
v -25.0000 2.0000 -16.6500
v -25.0000 1.7525 -16.7525
v -25.0000 1.6500 -17.0000
v -25.0000 2.0000 -16.6500
v -25.0000 1.6500 -17.0000
v -25.0000 1.7525 -17.2475
v -25.0000 2.0000 -16.6500
v -25.0000 1.7525 -17.2475
v -25.0000 2.0000 -17.3500
v -25.0000 2.0000 -16.6500
v -25.0000 2.0000 -17.3500
v -25.0000 2.2475 -17.2475
v -25.0000 2.0000 -16.6500
v -25.0000 2.2475 -17.2475
v -25.0000 2.3500 -17.0000
v -25.0000 2.0000 -16.6500
v -25.0000 2.3500 -17.0000
v -25.0000 2.2475 -16.7525
v 25.0000 2.0000 -16.6500
v 25.0000 1.7525 -16.7525
v 25.0000 1.6500 -17.0000
v 25.0000 2.0000 -16.6500
v 25.0000 1.6500 -17.0000
v 25.0000 1.7525 -17.2475
v 25.0000 2.0000 -16.6500
v 25.0000 1.7525 -17.2475
v 25.0000 2.0000 -17.3500
v 25.0000 2.0000 -16.6500
v 25.0000 2.0000 -17.3500
v 25.0000 2.2475 -17.2475
v 25.0000 2.0000 -16.6500
v 25.0000 2.2475 -17.2475
v 25.0000 2.3500 -17.0000
v 25.0000 2.0000 -16.6500
v 25.0000 2.3500 -17.0000
v 25.0000 2.2475 -16.7525
v -9.3500 2.0000 -25.0000
v -9.2475 1.7525 -25.0000
v -9.2475 1.7525 25.0000
v -9.3500 2.0000 25.0000
v -9.2475 1.7525 -25.0000
v -9.0000 1.6500 -25.0000
v -9.0000 1.6500 25.0000
v -9.2475 1.7525 25.0000
v -9.0000 1.6500 -25.0000
v -8.7525 1.7525 -25.0000
v -8.7525 1.7525 25.0000
v -9.0000 1.6500 25.0000
v -8.7525 1.7525 -25.0000
v -8.6500 2.0000 -25.0000
v -8.6500 2.0000 25.0000
v -8.7525 1.7525 25.0000
v -8.6500 2.0000 -25.0000
v -8.7525 2.2475 -25.0000
v -8.7525 2.2475 25.0000
v -8.6500 2.0000 25.0000
v -8.7525 2.2475 -25.0000
v -9.0000 2.3500 -25.0000
v -9.0000 2.3500 25.0000
v -8.7525 2.2475 25.0000
v -9.0000 2.3500 -25.0000
v -9.2475 2.2475 -25.0000
v -9.2475 2.2475 25.0000
v -9.0000 2.3500 25.0000
v -9.2475 2.2475 -25.0000
v -9.3500 2.0000 -25.0000
v -9.3500 2.0000 25.0000
v -9.2475 2.2475 25.0000
v -9.3500 2.0000 -25.0000
v -9.2475 1.7525 -25.0000
v -9.0000 1.6500 -25.0000
v -9.3500 2.0000 -25.0000
v -9.0000 1.6500 -25.0000
v -8.7525 1.7525 -25.0000
v -9.3500 2.0000 -25.0000
v -8.7525 1.7525 -25.0000
v -8.6500 2.0000 -25.0000
v -9.3500 2.0000 -25.0000
v -8.6500 2.0000 -25.0000
v -8.7525 2.2475 -25.0000
v -9.3500 2.0000 -25.0000
v -8.7525 2.2475 -25.0000
v -9.0000 2.3500 -25.0000
v -9.3500 2.0000 -25.0000
v -9.0000 2.3500 -25.0000
v -9.2475 2.2475 -25.0000
v -9.3500 2.0000 25.0000
v -9.2475 1.7525 25.0000
v -9.0000 1.6500 25.0000
v -9.3500 2.0000 25.0000
v -9.0000 1.6500 25.0000
v -8.7525 1.7525 25.0000
v -9.3500 2.0000 25.0000
v -8.7525 1.7525 25.0000
v -8.6500 2.0000 25.0000
v -9.3500 2.0000 25.0000
v -8.6500 2.0000 25.0000
v -8.7525 2.2475 25.0000
v -9.3500 2.0000 25.0000
v -8.7525 2.2475 25.0000
v -9.0000 2.3500 25.0000
v -9.3500 2.0000 25.0000
v -9.0000 2.3500 25.0000
v -9.2475 2.2475 25.0000
v -25.0000 2.0000 -8.6500
v -25.0000 1.7525 -8.7525
v 25.0000 1.7525 -8.7525
v 25.0000 2.0000 -8.6500
v -25.0000 1.7525 -8.7525
v -25.0000 1.6500 -9.0000
v 25.0000 1.6500 -9.0000
v 25.0000 1.7525 -8.7525
v -25.0000 1.6500 -9.0000
v -25.0000 1.7525 -9.2475
v 25.0000 1.7525 -9.2475
v 25.0000 1.6500 -9.0000
v -25.0000 1.7525 -9.2475
v -25.0000 2.0000 -9.3500
v 25.0000 2.0000 -9.3500
v 25.0000 1.7525 -9.2475
v -25.0000 2.0000 -9.3500
v -25.0000 2.2475 -9.2475
v 25.0000 2.2475 -9.2475
v 25.0000 2.0000 -9.3500
v -25.0000 2.2475 -9.2475
v -25.0000 2.3500 -9.0000
v 25.0000 2.3500 -9.0000
v 25.0000 2.2475 -9.2475
v -25.0000 2.3500 -9.0000
v -25.0000 2.2475 -8.7525
v 25.0000 2.2475 -8.7525
v 25.0000 2.3500 -9.0000
v -25.0000 2.2475 -8.7525
v -25.0000 2.0000 -8.6500
v 25.0000 2.0000 -8.6500
v 25.0000 2.2475 -8.7525
v -25.0000 2.0000 -8.6500
v -25.0000 1.7525 -8.7525
v -25.0000 1.6500 -9.0000
v -25.0000 2.0000 -8.6500
v -25.0000 1.6500 -9.0000
v -25.0000 1.7525 -9.2475
v -25.0000 2.0000 -8.6500
v -25.0000 1.7525 -9.2475
v -25.0000 2.0000 -9.3500
v -25.0000 2.0000 -8.6500
v -25.0000 2.0000 -9.3500
v -25.0000 2.2475 -9.2475
v -25.0000 2.0000 -8.6500
v -25.0000 2.2475 -9.2475
v -25.0000 2.3500 -9.0000
v -25.0000 2.0000 -8.6500
v -25.0000 2.3500 -9.0000
v -25.0000 2.2475 -8.7525
v 25.0000 2.0000 -8.6500
v 25.0000 1.7525 -8.7525
v 25.0000 1.6500 -9.0000
v 25.0000 2.0000 -8.6500
v 25.0000 1.6500 -9.0000
v 25.0000 1.7525 -9.2475
v 25.0000 2.0000 -8.6500
v 25.0000 1.7525 -9.2475
v 25.0000 2.0000 -9.3500
v 25.0000 2.0000 -8.6500
v 25.0000 2.0000 -9.3500
v 25.0000 2.2475 -9.2475
v 25.0000 2.0000 -8.6500
v 25.0000 2.2475 -9.2475
v 25.0000 2.3500 -9.0000
v 25.0000 2.0000 -8.6500
v 25.0000 2.3500 -9.0000
v 25.0000 2.2475 -8.7525
v -1.3500 2.0000 -25.0000
v -1.2475 1.7525 -25.0000
v -1.2475 1.7525 25.0000
v -1.3500 2.0000 25.0000
v -1.2475 1.7525 -25.0000
v -1.0000 1.6500 -25.0000
v -1.0000 1.6500 25.0000
v -1.2475 1.7525 25.0000
v -1.0000 1.6500 -25.0000
v -0.7525 1.7525 -25.0000
v -0.7525 1.7525 25.0000
v -1.0000 1.6500 25.0000
v -0.7525 1.7525 -25.0000
v -0.6500 2.0000 -25.0000
v -0.6500 2.0000 25.0000
v -0.7525 1.7525 25.0000
v -0.6500 2.0000 -25.0000
v -0.7525 2.2475 -25.0000
v -0.7525 2.2475 25.0000
v -0.6500 2.0000 25.0000
v -0.7525 2.2475 -25.0000
v -1.0000 2.3500 -25.0000
v -1.0000 2.3500 25.0000
v -0.7525 2.2475 25.0000
v -1.0000 2.3500 -25.0000
v -1.2475 2.2475 -25.0000
v -1.2475 2.2475 25.0000
v -1.0000 2.3500 25.0000
v -1.2475 2.2475 -25.0000
v -1.3500 2.0000 -25.0000
v -1.3500 2.0000 25.0000
v -1.2475 2.2475 25.0000
v -1.3500 2.0000 -25.0000
v -1.2475 1.7525 -25.0000
v -1.0000 1.6500 -25.0000
v -1.3500 2.0000 -25.0000
v -1.0000 1.6500 -25.0000
v -0.7525 1.7525 -25.0000
v -1.3500 2.0000 -25.0000
v -0.7525 1.7525 -25.0000
v -0.6500 2.0000 -25.0000
v -1.3500 2.0000 -25.0000
v -0.6500 2.0000 -25.0000
v -0.7525 2.2475 -25.0000
v -1.3500 2.0000 -25.0000
v -0.7525 2.2475 -25.0000
v -1.0000 2.3500 -25.0000
v -1.3500 2.0000 -25.0000
v -1.0000 2.3500 -25.0000
v -1.2475 2.2475 -25.0000
v -1.3500 2.0000 25.0000
v -1.2475 1.7525 25.0000
v -1.0000 1.6500 25.0000
v -1.3500 2.0000 25.0000
v -1.0000 1.6500 25.0000
v -0.7525 1.7525 25.0000
v -1.3500 2.0000 25.0000
v -0.7525 1.7525 25.0000
v -0.6500 2.0000 25.0000
v -1.3500 2.0000 25.0000
v -0.6500 2.0000 25.0000
v -0.7525 2.2475 25.0000
v -1.3500 2.0000 25.0000
v -0.7525 2.2475 25.0000
v -1.0000 2.3500 25.0000
v -1.3500 2.0000 25.0000
v -1.0000 2.3500 25.0000
v -1.2475 2.2475 25.0000
v -25.0000 2.0000 -0.6500
v -25.0000 1.7525 -0.7525
v 25.0000 1.7525 -0.7525
v 25.0000 2.0000 -0.6500
v -25.0000 1.7525 -0.7525
v -25.0000 1.6500 -1.0000
v 25.0000 1.6500 -1.0000
v 25.0000 1.7525 -0.7525
v -25.0000 1.6500 -1.0000
v -25.0000 1.7525 -1.2475
v 25.0000 1.7525 -1.2475
v 25.0000 1.6500 -1.0000
v -25.0000 1.7525 -1.2475
v -25.0000 2.0000 -1.3500
v 25.0000 2.0000 -1.3500
v 25.0000 1.7525 -1.2475
v -25.0000 2.0000 -1.3500
v -25.0000 2.2475 -1.2475
v 25.0000 2.2475 -1.2475
v 25.0000 2.0000 -1.3500
v -25.0000 2.2475 -1.2475
v -25.0000 2.3500 -1.0000
v 25.0000 2.3500 -1.0000
v 25.0000 2.2475 -1.2475
v -25.0000 2.3500 -1.0000
v -25.0000 2.2475 -0.7525
v 25.0000 2.2475 -0.7525
v 25.0000 2.3500 -1.0000
v -25.0000 2.2475 -0.7525
v -25.0000 2.0000 -0.6500
v 25.0000 2.0000 -0.6500
v 25.0000 2.2475 -0.7525
v -25.0000 2.0000 -0.6500
v -25.0000 1.7525 -0.7525
v -25.0000 1.6500 -1.0000
v -25.0000 2.0000 -0.6500
v -25.0000 1.6500 -1.0000
v -25.0000 1.7525 -1.2475
v -25.0000 2.0000 -0.6500
v -25.0000 1.7525 -1.2475
v -25.0000 2.0000 -1.3500
v -25.0000 2.0000 -0.6500
v -25.0000 2.0000 -1.3500
v -25.0000 2.2475 -1.2475
v -25.0000 2.0000 -0.6500
v -25.0000 2.2475 -1.2475
v -25.0000 2.3500 -1.0000
v -25.0000 2.0000 -0.6500
v -25.0000 2.3500 -1.0000
v -25.0000 2.2475 -0.7525
v 25.0000 2.0000 -0.6500
v 25.0000 1.7525 -0.7525
v 25.0000 1.6500 -1.0000
v 25.0000 2.0000 -0.6500
v 25.0000 1.6500 -1.0000
v 25.0000 1.7525 -1.2475
v 25.0000 2.0000 -0.6500
v 25.0000 1.7525 -1.2475
v 25.0000 2.0000 -1.3500
v 25.0000 2.0000 -0.6500
v 25.0000 2.0000 -1.3500
v 25.0000 2.2475 -1.2475
v 25.0000 2.0000 -0.6500
v 25.0000 2.2475 -1.2475
v 25.0000 2.3500 -1.0000
v 25.0000 2.0000 -0.6500
v 25.0000 2.3500 -1.0000
v 25.0000 2.2475 -0.7525
v 6.6500 2.0000 -25.0000
v 6.7525 1.7525 -25.0000
v 6.7525 1.7525 25.0000
v 6.6500 2.0000 25.0000
v 6.7525 1.7525 -25.0000
v 7.0000 1.6500 -25.0000
v 7.0000 1.6500 25.0000
v 6.7525 1.7525 25.0000
v 7.0000 1.6500 -25.0000
v 7.2475 1.7525 -25.0000
v 7.2475 1.7525 25.0000
v 7.0000 1.6500 25.0000
v 7.2475 1.7525 -25.0000
v 7.3500 2.0000 -25.0000
v 7.3500 2.0000 25.0000
v 7.2475 1.7525 25.0000
v 7.3500 2.0000 -25.0000
v 7.2475 2.2475 -25.0000
v 7.2475 2.2475 25.0000
v 7.3500 2.0000 25.0000
v 7.2475 2.2475 -25.0000
v 7.0000 2.3500 -25.0000
v 7.0000 2.3500 25.0000
v 7.2475 2.2475 25.0000
v 7.0000 2.3500 -25.0000
v 6.7525 2.2475 -25.0000
v 6.7525 2.2475 25.0000
v 7.0000 2.3500 25.0000
v 6.7525 2.2475 -25.0000
v 6.6500 2.0000 -25.0000
v 6.6500 2.0000 25.0000
v 6.7525 2.2475 25.0000
v 6.6500 2.0000 -25.0000
v 6.7525 1.7525 -25.0000
v 7.0000 1.6500 -25.0000
v 6.6500 2.0000 -25.0000
v 7.0000 1.6500 -25.0000
v 7.2475 1.7525 -25.0000
v 6.6500 2.0000 -25.0000
v 7.2475 1.7525 -25.0000
v 7.3500 2.0000 -25.0000
v 6.6500 2.0000 -25.0000
v 7.3500 2.0000 -25.0000
v 7.2475 2.2475 -25.0000
v 6.6500 2.0000 -25.0000
v 7.2475 2.2475 -25.0000
v 7.0000 2.3500 -25.0000
v 6.6500 2.0000 -25.0000
v 7.0000 2.3500 -25.0000
v 6.7525 2.2475 -25.0000
v 6.6500 2.0000 25.0000
v 6.7525 1.7525 25.0000
v 7.0000 1.6500 25.0000
v 6.6500 2.0000 25.0000
v 7.0000 1.6500 25.0000
v 7.2475 1.7525 25.0000
v 6.6500 2.0000 25.0000
v 7.2475 1.7525 25.0000
v 7.3500 2.0000 25.0000
v 6.6500 2.0000 25.0000
v 7.3500 2.0000 25.0000
v 7.2475 2.2475 25.0000
v 6.6500 2.0000 25.0000
v 7.2475 2.2475 25.0000
v 7.0000 2.3500 25.0000
v 6.6500 2.0000 25.0000
v 7.0000 2.3500 25.0000
v 6.7525 2.2475 25.0000
v -25.0000 2.0000 7.3500
v -25.0000 1.7525 7.2475
v 25.0000 1.7525 7.2475
v 25.0000 2.0000 7.3500
v -25.0000 1.7525 7.2475
v -25.0000 1.6500 7.0000
v 25.0000 1.6500 7.0000
v 25.0000 1.7525 7.2475
v -25.0000 1.6500 7.0000
v -25.0000 1.7525 6.7525
v 25.0000 1.7525 6.7525
v 25.0000 1.6500 7.0000
v -25.0000 1.7525 6.7525
v -25.0000 2.0000 6.6500
v 25.0000 2.0000 6.6500
v 25.0000 1.7525 6.7525
v -25.0000 2.0000 6.6500
v -25.0000 2.2475 6.7525
v 25.0000 2.2475 6.7525
v 25.0000 2.0000 6.6500
v -25.0000 2.2475 6.7525
v -25.0000 2.3500 7.0000
v 25.0000 2.3500 7.0000
v 25.0000 2.2475 6.7525
v -25.0000 2.3500 7.0000
v -25.0000 2.2475 7.2475
v 25.0000 2.2475 7.2475
v 25.0000 2.3500 7.0000
v -25.0000 2.2475 7.2475
v -25.0000 2.0000 7.3500
v 25.0000 2.0000 7.3500
v 25.0000 2.2475 7.2475
v -25.0000 2.0000 7.3500
v -25.0000 1.7525 7.2475
v -25.0000 1.6500 7.0000
v -25.0000 2.0000 7.3500
v -25.0000 1.6500 7.0000
v -25.0000 1.7525 6.7525
v -25.0000 2.0000 7.3500
v -25.0000 1.7525 6.7525
v -25.0000 2.0000 6.6500
v -25.0000 2.0000 7.3500
v -25.0000 2.0000 6.6500
v -25.0000 2.2475 6.7525
v -25.0000 2.0000 7.3500
v -25.0000 2.2475 6.7525
v -25.0000 2.3500 7.0000
v -25.0000 2.0000 7.3500
v -25.0000 2.3500 7.0000
v -25.0000 2.2475 7.2475
v 25.0000 2.0000 7.3500
v 25.0000 1.7525 7.2475
v 25.0000 1.6500 7.0000
v 25.0000 2.0000 7.3500
v 25.0000 1.6500 7.0000
v 25.0000 1.7525 6.7525
v 25.0000 2.0000 7.3500
v 25.0000 1.7525 6.7525
v 25.0000 2.0000 6.6500
v 25.0000 2.0000 7.3500
v 25.0000 2.0000 6.6500
v 25.0000 2.2475 6.7525
v 25.0000 2.0000 7.3500
v 25.0000 2.2475 6.7525
v 25.0000 2.3500 7.0000
v 25.0000 2.0000 7.3500
v 25.0000 2.3500 7.0000
v 25.0000 2.2475 7.2475
v 14.6500 2.0000 -25.0000
v 14.7525 1.7525 -25.0000
v 14.7525 1.7525 25.0000
v 14.6500 2.0000 25.0000
v 14.7525 1.7525 -25.0000
v 15.0000 1.6500 -25.0000
v 15.0000 1.6500 25.0000
v 14.7525 1.7525 25.0000
v 15.0000 1.6500 -25.0000
v 15.2475 1.7525 -25.0000
v 15.2475 1.7525 25.0000
v 15.0000 1.6500 25.0000
v 15.2475 1.7525 -25.0000
v 15.3500 2.0000 -25.0000
v 15.3500 2.0000 25.0000
v 15.2475 1.7525 25.0000
v 15.3500 2.0000 -25.0000
v 15.2475 2.2475 -25.0000
v 15.2475 2.2475 25.0000
v 15.3500 2.0000 25.0000
v 15.2475 2.2475 -25.0000
v 15.0000 2.3500 -25.0000
v 15.0000 2.3500 25.0000
v 15.2475 2.2475 25.0000
v 15.0000 2.3500 -25.0000
v 14.7525 2.2475 -25.0000
v 14.7525 2.2475 25.0000
v 15.0000 2.3500 25.0000
v 14.7525 2.2475 -25.0000
v 14.6500 2.0000 -25.0000
v 14.6500 2.0000 25.0000
v 14.7525 2.2475 25.0000
v 14.6500 2.0000 -25.0000
v 14.7525 1.7525 -25.0000
v 15.0000 1.6500 -25.0000
v 14.6500 2.0000 -25.0000
v 15.0000 1.6500 -25.0000
v 15.2475 1.7525 -25.0000
v 14.6500 2.0000 -25.0000
v 15.2475 1.7525 -25.0000
v 15.3500 2.0000 -25.0000
v 14.6500 2.0000 -25.0000
v 15.3500 2.0000 -25.0000
v 15.2475 2.2475 -25.0000
v 14.6500 2.0000 -25.0000
v 15.2475 2.2475 -25.0000
v 15.0000 2.3500 -25.0000
v 14.6500 2.0000 -25.0000
v 15.0000 2.3500 -25.0000
v 14.7525 2.2475 -25.0000
v 14.6500 2.0000 25.0000
v 14.7525 1.7525 25.0000
v 15.0000 1.6500 25.0000
v 14.6500 2.0000 25.0000
v 15.0000 1.6500 25.0000
v 15.2475 1.7525 25.0000
v 14.6500 2.0000 25.0000
v 15.2475 1.7525 25.0000
v 15.3500 2.0000 25.0000
v 14.6500 2.0000 25.0000
v 15.3500 2.0000 25.0000
v 15.2475 2.2475 25.0000
v 14.6500 2.0000 25.0000
v 15.2475 2.2475 25.0000
v 15.0000 2.3500 25.0000
v 14.6500 2.0000 25.0000
v 15.0000 2.3500 25.0000
v 14.7525 2.2475 25.0000
v -25.0000 2.0000 15.3500
v -25.0000 1.7525 15.2475
v 25.0000 1.7525 15.2475
v 25.0000 2.0000 15.3500
v -25.0000 1.7525 15.2475
v -25.0000 1.6500 15.0000
v 25.0000 1.6500 15.0000
v 25.0000 1.7525 15.2475
v -25.0000 1.6500 15.0000
v -25.0000 1.7525 14.7525
v 25.0000 1.7525 14.7525
v 25.0000 1.6500 15.0000
v -25.0000 1.7525 14.7525
v -25.0000 2.0000 14.6500
v 25.0000 2.0000 14.6500
v 25.0000 1.7525 14.7525
v -25.0000 2.0000 14.6500
v -25.0000 2.2475 14.7525
v 25.0000 2.2475 14.7525
v 25.0000 2.0000 14.6500
v -25.0000 2.2475 14.7525
v -25.0000 2.3500 15.0000
v 25.0000 2.3500 15.0000
v 25.0000 2.2475 14.7525
v -25.0000 2.3500 15.0000
v -25.0000 2.2475 15.2475
v 25.0000 2.2475 15.2475
v 25.0000 2.3500 15.0000
v -25.0000 2.2475 15.2475
v -25.0000 2.0000 15.3500
v 25.0000 2.0000 15.3500
v 25.0000 2.2475 15.2475
v -25.0000 2.0000 15.3500
v -25.0000 1.7525 15.2475
v -25.0000 1.6500 15.0000
v -25.0000 2.0000 15.3500
v -25.0000 1.6500 15.0000
v -25.0000 1.7525 14.7525
v -25.0000 2.0000 15.3500
v -25.0000 1.7525 14.7525
v -25.0000 2.0000 14.6500
v -25.0000 2.0000 15.3500
v -25.0000 2.0000 14.6500
v -25.0000 2.2475 14.7525
v -25.0000 2.0000 15.3500
v -25.0000 2.2475 14.7525
v -25.0000 2.3500 15.0000
v -25.0000 2.0000 15.3500
v -25.0000 2.3500 15.0000
v -25.0000 2.2475 15.2475
v 25.0000 2.0000 15.3500
v 25.0000 1.7525 15.2475
v 25.0000 1.6500 15.0000
v 25.0000 2.0000 15.3500
v 25.0000 1.6500 15.0000
v 25.0000 1.7525 14.7525
v 25.0000 2.0000 15.3500
v 25.0000 1.7525 14.7525
v 25.0000 2.0000 14.6500
v 25.0000 2.0000 15.3500
v 25.0000 2.0000 14.6500
v 25.0000 2.2475 14.7525
v 25.0000 2.0000 15.3500
v 25.0000 2.2475 14.7525
v 25.0000 2.3500 15.0000
v 25.0000 2.0000 15.3500
v 25.0000 2.3500 15.0000
v 25.0000 2.2475 15.2475
v 22.6500 2.0000 -25.0000
v 22.7525 1.7525 -25.0000
v 22.7525 1.7525 25.0000
v 22.6500 2.0000 25.0000
v 22.7525 1.7525 -25.0000
v 23.0000 1.6500 -25.0000
v 23.0000 1.6500 25.0000
v 22.7525 1.7525 25.0000
v 23.0000 1.6500 -25.0000
v 23.2475 1.7525 -25.0000
v 23.2475 1.7525 25.0000
v 23.0000 1.6500 25.0000
v 23.2475 1.7525 -25.0000
v 23.3500 2.0000 -25.0000
v 23.3500 2.0000 25.0000
v 23.2475 1.7525 25.0000
v 23.3500 2.0000 -25.0000
v 23.2475 2.2475 -25.0000
v 23.2475 2.2475 25.0000
v 23.3500 2.0000 25.0000
v 23.2475 2.2475 -25.0000
v 23.0000 2.3500 -25.0000
v 23.0000 2.3500 25.0000
v 23.2475 2.2475 25.0000
v 23.0000 2.3500 -25.0000
v 22.7525 2.2475 -25.0000
v 22.7525 2.2475 25.0000
v 23.0000 2.3500 25.0000
v 22.7525 2.2475 -25.0000
v 22.6500 2.0000 -25.0000
v 22.6500 2.0000 25.0000
v 22.7525 2.2475 25.0000
v 22.6500 2.0000 -25.0000
v 22.7525 1.7525 -25.0000
v 23.0000 1.6500 -25.0000
v 22.6500 2.0000 -25.0000
v 23.0000 1.6500 -25.0000
v 23.2475 1.7525 -25.0000
v 22.6500 2.0000 -25.0000
v 23.2475 1.7525 -25.0000
v 23.3500 2.0000 -25.0000
v 22.6500 2.0000 -25.0000
v 23.3500 2.0000 -25.0000
v 23.2475 2.2475 -25.0000
v 22.6500 2.0000 -25.0000
v 23.2475 2.2475 -25.0000
v 23.0000 2.3500 -25.0000
v 22.6500 2.0000 -25.0000
v 23.0000 2.3500 -25.0000
v 22.7525 2.2475 -25.0000
v 22.6500 2.0000 25.0000
v 22.7525 1.7525 25.0000
v 23.0000 1.6500 25.0000
v 22.6500 2.0000 25.0000
v 23.0000 1.6500 25.0000
v 23.2475 1.7525 25.0000
v 22.6500 2.0000 25.0000
v 23.2475 1.7525 25.0000
v 23.3500 2.0000 25.0000
v 22.6500 2.0000 25.0000
v 23.3500 2.0000 25.0000
v 23.2475 2.2475 25.0000
v 22.6500 2.0000 25.0000
v 23.2475 2.2475 25.0000
v 23.0000 2.3500 25.0000
v 22.6500 2.0000 25.0000
v 23.0000 2.3500 25.0000
v 22.7525 2.2475 25.0000
v -25.0000 2.0000 23.3500
v -25.0000 1.7525 23.2475
v 25.0000 1.7525 23.2475
v 25.0000 2.0000 23.3500
v -25.0000 1.7525 23.2475
v -25.0000 1.6500 23.0000
v 25.0000 1.6500 23.0000
v 25.0000 1.7525 23.2475
v -25.0000 1.6500 23.0000
v -25.0000 1.7525 22.7525
v 25.0000 1.7525 22.7525
v 25.0000 1.6500 23.0000
v -25.0000 1.7525 22.7525
v -25.0000 2.0000 22.6500
v 25.0000 2.0000 22.6500
v 25.0000 1.7525 22.7525
v -25.0000 2.0000 22.6500
v -25.0000 2.2475 22.7525
v 25.0000 2.2475 22.7525
v 25.0000 2.0000 22.6500
v -25.0000 2.2475 22.7525
v -25.0000 2.3500 23.0000
v 25.0000 2.3500 23.0000
v 25.0000 2.2475 22.7525
v -25.0000 2.3500 23.0000
v -25.0000 2.2475 23.2475
v 25.0000 2.2475 23.2475
v 25.0000 2.3500 23.0000
v -25.0000 2.2475 23.2475
v -25.0000 2.0000 23.3500
v 25.0000 2.0000 23.3500
v 25.0000 2.2475 23.2475
v -25.0000 2.0000 23.3500
v -25.0000 1.7525 23.2475
v -25.0000 1.6500 23.0000
v -25.0000 2.0000 23.3500
v -25.0000 1.6500 23.0000
v -25.0000 1.7525 22.7525
v -25.0000 2.0000 23.3500
v -25.0000 1.7525 22.7525
v -25.0000 2.0000 22.6500
v -25.0000 2.0000 23.3500
v -25.0000 2.0000 22.6500
v -25.0000 2.2475 22.7525
v -25.0000 2.0000 23.3500
v -25.0000 2.2475 22.7525
v -25.0000 2.3500 23.0000
v -25.0000 2.0000 23.3500
v -25.0000 2.3500 23.0000
v -25.0000 2.2475 23.2475
v 25.0000 2.0000 23.3500
v 25.0000 1.7525 23.2475
v 25.0000 1.6500 23.0000
v 25.0000 2.0000 23.3500
v 25.0000 1.6500 23.0000
v 25.0000 1.7525 22.7525
v 25.0000 2.0000 23.3500
v 25.0000 1.7525 22.7525
v 25.0000 2.0000 22.6500
v 25.0000 2.0000 23.3500
v 25.0000 2.0000 22.6500
v 25.0000 2.2475 22.7525
v 25.0000 2.0000 23.3500
v 25.0000 2.2475 22.7525
v 25.0000 2.3500 23.0000
v 25.0000 2.0000 23.3500
v 25.0000 2.3500 23.0000
v 25.0000 2.2475 23.2475
vt 0.750000 0.500000
vt 1.000000 0.500000
vt 1.000000 1.000000
vt 0.750000 1.000000
vt 0.750000 0.500000
vt 1.000000 0.500000
vt 1.000000 1.000000
vt 0.750000 1.000000
vt 0.750000 0.500000
vt 1.000000 0.500000
vt 1.000000 1.000000
vt 0.750000 1.000000
vt 0.750000 0.500000
vt 1.000000 0.500000
vt 1.000000 1.000000
vt 0.750000 1.000000
vt 0.750000 0.500000
vt 1.000000 0.500000
vt 1.000000 1.000000
vt 0.750000 1.000000
vt 0.750000 0.500000
vt 1.000000 0.500000
vt 1.000000 1.000000
vt 0.750000 1.000000
vt 0.750000 0.500000
vt 1.000000 0.500000
vt 1.000000 1.000000
vt 0.750000 1.000000
vt 0.750000 0.500000
vt 1.000000 0.500000
vt 1.000000 1.000000
vt 0.750000 1.000000
vt 0.750000 0.500000
vt 1.000000 0.500000
vt 1.000000 1.000000
vt 0.750000 0.500000
vt 1.000000 0.500000
vt 1.000000 1.000000
vt 0.750000 0.500000
vt 1.000000 0.500000
vt 1.000000 1.000000
vt 0.750000 0.500000
vt 1.000000 0.500000
vt 1.000000 1.000000
vt 0.750000 0.500000
vt 1.000000 0.500000
vt 1.000000 1.000000
vt 0.750000 0.500000
vt 1.000000 0.500000
vt 1.000000 1.000000
vt 0.750000 0.500000
vt 1.000000 0.500000
vt 1.000000 1.000000
vt 0.750000 0.500000
vt 1.000000 0.500000
vt 1.000000 1.000000
vt 0.750000 0.500000
vt 1.000000 0.500000
vt 1.000000 1.000000
vt 0.750000 0.500000
vt 1.000000 0.500000
vt 1.000000 1.000000
vt 0.750000 0.500000
vt 1.000000 0.500000
vt 1.000000 1.000000
vt 0.750000 0.500000
vt 1.000000 0.500000
vt 1.000000 1.000000
vt 0.750000 0.500000
vt 1.000000 0.500000
vt 1.000000 1.000000
vt 0.750000 1.000000
vt 0.750000 0.500000
vt 1.000000 0.500000
vt 1.000000 1.000000
vt 0.750000 1.000000
vt 0.750000 0.500000
vt 1.000000 0.500000
vt 1.000000 1.000000
vt 0.750000 1.000000
vt 0.750000 0.500000
vt 1.000000 0.500000
vt 1.000000 1.000000
vt 0.750000 1.000000
vt 0.750000 0.500000
vt 1.000000 0.500000
vt 1.000000 1.000000
vt 0.750000 1.000000
vt 0.750000 0.500000
vt 1.000000 0.500000
vt 1.000000 1.000000
vt 0.750000 1.000000
vt 0.750000 0.500000
vt 1.000000 0.500000
vt 1.000000 1.000000
vt 0.750000 1.000000
vt 0.750000 0.500000
vt 1.000000 0.500000
vt 1.000000 1.000000
vt 0.750000 1.000000
vt 0.750000 0.500000
vt 1.000000 0.500000
vt 1.000000 1.000000
vt 0.750000 0.500000
vt 1.000000 0.500000
vt 1.000000 1.000000
vt 0.750000 0.500000
vt 1.000000 0.500000
vt 1.000000 1.000000
vt 0.750000 0.500000
vt 1.000000 0.500000
vt 1.000000 1.000000
vt 0.750000 0.500000
vt 1.000000 0.500000
vt 1.000000 1.000000
vt 0.750000 0.500000
vt 1.000000 0.500000
vt 1.000000 1.000000
vt 0.750000 0.500000
vt 1.000000 0.500000
vt 1.000000 1.000000
vt 0.750000 0.500000
vt 1.000000 0.500000
vt 1.000000 1.000000
vt 0.750000 0.500000
vt 1.000000 0.500000
vt 1.000000 1.000000
vt 0.750000 0.500000
vt 1.000000 0.500000
vt 1.000000 1.000000
vt 0.750000 0.500000
vt 1.000000 0.500000
vt 1.000000 1.000000
vt 0.750000 0.500000
vt 1.000000 0.500000
vt 1.000000 1.000000
vt 0.750000 0.500000
vt 1.000000 0.500000
vt 1.000000 1.000000
vt 0.750000 1.000000
vt 0.750000 0.500000
vt 1.000000 0.500000
vt 1.000000 1.000000
vt 0.750000 1.000000
vt 0.750000 0.500000
vt 1.000000 0.500000
vt 1.000000 1.000000
vt 0.750000 1.000000
vt 0.750000 0.500000
vt 1.000000 0.500000
vt 1.000000 1.000000
vt 0.750000 1.000000
vt 0.750000 0.500000
vt 1.000000 0.500000
vt 1.000000 1.000000
vt 0.750000 1.000000
vt 0.750000 0.500000
vt 1.000000 0.500000
vt 1.000000 1.000000
vt 0.750000 1.000000
vt 0.750000 0.500000
vt 1.000000 0.500000
vt 1.000000 1.000000
vt 0.750000 1.000000
vt 0.750000 0.500000
vt 1.000000 0.500000
vt 1.000000 1.000000
vt 0.750000 1.000000
vt 0.750000 0.500000
vt 1.000000 0.500000
vt 1.000000 1.000000
vt 0.750000 0.500000
vt 1.000000 0.500000
vt 1.000000 1.000000
vt 0.750000 0.500000
vt 1.000000 0.500000
vt 1.000000 1.000000
vt 0.750000 0.500000
vt 1.000000 0.500000
vt 1.000000 1.000000
vt 0.750000 0.500000
vt 1.000000 0.500000
vt 1.000000 1.000000
vt 0.750000 0.500000
vt 1.000000 0.500000
vt 1.000000 1.000000
vt 0.750000 0.500000
vt 1.000000 0.500000
vt 1.000000 1.000000
vt 0.750000 0.500000
vt 1.000000 0.500000
vt 1.000000 1.000000
vt 0.750000 0.500000
vt 1.000000 0.500000
vt 1.000000 1.000000
vt 0.750000 0.500000
vt 1.000000 0.500000
vt 1.000000 1.000000
vt 0.750000 0.500000
vt 1.000000 0.500000
vt 1.000000 1.000000
vt 0.750000 0.500000
vt 1.000000 0.500000
vt 1.000000 1.000000
vt 0.750000 0.500000
vt 1.000000 0.500000
vt 1.000000 1.000000
vt 0.750000 1.000000
vt 0.750000 0.500000
vt 1.000000 0.500000
vt 1.000000 1.000000
vt 0.750000 1.000000
vt 0.750000 0.500000
vt 1.000000 0.500000
vt 1.000000 1.000000
vt 0.750000 1.000000
vt 0.750000 0.500000
vt 1.000000 0.500000
vt 1.000000 1.000000
vt 0.750000 1.000000
vt 0.750000 0.500000
vt 1.000000 0.500000
vt 1.000000 1.000000
vt 0.750000 1.000000
vt 0.750000 0.500000
vt 1.000000 0.500000
vt 1.000000 1.000000
vt 0.750000 1.000000
vt 0.750000 0.500000
vt 1.000000 0.500000
vt 1.000000 1.000000
vt 0.750000 1.000000
vt 0.750000 0.500000
vt 1.000000 0.500000
vt 1.000000 1.000000
vt 0.750000 1.000000
vt 0.750000 0.500000
vt 1.000000 0.500000
vt 1.000000 1.000000
vt 0.750000 0.500000
vt 1.000000 0.500000
vt 1.000000 1.000000
vt 0.750000 0.500000
vt 1.000000 0.500000
vt 1.000000 1.000000
vt 0.750000 0.500000
vt 1.000000 0.500000
vt 1.000000 1.000000
vt 0.750000 0.500000
vt 1.000000 0.500000
vt 1.000000 1.000000
vt 0.750000 0.500000
vt 1.000000 0.500000
vt 1.000000 1.000000
vt 0.750000 0.500000
vt 1.000000 0.500000
vt 1.000000 1.000000
vt 0.750000 0.500000
vt 1.000000 0.500000
vt 1.000000 1.000000
vt 0.750000 0.500000
vt 1.000000 0.500000
vt 1.000000 1.000000
vt 0.750000 0.500000
vt 1.000000 0.500000
vt 1.000000 1.000000
vt 0.750000 0.500000
vt 1.000000 0.500000
vt 1.000000 1.000000
vt 0.750000 0.500000
vt 1.000000 0.500000
vt 1.000000 1.000000
vt 0.750000 0.500000
vt 1.000000 0.500000
vt 1.000000 1.000000
vt 0.750000 1.000000
vt 0.750000 0.500000
vt 1.000000 0.500000
vt 1.000000 1.000000
vt 0.750000 1.000000
vt 0.750000 0.500000
vt 1.000000 0.500000
vt 1.000000 1.000000
vt 0.750000 1.000000
vt 0.750000 0.500000
vt 1.000000 0.500000
vt 1.000000 1.000000
vt 0.750000 1.000000
vt 0.750000 0.500000
vt 1.000000 0.500000
vt 1.000000 1.000000
vt 0.750000 1.000000
vt 0.750000 0.500000
vt 1.000000 0.500000
vt 1.000000 1.000000
vt 0.750000 1.000000
vt 0.750000 0.500000
vt 1.000000 0.500000
vt 1.000000 1.000000
vt 0.750000 1.000000
vt 0.750000 0.500000
vt 1.000000 0.500000
vt 1.000000 1.000000
vt 0.750000 1.000000
vt 0.750000 0.500000
vt 1.000000 0.500000
vt 1.000000 1.000000
vt 0.750000 0.500000
vt 1.000000 0.500000
vt 1.000000 1.000000
vt 0.750000 0.500000
vt 1.000000 0.500000
vt 1.000000 1.000000
vt 0.750000 0.500000
vt 1.000000 0.500000
vt 1.000000 1.000000
vt 0.750000 0.500000
vt 1.000000 0.500000
vt 1.000000 1.000000
vt 0.750000 0.500000
vt 1.000000 0.500000
vt 1.000000 1.000000
vt 0.750000 0.500000
vt 1.000000 0.500000
vt 1.000000 1.000000
vt 0.750000 0.500000
vt 1.000000 0.500000
vt 1.000000 1.000000
vt 0.750000 0.500000
vt 1.000000 0.500000
vt 1.000000 1.000000
vt 0.750000 0.500000
vt 1.000000 0.500000
vt 1.000000 1.000000
vt 0.750000 0.500000
vt 1.000000 0.500000
vt 1.000000 1.000000
vt 0.750000 0.500000
vt 1.000000 0.500000
vt 1.000000 1.000000
vt 0.750000 0.500000
vt 1.000000 0.500000
vt 1.000000 1.000000
vt 0.750000 1.000000
vt 0.750000 0.500000
vt 1.000000 0.500000
vt 1.000000 1.000000
vt 0.750000 1.000000
vt 0.750000 0.500000
vt 1.000000 0.500000
vt 1.000000 1.000000
vt 0.750000 1.000000
vt 0.750000 0.500000
vt 1.000000 0.500000
vt 1.000000 1.000000
vt 0.750000 1.000000
vt 0.750000 0.500000
vt 1.000000 0.500000
vt 1.000000 1.000000
vt 0.750000 1.000000
vt 0.750000 0.500000
vt 1.000000 0.500000
vt 1.000000 1.000000
vt 0.750000 1.000000
vt 0.750000 0.500000
vt 1.000000 0.500000
vt 1.000000 1.000000
vt 0.750000 1.000000
vt 0.750000 0.500000
vt 1.000000 0.500000
vt 1.000000 1.000000
vt 0.750000 1.000000
vt 0.750000 0.500000
vt 1.000000 0.500000
vt 1.000000 1.000000
vt 0.750000 0.500000
vt 1.000000 0.500000
vt 1.000000 1.000000
vt 0.750000 0.500000
vt 1.000000 0.500000
vt 1.000000 1.000000
vt 0.750000 0.500000
vt 1.000000 0.500000
vt 1.000000 1.000000
vt 0.750000 0.500000
vt 1.000000 0.500000
vt 1.000000 1.000000
vt 0.750000 0.500000
vt 1.000000 0.500000
vt 1.000000 1.000000
vt 0.750000 0.500000
vt 1.000000 0.500000
vt 1.000000 1.000000
vt 0.750000 0.500000
vt 1.000000 0.500000
vt 1.000000 1.000000
vt 0.750000 0.500000
vt 1.000000 0.500000
vt 1.000000 1.000000
vt 0.750000 0.500000
vt 1.000000 0.500000
vt 1.000000 1.000000
vt 0.750000 0.500000
vt 1.000000 0.500000
vt 1.000000 1.000000
vt 0.750000 0.500000
vt 1.000000 0.500000
vt 1.000000 1.000000
vt 0.750000 0.500000
vt 1.000000 0.500000
vt 1.000000 1.000000
vt 0.750000 1.000000
vt 0.750000 0.500000
vt 1.000000 0.500000
vt 1.000000 1.000000
vt 0.750000 1.000000
vt 0.750000 0.500000
vt 1.000000 0.500000
vt 1.000000 1.000000
vt 0.750000 1.000000
vt 0.750000 0.500000
vt 1.000000 0.500000
vt 1.000000 1.000000
vt 0.750000 1.000000
vt 0.750000 0.500000
vt 1.000000 0.500000
vt 1.000000 1.000000
vt 0.750000 1.000000
vt 0.750000 0.500000
vt 1.000000 0.500000
vt 1.000000 1.000000
vt 0.750000 1.000000
vt 0.750000 0.500000
vt 1.000000 0.500000
vt 1.000000 1.000000
vt 0.750000 1.000000
vt 0.750000 0.500000
vt 1.000000 0.500000
vt 1.000000 1.000000
vt 0.750000 1.000000
vt 0.750000 0.500000
vt 1.000000 0.500000
vt 1.000000 1.000000
vt 0.750000 0.500000
vt 1.000000 0.500000
vt 1.000000 1.000000
vt 0.750000 0.500000
vt 1.000000 0.500000
vt 1.000000 1.000000
vt 0.750000 0.500000
vt 1.000000 0.500000
vt 1.000000 1.000000
vt 0.750000 0.500000
vt 1.000000 0.500000
vt 1.000000 1.000000
vt 0.750000 0.500000
vt 1.000000 0.500000
vt 1.000000 1.000000
vt 0.750000 0.500000
vt 1.000000 0.500000
vt 1.000000 1.000000
vt 0.750000 0.500000
vt 1.000000 0.500000
vt 1.000000 1.000000
vt 0.750000 0.500000
vt 1.000000 0.500000
vt 1.000000 1.000000
vt 0.750000 0.500000
vt 1.000000 0.500000
vt 1.000000 1.000000
vt 0.750000 0.500000
vt 1.000000 0.500000
vt 1.000000 1.000000
vt 0.750000 0.500000
vt 1.000000 0.500000
vt 1.000000 1.000000
vt 0.750000 0.500000
vt 1.000000 0.500000
vt 1.000000 1.000000
vt 0.750000 1.000000
vt 0.750000 0.500000
vt 1.000000 0.500000
vt 1.000000 1.000000
vt 0.750000 1.000000
vt 0.750000 0.500000
vt 1.000000 0.500000
vt 1.000000 1.000000
vt 0.750000 1.000000
vt 0.750000 0.500000
vt 1.000000 0.500000
vt 1.000000 1.000000
vt 0.750000 1.000000
vt 0.750000 0.500000
vt 1.000000 0.500000
vt 1.000000 1.000000
vt 0.750000 1.000000
vt 0.750000 0.500000
vt 1.000000 0.500000
vt 1.000000 1.000000
vt 0.750000 1.000000
vt 0.750000 0.500000
vt 1.000000 0.500000
vt 1.000000 1.000000
vt 0.750000 1.000000
vt 0.750000 0.500000
vt 1.000000 0.500000
vt 1.000000 1.000000
vt 0.750000 1.000000
vt 0.750000 0.500000
vt 1.000000 0.500000
vt 1.000000 1.000000
vt 0.750000 0.500000
vt 1.000000 0.500000
vt 1.000000 1.000000
vt 0.750000 0.500000
vt 1.000000 0.500000
vt 1.000000 1.000000
vt 0.750000 0.500000
vt 1.000000 0.500000
vt 1.000000 1.000000
vt 0.750000 0.500000
vt 1.000000 0.500000
vt 1.000000 1.000000
vt 0.750000 0.500000
vt 1.000000 0.500000
vt 1.000000 1.000000
vt 0.750000 0.500000
vt 1.000000 0.500000
vt 1.000000 1.000000
vt 0.750000 0.500000
vt 1.000000 0.500000
vt 1.000000 1.000000
vt 0.750000 0.500000
vt 1.000000 0.500000
vt 1.000000 1.000000
vt 0.750000 0.500000
vt 1.000000 0.500000
vt 1.000000 1.000000
vt 0.750000 0.500000
vt 1.000000 0.500000
vt 1.000000 1.000000
vt 0.750000 0.500000
vt 1.000000 0.500000
vt 1.000000 1.000000
vt 0.750000 0.500000
vt 1.000000 0.500000
vt 1.000000 1.000000
vt 0.750000 1.000000
vt 0.750000 0.500000
vt 1.000000 0.500000
vt 1.000000 1.000000
vt 0.750000 1.000000
vt 0.750000 0.500000
vt 1.000000 0.500000
vt 1.000000 1.000000
vt 0.750000 1.000000
vt 0.750000 0.500000
vt 1.000000 0.500000
vt 1.000000 1.000000
vt 0.750000 1.000000
vt 0.750000 0.500000
vt 1.000000 0.500000
vt 1.000000 1.000000
vt 0.750000 1.000000
vt 0.750000 0.500000
vt 1.000000 0.500000
vt 1.000000 1.000000
vt 0.750000 1.000000
vt 0.750000 0.500000
vt 1.000000 0.500000
vt 1.000000 1.000000
vt 0.750000 1.000000
vt 0.750000 0.500000
vt 1.000000 0.500000
vt 1.000000 1.000000
vt 0.750000 1.000000
vt 0.750000 0.500000
vt 1.000000 0.500000
vt 1.000000 1.000000
vt 0.750000 0.500000
vt 1.000000 0.500000
vt 1.000000 1.000000
vt 0.750000 0.500000
vt 1.000000 0.500000
vt 1.000000 1.000000
vt 0.750000 0.500000
vt 1.000000 0.500000
vt 1.000000 1.000000
vt 0.750000 0.500000
vt 1.000000 0.500000
vt 1.000000 1.000000
vt 0.750000 0.500000
vt 1.000000 0.500000
vt 1.000000 1.000000
vt 0.750000 0.500000
vt 1.000000 0.500000
vt 1.000000 1.000000
vt 0.750000 0.500000
vt 1.000000 0.500000
vt 1.000000 1.000000
vt 0.750000 0.500000
vt 1.000000 0.500000
vt 1.000000 1.000000
vt 0.750000 0.500000
vt 1.000000 0.500000
vt 1.000000 1.000000
vt 0.750000 0.500000
vt 1.000000 0.500000
vt 1.000000 1.000000
vt 0.750000 0.500000
vt 1.000000 0.500000
vt 1.000000 1.000000
vt 0.750000 0.500000
vt 1.000000 0.500000
vt 1.000000 1.000000
vt 0.750000 1.000000
vt 0.750000 0.500000
vt 1.000000 0.500000
vt 1.000000 1.000000
vt 0.750000 1.000000
vt 0.750000 0.500000
vt 1.000000 0.500000
vt 1.000000 1.000000
vt 0.750000 1.000000
vt 0.750000 0.500000
vt 1.000000 0.500000
vt 1.000000 1.000000
vt 0.750000 1.000000
vt 0.750000 0.500000
vt 1.000000 0.500000
vt 1.000000 1.000000
vt 0.750000 1.000000
vt 0.750000 0.500000
vt 1.000000 0.500000
vt 1.000000 1.000000
vt 0.750000 1.000000
vt 0.750000 0.500000
vt 1.000000 0.500000
vt 1.000000 1.000000
vt 0.750000 1.000000
vt 0.750000 0.500000
vt 1.000000 0.500000
vt 1.000000 1.000000
vt 0.750000 1.000000
vt 0.750000 0.500000
vt 1.000000 0.500000
vt 1.000000 1.000000
vt 0.750000 0.500000
vt 1.000000 0.500000
vt 1.000000 1.000000
vt 0.750000 0.500000
vt 1.000000 0.500000
vt 1.000000 1.000000
vt 0.750000 0.500000
vt 1.000000 0.500000
vt 1.000000 1.000000
vt 0.750000 0.500000
vt 1.000000 0.500000
vt 1.000000 1.000000
vt 0.750000 0.500000
vt 1.000000 0.500000
vt 1.000000 1.000000
vt 0.750000 0.500000
vt 1.000000 0.500000
vt 1.000000 1.000000
vt 0.750000 0.500000
vt 1.000000 0.500000
vt 1.000000 1.000000
vt 0.750000 0.500000
vt 1.000000 0.500000
vt 1.000000 1.000000
vt 0.750000 0.500000
vt 1.000000 0.500000
vt 1.000000 1.000000
vt 0.750000 0.500000
vt 1.000000 0.500000
vt 1.000000 1.000000
vt 0.750000 0.500000
vt 1.000000 0.500000
vt 1.000000 1.000000
vt 0.750000 0.500000
vt 1.000000 0.500000
vt 1.000000 1.000000
vt 0.750000 1.000000
vt 0.750000 0.500000
vt 1.000000 0.500000
vt 1.000000 1.000000
vt 0.750000 1.000000
vt 0.750000 0.500000
vt 1.000000 0.500000
vt 1.000000 1.000000
vt 0.750000 1.000000
vt 0.750000 0.500000
vt 1.000000 0.500000
vt 1.000000 1.000000
vt 0.750000 1.000000
vt 0.750000 0.500000
vt 1.000000 0.500000
vt 1.000000 1.000000
vt 0.750000 1.000000
vt 0.750000 0.500000
vt 1.000000 0.500000
vt 1.000000 1.000000
vt 0.750000 1.000000
vt 0.750000 0.500000
vt 1.000000 0.500000
vt 1.000000 1.000000
vt 0.750000 1.000000
vt 0.750000 0.500000
vt 1.000000 0.500000
vt 1.000000 1.000000
vt 0.750000 1.000000
vt 0.750000 0.500000
vt 1.000000 0.500000
vt 1.000000 1.000000
vt 0.750000 0.500000
vt 1.000000 0.500000
vt 1.000000 1.000000
vt 0.750000 0.500000
vt 1.000000 0.500000
vt 1.000000 1.000000
vt 0.750000 0.500000
vt 1.000000 0.500000
vt 1.000000 1.000000
vt 0.750000 0.500000
vt 1.000000 0.500000
vt 1.000000 1.000000
vt 0.750000 0.500000
vt 1.000000 0.500000
vt 1.000000 1.000000
vt 0.750000 0.500000
vt 1.000000 0.500000
vt 1.000000 1.000000
vt 0.750000 0.500000
vt 1.000000 0.500000
vt 1.000000 1.000000
vt 0.750000 0.500000
vt 1.000000 0.500000
vt 1.000000 1.000000
vt 0.750000 0.500000
vt 1.000000 0.500000
vt 1.000000 1.000000
vt 0.750000 0.500000
vt 1.000000 0.500000
vt 1.000000 1.000000
vt 0.750000 0.500000
vt 1.000000 0.500000
vt 1.000000 1.000000
vt 0.750000 0.500000
vt 1.000000 0.500000
vt 1.000000 1.000000
vt 0.750000 1.000000
vt 0.750000 0.500000
vt 1.000000 0.500000
vt 1.000000 1.000000
vt 0.750000 1.000000
vt 0.750000 0.500000
vt 1.000000 0.500000
vt 1.000000 1.000000
vt 0.750000 1.000000
vt 0.750000 0.500000
vt 1.000000 0.500000
vt 1.000000 1.000000
vt 0.750000 1.000000
vt 0.750000 0.500000
vt 1.000000 0.500000
vt 1.000000 1.000000
vt 0.750000 1.000000
vt 0.750000 0.500000
vt 1.000000 0.500000
vt 1.000000 1.000000
vt 0.750000 1.000000
vt 0.750000 0.500000
vt 1.000000 0.500000
vt 1.000000 1.000000
vt 0.750000 1.000000
vt 0.750000 0.500000
vt 1.000000 0.500000
vt 1.000000 1.000000
vt 0.750000 1.000000
vt 0.750000 0.500000
vt 1.000000 0.500000
vt 1.000000 1.000000
vt 0.750000 0.500000
vt 1.000000 0.500000
vt 1.000000 1.000000
vt 0.750000 0.500000
vt 1.000000 0.500000
vt 1.000000 1.000000
vt 0.750000 0.500000
vt 1.000000 0.500000
vt 1.000000 1.000000
vt 0.750000 0.500000
vt 1.000000 0.500000
vt 1.000000 1.000000
vt 0.750000 0.500000
vt 1.000000 0.500000
vt 1.000000 1.000000
vt 0.750000 0.500000
vt 1.000000 0.500000
vt 1.000000 1.000000
vt 0.750000 0.500000
vt 1.000000 0.500000
vt 1.000000 1.000000
vt 0.750000 0.500000
vt 1.000000 0.500000
vt 1.000000 1.000000
vt 0.750000 0.500000
vt 1.000000 0.500000
vt 1.000000 1.000000
vt 0.750000 0.500000
vt 1.000000 0.500000
vt 1.000000 1.000000
vt 0.750000 0.500000
vt 1.000000 0.500000
vt 1.000000 1.000000
vt 0.750000 0.500000
vt 1.000000 0.500000
vt 1.000000 1.000000
vt 0.750000 1.000000
vt 0.750000 0.500000
vt 1.000000 0.500000
vt 1.000000 1.000000
vt 0.750000 1.000000
vt 0.750000 0.500000
vt 1.000000 0.500000
vt 1.000000 1.000000
vt 0.750000 1.000000
vt 0.750000 0.500000
vt 1.000000 0.500000
vt 1.000000 1.000000
vt 0.750000 1.000000
vt 0.750000 0.500000
vt 1.000000 0.500000
vt 1.000000 1.000000
vt 0.750000 1.000000
vt 0.750000 0.500000
vt 1.000000 0.500000
vt 1.000000 1.000000
vt 0.750000 1.000000
vt 0.750000 0.500000
vt 1.000000 0.500000
vt 1.000000 1.000000
vt 0.750000 1.000000
vt 0.750000 0.500000
vt 1.000000 0.500000
vt 1.000000 1.000000
vt 0.750000 1.000000
vt 0.750000 0.500000
vt 1.000000 0.500000
vt 1.000000 1.000000
vt 0.750000 0.500000
vt 1.000000 0.500000
vt 1.000000 1.000000
vt 0.750000 0.500000
vt 1.000000 0.500000
vt 1.000000 1.000000
vt 0.750000 0.500000
vt 1.000000 0.500000
vt 1.000000 1.000000
vt 0.750000 0.500000
vt 1.000000 0.500000
vt 1.000000 1.000000
vt 0.750000 0.500000
vt 1.000000 0.500000
vt 1.000000 1.000000
vt 0.750000 0.500000
vt 1.000000 0.500000
vt 1.000000 1.000000
vt 0.750000 0.500000
vt 1.000000 0.500000
vt 1.000000 1.000000
vt 0.750000 0.500000
vt 1.000000 0.500000
vt 1.000000 1.000000
vt 0.750000 0.500000
vt 1.000000 0.500000
vt 1.000000 1.000000
vt 0.750000 0.500000
vt 1.000000 0.500000
vt 1.000000 1.000000
vt 0.750000 0.500000
vt 1.000000 0.500000
vt 1.000000 1.000000
vt 0.750000 0.500000
vt 1.000000 0.500000
vt 1.000000 1.000000
vt 0.750000 1.000000
vt 0.750000 0.500000
vt 1.000000 0.500000
vt 1.000000 1.000000
vt 0.750000 1.000000
vt 0.750000 0.500000
vt 1.000000 0.500000
vt 1.000000 1.000000
vt 0.750000 1.000000
vt 0.750000 0.500000
vt 1.000000 0.500000
vt 1.000000 1.000000
vt 0.750000 1.000000
vt 0.750000 0.500000
vt 1.000000 0.500000
vt 1.000000 1.000000
vt 0.750000 1.000000
vt 0.750000 0.500000
vt 1.000000 0.500000
vt 1.000000 1.000000
vt 0.750000 1.000000
vt 0.750000 0.500000
vt 1.000000 0.500000
vt 1.000000 1.000000
vt 0.750000 1.000000
vt 0.750000 0.500000
vt 1.000000 0.500000
vt 1.000000 1.000000
vt 0.750000 1.000000
vt 0.750000 0.500000
vt 1.000000 0.500000
vt 1.000000 1.000000
vt 0.750000 0.500000
vt 1.000000 0.500000
vt 1.000000 1.000000
vt 0.750000 0.500000
vt 1.000000 0.500000
vt 1.000000 1.000000
vt 0.750000 0.500000
vt 1.000000 0.500000
vt 1.000000 1.000000
vt 0.750000 0.500000
vt 1.000000 0.500000
vt 1.000000 1.000000
vt 0.750000 0.500000
vt 1.000000 0.500000
vt 1.000000 1.000000
vt 0.750000 0.500000
vt 1.000000 0.500000
vt 1.000000 1.000000
vt 0.750000 0.500000
vt 1.000000 0.500000
vt 1.000000 1.000000
vt 0.750000 0.500000
vt 1.000000 0.500000
vt 1.000000 1.000000
vt 0.750000 0.500000
vt 1.000000 0.500000
vt 1.000000 1.000000
vt 0.750000 0.500000
vt 1.000000 0.500000
vt 1.000000 1.000000
vt 0.750000 0.500000
vt 1.000000 0.500000
vt 1.000000 1.000000
f 1/1 2/2 3/3 4/4
f 5/5 6/6 7/7 8/8
f 9/9 10/10 11/11 12/12
f 13/13 14/14 15/15 16/16
f 17/17 18/18 19/19 20/20
f 21/21 22/22 23/23 24/24
f 25/25 26/26 27/27 28/28
f 29/29 30/30 31/31 32/32
f 33/33 34/34 35/35
f 36/36 37/37 38/38
f 39/39 40/40 41/41
f 42/42 43/43 44/44
f 45/45 46/46 47/47
f 48/48 49/49 50/50
f 51/51 52/52 53/53
f 54/54 55/55 56/56
f 57/57 58/58 59/59
f 60/60 61/61 62/62
f 63/63 64/64 65/65
f 66/66 67/67 68/68
f 69/69 70/70 71/71 72/72
f 73/73 74/74 75/75 76/76
f 77/77 78/78 79/79 80/80
f 81/81 82/82 83/83 84/84
f 85/85 86/86 87/87 88/88
f 89/89 90/90 91/91 92/92
f 93/93 94/94 95/95 96/96
f 97/97 98/98 99/99 100/100
f 101/101 102/102 103/103
f 104/104 105/105 106/106
f 107/107 108/108 109/109
f 110/110 111/111 112/112
f 113/113 114/114 115/115
f 116/116 117/117 118/118
f 119/119 120/120 121/121
f 122/122 123/123 124/124
f 125/125 126/126 127/127
f 128/128 129/129 130/130
f 131/131 132/132 133/133
f 134/134 135/135 136/136
f 137/137 138/138 139/139 140/140
f 141/141 142/142 143/143 144/144
f 145/145 146/146 147/147 148/148
f 149/149 150/150 151/151 152/152
f 153/153 154/154 155/155 156/156
f 157/157 158/158 159/159 160/160
f 161/161 162/162 163/163 164/164
f 165/165 166/166 167/167 168/168
f 169/169 170/170 171/171
f 172/172 173/173 174/174
f 175/175 176/176 177/177
f 178/178 179/179 180/180
f 181/181 182/182 183/183
f 184/184 185/185 186/186
f 187/187 188/188 189/189
f 190/190 191/191 192/192
f 193/193 194/194 195/195
f 196/196 197/197 198/198
f 199/199 200/200 201/201
f 202/202 203/203 204/204
f 205/205 206/206 207/207 208/208
f 209/209 210/210 211/211 212/212
f 213/213 214/214 215/215 216/216
f 217/217 218/218 219/219 220/220
f 221/221 222/222 223/223 224/224
f 225/225 226/226 227/227 228/228
f 229/229 230/230 231/231 232/232
f 233/233 234/234 235/235 236/236
f 237/237 238/238 239/239
f 240/240 241/241 242/242
f 243/243 244/244 245/245
f 246/246 247/247 248/248
f 249/249 250/250 251/251
f 252/252 253/253 254/254
f 255/255 256/256 257/257
f 258/258 259/259 260/260
f 261/261 262/262 263/263
f 264/264 265/265 266/266
f 267/267 268/268 269/269
f 270/270 271/271 272/272
f 273/273 274/274 275/275 276/276
f 277/277 278/278 279/279 280/280
f 281/281 282/282 283/283 284/284
f 285/285 286/286 287/287 288/288
f 289/289 290/290 291/291 292/292
f 293/293 294/294 295/295 296/296
f 297/297 298/298 299/299 300/300
f 301/301 302/302 303/303 304/304
f 305/305 306/306 307/307
f 308/308 309/309 310/310
f 311/311 312/312 313/313
f 314/314 315/315 316/316
f 317/317 318/318 319/319
f 320/320 321/321 322/322
f 323/323 324/324 325/325
f 326/326 327/327 328/328
f 329/329 330/330 331/331
f 332/332 333/333 334/334
f 335/335 336/336 337/337
f 338/338 339/339 340/340
f 341/341 342/342 343/343 344/344
f 345/345 346/346 347/347 348/348
f 349/349 350/350 351/351 352/352
f 353/353 354/354 355/355 356/356
f 357/357 358/358 359/359 360/360
f 361/361 362/362 363/363 364/364
f 365/365 366/366 367/367 368/368
f 369/369 370/370 371/371 372/372
f 373/373 374/374 375/375
f 376/376 377/377 378/378
f 379/379 380/380 381/381
f 382/382 383/383 384/384
f 385/385 386/386 387/387
f 388/388 389/389 390/390
f 391/391 392/392 393/393
f 394/394 395/395 396/396
f 397/397 398/398 399/399
f 400/400 401/401 402/402
f 403/403 404/404 405/405
f 406/406 407/407 408/408
f 409/409 410/410 411/411 412/412
f 413/413 414/414 415/415 416/416
f 417/417 418/418 419/419 420/420
f 421/421 422/422 423/423 424/424
f 425/425 426/426 427/427 428/428
f 429/429 430/430 431/431 432/432
f 433/433 434/434 435/435 436/436
f 437/437 438/438 439/439 440/440
f 441/441 442/442 443/443
f 444/444 445/445 446/446
f 447/447 448/448 449/449
f 450/450 451/451 452/452
f 453/453 454/454 455/455
f 456/456 457/457 458/458
f 459/459 460/460 461/461
f 462/462 463/463 464/464
f 465/465 466/466 467/467
f 468/468 469/469 470/470
f 471/471 472/472 473/473
f 474/474 475/475 476/476
f 477/477 478/478 479/479 480/480
f 481/481 482/482 483/483 484/484
f 485/485 486/486 487/487 488/488
f 489/489 490/490 491/491 492/492
f 493/493 494/494 495/495 496/496
f 497/497 498/498 499/499 500/500
f 501/501 502/502 503/503 504/504
f 505/505 506/506 507/507 508/508
f 509/509 510/510 511/511
f 512/512 513/513 514/514
f 515/515 516/516 517/517
f 518/518 519/519 520/520
f 521/521 522/522 523/523
f 524/524 525/525 526/526
f 527/527 528/528 529/529
f 530/530 531/531 532/532
f 533/533 534/534 535/535
f 536/536 537/537 538/538
f 539/539 540/540 541/541
f 542/542 543/543 544/544
f 545/545 546/546 547/547 548/548
f 549/549 550/550 551/551 552/552
f 553/553 554/554 555/555 556/556
f 557/557 558/558 559/559 560/560
f 561/561 562/562 563/563 564/564
f 565/565 566/566 567/567 568/568
f 569/569 570/570 571/571 572/572
f 573/573 574/574 575/575 576/576
f 577/577 578/578 579/579
f 580/580 581/581 582/582
f 583/583 584/584 585/585
f 586/586 587/587 588/588
f 589/589 590/590 591/591
f 592/592 593/593 594/594
f 595/595 596/596 597/597
f 598/598 599/599 600/600
f 601/601 602/602 603/603
f 604/604 605/605 606/606
f 607/607 608/608 609/609
f 610/610 611/611 612/612
f 613/613 614/614 615/615 616/616
f 617/617 618/618 619/619 620/620
f 621/621 622/622 623/623 624/624
f 625/625 626/626 627/627 628/628
f 629/629 630/630 631/631 632/632
f 633/633 634/634 635/635 636/636
f 637/637 638/638 639/639 640/640
f 641/641 642/642 643/643 644/644
f 645/645 646/646 647/647
f 648/648 649/649 650/650
f 651/651 652/652 653/653
f 654/654 655/655 656/656
f 657/657 658/658 659/659
f 660/660 661/661 662/662
f 663/663 664/664 665/665
f 666/666 667/667 668/668
f 669/669 670/670 671/671
f 672/672 673/673 674/674
f 675/675 676/676 677/677
f 678/678 679/679 680/680
f 681/681 682/682 683/683 684/684
f 685/685 686/686 687/687 688/688
f 689/689 690/690 691/691 692/692
f 693/693 694/694 695/695 696/696
f 697/697 698/698 699/699 700/700
f 701/701 702/702 703/703 704/704
f 705/705 706/706 707/707 708/708
f 709/709 710/710 711/711 712/712
f 713/713 714/714 715/715
f 716/716 717/717 718/718
f 719/719 720/720 721/721
f 722/722 723/723 724/724
f 725/725 726/726 727/727
f 728/728 729/729 730/730
f 731/731 732/732 733/733
f 734/734 735/735 736/736
f 737/737 738/738 739/739
f 740/740 741/741 742/742
f 743/743 744/744 745/745
f 746/746 747/747 748/748
f 749/749 750/750 751/751 752/752
f 753/753 754/754 755/755 756/756
f 757/757 758/758 759/759 760/760
f 761/761 762/762 763/763 764/764
f 765/765 766/766 767/767 768/768
f 769/769 770/770 771/771 772/772
f 773/773 774/774 775/775 776/776
f 777/777 778/778 779/779 780/780
f 781/781 782/782 783/783
f 784/784 785/785 786/786
f 787/787 788/788 789/789
f 790/790 791/791 792/792
f 793/793 794/794 795/795
f 796/796 797/797 798/798
f 799/799 800/800 801/801
f 802/802 803/803 804/804
f 805/805 806/806 807/807
f 808/808 809/809 810/810
f 811/811 812/812 813/813
f 814/814 815/815 816/816
f 817/817 818/818 819/819 820/820
f 821/821 822/822 823/823 824/824
f 825/825 826/826 827/827 828/828
f 829/829 830/830 831/831 832/832
f 833/833 834/834 835/835 836/836
f 837/837 838/838 839/839 840/840
f 841/841 842/842 843/843 844/844
f 845/845 846/846 847/847 848/848
f 849/849 850/850 851/851
f 852/852 853/853 854/854
f 855/855 856/856 857/857
f 858/858 859/859 860/860
f 861/861 862/862 863/863
f 864/864 865/865 866/866
f 867/867 868/868 869/869
f 870/870 871/871 872/872
f 873/873 874/874 875/875
f 876/876 877/877 878/878
f 879/879 880/880 881/881
f 882/882 883/883 884/884
f 885/885 886/886 887/887 888/888
f 889/889 890/890 891/891 892/892
f 893/893 894/894 895/895 896/896
f 897/897 898/898 899/899 900/900
f 901/901 902/902 903/903 904/904
f 905/905 906/906 907/907 908/908
f 909/909 910/910 911/911 912/912
f 913/913 914/914 915/915 916/916
f 917/917 918/918 919/919
f 920/920 921/921 922/922
f 923/923 924/924 925/925
f 926/926 927/927 928/928
f 929/929 930/930 931/931
f 932/932 933/933 934/934
f 935/935 936/936 937/937
f 938/938 939/939 940/940
f 941/941 942/942 943/943
f 944/944 945/945 946/946
f 947/947 948/948 949/949
f 950/950 951/951 952/952
