o Rubble
v 2.6411 2.4410 8.3650
v 3.3136 0.1800 10.9338
v 4.6828 0.1800 8.7650
v 2.6411 2.3210 8.3650
v 4.6828 0.0600 8.7650
v 3.3136 0.0600 10.9338
v 4.6828 0.1800 8.7650
v 3.3136 0.1800 10.9338
v 3.3136 0.0600 10.9338
v 4.6828 0.0600 8.7650
v 2.6411 2.4410 8.3650
v 0.0035 0.1800 10.9533
v 3.3136 0.1800 10.9338
v 2.6411 2.3210 8.3650
v 3.3136 0.0600 10.9338
v 0.0035 0.0600 10.9533
v 3.3136 0.1800 10.9338
v 0.0035 0.1800 10.9533
v 0.0035 0.0600 10.9533
v 3.3136 0.0600 10.9338
v 2.6411 2.4410 8.3650
v 0.1840 0.1800 6.5872
v 0.0035 0.1800 10.9533
v 2.6411 2.3210 8.3650
v 0.0035 0.0600 10.9533
v 0.1840 0.0600 6.5872
v 0.0035 0.1800 10.9533
v 0.1840 0.1800 6.5872
v 0.1840 0.0600 6.5872
v 0.0035 0.0600 10.9533
v 2.6411 2.4410 8.3650
v 3.2682 0.1800 5.5351
v 0.1840 0.1800 6.5872
v 2.6411 2.3210 8.3650
v 0.1840 0.0600 6.5872
v 3.2682 0.0600 5.5351
v 0.1840 0.1800 6.5872
v 3.2682 0.1800 5.5351
v 3.2682 0.0600 5.5351
v 0.1840 0.0600 6.5872
v 2.6411 2.4410 8.3650
v 4.6828 0.1800 8.7650
v 3.2682 0.1800 5.5351
v 2.6411 2.3210 8.3650
v 3.2682 0.0600 5.5351
v 4.6828 0.0600 8.7650
v 3.2682 0.1800 5.5351
v 4.6828 0.1800 8.7650
v 4.6828 0.0600 8.7650
v 3.2682 0.0600 5.5351
v -16.4402 3.0430 9.9042
v -15.4898 0.1800 14.0150
v -13.3957 0.1800 10.3042
v -16.4402 2.9230 9.9042
v -13.3957 0.0600 10.3042
v -15.4898 0.0600 14.0150
v -13.3957 0.1800 10.3042
v -15.4898 0.1800 14.0150
v -15.4898 0.0600 14.0150
v -13.3957 0.0600 10.3042
v -16.4402 3.0430 9.9042
v -19.8620 0.1800 12.1287
v -15.4898 0.1800 14.0150
v -16.4402 2.9230 9.9042
v -15.4898 0.0600 14.0150
v -19.8620 0.0600 12.1287
v -15.4898 0.1800 14.0150
v -19.8620 0.1800 12.1287
v -19.8620 0.0600 12.1287
v -15.4898 0.0600 14.0150
v -16.4402 3.0430 9.9042
v -20.0795 0.1800 7.5966
v -19.8620 0.1800 12.1287
v -16.4402 2.9230 9.9042
v -19.8620 0.0600 12.1287
v -20.0795 0.0600 7.5966
v -19.8620 0.1800 12.1287
v -20.0795 0.1800 7.5966
v -20.0795 0.0600 7.5966
v -19.8620 0.0600 12.1287
v -16.4402 3.0430 9.9042
v -15.4677 0.1800 6.5043
v -20.0795 0.1800 7.5966
v -16.4402 2.9230 9.9042
v -20.0795 0.0600 7.5966
v -15.4677 0.0600 6.5043
v -20.0795 0.1800 7.5966
v -15.4677 0.1800 6.5043
v -15.4677 0.0600 6.5043
v -20.0795 0.0600 7.5966
v -16.4402 3.0430 9.9042
v -13.3957 0.1800 10.3042
v -15.4677 0.1800 6.5043
v -16.4402 2.9230 9.9042
v -15.4677 0.0600 6.5043
v -13.3957 0.0600 10.3042
v -15.4677 0.1800 6.5043
v -13.3957 0.1800 10.3042
v -13.3957 0.0600 10.3042
v -15.4677 0.0600 6.5043
v 7.1314 1.7557 -21.9734
v 7.6521 0.1800 -19.6679
v 8.4994 0.1800 -21.5734
v 7.1314 1.6357 -21.9734
v 8.4994 0.0600 -21.5734
v 7.6521 0.0600 -19.6679
v 8.4994 0.1800 -21.5734
v 7.6521 0.1800 -19.6679
v 7.6521 0.0600 -19.6679
v 8.4994 0.0600 -21.5734
v 7.1314 1.7557 -21.9734
v 5.0044 0.1800 -20.4534
v 7.6521 0.1800 -19.6679
v 7.1314 1.6357 -21.9734
v 7.6521 0.0600 -19.6679
v 5.0044 0.0600 -20.4534
v 7.6521 0.1800 -19.6679
v 5.0044 0.1800 -20.4534
v 5.0044 0.0600 -20.4534
v 7.6521 0.0600 -19.6679
v 7.1314 1.7557 -21.9734
v 5.1463 0.1800 -22.9365
v 5.0044 0.1800 -20.4534
v 7.1314 1.6357 -21.9734
v 5.0044 0.0600 -20.4534
v 5.1463 0.0600 -22.9365
v 5.0044 0.1800 -20.4534
v 5.1463 0.1800 -22.9365
v 5.1463 0.0600 -22.9365
v 5.0044 0.0600 -20.4534
v 7.1314 1.7557 -21.9734
v 7.4880 0.1800 -23.9354
v 5.1463 0.1800 -22.9365
v 7.1314 1.6357 -21.9734
v 5.1463 0.0600 -22.9365
v 7.4880 0.0600 -23.9354
v 5.1463 0.1800 -22.9365
v 7.4880 0.1800 -23.9354
v 7.4880 0.0600 -23.9354
v 5.1463 0.0600 -22.9365
v 7.1314 1.7557 -21.9734
v 8.4994 0.1800 -21.5734
v 7.4880 0.1800 -23.9354
v 7.1314 1.6357 -21.9734
v 7.4880 0.0600 -23.9354
v 8.4994 0.0600 -21.5734
v 7.4880 0.1800 -23.9354
v 8.4994 0.1800 -21.5734
v 8.4994 0.0600 -21.5734
v 7.4880 0.0600 -23.9354
v -15.8052 1.2744 8.0333
v -15.6352 0.1800 9.5588
v -14.4266 0.1800 8.4333
v -15.8052 1.1544 8.0333
v -14.4266 0.0600 8.4333
v -15.6352 0.0600 9.5588
v -14.4266 0.1800 8.4333
v -15.6352 0.1800 9.5588
v -15.6352 0.0600 9.5588
v -14.4266 0.0600 8.4333
v -15.8052 1.2744 8.0333
v -17.1255 0.1800 9.2081
v -15.6352 0.1800 9.5588
v -15.8052 1.1544 8.0333
v -15.6352 0.0600 9.5588
v -17.1255 0.0600 9.2081
v -15.6352 0.1800 9.5588
v -17.1255 0.1800 9.2081
v -17.1255 0.0600 9.2081
v -15.6352 0.0600 9.5588
v -15.8052 1.2744 8.0333
v -17.6376 0.1800 7.3651
v -17.1255 0.1800 9.2081
v -15.8052 1.1544 8.0333
v -17.1255 0.0600 9.2081
v -17.6376 0.0600 7.3651
v -17.1255 0.1800 9.2081
v -17.6376 0.1800 7.3651
v -17.6376 0.0600 7.3651
v -17.1255 0.0600 9.2081
v -15.8052 1.2744 8.0333
v -15.7033 0.1800 7.2953
v -17.6376 0.1800 7.3651
v -15.8052 1.1544 8.0333
v -17.6376 0.0600 7.3651
v -15.7033 0.0600 7.2953
v -17.6376 0.1800 7.3651
v -15.7033 0.1800 7.2953
v -15.7033 0.0600 7.2953
v -17.6376 0.0600 7.3651
v -15.8052 1.2744 8.0333
v -14.4266 0.1800 8.4333
v -15.7033 0.1800 7.2953
v -15.8052 1.1544 8.0333
v -15.7033 0.0600 7.2953
v -14.4266 0.0600 8.4333
v -15.7033 0.1800 7.2953
v -14.4266 0.1800 8.4333
v -14.4266 0.0600 8.4333
v -15.7033 0.0600 7.2953
v -11.0286 1.5500 6.9345
v -10.8222 0.1800 9.4442
v -9.3910 0.1800 7.3345
v -11.0286 1.4300 6.9345
v -9.3910 0.0600 7.3345
v -10.8222 0.0600 9.4442
v -9.3910 0.1800 7.3345
v -10.8222 0.1800 9.4442
v -10.8222 0.0600 9.4442
v -9.3910 0.0600 7.3345
v -11.0286 1.5500 6.9345
v -13.1390 0.1800 8.3745
v -10.8222 0.1800 9.4442
v -11.0286 1.4300 6.9345
v -10.8222 0.0600 9.4442
v -13.1390 0.0600 8.3745
v -10.8222 0.1800 9.4442
v -13.1390 0.1800 8.3745
v -13.1390 0.0600 8.3745
v -10.8222 0.0600 9.4442
v -11.0286 1.5500 6.9345
v -13.0296 0.1800 6.2175
v -13.1390 0.1800 8.3745
v -11.0286 1.4300 6.9345
v -13.1390 0.0600 8.3745
v -13.0296 0.0600 6.2175
v -13.1390 0.1800 8.3745
v -13.0296 0.1800 6.2175
v -13.0296 0.0600 6.2175
v -13.1390 0.0600 8.3745
v -11.0286 1.5500 6.9345
v -10.8471 0.1800 5.9189
v -13.0296 0.1800 6.2175
v -11.0286 1.4300 6.9345
v -13.0296 0.0600 6.2175
v -10.8471 0.0600 5.9189
v -13.0296 0.1800 6.2175
v -10.8471 0.1800 5.9189
v -10.8471 0.0600 5.9189
v -13.0296 0.0600 6.2175
v -11.0286 1.5500 6.9345
v -9.3910 0.1800 7.3345
v -10.8471 0.1800 5.9189
v -11.0286 1.4300 6.9345
v -10.8471 0.0600 5.9189
v -9.3910 0.0600 7.3345
v -10.8471 0.1800 5.9189
v -9.3910 0.1800 7.3345
v -9.3910 0.0600 7.3345
v -10.8471 0.0600 5.9189
v -2.6822 3.2825 -7.0734
v -1.6967 0.1800 -2.6562
v 1.1543 0.1800 -6.6734
v -2.6822 3.1625 -7.0734
v 1.1543 0.0600 -6.6734
v -1.6967 0.0600 -2.6562
v 1.1543 0.1800 -6.6734
v -1.6967 0.1800 -2.6562
v -1.6967 0.0600 -2.6562
v 1.1543 0.0600 -6.6734
v -2.6822 3.2825 -7.0734
v -5.9446 0.1800 -4.0219
v -1.6967 0.1800 -2.6562
v -2.6822 3.1625 -7.0734
v -1.6967 0.0600 -2.6562
v -5.9446 0.0600 -4.0219
v -1.6967 0.1800 -2.6562
v -5.9446 0.1800 -4.0219
v -5.9446 0.0600 -4.0219
v -1.6967 0.0600 -2.6562
v -2.6822 3.2825 -7.0734
v -5.4767 0.1800 -9.4721
v -5.9446 0.1800 -4.0219
v -2.6822 3.1625 -7.0734
v -5.9446 0.0600 -4.0219
v -5.4767 0.0600 -9.4721
v -5.9446 0.1800 -4.0219
v -5.4767 0.1800 -9.4721
v -5.4767 0.0600 -9.4721
v -5.9446 0.0600 -4.0219
v -2.6822 3.2825 -7.0734
v -1.4212 0.1800 -10.9181
v -5.4767 0.1800 -9.4721
v -2.6822 3.1625 -7.0734
v -5.4767 0.0600 -9.4721
v -1.4212 0.0600 -10.9181
v -5.4767 0.1800 -9.4721
v -1.4212 0.1800 -10.9181
v -1.4212 0.0600 -10.9181
v -5.4767 0.0600 -9.4721
v -2.6822 3.2825 -7.0734
v 1.1543 0.1800 -6.6734
v -1.4212 0.1800 -10.9181
v -2.6822 3.1625 -7.0734
v -1.4212 0.0600 -10.9181
v 1.1543 0.0600 -6.6734
v -1.4212 0.1800 -10.9181
v 1.1543 0.1800 -6.6734
v 1.1543 0.0600 -6.6734
v -1.4212 0.0600 -10.9181
v 10.5850 1.5609 -11.6620
v 11.0235 0.1800 -9.5500
v 11.7630 0.1800 -11.2620
v 10.5850 1.4409 -11.6620
v 11.7630 0.0600 -11.2620
v 11.0235 0.0600 -9.5500
v 11.7630 0.1800 -11.2620
v 11.0235 0.1800 -9.5500
v 11.0235 0.0600 -9.5500
v 11.7630 0.0600 -11.2620
v 10.5850 1.5609 -11.6620
v 9.0176 0.1800 -10.1114
v 11.0235 0.1800 -9.5500
v 10.5850 1.4409 -11.6620
v 11.0235 0.0600 -9.5500
v 9.0176 0.0600 -10.1114
v 11.0235 0.1800 -9.5500
v 9.0176 0.1800 -10.1114
v 9.0176 0.0600 -10.1114
v 11.0235 0.0600 -9.5500
v 10.5850 1.5609 -11.6620
v 8.6195 0.1800 -12.3599
v 9.0176 0.1800 -10.1114
v 10.5850 1.4409 -11.6620
v 9.0176 0.0600 -10.1114
v 8.6195 0.0600 -12.3599
v 9.0176 0.1800 -10.1114
v 8.6195 0.1800 -12.3599
v 8.6195 0.0600 -12.3599
v 9.0176 0.0600 -10.1114
v 10.5850 1.5609 -11.6620
v 10.8835 0.1800 -13.2110
v 8.6195 0.1800 -12.3599
v 10.5850 1.4409 -11.6620
v 8.6195 0.0600 -12.3599
v 10.8835 0.0600 -13.2110
v 8.6195 0.1800 -12.3599
v 10.8835 0.1800 -13.2110
v 10.8835 0.0600 -13.2110
v 8.6195 0.0600 -12.3599
v 10.5850 1.5609 -11.6620
v 11.7630 0.1800 -11.2620
v 10.8835 0.1800 -13.2110
v 10.5850 1.4409 -11.6620
v 10.8835 0.0600 -13.2110
v 11.7630 0.0600 -11.2620
v 10.8835 0.1800 -13.2110
v 11.7630 0.1800 -11.2620
v 11.7630 0.0600 -11.2620
v 10.8835 0.0600 -13.2110
v -9.8827 1.3155 -13.2234
v -9.5694 0.1800 -11.0705
v -8.8762 0.1800 -12.8234
v -9.8827 1.1955 -13.2234
v -8.8762 0.0600 -12.8234
v -9.5694 0.0600 -11.0705
v -8.8762 0.1800 -12.8234
v -9.5694 0.1800 -11.0705
v -9.5694 0.0600 -11.0705
v -8.8762 0.0600 -12.8234
v -9.8827 1.3155 -13.2234
v -11.6301 0.1800 -11.7783
v -9.5694 0.1800 -11.0705
v -9.8827 1.1955 -13.2234
v -9.5694 0.0600 -11.0705
v -11.6301 0.0600 -11.7783
v -9.5694 0.1800 -11.0705
v -11.6301 0.1800 -11.7783
v -11.6301 0.0600 -11.7783
v -9.5694 0.0600 -11.0705
v -9.8827 1.3155 -13.2234
v -11.6664 0.1800 -13.6153
v -11.6301 0.1800 -11.7783
v -9.8827 1.1955 -13.2234
v -11.6301 0.0600 -11.7783
v -11.6664 0.0600 -13.6153
v -11.6301 0.1800 -11.7783
v -11.6664 0.1800 -13.6153
v -11.6664 0.0600 -13.6153
v -11.6301 0.0600 -11.7783
v -9.8827 1.3155 -13.2234
v -9.5565 0.1800 -14.1771
v -11.6664 0.1800 -13.6153
v -9.8827 1.1955 -13.2234
v -11.6664 0.0600 -13.6153
v -9.5565 0.0600 -14.1771
v -11.6664 0.1800 -13.6153
v -9.5565 0.1800 -14.1771
v -9.5565 0.0600 -14.1771
v -11.6664 0.0600 -13.6153
v -9.8827 1.3155 -13.2234
v -8.8762 0.1800 -12.8234
v -9.5565 0.1800 -14.1771
v -9.8827 1.1955 -13.2234
v -9.5565 0.0600 -14.1771
v -8.8762 0.0600 -12.8234
v -9.5565 0.1800 -14.1771
v -8.8762 0.1800 -12.8234
v -8.8762 0.0600 -12.8234
v -9.5565 0.0600 -14.1771
v 14.8847 2.6451 21.5984
v 15.4989 0.1800 24.3886
v 18.3363 0.1800 21.9984
v 14.8847 2.5251 21.5984
v 18.3363 0.0600 21.9984
v 15.4989 0.0600 24.3886
v 18.3363 0.1800 21.9984
v 15.4989 0.1800 24.3886
v 15.4989 0.0600 24.3886
v 18.3363 0.0600 21.9984
v 14.8847 2.6451 21.5984
v 11.7355 0.1800 24.0213
v 15.4989 0.1800 24.3886
v 14.8847 2.5251 21.5984
v 15.4989 0.0600 24.3886
v 11.7355 0.0600 24.0213
v 15.4989 0.1800 24.3886
v 11.7355 0.1800 24.0213
v 11.7355 0.0600 24.0213
v 15.4989 0.0600 24.3886
v 14.8847 2.6451 21.5984
v 11.9951 0.1800 19.7542
v 11.7355 0.1800 24.0213
v 14.8847 2.5251 21.5984
v 11.7355 0.0600 24.0213
v 11.9951 0.0600 19.7542
v 11.7355 0.1800 24.0213
v 11.9951 0.1800 19.7542
v 11.9951 0.0600 19.7542
v 11.7355 0.0600 24.0213
v 14.8847 2.6451 21.5984
v 15.4718 0.1800 19.3299
v 11.9951 0.1800 19.7542
v 14.8847 2.5251 21.5984
v 11.9951 0.0600 19.7542
v 15.4718 0.0600 19.3299
v 11.9951 0.1800 19.7542
v 15.4718 0.1800 19.3299
v 15.4718 0.0600 19.3299
v 11.9951 0.0600 19.7542
v 14.8847 2.6451 21.5984
v 18.3363 0.1800 21.9984
v 15.4718 0.1800 19.3299
v 14.8847 2.5251 21.5984
v 15.4718 0.0600 19.3299
v 18.3363 0.0600 21.9984
v 15.4718 0.1800 19.3299
v 18.3363 0.1800 21.9984
v 18.3363 0.0600 21.9984
v 15.4718 0.0600 19.3299
v 15.1278 2.3034 2.5962
v 15.8929 0.1800 5.3016
v 18.0202 0.1800 2.9962
v 15.1278 2.1834 2.5962
v 18.0202 0.0600 2.9962
v 15.8929 0.0600 5.3016
v 18.0202 0.1800 2.9962
v 15.8929 0.1800 5.3016
v 15.8929 0.0600 5.3016
v 18.0202 0.0600 2.9962
v 15.1278 2.3034 2.5962
v 12.0998 0.1800 4.6183
v 15.8929 0.1800 5.3016
v 15.1278 2.1834 2.5962
v 15.8929 0.0600 5.3016
v 12.0998 0.0600 4.6183
v 15.8929 0.1800 5.3016
v 12.0998 0.1800 4.6183
v 12.0998 0.0600 4.6183
v 15.8929 0.0600 5.3016
v 15.1278 2.3034 2.5962
v 12.2831 0.1800 1.2776
v 12.0998 0.1800 4.6183
v 15.1278 2.1834 2.5962
v 12.0998 0.0600 4.6183
v 12.2831 0.0600 1.2776
v 12.0998 0.1800 4.6183
v 12.2831 0.1800 1.2776
v 12.2831 0.0600 1.2776
v 12.0998 0.0600 4.6183
v 15.1278 2.3034 2.5962
v 15.7091 0.1800 0.6460
v 12.2831 0.1800 1.2776
v 15.1278 2.1834 2.5962
v 12.2831 0.0600 1.2776
v 15.7091 0.0600 0.6460
v 12.2831 0.1800 1.2776
v 15.7091 0.1800 0.6460
v 15.7091 0.0600 0.6460
v 12.2831 0.0600 1.2776
v 15.1278 2.3034 2.5962
v 18.0202 0.1800 2.9962
v 15.7091 0.1800 0.6460
v 15.1278 2.1834 2.5962
v 15.7091 0.0600 0.6460
v 18.0202 0.0600 2.9962
v 15.7091 0.1800 0.6460
v 18.0202 0.1800 2.9962
v 18.0202 0.0600 2.9962
v 15.7091 0.0600 0.6460
v -9.5888 2.3040 16.9757
v -8.9309 0.1800 20.3148
v -7.3311 0.1800 17.3757
v -9.5888 2.1840 16.9757
v -7.3311 0.0600 17.3757
v -8.9309 0.0600 20.3148
v -7.3311 0.1800 17.3757
v -8.9309 0.1800 20.3148
v -8.9309 0.0600 20.3148
v -7.3311 0.0600 17.3757
v -9.5888 2.3040 16.9757
v -12.2496 0.1800 19.4836
v -8.9309 0.1800 20.3148
v -9.5888 2.1840 16.9757
v -8.9309 0.0600 20.3148
v -12.2496 0.0600 19.4836
v -8.9309 0.1800 20.3148
v -12.2496 0.1800 19.4836
v -12.2496 0.0600 19.4836
v -8.9309 0.0600 20.3148
v -9.5888 2.3040 16.9757
v -12.3789 0.1800 15.3979
v -12.2496 0.1800 19.4836
v -9.5888 2.1840 16.9757
v -12.2496 0.0600 19.4836
v -12.3789 0.0600 15.3979
v -12.2496 0.1800 19.4836
v -12.3789 0.1800 15.3979
v -12.3789 0.0600 15.3979
v -12.2496 0.0600 19.4836
v -9.5888 2.3040 16.9757
v -9.1882 0.1800 15.1273
v -12.3789 0.1800 15.3979
v -9.5888 2.1840 16.9757
v -12.3789 0.0600 15.3979
v -9.1882 0.0600 15.1273
v -12.3789 0.1800 15.3979
v -9.1882 0.1800 15.1273
v -9.1882 0.0600 15.1273
v -12.3789 0.0600 15.3979
v -9.5888 2.3040 16.9757
v -7.3311 0.1800 17.3757
v -9.1882 0.1800 15.1273
v -9.5888 2.1840 16.9757
v -9.1882 0.0600 15.1273
v -7.3311 0.0600 17.3757
v -9.1882 0.1800 15.1273
v -7.3311 0.1800 17.3757
v -7.3311 0.0600 17.3757
v -9.1882 0.0600 15.1273
v 13.5399 1.6395 10.2981
v 13.8063 0.1800 12.5435
v 14.8888 0.1800 10.6981
v 13.5399 1.5195 10.2981
v 14.8888 0.0600 10.6981
v 13.8063 0.0600 12.5435
v 14.8888 0.1800 10.6981
v 13.8063 0.1800 12.5435
v 13.8063 0.0600 12.5435
v 14.8888 0.0600 10.6981
v 13.5399 1.6395 10.2981
v 11.7597 0.1800 11.8349
v 13.8063 0.1800 12.5435
v 13.5399 1.5195 10.2981
v 13.8063 0.0600 12.5435
v 11.7597 0.0600 11.8349
v 13.8063 0.1800 12.5435
v 11.7597 0.1800 11.8349
v 11.7597 0.0600 11.8349
v 13.8063 0.0600 12.5435
v 13.5399 1.6395 10.2981
v 11.3135 0.1800 9.3998
v 11.7597 0.1800 11.8349
v 13.5399 1.5195 10.2981
v 11.7597 0.0600 11.8349
v 11.3135 0.0600 9.3998
v 11.7597 0.1800 11.8349
v 11.3135 0.1800 9.3998
v 11.3135 0.0600 9.3998
v 11.7597 0.0600 11.8349
v 13.5399 1.6395 10.2981
v 13.8275 0.1800 8.3810
v 11.3135 0.1800 9.3998
v 13.5399 1.5195 10.2981
v 11.3135 0.0600 9.3998
v 13.8275 0.0600 8.3810
v 11.3135 0.1800 9.3998
v 13.8275 0.1800 8.3810
v 13.8275 0.0600 8.3810
v 11.3135 0.0600 9.3998
v 13.5399 1.6395 10.2981
v 14.8888 0.1800 10.6981
v 13.8275 0.1800 8.3810
v 13.5399 1.5195 10.2981
v 13.8275 0.0600 8.3810
v 14.8888 0.0600 10.6981
v 13.8275 0.1800 8.3810
v 14.8888 0.1800 10.6981
v 14.8888 0.0600 10.6981
v 13.8275 0.0600 8.3810
v -18.2780 2.3851 -0.0066
v -17.5514 0.1800 2.7571
v -16.2438 0.1800 0.3934
v -18.2780 2.2651 -0.0066
v -16.2438 0.0600 0.3934
v -17.5514 0.0600 2.7571
v -16.2438 0.1800 0.3934
v -17.5514 0.1800 2.7571
v -17.5514 0.0600 2.7571
v -16.2438 0.0600 0.3934
v -18.2780 2.3851 -0.0066
v -21.0054 0.1800 2.1393
v -17.5514 0.1800 2.7571
v -18.2780 2.2651 -0.0066
v -17.5514 0.0600 2.7571
v -21.0054 0.0600 2.1393
v -17.5514 0.1800 2.7571
v -21.0054 0.1800 2.1393
v -21.0054 0.0600 2.1393
v -17.5514 0.0600 2.7571
v -18.2780 2.3851 -0.0066
v -20.6549 0.1800 -1.1852
v -21.0054 0.1800 2.1393
v -18.2780 2.2651 -0.0066
v -21.0054 0.0600 2.1393
v -20.6549 0.0600 -1.1852
v -21.0054 0.1800 2.1393
v -20.6549 0.1800 -1.1852
v -20.6549 0.0600 -1.1852
v -21.0054 0.0600 2.1393
v -18.2780 2.3851 -0.0066
v -17.5064 0.1800 -2.4965
v -20.6549 0.1800 -1.1852
v -18.2780 2.2651 -0.0066
v -20.6549 0.0600 -1.1852
v -17.5064 0.0600 -2.4965
v -20.6549 0.1800 -1.1852
v -17.5064 0.1800 -2.4965
v -17.5064 0.0600 -2.4965
v -20.6549 0.0600 -1.1852
v -18.2780 2.3851 -0.0066
v -16.2438 0.1800 0.3934
v -17.5064 0.1800 -2.4965
v -18.2780 2.2651 -0.0066
v -17.5064 0.0600 -2.4965
v -16.2438 0.0600 0.3934
v -17.5064 0.1800 -2.4965
v -16.2438 0.1800 0.3934
v -16.2438 0.0600 0.3934
v -17.5064 0.0600 -2.4965
vt 0.000000 0.500000
vt 0.250000 0.500000
vt 0.250000 1.000000
vt 0.000000 0.500000
vt 0.250000 0.500000
vt 0.250000 1.000000
vt 0.000000 0.500000
vt 0.250000 0.500000
vt 0.250000 1.000000
vt 0.000000 1.000000
vt 0.000000 0.500000
vt 0.250000 0.500000
vt 0.250000 1.000000
vt 0.000000 0.500000
vt 0.250000 0.500000
vt 0.250000 1.000000
vt 0.000000 0.500000
vt 0.250000 0.500000
vt 0.250000 1.000000
vt 0.000000 1.000000
vt 0.000000 0.500000
vt 0.250000 0.500000
vt 0.250000 1.000000
vt 0.000000 0.500000
vt 0.250000 0.500000
vt 0.250000 1.000000
vt 0.000000 0.500000
vt 0.250000 0.500000
vt 0.250000 1.000000
vt 0.000000 1.000000
vt 0.000000 0.500000
vt 0.250000 0.500000
vt 0.250000 1.000000
vt 0.000000 0.500000
vt 0.250000 0.500000
vt 0.250000 1.000000
vt 0.000000 0.500000
vt 0.250000 0.500000
vt 0.250000 1.000000
vt 0.000000 1.000000
vt 0.000000 0.500000
vt 0.250000 0.500000
vt 0.250000 1.000000
vt 0.000000 0.500000
vt 0.250000 0.500000
vt 0.250000 1.000000
vt 0.000000 0.500000
vt 0.250000 0.500000
vt 0.250000 1.000000
vt 0.000000 1.000000
vt 0.000000 0.500000
vt 0.250000 0.500000
vt 0.250000 1.000000
vt 0.000000 0.500000
vt 0.250000 0.500000
vt 0.250000 1.000000
vt 0.000000 0.500000
vt 0.250000 0.500000
vt 0.250000 1.000000
vt 0.000000 1.000000
vt 0.000000 0.500000
vt 0.250000 0.500000
vt 0.250000 1.000000
vt 0.000000 0.500000
vt 0.250000 0.500000
vt 0.250000 1.000000
vt 0.000000 0.500000
vt 0.250000 0.500000
vt 0.250000 1.000000
vt 0.000000 1.000000
vt 0.000000 0.500000
vt 0.250000 0.500000
vt 0.250000 1.000000
vt 0.000000 0.500000
vt 0.250000 0.500000
vt 0.250000 1.000000
vt 0.000000 0.500000
vt 0.250000 0.500000
vt 0.250000 1.000000
vt 0.000000 1.000000
vt 0.000000 0.500000
vt 0.250000 0.500000
vt 0.250000 1.000000
vt 0.000000 0.500000
vt 0.250000 0.500000
vt 0.250000 1.000000
vt 0.000000 0.500000
vt 0.250000 0.500000
vt 0.250000 1.000000
vt 0.000000 1.000000
vt 0.000000 0.500000
vt 0.250000 0.500000
vt 0.250000 1.000000
vt 0.000000 0.500000
vt 0.250000 0.500000
vt 0.250000 1.000000
vt 0.000000 0.500000
vt 0.250000 0.500000
vt 0.250000 1.000000
vt 0.000000 1.000000
vt 0.000000 0.500000
vt 0.250000 0.500000
vt 0.250000 1.000000
vt 0.000000 0.500000
vt 0.250000 0.500000
vt 0.250000 1.000000
vt 0.000000 0.500000
vt 0.250000 0.500000
vt 0.250000 1.000000
vt 0.000000 1.000000
vt 0.000000 0.500000
vt 0.250000 0.500000
vt 0.250000 1.000000
vt 0.000000 0.500000
vt 0.250000 0.500000
vt 0.250000 1.000000
vt 0.000000 0.500000
vt 0.250000 0.500000
vt 0.250000 1.000000
vt 0.000000 1.000000
vt 0.000000 0.500000
vt 0.250000 0.500000
vt 0.250000 1.000000
vt 0.000000 0.500000
vt 0.250000 0.500000
vt 0.250000 1.000000
vt 0.000000 0.500000
vt 0.250000 0.500000
vt 0.250000 1.000000
vt 0.000000 1.000000
vt 0.000000 0.500000
vt 0.250000 0.500000
vt 0.250000 1.000000
vt 0.000000 0.500000
vt 0.250000 0.500000
vt 0.250000 1.000000
vt 0.000000 0.500000
vt 0.250000 0.500000
vt 0.250000 1.000000
vt 0.000000 1.000000
vt 0.000000 0.500000
vt 0.250000 0.500000
vt 0.250000 1.000000
vt 0.000000 0.500000
vt 0.250000 0.500000
vt 0.250000 1.000000
vt 0.000000 0.500000
vt 0.250000 0.500000
vt 0.250000 1.000000
vt 0.000000 1.000000
vt 0.000000 0.500000
vt 0.250000 0.500000
vt 0.250000 1.000000
vt 0.000000 0.500000
vt 0.250000 0.500000
vt 0.250000 1.000000
vt 0.000000 0.500000
vt 0.250000 0.500000
vt 0.250000 1.000000
vt 0.000000 1.000000
vt 0.000000 0.500000
vt 0.250000 0.500000
vt 0.250000 1.000000
vt 0.000000 0.500000
vt 0.250000 0.500000
vt 0.250000 1.000000
vt 0.000000 0.500000
vt 0.250000 0.500000
vt 0.250000 1.000000
vt 0.000000 1.000000
vt 0.000000 0.500000
vt 0.250000 0.500000
vt 0.250000 1.000000
vt 0.000000 0.500000
vt 0.250000 0.500000
vt 0.250000 1.000000
vt 0.000000 0.500000
vt 0.250000 0.500000
vt 0.250000 1.000000
vt 0.000000 1.000000
vt 0.000000 0.500000
vt 0.250000 0.500000
vt 0.250000 1.000000
vt 0.000000 0.500000
vt 0.250000 0.500000
vt 0.250000 1.000000
vt 0.000000 0.500000
vt 0.250000 0.500000
vt 0.250000 1.000000
vt 0.000000 1.000000
vt 0.000000 0.500000
vt 0.250000 0.500000
vt 0.250000 1.000000
vt 0.000000 0.500000
vt 0.250000 0.500000
vt 0.250000 1.000000
vt 0.000000 0.500000
vt 0.250000 0.500000
vt 0.250000 1.000000
vt 0.000000 1.000000
vt 0.000000 0.500000
vt 0.250000 0.500000
vt 0.250000 1.000000
vt 0.000000 0.500000
vt 0.250000 0.500000
vt 0.250000 1.000000
vt 0.000000 0.500000
vt 0.250000 0.500000
vt 0.250000 1.000000
vt 0.000000 1.000000
vt 0.000000 0.500000
vt 0.250000 0.500000
vt 0.250000 1.000000
vt 0.000000 0.500000
vt 0.250000 0.500000
vt 0.250000 1.000000
vt 0.000000 0.500000
vt 0.250000 0.500000
vt 0.250000 1.000000
vt 0.000000 1.000000
vt 0.000000 0.500000
vt 0.250000 0.500000
vt 0.250000 1.000000
vt 0.000000 0.500000
vt 0.250000 0.500000
vt 0.250000 1.000000
vt 0.000000 0.500000
vt 0.250000 0.500000
vt 0.250000 1.000000
vt 0.000000 1.000000
vt 0.000000 0.500000
vt 0.250000 0.500000
vt 0.250000 1.000000
vt 0.000000 0.500000
vt 0.250000 0.500000
vt 0.250000 1.000000
vt 0.000000 0.500000
vt 0.250000 0.500000
vt 0.250000 1.000000
vt 0.000000 1.000000
vt 0.000000 0.500000
vt 0.250000 0.500000
vt 0.250000 1.000000
vt 0.000000 0.500000
vt 0.250000 0.500000
vt 0.250000 1.000000
vt 0.000000 0.500000
vt 0.250000 0.500000
vt 0.250000 1.000000
vt 0.000000 1.000000
vt 0.000000 0.500000
vt 0.250000 0.500000
vt 0.250000 1.000000
vt 0.000000 0.500000
vt 0.250000 0.500000
vt 0.250000 1.000000
vt 0.000000 0.500000
vt 0.250000 0.500000
vt 0.250000 1.000000
vt 0.000000 1.000000
vt 0.000000 0.500000
vt 0.250000 0.500000
vt 0.250000 1.000000
vt 0.000000 0.500000
vt 0.250000 0.500000
vt 0.250000 1.000000
vt 0.000000 0.500000
vt 0.250000 0.500000
vt 0.250000 1.000000
vt 0.000000 1.000000
vt 0.000000 0.500000
vt 0.250000 0.500000
vt 0.250000 1.000000
vt 0.000000 0.500000
vt 0.250000 0.500000
vt 0.250000 1.000000
vt 0.000000 0.500000
vt 0.250000 0.500000
vt 0.250000 1.000000
vt 0.000000 1.000000
vt 0.000000 0.500000
vt 0.250000 0.500000
vt 0.250000 1.000000
vt 0.000000 0.500000
vt 0.250000 0.500000
vt 0.250000 1.000000
vt 0.000000 0.500000
vt 0.250000 0.500000
vt 0.250000 1.000000
vt 0.000000 1.000000
vt 0.000000 0.500000
vt 0.250000 0.500000
vt 0.250000 1.000000
vt 0.000000 0.500000
vt 0.250000 0.500000
vt 0.250000 1.000000
vt 0.000000 0.500000
vt 0.250000 0.500000
vt 0.250000 1.000000
vt 0.000000 1.000000
vt 0.000000 0.500000
vt 0.250000 0.500000
vt 0.250000 1.000000
vt 0.000000 0.500000
vt 0.250000 0.500000
vt 0.250000 1.000000
vt 0.000000 0.500000
vt 0.250000 0.500000
vt 0.250000 1.000000
vt 0.000000 1.000000
vt 0.000000 0.500000
vt 0.250000 0.500000
vt 0.250000 1.000000
vt 0.000000 0.500000
vt 0.250000 0.500000
vt 0.250000 1.000000
vt 0.000000 0.500000
vt 0.250000 0.500000
vt 0.250000 1.000000
vt 0.000000 1.000000
vt 0.000000 0.500000
vt 0.250000 0.500000
vt 0.250000 1.000000
vt 0.000000 0.500000
vt 0.250000 0.500000
vt 0.250000 1.000000
vt 0.000000 0.500000
vt 0.250000 0.500000
vt 0.250000 1.000000
vt 0.000000 1.000000
vt 0.000000 0.500000
vt 0.250000 0.500000
vt 0.250000 1.000000
vt 0.000000 0.500000
vt 0.250000 0.500000
vt 0.250000 1.000000
vt 0.000000 0.500000
vt 0.250000 0.500000
vt 0.250000 1.000000
vt 0.000000 1.000000
vt 0.000000 0.500000
vt 0.250000 0.500000
vt 0.250000 1.000000
vt 0.000000 0.500000
vt 0.250000 0.500000
vt 0.250000 1.000000
vt 0.000000 0.500000
vt 0.250000 0.500000
vt 0.250000 1.000000
vt 0.000000 1.000000
vt 0.000000 0.500000
vt 0.250000 0.500000
vt 0.250000 1.000000
vt 0.000000 0.500000
vt 0.250000 0.500000
vt 0.250000 1.000000
vt 0.000000 0.500000
vt 0.250000 0.500000
vt 0.250000 1.000000
vt 0.000000 1.000000
vt 0.000000 0.500000
vt 0.250000 0.500000
vt 0.250000 1.000000
vt 0.000000 0.500000
vt 0.250000 0.500000
vt 0.250000 1.000000
vt 0.000000 0.500000
vt 0.250000 0.500000
vt 0.250000 1.000000
vt 0.000000 1.000000
vt 0.000000 0.500000
vt 0.250000 0.500000
vt 0.250000 1.000000
vt 0.000000 0.500000
vt 0.250000 0.500000
vt 0.250000 1.000000
vt 0.000000 0.500000
vt 0.250000 0.500000
vt 0.250000 1.000000
vt 0.000000 1.000000
vt 0.000000 0.500000
vt 0.250000 0.500000
vt 0.250000 1.000000
vt 0.000000 0.500000
vt 0.250000 0.500000
vt 0.250000 1.000000
vt 0.000000 0.500000
vt 0.250000 0.500000
vt 0.250000 1.000000
vt 0.000000 1.000000
vt 0.000000 0.500000
vt 0.250000 0.500000
vt 0.250000 1.000000
vt 0.000000 0.500000
vt 0.250000 0.500000
vt 0.250000 1.000000
vt 0.000000 0.500000
vt 0.250000 0.500000
vt 0.250000 1.000000
vt 0.000000 1.000000
vt 0.000000 0.500000
vt 0.250000 0.500000
vt 0.250000 1.000000
vt 0.000000 0.500000
vt 0.250000 0.500000
vt 0.250000 1.000000
vt 0.000000 0.500000
vt 0.250000 0.500000
vt 0.250000 1.000000
vt 0.000000 1.000000
vt 0.000000 0.500000
vt 0.250000 0.500000
vt 0.250000 1.000000
vt 0.000000 0.500000
vt 0.250000 0.500000
vt 0.250000 1.000000
vt 0.000000 0.500000
vt 0.250000 0.500000
vt 0.250000 1.000000
vt 0.000000 1.000000
vt 0.000000 0.500000
vt 0.250000 0.500000
vt 0.250000 1.000000
vt 0.000000 0.500000
vt 0.250000 0.500000
vt 0.250000 1.000000
vt 0.000000 0.500000
vt 0.250000 0.500000
vt 0.250000 1.000000
vt 0.000000 1.000000
vt 0.000000 0.500000
vt 0.250000 0.500000
vt 0.250000 1.000000
vt 0.000000 0.500000
vt 0.250000 0.500000
vt 0.250000 1.000000
vt 0.000000 0.500000
vt 0.250000 0.500000
vt 0.250000 1.000000
vt 0.000000 1.000000
vt 0.000000 0.500000
vt 0.250000 0.500000
vt 0.250000 1.000000
vt 0.000000 0.500000
vt 0.250000 0.500000
vt 0.250000 1.000000
vt 0.000000 0.500000
vt 0.250000 0.500000
vt 0.250000 1.000000
vt 0.000000 1.000000
vt 0.000000 0.500000
vt 0.250000 0.500000
vt 0.250000 1.000000
vt 0.000000 0.500000
vt 0.250000 0.500000
vt 0.250000 1.000000
vt 0.000000 0.500000
vt 0.250000 0.500000
vt 0.250000 1.000000
vt 0.000000 1.000000
vt 0.000000 0.500000
vt 0.250000 0.500000
vt 0.250000 1.000000
vt 0.000000 0.500000
vt 0.250000 0.500000
vt 0.250000 1.000000
vt 0.000000 0.500000
vt 0.250000 0.500000
vt 0.250000 1.000000
vt 0.000000 1.000000
vt 0.000000 0.500000
vt 0.250000 0.500000
vt 0.250000 1.000000
vt 0.000000 0.500000
vt 0.250000 0.500000
vt 0.250000 1.000000
vt 0.000000 0.500000
vt 0.250000 0.500000
vt 0.250000 1.000000
vt 0.000000 1.000000
vt 0.000000 0.500000
vt 0.250000 0.500000
vt 0.250000 1.000000
vt 0.000000 0.500000
vt 0.250000 0.500000
vt 0.250000 1.000000
vt 0.000000 0.500000
vt 0.250000 0.500000
vt 0.250000 1.000000
vt 0.000000 1.000000
vt 0.000000 0.500000
vt 0.250000 0.500000
vt 0.250000 1.000000
vt 0.000000 0.500000
vt 0.250000 0.500000
vt 0.250000 1.000000
vt 0.000000 0.500000
vt 0.250000 0.500000
vt 0.250000 1.000000
vt 0.000000 1.000000
vt 0.000000 0.500000
vt 0.250000 0.500000
vt 0.250000 1.000000
vt 0.000000 0.500000
vt 0.250000 0.500000
vt 0.250000 1.000000
vt 0.000000 0.500000
vt 0.250000 0.500000
vt 0.250000 1.000000
vt 0.000000 1.000000
vt 0.000000 0.500000
vt 0.250000 0.500000
vt 0.250000 1.000000
vt 0.000000 0.500000
vt 0.250000 0.500000
vt 0.250000 1.000000
vt 0.000000 0.500000
vt 0.250000 0.500000
vt 0.250000 1.000000
vt 0.000000 1.000000
vt 0.000000 0.500000
vt 0.250000 0.500000
vt 0.250000 1.000000
vt 0.000000 0.500000
vt 0.250000 0.500000
vt 0.250000 1.000000
vt 0.000000 0.500000
vt 0.250000 0.500000
vt 0.250000 1.000000
vt 0.000000 1.000000
vt 0.000000 0.500000
vt 0.250000 0.500000
vt 0.250000 1.000000
vt 0.000000 0.500000
vt 0.250000 0.500000
vt 0.250000 1.000000
vt 0.000000 0.500000
vt 0.250000 0.500000
vt 0.250000 1.000000
vt 0.000000 1.000000
vt 0.000000 0.500000
vt 0.250000 0.500000
vt 0.250000 1.000000
vt 0.000000 0.500000
vt 0.250000 0.500000
vt 0.250000 1.000000
vt 0.000000 0.500000
vt 0.250000 0.500000
vt 0.250000 1.000000
vt 0.000000 1.000000
vt 0.000000 0.500000
vt 0.250000 0.500000
vt 0.250000 1.000000
vt 0.000000 0.500000
vt 0.250000 0.500000
vt 0.250000 1.000000
vt 0.000000 0.500000
vt 0.250000 0.500000
vt 0.250000 1.000000
vt 0.000000 1.000000
vt 0.000000 0.500000
vt 0.250000 0.500000
vt 0.250000 1.000000
vt 0.000000 0.500000
vt 0.250000 0.500000
vt 0.250000 1.000000
vt 0.000000 0.500000
vt 0.250000 0.500000
vt 0.250000 1.000000
vt 0.000000 1.000000
vt 0.000000 0.500000
vt 0.250000 0.500000
vt 0.250000 1.000000
vt 0.000000 0.500000
vt 0.250000 0.500000
vt 0.250000 1.000000
vt 0.000000 0.500000
vt 0.250000 0.500000
vt 0.250000 1.000000
vt 0.000000 1.000000
vt 0.000000 0.500000
vt 0.250000 0.500000
vt 0.250000 1.000000
vt 0.000000 0.500000
vt 0.250000 0.500000
vt 0.250000 1.000000
vt 0.000000 0.500000
vt 0.250000 0.500000
vt 0.250000 1.000000
vt 0.000000 1.000000
vt 0.000000 0.500000
vt 0.250000 0.500000
vt 0.250000 1.000000
vt 0.000000 0.500000
vt 0.250000 0.500000
vt 0.250000 1.000000
vt 0.000000 0.500000
vt 0.250000 0.500000
vt 0.250000 1.000000
vt 0.000000 1.000000
vt 0.000000 0.500000
vt 0.250000 0.500000
vt 0.250000 1.000000
vt 0.000000 0.500000
vt 0.250000 0.500000
vt 0.250000 1.000000
vt 0.000000 0.500000
vt 0.250000 0.500000
vt 0.250000 1.000000
vt 0.000000 1.000000
vt 0.000000 0.500000
vt 0.250000 0.500000
vt 0.250000 1.000000
vt 0.000000 0.500000
vt 0.250000 0.500000
vt 0.250000 1.000000
vt 0.000000 0.500000
vt 0.250000 0.500000
vt 0.250000 1.000000
vt 0.000000 1.000000
vt 0.000000 0.500000
vt 0.250000 0.500000
vt 0.250000 1.000000
vt 0.000000 0.500000
vt 0.250000 0.500000
vt 0.250000 1.000000
vt 0.000000 0.500000
vt 0.250000 0.500000
vt 0.250000 1.000000
vt 0.000000 1.000000
vt 0.000000 0.500000
vt 0.250000 0.500000
vt 0.250000 1.000000
vt 0.000000 0.500000
vt 0.250000 0.500000
vt 0.250000 1.000000
vt 0.000000 0.500000
vt 0.250000 0.500000
vt 0.250000 1.000000
vt 0.000000 1.000000
vt 0.000000 0.500000
vt 0.250000 0.500000
vt 0.250000 1.000000
vt 0.000000 0.500000
vt 0.250000 0.500000
vt 0.250000 1.000000
vt 0.000000 0.500000
vt 0.250000 0.500000
vt 0.250000 1.000000
vt 0.000000 1.000000
f 1/1 2/2 3/3
f 4/4 5/5 6/6
f 7/7 8/8 9/9 10/10
f 11/11 12/12 13/13
f 14/14 15/15 16/16
f 17/17 18/18 19/19 20/20
f 21/21 22/22 23/23
f 24/24 25/25 26/26
f 27/27 28/28 29/29 30/30
f 31/31 32/32 33/33
f 34/34 35/35 36/36
f 37/37 38/38 39/39 40/40
f 41/41 42/42 43/43
f 44/44 45/45 46/46
f 47/47 48/48 49/49 50/50
f 51/51 52/52 53/53
f 54/54 55/55 56/56
f 57/57 58/58 59/59 60/60
f 61/61 62/62 63/63
f 64/64 65/65 66/66
f 67/67 68/68 69/69 70/70
f 71/71 72/72 73/73
f 74/74 75/75 76/76
f 77/77 78/78 79/79 80/80
f 81/81 82/82 83/83
f 84/84 85/85 86/86
f 87/87 88/88 89/89 90/90
f 91/91 92/92 93/93
f 94/94 95/95 96/96
f 97/97 98/98 99/99 100/100
f 101/101 102/102 103/103
f 104/104 105/105 106/106
f 107/107 108/108 109/109 110/110
f 111/111 112/112 113/113
f 114/114 115/115 116/116
f 117/117 118/118 119/119 120/120
f 121/121 122/122 123/123
f 124/124 125/125 126/126
f 127/127 128/128 129/129 130/130
f 131/131 132/132 133/133
f 134/134 135/135 136/136
f 137/137 138/138 139/139 140/140
f 141/141 142/142 143/143
f 144/144 145/145 146/146
f 147/147 148/148 149/149 150/150
f 151/151 152/152 153/153
f 154/154 155/155 156/156
f 157/157 158/158 159/159 160/160
f 161/161 162/162 163/163
f 164/164 165/165 166/166
f 167/167 168/168 169/169 170/170
f 171/171 172/172 173/173
f 174/174 175/175 176/176
f 177/177 178/178 179/179 180/180
f 181/181 182/182 183/183
f 184/184 185/185 186/186
f 187/187 188/188 189/189 190/190
f 191/191 192/192 193/193
f 194/194 195/195 196/196
f 197/197 198/198 199/199 200/200
f 201/201 202/202 203/203
f 204/204 205/205 206/206
f 207/207 208/208 209/209 210/210
f 211/211 212/212 213/213
f 214/214 215/215 216/216
f 217/217 218/218 219/219 220/220
f 221/221 222/222 223/223
f 224/224 225/225 226/226
f 227/227 228/228 229/229 230/230
f 231/231 232/232 233/233
f 234/234 235/235 236/236
f 237/237 238/238 239/239 240/240
f 241/241 242/242 243/243
f 244/244 245/245 246/246
f 247/247 248/248 249/249 250/250
f 251/251 252/252 253/253
f 254/254 255/255 256/256
f 257/257 258/258 259/259 260/260
f 261/261 262/262 263/263
f 264/264 265/265 266/266
f 267/267 268/268 269/269 270/270
f 271/271 272/272 273/273
f 274/274 275/275 276/276
f 277/277 278/278 279/279 280/280
f 281/281 282/282 283/283
f 284/284 285/285 286/286
f 287/287 288/288 289/289 290/290
f 291/291 292/292 293/293
f 294/294 295/295 296/296
f 297/297 298/298 299/299 300/300
f 301/301 302/302 303/303
f 304/304 305/305 306/306
f 307/307 308/308 309/309 310/310
f 311/311 312/312 313/313
f 314/314 315/315 316/316
f 317/317 318/318 319/319 320/320
f 321/321 322/322 323/323
f 324/324 325/325 326/326
f 327/327 328/328 329/329 330/330
f 331/331 332/332 333/333
f 334/334 335/335 336/336
f 337/337 338/338 339/339 340/340
f 341/341 342/342 343/343
f 344/344 345/345 346/346
f 347/347 348/348 349/349 350/350
f 351/351 352/352 353/353
f 354/354 355/355 356/356
f 357/357 358/358 359/359 360/360
f 361/361 362/362 363/363
f 364/364 365/365 366/366
f 367/367 368/368 369/369 370/370
f 371/371 372/372 373/373
f 374/374 375/375 376/376
f 377/377 378/378 379/379 380/380
f 381/381 382/382 383/383
f 384/384 385/385 386/386
f 387/387 388/388 389/389 390/390
f 391/391 392/392 393/393
f 394/394 395/395 396/396
f 397/397 398/398 399/399 400/400
f 401/401 402/402 403/403
f 404/404 405/405 406/406
f 407/407 408/408 409/409 410/410
f 411/411 412/412 413/413
f 414/414 415/415 416/416
f 417/417 418/418 419/419 420/420
f 421/421 422/422 423/423
f 424/424 425/425 426/426
f 427/427 428/428 429/429 430/430
f 431/431 432/432 433/433
f 434/434 435/435 436/436
f 437/437 438/438 439/439 440/440
f 441/441 442/442 443/443
f 444/444 445/445 446/446
f 447/447 448/448 449/449 450/450
f 451/451 452/452 453/453
f 454/454 455/455 456/456
f 457/457 458/458 459/459 460/460
f 461/461 462/462 463/463
f 464/464 465/465 466/466
f 467/467 468/468 469/469 470/470
f 471/471 472/472 473/473
f 474/474 475/475 476/476
f 477/477 478/478 479/479 480/480
f 481/481 482/482 483/483
f 484/484 485/485 486/486
f 487/487 488/488 489/489 490/490
f 491/491 492/492 493/493
f 494/494 495/495 496/496
f 497/497 498/498 499/499 500/500
f 501/501 502/502 503/503
f 504/504 505/505 506/506
f 507/507 508/508 509/509 510/510
f 511/511 512/512 513/513
f 514/514 515/515 516/516
f 517/517 518/518 519/519 520/520
f 521/521 522/522 523/523
f 524/524 525/525 526/526
f 527/527 528/528 529/529 530/530
f 531/531 532/532 533/533
f 534/534 535/535 536/536
f 537/537 538/538 539/539 540/540
f 541/541 542/542 543/543
f 544/544 545/545 546/546
f 547/547 548/548 549/549 550/550
f 551/551 552/552 553/553
f 554/554 555/555 556/556
f 557/557 558/558 559/559 560/560
f 561/561 562/562 563/563
f 564/564 565/565 566/566
f 567/567 568/568 569/569 570/570
f 571/571 572/572 573/573
f 574/574 575/575 576/576
f 577/577 578/578 579/579 580/580
f 581/581 582/582 583/583
f 584/584 585/585 586/586
f 587/587 588/588 589/589 590/590
f 591/591 592/592 593/593
f 594/594 595/595 596/596
f 597/597 598/598 599/599 600/600
f 601/601 602/602 603/603
f 604/604 605/605 606/606
f 607/607 608/608 609/609 610/610
f 611/611 612/612 613/613
f 614/614 615/615 616/616
f 617/617 618/618 619/619 620/620
f 621/621 622/622 623/623
f 624/624 625/625 626/626
f 627/627 628/628 629/629 630/630
f 631/631 632/632 633/633
f 634/634 635/635 636/636
f 637/637 638/638 639/639 640/640
f 641/641 642/642 643/643
f 644/644 645/645 646/646
f 647/647 648/648 649/649 650/650
