o Skins
v -27.0000 62.0000 1.4000
v -27.0000 61.0101 0.9899
v 27.0000 61.0101 0.9899
v 27.0000 62.0000 1.4000
v -27.0000 61.0101 0.9899
v -27.0000 60.6000 0.0000
v 27.0000 60.6000 0.0000
v 27.0000 61.0101 0.9899
v -27.0000 60.6000 0.0000
v -27.0000 61.0101 -0.9899
v 27.0000 61.0101 -0.9899
v 27.0000 60.6000 0.0000
v -27.0000 61.0101 -0.9899
v -27.0000 62.0000 -1.4000
v 27.0000 62.0000 -1.4000
v 27.0000 61.0101 -0.9899
v -27.0000 62.0000 -1.4000
v -27.0000 62.9899 -0.9899
v 27.0000 62.9899 -0.9899
v 27.0000 62.0000 -1.4000
v -27.0000 62.9899 -0.9899
v -27.0000 63.4000 -0.0000
v 27.0000 63.4000 -0.0000
v 27.0000 62.9899 -0.9899
v -27.0000 63.4000 -0.0000
v -27.0000 62.9899 0.9899
v 27.0000 62.9899 0.9899
v 27.0000 63.4000 -0.0000
v -27.0000 62.9899 0.9899
v -27.0000 62.0000 1.4000
v 27.0000 62.0000 1.4000
v 27.0000 62.9899 0.9899
v -27.0000 62.0000 1.4000
v -27.0000 61.0101 0.9899
v -27.0000 60.6000 0.0000
v -27.0000 62.0000 1.4000
v -27.0000 60.6000 0.0000
v -27.0000 61.0101 -0.9899
v -27.0000 62.0000 1.4000
v -27.0000 61.0101 -0.9899
v -27.0000 62.0000 -1.4000
v -27.0000 62.0000 1.4000
v -27.0000 62.0000 -1.4000
v -27.0000 62.9899 -0.9899
v -27.0000 62.0000 1.4000
v -27.0000 62.9899 -0.9899
v -27.0000 63.4000 -0.0000
v -27.0000 62.0000 1.4000
v -27.0000 63.4000 -0.0000
v -27.0000 62.9899 0.9899
v 27.0000 62.0000 1.4000
v 27.0000 61.0101 0.9899
v 27.0000 60.6000 0.0000
v 27.0000 62.0000 1.4000
v 27.0000 60.6000 0.0000
v 27.0000 61.0101 -0.9899
v 27.0000 62.0000 1.4000
v 27.0000 61.0101 -0.9899
v 27.0000 62.0000 -1.4000
v 27.0000 62.0000 1.4000
v 27.0000 62.0000 -1.4000
v 27.0000 62.9899 -0.9899
v 27.0000 62.0000 1.4000
v 27.0000 62.9899 -0.9899
v 27.0000 63.4000 -0.0000
v 27.0000 62.0000 1.4000
v 27.0000 63.4000 -0.0000
v 27.0000 62.9899 0.9899
v -17.0000 36.0000 -1.5000
v -23.0000 60.0000 0.0000
v -20.0000 51.0000 1.0908
v -17.0000 36.0000 -1.5000
v -20.0000 51.0000 1.0908
v -23.0000 60.0000 0.0000
v -17.0000 36.0000 -1.5000
v -20.0000 51.0000 1.0908
v -26.0000 45.0000 -0.2811
v -17.0000 36.0000 -1.5000
v -26.0000 45.0000 -0.2811
v -20.0000 51.0000 1.0908
v -17.0000 36.0000 -1.5000
v -26.0000 45.0000 -0.2811
v -24.0000 24.0000 -1.0184
v -17.0000 36.0000 -1.5000
v -24.0000 24.0000 -1.0184
v -26.0000 45.0000 -0.2811
v -17.0000 36.0000 -1.5000
v -24.0000 24.0000 -1.0184
v -21.0000 15.0000 0.5435
v -17.0000 36.0000 -1.5000
v -21.0000 15.0000 0.5435
v -24.0000 24.0000 -1.0184
v -17.0000 36.0000 -1.5000
v -21.0000 15.0000 0.5435
v -17.0000 20.0000 0.8783
v -17.0000 36.0000 -1.5000
v -17.0000 20.0000 0.8783
v -21.0000 15.0000 0.5435
v -17.0000 36.0000 -1.5000
v -17.0000 20.0000 0.8783
v -13.0000 13.0000 -0.7699
v -17.0000 36.0000 -1.5000
v -13.0000 13.0000 -0.7699
v -17.0000 20.0000 0.8783
v -17.0000 36.0000 -1.5000
v -13.0000 13.0000 -0.7699
v -9.0000 27.0000 -0.6800
v -17.0000 36.0000 -1.5000
v -9.0000 27.0000 -0.6800
v -13.0000 13.0000 -0.7699
v -17.0000 36.0000 -1.5000
v -9.0000 27.0000 -0.6800
v -10.0000 44.0000 0.9451
v -17.0000 36.0000 -1.5000
v -10.0000 44.0000 0.9451
v -9.0000 27.0000 -0.6800
v -17.0000 36.0000 -1.5000
v -10.0000 44.0000 0.9451
v -14.0000 51.0000 0.4364
v -17.0000 36.0000 -1.5000
v -14.0000 51.0000 0.4364
v -10.0000 44.0000 0.9451
v -17.0000 36.0000 -1.5000
v -14.0000 51.0000 0.4364
v -11.0000 60.0000 -1.0575
v -17.0000 36.0000 -1.5000
v -11.0000 60.0000 -1.0575
v -14.0000 51.0000 0.4364
v -17.0000 36.0000 -1.5000
v -11.0000 60.0000 -1.0575
v -23.0000 60.0000 0.0000
v -17.0000 36.0000 -1.5000
v -23.0000 60.0000 0.0000
v -11.0000 60.0000 -1.0575
v -17.0000 60.0000 -0.2200
v -17.1556 60.0000 -0.1556
v -17.1556 63.0000 -0.1556
v -17.0000 63.0000 -0.2200
v -17.1556 60.0000 -0.1556
v -17.2200 60.0000 -0.0000
v -17.2200 63.0000 -0.0000
v -17.1556 63.0000 -0.1556
v -17.2200 60.0000 -0.0000
v -17.1556 60.0000 0.1556
v -17.1556 63.0000 0.1556
v -17.2200 63.0000 -0.0000
v -17.1556 60.0000 0.1556
v -17.0000 60.0000 0.2200
v -17.0000 63.0000 0.2200
v -17.1556 63.0000 0.1556
v -17.0000 60.0000 0.2200
v -16.8444 60.0000 0.1556
v -16.8444 63.0000 0.1556
v -17.0000 63.0000 0.2200
v -16.8444 60.0000 0.1556
v -16.7800 60.0000 0.0000
v -16.7800 63.0000 0.0000
v -16.8444 63.0000 0.1556
v -16.7800 60.0000 0.0000
v -16.8444 60.0000 -0.1556
v -16.8444 63.0000 -0.1556
v -16.7800 63.0000 0.0000
v -16.8444 60.0000 -0.1556
v -17.0000 60.0000 -0.2200
v -17.0000 63.0000 -0.2200
v -16.8444 63.0000 -0.1556
v -17.0000 60.0000 -0.2200
v -17.1556 60.0000 -0.1556
v -17.2200 60.0000 -0.0000
v -17.0000 60.0000 -0.2200
v -17.2200 60.0000 -0.0000
v -17.1556 60.0000 0.1556
v -17.0000 60.0000 -0.2200
v -17.1556 60.0000 0.1556
v -17.0000 60.0000 0.2200
v -17.0000 60.0000 -0.2200
v -17.0000 60.0000 0.2200
v -16.8444 60.0000 0.1556
v -17.0000 60.0000 -0.2200
v -16.8444 60.0000 0.1556
v -16.7800 60.0000 0.0000
v -17.0000 60.0000 -0.2200
v -16.7800 60.0000 0.0000
v -16.8444 60.0000 -0.1556
v -17.0000 63.0000 -0.2200
v -17.1556 63.0000 -0.1556
v -17.2200 63.0000 -0.0000
v -17.0000 63.0000 -0.2200
v -17.2200 63.0000 -0.0000
v -17.1556 63.0000 0.1556
v -17.0000 63.0000 -0.2200
v -17.1556 63.0000 0.1556
v -17.0000 63.0000 0.2200
v -17.0000 63.0000 -0.2200
v -17.0000 63.0000 0.2200
v -16.8444 63.0000 0.1556
v -17.0000 63.0000 -0.2200
v -16.8444 63.0000 0.1556
v -16.7800 63.0000 0.0000
v -17.0000 63.0000 -0.2200
v -16.7800 63.0000 0.0000
v -16.8444 63.0000 -0.1556
v 0.0000 36.0000 -1.5000
v -6.0000 60.0000 0.9256
v -3.0000 51.0000 0.4701
v 0.0000 36.0000 -1.5000
v -3.0000 51.0000 0.4701
v -6.0000 60.0000 0.9256
v 0.0000 36.0000 -1.5000
v -3.0000 51.0000 0.4701
v -9.0000 45.0000 -1.0468
v 0.0000 36.0000 -1.5000
v -9.0000 45.0000 -1.0468
v -3.0000 51.0000 0.4701
v 0.0000 36.0000 -1.5000
v -9.0000 45.0000 -1.0468
v -7.0000 24.0000 -0.2004
v 0.0000 36.0000 -1.5000
v -7.0000 24.0000 -0.2004
v -9.0000 45.0000 -1.0468
v 0.0000 36.0000 -1.5000
v -7.0000 24.0000 -0.2004
v -4.0000 15.0000 1.0984
v 0.0000 36.0000 -1.5000
v -4.0000 15.0000 1.0984
v -7.0000 24.0000 -0.2004
v 0.0000 36.0000 -1.5000
v -4.0000 15.0000 1.0984
v 0.0000 20.0000 -0.0827
v 0.0000 36.0000 -1.5000
v 0.0000 20.0000 -0.0827
v -4.0000 15.0000 1.0984
v 0.0000 36.0000 -1.5000
v 0.0000 20.0000 -0.0827
v 4.0000 13.0000 -1.0771
v 0.0000 36.0000 -1.5000
v 4.0000 13.0000 -1.0771
v 0.0000 20.0000 -0.0827
v 0.0000 36.0000 -1.5000
v 4.0000 13.0000 -1.0771
v 8.0000 27.0000 0.3602
v 0.0000 36.0000 -1.5000
v 8.0000 27.0000 0.3602
v 4.0000 13.0000 -1.0771
v 0.0000 36.0000 -1.5000
v 8.0000 27.0000 0.3602
v 7.0000 44.0000 0.9843
v 0.0000 36.0000 -1.5000
v 7.0000 44.0000 0.9843
v 8.0000 27.0000 0.3602
v 0.0000 36.0000 -1.5000
v 7.0000 44.0000 0.9843
v 3.0000 51.0000 -0.6139
v 0.0000 36.0000 -1.5000
v 3.0000 51.0000 -0.6139
v 7.0000 44.0000 0.9843
v 0.0000 36.0000 -1.5000
v 3.0000 51.0000 -0.6139
v 6.0000 60.0000 -0.8261
v 0.0000 36.0000 -1.5000
v 6.0000 60.0000 -0.8261
v 3.0000 51.0000 -0.6139
v 0.0000 36.0000 -1.5000
v 6.0000 60.0000 -0.8261
v -6.0000 60.0000 0.9256
v 0.0000 36.0000 -1.5000
v -6.0000 60.0000 0.9256
v 6.0000 60.0000 -0.8261
v 0.0000 60.0000 -0.2200
v -0.1556 60.0000 -0.1556
v -0.1556 63.0000 -0.1556
v 0.0000 63.0000 -0.2200
v -0.1556 60.0000 -0.1556
v -0.2200 60.0000 -0.0000
v -0.2200 63.0000 -0.0000
v -0.1556 63.0000 -0.1556
v -0.2200 60.0000 -0.0000
v -0.1556 60.0000 0.1556
v -0.1556 63.0000 0.1556
v -0.2200 63.0000 -0.0000
v -0.1556 60.0000 0.1556
v -0.0000 60.0000 0.2200
v -0.0000 63.0000 0.2200
v -0.1556 63.0000 0.1556
v -0.0000 60.0000 0.2200
v 0.1556 60.0000 0.1556
v 0.1556 63.0000 0.1556
v -0.0000 63.0000 0.2200
v 0.1556 60.0000 0.1556
v 0.2200 60.0000 0.0000
v 0.2200 63.0000 0.0000
v 0.1556 63.0000 0.1556
v 0.2200 60.0000 0.0000
v 0.1556 60.0000 -0.1556
v 0.1556 63.0000 -0.1556
v 0.2200 63.0000 0.0000
v 0.1556 60.0000 -0.1556
v 0.0000 60.0000 -0.2200
v 0.0000 63.0000 -0.2200
v 0.1556 63.0000 -0.1556
v 0.0000 60.0000 -0.2200
v -0.1556 60.0000 -0.1556
v -0.2200 60.0000 -0.0000
v 0.0000 60.0000 -0.2200
v -0.2200 60.0000 -0.0000
v -0.1556 60.0000 0.1556
v 0.0000 60.0000 -0.2200
v -0.1556 60.0000 0.1556
v -0.0000 60.0000 0.2200
v 0.0000 60.0000 -0.2200
v -0.0000 60.0000 0.2200
v 0.1556 60.0000 0.1556
v 0.0000 60.0000 -0.2200
v 0.1556 60.0000 0.1556
v 0.2200 60.0000 0.0000
v 0.0000 60.0000 -0.2200
v 0.2200 60.0000 0.0000
v 0.1556 60.0000 -0.1556
v 0.0000 63.0000 -0.2200
v -0.1556 63.0000 -0.1556
v -0.2200 63.0000 -0.0000
v 0.0000 63.0000 -0.2200
v -0.2200 63.0000 -0.0000
v -0.1556 63.0000 0.1556
v 0.0000 63.0000 -0.2200
v -0.1556 63.0000 0.1556
v -0.0000 63.0000 0.2200
v 0.0000 63.0000 -0.2200
v -0.0000 63.0000 0.2200
v 0.1556 63.0000 0.1556
v 0.0000 63.0000 -0.2200
v 0.1556 63.0000 0.1556
v 0.2200 63.0000 0.0000
v 0.0000 63.0000 -0.2200
v 0.2200 63.0000 0.0000
v 0.1556 63.0000 -0.1556
v 17.0000 36.0000 -1.5000
v 11.0000 60.0000 1.0002
v 14.0000 51.0000 -0.5828
v 17.0000 36.0000 -1.5000
v 14.0000 51.0000 -0.5828
v 11.0000 60.0000 1.0002
v 17.0000 36.0000 -1.5000
v 14.0000 51.0000 -0.5828
v 8.0000 45.0000 -0.8500
v 17.0000 36.0000 -1.5000
v 8.0000 45.0000 -0.8500
v 14.0000 51.0000 -0.5828
v 17.0000 36.0000 -1.5000
v 8.0000 45.0000 -0.8500
v 10.0000 24.0000 0.8019
v 17.0000 36.0000 -1.5000
v 10.0000 24.0000 0.8019
v 8.0000 45.0000 -0.8500
v 17.0000 36.0000 -1.5000
v 10.0000 24.0000 0.8019
v 13.0000 15.0000 0.6434
v 17.0000 36.0000 -1.5000
v 13.0000 15.0000 0.6434
v 10.0000 24.0000 0.8019
v 17.0000 36.0000 -1.5000
v 13.0000 15.0000 0.6434
v 17.0000 20.0000 -0.9677
v 17.0000 36.0000 -1.5000
v 17.0000 20.0000 -0.9677
v 13.0000 15.0000 0.6434
v 17.0000 36.0000 -1.5000
v 17.0000 20.0000 -0.9677
v 21.0000 13.0000 -0.3941
v 17.0000 36.0000 -1.5000
v 21.0000 13.0000 -0.3941
v 17.0000 20.0000 -0.9677
v 17.0000 36.0000 -1.5000
v 21.0000 13.0000 -0.3941
v 25.0000 27.0000 1.0692
v 17.0000 36.0000 -1.5000
v 25.0000 27.0000 1.0692
v 21.0000 13.0000 -0.3941
v 17.0000 36.0000 -1.5000
v 25.0000 27.0000 1.0692
v 24.0000 44.0000 0.1185
v 17.0000 36.0000 -1.5000
v 24.0000 44.0000 0.1185
v 25.0000 27.0000 1.0692
v 17.0000 36.0000 -1.5000
v 24.0000 44.0000 0.1185
v 20.0000 51.0000 -1.0998
v 17.0000 36.0000 -1.5000
v 20.0000 51.0000 -1.0998
v 24.0000 44.0000 0.1185
v 17.0000 36.0000 -1.5000
v 20.0000 51.0000 -1.0998
v 23.0000 60.0000 0.1649
v 17.0000 36.0000 -1.5000
v 23.0000 60.0000 0.1649
v 20.0000 51.0000 -1.0998
v 17.0000 36.0000 -1.5000
v 23.0000 60.0000 0.1649
v 11.0000 60.0000 1.0002
v 17.0000 36.0000 -1.5000
v 11.0000 60.0000 1.0002
v 23.0000 60.0000 0.1649
v 17.0000 60.0000 -0.2200
v 16.8444 60.0000 -0.1556
v 16.8444 63.0000 -0.1556
v 17.0000 63.0000 -0.2200
v 16.8444 60.0000 -0.1556
v 16.7800 60.0000 -0.0000
v 16.7800 63.0000 -0.0000
v 16.8444 63.0000 -0.1556
v 16.7800 60.0000 -0.0000
v 16.8444 60.0000 0.1556
v 16.8444 63.0000 0.1556
v 16.7800 63.0000 -0.0000
v 16.8444 60.0000 0.1556
v 17.0000 60.0000 0.2200
v 17.0000 63.0000 0.2200
v 16.8444 63.0000 0.1556
v 17.0000 60.0000 0.2200
v 17.1556 60.0000 0.1556
v 17.1556 63.0000 0.1556
v 17.0000 63.0000 0.2200
v 17.1556 60.0000 0.1556
v 17.2200 60.0000 0.0000
v 17.2200 63.0000 0.0000
v 17.1556 63.0000 0.1556
v 17.2200 60.0000 0.0000
v 17.1556 60.0000 -0.1556
v 17.1556 63.0000 -0.1556
v 17.2200 63.0000 0.0000
v 17.1556 60.0000 -0.1556
v 17.0000 60.0000 -0.2200
v 17.0000 63.0000 -0.2200
v 17.1556 63.0000 -0.1556
v 17.0000 60.0000 -0.2200
v 16.8444 60.0000 -0.1556
v 16.7800 60.0000 -0.0000
v 17.0000 60.0000 -0.2200
v 16.7800 60.0000 -0.0000
v 16.8444 60.0000 0.1556
v 17.0000 60.0000 -0.2200
v 16.8444 60.0000 0.1556
v 17.0000 60.0000 0.2200
v 17.0000 60.0000 -0.2200
v 17.0000 60.0000 0.2200
v 17.1556 60.0000 0.1556
v 17.0000 60.0000 -0.2200
v 17.1556 60.0000 0.1556
v 17.2200 60.0000 0.0000
v 17.0000 60.0000 -0.2200
v 17.2200 60.0000 0.0000
v 17.1556 60.0000 -0.1556
v 17.0000 63.0000 -0.2200
v 16.8444 63.0000 -0.1556
v 16.7800 63.0000 -0.0000
v 17.0000 63.0000 -0.2200
v 16.7800 63.0000 -0.0000
v 16.8444 63.0000 0.1556
v 17.0000 63.0000 -0.2200
v 16.8444 63.0000 0.1556
v 17.0000 63.0000 0.2200
v 17.0000 63.0000 -0.2200
v 17.0000 63.0000 0.2200
v 17.1556 63.0000 0.1556
v 17.0000 63.0000 -0.2200
v 17.1556 63.0000 0.1556
v 17.2200 63.0000 0.0000
v 17.0000 63.0000 -0.2200
v 17.2200 63.0000 0.0000
v 17.1556 63.0000 -0.1556
vt 0.250000 0.500000
vt 0.500000 0.500000
vt 0.500000 1.000000
vt 0.250000 1.000000
vt 0.250000 0.500000
vt 0.500000 0.500000
vt 0.500000 1.000000
vt 0.250000 1.000000
vt 0.250000 0.500000
vt 0.500000 0.500000
vt 0.500000 1.000000
vt 0.250000 1.000000
vt 0.250000 0.500000
vt 0.500000 0.500000
vt 0.500000 1.000000
vt 0.250000 1.000000
vt 0.250000 0.500000
vt 0.500000 0.500000
vt 0.500000 1.000000
vt 0.250000 1.000000
vt 0.250000 0.500000
vt 0.500000 0.500000
vt 0.500000 1.000000
vt 0.250000 1.000000
vt 0.250000 0.500000
vt 0.500000 0.500000
vt 0.500000 1.000000
vt 0.250000 1.000000
vt 0.250000 0.500000
vt 0.500000 0.500000
vt 0.500000 1.000000
vt 0.250000 1.000000
vt 0.250000 0.500000
vt 0.500000 0.500000
vt 0.500000 1.000000
vt 0.250000 0.500000
vt 0.500000 0.500000
vt 0.500000 1.000000
vt 0.250000 0.500000
vt 0.500000 0.500000
vt 0.500000 1.000000
vt 0.250000 0.500000
vt 0.500000 0.500000
vt 0.500000 1.000000
vt 0.250000 0.500000
vt 0.500000 0.500000
vt 0.500000 1.000000
vt 0.250000 0.500000
vt 0.500000 0.500000
vt 0.500000 1.000000
vt 0.250000 0.500000
vt 0.500000 0.500000
vt 0.500000 1.000000
vt 0.250000 0.500000
vt 0.500000 0.500000
vt 0.500000 1.000000
vt 0.250000 0.500000
vt 0.500000 0.500000
vt 0.500000 1.000000
vt 0.250000 0.500000
vt 0.500000 0.500000
vt 0.500000 1.000000
vt 0.250000 0.500000
vt 0.500000 0.500000
vt 0.500000 1.000000
vt 0.250000 0.500000
vt 0.500000 0.500000
vt 0.500000 1.000000
vt 0.750000 0.500000
vt 1.000000 0.500000
vt 1.000000 1.000000
vt 0.750000 0.500000
vt 1.000000 0.500000
vt 1.000000 1.000000
vt 0.750000 0.500000
vt 1.000000 0.500000
vt 1.000000 1.000000
vt 0.750000 0.500000
vt 1.000000 0.500000
vt 1.000000 1.000000
vt 0.750000 0.500000
vt 1.000000 0.500000
vt 1.000000 1.000000
vt 0.750000 0.500000
vt 1.000000 0.500000
vt 1.000000 1.000000
vt 0.750000 0.500000
vt 1.000000 0.500000
vt 1.000000 1.000000
vt 0.750000 0.500000
vt 1.000000 0.500000
vt 1.000000 1.000000
vt 0.750000 0.500000
vt 1.000000 0.500000
vt 1.000000 1.000000
vt 0.750000 0.500000
vt 1.000000 0.500000
vt 1.000000 1.000000
vt 0.750000 0.500000
vt 1.000000 0.500000
vt 1.000000 1.000000
vt 0.750000 0.500000
vt 1.000000 0.500000
vt 1.000000 1.000000
vt 0.750000 0.500000
vt 1.000000 0.500000
vt 1.000000 1.000000
vt 0.750000 0.500000
vt 1.000000 0.500000
vt 1.000000 1.000000
vt 0.750000 0.500000
vt 1.000000 0.500000
vt 1.000000 1.000000
vt 0.750000 0.500000
vt 1.000000 0.500000
vt 1.000000 1.000000
vt 0.750000 0.500000
vt 1.000000 0.500000
vt 1.000000 1.000000
vt 0.750000 0.500000
vt 1.000000 0.500000
vt 1.000000 1.000000
vt 0.750000 0.500000
vt 1.000000 0.500000
vt 1.000000 1.000000
vt 0.750000 0.500000
vt 1.000000 0.500000
vt 1.000000 1.000000
vt 0.750000 0.500000
vt 1.000000 0.500000
vt 1.000000 1.000000
vt 0.750000 0.500000
vt 1.000000 0.500000
vt 1.000000 1.000000
vt 0.250000 0.500000
vt 0.500000 0.500000
vt 0.500000 1.000000
vt 0.250000 1.000000
vt 0.250000 0.500000
vt 0.500000 0.500000
vt 0.500000 1.000000
vt 0.250000 1.000000
vt 0.250000 0.500000
vt 0.500000 0.500000
vt 0.500000 1.000000
vt 0.250000 1.000000
vt 0.250000 0.500000
vt 0.500000 0.500000
vt 0.500000 1.000000
vt 0.250000 1.000000
vt 0.250000 0.500000
vt 0.500000 0.500000
vt 0.500000 1.000000
vt 0.250000 1.000000
vt 0.250000 0.500000
vt 0.500000 0.500000
vt 0.500000 1.000000
vt 0.250000 1.000000
vt 0.250000 0.500000
vt 0.500000 0.500000
vt 0.500000 1.000000
vt 0.250000 1.000000
vt 0.250000 0.500000
vt 0.500000 0.500000
vt 0.500000 1.000000
vt 0.250000 1.000000
vt 0.250000 0.500000
vt 0.500000 0.500000
vt 0.500000 1.000000
vt 0.250000 0.500000
vt 0.500000 0.500000
vt 0.500000 1.000000
vt 0.250000 0.500000
vt 0.500000 0.500000
vt 0.500000 1.000000
vt 0.250000 0.500000
vt 0.500000 0.500000
vt 0.500000 1.000000
vt 0.250000 0.500000
vt 0.500000 0.500000
vt 0.500000 1.000000
vt 0.250000 0.500000
vt 0.500000 0.500000
vt 0.500000 1.000000
vt 0.250000 0.500000
vt 0.500000 0.500000
vt 0.500000 1.000000
vt 0.250000 0.500000
vt 0.500000 0.500000
vt 0.500000 1.000000
vt 0.250000 0.500000
vt 0.500000 0.500000
vt 0.500000 1.000000
vt 0.250000 0.500000
vt 0.500000 0.500000
vt 0.500000 1.000000
vt 0.250000 0.500000
vt 0.500000 0.500000
vt 0.500000 1.000000
vt 0.250000 0.500000
vt 0.500000 0.500000
vt 0.500000 1.000000
vt 0.750000 0.500000
vt 1.000000 0.500000
vt 1.000000 1.000000
vt 0.750000 0.500000
vt 1.000000 0.500000
vt 1.000000 1.000000
vt 0.750000 0.500000
vt 1.000000 0.500000
vt 1.000000 1.000000
vt 0.750000 0.500000
vt 1.000000 0.500000
vt 1.000000 1.000000
vt 0.750000 0.500000
vt 1.000000 0.500000
vt 1.000000 1.000000
vt 0.750000 0.500000
vt 1.000000 0.500000
vt 1.000000 1.000000
vt 0.750000 0.500000
vt 1.000000 0.500000
vt 1.000000 1.000000
vt 0.750000 0.500000
vt 1.000000 0.500000
vt 1.000000 1.000000
vt 0.750000 0.500000
vt 1.000000 0.500000
vt 1.000000 1.000000
vt 0.750000 0.500000
vt 1.000000 0.500000
vt 1.000000 1.000000
vt 0.750000 0.500000
vt 1.000000 0.500000
vt 1.000000 1.000000
vt 0.750000 0.500000
vt 1.000000 0.500000
vt 1.000000 1.000000
vt 0.750000 0.500000
vt 1.000000 0.500000
vt 1.000000 1.000000
vt 0.750000 0.500000
vt 1.000000 0.500000
vt 1.000000 1.000000
vt 0.750000 0.500000
vt 1.000000 0.500000
vt 1.000000 1.000000
vt 0.750000 0.500000
vt 1.000000 0.500000
vt 1.000000 1.000000
vt 0.750000 0.500000
vt 1.000000 0.500000
vt 1.000000 1.000000
vt 0.750000 0.500000
vt 1.000000 0.500000
vt 1.000000 1.000000
vt 0.750000 0.500000
vt 1.000000 0.500000
vt 1.000000 1.000000
vt 0.750000 0.500000
vt 1.000000 0.500000
vt 1.000000 1.000000
vt 0.750000 0.500000
vt 1.000000 0.500000
vt 1.000000 1.000000
vt 0.750000 0.500000
vt 1.000000 0.500000
vt 1.000000 1.000000
vt 0.250000 0.500000
vt 0.500000 0.500000
vt 0.500000 1.000000
vt 0.250000 1.000000
vt 0.250000 0.500000
vt 0.500000 0.500000
vt 0.500000 1.000000
vt 0.250000 1.000000
vt 0.250000 0.500000
vt 0.500000 0.500000
vt 0.500000 1.000000
vt 0.250000 1.000000
vt 0.250000 0.500000
vt 0.500000 0.500000
vt 0.500000 1.000000
vt 0.250000 1.000000
vt 0.250000 0.500000
vt 0.500000 0.500000
vt 0.500000 1.000000
vt 0.250000 1.000000
vt 0.250000 0.500000
vt 0.500000 0.500000
vt 0.500000 1.000000
vt 0.250000 1.000000
vt 0.250000 0.500000
vt 0.500000 0.500000
vt 0.500000 1.000000
vt 0.250000 1.000000
vt 0.250000 0.500000
vt 0.500000 0.500000
vt 0.500000 1.000000
vt 0.250000 1.000000
vt 0.250000 0.500000
vt 0.500000 0.500000
vt 0.500000 1.000000
vt 0.250000 0.500000
vt 0.500000 0.500000
vt 0.500000 1.000000
vt 0.250000 0.500000
vt 0.500000 0.500000
vt 0.500000 1.000000
vt 0.250000 0.500000
vt 0.500000 0.500000
vt 0.500000 1.000000
vt 0.250000 0.500000
vt 0.500000 0.500000
vt 0.500000 1.000000
vt 0.250000 0.500000
vt 0.500000 0.500000
vt 0.500000 1.000000
vt 0.250000 0.500000
vt 0.500000 0.500000
vt 0.500000 1.000000
vt 0.250000 0.500000
vt 0.500000 0.500000
vt 0.500000 1.000000
vt 0.250000 0.500000
vt 0.500000 0.500000
vt 0.500000 1.000000
vt 0.250000 0.500000
vt 0.500000 0.500000
vt 0.500000 1.000000
vt 0.250000 0.500000
vt 0.500000 0.500000
vt 0.500000 1.000000
vt 0.250000 0.500000
vt 0.500000 0.500000
vt 0.500000 1.000000
vt 0.750000 0.500000
vt 1.000000 0.500000
vt 1.000000 1.000000
vt 0.750000 0.500000
vt 1.000000 0.500000
vt 1.000000 1.000000
vt 0.750000 0.500000
vt 1.000000 0.500000
vt 1.000000 1.000000
vt 0.750000 0.500000
vt 1.000000 0.500000
vt 1.000000 1.000000
vt 0.750000 0.500000
vt 1.000000 0.500000
vt 1.000000 1.000000
vt 0.750000 0.500000
vt 1.000000 0.500000
vt 1.000000 1.000000
vt 0.750000 0.500000
vt 1.000000 0.500000
vt 1.000000 1.000000
vt 0.750000 0.500000
vt 1.000000 0.500000
vt 1.000000 1.000000
vt 0.750000 0.500000
vt 1.000000 0.500000
vt 1.000000 1.000000
vt 0.750000 0.500000
vt 1.000000 0.500000
vt 1.000000 1.000000
vt 0.750000 0.500000
vt 1.000000 0.500000
vt 1.000000 1.000000
vt 0.750000 0.500000
vt 1.000000 0.500000
vt 1.000000 1.000000
vt 0.750000 0.500000
vt 1.000000 0.500000
vt 1.000000 1.000000
vt 0.750000 0.500000
vt 1.000000 0.500000
vt 1.000000 1.000000
vt 0.750000 0.500000
vt 1.000000 0.500000
vt 1.000000 1.000000
vt 0.750000 0.500000
vt 1.000000 0.500000
vt 1.000000 1.000000
vt 0.750000 0.500000
vt 1.000000 0.500000
vt 1.000000 1.000000
vt 0.750000 0.500000
vt 1.000000 0.500000
vt 1.000000 1.000000
vt 0.750000 0.500000
vt 1.000000 0.500000
vt 1.000000 1.000000
vt 0.750000 0.500000
vt 1.000000 0.500000
vt 1.000000 1.000000
vt 0.750000 0.500000
vt 1.000000 0.500000
vt 1.000000 1.000000
vt 0.750000 0.500000
vt 1.000000 0.500000
vt 1.000000 1.000000
vt 0.250000 0.500000
vt 0.500000 0.500000
vt 0.500000 1.000000
vt 0.250000 1.000000
vt 0.250000 0.500000
vt 0.500000 0.500000
vt 0.500000 1.000000
vt 0.250000 1.000000
vt 0.250000 0.500000
vt 0.500000 0.500000
vt 0.500000 1.000000
vt 0.250000 1.000000
vt 0.250000 0.500000
vt 0.500000 0.500000
vt 0.500000 1.000000
vt 0.250000 1.000000
vt 0.250000 0.500000
vt 0.500000 0.500000
vt 0.500000 1.000000
vt 0.250000 1.000000
vt 0.250000 0.500000
vt 0.500000 0.500000
vt 0.500000 1.000000
vt 0.250000 1.000000
vt 0.250000 0.500000
vt 0.500000 0.500000
vt 0.500000 1.000000
vt 0.250000 1.000000
vt 0.250000 0.500000
vt 0.500000 0.500000
vt 0.500000 1.000000
vt 0.250000 1.000000
vt 0.250000 0.500000
vt 0.500000 0.500000
vt 0.500000 1.000000
vt 0.250000 0.500000
vt 0.500000 0.500000
vt 0.500000 1.000000
vt 0.250000 0.500000
vt 0.500000 0.500000
vt 0.500000 1.000000
vt 0.250000 0.500000
vt 0.500000 0.500000
vt 0.500000 1.000000
vt 0.250000 0.500000
vt 0.500000 0.500000
vt 0.500000 1.000000
vt 0.250000 0.500000
vt 0.500000 0.500000
vt 0.500000 1.000000
vt 0.250000 0.500000
vt 0.500000 0.500000
vt 0.500000 1.000000
vt 0.250000 0.500000
vt 0.500000 0.500000
vt 0.500000 1.000000
vt 0.250000 0.500000
vt 0.500000 0.500000
vt 0.500000 1.000000
vt 0.250000 0.500000
vt 0.500000 0.500000
vt 0.500000 1.000000
vt 0.250000 0.500000
vt 0.500000 0.500000
vt 0.500000 1.000000
vt 0.250000 0.500000
vt 0.500000 0.500000
vt 0.500000 1.000000
f 1/1 2/2 3/3 4/4
f 5/5 6/6 7/7 8/8
f 9/9 10/10 11/11 12/12
f 13/13 14/14 15/15 16/16
f 17/17 18/18 19/19 20/20
f 21/21 22/22 23/23 24/24
f 25/25 26/26 27/27 28/28
f 29/29 30/30 31/31 32/32
f 33/33 34/34 35/35
f 36/36 37/37 38/38
f 39/39 40/40 41/41
f 42/42 43/43 44/44
f 45/45 46/46 47/47
f 48/48 49/49 50/50
f 51/51 52/52 53/53
f 54/54 55/55 56/56
f 57/57 58/58 59/59
f 60/60 61/61 62/62
f 63/63 64/64 65/65
f 66/66 67/67 68/68
f 69/69 70/70 71/71
f 72/72 73/73 74/74
f 75/75 76/76 77/77
f 78/78 79/79 80/80
f 81/81 82/82 83/83
f 84/84 85/85 86/86
f 87/87 88/88 89/89
f 90/90 91/91 92/92
f 93/93 94/94 95/95
f 96/96 97/97 98/98
f 99/99 100/100 101/101
f 102/102 103/103 104/104
f 105/105 106/106 107/107
f 108/108 109/109 110/110
f 111/111 112/112 113/113
f 114/114 115/115 116/116
f 117/117 118/118 119/119
f 120/120 121/121 122/122
f 123/123 124/124 125/125
f 126/126 127/127 128/128
f 129/129 130/130 131/131
f 132/132 133/133 134/134
f 135/135 136/136 137/137 138/138
f 139/139 140/140 141/141 142/142
f 143/143 144/144 145/145 146/146
f 147/147 148/148 149/149 150/150
f 151/151 152/152 153/153 154/154
f 155/155 156/156 157/157 158/158
f 159/159 160/160 161/161 162/162
f 163/163 164/164 165/165 166/166
f 167/167 168/168 169/169
f 170/170 171/171 172/172
f 173/173 174/174 175/175
f 176/176 177/177 178/178
f 179/179 180/180 181/181
f 182/182 183/183 184/184
f 185/185 186/186 187/187
f 188/188 189/189 190/190
f 191/191 192/192 193/193
f 194/194 195/195 196/196
f 197/197 198/198 199/199
f 200/200 201/201 202/202
f 203/203 204/204 205/205
f 206/206 207/207 208/208
f 209/209 210/210 211/211
f 212/212 213/213 214/214
f 215/215 216/216 217/217
f 218/218 219/219 220/220
f 221/221 222/222 223/223
f 224/224 225/225 226/226
f 227/227 228/228 229/229
f 230/230 231/231 232/232
f 233/233 234/234 235/235
f 236/236 237/237 238/238
f 239/239 240/240 241/241
f 242/242 243/243 244/244
f 245/245 246/246 247/247
f 248/248 249/249 250/250
f 251/251 252/252 253/253
f 254/254 255/255 256/256
f 257/257 258/258 259/259
f 260/260 261/261 262/262
f 263/263 264/264 265/265
f 266/266 267/267 268/268
f 269/269 270/270 271/271 272/272
f 273/273 274/274 275/275 276/276
f 277/277 278/278 279/279 280/280
f 281/281 282/282 283/283 284/284
f 285/285 286/286 287/287 288/288
f 289/289 290/290 291/291 292/292
f 293/293 294/294 295/295 296/296
f 297/297 298/298 299/299 300/300
f 301/301 302/302 303/303
f 304/304 305/305 306/306
f 307/307 308/308 309/309
f 310/310 311/311 312/312
f 313/313 314/314 315/315
f 316/316 317/317 318/318
f 319/319 320/320 321/321
f 322/322 323/323 324/324
f 325/325 326/326 327/327
f 328/328 329/329 330/330
f 331/331 332/332 333/333
f 334/334 335/335 336/336
f 337/337 338/338 339/339
f 340/340 341/341 342/342
f 343/343 344/344 345/345
f 346/346 347/347 348/348
f 349/349 350/350 351/351
f 352/352 353/353 354/354
f 355/355 356/356 357/357
f 358/358 359/359 360/360
f 361/361 362/362 363/363
f 364/364 365/365 366/366
f 367/367 368/368 369/369
f 370/370 371/371 372/372
f 373/373 374/374 375/375
f 376/376 377/377 378/378
f 379/379 380/380 381/381
f 382/382 383/383 384/384
f 385/385 386/386 387/387
f 388/388 389/389 390/390
f 391/391 392/392 393/393
f 394/394 395/395 396/396
f 397/397 398/398 399/399
f 400/400 401/401 402/402
f 403/403 404/404 405/405 406/406
f 407/407 408/408 409/409 410/410
f 411/411 412/412 413/413 414/414
f 415/415 416/416 417/417 418/418
f 419/419 420/420 421/421 422/422
f 423/423 424/424 425/425 426/426
f 427/427 428/428 429/429 430/430
f 431/431 432/432 433/433 434/434
f 435/435 436/436 437/437
f 438/438 439/439 440/440
f 441/441 442/442 443/443
f 444/444 445/445 446/446
f 447/447 448/448 449/449
f 450/450 451/451 452/452
f 453/453 454/454 455/455
f 456/456 457/457 458/458
f 459/459 460/460 461/461
f 462/462 463/463 464/464
f 465/465 466/466 467/467
f 468/468 469/469 470/470
