o Web
v 0.0000 3.0000 0.2200
v 0.0000 2.8444 0.1556
v 28.0000 2.8444 0.1556
v 28.0000 3.0000 0.2200
v 0.0000 2.8444 0.1556
v 0.0000 2.7800 0.0000
v 28.0000 2.7800 0.0000
v 28.0000 2.8444 0.1556
v 0.0000 2.7800 0.0000
v 0.0000 2.8444 -0.1556
v 28.0000 2.8444 -0.1556
v 28.0000 2.7800 0.0000
v 0.0000 2.8444 -0.1556
v 0.0000 3.0000 -0.2200
v 28.0000 3.0000 -0.2200
v 28.0000 2.8444 -0.1556
v 0.0000 3.0000 -0.2200
v 0.0000 3.1556 -0.1556
v 28.0000 3.1556 -0.1556
v 28.0000 3.0000 -0.2200
v 0.0000 3.1556 -0.1556
v 0.0000 3.2200 -0.0000
v 28.0000 3.2200 -0.0000
v 28.0000 3.1556 -0.1556
v 0.0000 3.2200 -0.0000
v 0.0000 3.1556 0.1556
v 28.0000 3.1556 0.1556
v 28.0000 3.2200 -0.0000
v 0.0000 3.1556 0.1556
v 0.0000 3.0000 0.2200
v 28.0000 3.0000 0.2200
v 28.0000 3.1556 0.1556
v 0.0000 3.0000 0.2200
v 0.0000 2.8444 0.1556
v 0.0000 2.7800 0.0000
v 0.0000 3.0000 0.2200
v 0.0000 2.7800 0.0000
v 0.0000 2.8444 -0.1556
v 0.0000 3.0000 0.2200
v 0.0000 2.8444 -0.1556
v 0.0000 3.0000 -0.2200
v 0.0000 3.0000 0.2200
v 0.0000 3.0000 -0.2200
v 0.0000 3.1556 -0.1556
v 0.0000 3.0000 0.2200
v 0.0000 3.1556 -0.1556
v 0.0000 3.2200 -0.0000
v 0.0000 3.0000 0.2200
v 0.0000 3.2200 -0.0000
v 0.0000 3.1556 0.1556
v 28.0000 3.0000 0.2200
v 28.0000 2.8444 0.1556
v 28.0000 2.7800 0.0000
v 28.0000 3.0000 0.2200
v 28.0000 2.7800 0.0000
v 28.0000 2.8444 -0.1556
v 28.0000 3.0000 0.2200
v 28.0000 2.8444 -0.1556
v 28.0000 3.0000 -0.2200
v 28.0000 3.0000 0.2200
v 28.0000 3.0000 -0.2200
v 28.0000 3.1556 -0.1556
v 28.0000 3.0000 0.2200
v 28.0000 3.1556 -0.1556
v 28.0000 3.2200 -0.0000
v 28.0000 3.0000 0.2200
v 28.0000 3.2200 -0.0000
v 28.0000 3.1556 0.1556
v -0.1100 3.0000 0.1905
v -0.0778 2.8444 0.1347
v 24.1709 2.8444 14.1347
v 24.1387 3.0000 14.1905
v -0.0778 2.8444 0.1347
v -0.0000 2.7800 0.0000
v 24.2487 2.7800 14.0000
v 24.1709 2.8444 14.1347
v -0.0000 2.7800 0.0000
v 0.0778 2.8444 -0.1347
v 24.3265 2.8444 13.8653
v 24.2487 2.7800 14.0000
v 0.0778 2.8444 -0.1347
v 0.1100 3.0000 -0.1905
v 24.3587 3.0000 13.8095
v 24.3265 2.8444 13.8653
v 0.1100 3.0000 -0.1905
v 0.0778 3.1556 -0.1347
v 24.3265 3.1556 13.8653
v 24.3587 3.0000 13.8095
v 0.0778 3.1556 -0.1347
v 0.0000 3.2200 -0.0000
v 24.2487 3.2200 14.0000
v 24.3265 3.1556 13.8653
v 0.0000 3.2200 -0.0000
v -0.0778 3.1556 0.1347
v 24.1709 3.1556 14.1347
v 24.2487 3.2200 14.0000
v -0.0778 3.1556 0.1347
v -0.1100 3.0000 0.1905
v 24.1387 3.0000 14.1905
v 24.1709 3.1556 14.1347
v -0.1100 3.0000 0.1905
v -0.0778 2.8444 0.1347
v -0.0000 2.7800 0.0000
v -0.1100 3.0000 0.1905
v -0.0000 2.7800 0.0000
v 0.0778 2.8444 -0.1347
v -0.1100 3.0000 0.1905
v 0.0778 2.8444 -0.1347
v 0.1100 3.0000 -0.1905
v -0.1100 3.0000 0.1905
v 0.1100 3.0000 -0.1905
v 0.0778 3.1556 -0.1347
v -0.1100 3.0000 0.1905
v 0.0778 3.1556 -0.1347
v 0.0000 3.2200 -0.0000
v -0.1100 3.0000 0.1905
v 0.0000 3.2200 -0.0000
v -0.0778 3.1556 0.1347
v 24.1387 3.0000 14.1905
v 24.1709 2.8444 14.1347
v 24.2487 2.7800 14.0000
v 24.1387 3.0000 14.1905
v 24.2487 2.7800 14.0000
v 24.3265 2.8444 13.8653
v 24.1387 3.0000 14.1905
v 24.3265 2.8444 13.8653
v 24.3587 3.0000 13.8095
v 24.1387 3.0000 14.1905
v 24.3587 3.0000 13.8095
v 24.3265 3.1556 13.8653
v 24.1387 3.0000 14.1905
v 24.3265 3.1556 13.8653
v 24.2487 3.2200 14.0000
v 24.1387 3.0000 14.1905
v 24.2487 3.2200 14.0000
v 24.1709 3.1556 14.1347
v -0.1905 3.0000 0.1100
v -0.1347 2.8444 0.0778
v 13.8653 2.8444 24.3265
v 13.8095 3.0000 24.3587
v -0.1347 2.8444 0.0778
v -0.0000 2.7800 0.0000
v 14.0000 2.7800 24.2487
v 13.8653 2.8444 24.3265
v -0.0000 2.7800 0.0000
v 0.1347 2.8444 -0.0778
v 14.1347 2.8444 24.1709
v 14.0000 2.7800 24.2487
v 0.1347 2.8444 -0.0778
v 0.1905 3.0000 -0.1100
v 14.1905 3.0000 24.1387
v 14.1347 2.8444 24.1709
v 0.1905 3.0000 -0.1100
v 0.1347 3.1556 -0.0778
v 14.1347 3.1556 24.1709
v 14.1905 3.0000 24.1387
v 0.1347 3.1556 -0.0778
v 0.0000 3.2200 -0.0000
v 14.0000 3.2200 24.2487
v 14.1347 3.1556 24.1709
v 0.0000 3.2200 -0.0000
v -0.1347 3.1556 0.0778
v 13.8653 3.1556 24.3265
v 14.0000 3.2200 24.2487
v -0.1347 3.1556 0.0778
v -0.1905 3.0000 0.1100
v 13.8095 3.0000 24.3587
v 13.8653 3.1556 24.3265
v -0.1905 3.0000 0.1100
v -0.1347 2.8444 0.0778
v -0.0000 2.7800 0.0000
v -0.1905 3.0000 0.1100
v -0.0000 2.7800 0.0000
v 0.1347 2.8444 -0.0778
v -0.1905 3.0000 0.1100
v 0.1347 2.8444 -0.0778
v 0.1905 3.0000 -0.1100
v -0.1905 3.0000 0.1100
v 0.1905 3.0000 -0.1100
v 0.1347 3.1556 -0.0778
v -0.1905 3.0000 0.1100
v 0.1347 3.1556 -0.0778
v 0.0000 3.2200 -0.0000
v -0.1905 3.0000 0.1100
v 0.0000 3.2200 -0.0000
v -0.1347 3.1556 0.0778
v 13.8095 3.0000 24.3587
v 13.8653 2.8444 24.3265
v 14.0000 2.7800 24.2487
v 13.8095 3.0000 24.3587
v 14.0000 2.7800 24.2487
v 14.1347 2.8444 24.1709
v 13.8095 3.0000 24.3587
v 14.1347 2.8444 24.1709
v 14.1905 3.0000 24.1387
v 13.8095 3.0000 24.3587
v 14.1905 3.0000 24.1387
v 14.1347 3.1556 24.1709
v 13.8095 3.0000 24.3587
v 14.1347 3.1556 24.1709
v 14.0000 3.2200 24.2487
v 13.8095 3.0000 24.3587
v 14.0000 3.2200 24.2487
v 13.8653 3.1556 24.3265
v -0.2200 3.0000 0.0000
v -0.1556 2.8444 0.0000
v -0.1556 2.8444 28.0000
v -0.2200 3.0000 28.0000
v -0.1556 2.8444 0.0000
v -0.0000 2.7800 0.0000
v 0.0000 2.7800 28.0000
v -0.1556 2.8444 28.0000
v -0.0000 2.7800 0.0000
v 0.1556 2.8444 -0.0000
v 0.1556 2.8444 28.0000
v 0.0000 2.7800 28.0000
v 0.1556 2.8444 -0.0000
v 0.2200 3.0000 -0.0000
v 0.2200 3.0000 28.0000
v 0.1556 2.8444 28.0000
v 0.2200 3.0000 -0.0000
v 0.1556 3.1556 -0.0000
v 0.1556 3.1556 28.0000
v 0.2200 3.0000 28.0000
v 0.1556 3.1556 -0.0000
v 0.0000 3.2200 -0.0000
v 0.0000 3.2200 28.0000
v 0.1556 3.1556 28.0000
v 0.0000 3.2200 -0.0000
v -0.1556 3.1556 0.0000
v -0.1556 3.1556 28.0000
v 0.0000 3.2200 28.0000
v -0.1556 3.1556 0.0000
v -0.2200 3.0000 0.0000
v -0.2200 3.0000 28.0000
v -0.1556 3.1556 28.0000
v -0.2200 3.0000 0.0000
v -0.1556 2.8444 0.0000
v -0.0000 2.7800 0.0000
v -0.2200 3.0000 0.0000
v -0.0000 2.7800 0.0000
v 0.1556 2.8444 -0.0000
v -0.2200 3.0000 0.0000
v 0.1556 2.8444 -0.0000
v 0.2200 3.0000 -0.0000
v -0.2200 3.0000 0.0000
v 0.2200 3.0000 -0.0000
v 0.1556 3.1556 -0.0000
v -0.2200 3.0000 0.0000
v 0.1556 3.1556 -0.0000
v 0.0000 3.2200 -0.0000
v -0.2200 3.0000 0.0000
v 0.0000 3.2200 -0.0000
v -0.1556 3.1556 0.0000
v -0.2200 3.0000 28.0000
v -0.1556 2.8444 28.0000
v 0.0000 2.7800 28.0000
v -0.2200 3.0000 28.0000
v 0.0000 2.7800 28.0000
v 0.1556 2.8444 28.0000
v -0.2200 3.0000 28.0000
v 0.1556 2.8444 28.0000
v 0.2200 3.0000 28.0000
v -0.2200 3.0000 28.0000
v 0.2200 3.0000 28.0000
v 0.1556 3.1556 28.0000
v -0.2200 3.0000 28.0000
v 0.1556 3.1556 28.0000
v 0.0000 3.2200 28.0000
v -0.2200 3.0000 28.0000
v 0.0000 3.2200 28.0000
v -0.1556 3.1556 28.0000
v -0.1905 3.0000 -0.1100
v -0.1347 2.8444 -0.0778
v -14.1347 2.8444 24.1709
v -14.1905 3.0000 24.1387
v -0.1347 2.8444 -0.0778
v -0.0000 2.7800 -0.0000
v -14.0000 2.7800 24.2487
v -14.1347 2.8444 24.1709
v -0.0000 2.7800 -0.0000
v 0.1347 2.8444 0.0778
v -13.8653 2.8444 24.3265
v -14.0000 2.7800 24.2487
v 0.1347 2.8444 0.0778
v 0.1905 3.0000 0.1100
v -13.8095 3.0000 24.3587
v -13.8653 2.8444 24.3265
v 0.1905 3.0000 0.1100
v 0.1347 3.1556 0.0778
v -13.8653 3.1556 24.3265
v -13.8095 3.0000 24.3587
v 0.1347 3.1556 0.0778
v 0.0000 3.2200 0.0000
v -14.0000 3.2200 24.2487
v -13.8653 3.1556 24.3265
v 0.0000 3.2200 0.0000
v -0.1347 3.1556 -0.0778
v -14.1347 3.1556 24.1709
v -14.0000 3.2200 24.2487
v -0.1347 3.1556 -0.0778
v -0.1905 3.0000 -0.1100
v -14.1905 3.0000 24.1387
v -14.1347 3.1556 24.1709
v -0.1905 3.0000 -0.1100
v -0.1347 2.8444 -0.0778
v -0.0000 2.7800 -0.0000
v -0.1905 3.0000 -0.1100
v -0.0000 2.7800 -0.0000
v 0.1347 2.8444 0.0778
v -0.1905 3.0000 -0.1100
v 0.1347 2.8444 0.0778
v 0.1905 3.0000 0.1100
v -0.1905 3.0000 -0.1100
v 0.1905 3.0000 0.1100
v 0.1347 3.1556 0.0778
v -0.1905 3.0000 -0.1100
v 0.1347 3.1556 0.0778
v 0.0000 3.2200 0.0000
v -0.1905 3.0000 -0.1100
v 0.0000 3.2200 0.0000
v -0.1347 3.1556 -0.0778
v -14.1905 3.0000 24.1387
v -14.1347 2.8444 24.1709
v -14.0000 2.7800 24.2487
v -14.1905 3.0000 24.1387
v -14.0000 2.7800 24.2487
v -13.8653 2.8444 24.3265
v -14.1905 3.0000 24.1387
v -13.8653 2.8444 24.3265
v -13.8095 3.0000 24.3587
v -14.1905 3.0000 24.1387
v -13.8095 3.0000 24.3587
v -13.8653 3.1556 24.3265
v -14.1905 3.0000 24.1387
v -13.8653 3.1556 24.3265
v -14.0000 3.2200 24.2487
v -14.1905 3.0000 24.1387
v -14.0000 3.2200 24.2487
v -14.1347 3.1556 24.1709
v -0.1100 3.0000 -0.1905
v -0.0778 2.8444 -0.1347
v -24.3265 2.8444 13.8653
v -24.3587 3.0000 13.8095
v -0.0778 2.8444 -0.1347
v -0.0000 2.7800 -0.0000
v -24.2487 2.7800 14.0000
v -24.3265 2.8444 13.8653
v -0.0000 2.7800 -0.0000
v 0.0778 2.8444 0.1347
v -24.1709 2.8444 14.1347
v -24.2487 2.7800 14.0000
v 0.0778 2.8444 0.1347
v 0.1100 3.0000 0.1905
v -24.1387 3.0000 14.1905
v -24.1709 2.8444 14.1347
v 0.1100 3.0000 0.1905
v 0.0778 3.1556 0.1347
v -24.1709 3.1556 14.1347
v -24.1387 3.0000 14.1905
v 0.0778 3.1556 0.1347
v 0.0000 3.2200 0.0000
v -24.2487 3.2200 14.0000
v -24.1709 3.1556 14.1347
v 0.0000 3.2200 0.0000
v -0.0778 3.1556 -0.1347
v -24.3265 3.1556 13.8653
v -24.2487 3.2200 14.0000
v -0.0778 3.1556 -0.1347
v -0.1100 3.0000 -0.1905
v -24.3587 3.0000 13.8095
v -24.3265 3.1556 13.8653
v -0.1100 3.0000 -0.1905
v -0.0778 2.8444 -0.1347
v -0.0000 2.7800 -0.0000
v -0.1100 3.0000 -0.1905
v -0.0000 2.7800 -0.0000
v 0.0778 2.8444 0.1347
v -0.1100 3.0000 -0.1905
v 0.0778 2.8444 0.1347
v 0.1100 3.0000 0.1905
v -0.1100 3.0000 -0.1905
v 0.1100 3.0000 0.1905
v 0.0778 3.1556 0.1347
v -0.1100 3.0000 -0.1905
v 0.0778 3.1556 0.1347
v 0.0000 3.2200 0.0000
v -0.1100 3.0000 -0.1905
v 0.0000 3.2200 0.0000
v -0.0778 3.1556 -0.1347
v -24.3587 3.0000 13.8095
v -24.3265 2.8444 13.8653
v -24.2487 2.7800 14.0000
v -24.3587 3.0000 13.8095
v -24.2487 2.7800 14.0000
v -24.1709 2.8444 14.1347
v -24.3587 3.0000 13.8095
v -24.1709 2.8444 14.1347
v -24.1387 3.0000 14.1905
v -24.3587 3.0000 13.8095
v -24.1387 3.0000 14.1905
v -24.1709 3.1556 14.1347
v -24.3587 3.0000 13.8095
v -24.1709 3.1556 14.1347
v -24.2487 3.2200 14.0000
v -24.3587 3.0000 13.8095
v -24.2487 3.2200 14.0000
v -24.3265 3.1556 13.8653
v -0.0000 3.0000 -0.2200
v -0.0000 2.8444 -0.1556
v -28.0000 2.8444 -0.1556
v -28.0000 3.0000 -0.2200
v -0.0000 2.8444 -0.1556
v -0.0000 2.7800 -0.0000
v -28.0000 2.7800 0.0000
v -28.0000 2.8444 -0.1556
v -0.0000 2.7800 -0.0000
v 0.0000 2.8444 0.1556
v -28.0000 2.8444 0.1556
v -28.0000 2.7800 0.0000
v 0.0000 2.8444 0.1556
v 0.0000 3.0000 0.2200
v -28.0000 3.0000 0.2200
v -28.0000 2.8444 0.1556
v 0.0000 3.0000 0.2200
v 0.0000 3.1556 0.1556
v -28.0000 3.1556 0.1556
v -28.0000 3.0000 0.2200
v 0.0000 3.1556 0.1556
v 0.0000 3.2200 0.0000
v -28.0000 3.2200 0.0000
v -28.0000 3.1556 0.1556
v 0.0000 3.2200 0.0000
v -0.0000 3.1556 -0.1556
v -28.0000 3.1556 -0.1556
v -28.0000 3.2200 0.0000
v -0.0000 3.1556 -0.1556
v -0.0000 3.0000 -0.2200
v -28.0000 3.0000 -0.2200
v -28.0000 3.1556 -0.1556
v -0.0000 3.0000 -0.2200
v -0.0000 2.8444 -0.1556
v -0.0000 2.7800 -0.0000
v -0.0000 3.0000 -0.2200
v -0.0000 2.7800 -0.0000
v 0.0000 2.8444 0.1556
v -0.0000 3.0000 -0.2200
v 0.0000 2.8444 0.1556
v 0.0000 3.0000 0.2200
v -0.0000 3.0000 -0.2200
v 0.0000 3.0000 0.2200
v 0.0000 3.1556 0.1556
v -0.0000 3.0000 -0.2200
v 0.0000 3.1556 0.1556
v 0.0000 3.2200 0.0000
v -0.0000 3.0000 -0.2200
v 0.0000 3.2200 0.0000
v -0.0000 3.1556 -0.1556
v -28.0000 3.0000 -0.2200
v -28.0000 2.8444 -0.1556
v -28.0000 2.7800 0.0000
v -28.0000 3.0000 -0.2200
v -28.0000 2.7800 0.0000
v -28.0000 2.8444 0.1556
v -28.0000 3.0000 -0.2200
v -28.0000 2.8444 0.1556
v -28.0000 3.0000 0.2200
v -28.0000 3.0000 -0.2200
v -28.0000 3.0000 0.2200
v -28.0000 3.1556 0.1556
v -28.0000 3.0000 -0.2200
v -28.0000 3.1556 0.1556
v -28.0000 3.2200 0.0000
v -28.0000 3.0000 -0.2200
v -28.0000 3.2200 0.0000
v -28.0000 3.1556 -0.1556
v 0.1100 3.0000 -0.1905
v 0.0778 2.8444 -0.1347
v -24.1709 2.8444 -14.1347
v -24.1387 3.0000 -14.1905
v 0.0778 2.8444 -0.1347
v 0.0000 2.7800 -0.0000
v -24.2487 2.7800 -14.0000
v -24.1709 2.8444 -14.1347
v 0.0000 2.7800 -0.0000
v -0.0778 2.8444 0.1347
v -24.3265 2.8444 -13.8653
v -24.2487 2.7800 -14.0000
v -0.0778 2.8444 0.1347
v -0.1100 3.0000 0.1905
v -24.3587 3.0000 -13.8095
v -24.3265 2.8444 -13.8653
v -0.1100 3.0000 0.1905
v -0.0778 3.1556 0.1347
v -24.3265 3.1556 -13.8653
v -24.3587 3.0000 -13.8095
v -0.0778 3.1556 0.1347
v -0.0000 3.2200 0.0000
v -24.2487 3.2200 -14.0000
v -24.3265 3.1556 -13.8653
v -0.0000 3.2200 0.0000
v 0.0778 3.1556 -0.1347
v -24.1709 3.1556 -14.1347
v -24.2487 3.2200 -14.0000
v 0.0778 3.1556 -0.1347
v 0.1100 3.0000 -0.1905
v -24.1387 3.0000 -14.1905
v -24.1709 3.1556 -14.1347
v 0.1100 3.0000 -0.1905
v 0.0778 2.8444 -0.1347
v 0.0000 2.7800 -0.0000
v 0.1100 3.0000 -0.1905
v 0.0000 2.7800 -0.0000
v -0.0778 2.8444 0.1347
v 0.1100 3.0000 -0.1905
v -0.0778 2.8444 0.1347
v -0.1100 3.0000 0.1905
v 0.1100 3.0000 -0.1905
v -0.1100 3.0000 0.1905
v -0.0778 3.1556 0.1347
v 0.1100 3.0000 -0.1905
v -0.0778 3.1556 0.1347
v -0.0000 3.2200 0.0000
v 0.1100 3.0000 -0.1905
v -0.0000 3.2200 0.0000
v 0.0778 3.1556 -0.1347
v -24.1387 3.0000 -14.1905
v -24.1709 2.8444 -14.1347
v -24.2487 2.7800 -14.0000
v -24.1387 3.0000 -14.1905
v -24.2487 2.7800 -14.0000
v -24.3265 2.8444 -13.8653
v -24.1387 3.0000 -14.1905
v -24.3265 2.8444 -13.8653
v -24.3587 3.0000 -13.8095
v -24.1387 3.0000 -14.1905
v -24.3587 3.0000 -13.8095
v -24.3265 3.1556 -13.8653
v -24.1387 3.0000 -14.1905
v -24.3265 3.1556 -13.8653
v -24.2487 3.2200 -14.0000
v -24.1387 3.0000 -14.1905
v -24.2487 3.2200 -14.0000
v -24.1709 3.1556 -14.1347
v 0.1905 3.0000 -0.1100
v 0.1347 2.8444 -0.0778
v -13.8653 2.8444 -24.3265
v -13.8095 3.0000 -24.3587
v 0.1347 2.8444 -0.0778
v 0.0000 2.7800 -0.0000
v -14.0000 2.7800 -24.2487
v -13.8653 2.8444 -24.3265
v 0.0000 2.7800 -0.0000
v -0.1347 2.8444 0.0778
v -14.1347 2.8444 -24.1709
v -14.0000 2.7800 -24.2487
v -0.1347 2.8444 0.0778
v -0.1905 3.0000 0.1100
v -14.1905 3.0000 -24.1387
v -14.1347 2.8444 -24.1709
v -0.1905 3.0000 0.1100
v -0.1347 3.1556 0.0778
v -14.1347 3.1556 -24.1709
v -14.1905 3.0000 -24.1387
v -0.1347 3.1556 0.0778
v -0.0000 3.2200 0.0000
v -14.0000 3.2200 -24.2487
v -14.1347 3.1556 -24.1709
v -0.0000 3.2200 0.0000
v 0.1347 3.1556 -0.0778
v -13.8653 3.1556 -24.3265
v -14.0000 3.2200 -24.2487
v 0.1347 3.1556 -0.0778
v 0.1905 3.0000 -0.1100
v -13.8095 3.0000 -24.3587
v -13.8653 3.1556 -24.3265
v 0.1905 3.0000 -0.1100
v 0.1347 2.8444 -0.0778
v 0.0000 2.7800 -0.0000
v 0.1905 3.0000 -0.1100
v 0.0000 2.7800 -0.0000
v -0.1347 2.8444 0.0778
v 0.1905 3.0000 -0.1100
v -0.1347 2.8444 0.0778
v -0.1905 3.0000 0.1100
v 0.1905 3.0000 -0.1100
v -0.1905 3.0000 0.1100
v -0.1347 3.1556 0.0778
v 0.1905 3.0000 -0.1100
v -0.1347 3.1556 0.0778
v -0.0000 3.2200 0.0000
v 0.1905 3.0000 -0.1100
v -0.0000 3.2200 0.0000
v 0.1347 3.1556 -0.0778
v -13.8095 3.0000 -24.3587
v -13.8653 2.8444 -24.3265
v -14.0000 2.7800 -24.2487
v -13.8095 3.0000 -24.3587
v -14.0000 2.7800 -24.2487
v -14.1347 2.8444 -24.1709
v -13.8095 3.0000 -24.3587
v -14.1347 2.8444 -24.1709
v -14.1905 3.0000 -24.1387
v -13.8095 3.0000 -24.3587
v -14.1905 3.0000 -24.1387
v -14.1347 3.1556 -24.1709
v -13.8095 3.0000 -24.3587
v -14.1347 3.1556 -24.1709
v -14.0000 3.2200 -24.2487
v -13.8095 3.0000 -24.3587
v -14.0000 3.2200 -24.2487
v -13.8653 3.1556 -24.3265
v 0.2200 3.0000 -0.0000
v 0.1556 2.8444 -0.0000
v 0.1556 2.8444 -28.0000
v 0.2200 3.0000 -28.0000
v 0.1556 2.8444 -0.0000
v 0.0000 2.7800 -0.0000
v -0.0000 2.7800 -28.0000
v 0.1556 2.8444 -28.0000
v 0.0000 2.7800 -0.0000
v -0.1556 2.8444 0.0000
v -0.1556 2.8444 -28.0000
v -0.0000 2.7800 -28.0000
v -0.1556 2.8444 0.0000
v -0.2200 3.0000 0.0000
v -0.2200 3.0000 -28.0000
v -0.1556 2.8444 -28.0000
v -0.2200 3.0000 0.0000
v -0.1556 3.1556 0.0000
v -0.1556 3.1556 -28.0000
v -0.2200 3.0000 -28.0000
v -0.1556 3.1556 0.0000
v -0.0000 3.2200 0.0000
v -0.0000 3.2200 -28.0000
v -0.1556 3.1556 -28.0000
v -0.0000 3.2200 0.0000
v 0.1556 3.1556 -0.0000
v 0.1556 3.1556 -28.0000
v -0.0000 3.2200 -28.0000
v 0.1556 3.1556 -0.0000
v 0.2200 3.0000 -0.0000
v 0.2200 3.0000 -28.0000
v 0.1556 3.1556 -28.0000
v 0.2200 3.0000 -0.0000
v 0.1556 2.8444 -0.0000
v 0.0000 2.7800 -0.0000
v 0.2200 3.0000 -0.0000
v 0.0000 2.7800 -0.0000
v -0.1556 2.8444 0.0000
v 0.2200 3.0000 -0.0000
v -0.1556 2.8444 0.0000
v -0.2200 3.0000 0.0000
v 0.2200 3.0000 -0.0000
v -0.2200 3.0000 0.0000
v -0.1556 3.1556 0.0000
v 0.2200 3.0000 -0.0000
v -0.1556 3.1556 0.0000
v -0.0000 3.2200 0.0000
v 0.2200 3.0000 -0.0000
v -0.0000 3.2200 0.0000
v 0.1556 3.1556 -0.0000
v 0.2200 3.0000 -28.0000
v 0.1556 2.8444 -28.0000
v -0.0000 2.7800 -28.0000
v 0.2200 3.0000 -28.0000
v -0.0000 2.7800 -28.0000
v -0.1556 2.8444 -28.0000
v 0.2200 3.0000 -28.0000
v -0.1556 2.8444 -28.0000
v -0.2200 3.0000 -28.0000
v 0.2200 3.0000 -28.0000
v -0.2200 3.0000 -28.0000
v -0.1556 3.1556 -28.0000
v 0.2200 3.0000 -28.0000
v -0.1556 3.1556 -28.0000
v -0.0000 3.2200 -28.0000
v 0.2200 3.0000 -28.0000
v -0.0000 3.2200 -28.0000
v 0.1556 3.1556 -28.0000
v 0.1905 3.0000 0.1100
v 0.1347 2.8444 0.0778
v 14.1347 2.8444 -24.1709
v 14.1905 3.0000 -24.1387
v 0.1347 2.8444 0.0778
v 0.0000 2.7800 0.0000
v 14.0000 2.7800 -24.2487
v 14.1347 2.8444 -24.1709
v 0.0000 2.7800 0.0000
v -0.1347 2.8444 -0.0778
v 13.8653 2.8444 -24.3265
v 14.0000 2.7800 -24.2487
v -0.1347 2.8444 -0.0778
v -0.1905 3.0000 -0.1100
v 13.8095 3.0000 -24.3587
v 13.8653 2.8444 -24.3265
v -0.1905 3.0000 -0.1100
v -0.1347 3.1556 -0.0778
v 13.8653 3.1556 -24.3265
v 13.8095 3.0000 -24.3587
v -0.1347 3.1556 -0.0778
v -0.0000 3.2200 -0.0000
v 14.0000 3.2200 -24.2487
v 13.8653 3.1556 -24.3265
v -0.0000 3.2200 -0.0000
v 0.1347 3.1556 0.0778
v 14.1347 3.1556 -24.1709
v 14.0000 3.2200 -24.2487
v 0.1347 3.1556 0.0778
v 0.1905 3.0000 0.1100
v 14.1905 3.0000 -24.1387
v 14.1347 3.1556 -24.1709
v 0.1905 3.0000 0.1100
v 0.1347 2.8444 0.0778
v 0.0000 2.7800 0.0000
v 0.1905 3.0000 0.1100
v 0.0000 2.7800 0.0000
v -0.1347 2.8444 -0.0778
v 0.1905 3.0000 0.1100
v -0.1347 2.8444 -0.0778
v -0.1905 3.0000 -0.1100
v 0.1905 3.0000 0.1100
v -0.1905 3.0000 -0.1100
v -0.1347 3.1556 -0.0778
v 0.1905 3.0000 0.1100
v -0.1347 3.1556 -0.0778
v -0.0000 3.2200 -0.0000
v 0.1905 3.0000 0.1100
v -0.0000 3.2200 -0.0000
v 0.1347 3.1556 0.0778
v 14.1905 3.0000 -24.1387
v 14.1347 2.8444 -24.1709
v 14.0000 2.7800 -24.2487
v 14.1905 3.0000 -24.1387
v 14.0000 2.7800 -24.2487
v 13.8653 2.8444 -24.3265
v 14.1905 3.0000 -24.1387
v 13.8653 2.8444 -24.3265
v 13.8095 3.0000 -24.3587
v 14.1905 3.0000 -24.1387
v 13.8095 3.0000 -24.3587
v 13.8653 3.1556 -24.3265
v 14.1905 3.0000 -24.1387
v 13.8653 3.1556 -24.3265
v 14.0000 3.2200 -24.2487
v 14.1905 3.0000 -24.1387
v 14.0000 3.2200 -24.2487
v 14.1347 3.1556 -24.1709
v 0.1100 3.0000 0.1905
v 0.0778 2.8444 0.1347
v 24.3265 2.8444 -13.8653
v 24.3587 3.0000 -13.8095
v 0.0778 2.8444 0.1347
v 0.0000 2.7800 0.0000
v 24.2487 2.7800 -14.0000
v 24.3265 2.8444 -13.8653
v 0.0000 2.7800 0.0000
v -0.0778 2.8444 -0.1347
v 24.1709 2.8444 -14.1347
v 24.2487 2.7800 -14.0000
v -0.0778 2.8444 -0.1347
v -0.1100 3.0000 -0.1905
v 24.1387 3.0000 -14.1905
v 24.1709 2.8444 -14.1347
v -0.1100 3.0000 -0.1905
v -0.0778 3.1556 -0.1347
v 24.1709 3.1556 -14.1347
v 24.1387 3.0000 -14.1905
v -0.0778 3.1556 -0.1347
v -0.0000 3.2200 -0.0000
v 24.2487 3.2200 -14.0000
v 24.1709 3.1556 -14.1347
v -0.0000 3.2200 -0.0000
v 0.0778 3.1556 0.1347
v 24.3265 3.1556 -13.8653
v 24.2487 3.2200 -14.0000
v 0.0778 3.1556 0.1347
v 0.1100 3.0000 0.1905
v 24.3587 3.0000 -13.8095
v 24.3265 3.1556 -13.8653
v 0.1100 3.0000 0.1905
v 0.0778 2.8444 0.1347
v 0.0000 2.7800 0.0000
v 0.1100 3.0000 0.1905
v 0.0000 2.7800 0.0000
v -0.0778 2.8444 -0.1347
v 0.1100 3.0000 0.1905
v -0.0778 2.8444 -0.1347
v -0.1100 3.0000 -0.1905
v 0.1100 3.0000 0.1905
v -0.1100 3.0000 -0.1905
v -0.0778 3.1556 -0.1347
v 0.1100 3.0000 0.1905
v -0.0778 3.1556 -0.1347
v -0.0000 3.2200 -0.0000
v 0.1100 3.0000 0.1905
v -0.0000 3.2200 -0.0000
v 0.0778 3.1556 0.1347
v 24.3587 3.0000 -13.8095
v 24.3265 2.8444 -13.8653
v 24.2487 2.7800 -14.0000
v 24.3587 3.0000 -13.8095
v 24.2487 2.7800 -14.0000
v 24.1709 2.8444 -14.1347
v 24.3587 3.0000 -13.8095
v 24.1709 2.8444 -14.1347
v 24.1387 3.0000 -14.1905
v 24.3587 3.0000 -13.8095
v 24.1387 3.0000 -14.1905
v 24.1709 3.1556 -14.1347
v 24.3587 3.0000 -13.8095
v 24.1709 3.1556 -14.1347
v 24.2487 3.2200 -14.0000
v 24.3587 3.0000 -13.8095
v 24.2487 3.2200 -14.0000
v 24.3265 3.1556 -13.8653
v 8.2200 3.2200 0.0000
v 7.1187 3.2200 4.1100
v 7.0235 3.4105 4.0550
v 8.1100 3.4105 0.0000
v 8.1100 3.4105 0.0000
v 7.0235 3.4105 4.0550
v 6.8329 3.4105 3.9450
v 7.8900 3.4105 0.0000
v 7.8900 3.4105 0.0000
v 6.8329 3.4105 3.9450
v 6.7377 3.2200 3.8900
v 7.7800 3.2200 0.0000
v 7.7800 3.2200 0.0000
v 6.7377 3.2200 3.8900
v 6.8329 3.0295 3.9450
v 7.8900 3.0295 0.0000
v 7.8900 3.0295 0.0000
v 6.8329 3.0295 3.9450
v 7.0235 3.0295 4.0550
v 8.1100 3.0295 0.0000
v 8.1100 3.0295 0.0000
v 7.0235 3.0295 4.0550
v 7.1187 3.2200 4.1100
v 8.2200 3.2200 0.0000
v 7.1187 3.2200 4.1100
v 4.1100 3.2200 7.1187
v 4.0550 3.4105 7.0235
v 7.0235 3.4105 4.0550
v 7.0235 3.4105 4.0550
v 4.0550 3.4105 7.0235
v 3.9450 3.4105 6.8329
v 6.8329 3.4105 3.9450
v 6.8329 3.4105 3.9450
v 3.9450 3.4105 6.8329
v 3.8900 3.2200 6.7377
v 6.7377 3.2200 3.8900
v 6.7377 3.2200 3.8900
v 3.8900 3.2200 6.7377
v 3.9450 3.0295 6.8329
v 6.8329 3.0295 3.9450
v 6.8329 3.0295 3.9450
v 3.9450 3.0295 6.8329
v 4.0550 3.0295 7.0235
v 7.0235 3.0295 4.0550
v 7.0235 3.0295 4.0550
v 4.0550 3.0295 7.0235
v 4.1100 3.2200 7.1187
v 7.1187 3.2200 4.1100
v 4.1100 3.2200 7.1187
v 0.0000 3.2200 8.2200
v 0.0000 3.4105 8.1100
v 4.0550 3.4105 7.0235
v 4.0550 3.4105 7.0235
v 0.0000 3.4105 8.1100
v 0.0000 3.4105 7.8900
v 3.9450 3.4105 6.8329
v 3.9450 3.4105 6.8329
v 0.0000 3.4105 7.8900
v 0.0000 3.2200 7.7800
v 3.8900 3.2200 6.7377
v 3.8900 3.2200 6.7377
v 0.0000 3.2200 7.7800
v 0.0000 3.0295 7.8900
v 3.9450 3.0295 6.8329
v 3.9450 3.0295 6.8329
v 0.0000 3.0295 7.8900
v 0.0000 3.0295 8.1100
v 4.0550 3.0295 7.0235
v 4.0550 3.0295 7.0235
v 0.0000 3.0295 8.1100
v 0.0000 3.2200 8.2200
v 4.1100 3.2200 7.1187
v 0.0000 3.2200 8.2200
v -4.1100 3.2200 7.1187
v -4.0550 3.4105 7.0235
v 0.0000 3.4105 8.1100
v 0.0000 3.4105 8.1100
v -4.0550 3.4105 7.0235
v -3.9450 3.4105 6.8329
v 0.0000 3.4105 7.8900
v 0.0000 3.4105 7.8900
v -3.9450 3.4105 6.8329
v -3.8900 3.2200 6.7377
v 0.0000 3.2200 7.7800
v 0.0000 3.2200 7.7800
v -3.8900 3.2200 6.7377
v -3.9450 3.0295 6.8329
v 0.0000 3.0295 7.8900
v 0.0000 3.0295 7.8900
v -3.9450 3.0295 6.8329
v -4.0550 3.0295 7.0235
v 0.0000 3.0295 8.1100
v 0.0000 3.0295 8.1100
v -4.0550 3.0295 7.0235
v -4.1100 3.2200 7.1187
v 0.0000 3.2200 8.2200
v -4.1100 3.2200 7.1187
v -7.1187 3.2200 4.1100
v -7.0235 3.4105 4.0550
v -4.0550 3.4105 7.0235
v -4.0550 3.4105 7.0235
v -7.0235 3.4105 4.0550
v -6.8329 3.4105 3.9450
v -3.9450 3.4105 6.8329
v -3.9450 3.4105 6.8329
v -6.8329 3.4105 3.9450
v -6.7377 3.2200 3.8900
v -3.8900 3.2200 6.7377
v -3.8900 3.2200 6.7377
v -6.7377 3.2200 3.8900
v -6.8329 3.0295 3.9450
v -3.9450 3.0295 6.8329
v -3.9450 3.0295 6.8329
v -6.8329 3.0295 3.9450
v -7.0235 3.0295 4.0550
v -4.0550 3.0295 7.0235
v -4.0550 3.0295 7.0235
v -7.0235 3.0295 4.0550
v -7.1187 3.2200 4.1100
v -4.1100 3.2200 7.1187
v -7.1187 3.2200 4.1100
v -8.2200 3.2200 0.0000
v -8.1100 3.4105 0.0000
v -7.0235 3.4105 4.0550
v -7.0235 3.4105 4.0550
v -8.1100 3.4105 0.0000
v -7.8900 3.4105 0.0000
v -6.8329 3.4105 3.9450
v -6.8329 3.4105 3.9450
v -7.8900 3.4105 0.0000
v -7.7800 3.2200 0.0000
v -6.7377 3.2200 3.8900
v -6.7377 3.2200 3.8900
v -7.7800 3.2200 0.0000
v -7.8900 3.0295 0.0000
v -6.8329 3.0295 3.9450
v -6.8329 3.0295 3.9450
v -7.8900 3.0295 0.0000
v -8.1100 3.0295 0.0000
v -7.0235 3.0295 4.0550
v -7.0235 3.0295 4.0550
v -8.1100 3.0295 0.0000
v -8.2200 3.2200 0.0000
v -7.1187 3.2200 4.1100
v -8.2200 3.2200 0.0000
v -7.1187 3.2200 -4.1100
v -7.0235 3.4105 -4.0550
v -8.1100 3.4105 0.0000
v -8.1100 3.4105 0.0000
v -7.0235 3.4105 -4.0550
v -6.8329 3.4105 -3.9450
v -7.8900 3.4105 0.0000
v -7.8900 3.4105 0.0000
v -6.8329 3.4105 -3.9450
v -6.7377 3.2200 -3.8900
v -7.7800 3.2200 0.0000
v -7.7800 3.2200 0.0000
v -6.7377 3.2200 -3.8900
v -6.8329 3.0295 -3.9450
v -7.8900 3.0295 0.0000
v -7.8900 3.0295 0.0000
v -6.8329 3.0295 -3.9450
v -7.0235 3.0295 -4.0550
v -8.1100 3.0295 0.0000
v -8.1100 3.0295 0.0000
v -7.0235 3.0295 -4.0550
v -7.1187 3.2200 -4.1100
v -8.2200 3.2200 0.0000
v -7.1187 3.2200 -4.1100
v -4.1100 3.2200 -7.1187
v -4.0550 3.4105 -7.0235
v -7.0235 3.4105 -4.0550
v -7.0235 3.4105 -4.0550
v -4.0550 3.4105 -7.0235
v -3.9450 3.4105 -6.8329
v -6.8329 3.4105 -3.9450
v -6.8329 3.4105 -3.9450
v -3.9450 3.4105 -6.8329
v -3.8900 3.2200 -6.7377
v -6.7377 3.2200 -3.8900
v -6.7377 3.2200 -3.8900
v -3.8900 3.2200 -6.7377
v -3.9450 3.0295 -6.8329
v -6.8329 3.0295 -3.9450
v -6.8329 3.0295 -3.9450
v -3.9450 3.0295 -6.8329
v -4.0550 3.0295 -7.0235
v -7.0235 3.0295 -4.0550
v -7.0235 3.0295 -4.0550
v -4.0550 3.0295 -7.0235
v -4.1100 3.2200 -7.1187
v -7.1187 3.2200 -4.1100
v -4.1100 3.2200 -7.1187
v -0.0000 3.2200 -8.2200
v -0.0000 3.4105 -8.1100
v -4.0550 3.4105 -7.0235
v -4.0550 3.4105 -7.0235
v -0.0000 3.4105 -8.1100
v -0.0000 3.4105 -7.8900
v -3.9450 3.4105 -6.8329
v -3.9450 3.4105 -6.8329
v -0.0000 3.4105 -7.8900
v -0.0000 3.2200 -7.7800
v -3.8900 3.2200 -6.7377
v -3.8900 3.2200 -6.7377
v -0.0000 3.2200 -7.7800
v -0.0000 3.0295 -7.8900
v -3.9450 3.0295 -6.8329
v -3.9450 3.0295 -6.8329
v -0.0000 3.0295 -7.8900
v -0.0000 3.0295 -8.1100
v -4.0550 3.0295 -7.0235
v -4.0550 3.0295 -7.0235
v -0.0000 3.0295 -8.1100
v -0.0000 3.2200 -8.2200
v -4.1100 3.2200 -7.1187
v -0.0000 3.2200 -8.2200
v 4.1100 3.2200 -7.1187
v 4.0550 3.4105 -7.0235
v -0.0000 3.4105 -8.1100
v -0.0000 3.4105 -8.1100
v 4.0550 3.4105 -7.0235
v 3.9450 3.4105 -6.8329
v -0.0000 3.4105 -7.8900
v -0.0000 3.4105 -7.8900
v 3.9450 3.4105 -6.8329
v 3.8900 3.2200 -6.7377
v -0.0000 3.2200 -7.7800
v -0.0000 3.2200 -7.7800
v 3.8900 3.2200 -6.7377
v 3.9450 3.0295 -6.8329
v -0.0000 3.0295 -7.8900
v -0.0000 3.0295 -7.8900
v 3.9450 3.0295 -6.8329
v 4.0550 3.0295 -7.0235
v -0.0000 3.0295 -8.1100
v -0.0000 3.0295 -8.1100
v 4.0550 3.0295 -7.0235
v 4.1100 3.2200 -7.1187
v -0.0000 3.2200 -8.2200
v 4.1100 3.2200 -7.1187
v 7.1187 3.2200 -4.1100
v 7.0235 3.4105 -4.0550
v 4.0550 3.4105 -7.0235
v 4.0550 3.4105 -7.0235
v 7.0235 3.4105 -4.0550
v 6.8329 3.4105 -3.9450
v 3.9450 3.4105 -6.8329
v 3.9450 3.4105 -6.8329
v 6.8329 3.4105 -3.9450
v 6.7377 3.2200 -3.8900
v 3.8900 3.2200 -6.7377
v 3.8900 3.2200 -6.7377
v 6.7377 3.2200 -3.8900
v 6.8329 3.0295 -3.9450
v 3.9450 3.0295 -6.8329
v 3.9450 3.0295 -6.8329
v 6.8329 3.0295 -3.9450
v 7.0235 3.0295 -4.0550
v 4.0550 3.0295 -7.0235
v 4.0550 3.0295 -7.0235
v 7.0235 3.0295 -4.0550
v 7.1187 3.2200 -4.1100
v 4.1100 3.2200 -7.1187
v 7.1187 3.2200 -4.1100
v 8.2200 3.2200 -0.0000
v 8.1100 3.4105 -0.0000
v 7.0235 3.4105 -4.0550
v 7.0235 3.4105 -4.0550
v 8.1100 3.4105 -0.0000
v 7.8900 3.4105 -0.0000
v 6.8329 3.4105 -3.9450
v 6.8329 3.4105 -3.9450
v 7.8900 3.4105 -0.0000
v 7.7800 3.2200 -0.0000
v 6.7377 3.2200 -3.8900
v 6.7377 3.2200 -3.8900
v 7.7800 3.2200 -0.0000
v 7.8900 3.0295 -0.0000
v 6.8329 3.0295 -3.9450
v 6.8329 3.0295 -3.9450
v 7.8900 3.0295 -0.0000
v 8.1100 3.0295 -0.0000
v 7.0235 3.0295 -4.0550
v 7.0235 3.0295 -4.0550
v 8.1100 3.0295 -0.0000
v 8.2200 3.2200 -0.0000
v 7.1187 3.2200 -4.1100
v 16.2200 3.2200 0.0000
v 14.0469 3.2200 8.1100
v 13.9517 3.4105 8.0550
v 16.1100 3.4105 0.0000
v 16.1100 3.4105 0.0000
v 13.9517 3.4105 8.0550
v 13.7611 3.4105 7.9450
v 15.8900 3.4105 0.0000
v 15.8900 3.4105 0.0000
v 13.7611 3.4105 7.9450
v 13.6659 3.2200 7.8900
v 15.7800 3.2200 0.0000
v 15.7800 3.2200 0.0000
v 13.6659 3.2200 7.8900
v 13.7611 3.0295 7.9450
v 15.8900 3.0295 0.0000
v 15.8900 3.0295 0.0000
v 13.7611 3.0295 7.9450
v 13.9517 3.0295 8.0550
v 16.1100 3.0295 0.0000
v 16.1100 3.0295 0.0000
v 13.9517 3.0295 8.0550
v 14.0469 3.2200 8.1100
v 16.2200 3.2200 0.0000
v 14.0469 3.2200 8.1100
v 8.1100 3.2200 14.0469
v 8.0550 3.4105 13.9517
v 13.9517 3.4105 8.0550
v 13.9517 3.4105 8.0550
v 8.0550 3.4105 13.9517
v 7.9450 3.4105 13.7611
v 13.7611 3.4105 7.9450
v 13.7611 3.4105 7.9450
v 7.9450 3.4105 13.7611
v 7.8900 3.2200 13.6659
v 13.6659 3.2200 7.8900
v 13.6659 3.2200 7.8900
v 7.8900 3.2200 13.6659
v 7.9450 3.0295 13.7611
v 13.7611 3.0295 7.9450
v 13.7611 3.0295 7.9450
v 7.9450 3.0295 13.7611
v 8.0550 3.0295 13.9517
v 13.9517 3.0295 8.0550
v 13.9517 3.0295 8.0550
v 8.0550 3.0295 13.9517
v 8.1100 3.2200 14.0469
v 14.0469 3.2200 8.1100
v 8.1100 3.2200 14.0469
v 0.0000 3.2200 16.2200
v 0.0000 3.4105 16.1100
v 8.0550 3.4105 13.9517
v 8.0550 3.4105 13.9517
v 0.0000 3.4105 16.1100
v 0.0000 3.4105 15.8900
v 7.9450 3.4105 13.7611
v 7.9450 3.4105 13.7611
v 0.0000 3.4105 15.8900
v 0.0000 3.2200 15.7800
v 7.8900 3.2200 13.6659
v 7.8900 3.2200 13.6659
v 0.0000 3.2200 15.7800
v 0.0000 3.0295 15.8900
v 7.9450 3.0295 13.7611
v 7.9450 3.0295 13.7611
v 0.0000 3.0295 15.8900
v 0.0000 3.0295 16.1100
v 8.0550 3.0295 13.9517
v 8.0550 3.0295 13.9517
v 0.0000 3.0295 16.1100
v 0.0000 3.2200 16.2200
v 8.1100 3.2200 14.0469
v 0.0000 3.2200 16.2200
v -8.1100 3.2200 14.0469
v -8.0550 3.4105 13.9517
v 0.0000 3.4105 16.1100
v 0.0000 3.4105 16.1100
v -8.0550 3.4105 13.9517
v -7.9450 3.4105 13.7611
v 0.0000 3.4105 15.8900
v 0.0000 3.4105 15.8900
v -7.9450 3.4105 13.7611
v -7.8900 3.2200 13.6659
v 0.0000 3.2200 15.7800
v 0.0000 3.2200 15.7800
v -7.8900 3.2200 13.6659
v -7.9450 3.0295 13.7611
v 0.0000 3.0295 15.8900
v 0.0000 3.0295 15.8900
v -7.9450 3.0295 13.7611
v -8.0550 3.0295 13.9517
v 0.0000 3.0295 16.1100
v 0.0000 3.0295 16.1100
v -8.0550 3.0295 13.9517
v -8.1100 3.2200 14.0469
v 0.0000 3.2200 16.2200
v -8.1100 3.2200 14.0469
v -14.0469 3.2200 8.1100
v -13.9517 3.4105 8.0550
v -8.0550 3.4105 13.9517
v -8.0550 3.4105 13.9517
v -13.9517 3.4105 8.0550
v -13.7611 3.4105 7.9450
v -7.9450 3.4105 13.7611
v -7.9450 3.4105 13.7611
v -13.7611 3.4105 7.9450
v -13.6659 3.2200 7.8900
v -7.8900 3.2200 13.6659
v -7.8900 3.2200 13.6659
v -13.6659 3.2200 7.8900
v -13.7611 3.0295 7.9450
v -7.9450 3.0295 13.7611
v -7.9450 3.0295 13.7611
v -13.7611 3.0295 7.9450
v -13.9517 3.0295 8.0550
v -8.0550 3.0295 13.9517
v -8.0550 3.0295 13.9517
v -13.9517 3.0295 8.0550
v -14.0469 3.2200 8.1100
v -8.1100 3.2200 14.0469
v -14.0469 3.2200 8.1100
v -16.2200 3.2200 0.0000
v -16.1100 3.4105 0.0000
v -13.9517 3.4105 8.0550
v -13.9517 3.4105 8.0550
v -16.1100 3.4105 0.0000
v -15.8900 3.4105 0.0000
v -13.7611 3.4105 7.9450
v -13.7611 3.4105 7.9450
v -15.8900 3.4105 0.0000
v -15.7800 3.2200 0.0000
v -13.6659 3.2200 7.8900
v -13.6659 3.2200 7.8900
v -15.7800 3.2200 0.0000
v -15.8900 3.0295 0.0000
v -13.7611 3.0295 7.9450
v -13.7611 3.0295 7.9450
v -15.8900 3.0295 0.0000
v -16.1100 3.0295 0.0000
v -13.9517 3.0295 8.0550
v -13.9517 3.0295 8.0550
v -16.1100 3.0295 0.0000
v -16.2200 3.2200 0.0000
v -14.0469 3.2200 8.1100
v -16.2200 3.2200 0.0000
v -14.0469 3.2200 -8.1100
v -13.9517 3.4105 -8.0550
v -16.1100 3.4105 0.0000
v -16.1100 3.4105 0.0000
v -13.9517 3.4105 -8.0550
v -13.7611 3.4105 -7.9450
v -15.8900 3.4105 0.0000
v -15.8900 3.4105 0.0000
v -13.7611 3.4105 -7.9450
v -13.6659 3.2200 -7.8900
v -15.7800 3.2200 0.0000
v -15.7800 3.2200 0.0000
v -13.6659 3.2200 -7.8900
v -13.7611 3.0295 -7.9450
v -15.8900 3.0295 0.0000
v -15.8900 3.0295 0.0000
v -13.7611 3.0295 -7.9450
v -13.9517 3.0295 -8.0550
v -16.1100 3.0295 0.0000
v -16.1100 3.0295 0.0000
v -13.9517 3.0295 -8.0550
v -14.0469 3.2200 -8.1100
v -16.2200 3.2200 0.0000
v -14.0469 3.2200 -8.1100
v -8.1100 3.2200 -14.0469
v -8.0550 3.4105 -13.9517
v -13.9517 3.4105 -8.0550
v -13.9517 3.4105 -8.0550
v -8.0550 3.4105 -13.9517
v -7.9450 3.4105 -13.7611
v -13.7611 3.4105 -7.9450
v -13.7611 3.4105 -7.9450
v -7.9450 3.4105 -13.7611
v -7.8900 3.2200 -13.6659
v -13.6659 3.2200 -7.8900
v -13.6659 3.2200 -7.8900
v -7.8900 3.2200 -13.6659
v -7.9450 3.0295 -13.7611
v -13.7611 3.0295 -7.9450
v -13.7611 3.0295 -7.9450
v -7.9450 3.0295 -13.7611
v -8.0550 3.0295 -13.9517
v -13.9517 3.0295 -8.0550
v -13.9517 3.0295 -8.0550
v -8.0550 3.0295 -13.9517
v -8.1100 3.2200 -14.0469
v -14.0469 3.2200 -8.1100
v -8.1100 3.2200 -14.0469
v -0.0000 3.2200 -16.2200
v -0.0000 3.4105 -16.1100
v -8.0550 3.4105 -13.9517
v -8.0550 3.4105 -13.9517
v -0.0000 3.4105 -16.1100
v -0.0000 3.4105 -15.8900
v -7.9450 3.4105 -13.7611
v -7.9450 3.4105 -13.7611
v -0.0000 3.4105 -15.8900
v -0.0000 3.2200 -15.7800
v -7.8900 3.2200 -13.6659
v -7.8900 3.2200 -13.6659
v -0.0000 3.2200 -15.7800
v -0.0000 3.0295 -15.8900
v -7.9450 3.0295 -13.7611
v -7.9450 3.0295 -13.7611
v -0.0000 3.0295 -15.8900
v -0.0000 3.0295 -16.1100
v -8.0550 3.0295 -13.9517
v -8.0550 3.0295 -13.9517
v -0.0000 3.0295 -16.1100
v -0.0000 3.2200 -16.2200
v -8.1100 3.2200 -14.0469
v -0.0000 3.2200 -16.2200
v 8.1100 3.2200 -14.0469
v 8.0550 3.4105 -13.9517
v -0.0000 3.4105 -16.1100
v -0.0000 3.4105 -16.1100
v 8.0550 3.4105 -13.9517
v 7.9450 3.4105 -13.7611
v -0.0000 3.4105 -15.8900
v -0.0000 3.4105 -15.8900
v 7.9450 3.4105 -13.7611
v 7.8900 3.2200 -13.6659
v -0.0000 3.2200 -15.7800
v -0.0000 3.2200 -15.7800
v 7.8900 3.2200 -13.6659
v 7.9450 3.0295 -13.7611
v -0.0000 3.0295 -15.8900
v -0.0000 3.0295 -15.8900
v 7.9450 3.0295 -13.7611
v 8.0550 3.0295 -13.9517
v -0.0000 3.0295 -16.1100
v -0.0000 3.0295 -16.1100
v 8.0550 3.0295 -13.9517
v 8.1100 3.2200 -14.0469
v -0.0000 3.2200 -16.2200
v 8.1100 3.2200 -14.0469
v 14.0469 3.2200 -8.1100
v 13.9517 3.4105 -8.0550
v 8.0550 3.4105 -13.9517
v 8.0550 3.4105 -13.9517
v 13.9517 3.4105 -8.0550
v 13.7611 3.4105 -7.9450
v 7.9450 3.4105 -13.7611
v 7.9450 3.4105 -13.7611
v 13.7611 3.4105 -7.9450
v 13.6659 3.2200 -7.8900
v 7.8900 3.2200 -13.6659
v 7.8900 3.2200 -13.6659
v 13.6659 3.2200 -7.8900
v 13.7611 3.0295 -7.9450
v 7.9450 3.0295 -13.7611
v 7.9450 3.0295 -13.7611
v 13.7611 3.0295 -7.9450
v 13.9517 3.0295 -8.0550
v 8.0550 3.0295 -13.9517
v 8.0550 3.0295 -13.9517
v 13.9517 3.0295 -8.0550
v 14.0469 3.2200 -8.1100
v 8.1100 3.2200 -14.0469
v 14.0469 3.2200 -8.1100
v 16.2200 3.2200 -0.0000
v 16.1100 3.4105 -0.0000
v 13.9517 3.4105 -8.0550
v 13.9517 3.4105 -8.0550
v 16.1100 3.4105 -0.0000
v 15.8900 3.4105 -0.0000
v 13.7611 3.4105 -7.9450
v 13.7611 3.4105 -7.9450
v 15.8900 3.4105 -0.0000
v 15.7800 3.2200 -0.0000
v 13.6659 3.2200 -7.8900
v 13.6659 3.2200 -7.8900
v 15.7800 3.2200 -0.0000
v 15.8900 3.0295 -0.0000
v 13.7611 3.0295 -7.9450
v 13.7611 3.0295 -7.9450
v 15.8900 3.0295 -0.0000
v 16.1100 3.0295 -0.0000
v 13.9517 3.0295 -8.0550
v 13.9517 3.0295 -8.0550
v 16.1100 3.0295 -0.0000
v 16.2200 3.2200 -0.0000
v 14.0469 3.2200 -8.1100
v 24.2200 3.2200 0.0000
v 20.9751 3.2200 12.1100
v 20.8799 3.4105 12.0550
v 24.1100 3.4105 0.0000
v 24.1100 3.4105 0.0000
v 20.8799 3.4105 12.0550
v 20.6893 3.4105 11.9450
v 23.8900 3.4105 0.0000
v 23.8900 3.4105 0.0000
v 20.6893 3.4105 11.9450
v 20.5941 3.2200 11.8900
v 23.7800 3.2200 0.0000
v 23.7800 3.2200 0.0000
v 20.5941 3.2200 11.8900
v 20.6893 3.0295 11.9450
v 23.8900 3.0295 0.0000
v 23.8900 3.0295 0.0000
v 20.6893 3.0295 11.9450
v 20.8799 3.0295 12.0550
v 24.1100 3.0295 0.0000
v 24.1100 3.0295 0.0000
v 20.8799 3.0295 12.0550
v 20.9751 3.2200 12.1100
v 24.2200 3.2200 0.0000
v 20.9751 3.2200 12.1100
v 12.1100 3.2200 20.9751
v 12.0550 3.4105 20.8799
v 20.8799 3.4105 12.0550
v 20.8799 3.4105 12.0550
v 12.0550 3.4105 20.8799
v 11.9450 3.4105 20.6893
v 20.6893 3.4105 11.9450
v 20.6893 3.4105 11.9450
v 11.9450 3.4105 20.6893
v 11.8900 3.2200 20.5941
v 20.5941 3.2200 11.8900
v 20.5941 3.2200 11.8900
v 11.8900 3.2200 20.5941
v 11.9450 3.0295 20.6893
v 20.6893 3.0295 11.9450
v 20.6893 3.0295 11.9450
v 11.9450 3.0295 20.6893
v 12.0550 3.0295 20.8799
v 20.8799 3.0295 12.0550
v 20.8799 3.0295 12.0550
v 12.0550 3.0295 20.8799
v 12.1100 3.2200 20.9751
v 20.9751 3.2200 12.1100
v 12.1100 3.2200 20.9751
v 0.0000 3.2200 24.2200
v 0.0000 3.4105 24.1100
v 12.0550 3.4105 20.8799
v 12.0550 3.4105 20.8799
v 0.0000 3.4105 24.1100
v 0.0000 3.4105 23.8900
v 11.9450 3.4105 20.6893
v 11.9450 3.4105 20.6893
v 0.0000 3.4105 23.8900
v 0.0000 3.2200 23.7800
v 11.8900 3.2200 20.5941
v 11.8900 3.2200 20.5941
v 0.0000 3.2200 23.7800
v 0.0000 3.0295 23.8900
v 11.9450 3.0295 20.6893
v 11.9450 3.0295 20.6893
v 0.0000 3.0295 23.8900
v 0.0000 3.0295 24.1100
v 12.0550 3.0295 20.8799
v 12.0550 3.0295 20.8799
v 0.0000 3.0295 24.1100
v 0.0000 3.2200 24.2200
v 12.1100 3.2200 20.9751
v 0.0000 3.2200 24.2200
v -12.1100 3.2200 20.9751
v -12.0550 3.4105 20.8799
v 0.0000 3.4105 24.1100
v 0.0000 3.4105 24.1100
v -12.0550 3.4105 20.8799
v -11.9450 3.4105 20.6893
v 0.0000 3.4105 23.8900
v 0.0000 3.4105 23.8900
v -11.9450 3.4105 20.6893
v -11.8900 3.2200 20.5941
v 0.0000 3.2200 23.7800
v 0.0000 3.2200 23.7800
v -11.8900 3.2200 20.5941
v -11.9450 3.0295 20.6893
v 0.0000 3.0295 23.8900
v 0.0000 3.0295 23.8900
v -11.9450 3.0295 20.6893
v -12.0550 3.0295 20.8799
v 0.0000 3.0295 24.1100
v 0.0000 3.0295 24.1100
v -12.0550 3.0295 20.8799
v -12.1100 3.2200 20.9751
v 0.0000 3.2200 24.2200
v -12.1100 3.2200 20.9751
v -20.9751 3.2200 12.1100
v -20.8799 3.4105 12.0550
v -12.0550 3.4105 20.8799
v -12.0550 3.4105 20.8799
v -20.8799 3.4105 12.0550
v -20.6893 3.4105 11.9450
v -11.9450 3.4105 20.6893
v -11.9450 3.4105 20.6893
v -20.6893 3.4105 11.9450
v -20.5941 3.2200 11.8900
v -11.8900 3.2200 20.5941
v -11.8900 3.2200 20.5941
v -20.5941 3.2200 11.8900
v -20.6893 3.0295 11.9450
v -11.9450 3.0295 20.6893
v -11.9450 3.0295 20.6893
v -20.6893 3.0295 11.9450
v -20.8799 3.0295 12.0550
v -12.0550 3.0295 20.8799
v -12.0550 3.0295 20.8799
v -20.8799 3.0295 12.0550
v -20.9751 3.2200 12.1100
v -12.1100 3.2200 20.9751
v -20.9751 3.2200 12.1100
v -24.2200 3.2200 0.0000
v -24.1100 3.4105 0.0000
v -20.8799 3.4105 12.0550
v -20.8799 3.4105 12.0550
v -24.1100 3.4105 0.0000
v -23.8900 3.4105 0.0000
v -20.6893 3.4105 11.9450
v -20.6893 3.4105 11.9450
v -23.8900 3.4105 0.0000
v -23.7800 3.2200 0.0000
v -20.5941 3.2200 11.8900
v -20.5941 3.2200 11.8900
v -23.7800 3.2200 0.0000
v -23.8900 3.0295 0.0000
v -20.6893 3.0295 11.9450
v -20.6893 3.0295 11.9450
v -23.8900 3.0295 0.0000
v -24.1100 3.0295 0.0000
v -20.8799 3.0295 12.0550
v -20.8799 3.0295 12.0550
v -24.1100 3.0295 0.0000
v -24.2200 3.2200 0.0000
v -20.9751 3.2200 12.1100
v -24.2200 3.2200 0.0000
v -20.9751 3.2200 -12.1100
v -20.8799 3.4105 -12.0550
v -24.1100 3.4105 0.0000
v -24.1100 3.4105 0.0000
v -20.8799 3.4105 -12.0550
v -20.6893 3.4105 -11.9450
v -23.8900 3.4105 0.0000
v -23.8900 3.4105 0.0000
v -20.6893 3.4105 -11.9450
v -20.5941 3.2200 -11.8900
v -23.7800 3.2200 0.0000
v -23.7800 3.2200 0.0000
v -20.5941 3.2200 -11.8900
v -20.6893 3.0295 -11.9450
v -23.8900 3.0295 0.0000
v -23.8900 3.0295 0.0000
v -20.6893 3.0295 -11.9450
v -20.8799 3.0295 -12.0550
v -24.1100 3.0295 0.0000
v -24.1100 3.0295 0.0000
v -20.8799 3.0295 -12.0550
v -20.9751 3.2200 -12.1100
v -24.2200 3.2200 0.0000
v -20.9751 3.2200 -12.1100
v -12.1100 3.2200 -20.9751
v -12.0550 3.4105 -20.8799
v -20.8799 3.4105 -12.0550
v -20.8799 3.4105 -12.0550
v -12.0550 3.4105 -20.8799
v -11.9450 3.4105 -20.6893
v -20.6893 3.4105 -11.9450
v -20.6893 3.4105 -11.9450
v -11.9450 3.4105 -20.6893
v -11.8900 3.2200 -20.5941
v -20.5941 3.2200 -11.8900
v -20.5941 3.2200 -11.8900
v -11.8900 3.2200 -20.5941
v -11.9450 3.0295 -20.6893
v -20.6893 3.0295 -11.9450
v -20.6893 3.0295 -11.9450
v -11.9450 3.0295 -20.6893
v -12.0550 3.0295 -20.8799
v -20.8799 3.0295 -12.0550
v -20.8799 3.0295 -12.0550
v -12.0550 3.0295 -20.8799
v -12.1100 3.2200 -20.9751
v -20.9751 3.2200 -12.1100
v -12.1100 3.2200 -20.9751
v -0.0000 3.2200 -24.2200
v -0.0000 3.4105 -24.1100
v -12.0550 3.4105 -20.8799
v -12.0550 3.4105 -20.8799
v -0.0000 3.4105 -24.1100
v -0.0000 3.4105 -23.8900
v -11.9450 3.4105 -20.6893
v -11.9450 3.4105 -20.6893
v -0.0000 3.4105 -23.8900
v -0.0000 3.2200 -23.7800
v -11.8900 3.2200 -20.5941
v -11.8900 3.2200 -20.5941
v -0.0000 3.2200 -23.7800
v -0.0000 3.0295 -23.8900
v -11.9450 3.0295 -20.6893
v -11.9450 3.0295 -20.6893
v -0.0000 3.0295 -23.8900
v -0.0000 3.0295 -24.1100
v -12.0550 3.0295 -20.8799
v -12.0550 3.0295 -20.8799
v -0.0000 3.0295 -24.1100
v -0.0000 3.2200 -24.2200
v -12.1100 3.2200 -20.9751
v -0.0000 3.2200 -24.2200
v 12.1100 3.2200 -20.9751
v 12.0550 3.4105 -20.8799
v -0.0000 3.4105 -24.1100
v -0.0000 3.4105 -24.1100
v 12.0550 3.4105 -20.8799
v 11.9450 3.4105 -20.6893
v -0.0000 3.4105 -23.8900
v -0.0000 3.4105 -23.8900
v 11.9450 3.4105 -20.6893
v 11.8900 3.2200 -20.5941
v -0.0000 3.2200 -23.7800
v -0.0000 3.2200 -23.7800
v 11.8900 3.2200 -20.5941
v 11.9450 3.0295 -20.6893
v -0.0000 3.0295 -23.8900
v -0.0000 3.0295 -23.8900
v 11.9450 3.0295 -20.6893
v 12.0550 3.0295 -20.8799
v -0.0000 3.0295 -24.1100
v -0.0000 3.0295 -24.1100
v 12.0550 3.0295 -20.8799
v 12.1100 3.2200 -20.9751
v -0.0000 3.2200 -24.2200
v 12.1100 3.2200 -20.9751
v 20.9751 3.2200 -12.1100
v 20.8799 3.4105 -12.0550
v 12.0550 3.4105 -20.8799
v 12.0550 3.4105 -20.8799
v 20.8799 3.4105 -12.0550
v 20.6893 3.4105 -11.9450
v 11.9450 3.4105 -20.6893
v 11.9450 3.4105 -20.6893
v 20.6893 3.4105 -11.9450
v 20.5941 3.2200 -11.8900
v 11.8900 3.2200 -20.5941
v 11.8900 3.2200 -20.5941
v 20.5941 3.2200 -11.8900
v 20.6893 3.0295 -11.9450
v 11.9450 3.0295 -20.6893
v 11.9450 3.0295 -20.6893
v 20.6893 3.0295 -11.9450
v 20.8799 3.0295 -12.0550
v 12.0550 3.0295 -20.8799
v 12.0550 3.0295 -20.8799
v 20.8799 3.0295 -12.0550
v 20.9751 3.2200 -12.1100
v 12.1100 3.2200 -20.9751
v 20.9751 3.2200 -12.1100
v 24.2200 3.2200 -0.0000
v 24.1100 3.4105 -0.0000
v 20.8799 3.4105 -12.0550
v 20.8799 3.4105 -12.0550
v 24.1100 3.4105 -0.0000
v 23.8900 3.4105 -0.0000
v 20.6893 3.4105 -11.9450
v 20.6893 3.4105 -11.9450
v 23.8900 3.4105 -0.0000
v 23.7800 3.2200 -0.0000
v 20.5941 3.2200 -11.8900
v 20.5941 3.2200 -11.8900
v 23.7800 3.2200 -0.0000
v 23.8900 3.0295 -0.0000
v 20.6893 3.0295 -11.9450
v 20.6893 3.0295 -11.9450
v 23.8900 3.0295 -0.0000
v 24.1100 3.0295 -0.0000
v 20.8799 3.0295 -12.0550
v 20.8799 3.0295 -12.0550
v 24.1100 3.0295 -0.0000
v 24.2200 3.2200 -0.0000
v 20.9751 3.2200 -12.1100
vt 0.500000 0.500000
vt 0.750000 0.500000
vt 0.750000 1.000000
vt 0.500000 1.000000
vt 0.500000 0.500000
vt 0.750000 0.500000
vt 0.750000 1.000000
vt 0.500000 1.000000
vt 0.500000 0.500000
vt 0.750000 0.500000
vt 0.750000 1.000000
vt 0.500000 1.000000
vt 0.500000 0.500000
vt 0.750000 0.500000
vt 0.750000 1.000000
vt 0.500000 1.000000
vt 0.500000 0.500000
vt 0.750000 0.500000
vt 0.750000 1.000000
vt 0.500000 1.000000
vt 0.500000 0.500000
vt 0.750000 0.500000
vt 0.750000 1.000000
vt 0.500000 1.000000
vt 0.500000 0.500000
vt 0.750000 0.500000
vt 0.750000 1.000000
vt 0.500000 1.000000
vt 0.500000 0.500000
vt 0.750000 0.500000
vt 0.750000 1.000000
vt 0.500000 1.000000
vt 0.500000 0.500000
vt 0.750000 0.500000
vt 0.750000 1.000000
vt 0.500000 0.500000
vt 0.750000 0.500000
vt 0.750000 1.000000
vt 0.500000 0.500000
vt 0.750000 0.500000
vt 0.750000 1.000000
vt 0.500000 0.500000
vt 0.750000 0.500000
vt 0.750000 1.000000
vt 0.500000 0.500000
vt 0.750000 0.500000
vt 0.750000 1.000000
vt 0.500000 0.500000
vt 0.750000 0.500000
vt 0.750000 1.000000
vt 0.500000 0.500000
vt 0.750000 0.500000
vt 0.750000 1.000000
vt 0.500000 0.500000
vt 0.750000 0.500000
vt 0.750000 1.000000
vt 0.500000 0.500000
vt 0.750000 0.500000
vt 0.750000 1.000000
vt 0.500000 0.500000
vt 0.750000 0.500000
vt 0.750000 1.000000
vt 0.500000 0.500000
vt 0.750000 0.500000
vt 0.750000 1.000000
vt 0.500000 0.500000
vt 0.750000 0.500000
vt 0.750000 1.000000
vt 0.500000 0.500000
vt 0.750000 0.500000
vt 0.750000 1.000000
vt 0.500000 1.000000
vt 0.500000 0.500000
vt 0.750000 0.500000
vt 0.750000 1.000000
vt 0.500000 1.000000
vt 0.500000 0.500000
vt 0.750000 0.500000
vt 0.750000 1.000000
vt 0.500000 1.000000
vt 0.500000 0.500000
vt 0.750000 0.500000
vt 0.750000 1.000000
vt 0.500000 1.000000
vt 0.500000 0.500000
vt 0.750000 0.500000
vt 0.750000 1.000000
vt 0.500000 1.000000
vt 0.500000 0.500000
vt 0.750000 0.500000
vt 0.750000 1.000000
vt 0.500000 1.000000
vt 0.500000 0.500000
vt 0.750000 0.500000
vt 0.750000 1.000000
vt 0.500000 1.000000
vt 0.500000 0.500000
vt 0.750000 0.500000
vt 0.750000 1.000000
vt 0.500000 1.000000
vt 0.500000 0.500000
vt 0.750000 0.500000
vt 0.750000 1.000000
vt 0.500000 0.500000
vt 0.750000 0.500000
vt 0.750000 1.000000
vt 0.500000 0.500000
vt 0.750000 0.500000
vt 0.750000 1.000000
vt 0.500000 0.500000
vt 0.750000 0.500000
vt 0.750000 1.000000
vt 0.500000 0.500000
vt 0.750000 0.500000
vt 0.750000 1.000000
vt 0.500000 0.500000
vt 0.750000 0.500000
vt 0.750000 1.000000
vt 0.500000 0.500000
vt 0.750000 0.500000
vt 0.750000 1.000000
vt 0.500000 0.500000
vt 0.750000 0.500000
vt 0.750000 1.000000
vt 0.500000 0.500000
vt 0.750000 0.500000
vt 0.750000 1.000000
vt 0.500000 0.500000
vt 0.750000 0.500000
vt 0.750000 1.000000
vt 0.500000 0.500000
vt 0.750000 0.500000
vt 0.750000 1.000000
vt 0.500000 0.500000
vt 0.750000 0.500000
vt 0.750000 1.000000
vt 0.500000 0.500000
vt 0.750000 0.500000
vt 0.750000 1.000000
vt 0.500000 1.000000
vt 0.500000 0.500000
vt 0.750000 0.500000
vt 0.750000 1.000000
vt 0.500000 1.000000
vt 0.500000 0.500000
vt 0.750000 0.500000
vt 0.750000 1.000000
vt 0.500000 1.000000
vt 0.500000 0.500000
vt 0.750000 0.500000
vt 0.750000 1.000000
vt 0.500000 1.000000
vt 0.500000 0.500000
vt 0.750000 0.500000
vt 0.750000 1.000000
vt 0.500000 1.000000
vt 0.500000 0.500000
vt 0.750000 0.500000
vt 0.750000 1.000000
vt 0.500000 1.000000
vt 0.500000 0.500000
vt 0.750000 0.500000
vt 0.750000 1.000000
vt 0.500000 1.000000
vt 0.500000 0.500000
vt 0.750000 0.500000
vt 0.750000 1.000000
vt 0.500000 1.000000
vt 0.500000 0.500000
vt 0.750000 0.500000
vt 0.750000 1.000000
vt 0.500000 0.500000
vt 0.750000 0.500000
vt 0.750000 1.000000
vt 0.500000 0.500000
vt 0.750000 0.500000
vt 0.750000 1.000000
vt 0.500000 0.500000
vt 0.750000 0.500000
vt 0.750000 1.000000
vt 0.500000 0.500000
vt 0.750000 0.500000
vt 0.750000 1.000000
vt 0.500000 0.500000
vt 0.750000 0.500000
vt 0.750000 1.000000
vt 0.500000 0.500000
vt 0.750000 0.500000
vt 0.750000 1.000000
vt 0.500000 0.500000
vt 0.750000 0.500000
vt 0.750000 1.000000
vt 0.500000 0.500000
vt 0.750000 0.500000
vt 0.750000 1.000000
vt 0.500000 0.500000
vt 0.750000 0.500000
vt 0.750000 1.000000
vt 0.500000 0.500000
vt 0.750000 0.500000
vt 0.750000 1.000000
vt 0.500000 0.500000
vt 0.750000 0.500000
vt 0.750000 1.000000
vt 0.500000 0.500000
vt 0.750000 0.500000
vt 0.750000 1.000000
vt 0.500000 1.000000
vt 0.500000 0.500000
vt 0.750000 0.500000
vt 0.750000 1.000000
vt 0.500000 1.000000
vt 0.500000 0.500000
vt 0.750000 0.500000
vt 0.750000 1.000000
vt 0.500000 1.000000
vt 0.500000 0.500000
vt 0.750000 0.500000
vt 0.750000 1.000000
vt 0.500000 1.000000
vt 0.500000 0.500000
vt 0.750000 0.500000
vt 0.750000 1.000000
vt 0.500000 1.000000
vt 0.500000 0.500000
vt 0.750000 0.500000
vt 0.750000 1.000000
vt 0.500000 1.000000
vt 0.500000 0.500000
vt 0.750000 0.500000
vt 0.750000 1.000000
vt 0.500000 1.000000
vt 0.500000 0.500000
vt 0.750000 0.500000
vt 0.750000 1.000000
vt 0.500000 1.000000
vt 0.500000 0.500000
vt 0.750000 0.500000
vt 0.750000 1.000000
vt 0.500000 0.500000
vt 0.750000 0.500000
vt 0.750000 1.000000
vt 0.500000 0.500000
vt 0.750000 0.500000
vt 0.750000 1.000000
vt 0.500000 0.500000
vt 0.750000 0.500000
vt 0.750000 1.000000
vt 0.500000 0.500000
vt 0.750000 0.500000
vt 0.750000 1.000000
vt 0.500000 0.500000
vt 0.750000 0.500000
vt 0.750000 1.000000
vt 0.500000 0.500000
vt 0.750000 0.500000
vt 0.750000 1.000000
vt 0.500000 0.500000
vt 0.750000 0.500000
vt 0.750000 1.000000
vt 0.500000 0.500000
vt 0.750000 0.500000
vt 0.750000 1.000000
vt 0.500000 0.500000
vt 0.750000 0.500000
vt 0.750000 1.000000
vt 0.500000 0.500000
vt 0.750000 0.500000
vt 0.750000 1.000000
vt 0.500000 0.500000
vt 0.750000 0.500000
vt 0.750000 1.000000
vt 0.500000 0.500000
vt 0.750000 0.500000
vt 0.750000 1.000000
vt 0.500000 1.000000
vt 0.500000 0.500000
vt 0.750000 0.500000
vt 0.750000 1.000000
vt 0.500000 1.000000
vt 0.500000 0.500000
vt 0.750000 0.500000
vt 0.750000 1.000000
vt 0.500000 1.000000
vt 0.500000 0.500000
vt 0.750000 0.500000
vt 0.750000 1.000000
vt 0.500000 1.000000
vt 0.500000 0.500000
vt 0.750000 0.500000
vt 0.750000 1.000000
vt 0.500000 1.000000
vt 0.500000 0.500000
vt 0.750000 0.500000
vt 0.750000 1.000000
vt 0.500000 1.000000
vt 0.500000 0.500000
vt 0.750000 0.500000
vt 0.750000 1.000000
vt 0.500000 1.000000
vt 0.500000 0.500000
vt 0.750000 0.500000
vt 0.750000 1.000000
vt 0.500000 1.000000
vt 0.500000 0.500000
vt 0.750000 0.500000
vt 0.750000 1.000000
vt 0.500000 0.500000
vt 0.750000 0.500000
vt 0.750000 1.000000
vt 0.500000 0.500000
vt 0.750000 0.500000
vt 0.750000 1.000000
vt 0.500000 0.500000
vt 0.750000 0.500000
vt 0.750000 1.000000
vt 0.500000 0.500000
vt 0.750000 0.500000
vt 0.750000 1.000000
vt 0.500000 0.500000
vt 0.750000 0.500000
vt 0.750000 1.000000
vt 0.500000 0.500000
vt 0.750000 0.500000
vt 0.750000 1.000000
vt 0.500000 0.500000
vt 0.750000 0.500000
vt 0.750000 1.000000
vt 0.500000 0.500000
vt 0.750000 0.500000
vt 0.750000 1.000000
vt 0.500000 0.500000
vt 0.750000 0.500000
vt 0.750000 1.000000
vt 0.500000 0.500000
vt 0.750000 0.500000
vt 0.750000 1.000000
vt 0.500000 0.500000
vt 0.750000 0.500000
vt 0.750000 1.000000
vt 0.500000 0.500000
vt 0.750000 0.500000
vt 0.750000 1.000000
vt 0.500000 1.000000
vt 0.500000 0.500000
vt 0.750000 0.500000
vt 0.750000 1.000000
vt 0.500000 1.000000
vt 0.500000 0.500000
vt 0.750000 0.500000
vt 0.750000 1.000000
vt 0.500000 1.000000
vt 0.500000 0.500000
vt 0.750000 0.500000
vt 0.750000 1.000000
vt 0.500000 1.000000
vt 0.500000 0.500000
vt 0.750000 0.500000
vt 0.750000 1.000000
vt 0.500000 1.000000
vt 0.500000 0.500000
vt 0.750000 0.500000
vt 0.750000 1.000000
vt 0.500000 1.000000
vt 0.500000 0.500000
vt 0.750000 0.500000
vt 0.750000 1.000000
vt 0.500000 1.000000
vt 0.500000 0.500000
vt 0.750000 0.500000
vt 0.750000 1.000000
vt 0.500000 1.000000
vt 0.500000 0.500000
vt 0.750000 0.500000
vt 0.750000 1.000000
vt 0.500000 0.500000
vt 0.750000 0.500000
vt 0.750000 1.000000
vt 0.500000 0.500000
vt 0.750000 0.500000
vt 0.750000 1.000000
vt 0.500000 0.500000
vt 0.750000 0.500000
vt 0.750000 1.000000
vt 0.500000 0.500000
vt 0.750000 0.500000
vt 0.750000 1.000000
vt 0.500000 0.500000
vt 0.750000 0.500000
vt 0.750000 1.000000
vt 0.500000 0.500000
vt 0.750000 0.500000
vt 0.750000 1.000000
vt 0.500000 0.500000
vt 0.750000 0.500000
vt 0.750000 1.000000
vt 0.500000 0.500000
vt 0.750000 0.500000
vt 0.750000 1.000000
vt 0.500000 0.500000
vt 0.750000 0.500000
vt 0.750000 1.000000
vt 0.500000 0.500000
vt 0.750000 0.500000
vt 0.750000 1.000000
vt 0.500000 0.500000
vt 0.750000 0.500000
vt 0.750000 1.000000
vt 0.500000 0.500000
vt 0.750000 0.500000
vt 0.750000 1.000000
vt 0.500000 1.000000
vt 0.500000 0.500000
vt 0.750000 0.500000
vt 0.750000 1.000000
vt 0.500000 1.000000
vt 0.500000 0.500000
vt 0.750000 0.500000
vt 0.750000 1.000000
vt 0.500000 1.000000
vt 0.500000 0.500000
vt 0.750000 0.500000
vt 0.750000 1.000000
vt 0.500000 1.000000
vt 0.500000 0.500000
vt 0.750000 0.500000
vt 0.750000 1.000000
vt 0.500000 1.000000
vt 0.500000 0.500000
vt 0.750000 0.500000
vt 0.750000 1.000000
vt 0.500000 1.000000
vt 0.500000 0.500000
vt 0.750000 0.500000
vt 0.750000 1.000000
vt 0.500000 1.000000
vt 0.500000 0.500000
vt 0.750000 0.500000
vt 0.750000 1.000000
vt 0.500000 1.000000
vt 0.500000 0.500000
vt 0.750000 0.500000
vt 0.750000 1.000000
vt 0.500000 0.500000
vt 0.750000 0.500000
vt 0.750000 1.000000
vt 0.500000 0.500000
vt 0.750000 0.500000
vt 0.750000 1.000000
vt 0.500000 0.500000
vt 0.750000 0.500000
vt 0.750000 1.000000
vt 0.500000 0.500000
vt 0.750000 0.500000
vt 0.750000 1.000000
vt 0.500000 0.500000
vt 0.750000 0.500000
vt 0.750000 1.000000
vt 0.500000 0.500000
vt 0.750000 0.500000
vt 0.750000 1.000000
vt 0.500000 0.500000
vt 0.750000 0.500000
vt 0.750000 1.000000
vt 0.500000 0.500000
vt 0.750000 0.500000
vt 0.750000 1.000000
vt 0.500000 0.500000
vt 0.750000 0.500000
vt 0.750000 1.000000
vt 0.500000 0.500000
vt 0.750000 0.500000
vt 0.750000 1.000000
vt 0.500000 0.500000
vt 0.750000 0.500000
vt 0.750000 1.000000
vt 0.500000 0.500000
vt 0.750000 0.500000
vt 0.750000 1.000000
vt 0.500000 1.000000
vt 0.500000 0.500000
vt 0.750000 0.500000
vt 0.750000 1.000000
vt 0.500000 1.000000
vt 0.500000 0.500000
vt 0.750000 0.500000
vt 0.750000 1.000000
vt 0.500000 1.000000
vt 0.500000 0.500000
vt 0.750000 0.500000
vt 0.750000 1.000000
vt 0.500000 1.000000
vt 0.500000 0.500000
vt 0.750000 0.500000
vt 0.750000 1.000000
vt 0.500000 1.000000
vt 0.500000 0.500000
vt 0.750000 0.500000
vt 0.750000 1.000000
vt 0.500000 1.000000
vt 0.500000 0.500000
vt 0.750000 0.500000
vt 0.750000 1.000000
vt 0.500000 1.000000
vt 0.500000 0.500000
vt 0.750000 0.500000
vt 0.750000 1.000000
vt 0.500000 1.000000
vt 0.500000 0.500000
vt 0.750000 0.500000
vt 0.750000 1.000000
vt 0.500000 0.500000
vt 0.750000 0.500000
vt 0.750000 1.000000
vt 0.500000 0.500000
vt 0.750000 0.500000
vt 0.750000 1.000000
vt 0.500000 0.500000
vt 0.750000 0.500000
vt 0.750000 1.000000
vt 0.500000 0.500000
vt 0.750000 0.500000
vt 0.750000 1.000000
vt 0.500000 0.500000
vt 0.750000 0.500000
vt 0.750000 1.000000
vt 0.500000 0.500000
vt 0.750000 0.500000
vt 0.750000 1.000000
vt 0.500000 0.500000
vt 0.750000 0.500000
vt 0.750000 1.000000
vt 0.500000 0.500000
vt 0.750000 0.500000
vt 0.750000 1.000000
vt 0.500000 0.500000
vt 0.750000 0.500000
vt 0.750000 1.000000
vt 0.500000 0.500000
vt 0.750000 0.500000
vt 0.750000 1.000000
vt 0.500000 0.500000
vt 0.750000 0.500000
vt 0.750000 1.000000
vt 0.500000 0.500000
vt 0.750000 0.500000
vt 0.750000 1.000000
vt 0.500000 1.000000
vt 0.500000 0.500000
vt 0.750000 0.500000
vt 0.750000 1.000000
vt 0.500000 1.000000
vt 0.500000 0.500000
vt 0.750000 0.500000
vt 0.750000 1.000000
vt 0.500000 1.000000
vt 0.500000 0.500000
vt 0.750000 0.500000
vt 0.750000 1.000000
vt 0.500000 1.000000
vt 0.500000 0.500000
vt 0.750000 0.500000
vt 0.750000 1.000000
vt 0.500000 1.000000
vt 0.500000 0.500000
vt 0.750000 0.500000
vt 0.750000 1.000000
vt 0.500000 1.000000
vt 0.500000 0.500000
vt 0.750000 0.500000
vt 0.750000 1.000000
vt 0.500000 1.000000
vt 0.500000 0.500000
vt 0.750000 0.500000
vt 0.750000 1.000000
vt 0.500000 1.000000
vt 0.500000 0.500000
vt 0.750000 0.500000
vt 0.750000 1.000000
vt 0.500000 0.500000
vt 0.750000 0.500000
vt 0.750000 1.000000
vt 0.500000 0.500000
vt 0.750000 0.500000
vt 0.750000 1.000000
vt 0.500000 0.500000
vt 0.750000 0.500000
vt 0.750000 1.000000
vt 0.500000 0.500000
vt 0.750000 0.500000
vt 0.750000 1.000000
vt 0.500000 0.500000
vt 0.750000 0.500000
vt 0.750000 1.000000
vt 0.500000 0.500000
vt 0.750000 0.500000
vt 0.750000 1.000000
vt 0.500000 0.500000
vt 0.750000 0.500000
vt 0.750000 1.000000
vt 0.500000 0.500000
vt 0.750000 0.500000
vt 0.750000 1.000000
vt 0.500000 0.500000
vt 0.750000 0.500000
vt 0.750000 1.000000
vt 0.500000 0.500000
vt 0.750000 0.500000
vt 0.750000 1.000000
vt 0.500000 0.500000
vt 0.750000 0.500000
vt 0.750000 1.000000
vt 0.500000 0.500000
vt 0.750000 0.500000
vt 0.750000 1.000000
vt 0.500000 1.000000
vt 0.500000 0.500000
vt 0.750000 0.500000
vt 0.750000 1.000000
vt 0.500000 1.000000
vt 0.500000 0.500000
vt 0.750000 0.500000
vt 0.750000 1.000000
vt 0.500000 1.000000
vt 0.500000 0.500000
vt 0.750000 0.500000
vt 0.750000 1.000000
vt 0.500000 1.000000
vt 0.500000 0.500000
vt 0.750000 0.500000
vt 0.750000 1.000000
vt 0.500000 1.000000
vt 0.500000 0.500000
vt 0.750000 0.500000
vt 0.750000 1.000000
vt 0.500000 1.000000
vt 0.500000 0.500000
vt 0.750000 0.500000
vt 0.750000 1.000000
vt 0.500000 1.000000
vt 0.500000 0.500000
vt 0.750000 0.500000
vt 0.750000 1.000000
vt 0.500000 1.000000
vt 0.500000 0.500000
vt 0.750000 0.500000
vt 0.750000 1.000000
vt 0.500000 0.500000
vt 0.750000 0.500000
vt 0.750000 1.000000
vt 0.500000 0.500000
vt 0.750000 0.500000
vt 0.750000 1.000000
vt 0.500000 0.500000
vt 0.750000 0.500000
vt 0.750000 1.000000
vt 0.500000 0.500000
vt 0.750000 0.500000
vt 0.750000 1.000000
vt 0.500000 0.500000
vt 0.750000 0.500000
vt 0.750000 1.000000
vt 0.500000 0.500000
vt 0.750000 0.500000
vt 0.750000 1.000000
vt 0.500000 0.500000
vt 0.750000 0.500000
vt 0.750000 1.000000
vt 0.500000 0.500000
vt 0.750000 0.500000
vt 0.750000 1.000000
vt 0.500000 0.500000
vt 0.750000 0.500000
vt 0.750000 1.000000
vt 0.500000 0.500000
vt 0.750000 0.500000
vt 0.750000 1.000000
vt 0.500000 0.500000
vt 0.750000 0.500000
vt 0.750000 1.000000
vt 0.500000 0.500000
vt 0.750000 0.500000
vt 0.750000 1.000000
vt 0.500000 1.000000
vt 0.500000 0.500000
vt 0.750000 0.500000
vt 0.750000 1.000000
vt 0.500000 1.000000
vt 0.500000 0.500000
vt 0.750000 0.500000
vt 0.750000 1.000000
vt 0.500000 1.000000
vt 0.500000 0.500000
vt 0.750000 0.500000
vt 0.750000 1.000000
vt 0.500000 1.000000
vt 0.500000 0.500000
vt 0.750000 0.500000
vt 0.750000 1.000000
vt 0.500000 1.000000
vt 0.500000 0.500000
vt 0.750000 0.500000
vt 0.750000 1.000000
vt 0.500000 1.000000
vt 0.500000 0.500000
vt 0.750000 0.500000
vt 0.750000 1.000000
vt 0.500000 1.000000
vt 0.500000 0.500000
vt 0.750000 0.500000
vt 0.750000 1.000000
vt 0.500000 1.000000
vt 0.500000 0.500000
vt 0.750000 0.500000
vt 0.750000 1.000000
vt 0.500000 0.500000
vt 0.750000 0.500000
vt 0.750000 1.000000
vt 0.500000 0.500000
vt 0.750000 0.500000
vt 0.750000 1.000000
vt 0.500000 0.500000
vt 0.750000 0.500000
vt 0.750000 1.000000
vt 0.500000 0.500000
vt 0.750000 0.500000
vt 0.750000 1.000000
vt 0.500000 0.500000
vt 0.750000 0.500000
vt 0.750000 1.000000
vt 0.500000 0.500000
vt 0.750000 0.500000
vt 0.750000 1.000000
vt 0.500000 0.500000
vt 0.750000 0.500000
vt 0.750000 1.000000
vt 0.500000 0.500000
vt 0.750000 0.500000
vt 0.750000 1.000000
vt 0.500000 0.500000
vt 0.750000 0.500000
vt 0.750000 1.000000
vt 0.500000 0.500000
vt 0.750000 0.500000
vt 0.750000 1.000000
vt 0.500000 0.500000
vt 0.750000 0.500000
vt 0.750000 1.000000
vt 0.500000 0.500000
vt 0.750000 0.500000
vt 0.750000 1.000000
vt 0.500000 1.000000
vt 0.500000 0.500000
vt 0.750000 0.500000
vt 0.750000 1.000000
vt 0.500000 1.000000
vt 0.500000 0.500000
vt 0.750000 0.500000
vt 0.750000 1.000000
vt 0.500000 1.000000
vt 0.500000 0.500000
vt 0.750000 0.500000
vt 0.750000 1.000000
vt 0.500000 1.000000
vt 0.500000 0.500000
vt 0.750000 0.500000
vt 0.750000 1.000000
vt 0.500000 1.000000
vt 0.500000 0.500000
vt 0.750000 0.500000
vt 0.750000 1.000000
vt 0.500000 1.000000
vt 0.500000 0.500000
vt 0.750000 0.500000
vt 0.750000 1.000000
vt 0.500000 1.000000
vt 0.500000 0.500000
vt 0.750000 0.500000
vt 0.750000 1.000000
vt 0.500000 1.000000
vt 0.500000 0.500000
vt 0.750000 0.500000
vt 0.750000 1.000000
vt 0.500000 0.500000
vt 0.750000 0.500000
vt 0.750000 1.000000
vt 0.500000 0.500000
vt 0.750000 0.500000
vt 0.750000 1.000000
vt 0.500000 0.500000
vt 0.750000 0.500000
vt 0.750000 1.000000
vt 0.500000 0.500000
vt 0.750000 0.500000
vt 0.750000 1.000000
vt 0.500000 0.500000
vt 0.750000 0.500000
vt 0.750000 1.000000
vt 0.500000 0.500000
vt 0.750000 0.500000
vt 0.750000 1.000000
vt 0.500000 0.500000
vt 0.750000 0.500000
vt 0.750000 1.000000
vt 0.500000 0.500000
vt 0.750000 0.500000
vt 0.750000 1.000000
vt 0.500000 0.500000
vt 0.750000 0.500000
vt 0.750000 1.000000
vt 0.500000 0.500000
vt 0.750000 0.500000
vt 0.750000 1.000000
vt 0.500000 0.500000
vt 0.750000 0.500000
vt 0.750000 1.000000
vt 0.500000 0.500000
vt 0.750000 0.500000
vt 0.750000 1.000000
vt 0.500000 1.000000
vt 0.500000 0.500000
vt 0.750000 0.500000
vt 0.750000 1.000000
vt 0.500000 1.000000
vt 0.500000 0.500000
vt 0.750000 0.500000
vt 0.750000 1.000000
vt 0.500000 1.000000
vt 0.500000 0.500000
vt 0.750000 0.500000
vt 0.750000 1.000000
vt 0.500000 1.000000
vt 0.500000 0.500000
vt 0.750000 0.500000
vt 0.750000 1.000000
vt 0.500000 1.000000
vt 0.500000 0.500000
vt 0.750000 0.500000
vt 0.750000 1.000000
vt 0.500000 1.000000
vt 0.500000 0.500000
vt 0.750000 0.500000
vt 0.750000 1.000000
vt 0.500000 1.000000
vt 0.500000 0.500000
vt 0.750000 0.500000
vt 0.750000 1.000000
vt 0.500000 1.000000
vt 0.500000 0.500000
vt 0.750000 0.500000
vt 0.750000 1.000000
vt 0.500000 1.000000
vt 0.500000 0.500000
vt 0.750000 0.500000
vt 0.750000 1.000000
vt 0.500000 1.000000
vt 0.500000 0.500000
vt 0.750000 0.500000
vt 0.750000 1.000000
vt 0.500000 1.000000
vt 0.500000 0.500000
vt 0.750000 0.500000
vt 0.750000 1.000000
vt 0.500000 1.000000
vt 0.500000 0.500000
vt 0.750000 0.500000
vt 0.750000 1.000000
vt 0.500000 1.000000
vt 0.500000 0.500000
vt 0.750000 0.500000
vt 0.750000 1.000000
vt 0.500000 1.000000
vt 0.500000 0.500000
vt 0.750000 0.500000
vt 0.750000 1.000000
vt 0.500000 1.000000
vt 0.500000 0.500000
vt 0.750000 0.500000
vt 0.750000 1.000000
vt 0.500000 1.000000
vt 0.500000 0.500000
vt 0.750000 0.500000
vt 0.750000 1.000000
vt 0.500000 1.000000
vt 0.500000 0.500000
vt 0.750000 0.500000
vt 0.750000 1.000000
vt 0.500000 1.000000
vt 0.500000 0.500000
vt 0.750000 0.500000
vt 0.750000 1.000000
vt 0.500000 1.000000
vt 0.500000 0.500000
vt 0.750000 0.500000
vt 0.750000 1.000000
vt 0.500000 1.000000
vt 0.500000 0.500000
vt 0.750000 0.500000
vt 0.750000 1.000000
vt 0.500000 1.000000
vt 0.500000 0.500000
vt 0.750000 0.500000
vt 0.750000 1.000000
vt 0.500000 1.000000
vt 0.500000 0.500000
vt 0.750000 0.500000
vt 0.750000 1.000000
vt 0.500000 1.000000
vt 0.500000 0.500000
vt 0.750000 0.500000
vt 0.750000 1.000000
vt 0.500000 1.000000
vt 0.500000 0.500000
vt 0.750000 0.500000
vt 0.750000 1.000000
vt 0.500000 1.000000
vt 0.500000 0.500000
vt 0.750000 0.500000
vt 0.750000 1.000000
vt 0.500000 1.000000
vt 0.500000 0.500000
vt 0.750000 0.500000
vt 0.750000 1.000000
vt 0.500000 1.000000
vt 0.500000 0.500000
vt 0.750000 0.500000
vt 0.750000 1.000000
vt 0.500000 1.000000
vt 0.500000 0.500000
vt 0.750000 0.500000
vt 0.750000 1.000000
vt 0.500000 1.000000
vt 0.500000 0.500000
vt 0.750000 0.500000
vt 0.750000 1.000000
vt 0.500000 1.000000
vt 0.500000 0.500000
vt 0.750000 0.500000
vt 0.750000 1.000000
vt 0.500000 1.000000
vt 0.500000 0.500000
vt 0.750000 0.500000
vt 0.750000 1.000000
vt 0.500000 1.000000
vt 0.500000 0.500000
vt 0.750000 0.500000
vt 0.750000 1.000000
vt 0.500000 1.000000
vt 0.500000 0.500000
vt 0.750000 0.500000
vt 0.750000 1.000000
vt 0.500000 1.000000
vt 0.500000 0.500000
vt 0.750000 0.500000
vt 0.750000 1.000000
vt 0.500000 1.000000
vt 0.500000 0.500000
vt 0.750000 0.500000
vt 0.750000 1.000000
vt 0.500000 1.000000
vt 0.500000 0.500000
vt 0.750000 0.500000
vt 0.750000 1.000000
vt 0.500000 1.000000
vt 0.500000 0.500000
vt 0.750000 0.500000
vt 0.750000 1.000000
vt 0.500000 1.000000
vt 0.500000 0.500000
vt 0.750000 0.500000
vt 0.750000 1.000000
vt 0.500000 1.000000
vt 0.500000 0.500000
vt 0.750000 0.500000
vt 0.750000 1.000000
vt 0.500000 1.000000
vt 0.500000 0.500000
vt 0.750000 0.500000
vt 0.750000 1.000000
vt 0.500000 1.000000
vt 0.500000 0.500000
vt 0.750000 0.500000
vt 0.750000 1.000000
vt 0.500000 1.000000
vt 0.500000 0.500000
vt 0.750000 0.500000
vt 0.750000 1.000000
vt 0.500000 1.000000
vt 0.500000 0.500000
vt 0.750000 0.500000
vt 0.750000 1.000000
vt 0.500000 1.000000
vt 0.500000 0.500000
vt 0.750000 0.500000
vt 0.750000 1.000000
vt 0.500000 1.000000
vt 0.500000 0.500000
vt 0.750000 0.500000
vt 0.750000 1.000000
vt 0.500000 1.000000
vt 0.500000 0.500000
vt 0.750000 0.500000
vt 0.750000 1.000000
vt 0.500000 1.000000
vt 0.500000 0.500000
vt 0.750000 0.500000
vt 0.750000 1.000000
vt 0.500000 1.000000
vt 0.500000 0.500000
vt 0.750000 0.500000
vt 0.750000 1.000000
vt 0.500000 1.000000
vt 0.500000 0.500000
vt 0.750000 0.500000
vt 0.750000 1.000000
vt 0.500000 1.000000
vt 0.500000 0.500000
vt 0.750000 0.500000
vt 0.750000 1.000000
vt 0.500000 1.000000
vt 0.500000 0.500000
vt 0.750000 0.500000
vt 0.750000 1.000000
vt 0.500000 1.000000
vt 0.500000 0.500000
vt 0.750000 0.500000
vt 0.750000 1.000000
vt 0.500000 1.000000
vt 0.500000 0.500000
vt 0.750000 0.500000
vt 0.750000 1.000000
vt 0.500000 1.000000
vt 0.500000 0.500000
vt 0.750000 0.500000
vt 0.750000 1.000000
vt 0.500000 1.000000
vt 0.500000 0.500000
vt 0.750000 0.500000
vt 0.750000 1.000000
vt 0.500000 1.000000
vt 0.500000 0.500000
vt 0.750000 0.500000
vt 0.750000 1.000000
vt 0.500000 1.000000
vt 0.500000 0.500000
vt 0.750000 0.500000
vt 0.750000 1.000000
vt 0.500000 1.000000
vt 0.500000 0.500000
vt 0.750000 0.500000
vt 0.750000 1.000000
vt 0.500000 1.000000
vt 0.500000 0.500000
vt 0.750000 0.500000
vt 0.750000 1.000000
vt 0.500000 1.000000
vt 0.500000 0.500000
vt 0.750000 0.500000
vt 0.750000 1.000000
vt 0.500000 1.000000
vt 0.500000 0.500000
vt 0.750000 0.500000
vt 0.750000 1.000000
vt 0.500000 1.000000
vt 0.500000 0.500000
vt 0.750000 0.500000
vt 0.750000 1.000000
vt 0.500000 1.000000
vt 0.500000 0.500000
vt 0.750000 0.500000
vt 0.750000 1.000000
vt 0.500000 1.000000
vt 0.500000 0.500000
vt 0.750000 0.500000
vt 0.750000 1.000000
vt 0.500000 1.000000
vt 0.500000 0.500000
vt 0.750000 0.500000
vt 0.750000 1.000000
vt 0.500000 1.000000
vt 0.500000 0.500000
vt 0.750000 0.500000
vt 0.750000 1.000000
vt 0.500000 1.000000
vt 0.500000 0.500000
vt 0.750000 0.500000
vt 0.750000 1.000000
vt 0.500000 1.000000
vt 0.500000 0.500000
vt 0.750000 0.500000
vt 0.750000 1.000000
vt 0.500000 1.000000
vt 0.500000 0.500000
vt 0.750000 0.500000
vt 0.750000 1.000000
vt 0.500000 1.000000
vt 0.500000 0.500000
vt 0.750000 0.500000
vt 0.750000 1.000000
vt 0.500000 1.000000
vt 0.500000 0.500000
vt 0.750000 0.500000
vt 0.750000 1.000000
vt 0.500000 1.000000
vt 0.500000 0.500000
vt 0.750000 0.500000
vt 0.750000 1.000000
vt 0.500000 1.000000
vt 0.500000 0.500000
vt 0.750000 0.500000
vt 0.750000 1.000000
vt 0.500000 1.000000
vt 0.500000 0.500000
vt 0.750000 0.500000
vt 0.750000 1.000000
vt 0.500000 1.000000
vt 0.500000 0.500000
vt 0.750000 0.500000
vt 0.750000 1.000000
vt 0.500000 1.000000
vt 0.500000 0.500000
vt 0.750000 0.500000
vt 0.750000 1.000000
vt 0.500000 1.000000
vt 0.500000 0.500000
vt 0.750000 0.500000
vt 0.750000 1.000000
vt 0.500000 1.000000
vt 0.500000 0.500000
vt 0.750000 0.500000
vt 0.750000 1.000000
vt 0.500000 1.000000
vt 0.500000 0.500000
vt 0.750000 0.500000
vt 0.750000 1.000000
vt 0.500000 1.000000
vt 0.500000 0.500000
vt 0.750000 0.500000
vt 0.750000 1.000000
vt 0.500000 1.000000
vt 0.500000 0.500000
vt 0.750000 0.500000
vt 0.750000 1.000000
vt 0.500000 1.000000
vt 0.500000 0.500000
vt 0.750000 0.500000
vt 0.750000 1.000000
vt 0.500000 1.000000
vt 0.500000 0.500000
vt 0.750000 0.500000
vt 0.750000 1.000000
vt 0.500000 1.000000
vt 0.500000 0.500000
vt 0.750000 0.500000
vt 0.750000 1.000000
vt 0.500000 1.000000
vt 0.500000 0.500000
vt 0.750000 0.500000
vt 0.750000 1.000000
vt 0.500000 1.000000
vt 0.500000 0.500000
vt 0.750000 0.500000
vt 0.750000 1.000000
vt 0.500000 1.000000
vt 0.500000 0.500000
vt 0.750000 0.500000
vt 0.750000 1.000000
vt 0.500000 1.000000
vt 0.500000 0.500000
vt 0.750000 0.500000
vt 0.750000 1.000000
vt 0.500000 1.000000
vt 0.500000 0.500000
vt 0.750000 0.500000
vt 0.750000 1.000000
vt 0.500000 1.000000
vt 0.500000 0.500000
vt 0.750000 0.500000
vt 0.750000 1.000000
vt 0.500000 1.000000
vt 0.500000 0.500000
vt 0.750000 0.500000
vt 0.750000 1.000000
vt 0.500000 1.000000
vt 0.500000 0.500000
vt 0.750000 0.500000
vt 0.750000 1.000000
vt 0.500000 1.000000
vt 0.500000 0.500000
vt 0.750000 0.500000
vt 0.750000 1.000000
vt 0.500000 1.000000
vt 0.500000 0.500000
vt 0.750000 0.500000
vt 0.750000 1.000000
vt 0.500000 1.000000
vt 0.500000 0.500000
vt 0.750000 0.500000
vt 0.750000 1.000000
vt 0.500000 1.000000
vt 0.500000 0.500000
vt 0.750000 0.500000
vt 0.750000 1.000000
vt 0.500000 1.000000
vt 0.500000 0.500000
vt 0.750000 0.500000
vt 0.750000 1.000000
vt 0.500000 1.000000
vt 0.500000 0.500000
vt 0.750000 0.500000
vt 0.750000 1.000000
vt 0.500000 1.000000
vt 0.500000 0.500000
vt 0.750000 0.500000
vt 0.750000 1.000000
vt 0.500000 1.000000
vt 0.500000 0.500000
vt 0.750000 0.500000
vt 0.750000 1.000000
vt 0.500000 1.000000
vt 0.500000 0.500000
vt 0.750000 0.500000
vt 0.750000 1.000000
vt 0.500000 1.000000
vt 0.500000 0.500000
vt 0.750000 0.500000
vt 0.750000 1.000000
vt 0.500000 1.000000
vt 0.500000 0.500000
vt 0.750000 0.500000
vt 0.750000 1.000000
vt 0.500000 1.000000
vt 0.500000 0.500000
vt 0.750000 0.500000
vt 0.750000 1.000000
vt 0.500000 1.000000
vt 0.500000 0.500000
vt 0.750000 0.500000
vt 0.750000 1.000000
vt 0.500000 1.000000
vt 0.500000 0.500000
vt 0.750000 0.500000
vt 0.750000 1.000000
vt 0.500000 1.000000
vt 0.500000 0.500000
vt 0.750000 0.500000
vt 0.750000 1.000000
vt 0.500000 1.000000
vt 0.500000 0.500000
vt 0.750000 0.500000
vt 0.750000 1.000000
vt 0.500000 1.000000
vt 0.500000 0.500000
vt 0.750000 0.500000
vt 0.750000 1.000000
vt 0.500000 1.000000
vt 0.500000 0.500000
vt 0.750000 0.500000
vt 0.750000 1.000000
vt 0.500000 1.000000
vt 0.500000 0.500000
vt 0.750000 0.500000
vt 0.750000 1.000000
vt 0.500000 1.000000
vt 0.500000 0.500000
vt 0.750000 0.500000
vt 0.750000 1.000000
vt 0.500000 1.000000
vt 0.500000 0.500000
vt 0.750000 0.500000
vt 0.750000 1.000000
vt 0.500000 1.000000
vt 0.500000 0.500000
vt 0.750000 0.500000
vt 0.750000 1.000000
vt 0.500000 1.000000
vt 0.500000 0.500000
vt 0.750000 0.500000
vt 0.750000 1.000000
vt 0.500000 1.000000
vt 0.500000 0.500000
vt 0.750000 0.500000
vt 0.750000 1.000000
vt 0.500000 1.000000
vt 0.500000 0.500000
vt 0.750000 0.500000
vt 0.750000 1.000000
vt 0.500000 1.000000
vt 0.500000 0.500000
vt 0.750000 0.500000
vt 0.750000 1.000000
vt 0.500000 1.000000
vt 0.500000 0.500000
vt 0.750000 0.500000
vt 0.750000 1.000000
vt 0.500000 1.000000
vt 0.500000 0.500000
vt 0.750000 0.500000
vt 0.750000 1.000000
vt 0.500000 1.000000
vt 0.500000 0.500000
vt 0.750000 0.500000
vt 0.750000 1.000000
vt 0.500000 1.000000
vt 0.500000 0.500000
vt 0.750000 0.500000
vt 0.750000 1.000000
vt 0.500000 1.000000
vt 0.500000 0.500000
vt 0.750000 0.500000
vt 0.750000 1.000000
vt 0.500000 1.000000
vt 0.500000 0.500000
vt 0.750000 0.500000
vt 0.750000 1.000000
vt 0.500000 1.000000
vt 0.500000 0.500000
vt 0.750000 0.500000
vt 0.750000 1.000000
vt 0.500000 1.000000
vt 0.500000 0.500000
vt 0.750000 0.500000
vt 0.750000 1.000000
vt 0.500000 1.000000
vt 0.500000 0.500000
vt 0.750000 0.500000
vt 0.750000 1.000000
vt 0.500000 1.000000
vt 0.500000 0.500000
vt 0.750000 0.500000
vt 0.750000 1.000000
vt 0.500000 1.000000
vt 0.500000 0.500000
vt 0.750000 0.500000
vt 0.750000 1.000000
vt 0.500000 1.000000
vt 0.500000 0.500000
vt 0.750000 0.500000
vt 0.750000 1.000000
vt 0.500000 1.000000
vt 0.500000 0.500000
vt 0.750000 0.500000
vt 0.750000 1.000000
vt 0.500000 1.000000
vt 0.500000 0.500000
vt 0.750000 0.500000
vt 0.750000 1.000000
vt 0.500000 1.000000
vt 0.500000 0.500000
vt 0.750000 0.500000
vt 0.750000 1.000000
vt 0.500000 1.000000
vt 0.500000 0.500000
vt 0.750000 0.500000
vt 0.750000 1.000000
vt 0.500000 1.000000
vt 0.500000 0.500000
vt 0.750000 0.500000
vt 0.750000 1.000000
vt 0.500000 1.000000
vt 0.500000 0.500000
vt 0.750000 0.500000
vt 0.750000 1.000000
vt 0.500000 1.000000
vt 0.500000 0.500000
vt 0.750000 0.500000
vt 0.750000 1.000000
vt 0.500000 1.000000
vt 0.500000 0.500000
vt 0.750000 0.500000
vt 0.750000 1.000000
vt 0.500000 1.000000
vt 0.500000 0.500000
vt 0.750000 0.500000
vt 0.750000 1.000000
vt 0.500000 1.000000
vt 0.500000 0.500000
vt 0.750000 0.500000
vt 0.750000 1.000000
vt 0.500000 1.000000
vt 0.500000 0.500000
vt 0.750000 0.500000
vt 0.750000 1.000000
vt 0.500000 1.000000
vt 0.500000 0.500000
vt 0.750000 0.500000
vt 0.750000 1.000000
vt 0.500000 1.000000
vt 0.500000 0.500000
vt 0.750000 0.500000
vt 0.750000 1.000000
vt 0.500000 1.000000
vt 0.500000 0.500000
vt 0.750000 0.500000
vt 0.750000 1.000000
vt 0.500000 1.000000
vt 0.500000 0.500000
vt 0.750000 0.500000
vt 0.750000 1.000000
vt 0.500000 1.000000
vt 0.500000 0.500000
vt 0.750000 0.500000
vt 0.750000 1.000000
vt 0.500000 1.000000
vt 0.500000 0.500000
vt 0.750000 0.500000
vt 0.750000 1.000000
vt 0.500000 1.000000
vt 0.500000 0.500000
vt 0.750000 0.500000
vt 0.750000 1.000000
vt 0.500000 1.000000
vt 0.500000 0.500000
vt 0.750000 0.500000
vt 0.750000 1.000000
vt 0.500000 1.000000
vt 0.500000 0.500000
vt 0.750000 0.500000
vt 0.750000 1.000000
vt 0.500000 1.000000
vt 0.500000 0.500000
vt 0.750000 0.500000
vt 0.750000 1.000000
vt 0.500000 1.000000
vt 0.500000 0.500000
vt 0.750000 0.500000
vt 0.750000 1.000000
vt 0.500000 1.000000
vt 0.500000 0.500000
vt 0.750000 0.500000
vt 0.750000 1.000000
vt 0.500000 1.000000
vt 0.500000 0.500000
vt 0.750000 0.500000
vt 0.750000 1.000000
vt 0.500000 1.000000
vt 0.500000 0.500000
vt 0.750000 0.500000
vt 0.750000 1.000000
vt 0.500000 1.000000
vt 0.500000 0.500000
vt 0.750000 0.500000
vt 0.750000 1.000000
vt 0.500000 1.000000
vt 0.500000 0.500000
vt 0.750000 0.500000
vt 0.750000 1.000000
vt 0.500000 1.000000
vt 0.500000 0.500000
vt 0.750000 0.500000
vt 0.750000 1.000000
vt 0.500000 1.000000
vt 0.500000 0.500000
vt 0.750000 0.500000
vt 0.750000 1.000000
vt 0.500000 1.000000
vt 0.500000 0.500000
vt 0.750000 0.500000
vt 0.750000 1.000000
vt 0.500000 1.000000
vt 0.500000 0.500000
vt 0.750000 0.500000
vt 0.750000 1.000000
vt 0.500000 1.000000
vt 0.500000 0.500000
vt 0.750000 0.500000
vt 0.750000 1.000000
vt 0.500000 1.000000
vt 0.500000 0.500000
vt 0.750000 0.500000
vt 0.750000 1.000000
vt 0.500000 1.000000
vt 0.500000 0.500000
vt 0.750000 0.500000
vt 0.750000 1.000000
vt 0.500000 1.000000
vt 0.500000 0.500000
vt 0.750000 0.500000
vt 0.750000 1.000000
vt 0.500000 1.000000
vt 0.500000 0.500000
vt 0.750000 0.500000
vt 0.750000 1.000000
vt 0.500000 1.000000
vt 0.500000 0.500000
vt 0.750000 0.500000
vt 0.750000 1.000000
vt 0.500000 1.000000
vt 0.500000 0.500000
vt 0.750000 0.500000
vt 0.750000 1.000000
vt 0.500000 1.000000
vt 0.500000 0.500000
vt 0.750000 0.500000
vt 0.750000 1.000000
vt 0.500000 1.000000
vt 0.500000 0.500000
vt 0.750000 0.500000
vt 0.750000 1.000000
vt 0.500000 1.000000
vt 0.500000 0.500000
vt 0.750000 0.500000
vt 0.750000 1.000000
vt 0.500000 1.000000
vt 0.500000 0.500000
vt 0.750000 0.500000
vt 0.750000 1.000000
vt 0.500000 1.000000
vt 0.500000 0.500000
vt 0.750000 0.500000
vt 0.750000 1.000000
vt 0.500000 1.000000
vt 0.500000 0.500000
vt 0.750000 0.500000
vt 0.750000 1.000000
vt 0.500000 1.000000
vt 0.500000 0.500000
vt 0.750000 0.500000
vt 0.750000 1.000000
vt 0.500000 1.000000
vt 0.500000 0.500000
vt 0.750000 0.500000
vt 0.750000 1.000000
vt 0.500000 1.000000
vt 0.500000 0.500000
vt 0.750000 0.500000
vt 0.750000 1.000000
vt 0.500000 1.000000
vt 0.500000 0.500000
vt 0.750000 0.500000
vt 0.750000 1.000000
vt 0.500000 1.000000
vt 0.500000 0.500000
vt 0.750000 0.500000
vt 0.750000 1.000000
vt 0.500000 1.000000
vt 0.500000 0.500000
vt 0.750000 0.500000
vt 0.750000 1.000000
vt 0.500000 1.000000
vt 0.500000 0.500000
vt 0.750000 0.500000
vt 0.750000 1.000000
vt 0.500000 1.000000
vt 0.500000 0.500000
vt 0.750000 0.500000
vt 0.750000 1.000000
vt 0.500000 1.000000
vt 0.500000 0.500000
vt 0.750000 0.500000
vt 0.750000 1.000000
vt 0.500000 1.000000
vt 0.500000 0.500000
vt 0.750000 0.500000
vt 0.750000 1.000000
vt 0.500000 1.000000
vt 0.500000 0.500000
vt 0.750000 0.500000
vt 0.750000 1.000000
vt 0.500000 1.000000
vt 0.500000 0.500000
vt 0.750000 0.500000
vt 0.750000 1.000000
vt 0.500000 1.000000
vt 0.500000 0.500000
vt 0.750000 0.500000
vt 0.750000 1.000000
vt 0.500000 1.000000
vt 0.500000 0.500000
vt 0.750000 0.500000
vt 0.750000 1.000000
vt 0.500000 1.000000
vt 0.500000 0.500000
vt 0.750000 0.500000
vt 0.750000 1.000000
vt 0.500000 1.000000
vt 0.500000 0.500000
vt 0.750000 0.500000
vt 0.750000 1.000000
vt 0.500000 1.000000
vt 0.500000 0.500000
vt 0.750000 0.500000
vt 0.750000 1.000000
vt 0.500000 1.000000
vt 0.500000 0.500000
vt 0.750000 0.500000
vt 0.750000 1.000000
vt 0.500000 1.000000
vt 0.500000 0.500000
vt 0.750000 0.500000
vt 0.750000 1.000000
vt 0.500000 1.000000
vt 0.500000 0.500000
vt 0.750000 0.500000
vt 0.750000 1.000000
vt 0.500000 1.000000
vt 0.500000 0.500000
vt 0.750000 0.500000
vt 0.750000 1.000000
vt 0.500000 1.000000
vt 0.500000 0.500000
vt 0.750000 0.500000
vt 0.750000 1.000000
vt 0.500000 1.000000
vt 0.500000 0.500000
vt 0.750000 0.500000
vt 0.750000 1.000000
vt 0.500000 1.000000
vt 0.500000 0.500000
vt 0.750000 0.500000
vt 0.750000 1.000000
vt 0.500000 1.000000
vt 0.500000 0.500000
vt 0.750000 0.500000
vt 0.750000 1.000000
vt 0.500000 1.000000
vt 0.500000 0.500000
vt 0.750000 0.500000
vt 0.750000 1.000000
vt 0.500000 1.000000
vt 0.500000 0.500000
vt 0.750000 0.500000
vt 0.750000 1.000000
vt 0.500000 1.000000
vt 0.500000 0.500000
vt 0.750000 0.500000
vt 0.750000 1.000000
vt 0.500000 1.000000
vt 0.500000 0.500000
vt 0.750000 0.500000
vt 0.750000 1.000000
vt 0.500000 1.000000
vt 0.500000 0.500000
vt 0.750000 0.500000
vt 0.750000 1.000000
vt 0.500000 1.000000
vt 0.500000 0.500000
vt 0.750000 0.500000
vt 0.750000 1.000000
vt 0.500000 1.000000
vt 0.500000 0.500000
vt 0.750000 0.500000
vt 0.750000 1.000000
vt 0.500000 1.000000
vt 0.500000 0.500000
vt 0.750000 0.500000
vt 0.750000 1.000000
vt 0.500000 1.000000
vt 0.500000 0.500000
vt 0.750000 0.500000
vt 0.750000 1.000000
vt 0.500000 1.000000
vt 0.500000 0.500000
vt 0.750000 0.500000
vt 0.750000 1.000000
vt 0.500000 1.000000
vt 0.500000 0.500000
vt 0.750000 0.500000
vt 0.750000 1.000000
vt 0.500000 1.000000
vt 0.500000 0.500000
vt 0.750000 0.500000
vt 0.750000 1.000000
vt 0.500000 1.000000
vt 0.500000 0.500000
vt 0.750000 0.500000
vt 0.750000 1.000000
vt 0.500000 1.000000
vt 0.500000 0.500000
vt 0.750000 0.500000
vt 0.750000 1.000000
vt 0.500000 1.000000
vt 0.500000 0.500000
vt 0.750000 0.500000
vt 0.750000 1.000000
vt 0.500000 1.000000
vt 0.500000 0.500000
vt 0.750000 0.500000
vt 0.750000 1.000000
vt 0.500000 1.000000
f 1/1 2/2 3/3 4/4
f 5/5 6/6 7/7 8/8
f 9/9 10/10 11/11 12/12
f 13/13 14/14 15/15 16/16
f 17/17 18/18 19/19 20/20
f 21/21 22/22 23/23 24/24
f 25/25 26/26 27/27 28/28
f 29/29 30/30 31/31 32/32
f 33/33 34/34 35/35
f 36/36 37/37 38/38
f 39/39 40/40 41/41
f 42/42 43/43 44/44
f 45/45 46/46 47/47
f 48/48 49/49 50/50
f 51/51 52/52 53/53
f 54/54 55/55 56/56
f 57/57 58/58 59/59
f 60/60 61/61 62/62
f 63/63 64/64 65/65
f 66/66 67/67 68/68
f 69/69 70/70 71/71 72/72
f 73/73 74/74 75/75 76/76
f 77/77 78/78 79/79 80/80
f 81/81 82/82 83/83 84/84
f 85/85 86/86 87/87 88/88
f 89/89 90/90 91/91 92/92
f 93/93 94/94 95/95 96/96
f 97/97 98/98 99/99 100/100
f 101/101 102/102 103/103
f 104/104 105/105 106/106
f 107/107 108/108 109/109
f 110/110 111/111 112/112
f 113/113 114/114 115/115
f 116/116 117/117 118/118
f 119/119 120/120 121/121
f 122/122 123/123 124/124
f 125/125 126/126 127/127
f 128/128 129/129 130/130
f 131/131 132/132 133/133
f 134/134 135/135 136/136
f 137/137 138/138 139/139 140/140
f 141/141 142/142 143/143 144/144
f 145/145 146/146 147/147 148/148
f 149/149 150/150 151/151 152/152
f 153/153 154/154 155/155 156/156
f 157/157 158/158 159/159 160/160
f 161/161 162/162 163/163 164/164
f 165/165 166/166 167/167 168/168
f 169/169 170/170 171/171
f 172/172 173/173 174/174
f 175/175 176/176 177/177
f 178/178 179/179 180/180
f 181/181 182/182 183/183
f 184/184 185/185 186/186
f 187/187 188/188 189/189
f 190/190 191/191 192/192
f 193/193 194/194 195/195
f 196/196 197/197 198/198
f 199/199 200/200 201/201
f 202/202 203/203 204/204
f 205/205 206/206 207/207 208/208
f 209/209 210/210 211/211 212/212
f 213/213 214/214 215/215 216/216
f 217/217 218/218 219/219 220/220
f 221/221 222/222 223/223 224/224
f 225/225 226/226 227/227 228/228
f 229/229 230/230 231/231 232/232
f 233/233 234/234 235/235 236/236
f 237/237 238/238 239/239
f 240/240 241/241 242/242
f 243/243 244/244 245/245
f 246/246 247/247 248/248
f 249/249 250/250 251/251
f 252/252 253/253 254/254
f 255/255 256/256 257/257
f 258/258 259/259 260/260
f 261/261 262/262 263/263
f 264/264 265/265 266/266
f 267/267 268/268 269/269
f 270/270 271/271 272/272
f 273/273 274/274 275/275 276/276
f 277/277 278/278 279/279 280/280
f 281/281 282/282 283/283 284/284
f 285/285 286/286 287/287 288/288
f 289/289 290/290 291/291 292/292
f 293/293 294/294 295/295 296/296
f 297/297 298/298 299/299 300/300
f 301/301 302/302 303/303 304/304
f 305/305 306/306 307/307
f 308/308 309/309 310/310
f 311/311 312/312 313/313
f 314/314 315/315 316/316
f 317/317 318/318 319/319
f 320/320 321/321 322/322
f 323/323 324/324 325/325
f 326/326 327/327 328/328
f 329/329 330/330 331/331
f 332/332 333/333 334/334
f 335/335 336/336 337/337
f 338/338 339/339 340/340
f 341/341 342/342 343/343 344/344
f 345/345 346/346 347/347 348/348
f 349/349 350/350 351/351 352/352
f 353/353 354/354 355/355 356/356
f 357/357 358/358 359/359 360/360
f 361/361 362/362 363/363 364/364
f 365/365 366/366 367/367 368/368
f 369/369 370/370 371/371 372/372
f 373/373 374/374 375/375
f 376/376 377/377 378/378
f 379/379 380/380 381/381
f 382/382 383/383 384/384
f 385/385 386/386 387/387
f 388/388 389/389 390/390
f 391/391 392/392 393/393
f 394/394 395/395 396/396
f 397/397 398/398 399/399
f 400/400 401/401 402/402
f 403/403 404/404 405/405
f 406/406 407/407 408/408
f 409/409 410/410 411/411 412/412
f 413/413 414/414 415/415 416/416
f 417/417 418/418 419/419 420/420
f 421/421 422/422 423/423 424/424
f 425/425 426/426 427/427 428/428
f 429/429 430/430 431/431 432/432
f 433/433 434/434 435/435 436/436
f 437/437 438/438 439/439 440/440
f 441/441 442/442 443/443
f 444/444 445/445 446/446
f 447/447 448/448 449/449
f 450/450 451/451 452/452
f 453/453 454/454 455/455
f 456/456 457/457 458/458
f 459/459 460/460 461/461
f 462/462 463/463 464/464
f 465/465 466/466 467/467
f 468/468 469/469 470/470
f 471/471 472/472 473/473
f 474/474 475/475 476/476
f 477/477 478/478 479/479 480/480
f 481/481 482/482 483/483 484/484
f 485/485 486/486 487/487 488/488
f 489/489 490/490 491/491 492/492
f 493/493 494/494 495/495 496/496
f 497/497 498/498 499/499 500/500
f 501/501 502/502 503/503 504/504
f 505/505 506/506 507/507 508/508
f 509/509 510/510 511/511
f 512/512 513/513 514/514
f 515/515 516/516 517/517
f 518/518 519/519 520/520
f 521/521 522/522 523/523
f 524/524 525/525 526/526
f 527/527 528/528 529/529
f 530/530 531/531 532/532
f 533/533 534/534 535/535
f 536/536 537/537 538/538
f 539/539 540/540 541/541
f 542/542 543/543 544/544
f 545/545 546/546 547/547 548/548
f 549/549 550/550 551/551 552/552
f 553/553 554/554 555/555 556/556
f 557/557 558/558 559/559 560/560
f 561/561 562/562 563/563 564/564
f 565/565 566/566 567/567 568/568
f 569/569 570/570 571/571 572/572
f 573/573 574/574 575/575 576/576
f 577/577 578/578 579/579
f 580/580 581/581 582/582
f 583/583 584/584 585/585
f 586/586 587/587 588/588
f 589/589 590/590 591/591
f 592/592 593/593 594/594
f 595/595 596/596 597/597
f 598/598 599/599 600/600
f 601/601 602/602 603/603
f 604/604 605/605 606/606
f 607/607 608/608 609/609
f 610/610 611/611 612/612
f 613/613 614/614 615/615 616/616
f 617/617 618/618 619/619 620/620
f 621/621 622/622 623/623 624/624
f 625/625 626/626 627/627 628/628
f 629/629 630/630 631/631 632/632
f 633/633 634/634 635/635 636/636
f 637/637 638/638 639/639 640/640
f 641/641 642/642 643/643 644/644
f 645/645 646/646 647/647
f 648/648 649/649 650/650
f 651/651 652/652 653/653
f 654/654 655/655 656/656
f 657/657 658/658 659/659
f 660/660 661/661 662/662
f 663/663 664/664 665/665
f 666/666 667/667 668/668
f 669/669 670/670 671/671
f 672/672 673/673 674/674
f 675/675 676/676 677/677
f 678/678 679/679 680/680
f 681/681 682/682 683/683 684/684
f 685/685 686/686 687/687 688/688
f 689/689 690/690 691/691 692/692
f 693/693 694/694 695/695 696/696
f 697/697 698/698 699/699 700/700
f 701/701 702/702 703/703 704/704
f 705/705 706/706 707/707 708/708
f 709/709 710/710 711/711 712/712
f 713/713 714/714 715/715
f 716/716 717/717 718/718
f 719/719 720/720 721/721
f 722/722 723/723 724/724
f 725/725 726/726 727/727
f 728/728 729/729 730/730
f 731/731 732/732 733/733
f 734/734 735/735 736/736
f 737/737 738/738 739/739
f 740/740 741/741 742/742
f 743/743 744/744 745/745
f 746/746 747/747 748/748
f 749/749 750/750 751/751 752/752
f 753/753 754/754 755/755 756/756
f 757/757 758/758 759/759 760/760
f 761/761 762/762 763/763 764/764
f 765/765 766/766 767/767 768/768
f 769/769 770/770 771/771 772/772
f 773/773 774/774 775/775 776/776
f 777/777 778/778 779/779 780/780
f 781/781 782/782 783/783
f 784/784 785/785 786/786
f 787/787 788/788 789/789
f 790/790 791/791 792/792
f 793/793 794/794 795/795
f 796/796 797/797 798/798
f 799/799 800/800 801/801
f 802/802 803/803 804/804
f 805/805 806/806 807/807
f 808/808 809/809 810/810
f 811/811 812/812 813/813
f 814/814 815/815 816/816
f 817/817 818/818 819/819 820/820
f 821/821 822/822 823/823 824/824
f 825/825 826/826 827/827 828/828
f 829/829 830/830 831/831 832/832
f 833/833 834/834 835/835 836/836
f 837/837 838/838 839/839 840/840
f 841/841 842/842 843/843 844/844
f 845/845 846/846 847/847 848/848
f 849/849 850/850 851/851 852/852
f 853/853 854/854 855/855 856/856
f 857/857 858/858 859/859 860/860
f 861/861 862/862 863/863 864/864
f 865/865 866/866 867/867 868/868
f 869/869 870/870 871/871 872/872
f 873/873 874/874 875/875 876/876
f 877/877 878/878 879/879 880/880
f 881/881 882/882 883/883 884/884
f 885/885 886/886 887/887 888/888
f 889/889 890/890 891/891 892/892
f 893/893 894/894 895/895 896/896
f 897/897 898/898 899/899 900/900
f 901/901 902/902 903/903 904/904
f 905/905 906/906 907/907 908/908
f 909/909 910/910 911/911 912/912
f 913/913 914/914 915/915 916/916
f 917/917 918/918 919/919 920/920
f 921/921 922/922 923/923 924/924
f 925/925 926/926 927/927 928/928
f 929/929 930/930 931/931 932/932
f 933/933 934/934 935/935 936/936
f 937/937 938/938 939/939 940/940
f 941/941 942/942 943/943 944/944
f 945/945 946/946 947/947 948/948
f 949/949 950/950 951/951 952/952
f 953/953 954/954 955/955 956/956
f 957/957 958/958 959/959 960/960
f 961/961 962/962 963/963 964/964
f 965/965 966/966 967/967 968/968
f 969/969 970/970 971/971 972/972
f 973/973 974/974 975/975 976/976
f 977/977 978/978 979/979 980/980
f 981/981 982/982 983/983 984/984
f 985/985 986/986 987/987 988/988
f 989/989 990/990 991/991 992/992
f 993/993 994/994 995/995 996/996
f 997/997 998/998 999/999 1000/1000
f 1001/1001 1002/1002 1003/1003 1004/1004
f 1005/1005 1006/1006 1007/1007 1008/1008
f 1009/1009 1010/1010 1011/1011 1012/1012
f 1013/1013 1014/1014 1015/1015 1016/1016
f 1017/1017 1018/1018 1019/1019 1020/1020
f 1021/1021 1022/1022 1023/1023 1024/1024
f 1025/1025 1026/1026 1027/1027 1028/1028
f 1029/1029 1030/1030 1031/1031 1032/1032
f 1033/1033 1034/1034 1035/1035 1036/1036
f 1037/1037 1038/1038 1039/1039 1040/1040
f 1041/1041 1042/1042 1043/1043 1044/1044
f 1045/1045 1046/1046 1047/1047 1048/1048
f 1049/1049 1050/1050 1051/1051 1052/1052
f 1053/1053 1054/1054 1055/1055 1056/1056
f 1057/1057 1058/1058 1059/1059 1060/1060
f 1061/1061 1062/1062 1063/1063 1064/1064
f 1065/1065 1066/1066 1067/1067 1068/1068
f 1069/1069 1070/1070 1071/1071 1072/1072
f 1073/1073 1074/1074 1075/1075 1076/1076
f 1077/1077 1078/1078 1079/1079 1080/1080
f 1081/1081 1082/1082 1083/1083 1084/1084
f 1085/1085 1086/1086 1087/1087 1088/1088
f 1089/1089 1090/1090 1091/1091 1092/1092
f 1093/1093 1094/1094 1095/1095 1096/1096
f 1097/1097 1098/1098 1099/1099 1100/1100
f 1101/1101 1102/1102 1103/1103 1104/1104
f 1105/1105 1106/1106 1107/1107 1108/1108
f 1109/1109 1110/1110 1111/1111 1112/1112
f 1113/1113 1114/1114 1115/1115 1116/1116
f 1117/1117 1118/1118 1119/1119 1120/1120
f 1121/1121 1122/1122 1123/1123 1124/1124
f 1125/1125 1126/1126 1127/1127 1128/1128
f 1129/1129 1130/1130 1131/1131 1132/1132
f 1133/1133 1134/1134 1135/1135 1136/1136
f 1137/1137 1138/1138 1139/1139 1140/1140
f 1141/1141 1142/1142 1143/1143 1144/1144
f 1145/1145 1146/1146 1147/1147 1148/1148
f 1149/1149 1150/1150 1151/1151 1152/1152
f 1153/1153 1154/1154 1155/1155 1156/1156
f 1157/1157 1158/1158 1159/1159 1160/1160
f 1161/1161 1162/1162 1163/1163 1164/1164
f 1165/1165 1166/1166 1167/1167 1168/1168
f 1169/1169 1170/1170 1171/1171 1172/1172
f 1173/1173 1174/1174 1175/1175 1176/1176
f 1177/1177 1178/1178 1179/1179 1180/1180
f 1181/1181 1182/1182 1183/1183 1184/1184
f 1185/1185 1186/1186 1187/1187 1188/1188
f 1189/1189 1190/1190 1191/1191 1192/1192
f 1193/1193 1194/1194 1195/1195 1196/1196
f 1197/1197 1198/1198 1199/1199 1200/1200
f 1201/1201 1202/1202 1203/1203 1204/1204
f 1205/1205 1206/1206 1207/1207 1208/1208
f 1209/1209 1210/1210 1211/1211 1212/1212
f 1213/1213 1214/1214 1215/1215 1216/1216
f 1217/1217 1218/1218 1219/1219 1220/1220
f 1221/1221 1222/1222 1223/1223 1224/1224
f 1225/1225 1226/1226 1227/1227 1228/1228
f 1229/1229 1230/1230 1231/1231 1232/1232
f 1233/1233 1234/1234 1235/1235 1236/1236
f 1237/1237 1238/1238 1239/1239 1240/1240
f 1241/1241 1242/1242 1243/1243 1244/1244
f 1245/1245 1246/1246 1247/1247 1248/1248
f 1249/1249 1250/1250 1251/1251 1252/1252
f 1253/1253 1254/1254 1255/1255 1256/1256
f 1257/1257 1258/1258 1259/1259 1260/1260
f 1261/1261 1262/1262 1263/1263 1264/1264
f 1265/1265 1266/1266 1267/1267 1268/1268
f 1269/1269 1270/1270 1271/1271 1272/1272
f 1273/1273 1274/1274 1275/1275 1276/1276
f 1277/1277 1278/1278 1279/1279 1280/1280
f 1281/1281 1282/1282 1283/1283 1284/1284
f 1285/1285 1286/1286 1287/1287 1288/1288
f 1289/1289 1290/1290 1291/1291 1292/1292
f 1293/1293 1294/1294 1295/1295 1296/1296
f 1297/1297 1298/1298 1299/1299 1300/1300
f 1301/1301 1302/1302 1303/1303 1304/1304
f 1305/1305 1306/1306 1307/1307 1308/1308
f 1309/1309 1310/1310 1311/1311 1312/1312
f 1313/1313 1314/1314 1315/1315 1316/1316
f 1317/1317 1318/1318 1319/1319 1320/1320
f 1321/1321 1322/1322 1323/1323 1324/1324
f 1325/1325 1326/1326 1327/1327 1328/1328
f 1329/1329 1330/1330 1331/1331 1332/1332
f 1333/1333 1334/1334 1335/1335 1336/1336
f 1337/1337 1338/1338 1339/1339 1340/1340
f 1341/1341 1342/1342 1343/1343 1344/1344
f 1345/1345 1346/1346 1347/1347 1348/1348
f 1349/1349 1350/1350 1351/1351 1352/1352
f 1353/1353 1354/1354 1355/1355 1356/1356
f 1357/1357 1358/1358 1359/1359 1360/1360
f 1361/1361 1362/1362 1363/1363 1364/1364
f 1365/1365 1366/1366 1367/1367 1368/1368
f 1369/1369 1370/1370 1371/1371 1372/1372
f 1373/1373 1374/1374 1375/1375 1376/1376
f 1377/1377 1378/1378 1379/1379 1380/1380
f 1381/1381 1382/1382 1383/1383 1384/1384
f 1385/1385 1386/1386 1387/1387 1388/1388
f 1389/1389 1390/1390 1391/1391 1392/1392
f 1393/1393 1394/1394 1395/1395 1396/1396
f 1397/1397 1398/1398 1399/1399 1400/1400
f 1401/1401 1402/1402 1403/1403 1404/1404
f 1405/1405 1406/1406 1407/1407 1408/1408
f 1409/1409 1410/1410 1411/1411 1412/1412
f 1413/1413 1414/1414 1415/1415 1416/1416
f 1417/1417 1418/1418 1419/1419 1420/1420
f 1421/1421 1422/1422 1423/1423 1424/1424
f 1425/1425 1426/1426 1427/1427 1428/1428
f 1429/1429 1430/1430 1431/1431 1432/1432
f 1433/1433 1434/1434 1435/1435 1436/1436
f 1437/1437 1438/1438 1439/1439 1440/1440
f 1441/1441 1442/1442 1443/1443 1444/1444
f 1445/1445 1446/1446 1447/1447 1448/1448
f 1449/1449 1450/1450 1451/1451 1452/1452
f 1453/1453 1454/1454 1455/1455 1456/1456
f 1457/1457 1458/1458 1459/1459 1460/1460
f 1461/1461 1462/1462 1463/1463 1464/1464
f 1465/1465 1466/1466 1467/1467 1468/1468
f 1469/1469 1470/1470 1471/1471 1472/1472
f 1473/1473 1474/1474 1475/1475 1476/1476
f 1477/1477 1478/1478 1479/1479 1480/1480
f 1481/1481 1482/1482 1483/1483 1484/1484
f 1485/1485 1486/1486 1487/1487 1488/1488
f 1489/1489 1490/1490 1491/1491 1492/1492
f 1493/1493 1494/1494 1495/1495 1496/1496
f 1497/1497 1498/1498 1499/1499 1500/1500
f 1501/1501 1502/1502 1503/1503 1504/1504
f 1505/1505 1506/1506 1507/1507 1508/1508
f 1509/1509 1510/1510 1511/1511 1512/1512
f 1513/1513 1514/1514 1515/1515 1516/1516
f 1517/1517 1518/1518 1519/1519 1520/1520
f 1521/1521 1522/1522 1523/1523 1524/1524
f 1525/1525 1526/1526 1527/1527 1528/1528
f 1529/1529 1530/1530 1531/1531 1532/1532
f 1533/1533 1534/1534 1535/1535 1536/1536
f 1537/1537 1538/1538 1539/1539 1540/1540
f 1541/1541 1542/1542 1543/1543 1544/1544
f 1545/1545 1546/1546 1547/1547 1548/1548
f 1549/1549 1550/1550 1551/1551 1552/1552
f 1553/1553 1554/1554 1555/1555 1556/1556
f 1557/1557 1558/1558 1559/1559 1560/1560
f 1561/1561 1562/1562 1563/1563 1564/1564
f 1565/1565 1566/1566 1567/1567 1568/1568
f 1569/1569 1570/1570 1571/1571 1572/1572
f 1573/1573 1574/1574 1575/1575 1576/1576
f 1577/1577 1578/1578 1579/1579 1580/1580
f 1581/1581 1582/1582 1583/1583 1584/1584
f 1585/1585 1586/1586 1587/1587 1588/1588
f 1589/1589 1590/1590 1591/1591 1592/1592
f 1593/1593 1594/1594 1595/1595 1596/1596
f 1597/1597 1598/1598 1599/1599 1600/1600
f 1601/1601 1602/1602 1603/1603 1604/1604
f 1605/1605 1606/1606 1607/1607 1608/1608
f 1609/1609 1610/1610 1611/1611 1612/1612
f 1613/1613 1614/1614 1615/1615 1616/1616
f 1617/1617 1618/1618 1619/1619 1620/1620
f 1621/1621 1622/1622 1623/1623 1624/1624
f 1625/1625 1626/1626 1627/1627 1628/1628
f 1629/1629 1630/1630 1631/1631 1632/1632
f 1633/1633 1634/1634 1635/1635 1636/1636
f 1637/1637 1638/1638 1639/1639 1640/1640
f 1641/1641 1642/1642 1643/1643 1644/1644
f 1645/1645 1646/1646 1647/1647 1648/1648
f 1649/1649 1650/1650 1651/1651 1652/1652
f 1653/1653 1654/1654 1655/1655 1656/1656
f 1657/1657 1658/1658 1659/1659 1660/1660
f 1661/1661 1662/1662 1663/1663 1664/1664
f 1665/1665 1666/1666 1667/1667 1668/1668
f 1669/1669 1670/1670 1671/1671 1672/1672
f 1673/1673 1674/1674 1675/1675 1676/1676
f 1677/1677 1678/1678 1679/1679 1680/1680
