# Original Project Broom terrain geometry, CC0-1.0
v -27.0000 2.0000 -2.0000
v 21.0000 2.0000 -2.0000
v 21.0000 26.0000 -2.0000
v -27.0000 26.0000 -2.0000
v -3.0000 2.0000 22.0000
v -3.0000 2.0000 -26.0000
v -3.0000 26.0000 -26.0000
v -3.0000 26.0000 22.0000
v -20.0000 14.0000 15.0000
v 14.0000 14.0000 15.0000
v 14.0000 14.0000 -19.0000
v -20.0000 14.0000 -19.0000
v -15.2007 13.0000 17.6440
v 21.2007 13.0000 -13.6440
v 21.2007 37.0000 -13.6440
v -15.2007 37.0000 17.6440
v 18.6440 13.0000 20.2007
v -12.6440 13.0000 -16.2007
v -12.6440 37.0000 -16.2007
v 18.6440 37.0000 20.2007
v -14.0000 25.0000 19.0000
v 20.0000 25.0000 19.0000
v 20.0000 25.0000 -15.0000
v -14.0000 25.0000 -15.0000
v -4.6054 25.0000 26.7276
v 2.6054 25.0000 -20.7276
v 2.6054 49.0000 -20.7276
v -4.6054 49.0000 26.7276
v 22.7276 25.0000 6.6054
v -24.7276 25.0000 -0.6054
v -24.7276 49.0000 -0.6054
v 22.7276 49.0000 6.6054
v -18.0000 37.0000 20.0000
v 16.0000 37.0000 20.0000
v 16.0000 37.0000 -14.0000
v -18.0000 37.0000 -14.0000
vt 0 0
vt 1 0
vt 1 1
vt 0 1
f 1/1 2/2 3/3 4/4
f 5/1 6/2 7/3 8/4
f 9/1 10/2 11/3 12/4
f 13/1 14/2 15/3 16/4
f 17/1 18/2 19/3 20/4
f 21/1 22/2 23/3 24/4
f 25/1 26/2 27/3 28/4
f 29/1 30/2 31/3 32/4
f 33/1 34/2 35/3 36/4
