# Original Project Broom sunlight shaft, CC0-1.0
v 16.0000 2.0000 3.0000
v -1.0000 223.0000 -3.0000
v 13.3640 2.0000 9.3640
v -2.7574 223.0000 1.2426
v 7.0000 2.0000 12.0000
v -7.0000 223.0000 3.0000
v 0.6360 2.0000 9.3640
v -11.2426 223.0000 1.2426
v -2.0000 2.0000 3.0000
v -13.0000 223.0000 -3.0000
v 0.6360 2.0000 -3.3640
v -11.2426 223.0000 -7.2426
v 7.0000 2.0000 -6.0000
v -7.0000 223.0000 -9.0000
v 13.3640 2.0000 -3.3640
v -2.7574 223.0000 -7.2426
vt 0 1
vt 1 1
vt 1 0
vt 0 0
vt 0 1
vt 1 1
vt 1 0
vt 0 0
vt 0 1
vt 1 1
vt 1 0
vt 0 0
vt 0 1
vt 1 1
vt 1 0
vt 0 0
vt 0 1
vt 1 1
vt 1 0
vt 0 0
vt 0 1
vt 1 1
vt 1 0
vt 0 0
vt 0 1
vt 1 1
vt 1 0
vt 0 0
vt 0 1
vt 1 1
vt 1 0
vt 0 0
f 1/1 3/2 4/3 2/4
f 3/5 5/6 6/7 4/8
f 5/9 7/10 8/11 6/12
f 7/13 9/14 10/15 8/16
f 9/17 11/18 12/19 10/20
f 11/21 13/22 14/23 12/24
f 13/25 15/26 16/27 14/28
f 15/29 1/30 2/31 16/32
