# Original Project Broom wall torch, CC0-1.0
v 0.0000 44.0000 4.0000
v 2.0000 44.0000 4.0000
v 2.0000 44.0000 -4.0000
v 0.0000 44.0000 -4.0000
v 0.0000 63.0000 4.0000
v 2.0000 63.0000 4.0000
v 2.0000 63.0000 -4.0000
v 0.0000 63.0000 -4.0000
v 1.0000 48.0000 1.5000
v 10.0000 48.0000 1.5000
v 10.0000 48.0000 -1.5000
v 1.0000 48.0000 -1.5000
v 1.0000 51.0000 1.5000
v 10.0000 51.0000 1.5000
v 10.0000 51.0000 -1.5000
v 1.0000 51.0000 -1.5000
v 9.8000 46.0000 -0.0000
v 9.5588 46.0000 -0.9000
v 8.9000 46.0000 -1.5588
v 8.0000 46.0000 -1.8000
v 7.1000 46.0000 -1.5588
v 6.4412 46.0000 -0.9000
v 6.2000 46.0000 -0.0000
v 6.4412 46.0000 0.9000
v 7.1000 46.0000 1.5588
v 8.0000 46.0000 1.8000
v 8.9000 46.0000 1.5588
v 9.5588 46.0000 0.9000
v 10.2000 68.0000 -0.0000
v 9.9053 68.0000 -1.1000
v 9.1000 68.0000 -1.9053
v 8.0000 68.0000 -2.2000
v 6.9000 68.0000 -1.9053
v 6.0947 68.0000 -1.1000
v 5.8000 68.0000 -0.0000
v 6.0947 68.0000 1.1000
v 6.9000 68.0000 1.9053
v 8.0000 68.0000 2.2000
v 9.1000 68.0000 1.9053
v 9.9053 68.0000 1.1000
v 8.0000 46.0000 0.0000
v 8.0000 68.0000 0.0000
v 10.6000 51.0000 -0.0000
v 10.2517 51.0000 -1.3000
v 9.3000 51.0000 -2.2517
v 8.0000 51.0000 -2.6000
v 6.7000 51.0000 -2.2517
v 5.7483 51.0000 -1.3000
v 5.4000 51.0000 -0.0000
v 5.7483 51.0000 1.3000
v 6.7000 51.0000 2.2517
v 8.0000 51.0000 2.6000
v 9.3000 51.0000 2.2517
v 10.2517 51.0000 1.3000
v 10.6000 53.0000 -0.0000
v 10.2517 53.0000 -1.3000
v 9.3000 53.0000 -2.2517
v 8.0000 53.0000 -2.6000
v 6.7000 53.0000 -2.2517
v 5.7483 53.0000 -1.3000
v 5.4000 53.0000 -0.0000
v 5.7483 53.0000 1.3000
v 6.7000 53.0000 2.2517
v 8.0000 53.0000 2.6000
v 9.3000 53.0000 2.2517
v 10.2517 53.0000 1.3000
v 8.0000 51.0000 0.0000
v 8.0000 53.0000 0.0000
v 10.6000 63.0000 -0.0000
v 10.2517 63.0000 -1.3000
v 9.3000 63.0000 -2.2517
v 8.0000 63.0000 -2.6000
v 6.7000 63.0000 -2.2517
v 5.7483 63.0000 -1.3000
v 5.4000 63.0000 -0.0000
v 5.7483 63.0000 1.3000
v 6.7000 63.0000 2.2517
v 8.0000 63.0000 2.6000
v 9.3000 63.0000 2.2517
v 10.2517 63.0000 1.3000
v 10.6000 65.0000 -0.0000
v 10.2517 65.0000 -1.3000
v 9.3000 65.0000 -2.2517
v 8.0000 65.0000 -2.6000
v 6.7000 65.0000 -2.2517
v 5.7483 65.0000 -1.3000
v 5.4000 65.0000 -0.0000
v 5.7483 65.0000 1.3000
v 6.7000 65.0000 2.2517
v 8.0000 65.0000 2.6000
v 9.3000 65.0000 2.2517
v 10.2517 65.0000 1.3000
v 8.0000 63.0000 0.0000
v 8.0000 65.0000 0.0000
v 10.8000 64.0000 -0.0000
v 10.4249 64.0000 -1.4000
v 9.4000 64.0000 -2.4249
v 8.0000 64.0000 -2.8000
v 6.6000 64.0000 -2.4249
v 5.5751 64.0000 -1.4000
v 5.2000 64.0000 -0.0000
v 5.5751 64.0000 1.4000
v 6.6000 64.0000 2.4249
v 8.0000 64.0000 2.8000
v 9.4000 64.0000 2.4249
v 10.4249 64.0000 1.4000
v 12.0000 68.0000 -0.0000
v 11.4641 68.0000 -2.0000
v 10.0000 68.0000 -3.4641
v 8.0000 68.0000 -4.0000
v 6.0000 68.0000 -3.4641
v 4.5359 68.0000 -2.0000
v 4.0000 68.0000 -0.0000
v 4.5359 68.0000 2.0000
v 6.0000 68.0000 3.4641
v 8.0000 68.0000 4.0000
v 10.0000 68.0000 3.4641
v 11.4641 68.0000 2.0000
v 12.0000 69.0000 -0.0000
v 11.4641 69.0000 -2.0000
v 10.0000 69.0000 -3.4641
v 8.0000 69.0000 -4.0000
v 6.0000 69.0000 -3.4641
v 4.5359 69.0000 -2.0000
v 4.0000 69.0000 -0.0000
v 4.5359 69.0000 2.0000
v 6.0000 69.0000 3.4641
v 8.0000 69.0000 4.0000
v 10.0000 69.0000 3.4641
v 11.4641 69.0000 2.0000
v 8.0000 64.0000 0.0000
v 8.0000 69.0000 0.0000
v 2.0000 46.0000 3.1000
v 2.8000 46.0000 3.1000
v 2.8000 46.0000 1.9000
v 2.0000 46.0000 1.9000
v 2.0000 47.2000 3.1000
v 2.8000 47.2000 3.1000
v 2.8000 47.2000 1.9000
v 2.0000 47.2000 1.9000
v 2.0000 60.0000 3.1000
v 2.8000 60.0000 3.1000
v 2.8000 60.0000 1.9000
v 2.0000 60.0000 1.9000
v 2.0000 61.2000 3.1000
v 2.8000 61.2000 3.1000
v 2.8000 61.2000 1.9000
v 2.0000 61.2000 1.9000
v 2.0000 46.0000 -1.9000
v 2.8000 46.0000 -1.9000
v 2.8000 46.0000 -3.1000
v 2.0000 46.0000 -3.1000
v 2.0000 47.2000 -1.9000
v 2.8000 47.2000 -1.9000
v 2.8000 47.2000 -3.1000
v 2.0000 47.2000 -3.1000
v 2.0000 60.0000 -1.9000
v 2.8000 60.0000 -1.9000
v 2.8000 60.0000 -3.1000
v 2.0000 60.0000 -3.1000
v 2.0000 61.2000 -1.9000
v 2.8000 61.2000 -1.9000
v 2.8000 61.2000 -3.1000
v 2.0000 61.2000 -3.1000
vt 0.007812 0.992188
vt 0.054688 0.992188
vt 0.054688 0.945312
vt 0.007812 0.945312
vt 0.070312 0.992188
vt 0.117188 0.992188
vt 0.117188 0.945312
vt 0.070312 0.945312
vt 0.132812 0.992188
vt 0.179688 0.992188
vt 0.179688 0.945312
vt 0.132812 0.945312
vt 0.195312 0.992188
vt 0.242188 0.992188
vt 0.242188 0.945312
vt 0.195312 0.945312
vt 0.257812 0.992188
vt 0.304688 0.992188
vt 0.304688 0.945312
vt 0.257812 0.945312
vt 0.320312 0.992188
vt 0.367188 0.992188
vt 0.367188 0.945312
vt 0.320312 0.945312
vt 0.382812 0.992188
vt 0.429688 0.992188
vt 0.429688 0.945312
vt 0.382812 0.945312
vt 0.445312 0.992188
vt 0.492188 0.992188
vt 0.492188 0.945312
vt 0.445312 0.945312
vt 0.507812 0.992188
vt 0.554688 0.992188
vt 0.554688 0.945312
vt 0.507812 0.945312
vt 0.570312 0.992188
vt 0.617188 0.992188
vt 0.617188 0.945312
vt 0.570312 0.945312
vt 0.632812 0.992188
vt 0.679688 0.992188
vt 0.679688 0.945312
vt 0.632812 0.945312
vt 0.695312 0.992188
vt 0.742188 0.992188
vt 0.742188 0.945312
vt 0.695312 0.945312
vt 0.757812 0.992188
vt 0.804688 0.992188
vt 0.804688 0.945312
vt 0.757812 0.945312
vt 0.820312 0.992188
vt 0.867188 0.992188
vt 0.867188 0.945312
vt 0.820312 0.945312
vt 0.882812 0.992188
vt 0.929688 0.992188
vt 0.929688 0.945312
vt 0.882812 0.945312
vt 0.945312 0.992188
vt 0.992188 0.992188
vt 0.992188 0.945312
vt 0.945312 0.945312
vt 0.007812 0.929688
vt 0.054688 0.929688
vt 0.054688 0.882812
vt 0.007812 0.882812
vt 0.070312 0.929688
vt 0.117188 0.929688
vt 0.117188 0.882812
vt 0.070312 0.882812
vt 0.132812 0.929688
vt 0.179688 0.929688
vt 0.179688 0.882812
vt 0.132812 0.882812
vt 0.195312 0.929688
vt 0.242188 0.929688
vt 0.242188 0.882812
vt 0.195312 0.882812
vt 0.257812 0.929688
vt 0.304688 0.929688
vt 0.304688 0.882812
vt 0.257812 0.882812
vt 0.320312 0.929688
vt 0.367188 0.929688
vt 0.367188 0.882812
vt 0.320312 0.882812
vt 0.382812 0.929688
vt 0.429688 0.929688
vt 0.429688 0.882812
vt 0.382812 0.882812
vt 0.445312 0.929688
vt 0.492188 0.929688
vt 0.492188 0.882812
vt 0.445312 0.882812
vt 0.507812 0.929688
vt 0.554688 0.929688
vt 0.554688 0.882812
vt 0.507812 0.882812
vt 0.570312 0.929688
vt 0.617188 0.929688
vt 0.617188 0.882812
vt 0.570312 0.882812
vt 0.632812 0.929688
vt 0.679688 0.929688
vt 0.679688 0.882812
vt 0.632812 0.882812
vt 0.695312 0.929688
vt 0.742188 0.929688
vt 0.742188 0.882812
vt 0.695312 0.882812
vt 0.757812 0.929688
vt 0.804688 0.929688
vt 0.804688 0.882812
vt 0.757812 0.882812
vt 0.820312 0.929688
vt 0.867188 0.929688
vt 0.867188 0.882812
vt 0.820312 0.882812
vt 0.882812 0.929688
vt 0.929688 0.929688
vt 0.929688 0.882812
vt 0.882812 0.882812
vt 0.945312 0.929688
vt 0.992188 0.929688
vt 0.992188 0.882812
vt 0.945312 0.882812
vt 0.007812 0.867188
vt 0.054688 0.867188
vt 0.054688 0.820312
vt 0.007812 0.820312
vt 0.070312 0.867188
vt 0.117188 0.867188
vt 0.117188 0.820312
vt 0.070312 0.820312
vt 0.132812 0.867188
vt 0.179688 0.867188
vt 0.179688 0.820312
vt 0.132812 0.820312
vt 0.195312 0.867188
vt 0.242188 0.867188
vt 0.242188 0.820312
vt 0.195312 0.820312
vt 0.257812 0.867188
vt 0.304688 0.867188
vt 0.304688 0.820312
vt 0.257812 0.820312
vt 0.320312 0.867188
vt 0.367188 0.867188
vt 0.367188 0.820312
vt 0.320312 0.820312
vt 0.382812 0.867188
vt 0.429688 0.867188
vt 0.429688 0.820312
vt 0.382812 0.820312
vt 0.445312 0.867188
vt 0.492188 0.867188
vt 0.492188 0.820312
vt 0.445312 0.820312
vt 0.507812 0.867188
vt 0.554688 0.867188
vt 0.554688 0.820312
vt 0.507812 0.820312
vt 0.570312 0.867188
vt 0.617188 0.867188
vt 0.617188 0.820312
vt 0.570312 0.820312
vt 0.632812 0.867188
vt 0.679688 0.867188
vt 0.679688 0.820312
vt 0.632812 0.820312
vt 0.695312 0.867188
vt 0.742188 0.867188
vt 0.742188 0.820312
vt 0.695312 0.820312
vt 0.757812 0.867188
vt 0.804688 0.867188
vt 0.804688 0.820312
vt 0.757812 0.820312
vt 0.820312 0.867188
vt 0.867188 0.867188
vt 0.867188 0.820312
vt 0.820312 0.820312
vt 0.882812 0.867188
vt 0.929688 0.867188
vt 0.929688 0.820312
vt 0.882812 0.820312
vt 0.945312 0.867188
vt 0.992188 0.867188
vt 0.992188 0.820312
vt 0.945312 0.820312
vt 0.007812 0.804688
vt 0.054688 0.804688
vt 0.054688 0.757812
vt 0.007812 0.757812
vt 0.070312 0.804688
vt 0.117188 0.804688
vt 0.117188 0.757812
vt 0.070312 0.757812
vt 0.132812 0.804688
vt 0.179688 0.804688
vt 0.179688 0.757812
vt 0.132812 0.757812
vt 0.195312 0.804688
vt 0.242188 0.804688
vt 0.242188 0.757812
vt 0.195312 0.757812
vt 0.257812 0.804688
vt 0.304688 0.804688
vt 0.304688 0.757812
vt 0.257812 0.757812
vt 0.320312 0.804688
vt 0.367188 0.804688
vt 0.367188 0.757812
vt 0.320312 0.757812
vt 0.382812 0.804688
vt 0.429688 0.804688
vt 0.429688 0.757812
vt 0.382812 0.757812
vt 0.445312 0.804688
vt 0.492188 0.804688
vt 0.492188 0.757812
vt 0.445312 0.757812
vt 0.507812 0.804688
vt 0.554688 0.804688
vt 0.554688 0.757812
vt 0.507812 0.757812
vt 0.570312 0.804688
vt 0.617188 0.804688
vt 0.617188 0.757812
vt 0.570312 0.757812
vt 0.632812 0.804688
vt 0.679688 0.804688
vt 0.679688 0.757812
vt 0.632812 0.757812
vt 0.695312 0.804688
vt 0.742188 0.804688
vt 0.742188 0.757812
vt 0.695312 0.757812
vt 0.757812 0.804688
vt 0.804688 0.804688
vt 0.804688 0.757812
vt 0.757812 0.757812
vt 0.820312 0.804688
vt 0.867188 0.804688
vt 0.867188 0.757812
vt 0.820312 0.757812
vt 0.882812 0.804688
vt 0.929688 0.804688
vt 0.929688 0.757812
vt 0.882812 0.757812
vt 0.945312 0.804688
vt 0.992188 0.804688
vt 0.992188 0.757812
vt 0.945312 0.757812
vt 0.007812 0.742188
vt 0.054688 0.742188
vt 0.054688 0.695312
vt 0.007812 0.695312
vt 0.070312 0.742188
vt 0.117188 0.742188
vt 0.117188 0.695312
vt 0.070312 0.695312
vt 0.132812 0.742188
vt 0.179688 0.742188
vt 0.179688 0.695312
vt 0.132812 0.695312
vt 0.195312 0.742188
vt 0.242188 0.742188
vt 0.242188 0.695312
vt 0.195312 0.695312
vt 0.257812 0.742188
vt 0.304688 0.742188
vt 0.304688 0.695312
vt 0.257812 0.695312
vt 0.320312 0.742188
vt 0.367188 0.742188
vt 0.367188 0.695312
vt 0.320312 0.695312
vt 0.382812 0.742188
vt 0.429688 0.742188
vt 0.429688 0.695312
vt 0.382812 0.695312
vt 0.445312 0.742188
vt 0.492188 0.742188
vt 0.492188 0.695312
vt 0.445312 0.695312
vt 0.507812 0.742188
vt 0.554688 0.742188
vt 0.554688 0.695312
vt 0.507812 0.695312
vt 0.570312 0.742188
vt 0.617188 0.742188
vt 0.617188 0.695312
vt 0.570312 0.695312
vt 0.632812 0.742188
vt 0.679688 0.742188
vt 0.679688 0.695312
vt 0.632812 0.695312
vt 0.695312 0.742188
vt 0.742188 0.742188
vt 0.742188 0.695312
vt 0.695312 0.695312
vt 0.757812 0.742188
vt 0.804688 0.742188
vt 0.804688 0.695312
vt 0.757812 0.695312
vt 0.820312 0.742188
vt 0.867188 0.742188
vt 0.867188 0.695312
vt 0.820312 0.695312
vt 0.882812 0.742188
vt 0.929688 0.742188
vt 0.929688 0.695312
vt 0.882812 0.695312
vt 0.945312 0.742188
vt 0.992188 0.742188
vt 0.992188 0.695312
vt 0.945312 0.695312
vt 0.007812 0.679688
vt 0.054688 0.679688
vt 0.054688 0.632812
vt 0.007812 0.632812
vt 0.070312 0.679688
vt 0.117188 0.679688
vt 0.117188 0.632812
vt 0.070312 0.632812
vt 0.132812 0.679688
vt 0.179688 0.679688
vt 0.179688 0.632812
vt 0.132812 0.632812
vt 0.195312 0.679688
vt 0.242188 0.679688
vt 0.242188 0.632812
vt 0.195312 0.632812
vt 0.257812 0.679688
vt 0.304688 0.679688
vt 0.304688 0.632812
vt 0.257812 0.632812
vt 0.320312 0.679688
vt 0.367188 0.679688
vt 0.367188 0.632812
vt 0.320312 0.632812
vt 0.382812 0.679688
vt 0.429688 0.679688
vt 0.429688 0.632812
vt 0.382812 0.632812
vt 0.445312 0.679688
vt 0.492188 0.679688
vt 0.492188 0.632812
vt 0.445312 0.632812
vt 0.507812 0.679688
vt 0.554688 0.679688
vt 0.554688 0.632812
vt 0.507812 0.632812
vt 0.570312 0.679688
vt 0.617188 0.679688
vt 0.617188 0.632812
vt 0.570312 0.632812
vt 0.632812 0.679688
vt 0.679688 0.679688
vt 0.679688 0.632812
vt 0.632812 0.632812
vt 0.695312 0.679688
vt 0.742188 0.679688
vt 0.742188 0.632812
vt 0.695312 0.632812
vt 0.757812 0.679688
vt 0.804688 0.679688
vt 0.804688 0.632812
vt 0.757812 0.632812
vt 0.820312 0.679688
vt 0.867188 0.679688
vt 0.867188 0.632812
vt 0.820312 0.632812
vt 0.882812 0.679688
vt 0.929688 0.679688
vt 0.929688 0.632812
vt 0.882812 0.632812
vt 0.945312 0.679688
vt 0.992188 0.679688
vt 0.992188 0.632812
vt 0.945312 0.632812
vt 0.007812 0.617188
vt 0.054688 0.617188
vt 0.054688 0.570312
vt 0.007812 0.570312
vt 0.070312 0.617188
vt 0.117188 0.617188
vt 0.117188 0.570312
vt 0.070312 0.570312
vt 0.132812 0.617188
vt 0.179688 0.617188
vt 0.179688 0.570312
vt 0.132812 0.570312
vt 0.195312 0.617188
vt 0.242188 0.617188
vt 0.242188 0.570312
vt 0.195312 0.570312
vt 0.257812 0.617188
vt 0.304688 0.617188
vt 0.304688 0.570312
vt 0.257812 0.570312
vt 0.320312 0.617188
vt 0.367188 0.617188
vt 0.367188 0.570312
vt 0.320312 0.570312
vt 0.382812 0.617188
vt 0.429688 0.617188
vt 0.429688 0.570312
vt 0.382812 0.570312
vt 0.445312 0.617188
vt 0.492188 0.617188
vt 0.492188 0.570312
vt 0.445312 0.570312
vt 0.507812 0.617188
vt 0.554688 0.617188
vt 0.554688 0.570312
vt 0.507812 0.570312
vt 0.570312 0.617188
vt 0.617188 0.617188
vt 0.617188 0.570312
vt 0.570312 0.570312
vt 0.632812 0.617188
vt 0.679688 0.617188
vt 0.679688 0.570312
vt 0.632812 0.570312
vt 0.695312 0.617188
vt 0.742188 0.617188
vt 0.742188 0.570312
vt 0.695312 0.570312
vt 0.757812 0.617188
vt 0.804688 0.617188
vt 0.804688 0.570312
vt 0.757812 0.570312
vt 0.820312 0.617188
vt 0.867188 0.617188
vt 0.867188 0.570312
vt 0.820312 0.570312
vt 0.882812 0.617188
vt 0.929688 0.617188
vt 0.929688 0.570312
vt 0.882812 0.570312
vt 0.945312 0.617188
vt 0.992188 0.617188
vt 0.992188 0.570312
vt 0.945312 0.570312
vt 0.007812 0.554688
vt 0.054688 0.554688
vt 0.054688 0.507812
vt 0.007812 0.507812
vt 0.070312 0.554688
vt 0.117188 0.554688
vt 0.117188 0.507812
vt 0.070312 0.507812
vt 0.132812 0.554688
vt 0.179688 0.554688
vt 0.179688 0.507812
vt 0.132812 0.507812
vt 0.195312 0.554688
vt 0.242188 0.554688
vt 0.242188 0.507812
vt 0.195312 0.507812
vt 0.257812 0.554688
vt 0.304688 0.554688
vt 0.304688 0.507812
vt 0.257812 0.507812
vt 0.320312 0.554688
vt 0.367188 0.554688
vt 0.367188 0.507812
vt 0.320312 0.507812
vt 0.382812 0.554688
vt 0.429688 0.554688
vt 0.429688 0.507812
vt 0.382812 0.507812
vt 0.445312 0.554688
vt 0.492188 0.554688
vt 0.492188 0.507812
vt 0.445312 0.507812
vt 0.507812 0.554688
vt 0.554688 0.554688
vt 0.554688 0.507812
vt 0.507812 0.507812
vt 0.570312 0.554688
vt 0.617188 0.554688
vt 0.617188 0.507812
vt 0.570312 0.507812
vt 0.632812 0.554688
vt 0.679688 0.554688
vt 0.679688 0.507812
vt 0.632812 0.507812
vt 0.695312 0.554688
vt 0.742188 0.554688
vt 0.742188 0.507812
vt 0.695312 0.507812
vt 0.757812 0.554688
vt 0.804688 0.554688
vt 0.804688 0.507812
vt 0.757812 0.507812
vt 0.820312 0.554688
vt 0.867188 0.554688
vt 0.867188 0.507812
vt 0.820312 0.507812
vt 0.882812 0.554688
vt 0.929688 0.554688
vt 0.929688 0.507812
vt 0.882812 0.507812
vt 0.945312 0.554688
vt 0.992188 0.554688
vt 0.992188 0.507812
vt 0.945312 0.507812
vt 0.007812 0.492188
vt 0.054688 0.492188
vt 0.054688 0.445312
vt 0.007812 0.445312
vt 0.070312 0.492188
vt 0.117188 0.492188
vt 0.117188 0.445312
vt 0.070312 0.445312
vt 0.132812 0.492188
vt 0.179688 0.492188
vt 0.179688 0.445312
vt 0.132812 0.445312
vt 0.195312 0.492188
vt 0.242188 0.492188
vt 0.242188 0.445312
vt 0.195312 0.445312
vt 0.257812 0.492188
vt 0.304688 0.492188
vt 0.304688 0.445312
vt 0.257812 0.445312
vt 0.320312 0.492188
vt 0.367188 0.492188
vt 0.367188 0.445312
vt 0.320312 0.445312
vt 0.382812 0.492188
vt 0.429688 0.492188
vt 0.429688 0.445312
vt 0.382812 0.445312
vt 0.445312 0.492188
vt 0.492188 0.492188
vt 0.492188 0.445312
vt 0.445312 0.445312
vt 0.507812 0.492188
vt 0.554688 0.492188
vt 0.554688 0.445312
vt 0.507812 0.445312
vt 0.570312 0.492188
vt 0.617188 0.492188
vt 0.617188 0.445312
vt 0.570312 0.445312
vt 0.632812 0.492188
vt 0.679688 0.492188
vt 0.679688 0.445312
vt 0.632812 0.445312
vt 0.695312 0.492188
vt 0.742188 0.492188
vt 0.742188 0.445312
vt 0.695312 0.445312
vt 0.757812 0.492188
vt 0.804688 0.492188
vt 0.804688 0.445312
vt 0.757812 0.445312
vt 0.820312 0.492188
vt 0.867188 0.492188
vt 0.867188 0.445312
vt 0.820312 0.445312
vt 0.882812 0.492188
vt 0.929688 0.492188
vt 0.929688 0.445312
vt 0.882812 0.445312
vt 0.945312 0.492188
vt 0.992188 0.492188
vt 0.992188 0.445312
vt 0.945312 0.445312
vt 0.007812 0.429688
vt 0.054688 0.429688
vt 0.054688 0.382812
vt 0.007812 0.382812
vt 0.070312 0.429688
vt 0.117188 0.429688
vt 0.117188 0.382812
vt 0.070312 0.382812
vt 0.132812 0.429688
vt 0.179688 0.429688
vt 0.179688 0.382812
vt 0.132812 0.382812
vt 0.195312 0.429688
vt 0.242188 0.429688
vt 0.242188 0.382812
vt 0.195312 0.382812
vt 0.257812 0.429688
vt 0.304688 0.429688
vt 0.304688 0.382812
vt 0.257812 0.382812
vt 0.320312 0.429688
vt 0.367188 0.429688
vt 0.367188 0.382812
vt 0.320312 0.382812
vt 0.382812 0.429688
vt 0.429688 0.429688
vt 0.429688 0.382812
vt 0.382812 0.382812
vt 0.445312 0.429688
vt 0.492188 0.429688
vt 0.492188 0.382812
vt 0.445312 0.382812
vt 0.507812 0.429688
vt 0.554688 0.429688
vt 0.554688 0.382812
vt 0.507812 0.382812
vt 0.570312 0.429688
vt 0.617188 0.429688
vt 0.617188 0.382812
vt 0.570312 0.382812
vt 0.632812 0.429688
vt 0.679688 0.429688
vt 0.679688 0.382812
vt 0.632812 0.382812
vt 0.695312 0.429688
vt 0.742188 0.429688
vt 0.742188 0.382812
vt 0.695312 0.382812
vt 0.757812 0.429688
vt 0.804688 0.429688
vt 0.804688 0.382812
vt 0.757812 0.382812
vt 0.820312 0.429688
vt 0.867188 0.429688
vt 0.867188 0.382812
vt 0.820312 0.382812
vt 0.882812 0.429688
vt 0.929688 0.429688
vt 0.929688 0.382812
vt 0.882812 0.382812
vt 0.945312 0.429688
vt 0.992188 0.429688
vt 0.992188 0.382812
vt 0.945312 0.382812
vt 0.007812 0.367188
vt 0.054688 0.367188
vt 0.054688 0.320312
vt 0.007812 0.320312
vt 0.070312 0.367188
vt 0.117188 0.367188
vt 0.117188 0.320312
vt 0.070312 0.320312
vt 0.132812 0.367188
vt 0.179688 0.367188
vt 0.179688 0.320312
vt 0.132812 0.320312
vt 0.195312 0.367188
vt 0.242188 0.367188
vt 0.242188 0.320312
vt 0.195312 0.320312
vt 0.257812 0.367188
vt 0.304688 0.367188
vt 0.304688 0.320312
vt 0.257812 0.320312
vt 0.320312 0.367188
vt 0.367188 0.367188
vt 0.367188 0.320312
vt 0.320312 0.320312
vt 0.382812 0.367188
vt 0.429688 0.367188
vt 0.429688 0.320312
vt 0.382812 0.320312
vt 0.445312 0.367188
vt 0.492188 0.367188
vt 0.492188 0.320312
vt 0.445312 0.320312
vt 0.507812 0.367188
vt 0.554688 0.367188
vt 0.554688 0.320312
vt 0.507812 0.320312
vt 0.570312 0.367188
vt 0.617188 0.367188
vt 0.617188 0.320312
vt 0.570312 0.320312
vt 0.632812 0.367188
vt 0.679688 0.367188
vt 0.679688 0.320312
vt 0.632812 0.320312
vt 0.695312 0.367188
vt 0.742188 0.367188
vt 0.742188 0.320312
vt 0.695312 0.320312
vt 0.757812 0.367188
vt 0.804688 0.367188
vt 0.804688 0.320312
vt 0.757812 0.320312
vt 0.820312 0.367188
vt 0.867188 0.367188
vt 0.867188 0.320312
vt 0.820312 0.320312
vt 0.882812 0.367188
vt 0.929688 0.367188
vt 0.929688 0.320312
vt 0.882812 0.320312
vt 0.945312 0.367188
vt 0.992188 0.367188
vt 0.992188 0.320312
vt 0.945312 0.320312
vt 0.007812 0.304688
vt 0.054688 0.304688
vt 0.054688 0.257812
vt 0.007812 0.257812
vt 0.070312 0.304688
vt 0.117188 0.304688
vt 0.117188 0.257812
vt 0.070312 0.257812
vt 0.132812 0.304688
vt 0.179688 0.304688
vt 0.179688 0.257812
vt 0.132812 0.257812
vt 0.195312 0.304688
vt 0.242188 0.304688
vt 0.242188 0.257812
vt 0.195312 0.257812
vt 0.257812 0.304688
vt 0.304688 0.304688
vt 0.304688 0.257812
vt 0.257812 0.257812
vt 0.320312 0.304688
vt 0.367188 0.304688
vt 0.367188 0.257812
vt 0.320312 0.257812
vt 0.382812 0.304688
vt 0.429688 0.304688
vt 0.429688 0.257812
vt 0.382812 0.257812
vt 0.445312 0.304688
vt 0.492188 0.304688
vt 0.492188 0.257812
vt 0.445312 0.257812
vt 0.507812 0.304688
vt 0.554688 0.304688
vt 0.554688 0.257812
vt 0.507812 0.257812
vt 0.570312 0.304688
vt 0.617188 0.304688
vt 0.617188 0.257812
vt 0.570312 0.257812
vt 0.632812 0.304688
vt 0.679688 0.304688
vt 0.679688 0.257812
vt 0.632812 0.257812
vt 0.695312 0.304688
vt 0.742188 0.304688
vt 0.742188 0.257812
vt 0.695312 0.257812
vt 0.757812 0.304688
vt 0.804688 0.304688
vt 0.804688 0.257812
vt 0.757812 0.257812
vt 0.820312 0.304688
vt 0.867188 0.304688
vt 0.867188 0.257812
vt 0.820312 0.257812
vt 0.882812 0.304688
vt 0.929688 0.304688
vt 0.929688 0.257812
vt 0.882812 0.257812
vt 0.945312 0.304688
vt 0.992188 0.304688
vt 0.992188 0.257812
vt 0.945312 0.257812
f 1/1 4/2 3/3 2/4
f 5/5 6/6 7/7 8/8
f 1/9 2/10 6/11 5/12
f 2/13 3/14 7/15 6/16
f 3/17 4/18 8/19 7/20
f 4/21 1/22 5/23 8/24
f 9/25 12/26 11/27 10/28
f 13/29 14/30 15/31 16/32
f 9/33 10/34 14/35 13/36
f 10/37 11/38 15/39 14/40
f 11/41 12/42 16/43 15/44
f 12/45 9/46 13/47 16/48
f 17/49 18/50 30/51 29/52
f 18/53 19/54 31/55 30/56
f 19/57 20/58 32/59 31/60
f 20/61 21/62 33/63 32/64
f 21/65 22/66 34/67 33/68
f 22/69 23/70 35/71 34/72
f 23/73 24/74 36/75 35/76
f 24/77 25/78 37/79 36/80
f 25/81 26/82 38/83 37/84
f 26/85 27/86 39/87 38/88
f 27/89 28/90 40/91 39/92
f 28/93 17/94 29/95 40/96
f 41/97 18/98 17/99
f 42/101 29/102 30/103
f 41/105 19/106 18/107
f 42/109 30/110 31/111
f 41/113 20/114 19/115
f 42/117 31/118 32/119
f 41/121 21/122 20/123
f 42/125 32/126 33/127
f 41/129 22/130 21/131
f 42/133 33/134 34/135
f 41/137 23/138 22/139
f 42/141 34/142 35/143
f 41/145 24/146 23/147
f 42/149 35/150 36/151
f 41/153 25/154 24/155
f 42/157 36/158 37/159
f 41/161 26/162 25/163
f 42/165 37/166 38/167
f 41/169 27/170 26/171
f 42/173 38/174 39/175
f 41/177 28/178 27/179
f 42/181 39/182 40/183
f 41/185 17/186 28/187
f 42/189 40/190 29/191
f 43/193 44/194 56/195 55/196
f 44/197 45/198 57/199 56/200
f 45/201 46/202 58/203 57/204
f 46/205 47/206 59/207 58/208
f 47/209 48/210 60/211 59/212
f 48/213 49/214 61/215 60/216
f 49/217 50/218 62/219 61/220
f 50/221 51/222 63/223 62/224
f 51/225 52/226 64/227 63/228
f 52/229 53/230 65/231 64/232
f 53/233 54/234 66/235 65/236
f 54/237 43/238 55/239 66/240
f 67/241 44/242 43/243
f 68/245 55/246 56/247
f 67/249 45/250 44/251
f 68/253 56/254 57/255
f 67/257 46/258 45/259
f 68/261 57/262 58/263
f 67/265 47/266 46/267
f 68/269 58/270 59/271
f 67/273 48/274 47/275
f 68/277 59/278 60/279
f 67/281 49/282 48/283
f 68/285 60/286 61/287
f 67/289 50/290 49/291
f 68/293 61/294 62/295
f 67/297 51/298 50/299
f 68/301 62/302 63/303
f 67/305 52/306 51/307
f 68/309 63/310 64/311
f 67/313 53/314 52/315
f 68/317 64/318 65/319
f 67/321 54/322 53/323
f 68/325 65/326 66/327
f 67/329 43/330 54/331
f 68/333 66/334 55/335
f 69/337 70/338 82/339 81/340
f 70/341 71/342 83/343 82/344
f 71/345 72/346 84/347 83/348
f 72/349 73/350 85/351 84/352
f 73/353 74/354 86/355 85/356
f 74/357 75/358 87/359 86/360
f 75/361 76/362 88/363 87/364
f 76/365 77/366 89/367 88/368
f 77/369 78/370 90/371 89/372
f 78/373 79/374 91/375 90/376
f 79/377 80/378 92/379 91/380
f 80/381 69/382 81/383 92/384
f 93/385 70/386 69/387
f 94/389 81/390 82/391
f 93/393 71/394 70/395
f 94/397 82/398 83/399
f 93/401 72/402 71/403
f 94/405 83/406 84/407
f 93/409 73/410 72/411
f 94/413 84/414 85/415
f 93/417 74/418 73/419
f 94/421 85/422 86/423
f 93/425 75/426 74/427
f 94/429 86/430 87/431
f 93/433 76/434 75/435
f 94/437 87/438 88/439
f 93/441 77/442 76/443
f 94/445 88/446 89/447
f 93/449 78/450 77/451
f 94/453 89/454 90/455
f 93/457 79/458 78/459
f 94/461 90/462 91/463
f 93/465 80/466 79/467
f 94/469 91/470 92/471
f 93/473 69/474 80/475
f 94/477 92/478 81/479
f 95/481 96/482 108/483 107/484
f 96/485 97/486 109/487 108/488
f 97/489 98/490 110/491 109/492
f 98/493 99/494 111/495 110/496
f 99/497 100/498 112/499 111/500
f 100/501 101/502 113/503 112/504
f 101/505 102/506 114/507 113/508
f 102/509 103/510 115/511 114/512
f 103/513 104/514 116/515 115/516
f 104/517 105/518 117/519 116/520
f 105/521 106/522 118/523 117/524
f 106/525 95/526 107/527 118/528
f 107/529 108/530 120/531 119/532
f 108/533 109/534 121/535 120/536
f 109/537 110/538 122/539 121/540
f 110/541 111/542 123/543 122/544
f 111/545 112/546 124/547 123/548
f 112/549 113/550 125/551 124/552
f 113/553 114/554 126/555 125/556
f 114/557 115/558 127/559 126/560
f 115/561 116/562 128/563 127/564
f 116/565 117/566 129/567 128/568
f 117/569 118/570 130/571 129/572
f 118/573 107/574 119/575 130/576
f 131/577 96/578 95/579
f 132/581 119/582 120/583
f 131/585 97/586 96/587
f 132/589 120/590 121/591
f 131/593 98/594 97/595
f 132/597 121/598 122/599
f 131/601 99/602 98/603
f 132/605 122/606 123/607
f 131/609 100/610 99/611
f 132/613 123/614 124/615
f 131/617 101/618 100/619
f 132/621 124/622 125/623
f 131/625 102/626 101/627
f 132/629 125/630 126/631
f 131/633 103/634 102/635
f 132/637 126/638 127/639
f 131/641 104/642 103/643
f 132/645 127/646 128/647
f 131/649 105/650 104/651
f 132/653 128/654 129/655
f 131/657 106/658 105/659
f 132/661 129/662 130/663
f 131/665 95/666 106/667
f 132/669 130/670 119/671
f 133/673 136/674 135/675 134/676
f 137/677 138/678 139/679 140/680
f 133/681 134/682 138/683 137/684
f 134/685 135/686 139/687 138/688
f 135/689 136/690 140/691 139/692
f 136/693 133/694 137/695 140/696
f 141/697 144/698 143/699 142/700
f 145/701 146/702 147/703 148/704
f 141/705 142/706 146/707 145/708
f 142/709 143/710 147/711 146/712
f 143/713 144/714 148/715 147/716
f 144/717 141/718 145/719 148/720
f 149/721 152/722 151/723 150/724
f 153/725 154/726 155/727 156/728
f 149/729 150/730 154/731 153/732
f 150/733 151/734 155/735 154/736
f 151/737 152/738 156/739 155/740
f 152/741 149/742 153/743 156/744
f 157/745 160/746 159/747 158/748
f 161/749 162/750 163/751 164/752
f 157/753 158/754 162/755 161/756
f 158/757 159/758 163/759 162/760
f 159/761 160/762 164/763 163/764
f 160/765 157/766 161/767 164/768
