# Project Broom original creature MK_MIRRORED_TOTEM; CC-BY-SA-4.0
# OBJ axes X=forward Y=up Z=-BlenderY; one diffuse skin via MODELDEF
o Shoulder_high_prism
v -11.678832 0.000000 0.000000
v -5.839416 0.000000 11.678832
v 5.839416 0.000000 11.678832
v 11.678832 0.000000 0.000000
v 5.839416 0.000000 -11.678832
v -5.839416 0.000000 -11.678832
v -11.678832 0.000000 -0.000000
v -11.678832 46.000000 0.000000
v -5.839416 46.000000 11.678832
v 5.839416 46.000000 11.678832
v 11.678832 46.000000 0.000000
v 5.839416 46.000000 -11.678832
v -5.839416 46.000000 -11.678832
v -11.678832 46.000000 -0.000000
v 0.000000 0.000000 0.000000
v 0.000000 46.000000 0.000000
vt 0.6132812 0.1679688
vt 0.6132812 0.1412760
vt 0.6132812 0.1145833
vt 0.6132812 0.0878906
vt 0.6132812 0.0611979
vt 0.6132812 0.0345052
vt 0.6132812 0.0078125
vt 0.7851562 0.1679688
vt 0.7851562 0.1412760
vt 0.7851562 0.1145833
vt 0.7851562 0.0878906
vt 0.7851562 0.0611979
vt 0.7851562 0.0345052
vt 0.7851562 0.0078125
vt 0.6132812 0.0878906
vt 0.7851562 0.0878906
vn -0.9729274 -0.1646762 0.1621546
vn -0.3649578 -0.1853165 0.9123944
vn 0.6959802 -0.1767008 0.6959802
vn 0.9729274 -0.1646762 -0.1621546
vn 0.3649578 -0.1853165 -0.9123944
vn -0.6959802 -0.1767008 -0.6959802
vn -0.9729274 -0.1646762 0.1621546
vn -0.9729274 0.1646762 -0.1621546
vn -0.6959802 0.1767008 0.6959802
vn 0.3649578 0.1853165 0.9123944
vn 0.9729274 0.1646762 0.1621546
vn 0.6959802 0.1767008 -0.6959802
vn -0.3649578 0.1853165 -0.9123944
vn -0.9729274 0.1646762 -0.1621546
vn 0.0000000 -1.0000000 -0.0000000
vn 0.0000000 1.0000000 -0.0000000
s 1
f 1/1/1 2/2/2 9/9/9
f 1/1/1 9/9/9 8/8/8
f 2/2/2 3/3/3 10/10/10
f 2/2/2 10/10/10 9/9/9
f 3/3/3 4/4/4 11/11/11
f 3/3/3 11/11/11 10/10/10
f 4/4/4 5/5/5 12/12/12
f 4/4/4 12/12/12 11/11/11
f 5/5/5 6/6/6 13/13/13
f 5/5/5 13/13/13 12/12/12
f 6/6/6 7/7/7 14/14/14
f 6/6/6 14/14/14 13/13/13
f 15/15/15 2/2/2 1/1/1
f 15/15/15 3/3/3 2/2/2
f 15/15/15 4/4/4 3/3/3
f 15/15/15 5/5/5 4/4/4
f 15/15/15 6/6/6 5/5/5
f 15/15/15 7/7/7 6/6/6
f 16/16/16 8/8/8 9/9/9
f 16/16/16 9/9/9 10/10/10
f 16/16/16 10/10/10 11/11/11
f 16/16/16 11/11/11 12/12/12
f 16/16/16 12/12/12 13/13/13
f 16/16/16 13/13/13 14/14/14
o Mirror_edge_0
v 11.357664 0.000000 0.000000
v 11.518248 0.000000 0.321168
v 11.839416 0.000000 0.321168
v 12.000000 0.000000 0.000000
v 11.839416 0.000000 -0.321168
v 11.518248 0.000000 -0.321168
v 11.357664 0.000000 0.000000
v 11.357664 46.000000 0.000000
v 11.518248 46.000000 0.321168
v 11.839416 46.000000 0.321168
v 12.000000 46.000000 0.000000
v 11.839416 46.000000 -0.321168
v 11.518248 46.000000 -0.321168
v 11.357664 46.000000 0.000000
v 11.678832 0.000000 0.000000
v 11.678832 46.000000 0.000000
vt 0.8164062 0.1679688
vt 0.8164062 0.1412760
vt 0.8164062 0.1145833
vt 0.8164062 0.0878906
vt 0.8164062 0.0611979
vt 0.8164062 0.0345052
vt 0.8164062 0.0078125
vt 0.9921875 0.1679688
vt 0.9921875 0.1412760
vt 0.9921875 0.1145833
vt 0.9921875 0.0878906
vt 0.9921875 0.0611979
vt 0.9921875 0.0345052
vt 0.9921875 0.0078125
vt 0.8164062 0.0878906
vt 0.9921875 0.0878906
vn -0.9863835 -0.0045912 0.1643973
vn -0.3713857 -0.0051860 0.9284642
vn 0.7070982 -0.0049369 0.7070982
vn 0.9863835 -0.0045912 -0.1643973
vn 0.3713857 -0.0051860 -0.9284642
vn -0.7070982 -0.0049369 -0.7070982
vn -0.9863835 -0.0045912 0.1643973
vn -0.9863835 0.0045912 -0.1643973
vn -0.7070982 0.0049369 0.7070982
vn 0.3713857 0.0051860 0.9284642
vn 0.9863835 0.0045912 0.1643973
vn 0.7070982 0.0049369 -0.7070982
vn -0.3713857 0.0051860 -0.9284642
vn -0.9863835 0.0045912 -0.1643973
vn 0.0000000 -1.0000000 -0.0000000
vn 0.0000000 1.0000000 -0.0000000
s 1
f 17/17/17 18/18/18 25/25/25
f 17/17/17 25/25/25 24/24/24
f 18/18/18 19/19/19 26/26/26
f 18/18/18 26/26/26 25/25/25
f 19/19/19 20/20/20 27/27/27
f 19/19/19 27/27/27 26/26/26
f 20/20/20 21/21/21 28/28/28
f 20/20/20 28/28/28 27/27/27
f 21/21/21 22/22/22 29/29/29
f 21/21/21 29/29/29 28/28/28
f 22/22/22 23/23/23 30/30/30
f 22/22/22 30/30/30 29/29/29
f 31/31/31 18/18/18 17/17/17
f 31/31/31 19/19/19 18/18/18
f 31/31/31 20/20/20 19/19/19
f 31/31/31 21/21/21 20/20/20
f 31/31/31 22/22/22 21/21/21
f 31/31/31 23/23/23 22/22/22
f 32/32/32 24/24/24 25/25/25
f 32/32/32 25/25/25 26/26/26
f 32/32/32 26/26/26 27/27/27
f 32/32/32 27/27/27 28/28/28
f 32/32/32 28/28/28 29/29/29
f 32/32/32 29/29/29 30/30/30
o Mirror_edge_1
v 5.518248 0.000000 -11.678832
v 5.678832 0.000000 -11.357664
v 6.000000 0.000000 -11.357664
v 6.160584 0.000000 -11.678832
v 6.000000 0.000000 -12.000000
v 5.678832 0.000000 -12.000000
v 5.518248 0.000000 -11.678832
v 5.518248 46.000000 -11.678832
v 5.678832 46.000000 -11.357664
v 6.000000 46.000000 -11.357664
v 6.160584 46.000000 -11.678832
v 6.000000 46.000000 -12.000000
v 5.678832 46.000000 -12.000000
v 5.518248 46.000000 -11.678832
v 5.839416 0.000000 -11.678832
v 5.839416 46.000000 -11.678832
vt 0.8164062 0.1679688
vt 0.8164062 0.1412760
vt 0.8164062 0.1145833
vt 0.8164062 0.0878906
vt 0.8164062 0.0611979
vt 0.8164062 0.0345052
vt 0.8164062 0.0078125
vt 0.9921875 0.1679688
vt 0.9921875 0.1412760
vt 0.9921875 0.1145833
vt 0.9921875 0.0878906
vt 0.9921875 0.0611979
vt 0.9921875 0.0345052
vt 0.9921875 0.0078125
vt 0.8164062 0.0878906
vt 0.9921875 0.0878906
vn -0.9863835 -0.0045912 0.1643973
vn -0.3713857 -0.0051860 0.9284642
vn 0.7070982 -0.0049369 0.7070982
vn 0.9863835 -0.0045912 -0.1643973
vn 0.3713857 -0.0051860 -0.9284642
vn -0.7070982 -0.0049369 -0.7070982
vn -0.9863835 -0.0045912 0.1643973
vn -0.9863835 0.0045912 -0.1643973
vn -0.7070982 0.0049369 0.7070982
vn 0.3713857 0.0051860 0.9284642
vn 0.9863835 0.0045912 0.1643973
vn 0.7070982 0.0049369 -0.7070982
vn -0.3713857 0.0051860 -0.9284642
vn -0.9863835 0.0045912 -0.1643973
vn 0.0000000 -1.0000000 -0.0000000
vn 0.0000000 1.0000000 -0.0000000
s 1
f 33/33/33 34/34/34 41/41/41
f 33/33/33 41/41/41 40/40/40
f 34/34/34 35/35/35 42/42/42
f 34/34/34 42/42/42 41/41/41
f 35/35/35 36/36/36 43/43/43
f 35/35/35 43/43/43 42/42/42
f 36/36/36 37/37/37 44/44/44
f 36/36/36 44/44/44 43/43/43
f 37/37/37 38/38/38 45/45/45
f 37/37/37 45/45/45 44/44/44
f 38/38/38 39/39/39 46/46/46
f 38/38/38 46/46/46 45/45/45
f 47/47/47 34/34/34 33/33/33
f 47/47/47 35/35/35 34/34/34
f 47/47/47 36/36/36 35/35/35
f 47/47/47 37/37/37 36/36/36
f 47/47/47 38/38/38 37/37/37
f 47/47/47 39/39/39 38/38/38
f 48/48/48 40/40/40 41/41/41
f 48/48/48 41/41/41 42/42/42
f 48/48/48 42/42/42 43/43/43
f 48/48/48 43/43/43 44/44/44
f 48/48/48 44/44/44 45/45/45
f 48/48/48 45/45/45 46/46/46
o Mirror_edge_2
v -6.160584 0.000000 -11.678832
v -6.000000 0.000000 -11.357664
v -5.678832 0.000000 -11.357664
v -5.518248 0.000000 -11.678832
v -5.678832 0.000000 -12.000000
v -6.000000 0.000000 -12.000000
v -6.160584 0.000000 -11.678832
v -6.160584 46.000000 -11.678832
v -6.000000 46.000000 -11.357664
v -5.678832 46.000000 -11.357664
v -5.518248 46.000000 -11.678832
v -5.678832 46.000000 -12.000000
v -6.000000 46.000000 -12.000000
v -6.160584 46.000000 -11.678832
v -5.839416 0.000000 -11.678832
v -5.839416 46.000000 -11.678832
vt 0.8164062 0.1679688
vt 0.8164062 0.1412760
vt 0.8164062 0.1145833
vt 0.8164062 0.0878906
vt 0.8164062 0.0611979
vt 0.8164062 0.0345052
vt 0.8164062 0.0078125
vt 0.9921875 0.1679688
vt 0.9921875 0.1412760
vt 0.9921875 0.1145833
vt 0.9921875 0.0878906
vt 0.9921875 0.0611979
vt 0.9921875 0.0345052
vt 0.9921875 0.0078125
vt 0.8164062 0.0878906
vt 0.9921875 0.0878906
vn -0.9863835 -0.0045912 0.1643973
vn -0.3713857 -0.0051860 0.9284642
vn 0.7070982 -0.0049369 0.7070982
vn 0.9863835 -0.0045912 -0.1643973
vn 0.3713857 -0.0051860 -0.9284642
vn -0.7070982 -0.0049369 -0.7070982
vn -0.9863835 -0.0045912 0.1643973
vn -0.9863835 0.0045912 -0.1643973
vn -0.7070982 0.0049369 0.7070982
vn 0.3713857 0.0051860 0.9284642
vn 0.9863835 0.0045912 0.1643973
vn 0.7070982 0.0049369 -0.7070982
vn -0.3713857 0.0051860 -0.9284642
vn -0.9863835 0.0045912 -0.1643973
vn 0.0000000 -1.0000000 -0.0000000
vn 0.0000000 1.0000000 -0.0000000
s 1
f 49/49/49 50/50/50 57/57/57
f 49/49/49 57/57/57 56/56/56
f 50/50/50 51/51/51 58/58/58
f 50/50/50 58/58/58 57/57/57
f 51/51/51 52/52/52 59/59/59
f 51/51/51 59/59/59 58/58/58
f 52/52/52 53/53/53 60/60/60
f 52/52/52 60/60/60 59/59/59
f 53/53/53 54/54/54 61/61/61
f 53/53/53 61/61/61 60/60/60
f 54/54/54 55/55/55 62/62/62
f 54/54/54 62/62/62 61/61/61
f 63/63/63 50/50/50 49/49/49
f 63/63/63 51/51/51 50/50/50
f 63/63/63 52/52/52 51/51/51
f 63/63/63 53/53/53 52/52/52
f 63/63/63 54/54/54 53/53/53
f 63/63/63 55/55/55 54/54/54
f 64/64/64 56/56/56 57/57/57
f 64/64/64 57/57/57 58/58/58
f 64/64/64 58/58/58 59/59/59
f 64/64/64 59/59/59 60/60/60
f 64/64/64 60/60/60 61/61/61
f 64/64/64 61/61/61 62/62/62
o Mirror_edge_3
v -12.000000 0.000000 -0.000000
v -11.839416 0.000000 0.321168
v -11.518248 0.000000 0.321168
v -11.357664 0.000000 -0.000000
v -11.518248 0.000000 -0.321168
v -11.839416 0.000000 -0.321168
v -12.000000 0.000000 -0.000000
v -12.000000 46.000000 -0.000000
v -11.839416 46.000000 0.321168
v -11.518248 46.000000 0.321168
v -11.357664 46.000000 -0.000000
v -11.518248 46.000000 -0.321168
v -11.839416 46.000000 -0.321168
v -12.000000 46.000000 -0.000000
v -11.678832 0.000000 -0.000000
v -11.678832 46.000000 -0.000000
vt 0.8164062 0.1679688
vt 0.8164062 0.1412760
vt 0.8164062 0.1145833
vt 0.8164062 0.0878906
vt 0.8164062 0.0611979
vt 0.8164062 0.0345052
vt 0.8164062 0.0078125
vt 0.9921875 0.1679688
vt 0.9921875 0.1412760
vt 0.9921875 0.1145833
vt 0.9921875 0.0878906
vt 0.9921875 0.0611979
vt 0.9921875 0.0345052
vt 0.9921875 0.0078125
vt 0.8164062 0.0878906
vt 0.9921875 0.0878906
vn -0.9863835 -0.0045912 0.1643973
vn -0.3713857 -0.0051860 0.9284642
vn 0.7070982 -0.0049369 0.7070982
vn 0.9863835 -0.0045912 -0.1643973
vn 0.3713857 -0.0051860 -0.9284642
vn -0.7070982 -0.0049369 -0.7070982
vn -0.9863835 -0.0045912 0.1643973
vn -0.9863835 0.0045912 -0.1643973
vn -0.7070982 0.0049369 0.7070982
vn 0.3713857 0.0051860 0.9284642
vn 0.9863835 0.0045912 0.1643973
vn 0.7070982 0.0049369 -0.7070982
vn -0.3713857 0.0051860 -0.9284642
vn -0.9863835 0.0045912 -0.1643973
vn 0.0000000 -1.0000000 -0.0000000
vn 0.0000000 1.0000000 -0.0000000
s 1
f 65/65/65 66/66/66 73/73/73
f 65/65/65 73/73/73 72/72/72
f 66/66/66 67/67/67 74/74/74
f 66/66/66 74/74/74 73/73/73
f 67/67/67 68/68/68 75/75/75
f 67/67/67 75/75/75 74/74/74
f 68/68/68 69/69/69 76/76/76
f 68/68/68 76/76/76 75/75/75
f 69/69/69 70/70/70 77/77/77
f 69/69/69 77/77/77 76/76/76
f 70/70/70 71/71/71 78/78/78
f 70/70/70 78/78/78 77/77/77
f 79/79/79 66/66/66 65/65/65
f 79/79/79 67/67/67 66/66/66
f 79/79/79 68/68/68 67/67/67
f 79/79/79 69/69/69 68/68/68
f 79/79/79 70/70/70 69/69/69
f 79/79/79 71/71/71 70/70/70
f 80/80/80 72/72/72 73/73/73
f 80/80/80 73/73/73 74/74/74
f 80/80/80 74/74/74 75/75/75
f 80/80/80 75/75/75 76/76/76
f 80/80/80 76/76/76 77/77/77
f 80/80/80 77/77/77 78/78/78
o Mirror_edge_4
v -6.160584 0.000000 11.678832
v -6.000000 0.000000 12.000000
v -5.678832 0.000000 12.000000
v -5.518248 0.000000 11.678832
v -5.678832 0.000000 11.357664
v -6.000000 0.000000 11.357664
v -6.160584 0.000000 11.678832
v -6.160584 46.000000 11.678832
v -6.000000 46.000000 12.000000
v -5.678832 46.000000 12.000000
v -5.518248 46.000000 11.678832
v -5.678832 46.000000 11.357664
v -6.000000 46.000000 11.357664
v -6.160584 46.000000 11.678832
v -5.839416 0.000000 11.678832
v -5.839416 46.000000 11.678832
vt 0.8164062 0.1679688
vt 0.8164062 0.1412760
vt 0.8164062 0.1145833
vt 0.8164062 0.0878906
vt 0.8164062 0.0611979
vt 0.8164062 0.0345052
vt 0.8164062 0.0078125
vt 0.9921875 0.1679688
vt 0.9921875 0.1412760
vt 0.9921875 0.1145833
vt 0.9921875 0.0878906
vt 0.9921875 0.0611979
vt 0.9921875 0.0345052
vt 0.9921875 0.0078125
vt 0.8164062 0.0878906
vt 0.9921875 0.0878906
vn -0.9863835 -0.0045912 0.1643973
vn -0.3713857 -0.0051860 0.9284642
vn 0.7070982 -0.0049369 0.7070982
vn 0.9863835 -0.0045912 -0.1643973
vn 0.3713857 -0.0051860 -0.9284642
vn -0.7070982 -0.0049369 -0.7070982
vn -0.9863835 -0.0045912 0.1643973
vn -0.9863835 0.0045912 -0.1643973
vn -0.7070982 0.0049369 0.7070982
vn 0.3713857 0.0051860 0.9284642
vn 0.9863835 0.0045912 0.1643973
vn 0.7070982 0.0049369 -0.7070982
vn -0.3713857 0.0051860 -0.9284642
vn -0.9863835 0.0045912 -0.1643973
vn 0.0000000 -1.0000000 -0.0000000
vn 0.0000000 1.0000000 -0.0000000
s 1
f 81/81/81 82/82/82 89/89/89
f 81/81/81 89/89/89 88/88/88
f 82/82/82 83/83/83 90/90/90
f 82/82/82 90/90/90 89/89/89
f 83/83/83 84/84/84 91/91/91
f 83/83/83 91/91/91 90/90/90
f 84/84/84 85/85/85 92/92/92
f 84/84/84 92/92/92 91/91/91
f 85/85/85 86/86/86 93/93/93
f 85/85/85 93/93/93 92/92/92
f 86/86/86 87/87/87 94/94/94
f 86/86/86 94/94/94 93/93/93
f 95/95/95 82/82/82 81/81/81
f 95/95/95 83/83/83 82/82/82
f 95/95/95 84/84/84 83/83/83
f 95/95/95 85/85/85 84/84/84
f 95/95/95 86/86/86 85/85/85
f 95/95/95 87/87/87 86/86/86
f 96/96/96 88/88/88 89/89/89
f 96/96/96 89/89/89 90/90/90
f 96/96/96 90/90/90 91/91/91
f 96/96/96 91/91/91 92/92/92
f 96/96/96 92/92/92 93/93/93
f 96/96/96 93/93/93 94/94/94
o Mirror_edge_5
v 5.518248 0.000000 11.678832
v 5.678832 0.000000 12.000000
v 6.000000 0.000000 12.000000
v 6.160584 0.000000 11.678832
v 6.000000 0.000000 11.357664
v 5.678832 0.000000 11.357664
v 5.518248 0.000000 11.678832
v 5.518248 46.000000 11.678832
v 5.678832 46.000000 12.000000
v 6.000000 46.000000 12.000000
v 6.160584 46.000000 11.678832
v 6.000000 46.000000 11.357664
v 5.678832 46.000000 11.357664
v 5.518248 46.000000 11.678832
v 5.839416 0.000000 11.678832
v 5.839416 46.000000 11.678832
vt 0.8164062 0.1679688
vt 0.8164062 0.1412760
vt 0.8164062 0.1145833
vt 0.8164062 0.0878906
vt 0.8164062 0.0611979
vt 0.8164062 0.0345052
vt 0.8164062 0.0078125
vt 0.9921875 0.1679688
vt 0.9921875 0.1412760
vt 0.9921875 0.1145833
vt 0.9921875 0.0878906
vt 0.9921875 0.0611979
vt 0.9921875 0.0345052
vt 0.9921875 0.0078125
vt 0.8164062 0.0878906
vt 0.9921875 0.0878906
vn -0.9863835 -0.0045912 0.1643973
vn -0.3713857 -0.0051860 0.9284642
vn 0.7070982 -0.0049369 0.7070982
vn 0.9863835 -0.0045912 -0.1643973
vn 0.3713857 -0.0051860 -0.9284642
vn -0.7070982 -0.0049369 -0.7070982
vn -0.9863835 -0.0045912 0.1643973
vn -0.9863835 0.0045912 -0.1643973
vn -0.7070982 0.0049369 0.7070982
vn 0.3713857 0.0051860 0.9284642
vn 0.9863835 0.0045912 0.1643973
vn 0.7070982 0.0049369 -0.7070982
vn -0.3713857 0.0051860 -0.9284642
vn -0.9863835 0.0045912 -0.1643973
vn 0.0000000 -1.0000000 -0.0000000
vn 0.0000000 1.0000000 -0.0000000
s 1
f 97/97/97 98/98/98 105/105/105
f 97/97/97 105/105/105 104/104/104
f 98/98/98 99/99/99 106/106/106
f 98/98/98 106/106/106 105/105/105
f 99/99/99 100/100/100 107/107/107
f 99/99/99 107/107/107 106/106/106
f 100/100/100 101/101/101 108/108/108
f 100/100/100 108/108/108 107/107/107
f 101/101/101 102/102/102 109/109/109
f 101/101/101 109/109/109 108/108/108
f 102/102/102 103/103/103 110/110/110
f 102/102/102 110/110/110 109/109/109
f 111/111/111 98/98/98 97/97/97
f 111/111/111 99/99/99 98/98/98
f 111/111/111 100/100/100 99/99/99
f 111/111/111 101/101/101 100/100/100
f 111/111/111 102/102/102 101/101/101
f 111/111/111 103/103/103 102/102/102
f 112/112/112 104/104/104 105/105/105
f 112/112/112 105/105/105 106/106/106
f 112/112/112 106/106/106 107/107/107
f 112/112/112 107/107/107 108/108/108
f 112/112/112 108/108/108 109/109/109
f 112/112/112 109/109/109 110/110/110
